<?xml version="1.0" encoding="utf-8" standalone="no"?>
<!DOCTYPE svg PUBLIC "-//W3C//DTD SVG 1.1//EN"
  "http://www.w3.org/Graphics/SVG/1.1/DTD/svg11.dtd">
<svg xmlns:xlink="http://www.w3.org/1999/xlink" width="460.8pt" height="345.6pt" viewBox="0 0 460.8 345.6" xmlns="http://www.w3.org/2000/svg" version="1.1">
 <metadata>
  <rdf:RDF xmlns:dc="http://purl.org/dc/elements/1.1/" xmlns:cc="http://creativecommons.org/ns#" xmlns:rdf="http://www.w3.org/1999/02/22-rdf-syntax-ns#">
   <cc:Work>
    <dc:type rdf:resource="http://purl.org/dc/dcmitype/StillImage"/>
    <dc:date>2026-01-23T18:05:49.687657</dc:date>
    <dc:format>image/svg+xml</dc:format>
    <dc:creator>
     <cc:Agent>
      <dc:title>Matplotlib v3.10.8, https://matplotlib.org/</dc:title>
     </cc:Agent>
    </dc:creator>
   </cc:Work>
  </rdf:RDF>
 </metadata>
 <defs>
  <style type="text/css">*{stroke-linejoin: round; stroke-linecap: butt}</style>
 </defs>
 <g id="figure_1">
  <g id="patch_1">
   <path d="M 0 345.6 
L 460.8 345.6 
L 460.8 0 
L 0 0 
z
" style="fill: #ffffff"/>
  </g>
  <g id="axes_1">
   <g id="patch_2">
    <path d="M 57.6 307.584 
L 414.72 307.584 
L 414.72 41.472 
L 57.6 41.472 
z
" style="fill: #ffffff"/>
   </g>
   <g id="matplotlib.axis_1">
    <g id="xtick_1">
     <g id="line2d_1">
      <defs>
       <path id="m603e492d2a" d="M 0 0 
L 0 3.5 
" style="stroke: #000000; stroke-width: 0.8"/>
      </defs>
      <g>
       <use xlink:href="#m603e492d2a" x="57.6" y="307.584" style="stroke: #000000; stroke-width: 0.8"/>
      </g>
     </g>
     <g id="text_1">
      <!-- 0 -->
      <g transform="translate(54.41875 322.182437) scale(0.1 -0.1)">
       <defs>
        <path id="DejaVuSans-30" d="M 2034 4250 
Q 1547 4250 1301 3770 
Q 1056 3291 1056 2328 
Q 1056 1369 1301 889 
Q 1547 409 2034 409 
Q 2525 409 2770 889 
Q 3016 1369 3016 2328 
Q 3016 3291 2770 3770 
Q 2525 4250 2034 4250 
z
M 2034 4750 
Q 2819 4750 3233 4129 
Q 3647 3509 3647 2328 
Q 3647 1150 3233 529 
Q 2819 -91 2034 -91 
Q 1250 -91 836 529 
Q 422 1150 422 2328 
Q 422 3509 836 4129 
Q 1250 4750 2034 4750 
z
" transform="scale(0.015625)"/>
       </defs>
       <use xlink:href="#DejaVuSans-30"/>
      </g>
     </g>
    </g>
    <g id="xtick_2">
     <g id="line2d_2">
      <g>
       <use xlink:href="#m603e492d2a" x="129.024" y="307.584" style="stroke: #000000; stroke-width: 0.8"/>
      </g>
     </g>
     <g id="text_2">
      <!-- 20 -->
      <g transform="translate(122.6615 322.182437) scale(0.1 -0.1)">
       <defs>
        <path id="DejaVuSans-32" d="M 1228 531 
L 3431 531 
L 3431 0 
L 469 0 
L 469 531 
Q 828 903 1448 1529 
Q 2069 2156 2228 2338 
Q 2531 2678 2651 2914 
Q 2772 3150 2772 3378 
Q 2772 3750 2511 3984 
Q 2250 4219 1831 4219 
Q 1534 4219 1204 4116 
Q 875 4013 500 3803 
L 500 4441 
Q 881 4594 1212 4672 
Q 1544 4750 1819 4750 
Q 2544 4750 2975 4387 
Q 3406 4025 3406 3419 
Q 3406 3131 3298 2873 
Q 3191 2616 2906 2266 
Q 2828 2175 2409 1742 
Q 1991 1309 1228 531 
z
" transform="scale(0.015625)"/>
       </defs>
       <use xlink:href="#DejaVuSans-32"/>
       <use xlink:href="#DejaVuSans-30" transform="translate(63.623047 0)"/>
      </g>
     </g>
    </g>
    <g id="xtick_3">
     <g id="line2d_3">
      <g>
       <use xlink:href="#m603e492d2a" x="200.448" y="307.584" style="stroke: #000000; stroke-width: 0.8"/>
      </g>
     </g>
     <g id="text_3">
      <!-- 40 -->
      <g transform="translate(194.0855 322.182437) scale(0.1 -0.1)">
       <defs>
        <path id="DejaVuSans-34" d="M 2419 4116 
L 825 1625 
L 2419 1625 
L 2419 4116 
z
M 2253 4666 
L 3047 4666 
L 3047 1625 
L 3713 1625 
L 3713 1100 
L 3047 1100 
L 3047 0 
L 2419 0 
L 2419 1100 
L 313 1100 
L 313 1709 
L 2253 4666 
z
" transform="scale(0.015625)"/>
       </defs>
       <use xlink:href="#DejaVuSans-34"/>
       <use xlink:href="#DejaVuSans-30" transform="translate(63.623047 0)"/>
      </g>
     </g>
    </g>
    <g id="xtick_4">
     <g id="line2d_4">
      <g>
       <use xlink:href="#m603e492d2a" x="271.872" y="307.584" style="stroke: #000000; stroke-width: 0.8"/>
      </g>
     </g>
     <g id="text_4">
      <!-- 60 -->
      <g transform="translate(265.5095 322.182437) scale(0.1 -0.1)">
       <defs>
        <path id="DejaVuSans-36" d="M 2113 2584 
Q 1688 2584 1439 2293 
Q 1191 2003 1191 1497 
Q 1191 994 1439 701 
Q 1688 409 2113 409 
Q 2538 409 2786 701 
Q 3034 994 3034 1497 
Q 3034 2003 2786 2293 
Q 2538 2584 2113 2584 
z
M 3366 4563 
L 3366 3988 
Q 3128 4100 2886 4159 
Q 2644 4219 2406 4219 
Q 1781 4219 1451 3797 
Q 1122 3375 1075 2522 
Q 1259 2794 1537 2939 
Q 1816 3084 2150 3084 
Q 2853 3084 3261 2657 
Q 3669 2231 3669 1497 
Q 3669 778 3244 343 
Q 2819 -91 2113 -91 
Q 1303 -91 875 529 
Q 447 1150 447 2328 
Q 447 3434 972 4092 
Q 1497 4750 2381 4750 
Q 2619 4750 2861 4703 
Q 3103 4656 3366 4563 
z
" transform="scale(0.015625)"/>
       </defs>
       <use xlink:href="#DejaVuSans-36"/>
       <use xlink:href="#DejaVuSans-30" transform="translate(63.623047 0)"/>
      </g>
     </g>
    </g>
    <g id="xtick_5">
     <g id="line2d_5">
      <g>
       <use xlink:href="#m603e492d2a" x="343.296" y="307.584" style="stroke: #000000; stroke-width: 0.8"/>
      </g>
     </g>
     <g id="text_5">
      <!-- 80 -->
      <g transform="translate(336.9335 322.182437) scale(0.1 -0.1)">
       <defs>
        <path id="DejaVuSans-38" d="M 2034 2216 
Q 1584 2216 1326 1975 
Q 1069 1734 1069 1313 
Q 1069 891 1326 650 
Q 1584 409 2034 409 
Q 2484 409 2743 651 
Q 3003 894 3003 1313 
Q 3003 1734 2745 1975 
Q 2488 2216 2034 2216 
z
M 1403 2484 
Q 997 2584 770 2862 
Q 544 3141 544 3541 
Q 544 4100 942 4425 
Q 1341 4750 2034 4750 
Q 2731 4750 3128 4425 
Q 3525 4100 3525 3541 
Q 3525 3141 3298 2862 
Q 3072 2584 2669 2484 
Q 3125 2378 3379 2068 
Q 3634 1759 3634 1313 
Q 3634 634 3220 271 
Q 2806 -91 2034 -91 
Q 1263 -91 848 271 
Q 434 634 434 1313 
Q 434 1759 690 2068 
Q 947 2378 1403 2484 
z
M 1172 3481 
Q 1172 3119 1398 2916 
Q 1625 2713 2034 2713 
Q 2441 2713 2670 2916 
Q 2900 3119 2900 3481 
Q 2900 3844 2670 4047 
Q 2441 4250 2034 4250 
Q 1625 4250 1398 4047 
Q 1172 3844 1172 3481 
z
" transform="scale(0.015625)"/>
       </defs>
       <use xlink:href="#DejaVuSans-38"/>
       <use xlink:href="#DejaVuSans-30" transform="translate(63.623047 0)"/>
      </g>
     </g>
    </g>
    <g id="xtick_6">
     <g id="line2d_6">
      <g>
       <use xlink:href="#m603e492d2a" x="414.72" y="307.584" style="stroke: #000000; stroke-width: 0.8"/>
      </g>
     </g>
     <g id="text_6">
      <!-- 100 -->
      <g transform="translate(405.17625 322.182437) scale(0.1 -0.1)">
       <defs>
        <path id="DejaVuSans-31" d="M 794 531 
L 1825 531 
L 1825 4091 
L 703 3866 
L 703 4441 
L 1819 4666 
L 2450 4666 
L 2450 531 
L 3481 531 
L 3481 0 
L 794 0 
L 794 531 
z
" transform="scale(0.015625)"/>
       </defs>
       <use xlink:href="#DejaVuSans-31"/>
       <use xlink:href="#DejaVuSans-30" transform="translate(63.623047 0)"/>
       <use xlink:href="#DejaVuSans-30" transform="translate(127.246094 0)"/>
      </g>
     </g>
    </g>
    <g id="text_7">
     <!-- Time ($t/ms$) -->
     <g transform="translate(207.11 335.860562) scale(0.1 -0.1)">
      <defs>
       <path id="DejaVuSans-54" d="M -19 4666 
L 3928 4666 
L 3928 4134 
L 2272 4134 
L 2272 0 
L 1638 0 
L 1638 4134 
L -19 4134 
L -19 4666 
z
" transform="scale(0.015625)"/>
       <path id="DejaVuSans-69" d="M 603 3500 
L 1178 3500 
L 1178 0 
L 603 0 
L 603 3500 
z
M 603 4863 
L 1178 4863 
L 1178 4134 
L 603 4134 
L 603 4863 
z
" transform="scale(0.015625)"/>
       <path id="DejaVuSans-6d" d="M 3328 2828 
Q 3544 3216 3844 3400 
Q 4144 3584 4550 3584 
Q 5097 3584 5394 3201 
Q 5691 2819 5691 2113 
L 5691 0 
L 5113 0 
L 5113 2094 
Q 5113 2597 4934 2840 
Q 4756 3084 4391 3084 
Q 3944 3084 3684 2787 
Q 3425 2491 3425 1978 
L 3425 0 
L 2847 0 
L 2847 2094 
Q 2847 2600 2669 2842 
Q 2491 3084 2119 3084 
Q 1678 3084 1418 2786 
Q 1159 2488 1159 1978 
L 1159 0 
L 581 0 
L 581 3500 
L 1159 3500 
L 1159 2956 
Q 1356 3278 1631 3431 
Q 1906 3584 2284 3584 
Q 2666 3584 2933 3390 
Q 3200 3197 3328 2828 
z
" transform="scale(0.015625)"/>
       <path id="DejaVuSans-65" d="M 3597 1894 
L 3597 1613 
L 953 1613 
Q 991 1019 1311 708 
Q 1631 397 2203 397 
Q 2534 397 2845 478 
Q 3156 559 3463 722 
L 3463 178 
Q 3153 47 2828 -22 
Q 2503 -91 2169 -91 
Q 1331 -91 842 396 
Q 353 884 353 1716 
Q 353 2575 817 3079 
Q 1281 3584 2069 3584 
Q 2775 3584 3186 3129 
Q 3597 2675 3597 1894 
z
M 3022 2063 
Q 3016 2534 2758 2815 
Q 2500 3097 2075 3097 
Q 1594 3097 1305 2825 
Q 1016 2553 972 2059 
L 3022 2063 
z
" transform="scale(0.015625)"/>
       <path id="DejaVuSans-20" transform="scale(0.015625)"/>
       <path id="DejaVuSans-28" d="M 1984 4856 
Q 1566 4138 1362 3434 
Q 1159 2731 1159 2009 
Q 1159 1288 1364 580 
Q 1569 -128 1984 -844 
L 1484 -844 
Q 1016 -109 783 600 
Q 550 1309 550 2009 
Q 550 2706 781 3412 
Q 1013 4119 1484 4856 
L 1984 4856 
z
" transform="scale(0.015625)"/>
       <path id="DejaVuSans-Oblique-74" d="M 2706 3500 
L 2619 3053 
L 1472 3053 
L 1100 1153 
Q 1081 1047 1072 975 
Q 1063 903 1063 863 
Q 1063 663 1183 572 
Q 1303 481 1569 481 
L 2150 481 
L 2053 0 
L 1503 0 
Q 991 0 739 200 
Q 488 400 488 806 
Q 488 878 497 964 
Q 506 1050 525 1153 
L 897 3053 
L 409 3053 
L 500 3500 
L 978 3500 
L 1172 4494 
L 1747 4494 
L 1556 3500 
L 2706 3500 
z
" transform="scale(0.015625)"/>
       <path id="DejaVuSans-2f" d="M 1625 4666 
L 2156 4666 
L 531 -594 
L 0 -594 
L 1625 4666 
z
" transform="scale(0.015625)"/>
       <path id="DejaVuSans-Oblique-6d" d="M 5747 2113 
L 5338 0 
L 4763 0 
L 5166 2094 
Q 5191 2228 5203 2325 
Q 5216 2422 5216 2491 
Q 5216 2772 5059 2928 
Q 4903 3084 4622 3084 
Q 4203 3084 3875 2770 
Q 3547 2456 3450 1953 
L 3066 0 
L 2491 0 
L 2900 2094 
Q 2925 2209 2937 2307 
Q 2950 2406 2950 2484 
Q 2950 2769 2794 2926 
Q 2638 3084 2363 3084 
Q 1938 3084 1609 2770 
Q 1281 2456 1184 1953 
L 800 0 
L 225 0 
L 909 3500 
L 1484 3500 
L 1375 2956 
Q 1609 3263 1923 3423 
Q 2238 3584 2597 3584 
Q 2978 3584 3223 3384 
Q 3469 3184 3519 2828 
Q 3781 3197 4126 3390 
Q 4472 3584 4856 3584 
Q 5306 3584 5551 3325 
Q 5797 3066 5797 2591 
Q 5797 2488 5784 2364 
Q 5772 2241 5747 2113 
z
" transform="scale(0.015625)"/>
       <path id="DejaVuSans-Oblique-73" d="M 3200 3397 
L 3091 2853 
Q 2863 2978 2609 3040 
Q 2356 3103 2088 3103 
Q 1634 3103 1373 2948 
Q 1113 2794 1113 2528 
Q 1113 2219 1719 2053 
Q 1766 2041 1788 2034 
L 1972 1978 
Q 2547 1819 2739 1644 
Q 2931 1469 2931 1166 
Q 2931 609 2489 259 
Q 2047 -91 1331 -91 
Q 1053 -91 747 -37 
Q 441 16 72 128 
L 184 722 
Q 500 559 806 475 
Q 1113 391 1394 391 
Q 1816 391 2080 572 
Q 2344 753 2344 1031 
Q 2344 1331 1650 1516 
L 1591 1531 
L 1394 1581 
Q 956 1697 753 1886 
Q 550 2075 550 2369 
Q 550 2928 970 3256 
Q 1391 3584 2113 3584 
Q 2397 3584 2667 3537 
Q 2938 3491 3200 3397 
z
" transform="scale(0.015625)"/>
       <path id="DejaVuSans-29" d="M 513 4856 
L 1013 4856 
Q 1481 4119 1714 3412 
Q 1947 2706 1947 2009 
Q 1947 1309 1714 600 
Q 1481 -109 1013 -844 
L 513 -844 
Q 928 -128 1133 580 
Q 1338 1288 1338 2009 
Q 1338 2731 1133 3434 
Q 928 4138 513 4856 
z
" transform="scale(0.015625)"/>
      </defs>
      <use xlink:href="#DejaVuSans-54" transform="translate(0 0.015625)"/>
      <use xlink:href="#DejaVuSans-69" transform="translate(61.083984 0.015625)"/>
      <use xlink:href="#DejaVuSans-6d" transform="translate(88.867188 0.015625)"/>
      <use xlink:href="#DejaVuSans-65" transform="translate(186.279297 0.015625)"/>
      <use xlink:href="#DejaVuSans-20" transform="translate(247.802734 0.015625)"/>
      <use xlink:href="#DejaVuSans-28" transform="translate(279.589844 0.015625)"/>
      <use xlink:href="#DejaVuSans-Oblique-74" transform="translate(318.603516 0.015625)"/>
      <use xlink:href="#DejaVuSans-2f" transform="translate(357.8125 0.015625)"/>
      <use xlink:href="#DejaVuSans-Oblique-6d" transform="translate(391.503906 0.015625)"/>
      <use xlink:href="#DejaVuSans-Oblique-73" transform="translate(488.916016 0.015625)"/>
      <use xlink:href="#DejaVuSans-29" transform="translate(541.015625 0.015625)"/>
     </g>
    </g>
   </g>
   <g id="matplotlib.axis_2">
    <g id="ytick_1">
     <g id="line2d_7">
      <defs>
       <path id="m1db990c5cf" d="M 0 0 
L -3.5 0 
" style="stroke: #000000; stroke-width: 0.8"/>
      </defs>
      <g>
       <use xlink:href="#m1db990c5cf" x="57.6" y="307.584" style="stroke: #000000; stroke-width: 0.8"/>
      </g>
     </g>
     <g id="text_8">
      <!-- 0.0 -->
      <g transform="translate(34.696875 311.383219) scale(0.1 -0.1)">
       <defs>
        <path id="DejaVuSans-2e" d="M 684 794 
L 1344 794 
L 1344 0 
L 684 0 
L 684 794 
z
" transform="scale(0.015625)"/>
       </defs>
       <use xlink:href="#DejaVuSans-30"/>
       <use xlink:href="#DejaVuSans-2e" transform="translate(63.623047 0)"/>
       <use xlink:href="#DejaVuSans-30" transform="translate(95.410156 0)"/>
      </g>
     </g>
    </g>
    <g id="ytick_2">
     <g id="line2d_8">
      <g>
       <use xlink:href="#m1db990c5cf" x="57.6" y="254.3616" style="stroke: #000000; stroke-width: 0.8"/>
      </g>
     </g>
     <g id="text_9">
      <!-- 0.1 -->
      <g transform="translate(34.696875 258.160819) scale(0.1 -0.1)">
       <use xlink:href="#DejaVuSans-30"/>
       <use xlink:href="#DejaVuSans-2e" transform="translate(63.623047 0)"/>
       <use xlink:href="#DejaVuSans-31" transform="translate(95.410156 0)"/>
      </g>
     </g>
    </g>
    <g id="ytick_3">
     <g id="line2d_9">
      <g>
       <use xlink:href="#m1db990c5cf" x="57.6" y="201.1392" style="stroke: #000000; stroke-width: 0.8"/>
      </g>
     </g>
     <g id="text_10">
      <!-- 0.2 -->
      <g transform="translate(34.696875 204.938419) scale(0.1 -0.1)">
       <use xlink:href="#DejaVuSans-30"/>
       <use xlink:href="#DejaVuSans-2e" transform="translate(63.623047 0)"/>
       <use xlink:href="#DejaVuSans-32" transform="translate(95.410156 0)"/>
      </g>
     </g>
    </g>
    <g id="ytick_4">
     <g id="line2d_10">
      <g>
       <use xlink:href="#m1db990c5cf" x="57.6" y="147.9168" style="stroke: #000000; stroke-width: 0.8"/>
      </g>
     </g>
     <g id="text_11">
      <!-- 0.3 -->
      <g transform="translate(34.696875 151.716019) scale(0.1 -0.1)">
       <defs>
        <path id="DejaVuSans-33" d="M 2597 2516 
Q 3050 2419 3304 2112 
Q 3559 1806 3559 1356 
Q 3559 666 3084 287 
Q 2609 -91 1734 -91 
Q 1441 -91 1130 -33 
Q 819 25 488 141 
L 488 750 
Q 750 597 1062 519 
Q 1375 441 1716 441 
Q 2309 441 2620 675 
Q 2931 909 2931 1356 
Q 2931 1769 2642 2001 
Q 2353 2234 1838 2234 
L 1294 2234 
L 1294 2753 
L 1863 2753 
Q 2328 2753 2575 2939 
Q 2822 3125 2822 3475 
Q 2822 3834 2567 4026 
Q 2313 4219 1838 4219 
Q 1578 4219 1281 4162 
Q 984 4106 628 3988 
L 628 4550 
Q 988 4650 1302 4700 
Q 1616 4750 1894 4750 
Q 2613 4750 3031 4423 
Q 3450 4097 3450 3541 
Q 3450 3153 3228 2886 
Q 3006 2619 2597 2516 
z
" transform="scale(0.015625)"/>
       </defs>
       <use xlink:href="#DejaVuSans-30"/>
       <use xlink:href="#DejaVuSans-2e" transform="translate(63.623047 0)"/>
       <use xlink:href="#DejaVuSans-33" transform="translate(95.410156 0)"/>
      </g>
     </g>
    </g>
    <g id="ytick_5">
     <g id="line2d_11">
      <g>
       <use xlink:href="#m1db990c5cf" x="57.6" y="94.6944" style="stroke: #000000; stroke-width: 0.8"/>
      </g>
     </g>
     <g id="text_12">
      <!-- 0.4 -->
      <g transform="translate(34.696875 98.493619) scale(0.1 -0.1)">
       <use xlink:href="#DejaVuSans-30"/>
       <use xlink:href="#DejaVuSans-2e" transform="translate(63.623047 0)"/>
       <use xlink:href="#DejaVuSans-34" transform="translate(95.410156 0)"/>
      </g>
     </g>
    </g>
    <g id="ytick_6">
     <g id="line2d_12">
      <g>
       <use xlink:href="#m1db990c5cf" x="57.6" y="41.472" style="stroke: #000000; stroke-width: 0.8"/>
      </g>
     </g>
     <g id="text_13">
      <!-- 0.5 -->
      <g transform="translate(34.696875 45.271219) scale(0.1 -0.1)">
       <defs>
        <path id="DejaVuSans-35" d="M 691 4666 
L 3169 4666 
L 3169 4134 
L 1269 4134 
L 1269 2991 
Q 1406 3038 1543 3061 
Q 1681 3084 1819 3084 
Q 2600 3084 3056 2656 
Q 3513 2228 3513 1497 
Q 3513 744 3044 326 
Q 2575 -91 1722 -91 
Q 1428 -91 1123 -41 
Q 819 9 494 109 
L 494 744 
Q 775 591 1075 516 
Q 1375 441 1709 441 
Q 2250 441 2565 725 
Q 2881 1009 2881 1497 
Q 2881 1984 2565 2268 
Q 2250 2553 1709 2553 
Q 1456 2553 1204 2497 
Q 953 2441 691 2322 
L 691 4666 
z
" transform="scale(0.015625)"/>
       </defs>
       <use xlink:href="#DejaVuSans-30"/>
       <use xlink:href="#DejaVuSans-2e" transform="translate(63.623047 0)"/>
       <use xlink:href="#DejaVuSans-35" transform="translate(95.410156 0)"/>
      </g>
     </g>
    </g>
   </g>
   <g id="line2d_13">
    <path d="M 57.6 201.1392 
L 57.77856 201.280697 
L 57.814272 195.981543 
L 57.921408 196.051805 
L 59.3856 197.157159 
L 59.528448 197.278821 
L 59.56416 191.981563 
L 59.671296 192.057674 
L 61.028352 193.167065 
L 61.314048 193.433238 
L 61.34976 188.13916 
L 61.456896 188.224968 
L 62.77824 189.439006 
L 63.099648 189.775473 
L 63.13536 184.485763 
L 63.242496 184.58481 
L 64.528128 185.93597 
L 64.885248 186.361248 
L 64.92096 181.077076 
L 65.028096 181.192852 
L 66.34944 182.803777 
L 66.70656 183.293072 
L 66.742272 178.015739 
L 66.849408 178.152098 
L 68.206464 180.077988 
L 68.49216 180.526529 
L 68.527872 175.256621 
L 68.635008 175.41528 
L 70.063488 177.750244 
L 70.27776 178.132409 
L 70.313472 172.870495 
L 70.420608 173.053108 
L 71.956224 175.914068 
L 72.06336 176.12883 
L 72.099072 170.875157 
L 72.206208 171.082411 
L 73.84896 174.518253 
L 73.884672 169.272741 
L 73.991808 169.504348 
L 75.63456 173.28832 
L 75.670272 168.050594 
L 75.777408 168.305398 
L 77.42016 172.414303 
L 77.455872 167.18376 
L 77.563008 167.459928 
L 79.812864 173.585403 
L 84.384 186.972736 
L 86.34816 192.682684 
L 86.383872 187.465888 
L 86.491008 187.781896 
L 88.13376 192.561492 
L 88.169472 187.344958 
L 88.276608 187.661747 
L 89.91936 192.45264 
L 89.955072 187.236357 
L 90.062208 187.553897 
L 91.70496 192.355605 
L 91.740672 187.139564 
L 91.847808 187.457824 
L 93.49056 192.26985 
L 93.526272 187.054039 
L 93.633408 187.372985 
L 95.27616 192.19482 
L 95.311872 186.979228 
L 95.419008 187.298827 
L 97.06176 192.129953 
L 97.097472 186.914568 
L 97.204608 187.234787 
L 98.84736 192.074681 
L 98.883072 186.859492 
L 98.990208 187.180295 
L 100.63296 192.028437 
L 100.668672 186.813433 
L 100.775808 187.134786 
L 102.41856 191.990657 
L 102.454272 186.775827 
L 102.561408 187.097695 
L 104.20416 191.960783 
L 104.239872 186.746114 
L 104.347008 187.068465 
L 105.98976 191.938266 
L 106.025472 186.723748 
L 106.132608 187.046547 
L 109.953792 198.197793 
L 113.275008 207.249471 
L 114.91776 211.483018 
L 114.953472 206.255137 
L 115.060608 206.537707 
L 116.70336 210.775861 
L 116.739072 205.548017 
L 116.846208 205.83071 
L 118.48896 210.072597 
L 118.524672 204.844773 
L 118.631808 205.127538 
L 120.27456 209.37252 
L 120.310272 204.144703 
L 120.417408 204.427504 
L 122.024448 208.584604 
L 122.06016 203.356865 
L 122.167296 203.639913 
L 123.810048 207.893636 
L 123.84576 202.665896 
L 123.952896 202.948952 
L 125.595648 207.205156 
L 125.63136 201.977418 
L 125.738496 202.260494 
L 127.381248 206.519424 
L 127.41696 201.291696 
L 127.524096 201.574818 
L 129.166848 205.836908 
L 129.20256 200.609204 
L 129.309696 200.892411 
L 130.952448 205.158271 
L 130.98816 199.930606 
L 131.095296 200.213947 
L 132.738048 204.484343 
L 132.77376 199.256738 
L 132.880896 199.540273 
L 134.523648 203.816111 
L 134.55936 198.588589 
L 134.666496 198.872389 
L 138.48768 208.67065 
L 141.88032 216.809308 
L 143.451648 220.381389 
L 143.48736 215.142694 
L 143.594496 215.392886 
L 145.237248 219.145976 
L 145.27296 213.907507 
L 145.380096 214.15839 
L 147.022848 217.924384 
L 147.05856 212.686094 
L 147.165696 212.937528 
L 148.808448 216.714613 
L 148.84416 211.476465 
L 148.951296 211.728344 
L 150.594048 215.515162 
L 150.62976 210.277131 
L 150.736896 210.529379 
L 152.379648 214.325033 
L 152.41536 209.087104 
L 152.522496 209.339677 
L 154.165248 213.143727 
L 154.20096 207.905895 
L 154.308096 208.158783 
L 155.950848 211.971239 
L 155.98656 206.733512 
L 156.093696 206.986734 
L 157.736448 210.808044 
L 157.77216 205.570437 
L 157.879296 205.824043 
L 159.522048 209.65507 
L 159.55776 204.417609 
L 159.664896 204.671676 
L 161.307648 208.513673 
L 161.34336 203.276393 
L 161.450496 203.531027 
L 163.093248 207.385602 
L 163.12896 202.148546 
L 163.236096 202.403875 
L 168.021504 213.511598 
L 171.985536 222.146487 
L 172.021248 222.221119 
L 172.05696 216.976994 
L 172.164096 217.210959 
L 173.806848 220.726802 
L 173.84256 215.482867 
L 173.949696 215.717421 
L 175.592448 219.245635 
L 175.62816 214.001849 
L 175.735296 214.236872 
L 177.378048 217.775985 
L 177.41376 212.532321 
L 177.520896 212.767736 
L 179.163648 216.31689 
L 179.19936 211.073338 
L 179.306496 211.309111 
L 180.949248 214.868067 
L 180.98496 209.624629 
L 181.092096 209.860769 
L 182.734848 213.429908 
L 182.77056 208.1866 
L 182.877696 208.423161 
L 184.520448 212.003462 
L 184.55616 206.760316 
L 184.663296 206.997391 
L 186.306048 210.590417 
L 186.34176 205.347477 
L 186.448896 205.5852 
L 188.091648 209.193058 
L 188.12736 203.950381 
L 188.234496 204.188922 
L 189.877248 207.814218 
L 189.91296 202.571873 
L 190.020096 202.811437 
L 191.662848 206.457218 
L 191.69856 201.215282 
L 191.805696 201.456102 
L 198.733824 216.753682 
L 200.590848 220.664532 
L 200.62656 215.419102 
L 200.733696 215.649199 
L 202.376448 219.113839 
L 202.41216 213.868539 
L 202.519296 214.099052 
L 204.162048 217.574178 
L 204.19776 212.32899 
L 204.304896 212.559864 
L 205.947648 216.044977 
L 205.98336 210.799898 
L 206.090496 211.031127 
L 207.733248 214.526399 
L 207.76896 209.281442 
L 207.876096 209.513066 
L 209.518848 213.019332 
L 209.55456 207.774526 
L 209.661696 208.006631 
L 211.304448 211.525377 
L 211.34016 206.280765 
L 211.447296 206.513483 
L 213.12576 210.12282 
L 213.161472 204.878429 
L 213.268608 205.111839 
L 214.91136 208.660782 
L 214.947072 203.41671 
L 215.054208 203.651106 
L 216.69696 207.220345 
L 216.732672 201.976673 
L 216.839808 202.212302 
L 218.48256 205.805461 
L 218.518272 200.562282 
L 218.625408 200.799415 
L 220.26816 204.420483 
L 220.303872 199.177895 
L 220.411008 199.416831 
L 229.19616 218.744701 
L 229.231872 213.500248 
L 229.339008 213.733291 
L 230.98176 217.24564 
L 231.017472 212.001301 
L 231.124608 212.234709 
L 232.76736 215.756974 
L 232.803072 210.512745 
L 232.910208 210.746511 
L 234.55296 214.278831 
L 234.588672 209.034724 
L 234.695808 209.268884 
L 236.33856 212.812032 
L 236.374272 207.568073 
L 236.481408 207.802708 
L 238.12416 211.358075 
L 238.159872 206.114305 
L 238.267008 206.349538 
L 239.90976 209.919101 
L 239.945472 204.675576 
L 240.052608 204.91157 
L 241.69536 208.497853 
L 241.731072 203.254639 
L 241.838208 203.491595 
L 243.48096 207.097612 
L 243.516672 201.854786 
L 243.623808 202.092936 
L 245.26656 205.722124 
L 245.302272 200.479773 
L 245.409408 200.719377 
L 247.05216 204.375512 
L 247.087872 199.13373 
L 247.195008 199.375069 
L 248.83776 203.062173 
L 248.873472 197.82106 
L 248.980608 198.06443 
L 257.76576 217.746263 
L 257.801472 212.503164 
L 257.908608 212.740262 
L 259.55136 216.313478 
L 259.587072 211.070491 
L 259.694208 211.30795 
L 261.33696 214.890878 
L 261.372672 209.648003 
L 261.479808 209.885824 
L 263.12256 213.478723 
L 263.158272 208.235975 
L 263.265408 208.474201 
L 264.90816 212.077915 
L 264.943872 206.83532 
L 265.051008 207.074035 
L 266.69376 210.689972 
L 266.729472 205.447572 
L 266.836608 205.686899 
L 268.47936 209.317 
L 268.515072 204.074847 
L 268.622208 204.314945 
L 270.26496 207.961639 
L 270.300672 202.719797 
L 270.407808 202.960857 
L 272.05056 206.62701 
L 272.086272 201.385553 
L 272.193408 201.627794 
L 273.83616 205.316637 
L 273.871872 200.075646 
L 273.979008 200.319313 
L 275.62176 204.034367 
L 275.657472 198.793931 
L 275.764608 199.039284 
L 277.40736 202.784273 
L 277.443072 197.544482 
L 277.550208 197.791795 
L 285.62112 216.143354 
L 286.33536 217.688495 
L 286.371072 212.446025 
L 286.478208 212.684998 
L 288.12096 216.285106 
L 288.156672 211.042749 
L 288.263808 211.282086 
L 289.90656 214.891811 
L 289.942272 209.649564 
L 290.049408 209.889259 
L 291.69216 213.508736 
L 291.727872 208.266611 
L 291.835008 208.506697 
L 293.47776 212.136629 
L 293.513472 206.89465 
L 293.620608 207.1352 
L 295.26336 210.776839 
L 295.299072 205.535043 
L 295.406208 205.776168 
L 297.04896 209.431282 
L 297.084672 204.189716 
L 297.191808 204.431562 
L 298.83456 208.102396 
L 298.870272 202.861121 
L 298.977408 203.103866 
L 300.62016 206.79309 
L 300.655872 201.552174 
L 300.763008 201.796024 
L 302.40576 205.506673 
L 302.441472 200.266194 
L 302.548608 200.511378 
L 304.19136 204.246779 
L 304.227072 199.006819 
L 304.334208 199.253584 
L 305.97696 203.017271 
L 306.012672 197.777918 
L 306.119808 198.026525 
L 313.762176 215.475979 
L 314.90496 217.959232 
L 314.940672 212.71677 
L 315.047808 212.955764 
L 316.654848 216.478399 
L 316.69056 211.236109 
L 316.797696 211.475641 
L 318.440448 215.087519 
L 318.47616 209.845338 
L 318.583296 210.085226 
L 320.226048 213.706776 
L 320.26176 208.464715 
L 320.368896 208.704985 
L 322.011648 212.336814 
L 322.04736 207.094893 
L 322.154496 207.335612 
L 323.797248 210.978875 
L 323.83296 205.737129 
L 323.940096 205.9784 
L 325.582848 209.634772 
L 325.61856 204.393248 
L 325.725696 204.635212 
L 327.368448 208.30685 
L 327.40416 203.065605 
L 327.511296 203.308433 
L 329.154048 206.997926 
L 329.18976 201.757027 
L 329.296896 202.000919 
L 330.939648 205.71123 
L 330.97536 200.470752 
L 331.082496 200.715933 
L 332.725248 204.450326 
L 332.76096 199.21035 
L 332.868096 199.457065 
L 334.510848 203.219025 
L 334.54656 197.979639 
L 334.653696 198.228142 
L 342.153216 215.341628 
L 343.438848 218.134699 
L 343.47456 212.892103 
L 343.581696 213.130693 
L 345.224448 216.723991 
L 345.26016 211.481512 
L 345.367296 211.720476 
L 347.010048 215.323474 
L 347.04576 210.081105 
L 347.152896 210.320424 
L 348.795648 213.933096 
L 348.83136 208.690844 
L 348.938496 208.930541 
L 350.581248 212.553434 
L 350.61696 207.31132 
L 350.724096 207.551458 
L 352.366848 211.185678 
L 352.40256 205.943735 
L 352.509696 206.184414 
L 354.152448 209.831596 
L 354.18816 204.589871 
L 354.295296 204.831228 
L 355.938048 208.4935 
L 355.97376 203.252048 
L 356.080896 203.494254 
L 357.723648 207.174187 
L 357.75936 201.933075 
L 357.866496 202.176329 
L 359.509248 205.87688 
L 359.54496 200.636184 
L 359.652096 200.880711 
L 361.294848 204.605151 
L 361.33056 199.364953 
L 361.437696 199.610998 
L 363.080448 203.362833 
L 363.11616 198.123219 
L 363.223296 198.37104 
L 370.79424 215.600007 
L 372.008448 218.230369 
L 372.04416 212.987606 
L 372.151296 213.225698 
L 373.794048 216.811601 
L 373.82976 211.568955 
L 373.936896 211.807421 
L 375.579648 215.403056 
L 375.61536 210.16052 
L 375.722496 210.399342 
L 377.365248 214.00468 
L 377.40096 208.762262 
L 377.508096 209.001462 
L 379.150848 212.617054 
L 379.18656 207.374774 
L 379.293696 207.614415 
L 380.936448 211.241375 
L 380.97216 205.999266 
L 381.079296 206.239451 
L 382.722048 209.879427 
L 382.75776 204.637536 
L 382.864896 204.878402 
L 384.507648 208.533542 
L 384.54336 203.291927 
L 384.650496 203.533646 
L 386.293248 207.206547 
L 386.32896 201.965274 
L 386.436096 202.208048 
L 388.078848 205.901697 
L 388.11456 200.660843 
L 388.221696 200.904898 
L 389.864448 204.622601 
L 389.90016 199.382248 
L 390.007296 199.627832 
L 391.650048 203.373133 
L 391.68576 198.133369 
L 391.792896 198.380744 
L 399.435264 215.745942 
L 400.578048 218.21797 
L 400.61376 212.975148 
L 400.720896 213.213066 
L 402.363648 216.79652 
L 402.39936 211.553815 
L 402.506496 211.792106 
L 404.149248 215.385294 
L 404.18496 210.142699 
L 404.292096 210.381345 
L 405.934848 213.984257 
L 405.97056 208.74178 
L 406.077696 208.980806 
L 407.720448 212.594012 
L 407.75616 207.351674 
L 407.863296 207.591145 
L 409.506048 211.215781 
L 409.54176 205.973617 
L 409.648896 206.213635 
L 411.291648 209.851373 
L 411.32736 204.609429 
L 411.434496 204.850135 
L 413.077248 208.503146 
L 413.11296 203.26148 
L 413.220096 203.503047 
L 414.72 206.857483 
L 414.72 206.857483 
" clip-path="url(#pb5b94bfae1)" style="fill: none; stroke: #1f77b4; stroke-width: 1.5; stroke-linecap: square"/>
   </g>
   <g id="line2d_14">
    <path d="M 57.6 254.3616 
L 58.242816 253.054598 
L 60.81408 247.312463 
L 61.956864 244.391088 
L 64.885248 236.147735 
L 68.420736 224.512573 
L 69.099264 222.01913 
L 79.20576 185.136336 
L 79.348608 182.036441 
L 80.598528 178.598819 
L 80.99136 177.66477 
L 81.134208 174.691676 
L 82.24128 172.576342 
L 82.77696 171.73936 
L 82.919808 168.885581 
L 83.884032 167.79757 
L 84.56256 167.24473 
L 84.705408 164.499305 
L 85.562496 164.143546 
L 88.633728 163.220178 
L 89.490816 162.971371 
L 90.240768 162.759334 
L 91.097856 162.461496 
L 92.24064 162.124353 
L 93.062016 161.897787 
L 93.811968 161.692736 
L 94.669056 161.403491 
L 95.81184 161.079191 
L 96.633216 160.862683 
L 97.383168 160.667381 
L 98.204544 160.396304 
L 99.454464 160.055083 
L 100.27584 159.871116 
L 100.918656 159.711324 
L 101.740032 159.443391 
L 103.097088 159.093137 
L 103.918464 158.943575 
L 104.454144 158.815829 
L 105.27552 158.552618 
L 106.88256 158.164723 
L 107.703936 158.090031 
L 107.77536 158.09397 
L 107.811072 155.438089 
L 107.918208 155.456221 
L 108.775296 155.727509 
L 109.56096 156.162004 
L 109.596672 153.527274 
L 109.703808 153.60845 
L 110.775168 154.578196 
L 111.34656 155.205194 
L 111.382272 152.588293 
L 111.489408 152.722568 
L 112.846464 154.620773 
L 113.13216 155.063605 
L 113.167872 152.461479 
L 113.275008 152.639732 
L 118.631808 161.408155 
L 120.060288 163.377042 
L 120.845952 164.359262 
L 124.345728 168.416379 
L 128.30976 172.077778 
L 130.952448 174.138314 
L 131.988096 174.7002 
L 133.523712 175.582768 
L 136.309248 177.004238 
L 136.34496 174.368982 
L 136.452096 174.448153 
L 137.630592 175.467627 
L 138.094848 175.939097 
L 138.13056 173.318432 
L 138.237696 173.441071 
L 139.7376 175.345 
L 139.880448 175.543184 
L 139.91616 172.934695 
L 140.023296 173.093585 
L 141.666048 175.702181 
L 141.70176 173.103719 
L 141.808896 173.292449 
L 145.737216 180.018476 
L 149.02272 184.66568 
L 153.201024 189.227804 
L 155.522304 191.241761 
L 156.450816 191.919225 
L 159.986304 193.99524 
L 161.129088 194.530595 
L 161.629056 194.694995 
L 162.736128 195.056514 
L 163.450368 195.248186 
L 164.521728 195.485038 
L 164.878848 195.612732 
L 164.91456 192.96832 
L 165.021696 193.019815 
L 166.235904 193.740614 
L 166.664448 194.051517 
L 166.70016 191.420216 
L 166.807296 191.510801 
L 168.271488 192.907921 
L 168.450048 193.097195 
L 168.48576 190.477049 
L 168.592896 190.600875 
L 170.235648 192.656116 
L 170.27136 190.045345 
L 170.378496 190.19709 
L 174.19968 195.443463 
L 177.59232 199.101415 
L 179.127936 200.470217 
L 179.627904 200.808217 
L 183.020544 203.007269 
L 184.270464 203.60144 
L 184.877568 203.828445 
L 186.056064 204.244126 
L 186.627456 204.389283 
L 187.77024 204.639909 
L 188.413056 204.737351 
L 189.520128 204.842612 
L 190.198656 204.870487 
L 191.270016 204.843159 
L 191.984256 204.795931 
L 193.055616 204.647362 
L 193.448448 204.649243 
L 193.48416 201.992391 
L 193.591296 202.00662 
L 194.698368 202.273831 
L 195.234048 202.477526 
L 195.26976 199.834279 
L 195.376896 199.889098 
L 196.662528 200.680405 
L 197.019648 200.941259 
L 197.05536 198.309807 
L 197.162496 198.399797 
L 198.733824 199.878441 
L 198.805248 199.952229 
L 198.84096 197.330864 
L 198.948096 197.450915 
L 202.840704 201.678716 
L 206.126208 204.342724 
L 207.483264 205.174429 
L 208.161792 205.51746 
L 209.447424 206.16944 
L 209.875968 206.297127 
L 211.090176 206.734882 
L 211.625856 206.8663 
L 212.804352 207.129972 
L 213.48288 207.230922 
L 214.625664 207.353584 
L 215.232768 207.367677 
L 216.33984 207.341323 
L 217.018368 207.288392 
L 218.089728 207.132878 
L 218.803968 207.000196 
L 219.875328 206.722782 
L 220.589568 206.510985 
L 221.660928 206.116757 
L 222.05376 206.032686 
L 222.196608 203.359366 
L 223.267968 203.39413 
L 223.83936 203.49907 
L 223.875072 200.849065 
L 223.982208 200.883724 
L 225.196416 201.408217 
L 225.62496 201.647773 
L 225.660672 199.010485 
L 225.767808 199.083077 
L 227.196288 200.198892 
L 227.41056 200.388458 
L 227.446272 197.76212 
L 227.553408 197.867352 
L 231.588864 201.711186 
L 234.624384 203.847911 
L 235.874304 204.446595 
L 236.802816 204.851639 
L 238.017024 205.341897 
L 238.445568 205.435838 
L 239.588352 205.7203 
L 240.26688 205.836839 
L 241.373952 205.978713 
L 242.016768 206.015814 
L 243.12384 206.017638 
L 243.802368 205.982585 
L 244.873728 205.856194 
L 245.587968 205.743596 
L 246.659328 205.497243 
L 247.373568 205.306816 
L 248.444928 204.945598 
L 249.159168 204.680881 
L 250.194816 204.221883 
L 250.62336 204.101578 
L 250.766208 201.419703 
L 251.801856 201.394378 
L 252.40896 201.476569 
L 252.444672 198.825067 
L 252.551808 198.85531 
L 253.694592 199.302113 
L 254.19456 199.564917 
L 254.230272 196.926708 
L 254.337408 196.996601 
L 255.694464 198.024131 
L 255.98016 198.271879 
L 256.015872 195.645108 
L 256.123008 195.749094 
L 260.2656 199.652285 
L 263.12256 201.681993 
L 264.336768 202.249237 
L 265.408128 202.730371 
L 266.622336 203.235705 
L 267.015168 203.314212 
L 268.157952 203.608811 
L 268.83648 203.732379 
L 269.943552 203.887735 
L 270.586368 203.933666 
L 271.657728 203.948344 
L 272.371968 203.929187 
L 273.443328 203.823003 
L 274.157568 203.725318 
L 275.193216 203.506676 
L 275.943168 203.330224 
L 276.978816 203.004245 
L 277.728768 202.752665 
L 278.764416 202.324737 
L 279.19296 202.218338 
L 279.335808 199.54122 
L 280.371456 199.551955 
L 280.97856 199.656414 
L 281.014272 197.006244 
L 281.121408 197.040498 
L 282.264192 197.531213 
L 282.76416 197.813779 
L 282.799872 195.176993 
L 282.907008 195.25116 
L 284.299776 196.365495 
L 284.54976 196.593093 
L 284.585472 193.967788 
L 284.692608 194.076178 
L 288.8352 198.149693 
L 291.69216 200.29639 
L 292.94208 200.935121 
L 293.977728 201.438906 
L 295.191936 201.994407 
L 295.584768 202.089323 
L 296.727552 202.431587 
L 297.40608 202.583601 
L 298.513152 202.785552 
L 299.155968 202.858677 
L 300.227328 202.918926 
L 300.941568 202.93024 
L 302.012928 202.870073 
L 302.727168 202.803134 
L 303.762816 202.629386 
L 304.512768 202.485448 
L 305.548416 202.204685 
L 306.298368 201.985804 
L 307.334016 201.603306 
L 307.76256 201.515273 
L 307.905408 198.844214 
L 308.941056 198.897861 
L 309.54816 199.0266 
L 309.583872 196.377838 
L 309.691008 196.4163 
L 310.869504 196.970718 
L 311.33376 197.251339 
L 311.369472 194.615838 
L 311.476608 194.693843 
L 312.869376 195.856008 
L 313.11936 196.091788 
L 313.155072 193.467643 
L 313.262208 193.579495 
L 317.333376 197.706873 
L 320.26176 199.968461 
L 321.51168 200.644312 
L 322.511616 201.150009 
L 323.725824 201.733502 
L 324.118656 201.837677 
L 325.26144 202.206044 
L 325.939968 202.373406 
L 327.04704 202.600045 
L 327.689856 202.687356 
L 328.761216 202.771009 
L 329.475456 202.797657 
L 330.546816 202.760293 
L 331.261056 202.708273 
L 332.296704 202.555973 
L 333.046656 202.427216 
L 334.082304 202.167224 
L 334.832256 201.963012 
L 335.867904 201.600544 
L 336.296448 201.520308 
L 336.439296 198.851784 
L 337.474944 198.922848 
L 338.082048 199.061026 
L 338.11776 196.412802 
L 338.224896 196.452866 
L 339.403392 197.023774 
L 339.867648 197.31034 
L 339.90336 194.675283 
L 340.010496 194.754612 
L 341.438976 195.966144 
L 341.653248 196.170915 
L 341.68896 193.54713 
L 341.796096 193.660054 
L 345.902976 197.865245 
L 348.83136 200.160611 
L 350.08128 200.850408 
L 351.081216 201.366541 
L 352.331136 201.98271 
L 352.688256 202.07003 
L 353.866752 202.464346 
L 354.509568 202.622534 
L 355.61664 202.858638 
L 356.259456 202.951215 
L 357.330816 203.043264 
L 358.045056 203.075155 
L 359.116416 203.045299 
L 359.830656 202.997921 
L 360.866304 202.852007 
L 361.616256 202.727458 
L 362.651904 202.47292 
L 363.401856 202.272232 
L 364.437504 201.914252 
L 364.866048 201.835468 
L 365.008896 199.167377 
L 366.044544 199.240867 
L 366.651648 199.379915 
L 366.68736 196.73173 
L 366.794496 196.771904 
L 367.972992 197.343282 
L 368.437248 197.629685 
L 368.47296 194.994608 
L 368.580096 195.07387 
L 370.008576 196.283656 
L 370.222848 196.488037 
L 370.25856 193.864184 
L 370.365696 193.976899 
L 374.472576 198.171657 
L 377.40096 200.458222 
L 378.65088 201.144088 
L 379.650816 201.656826 
L 380.900736 202.268442 
L 381.257856 202.354506 
L 382.436352 202.744311 
L 383.079168 202.899954 
L 384.18624 203.131477 
L 384.829056 203.221297 
L 385.900416 203.308588 
L 386.614656 203.337177 
L 387.686016 203.302199 
L 388.400256 203.251274 
L 389.435904 203.100056 
L 390.185856 202.971525 
L 391.221504 202.711318 
L 391.971456 202.506391 
L 393.007104 202.142384 
L 393.435648 202.06104 
L 393.578496 199.39209 
L 394.614144 199.459272 
L 395.221248 199.59458 
L 395.25696 196.946174 
L 395.364096 196.985685 
L 396.542592 197.549769 
L 397.006848 197.833303 
L 397.04256 195.198005 
L 397.149696 195.276606 
L 398.578176 196.477646 
L 398.792448 196.680729 
L 398.82816 194.05666 
L 398.935296 194.168728 
L 403.042176 198.339273 
L 405.97056 200.609024 
L 407.22048 201.287734 
L 408.220416 201.794792 
L 409.470336 202.399373 
L 409.827456 202.48339 
L 411.005952 202.866548 
L 411.648768 203.018564 
L 412.75584 203.243863 
L 413.398656 203.330072 
L 414.470016 203.411345 
L 414.72 203.46038 
L 414.72 203.46038 
" clip-path="url(#pb5b94bfae1)" style="fill: none; stroke: #ff7f0e; stroke-width: 1.5; stroke-linecap: square"/>
   </g>
   <g id="patch_3">
    <path d="M 57.6 307.584 
L 57.6 41.472 
" style="fill: none; stroke: #000000; stroke-width: 0.8; stroke-linejoin: miter; stroke-linecap: square"/>
   </g>
   <g id="patch_4">
    <path d="M 414.72 307.584 
L 414.72 41.472 
" style="fill: none; stroke: #000000; stroke-width: 0.8; stroke-linejoin: miter; stroke-linecap: square"/>
   </g>
   <g id="patch_5">
    <path d="M 57.6 307.584 
L 414.72 307.584 
" style="fill: none; stroke: #000000; stroke-width: 0.8; stroke-linejoin: miter; stroke-linecap: square"/>
   </g>
   <g id="patch_6">
    <path d="M 57.6 41.472 
L 414.72 41.472 
" style="fill: none; stroke: #000000; stroke-width: 0.8; stroke-linejoin: miter; stroke-linecap: square"/>
   </g>
   <g id="legend_1">
    <g id="patch_7">
     <path d="M 369.40125 78.82825 
L 407.72 78.82825 
Q 409.72 78.82825 409.72 76.82825 
L 409.72 48.472 
Q 409.72 46.472 407.72 46.472 
L 369.40125 46.472 
Q 367.40125 46.472 367.40125 48.472 
L 367.40125 76.82825 
Q 367.40125 78.82825 369.40125 78.82825 
z
" style="fill: #ffffff; opacity: 0.8; stroke: #cccccc; stroke-linejoin: miter"/>
    </g>
    <g id="line2d_15">
     <path d="M 371.40125 54.570437 
L 381.40125 54.570437 
L 391.40125 54.570437 
" style="fill: none; stroke: #1f77b4; stroke-width: 1.5; stroke-linecap: square"/>
    </g>
    <g id="text_14">
     <!-- E -->
     <g transform="translate(399.40125 58.070437) scale(0.1 -0.1)">
      <defs>
       <path id="DejaVuSans-45" d="M 628 4666 
L 3578 4666 
L 3578 4134 
L 1259 4134 
L 1259 2753 
L 3481 2753 
L 3481 2222 
L 1259 2222 
L 1259 531 
L 3634 531 
L 3634 0 
L 628 0 
L 628 4666 
z
" transform="scale(0.015625)"/>
      </defs>
      <use xlink:href="#DejaVuSans-45"/>
     </g>
    </g>
    <g id="line2d_16">
     <path d="M 371.40125 69.248562 
L 381.40125 69.248562 
L 391.40125 69.248562 
" style="fill: none; stroke: #ff7f0e; stroke-width: 1.5; stroke-linecap: square"/>
    </g>
    <g id="text_15">
     <!-- I -->
     <g transform="translate(399.40125 72.748562) scale(0.1 -0.1)">
      <defs>
       <path id="DejaVuSans-49" d="M 628 4666 
L 1259 4666 
L 1259 0 
L 628 0 
L 628 4666 
z
" transform="scale(0.015625)"/>
      </defs>
      <use xlink:href="#DejaVuSans-49"/>
     </g>
    </g>
   </g>
  </g>
 </g>
 <defs>
  <clipPath id="pb5b94bfae1">
   <rect x="57.6" y="41.472" width="357.12" height="266.112"/>
  </clipPath>
 </defs>
</svg>
