<?xml version="1.0" encoding="utf-8" standalone="no"?>
<!DOCTYPE svg PUBLIC "-//W3C//DTD SVG 1.1//EN"
  "http://www.w3.org/Graphics/SVG/1.1/DTD/svg11.dtd">
<svg xmlns:xlink="http://www.w3.org/1999/xlink" width="471.010625pt" height="314.667469pt" viewBox="0 0 471.010625 314.667469" xmlns="http://www.w3.org/2000/svg" version="1.1">
 <metadata>
  <rdf:RDF xmlns:dc="http://purl.org/dc/elements/1.1/" xmlns:cc="http://creativecommons.org/ns#" xmlns:rdf="http://www.w3.org/1999/02/22-rdf-syntax-ns#">
   <cc:Work>
    <dc:type rdf:resource="http://purl.org/dc/dcmitype/StillImage"/>
    <dc:date>2026-04-07T15:46:02.965607</dc:date>
    <dc:format>image/svg+xml</dc:format>
    <dc:creator>
     <cc:Agent>
      <dc:title>Matplotlib v3.10.8, https://matplotlib.org/</dc:title>
     </cc:Agent>
    </dc:creator>
   </cc:Work>
  </rdf:RDF>
 </metadata>
 <defs>
  <style type="text/css">*{stroke-linejoin: round; stroke-linecap: butt}</style>
 </defs>
 <g id="figure_1">
  <g id="patch_1">
   <path d="M 0 314.667469 
L 471.010625 314.667469 
L 471.010625 0 
L 0 0 
z
" style="fill: #ffffff"/>
  </g>
  <g id="axes_1">
   <g id="patch_2">
    <path d="M 55.367188 277.111219 
L 412.487188 277.111219 
L 412.487188 10.999219 
L 55.367188 10.999219 
z
" style="fill: #ffffff"/>
   </g>
   <g id="matplotlib.axis_1">
    <g id="xtick_1">
     <g id="line2d_1">
      <defs>
       <path id="md6c1891e2a" d="M 0 0 
L 0 3.5 
" style="stroke: #000000; stroke-width: 0.8"/>
      </defs>
      <g>
       <use xlink:href="#md6c1891e2a" x="55.367188" y="277.111219" style="stroke: #000000; stroke-width: 0.8"/>
      </g>
     </g>
     <g id="text_1">
      <!-- 0 -->
      <g transform="translate(52.185938 291.709656) scale(0.1 -0.1)">
       <defs>
        <path id="DejaVuSans-30" d="M 2034 4250 
Q 1547 4250 1301 3770 
Q 1056 3291 1056 2328 
Q 1056 1369 1301 889 
Q 1547 409 2034 409 
Q 2525 409 2770 889 
Q 3016 1369 3016 2328 
Q 3016 3291 2770 3770 
Q 2525 4250 2034 4250 
z
M 2034 4750 
Q 2819 4750 3233 4129 
Q 3647 3509 3647 2328 
Q 3647 1150 3233 529 
Q 2819 -91 2034 -91 
Q 1250 -91 836 529 
Q 422 1150 422 2328 
Q 422 3509 836 4129 
Q 1250 4750 2034 4750 
z
" transform="scale(0.015625)"/>
       </defs>
       <use xlink:href="#DejaVuSans-30"/>
      </g>
     </g>
    </g>
    <g id="xtick_2">
     <g id="line2d_2">
      <g>
       <use xlink:href="#md6c1891e2a" x="126.791188" y="277.111219" style="stroke: #000000; stroke-width: 0.8"/>
      </g>
     </g>
     <g id="text_2">
      <!-- 200 -->
      <g transform="translate(117.247438 291.709656) scale(0.1 -0.1)">
       <defs>
        <path id="DejaVuSans-32" d="M 1228 531 
L 3431 531 
L 3431 0 
L 469 0 
L 469 531 
Q 828 903 1448 1529 
Q 2069 2156 2228 2338 
Q 2531 2678 2651 2914 
Q 2772 3150 2772 3378 
Q 2772 3750 2511 3984 
Q 2250 4219 1831 4219 
Q 1534 4219 1204 4116 
Q 875 4013 500 3803 
L 500 4441 
Q 881 4594 1212 4672 
Q 1544 4750 1819 4750 
Q 2544 4750 2975 4387 
Q 3406 4025 3406 3419 
Q 3406 3131 3298 2873 
Q 3191 2616 2906 2266 
Q 2828 2175 2409 1742 
Q 1991 1309 1228 531 
z
" transform="scale(0.015625)"/>
       </defs>
       <use xlink:href="#DejaVuSans-32"/>
       <use xlink:href="#DejaVuSans-30" transform="translate(63.623047 0)"/>
       <use xlink:href="#DejaVuSans-30" transform="translate(127.246094 0)"/>
      </g>
     </g>
    </g>
    <g id="xtick_3">
     <g id="line2d_3">
      <g>
       <use xlink:href="#md6c1891e2a" x="198.215188" y="277.111219" style="stroke: #000000; stroke-width: 0.8"/>
      </g>
     </g>
     <g id="text_3">
      <!-- 400 -->
      <g transform="translate(188.671438 291.709656) scale(0.1 -0.1)">
       <defs>
        <path id="DejaVuSans-34" d="M 2419 4116 
L 825 1625 
L 2419 1625 
L 2419 4116 
z
M 2253 4666 
L 3047 4666 
L 3047 1625 
L 3713 1625 
L 3713 1100 
L 3047 1100 
L 3047 0 
L 2419 0 
L 2419 1100 
L 313 1100 
L 313 1709 
L 2253 4666 
z
" transform="scale(0.015625)"/>
       </defs>
       <use xlink:href="#DejaVuSans-34"/>
       <use xlink:href="#DejaVuSans-30" transform="translate(63.623047 0)"/>
       <use xlink:href="#DejaVuSans-30" transform="translate(127.246094 0)"/>
      </g>
     </g>
    </g>
    <g id="xtick_4">
     <g id="line2d_4">
      <g>
       <use xlink:href="#md6c1891e2a" x="269.639188" y="277.111219" style="stroke: #000000; stroke-width: 0.8"/>
      </g>
     </g>
     <g id="text_4">
      <!-- 600 -->
      <g transform="translate(260.095438 291.709656) scale(0.1 -0.1)">
       <defs>
        <path id="DejaVuSans-36" d="M 2113 2584 
Q 1688 2584 1439 2293 
Q 1191 2003 1191 1497 
Q 1191 994 1439 701 
Q 1688 409 2113 409 
Q 2538 409 2786 701 
Q 3034 994 3034 1497 
Q 3034 2003 2786 2293 
Q 2538 2584 2113 2584 
z
M 3366 4563 
L 3366 3988 
Q 3128 4100 2886 4159 
Q 2644 4219 2406 4219 
Q 1781 4219 1451 3797 
Q 1122 3375 1075 2522 
Q 1259 2794 1537 2939 
Q 1816 3084 2150 3084 
Q 2853 3084 3261 2657 
Q 3669 2231 3669 1497 
Q 3669 778 3244 343 
Q 2819 -91 2113 -91 
Q 1303 -91 875 529 
Q 447 1150 447 2328 
Q 447 3434 972 4092 
Q 1497 4750 2381 4750 
Q 2619 4750 2861 4703 
Q 3103 4656 3366 4563 
z
" transform="scale(0.015625)"/>
       </defs>
       <use xlink:href="#DejaVuSans-36"/>
       <use xlink:href="#DejaVuSans-30" transform="translate(63.623047 0)"/>
       <use xlink:href="#DejaVuSans-30" transform="translate(127.246094 0)"/>
      </g>
     </g>
    </g>
    <g id="xtick_5">
     <g id="line2d_5">
      <g>
       <use xlink:href="#md6c1891e2a" x="341.063188" y="277.111219" style="stroke: #000000; stroke-width: 0.8"/>
      </g>
     </g>
     <g id="text_5">
      <!-- 800 -->
      <g transform="translate(331.519438 291.709656) scale(0.1 -0.1)">
       <defs>
        <path id="DejaVuSans-38" d="M 2034 2216 
Q 1584 2216 1326 1975 
Q 1069 1734 1069 1313 
Q 1069 891 1326 650 
Q 1584 409 2034 409 
Q 2484 409 2743 651 
Q 3003 894 3003 1313 
Q 3003 1734 2745 1975 
Q 2488 2216 2034 2216 
z
M 1403 2484 
Q 997 2584 770 2862 
Q 544 3141 544 3541 
Q 544 4100 942 4425 
Q 1341 4750 2034 4750 
Q 2731 4750 3128 4425 
Q 3525 4100 3525 3541 
Q 3525 3141 3298 2862 
Q 3072 2584 2669 2484 
Q 3125 2378 3379 2068 
Q 3634 1759 3634 1313 
Q 3634 634 3220 271 
Q 2806 -91 2034 -91 
Q 1263 -91 848 271 
Q 434 634 434 1313 
Q 434 1759 690 2068 
Q 947 2378 1403 2484 
z
M 1172 3481 
Q 1172 3119 1398 2916 
Q 1625 2713 2034 2713 
Q 2441 2713 2670 2916 
Q 2900 3119 2900 3481 
Q 2900 3844 2670 4047 
Q 2441 4250 2034 4250 
Q 1625 4250 1398 4047 
Q 1172 3844 1172 3481 
z
" transform="scale(0.015625)"/>
       </defs>
       <use xlink:href="#DejaVuSans-38"/>
       <use xlink:href="#DejaVuSans-30" transform="translate(63.623047 0)"/>
       <use xlink:href="#DejaVuSans-30" transform="translate(127.246094 0)"/>
      </g>
     </g>
    </g>
    <g id="xtick_6">
     <g id="line2d_6">
      <g>
       <use xlink:href="#md6c1891e2a" x="412.487188" y="277.111219" style="stroke: #000000; stroke-width: 0.8"/>
      </g>
     </g>
     <g id="text_6">
      <!-- 1000 -->
      <g transform="translate(399.762188 291.709656) scale(0.1 -0.1)">
       <defs>
        <path id="DejaVuSans-31" d="M 794 531 
L 1825 531 
L 1825 4091 
L 703 3866 
L 703 4441 
L 1819 4666 
L 2450 4666 
L 2450 531 
L 3481 531 
L 3481 0 
L 794 0 
L 794 531 
z
" transform="scale(0.015625)"/>
       </defs>
       <use xlink:href="#DejaVuSans-31"/>
       <use xlink:href="#DejaVuSans-30" transform="translate(63.623047 0)"/>
       <use xlink:href="#DejaVuSans-30" transform="translate(127.246094 0)"/>
       <use xlink:href="#DejaVuSans-30" transform="translate(190.869141 0)"/>
      </g>
     </g>
    </g>
    <g id="text_7">
     <!-- Time $(ms)$ -->
     <g transform="translate(208.527188 305.387781) scale(0.1 -0.1)">
      <defs>
       <path id="DejaVuSans-54" d="M -19 4666 
L 3928 4666 
L 3928 4134 
L 2272 4134 
L 2272 0 
L 1638 0 
L 1638 4134 
L -19 4134 
L -19 4666 
z
" transform="scale(0.015625)"/>
       <path id="DejaVuSans-69" d="M 603 3500 
L 1178 3500 
L 1178 0 
L 603 0 
L 603 3500 
z
M 603 4863 
L 1178 4863 
L 1178 4134 
L 603 4134 
L 603 4863 
z
" transform="scale(0.015625)"/>
       <path id="DejaVuSans-6d" d="M 3328 2828 
Q 3544 3216 3844 3400 
Q 4144 3584 4550 3584 
Q 5097 3584 5394 3201 
Q 5691 2819 5691 2113 
L 5691 0 
L 5113 0 
L 5113 2094 
Q 5113 2597 4934 2840 
Q 4756 3084 4391 3084 
Q 3944 3084 3684 2787 
Q 3425 2491 3425 1978 
L 3425 0 
L 2847 0 
L 2847 2094 
Q 2847 2600 2669 2842 
Q 2491 3084 2119 3084 
Q 1678 3084 1418 2786 
Q 1159 2488 1159 1978 
L 1159 0 
L 581 0 
L 581 3500 
L 1159 3500 
L 1159 2956 
Q 1356 3278 1631 3431 
Q 1906 3584 2284 3584 
Q 2666 3584 2933 3390 
Q 3200 3197 3328 2828 
z
" transform="scale(0.015625)"/>
       <path id="DejaVuSans-65" d="M 3597 1894 
L 3597 1613 
L 953 1613 
Q 991 1019 1311 708 
Q 1631 397 2203 397 
Q 2534 397 2845 478 
Q 3156 559 3463 722 
L 3463 178 
Q 3153 47 2828 -22 
Q 2503 -91 2169 -91 
Q 1331 -91 842 396 
Q 353 884 353 1716 
Q 353 2575 817 3079 
Q 1281 3584 2069 3584 
Q 2775 3584 3186 3129 
Q 3597 2675 3597 1894 
z
M 3022 2063 
Q 3016 2534 2758 2815 
Q 2500 3097 2075 3097 
Q 1594 3097 1305 2825 
Q 1016 2553 972 2059 
L 3022 2063 
z
" transform="scale(0.015625)"/>
       <path id="DejaVuSans-20" transform="scale(0.015625)"/>
       <path id="DejaVuSans-28" d="M 1984 4856 
Q 1566 4138 1362 3434 
Q 1159 2731 1159 2009 
Q 1159 1288 1364 580 
Q 1569 -128 1984 -844 
L 1484 -844 
Q 1016 -109 783 600 
Q 550 1309 550 2009 
Q 550 2706 781 3412 
Q 1013 4119 1484 4856 
L 1984 4856 
z
" transform="scale(0.015625)"/>
       <path id="DejaVuSans-Oblique-6d" d="M 5747 2113 
L 5338 0 
L 4763 0 
L 5166 2094 
Q 5191 2228 5203 2325 
Q 5216 2422 5216 2491 
Q 5216 2772 5059 2928 
Q 4903 3084 4622 3084 
Q 4203 3084 3875 2770 
Q 3547 2456 3450 1953 
L 3066 0 
L 2491 0 
L 2900 2094 
Q 2925 2209 2937 2307 
Q 2950 2406 2950 2484 
Q 2950 2769 2794 2926 
Q 2638 3084 2363 3084 
Q 1938 3084 1609 2770 
Q 1281 2456 1184 1953 
L 800 0 
L 225 0 
L 909 3500 
L 1484 3500 
L 1375 2956 
Q 1609 3263 1923 3423 
Q 2238 3584 2597 3584 
Q 2978 3584 3223 3384 
Q 3469 3184 3519 2828 
Q 3781 3197 4126 3390 
Q 4472 3584 4856 3584 
Q 5306 3584 5551 3325 
Q 5797 3066 5797 2591 
Q 5797 2488 5784 2364 
Q 5772 2241 5747 2113 
z
" transform="scale(0.015625)"/>
       <path id="DejaVuSans-Oblique-73" d="M 3200 3397 
L 3091 2853 
Q 2863 2978 2609 3040 
Q 2356 3103 2088 3103 
Q 1634 3103 1373 2948 
Q 1113 2794 1113 2528 
Q 1113 2219 1719 2053 
Q 1766 2041 1788 2034 
L 1972 1978 
Q 2547 1819 2739 1644 
Q 2931 1469 2931 1166 
Q 2931 609 2489 259 
Q 2047 -91 1331 -91 
Q 1053 -91 747 -37 
Q 441 16 72 128 
L 184 722 
Q 500 559 806 475 
Q 1113 391 1394 391 
Q 1816 391 2080 572 
Q 2344 753 2344 1031 
Q 2344 1331 1650 1516 
L 1591 1531 
L 1394 1581 
Q 956 1697 753 1886 
Q 550 2075 550 2369 
Q 550 2928 970 3256 
Q 1391 3584 2113 3584 
Q 2397 3584 2667 3537 
Q 2938 3491 3200 3397 
z
" transform="scale(0.015625)"/>
       <path id="DejaVuSans-29" d="M 513 4856 
L 1013 4856 
Q 1481 4119 1714 3412 
Q 1947 2706 1947 2009 
Q 1947 1309 1714 600 
Q 1481 -109 1013 -844 
L 513 -844 
Q 928 -128 1133 580 
Q 1338 1288 1338 2009 
Q 1338 2731 1133 3434 
Q 928 4138 513 4856 
z
" transform="scale(0.015625)"/>
      </defs>
      <use xlink:href="#DejaVuSans-54" transform="translate(0 0.015625)"/>
      <use xlink:href="#DejaVuSans-69" transform="translate(61.083984 0.015625)"/>
      <use xlink:href="#DejaVuSans-6d" transform="translate(88.867188 0.015625)"/>
      <use xlink:href="#DejaVuSans-65" transform="translate(186.279297 0.015625)"/>
      <use xlink:href="#DejaVuSans-20" transform="translate(247.802734 0.015625)"/>
      <use xlink:href="#DejaVuSans-28" transform="translate(279.589844 0.015625)"/>
      <use xlink:href="#DejaVuSans-Oblique-6d" transform="translate(318.603516 0.015625)"/>
      <use xlink:href="#DejaVuSans-Oblique-73" transform="translate(416.015625 0.015625)"/>
      <use xlink:href="#DejaVuSans-29" transform="translate(468.115234 0.015625)"/>
     </g>
    </g>
   </g>
   <g id="matplotlib.axis_2">
    <g id="ytick_1">
     <g id="line2d_7">
      <defs>
       <path id="mbece182af1" d="M 0 0 
L -3.5 0 
" style="stroke: #000000; stroke-width: 0.8"/>
      </defs>
      <g>
       <use xlink:href="#mbece182af1" x="55.367188" y="277.111219" style="stroke: #000000; stroke-width: 0.8"/>
      </g>
     </g>
     <g id="text_8">
      <!-- −120 -->
      <g transform="translate(20.9 280.910438) scale(0.1 -0.1)">
       <defs>
        <path id="DejaVuSans-2212" d="M 678 2272 
L 4684 2272 
L 4684 1741 
L 678 1741 
L 678 2272 
z
" transform="scale(0.015625)"/>
       </defs>
       <use xlink:href="#DejaVuSans-2212"/>
       <use xlink:href="#DejaVuSans-31" transform="translate(83.789062 0)"/>
       <use xlink:href="#DejaVuSans-32" transform="translate(147.412109 0)"/>
       <use xlink:href="#DejaVuSans-30" transform="translate(211.035156 0)"/>
      </g>
     </g>
    </g>
    <g id="ytick_2">
     <g id="line2d_8">
      <g>
       <use xlink:href="#mbece182af1" x="55.367188" y="223.888819" style="stroke: #000000; stroke-width: 0.8"/>
      </g>
     </g>
     <g id="text_9">
      <!-- −100 -->
      <g transform="translate(20.9 227.688037) scale(0.1 -0.1)">
       <use xlink:href="#DejaVuSans-2212"/>
       <use xlink:href="#DejaVuSans-31" transform="translate(83.789062 0)"/>
       <use xlink:href="#DejaVuSans-30" transform="translate(147.412109 0)"/>
       <use xlink:href="#DejaVuSans-30" transform="translate(211.035156 0)"/>
      </g>
     </g>
    </g>
    <g id="ytick_3">
     <g id="line2d_9">
      <g>
       <use xlink:href="#mbece182af1" x="55.367188" y="170.666419" style="stroke: #000000; stroke-width: 0.8"/>
      </g>
     </g>
     <g id="text_10">
      <!-- −80 -->
      <g transform="translate(27.2625 174.465637) scale(0.1 -0.1)">
       <use xlink:href="#DejaVuSans-2212"/>
       <use xlink:href="#DejaVuSans-38" transform="translate(83.789062 0)"/>
       <use xlink:href="#DejaVuSans-30" transform="translate(147.412109 0)"/>
      </g>
     </g>
    </g>
    <g id="ytick_4">
     <g id="line2d_10">
      <g>
       <use xlink:href="#mbece182af1" x="55.367188" y="117.444019" style="stroke: #000000; stroke-width: 0.8"/>
      </g>
     </g>
     <g id="text_11">
      <!-- −60 -->
      <g transform="translate(27.2625 121.243237) scale(0.1 -0.1)">
       <use xlink:href="#DejaVuSans-2212"/>
       <use xlink:href="#DejaVuSans-36" transform="translate(83.789062 0)"/>
       <use xlink:href="#DejaVuSans-30" transform="translate(147.412109 0)"/>
      </g>
     </g>
    </g>
    <g id="ytick_5">
     <g id="line2d_11">
      <g>
       <use xlink:href="#mbece182af1" x="55.367188" y="64.221619" style="stroke: #000000; stroke-width: 0.8"/>
      </g>
     </g>
     <g id="text_12">
      <!-- −40 -->
      <g transform="translate(27.2625 68.020837) scale(0.1 -0.1)">
       <use xlink:href="#DejaVuSans-2212"/>
       <use xlink:href="#DejaVuSans-34" transform="translate(83.789062 0)"/>
       <use xlink:href="#DejaVuSans-30" transform="translate(147.412109 0)"/>
      </g>
     </g>
    </g>
    <g id="ytick_6">
     <g id="line2d_12">
      <g>
       <use xlink:href="#mbece182af1" x="55.367188" y="10.999219" style="stroke: #000000; stroke-width: 0.8"/>
      </g>
     </g>
     <g id="text_13">
      <!-- −20 -->
      <g transform="translate(27.2625 14.798437) scale(0.1 -0.1)">
       <use xlink:href="#DejaVuSans-2212"/>
       <use xlink:href="#DejaVuSans-32" transform="translate(83.789062 0)"/>
       <use xlink:href="#DejaVuSans-30" transform="translate(147.412109 0)"/>
      </g>
     </g>
    </g>
    <g id="text_14">
     <!-- Membrane potential $(mV)$ -->
     <g transform="translate(14.8 208.505219) rotate(-90) scale(0.1 -0.1)">
      <defs>
       <path id="DejaVuSans-4d" d="M 628 4666 
L 1569 4666 
L 2759 1491 
L 3956 4666 
L 4897 4666 
L 4897 0 
L 4281 0 
L 4281 4097 
L 3078 897 
L 2444 897 
L 1241 4097 
L 1241 0 
L 628 0 
L 628 4666 
z
" transform="scale(0.015625)"/>
       <path id="DejaVuSans-62" d="M 3116 1747 
Q 3116 2381 2855 2742 
Q 2594 3103 2138 3103 
Q 1681 3103 1420 2742 
Q 1159 2381 1159 1747 
Q 1159 1113 1420 752 
Q 1681 391 2138 391 
Q 2594 391 2855 752 
Q 3116 1113 3116 1747 
z
M 1159 2969 
Q 1341 3281 1617 3432 
Q 1894 3584 2278 3584 
Q 2916 3584 3314 3078 
Q 3713 2572 3713 1747 
Q 3713 922 3314 415 
Q 2916 -91 2278 -91 
Q 1894 -91 1617 61 
Q 1341 213 1159 525 
L 1159 0 
L 581 0 
L 581 4863 
L 1159 4863 
L 1159 2969 
z
" transform="scale(0.015625)"/>
       <path id="DejaVuSans-72" d="M 2631 2963 
Q 2534 3019 2420 3045 
Q 2306 3072 2169 3072 
Q 1681 3072 1420 2755 
Q 1159 2438 1159 1844 
L 1159 0 
L 581 0 
L 581 3500 
L 1159 3500 
L 1159 2956 
Q 1341 3275 1631 3429 
Q 1922 3584 2338 3584 
Q 2397 3584 2469 3576 
Q 2541 3569 2628 3553 
L 2631 2963 
z
" transform="scale(0.015625)"/>
       <path id="DejaVuSans-61" d="M 2194 1759 
Q 1497 1759 1228 1600 
Q 959 1441 959 1056 
Q 959 750 1161 570 
Q 1363 391 1709 391 
Q 2188 391 2477 730 
Q 2766 1069 2766 1631 
L 2766 1759 
L 2194 1759 
z
M 3341 1997 
L 3341 0 
L 2766 0 
L 2766 531 
Q 2569 213 2275 61 
Q 1981 -91 1556 -91 
Q 1019 -91 701 211 
Q 384 513 384 1019 
Q 384 1609 779 1909 
Q 1175 2209 1959 2209 
L 2766 2209 
L 2766 2266 
Q 2766 2663 2505 2880 
Q 2244 3097 1772 3097 
Q 1472 3097 1187 3025 
Q 903 2953 641 2809 
L 641 3341 
Q 956 3463 1253 3523 
Q 1550 3584 1831 3584 
Q 2591 3584 2966 3190 
Q 3341 2797 3341 1997 
z
" transform="scale(0.015625)"/>
       <path id="DejaVuSans-6e" d="M 3513 2113 
L 3513 0 
L 2938 0 
L 2938 2094 
Q 2938 2591 2744 2837 
Q 2550 3084 2163 3084 
Q 1697 3084 1428 2787 
Q 1159 2491 1159 1978 
L 1159 0 
L 581 0 
L 581 3500 
L 1159 3500 
L 1159 2956 
Q 1366 3272 1645 3428 
Q 1925 3584 2291 3584 
Q 2894 3584 3203 3211 
Q 3513 2838 3513 2113 
z
" transform="scale(0.015625)"/>
       <path id="DejaVuSans-70" d="M 1159 525 
L 1159 -1331 
L 581 -1331 
L 581 3500 
L 1159 3500 
L 1159 2969 
Q 1341 3281 1617 3432 
Q 1894 3584 2278 3584 
Q 2916 3584 3314 3078 
Q 3713 2572 3713 1747 
Q 3713 922 3314 415 
Q 2916 -91 2278 -91 
Q 1894 -91 1617 61 
Q 1341 213 1159 525 
z
M 3116 1747 
Q 3116 2381 2855 2742 
Q 2594 3103 2138 3103 
Q 1681 3103 1420 2742 
Q 1159 2381 1159 1747 
Q 1159 1113 1420 752 
Q 1681 391 2138 391 
Q 2594 391 2855 752 
Q 3116 1113 3116 1747 
z
" transform="scale(0.015625)"/>
       <path id="DejaVuSans-6f" d="M 1959 3097 
Q 1497 3097 1228 2736 
Q 959 2375 959 1747 
Q 959 1119 1226 758 
Q 1494 397 1959 397 
Q 2419 397 2687 759 
Q 2956 1122 2956 1747 
Q 2956 2369 2687 2733 
Q 2419 3097 1959 3097 
z
M 1959 3584 
Q 2709 3584 3137 3096 
Q 3566 2609 3566 1747 
Q 3566 888 3137 398 
Q 2709 -91 1959 -91 
Q 1206 -91 779 398 
Q 353 888 353 1747 
Q 353 2609 779 3096 
Q 1206 3584 1959 3584 
z
" transform="scale(0.015625)"/>
       <path id="DejaVuSans-74" d="M 1172 4494 
L 1172 3500 
L 2356 3500 
L 2356 3053 
L 1172 3053 
L 1172 1153 
Q 1172 725 1289 603 
Q 1406 481 1766 481 
L 2356 481 
L 2356 0 
L 1766 0 
Q 1100 0 847 248 
Q 594 497 594 1153 
L 594 3053 
L 172 3053 
L 172 3500 
L 594 3500 
L 594 4494 
L 1172 4494 
z
" transform="scale(0.015625)"/>
       <path id="DejaVuSans-6c" d="M 603 4863 
L 1178 4863 
L 1178 0 
L 603 0 
L 603 4863 
z
" transform="scale(0.015625)"/>
       <path id="DejaVuSans-Oblique-56" d="M 1319 0 
L 500 4666 
L 1119 4666 
L 1797 653 
L 4063 4666 
L 4750 4666 
L 2053 0 
L 1319 0 
z
" transform="scale(0.015625)"/>
      </defs>
      <use xlink:href="#DejaVuSans-4d" transform="translate(0 0.015625)"/>
      <use xlink:href="#DejaVuSans-65" transform="translate(86.279297 0.015625)"/>
      <use xlink:href="#DejaVuSans-6d" transform="translate(147.802734 0.015625)"/>
      <use xlink:href="#DejaVuSans-62" transform="translate(245.214844 0.015625)"/>
      <use xlink:href="#DejaVuSans-72" transform="translate(308.691406 0.015625)"/>
      <use xlink:href="#DejaVuSans-61" transform="translate(349.804688 0.015625)"/>
      <use xlink:href="#DejaVuSans-6e" transform="translate(411.083984 0.015625)"/>
      <use xlink:href="#DejaVuSans-65" transform="translate(474.462891 0.015625)"/>
      <use xlink:href="#DejaVuSans-20" transform="translate(535.986328 0.015625)"/>
      <use xlink:href="#DejaVuSans-70" transform="translate(567.773438 0.015625)"/>
      <use xlink:href="#DejaVuSans-6f" transform="translate(631.25 0.015625)"/>
      <use xlink:href="#DejaVuSans-74" transform="translate(692.431641 0.015625)"/>
      <use xlink:href="#DejaVuSans-65" transform="translate(731.640625 0.015625)"/>
      <use xlink:href="#DejaVuSans-6e" transform="translate(793.164062 0.015625)"/>
      <use xlink:href="#DejaVuSans-74" transform="translate(856.542969 0.015625)"/>
      <use xlink:href="#DejaVuSans-69" transform="translate(895.751953 0.015625)"/>
      <use xlink:href="#DejaVuSans-61" transform="translate(923.535156 0.015625)"/>
      <use xlink:href="#DejaVuSans-6c" transform="translate(984.814453 0.015625)"/>
      <use xlink:href="#DejaVuSans-20" transform="translate(1012.597656 0.015625)"/>
      <use xlink:href="#DejaVuSans-28" transform="translate(1044.384766 0.015625)"/>
      <use xlink:href="#DejaVuSans-Oblique-6d" transform="translate(1083.398438 0.015625)"/>
      <use xlink:href="#DejaVuSans-Oblique-56" transform="translate(1180.810547 0.015625)"/>
      <use xlink:href="#DejaVuSans-29" transform="translate(1249.21875 0.015625)"/>
     </g>
    </g>
   </g>
   <g id="line2d_13">
    <path d="M 55.367188 104.138419 
L 55.652884 125.916302 
L 55.902868 132.489004 
L 56.11714 133.76395 
L 56.188564 133.688419 
L 56.331412 133.058039 
L 56.65282 130.239721 
L 57.438484 120.64789 
L 59.759764 89.329152 
L 60.902548 73.700148 
L 61.152532 72.636805 
L 61.259668 72.708665 
L 61.402516 73.283086 
L 61.688212 75.648583 
L 62.295316 80.778437 
L 62.5453 81.495913 
L 62.688148 81.523803 
L 62.866708 81.252776 
L 63.188116 80.199376 
L 64.366612 75.891488 
L 64.759444 75.329548 
L 65.116564 75.182141 
L 65.545108 75.273869 
L 66.366484 75.741638 
L 67.152148 76.409339 
L 67.794964 77.251255 
L 68.509204 78.589942 
L 69.294868 80.573314 
L 70.151956 83.355524 
L 71.11618 87.290819 
L 72.151828 92.517804 
L 73.2589 99.297045 
L 74.437396 107.921771 
L 75.687316 118.771234 
L 77.00866 132.30313 
L 78.544276 150.509443 
L 82.829716 202.839423 
L 84.186772 216.034933 
L 85.329556 225.109597 
L 86.29378 231.137772 
L 87.115156 235.009474 
L 87.829396 237.388648 
L 88.400788 238.613274 
L 88.865044 239.157875 
L 89.257876 239.301321 
L 89.614996 239.178833 
L 90.007828 238.766294 
L 90.472084 237.905273 
L 91.007764 236.413716 
L 91.65058 233.931082 
L 92.400532 230.105538 
L 93.293332 224.303669 
L 94.32898 215.990002 
L 95.543188 204.305117 
L 97.00738 187.895865 
L 98.935828 163.530206 
L 102.614164 113.555544 
L 103.6141 97.565584 
L 104.114068 86.14875 
L 104.471188 72.641765 
L 104.756884 52.256107 
L 105.185428 15.283243 
L 105.22114 15.62498 
L 105.328276 20.961301 
L 105.649684 55.708532 
L 106.042516 89.833395 
L 106.2925 97.193448 
L 106.435348 98.060717 
L 106.47106 98.048396 
L 106.578196 97.631609 
L 106.82818 95.316358 
L 108.578068 76.136444 
L 108.935188 74.695172 
L 109.220884 74.316752 
L 109.435156 74.3647 
L 109.792276 74.77562 
L 110.542228 75.646557 
L 111.11362 75.923046 
L 111.899284 76.314401 
L 112.434964 76.875012 
L 113.042068 77.860125 
L 113.79202 79.540538 
L 114.649108 82.044642 
L 115.57762 85.488839 
L 116.577556 90.109882 
L 117.648916 96.160426 
L 118.7917 103.912035 
L 120.005908 113.697199 
L 121.29154 125.951378 
L 122.684308 141.488137 
L 124.755604 167.536547 
L 127.076884 195.941424 
L 128.541076 211.242537 
L 129.755284 221.765841 
L 130.790932 228.94924 
L 131.683732 233.695819 
L 132.433684 236.590459 
L 133.0765 238.251326 
L 133.576468 239.010161 
L 133.9693 239.276377 
L 134.32642 239.265574 
L 134.68354 239.014006 
L 135.112084 238.395244 
L 135.612052 237.239391 
L 136.219156 235.215635 
L 136.933396 231.983108 
L 137.754772 227.168267 
L 138.718996 220.101867 
L 139.826068 210.266092 
L 141.147412 196.435974 
L 142.790164 176.754564 
L 145.290004 143.738358 
L 148.146964 103.597429 
L 148.78978 91.330712 
L 149.182612 79.886214 
L 149.50402 63.160525 
L 149.825428 31.332543 
L 150.075412 15.315344 
L 150.146836 17.313176 
L 150.325396 32.342464 
L 150.968212 92.057897 
L 151.218196 97.681383 
L 151.325332 98.064867 
L 151.361044 98.026306 
L 151.503892 97.296506 
L 151.8253 93.870613 
L 153.182356 78.027914 
L 153.6109 75.363112 
L 153.932308 74.46235 
L 154.182292 74.308584 
L 154.432276 74.472752 
L 155.825044 75.862495 
L 156.82498 76.35342 
L 157.36066 76.940534 
L 157.967764 77.954274 
L 158.717716 79.666119 
L 159.574804 82.205818 
L 160.503316 85.691438 
L 161.503252 90.359809 
L 162.574612 96.462927 
L 163.753108 104.539166 
L 164.967316 114.439986 
L 166.252948 126.827096 
L 167.645716 142.497639 
L 169.85986 170.447472 
L 172.038292 196.890984 
L 173.502484 212.041852 
L 174.716692 222.41547 
L 175.75234 229.456667 
L 176.64514 234.072141 
L 177.395092 236.852069 
L 178.002196 238.345791 
L 178.502164 239.05894 
L 178.894996 239.289083 
L 179.252116 239.24545 
L 179.609236 238.961103 
L 180.03778 238.303187 
L 180.537748 237.102084 
L 181.144852 235.024307 
L 181.859092 231.730023 
L 182.680468 226.847325 
L 183.644692 219.706739 
L 184.787476 209.44691 
L 186.144532 195.080799 
L 187.822996 174.778073 
L 190.465684 139.693663 
L 193.036948 103.38454 
L 193.679764 91.027034 
L 194.072596 79.393716 
L 194.358292 64.760847 
L 194.6797 33.91127 
L 194.929684 15.329679 
L 194.965396 15.452697 
L 195.072532 20.242315 
L 195.358228 50.410933 
L 195.786772 89.331387 
L 196.036756 97.066663 
L 196.215316 98.05907 
L 196.322452 97.68945 
L 196.572436 95.42806 
L 198.358036 75.991992 
L 198.715156 74.634997 
L 198.96514 74.320342 
L 199.179412 74.358001 
L 199.50082 74.712325 
L 200.322196 75.665014 
L 200.9293 75.944612 
L 201.64354 76.306826 
L 202.17922 76.862126 
L 202.786324 77.841449 
L 203.536276 79.51552 
L 204.393364 82.012478 
L 205.321876 85.448362 
L 206.321812 90.059898 
L 207.393172 96.099878 
L 208.535956 103.839779 
L 209.750164 113.611573 
L 211.035796 125.850358 
L 212.428564 141.371468 
L 214.49986 167.41092 
L 216.856852 196.233922 
L 218.321044 211.48911 
L 219.535252 221.966581 
L 220.5709 229.1064 
L 221.4637 233.812773 
L 222.213652 236.672217 
L 222.856468 238.302188 
L 223.356436 239.036695 
L 223.749268 239.283701 
L 224.106388 239.255413 
L 224.463508 238.986386 
L 224.892052 238.346768 
L 225.39202 237.166808 
L 225.999124 235.11427 
L 226.713364 231.848834 
L 227.53474 226.997825 
L 228.498964 219.891873 
L 229.606036 210.01544 
L 230.92738 196.144732 
L 232.570132 176.426821 
L 235.069972 143.387545 
L 237.89122 103.757636 
L 238.534036 91.557813 
L 238.926868 80.251295 
L 239.248276 63.859445 
L 239.569684 32.436223 
L 239.819668 15.281283 
L 239.891092 16.867137 
L 240.069652 31.281506 
L 240.712468 91.645975 
L 240.962452 97.601256 
L 241.069588 98.062679 
L 241.1053 98.043814 
L 241.212436 97.612138 
L 241.46242 95.279927 
L 243.212308 76.118431 
L 243.569428 74.687506 
L 243.855124 74.315712 
L 244.069396 74.366947 
L 244.426516 74.780075 
L 245.176468 75.648858 
L 245.74786 75.924158 
L 246.497812 76.289568 
L 247.033492 76.832561 
L 247.640596 77.798387 
L 248.390548 79.457688 
L 249.247636 81.938052 
L 250.176148 85.354644 
L 251.176084 89.944104 
L 252.247444 95.959543 
L 253.390228 103.672254 
L 254.604436 113.413015 
L 255.890068 125.616049 
L 257.282836 141.100688 
L 259.31842 166.660408 
L 261.711124 195.977251 
L 263.175316 211.272756 
L 264.389524 221.790459 
L 265.425172 228.96853 
L 266.317972 233.710193 
L 267.067924 236.600529 
L 267.71074 238.257617 
L 268.210708 239.013475 
L 268.60354 239.277342 
L 268.96066 239.264399 
L 269.31778 239.010694 
L 269.746324 238.38938 
L 270.246292 237.230577 
L 270.853396 235.203298 
L 271.567636 231.966742 
L 272.389012 227.147472 
L 273.353236 220.076227 
L 274.460308 210.235471 
L 275.781652 196.400376 
L 277.424404 176.714486 
L 279.924244 143.695437 
L 282.781204 103.545415 
L 283.42402 91.256717 
L 283.816852 79.766668 
L 284.13826 62.930661 
L 284.459668 30.97743 
L 284.709652 15.339298 
L 284.816788 19.564221 
L 285.066772 45.040765 
L 285.531028 88.810576 
L 285.781012 96.929521 
L 285.959572 98.064349 
L 286.030996 97.909837 
L 286.209556 96.655036 
L 286.673812 91.060703 
L 287.673748 79.242061 
L 288.173716 75.673845 
L 288.530836 74.514071 
L 288.78082 74.30708 
L 288.995092 74.405857 
L 289.423636 74.950013 
L 290.03074 75.632089 
L 290.602132 75.916165 
L 291.387796 76.29934 
L 291.923476 76.84934 
L 292.53058 77.822862 
L 293.280532 79.490582 
L 294.13762 81.980397 
L 295.066132 85.407976 
L 296.066068 90.01001 
L 297.137428 96.039428 
L 298.280212 103.767626 
L 299.49442 113.52606 
L 300.780052 125.749458 
L 302.17282 141.254891 
L 304.208404 166.826834 
L 306.601108 196.123545 
L 308.0653 211.3961 
L 309.279508 221.890895 
L 310.315156 229.047183 
L 311.207956 233.768747 
L 311.957908 236.641486 
L 312.600724 238.283128 
L 313.100692 239.026823 
L 313.493524 239.281085 
L 313.850644 239.259399 
L 314.207764 238.996965 
L 314.636308 238.365222 
L 315.136276 237.194365 
L 315.74338 235.152693 
L 316.45762 231.899679 
L 317.278996 227.062322 
L 318.24322 219.971295 
L 319.350292 210.110201 
L 320.671636 196.2548 
L 322.314388 176.550643 
L 324.814228 143.520034 
L 327.635476 103.917349 
L 328.278292 91.783018 
L 328.706836 79.271567 
L 328.992532 64.542745 
L 329.31394 33.549168 
L 329.563924 15.307938 
L 329.599636 15.502117 
L 329.706772 20.470884 
L 330.02818 54.945678 
L 330.456724 91.216455 
L 330.706708 97.512368 
L 330.849556 98.056193 
L 330.956692 97.671088 
L 331.206676 95.391993 
L 332.992276 75.974749 
L 333.349396 74.628019 
L 333.59938 74.319116 
L 333.813652 74.360132 
L 334.13506 74.716693 
L 334.920724 75.641718 
L 335.492116 75.920724 
L 336.27778 76.30927 
L 336.81346 76.86629 
L 337.420564 77.847491 
L 338.170516 79.523617 
L 339.027604 82.02289 
L 339.956116 85.461466 
L 340.956052 90.076083 
L 342.027412 96.119485 
L 343.170196 103.863178 
L 344.384404 113.639303 
L 345.670036 125.883075 
L 347.062804 141.409258 
L 349.1341 167.451625 
L 351.491092 196.269663 
L 352.955284 211.519217 
L 354.169492 221.991071 
L 355.20514 229.125551 
L 356.09794 233.827001 
L 356.847892 236.682135 
L 357.454996 238.238141 
L 357.954964 239.003184 
L 358.383508 239.28451 
L 358.740628 239.254083 
L 359.097748 238.982919 
L 359.526292 238.34075 
L 360.02626 237.157842 
L 360.633364 235.101784 
L 361.347604 231.832324 
L 362.16898 226.976894 
L 363.133204 219.86611 
L 364.275988 209.637807 
L 365.633044 195.302743 
L 367.311508 175.027293 
L 369.954196 139.958991 
L 372.52546 103.705783 
L 373.168276 91.484443 
L 373.561108 80.133646 
L 373.882516 63.634724 
L 374.203924 32.077475 
L 374.453908 15.285697 
L 374.525332 17.006032 
L 374.703892 31.623425 
L 375.346708 91.781351 
L 375.596692 97.628162 
L 375.703828 98.064022 
L 375.73954 98.038694 
L 375.846676 97.592318 
L 376.09666 95.243382 
L 377.810836 76.307682 
L 378.203668 74.679925 
L 378.489364 74.314733 
L 378.703636 74.369231 
L 379.060756 74.784533 
L 379.774996 75.624681 
L 380.346388 75.91271 
L 381.132052 76.291945 
L 381.667732 76.836651 
L 382.274836 77.804362 
L 383.024788 79.465725 
L 383.881876 81.948401 
L 384.810388 85.36768 
L 385.810324 89.960217 
L 386.881684 95.979076 
L 388.024468 103.695576 
L 389.238676 113.44066 
L 390.524308 125.648676 
L 391.917076 141.138408 
L 393.95266 166.701136 
L 396.345364 196.013067 
L 397.809556 211.302961 
L 399.023764 221.815061 
L 400.059412 228.987804 
L 400.952212 233.724549 
L 401.702164 236.61058 
L 402.34498 238.263889 
L 402.844948 239.016771 
L 403.23778 239.278287 
L 403.5949 239.263205 
L 403.95202 239.007364 
L 404.380564 238.383497 
L 404.880532 237.221744 
L 405.487636 235.190942 
L 406.201876 231.950358 
L 407.023252 227.12666 
L 407.987476 220.050573 
L 409.094548 210.204836 
L 410.415892 196.364768 
L 412.058644 176.674402 
L 412.451476 171.660848 
L 412.451476 171.660848 
" clip-path="url(#p78ff48dc55)" style="fill: none; stroke: #1f77b4; stroke-width: 1.5; stroke-linecap: square"/>
   </g>
   <g id="patch_3">
    <path d="M 55.367188 277.111219 
L 55.367188 10.999219 
" style="fill: none; stroke: #000000; stroke-width: 0.8; stroke-linejoin: miter; stroke-linecap: square"/>
   </g>
   <g id="patch_4">
    <path d="M 412.487188 277.111219 
L 412.487188 10.999219 
" style="fill: none; stroke: #000000; stroke-width: 0.8; stroke-linejoin: miter; stroke-linecap: square"/>
   </g>
   <g id="patch_5">
    <path d="M 55.367188 277.111219 
L 412.487188 277.111219 
" style="fill: none; stroke: #000000; stroke-width: 0.8; stroke-linejoin: miter; stroke-linecap: square"/>
   </g>
   <g id="patch_6">
    <path d="M 55.367188 10.999219 
L 412.487188 10.999219 
" style="fill: none; stroke: #000000; stroke-width: 0.8; stroke-linejoin: miter; stroke-linecap: square"/>
   </g>
   <g id="legend_1">
    <g id="patch_7">
     <path d="M 62.367188 272.111219 
L 170.470313 272.111219 
Q 172.470313 272.111219 172.470313 270.111219 
L 172.470313 256.433094 
Q 172.470313 254.433094 170.470313 254.433094 
L 62.367188 254.433094 
Q 60.367188 254.433094 60.367188 256.433094 
L 60.367188 270.111219 
Q 60.367188 272.111219 62.367188 272.111219 
z
" style="fill: #ffffff; opacity: 0.8; stroke: #cccccc; stroke-linejoin: miter"/>
    </g>
    <g id="line2d_14">
     <path d="M 64.367188 262.531531 
L 74.367188 262.531531 
L 84.367188 262.531531 
" style="fill: none; stroke: #1f77b4; stroke-width: 1.5; stroke-linecap: square"/>
    </g>
    <g id="text_15">
     <!-- (location 0 0.5) -->
     <g transform="translate(92.367188 266.031531) scale(0.1 -0.1)">
      <defs>
       <path id="DejaVuSans-63" d="M 3122 3366 
L 3122 2828 
Q 2878 2963 2633 3030 
Q 2388 3097 2138 3097 
Q 1578 3097 1268 2742 
Q 959 2388 959 1747 
Q 959 1106 1268 751 
Q 1578 397 2138 397 
Q 2388 397 2633 464 
Q 2878 531 3122 666 
L 3122 134 
Q 2881 22 2623 -34 
Q 2366 -91 2075 -91 
Q 1284 -91 818 406 
Q 353 903 353 1747 
Q 353 2603 823 3093 
Q 1294 3584 2113 3584 
Q 2378 3584 2631 3529 
Q 2884 3475 3122 3366 
z
" transform="scale(0.015625)"/>
       <path id="DejaVuSans-2e" d="M 684 794 
L 1344 794 
L 1344 0 
L 684 0 
L 684 794 
z
" transform="scale(0.015625)"/>
       <path id="DejaVuSans-35" d="M 691 4666 
L 3169 4666 
L 3169 4134 
L 1269 4134 
L 1269 2991 
Q 1406 3038 1543 3061 
Q 1681 3084 1819 3084 
Q 2600 3084 3056 2656 
Q 3513 2228 3513 1497 
Q 3513 744 3044 326 
Q 2575 -91 1722 -91 
Q 1428 -91 1123 -41 
Q 819 9 494 109 
L 494 744 
Q 775 591 1075 516 
Q 1375 441 1709 441 
Q 2250 441 2565 725 
Q 2881 1009 2881 1497 
Q 2881 1984 2565 2268 
Q 2250 2553 1709 2553 
Q 1456 2553 1204 2497 
Q 953 2441 691 2322 
L 691 4666 
z
" transform="scale(0.015625)"/>
      </defs>
      <use xlink:href="#DejaVuSans-28"/>
      <use xlink:href="#DejaVuSans-6c" transform="translate(39.013672 0)"/>
      <use xlink:href="#DejaVuSans-6f" transform="translate(66.796875 0)"/>
      <use xlink:href="#DejaVuSans-63" transform="translate(127.978516 0)"/>
      <use xlink:href="#DejaVuSans-61" transform="translate(182.958984 0)"/>
      <use xlink:href="#DejaVuSans-74" transform="translate(244.238281 0)"/>
      <use xlink:href="#DejaVuSans-69" transform="translate(283.447266 0)"/>
      <use xlink:href="#DejaVuSans-6f" transform="translate(311.230469 0)"/>
      <use xlink:href="#DejaVuSans-6e" transform="translate(372.412109 0)"/>
      <use xlink:href="#DejaVuSans-20" transform="translate(435.791016 0)"/>
      <use xlink:href="#DejaVuSans-30" transform="translate(467.578125 0)"/>
      <use xlink:href="#DejaVuSans-20" transform="translate(531.201172 0)"/>
      <use xlink:href="#DejaVuSans-30" transform="translate(562.988281 0)"/>
      <use xlink:href="#DejaVuSans-2e" transform="translate(626.611328 0)"/>
      <use xlink:href="#DejaVuSans-35" transform="translate(658.398438 0)"/>
      <use xlink:href="#DejaVuSans-29" transform="translate(722.021484 0)"/>
     </g>
    </g>
   </g>
  </g>
  <g id="axes_2">
   <g id="matplotlib.axis_3">
    <g id="ytick_7">
     <g id="line2d_15">
      <defs>
       <path id="m36de0fc0a6" d="M 0 0 
L 3.5 0 
" style="stroke: #000000; stroke-width: 0.8"/>
      </defs>
      <g>
       <use xlink:href="#m36de0fc0a6" x="412.487188" y="250.500019" style="stroke: #000000; stroke-width: 0.8"/>
      </g>
     </g>
     <g id="text_16">
      <!-- −0.04 -->
      <g transform="translate(419.487188 254.299237) scale(0.1 -0.1)">
       <use xlink:href="#DejaVuSans-2212"/>
       <use xlink:href="#DejaVuSans-30" transform="translate(83.789062 0)"/>
       <use xlink:href="#DejaVuSans-2e" transform="translate(147.412109 0)"/>
       <use xlink:href="#DejaVuSans-30" transform="translate(179.199219 0)"/>
       <use xlink:href="#DejaVuSans-34" transform="translate(242.822266 0)"/>
      </g>
     </g>
    </g>
    <g id="ytick_8">
     <g id="line2d_16">
      <g>
       <use xlink:href="#m36de0fc0a6" x="412.487188" y="197.277619" style="stroke: #000000; stroke-width: 0.8"/>
      </g>
     </g>
     <g id="text_17">
      <!-- −0.02 -->
      <g transform="translate(419.487188 201.076837) scale(0.1 -0.1)">
       <use xlink:href="#DejaVuSans-2212"/>
       <use xlink:href="#DejaVuSans-30" transform="translate(83.789062 0)"/>
       <use xlink:href="#DejaVuSans-2e" transform="translate(147.412109 0)"/>
       <use xlink:href="#DejaVuSans-30" transform="translate(179.199219 0)"/>
       <use xlink:href="#DejaVuSans-32" transform="translate(242.822266 0)"/>
      </g>
     </g>
    </g>
    <g id="ytick_9">
     <g id="line2d_17">
      <g>
       <use xlink:href="#m36de0fc0a6" x="412.487188" y="144.055219" style="stroke: #000000; stroke-width: 0.8"/>
      </g>
     </g>
     <g id="text_18">
      <!-- 0.00 -->
      <g transform="translate(419.487188 147.854437) scale(0.1 -0.1)">
       <use xlink:href="#DejaVuSans-30"/>
       <use xlink:href="#DejaVuSans-2e" transform="translate(63.623047 0)"/>
       <use xlink:href="#DejaVuSans-30" transform="translate(95.410156 0)"/>
       <use xlink:href="#DejaVuSans-30" transform="translate(159.033203 0)"/>
      </g>
     </g>
    </g>
    <g id="ytick_10">
     <g id="line2d_18">
      <g>
       <use xlink:href="#m36de0fc0a6" x="412.487188" y="90.832819" style="stroke: #000000; stroke-width: 0.8"/>
      </g>
     </g>
     <g id="text_19">
      <!-- 0.02 -->
      <g transform="translate(419.487188 94.632037) scale(0.1 -0.1)">
       <use xlink:href="#DejaVuSans-30"/>
       <use xlink:href="#DejaVuSans-2e" transform="translate(63.623047 0)"/>
       <use xlink:href="#DejaVuSans-30" transform="translate(95.410156 0)"/>
       <use xlink:href="#DejaVuSans-32" transform="translate(159.033203 0)"/>
      </g>
     </g>
    </g>
    <g id="ytick_11">
     <g id="line2d_19">
      <g>
       <use xlink:href="#m36de0fc0a6" x="412.487188" y="37.610419" style="stroke: #000000; stroke-width: 0.8"/>
      </g>
     </g>
     <g id="text_20">
      <!-- 0.04 -->
      <g transform="translate(419.487188 41.409637) scale(0.1 -0.1)">
       <use xlink:href="#DejaVuSans-30"/>
       <use xlink:href="#DejaVuSans-2e" transform="translate(63.623047 0)"/>
       <use xlink:href="#DejaVuSans-30" transform="translate(95.410156 0)"/>
       <use xlink:href="#DejaVuSans-34" transform="translate(159.033203 0)"/>
      </g>
     </g>
    </g>
    <g id="text_21">
     <!-- Induced Current $(nA)$ -->
     <g transform="translate(461.730938 196.705219) rotate(-90) scale(0.1 -0.1)">
      <defs>
       <path id="DejaVuSans-49" d="M 628 4666 
L 1259 4666 
L 1259 0 
L 628 0 
L 628 4666 
z
" transform="scale(0.015625)"/>
       <path id="DejaVuSans-64" d="M 2906 2969 
L 2906 4863 
L 3481 4863 
L 3481 0 
L 2906 0 
L 2906 525 
Q 2725 213 2448 61 
Q 2172 -91 1784 -91 
Q 1150 -91 751 415 
Q 353 922 353 1747 
Q 353 2572 751 3078 
Q 1150 3584 1784 3584 
Q 2172 3584 2448 3432 
Q 2725 3281 2906 2969 
z
M 947 1747 
Q 947 1113 1208 752 
Q 1469 391 1925 391 
Q 2381 391 2643 752 
Q 2906 1113 2906 1747 
Q 2906 2381 2643 2742 
Q 2381 3103 1925 3103 
Q 1469 3103 1208 2742 
Q 947 2381 947 1747 
z
" transform="scale(0.015625)"/>
       <path id="DejaVuSans-75" d="M 544 1381 
L 544 3500 
L 1119 3500 
L 1119 1403 
Q 1119 906 1312 657 
Q 1506 409 1894 409 
Q 2359 409 2629 706 
Q 2900 1003 2900 1516 
L 2900 3500 
L 3475 3500 
L 3475 0 
L 2900 0 
L 2900 538 
Q 2691 219 2414 64 
Q 2138 -91 1772 -91 
Q 1169 -91 856 284 
Q 544 659 544 1381 
z
M 1991 3584 
L 1991 3584 
z
" transform="scale(0.015625)"/>
       <path id="DejaVuSans-43" d="M 4122 4306 
L 4122 3641 
Q 3803 3938 3442 4084 
Q 3081 4231 2675 4231 
Q 1875 4231 1450 3742 
Q 1025 3253 1025 2328 
Q 1025 1406 1450 917 
Q 1875 428 2675 428 
Q 3081 428 3442 575 
Q 3803 722 4122 1019 
L 4122 359 
Q 3791 134 3420 21 
Q 3050 -91 2638 -91 
Q 1578 -91 968 557 
Q 359 1206 359 2328 
Q 359 3453 968 4101 
Q 1578 4750 2638 4750 
Q 3056 4750 3426 4639 
Q 3797 4528 4122 4306 
z
" transform="scale(0.015625)"/>
       <path id="DejaVuSans-Oblique-6e" d="M 3566 2113 
L 3156 0 
L 2578 0 
L 2988 2091 
Q 3016 2238 3031 2350 
Q 3047 2463 3047 2528 
Q 3047 2791 2881 2937 
Q 2716 3084 2419 3084 
Q 1956 3084 1622 2776 
Q 1288 2469 1184 1941 
L 800 0 
L 225 0 
L 903 3500 
L 1478 3500 
L 1363 2950 
Q 1603 3253 1940 3418 
Q 2278 3584 2650 3584 
Q 3113 3584 3367 3334 
Q 3622 3084 3622 2631 
Q 3622 2519 3608 2391 
Q 3594 2263 3566 2113 
z
" transform="scale(0.015625)"/>
       <path id="DejaVuSans-Oblique-41" d="M 2356 4666 
L 3072 4666 
L 3938 0 
L 3278 0 
L 3084 1197 
L 984 1197 
L 325 0 
L -341 0 
L 2356 4666 
z
M 2584 4044 
L 1275 1722 
L 2988 1722 
L 2584 4044 
z
" transform="scale(0.015625)"/>
      </defs>
      <use xlink:href="#DejaVuSans-49" transform="translate(0 0.015625)"/>
      <use xlink:href="#DejaVuSans-6e" transform="translate(29.492188 0.015625)"/>
      <use xlink:href="#DejaVuSans-64" transform="translate(92.871094 0.015625)"/>
      <use xlink:href="#DejaVuSans-75" transform="translate(156.347656 0.015625)"/>
      <use xlink:href="#DejaVuSans-63" transform="translate(219.726562 0.015625)"/>
      <use xlink:href="#DejaVuSans-65" transform="translate(274.707031 0.015625)"/>
      <use xlink:href="#DejaVuSans-64" transform="translate(336.230469 0.015625)"/>
      <use xlink:href="#DejaVuSans-20" transform="translate(399.707031 0.015625)"/>
      <use xlink:href="#DejaVuSans-43" transform="translate(431.494141 0.015625)"/>
      <use xlink:href="#DejaVuSans-75" transform="translate(501.318359 0.015625)"/>
      <use xlink:href="#DejaVuSans-72" transform="translate(564.697266 0.015625)"/>
      <use xlink:href="#DejaVuSans-72" transform="translate(605.810547 0.015625)"/>
      <use xlink:href="#DejaVuSans-65" transform="translate(646.923828 0.015625)"/>
      <use xlink:href="#DejaVuSans-6e" transform="translate(708.447266 0.015625)"/>
      <use xlink:href="#DejaVuSans-74" transform="translate(771.826172 0.015625)"/>
      <use xlink:href="#DejaVuSans-20" transform="translate(811.035156 0.015625)"/>
      <use xlink:href="#DejaVuSans-28" transform="translate(842.822266 0.015625)"/>
      <use xlink:href="#DejaVuSans-Oblique-6e" transform="translate(881.835938 0.015625)"/>
      <use xlink:href="#DejaVuSans-Oblique-41" transform="translate(945.214844 0.015625)"/>
      <use xlink:href="#DejaVuSans-29" transform="translate(1013.623047 0.015625)"/>
     </g>
    </g>
   </g>
   <g id="line2d_20">
    <path d="M 55.367188 144.055219 
L 58.61698 108.97136 
L 60.295444 93.238164 
L 61.6525 82.524359 
L 62.795284 75.206385 
L 63.759508 70.393567 
L 64.580884 67.348297 
L 65.259412 65.595598 
L 65.830804 64.667985 
L 66.29506 64.288045 
L 66.687892 64.229672 
L 67.080724 64.41271 
L 67.509268 64.887047 
L 68.009236 65.80037 
L 68.61634 67.424124 
L 69.33058 70.041711 
L 70.151956 73.964187 
L 71.11618 79.745757 
L 72.223252 87.819571 
L 73.544596 99.202547 
L 75.187348 115.439936 
L 77.651476 142.331533 
L 81.044116 179.024821 
L 82.72258 194.774147 
L 84.079636 205.504988 
L 85.22242 212.839601 
L 86.186644 217.667756 
L 87.00802 220.726808 
L 87.686548 222.491252 
L 88.25794 223.428925 
L 88.722196 223.817106 
L 89.115028 223.882471 
L 89.50786 223.706419 
L 89.936404 223.239672 
L 90.436372 222.335129 
L 91.043476 220.721867 
L 91.757716 218.11629 
L 92.579092 214.20703 
L 93.543316 208.439938 
L 94.650388 200.381043 
L 95.971732 189.013017 
L 97.614484 172.789164 
L 100.078612 145.906019 
L 103.471252 109.199961 
L 105.149716 93.434545 
L 106.506772 82.686695 
L 107.649556 75.335463 
L 108.61378 70.491982 
L 109.435156 67.419156 
L 110.113684 65.642972 
L 110.685076 64.695241 
L 111.149332 64.298821 
L 111.542164 64.226465 
L 111.934996 64.39553 
L 112.36354 64.854684 
L 112.863508 65.750445 
L 113.470612 67.353211 
L 114.184852 69.946772 
L 115.006228 73.842805 
L 115.970452 79.595405 
L 117.077524 87.639361 
L 118.398868 98.992409 
L 120.04162 115.202684 
L 122.470036 141.678288 
L 125.9341 179.154999 
L 127.612564 194.885944 
L 128.96962 205.597371 
L 130.112404 212.913025 
L 131.076628 217.723703 
L 131.898004 220.767051 
L 132.576532 222.518112 
L 133.147924 223.444322 
L 133.61218 223.823114 
L 134.005012 223.880512 
L 134.397844 223.6965 
L 134.826388 223.221105 
L 135.326356 222.306557 
L 135.93346 220.681341 
L 136.6477 218.06208 
L 137.469076 214.137763 
L 138.4333 208.354176 
L 139.540372 200.278283 
L 140.861716 188.893225 
L 142.504468 172.653952 
L 144.968596 145.761182 
L 148.361236 109.069682 
L 150.0397 93.322602 
L 151.396756 82.594135 
L 152.53954 75.26184 
L 153.503764 70.435823 
L 154.32514 67.378691 
L 155.003668 65.615885 
L 155.57506 64.679615 
L 156.039316 64.292582 
L 156.432148 64.228192 
L 156.82498 64.405218 
L 157.253524 64.873023 
L 157.753492 65.778791 
L 158.360596 67.393515 
L 159.074836 70.000767 
L 159.896212 73.91187 
L 160.860436 79.680981 
L 161.967508 87.741958 
L 163.288852 99.11207 
L 164.931604 115.337813 
L 167.395732 142.22214 
L 170.788372 178.926423 
L 172.466836 194.689598 
L 173.823892 205.435078 
L 174.966676 212.783995 
L 175.9309 217.62534 
L 176.752276 220.696246 
L 177.430804 222.470794 
L 178.002196 223.417122 
L 178.466452 223.812394 
L 178.859284 223.883775 
L 179.252116 223.713736 
L 179.68066 223.253523 
L 180.180628 222.356538 
L 180.787732 220.752309 
L 181.501972 218.157072 
L 182.323348 214.259194 
L 183.287572 208.504573 
L 184.394644 200.458533 
L 185.715988 189.103396 
L 187.35874 172.891224 
L 189.787156 146.414431 
L 193.25122 108.939518 
L 194.929684 93.210826 
L 196.28674 82.501777 
L 197.429524 75.188445 
L 198.393748 70.379906 
L 199.215124 67.33848 
L 199.893652 65.589057 
L 200.465044 64.66425 
L 200.9293 64.286607 
L 201.322132 64.230183 
L 201.714964 64.415169 
L 202.143508 64.891623 
L 202.643476 65.807394 
L 203.25058 67.434072 
L 203.96482 70.055007 
L 204.786196 73.981166 
L 205.75042 79.76677 
L 206.857492 87.844741 
L 208.178836 99.23188 
L 209.821588 115.473036 
L 212.285716 142.366978 
L 215.678356 179.056688 
L 217.35682 194.801521 
L 218.713876 205.527614 
L 219.85666 212.85759 
L 220.820884 217.681469 
L 221.64226 220.73668 
L 222.320788 222.497849 
L 222.89218 223.432717 
L 223.356436 223.8186 
L 223.749268 223.882016 
L 224.1421 223.704016 
L 224.570644 223.235153 
L 225.070612 222.328161 
L 225.677716 220.711973 
L 226.391956 218.103047 
L 227.213332 214.190101 
L 228.177556 208.418971 
L 229.284628 200.355913 
L 230.605972 188.983716 
L 232.248724 172.756084 
L 234.712852 145.870576 
L 238.105492 109.168069 
L 239.783956 93.407136 
L 241.141012 82.664026 
L 242.283796 75.317426 
L 243.24802 70.478217 
L 244.069396 67.40923 
L 244.747924 65.63632 
L 245.319316 64.691393 
L 245.783572 64.29727 
L 246.176404 64.226863 
L 246.569236 64.397877 
L 246.99778 64.859148 
L 247.497748 65.757358 
L 248.104852 67.36305 
L 248.819092 69.959963 
L 249.640468 73.859685 
L 250.604692 79.616327 
L 251.711764 87.66445 
L 253.033108 99.021678 
L 254.67586 115.235743 
L 257.104276 141.713725 
L 260.56834 179.186838 
L 262.246804 194.913276 
L 263.60386 205.619947 
L 264.710932 212.72826 
L 265.675156 217.582785 
L 266.496532 220.66554 
L 267.17506 222.450188 
L 267.746452 223.40517 
L 268.210708 223.807533 
L 268.60354 223.88493 
L 268.996372 223.720904 
L 269.424916 223.267226 
L 269.924884 222.3778 
L 270.531988 220.782606 
L 271.246228 218.197715 
L 272.067604 214.311226 
L 273.031828 208.569087 
L 274.1389 200.535918 
L 275.460244 189.19369 
L 277.102996 172.993231 
L 279.531412 146.523802 
L 282.995476 109.037818 
L 284.67394 93.295234 
L 286.030996 82.571515 
L 287.17378 75.243859 
L 288.138004 70.422117 
L 288.95938 67.368828 
L 289.637908 65.609296 
L 290.2093 64.675831 
L 290.673556 64.291096 
L 291.066388 64.228655 
L 291.45922 64.407629 
L 291.887764 64.87755 
L 292.387732 65.785766 
L 292.994836 67.403417 
L 293.709076 70.014018 
L 294.530452 73.928806 
L 295.494676 79.701955 
L 296.601748 87.767093 
L 297.923092 99.141375 
L 299.565844 115.370895 
L 302.029972 142.257583 
L 305.422612 178.958312 
L 307.101076 194.717003 
L 308.458132 205.457742 
L 309.600916 212.802026 
L 310.56514 217.639098 
L 311.386516 220.706164 
L 312.065044 222.477438 
L 312.636436 223.420963 
L 313.100692 223.813937 
L 313.493524 223.883369 
L 313.886356 223.711382 
L 314.3149 223.249052 
L 314.814868 222.349617 
L 315.421972 220.742461 
L 316.136212 218.143874 
L 316.957588 214.242308 
L 317.921812 208.483645 
L 319.028884 200.433438 
L 320.350228 189.074122 
L 321.99298 172.858163 
L 324.421396 146.378994 
L 327.88546 108.907683 
L 329.563924 93.183499 
L 330.92098 82.479207 
L 332.028052 75.37314 
L 332.992276 70.520749 
L 333.813652 67.439913 
L 334.49218 65.656901 
L 335.063572 64.703321 
L 335.527828 64.302107 
L 335.92066 64.225684 
L 336.313492 64.390684 
L 336.742036 64.845421 
L 337.242004 65.736072 
L 337.849108 67.33273 
L 338.563348 69.919297 
L 339.384724 73.807632 
L 340.348948 79.551793 
L 341.45602 87.587049 
L 342.777364 98.93137 
L 344.420116 115.133728 
L 346.848532 141.604353 
L 350.312596 179.088548 
L 351.99106 194.828884 
L 353.348116 205.550228 
L 354.4909 212.875565 
L 355.455124 217.695168 
L 356.2765 220.746536 
L 356.955028 222.50443 
L 357.52642 223.436493 
L 357.990676 223.820079 
L 358.383508 223.881545 
L 358.77634 223.701597 
L 359.204884 223.230617 
L 359.704852 222.321178 
L 360.311956 220.702064 
L 361.026196 218.089789 
L 361.847572 214.173158 
L 362.811796 208.39799 
L 363.918868 200.330773 
L 365.240212 188.954406 
L 366.882964 172.722999 
L 369.347092 145.835133 
L 372.739732 109.136184 
L 374.418196 93.379737 
L 375.775252 82.641369 
L 376.918036 75.299402 
L 377.88226 70.464466 
L 378.703636 67.39932 
L 379.382164 65.629683 
L 379.953556 64.687561 
L 380.417812 64.295735 
L 380.810644 64.227277 
L 381.203476 64.400239 
L 381.63202 64.863627 
L 382.131988 65.764286 
L 382.739092 67.372905 
L 383.453332 69.973168 
L 384.274708 73.876578 
L 385.238932 79.637262 
L 386.346004 87.689551 
L 387.667348 99.050955 
L 389.3101 115.268808 
L 391.738516 141.749163 
L 395.20258 179.218669 
L 396.881044 194.940598 
L 398.202388 205.387754 
L 399.345172 212.746332 
L 400.309396 217.596588 
L 401.130772 220.675505 
L 401.8093 222.45688 
L 402.380692 223.409059 
L 402.844948 223.809124 
L 403.23778 223.884573 
L 403.630612 223.718598 
L 404.059156 223.262803 
L 404.559124 222.370927 
L 405.166228 220.772806 
L 405.880468 218.184562 
L 406.701844 214.294382 
L 407.666068 208.548198 
L 408.77314 200.510857 
L 410.094484 189.164444 
L 411.737236 172.960187 
L 412.451476 165.386468 
L 412.451476 165.386468 
" clip-path="url(#p78ff48dc55)" style="fill: none; stroke: #ff0000; stroke-width: 1.5; stroke-linecap: square"/>
   </g>
   <g id="patch_8">
    <path d="M 55.367188 277.111219 
L 55.367188 10.999219 
" style="fill: none; stroke: #000000; stroke-width: 0.8; stroke-linejoin: miter; stroke-linecap: square"/>
   </g>
   <g id="patch_9">
    <path d="M 412.487188 277.111219 
L 412.487188 10.999219 
" style="fill: none; stroke: #000000; stroke-width: 0.8; stroke-linejoin: miter; stroke-linecap: square"/>
   </g>
   <g id="patch_10">
    <path d="M 55.367188 277.111219 
L 412.487188 277.111219 
" style="fill: none; stroke: #000000; stroke-width: 0.8; stroke-linejoin: miter; stroke-linecap: square"/>
   </g>
   <g id="patch_11">
    <path d="M 55.367188 10.999219 
L 412.487188 10.999219 
" style="fill: none; stroke: #000000; stroke-width: 0.8; stroke-linejoin: miter; stroke-linecap: square"/>
   </g>
  </g>
 </g>
 <defs>
  <clipPath id="p78ff48dc55">
   <rect x="55.367188" y="10.999219" width="357.12" height="266.112"/>
  </clipPath>
 </defs>
</svg>
