<?xml version="1.0" encoding="utf-8" standalone="no"?>
<!DOCTYPE svg PUBLIC "-//W3C//DTD SVG 1.1//EN"
  "http://www.w3.org/Graphics/SVG/1.1/DTD/svg11.dtd">
<svg xmlns:xlink="http://www.w3.org/1999/xlink" width="426.049688pt" height="310.86825pt" viewBox="0 0 426.049688 310.86825" xmlns="http://www.w3.org/2000/svg" version="1.1">
 <metadata>
  <rdf:RDF xmlns:dc="http://purl.org/dc/elements/1.1/" xmlns:cc="http://creativecommons.org/ns#" xmlns:rdf="http://www.w3.org/1999/02/22-rdf-syntax-ns#">
   <cc:Work>
    <dc:type rdf:resource="http://purl.org/dc/dcmitype/StillImage"/>
    <dc:date>2026-04-07T12:04:23.578217</dc:date>
    <dc:format>image/svg+xml</dc:format>
    <dc:creator>
     <cc:Agent>
      <dc:title>Matplotlib v3.10.8, https://matplotlib.org/</dc:title>
     </cc:Agent>
    </dc:creator>
   </cc:Work>
  </rdf:RDF>
 </metadata>
 <defs>
  <style type="text/css">*{stroke-linejoin: round; stroke-linecap: butt}</style>
 </defs>
 <g id="figure_1">
  <g id="patch_1">
   <path d="M 0 310.86825 
L 426.049688 310.86825 
L 426.049688 0 
L 0 0 
z
" style="fill: #ffffff"/>
  </g>
  <g id="axes_1">
   <g id="patch_2">
    <path d="M 49.004688 273.312 
L 406.124688 273.312 
L 406.124688 7.2 
L 49.004688 7.2 
z
" style="fill: #ffffff"/>
   </g>
   <g id="matplotlib.axis_1">
    <g id="xtick_1">
     <g id="line2d_1">
      <defs>
       <path id="mf42748e58e" d="M 0 0 
L 0 3.5 
" style="stroke: #000000; stroke-width: 0.8"/>
      </defs>
      <g>
       <use xlink:href="#mf42748e58e" x="49.004688" y="273.312" style="stroke: #000000; stroke-width: 0.8"/>
      </g>
     </g>
     <g id="text_1">
      <!-- 0 -->
      <g transform="translate(45.823438 287.910437) scale(0.1 -0.1)">
       <defs>
        <path id="DejaVuSans-30" d="M 2034 4250 
Q 1547 4250 1301 3770 
Q 1056 3291 1056 2328 
Q 1056 1369 1301 889 
Q 1547 409 2034 409 
Q 2525 409 2770 889 
Q 3016 1369 3016 2328 
Q 3016 3291 2770 3770 
Q 2525 4250 2034 4250 
z
M 2034 4750 
Q 2819 4750 3233 4129 
Q 3647 3509 3647 2328 
Q 3647 1150 3233 529 
Q 2819 -91 2034 -91 
Q 1250 -91 836 529 
Q 422 1150 422 2328 
Q 422 3509 836 4129 
Q 1250 4750 2034 4750 
z
" transform="scale(0.015625)"/>
       </defs>
       <use xlink:href="#DejaVuSans-30"/>
      </g>
     </g>
    </g>
    <g id="xtick_2">
     <g id="line2d_2">
      <g>
       <use xlink:href="#mf42748e58e" x="120.428688" y="273.312" style="stroke: #000000; stroke-width: 0.8"/>
      </g>
     </g>
     <g id="text_2">
      <!-- 200 -->
      <g transform="translate(110.884938 287.910437) scale(0.1 -0.1)">
       <defs>
        <path id="DejaVuSans-32" d="M 1228 531 
L 3431 531 
L 3431 0 
L 469 0 
L 469 531 
Q 828 903 1448 1529 
Q 2069 2156 2228 2338 
Q 2531 2678 2651 2914 
Q 2772 3150 2772 3378 
Q 2772 3750 2511 3984 
Q 2250 4219 1831 4219 
Q 1534 4219 1204 4116 
Q 875 4013 500 3803 
L 500 4441 
Q 881 4594 1212 4672 
Q 1544 4750 1819 4750 
Q 2544 4750 2975 4387 
Q 3406 4025 3406 3419 
Q 3406 3131 3298 2873 
Q 3191 2616 2906 2266 
Q 2828 2175 2409 1742 
Q 1991 1309 1228 531 
z
" transform="scale(0.015625)"/>
       </defs>
       <use xlink:href="#DejaVuSans-32"/>
       <use xlink:href="#DejaVuSans-30" transform="translate(63.623047 0)"/>
       <use xlink:href="#DejaVuSans-30" transform="translate(127.246094 0)"/>
      </g>
     </g>
    </g>
    <g id="xtick_3">
     <g id="line2d_3">
      <g>
       <use xlink:href="#mf42748e58e" x="191.852688" y="273.312" style="stroke: #000000; stroke-width: 0.8"/>
      </g>
     </g>
     <g id="text_3">
      <!-- 400 -->
      <g transform="translate(182.308938 287.910437) scale(0.1 -0.1)">
       <defs>
        <path id="DejaVuSans-34" d="M 2419 4116 
L 825 1625 
L 2419 1625 
L 2419 4116 
z
M 2253 4666 
L 3047 4666 
L 3047 1625 
L 3713 1625 
L 3713 1100 
L 3047 1100 
L 3047 0 
L 2419 0 
L 2419 1100 
L 313 1100 
L 313 1709 
L 2253 4666 
z
" transform="scale(0.015625)"/>
       </defs>
       <use xlink:href="#DejaVuSans-34"/>
       <use xlink:href="#DejaVuSans-30" transform="translate(63.623047 0)"/>
       <use xlink:href="#DejaVuSans-30" transform="translate(127.246094 0)"/>
      </g>
     </g>
    </g>
    <g id="xtick_4">
     <g id="line2d_4">
      <g>
       <use xlink:href="#mf42748e58e" x="263.276688" y="273.312" style="stroke: #000000; stroke-width: 0.8"/>
      </g>
     </g>
     <g id="text_4">
      <!-- 600 -->
      <g transform="translate(253.732938 287.910437) scale(0.1 -0.1)">
       <defs>
        <path id="DejaVuSans-36" d="M 2113 2584 
Q 1688 2584 1439 2293 
Q 1191 2003 1191 1497 
Q 1191 994 1439 701 
Q 1688 409 2113 409 
Q 2538 409 2786 701 
Q 3034 994 3034 1497 
Q 3034 2003 2786 2293 
Q 2538 2584 2113 2584 
z
M 3366 4563 
L 3366 3988 
Q 3128 4100 2886 4159 
Q 2644 4219 2406 4219 
Q 1781 4219 1451 3797 
Q 1122 3375 1075 2522 
Q 1259 2794 1537 2939 
Q 1816 3084 2150 3084 
Q 2853 3084 3261 2657 
Q 3669 2231 3669 1497 
Q 3669 778 3244 343 
Q 2819 -91 2113 -91 
Q 1303 -91 875 529 
Q 447 1150 447 2328 
Q 447 3434 972 4092 
Q 1497 4750 2381 4750 
Q 2619 4750 2861 4703 
Q 3103 4656 3366 4563 
z
" transform="scale(0.015625)"/>
       </defs>
       <use xlink:href="#DejaVuSans-36"/>
       <use xlink:href="#DejaVuSans-30" transform="translate(63.623047 0)"/>
       <use xlink:href="#DejaVuSans-30" transform="translate(127.246094 0)"/>
      </g>
     </g>
    </g>
    <g id="xtick_5">
     <g id="line2d_5">
      <g>
       <use xlink:href="#mf42748e58e" x="334.700688" y="273.312" style="stroke: #000000; stroke-width: 0.8"/>
      </g>
     </g>
     <g id="text_5">
      <!-- 800 -->
      <g transform="translate(325.156938 287.910437) scale(0.1 -0.1)">
       <defs>
        <path id="DejaVuSans-38" d="M 2034 2216 
Q 1584 2216 1326 1975 
Q 1069 1734 1069 1313 
Q 1069 891 1326 650 
Q 1584 409 2034 409 
Q 2484 409 2743 651 
Q 3003 894 3003 1313 
Q 3003 1734 2745 1975 
Q 2488 2216 2034 2216 
z
M 1403 2484 
Q 997 2584 770 2862 
Q 544 3141 544 3541 
Q 544 4100 942 4425 
Q 1341 4750 2034 4750 
Q 2731 4750 3128 4425 
Q 3525 4100 3525 3541 
Q 3525 3141 3298 2862 
Q 3072 2584 2669 2484 
Q 3125 2378 3379 2068 
Q 3634 1759 3634 1313 
Q 3634 634 3220 271 
Q 2806 -91 2034 -91 
Q 1263 -91 848 271 
Q 434 634 434 1313 
Q 434 1759 690 2068 
Q 947 2378 1403 2484 
z
M 1172 3481 
Q 1172 3119 1398 2916 
Q 1625 2713 2034 2713 
Q 2441 2713 2670 2916 
Q 2900 3119 2900 3481 
Q 2900 3844 2670 4047 
Q 2441 4250 2034 4250 
Q 1625 4250 1398 4047 
Q 1172 3844 1172 3481 
z
" transform="scale(0.015625)"/>
       </defs>
       <use xlink:href="#DejaVuSans-38"/>
       <use xlink:href="#DejaVuSans-30" transform="translate(63.623047 0)"/>
       <use xlink:href="#DejaVuSans-30" transform="translate(127.246094 0)"/>
      </g>
     </g>
    </g>
    <g id="xtick_6">
     <g id="line2d_6">
      <g>
       <use xlink:href="#mf42748e58e" x="406.124688" y="273.312" style="stroke: #000000; stroke-width: 0.8"/>
      </g>
     </g>
     <g id="text_6">
      <!-- 1000 -->
      <g transform="translate(393.399688 287.910437) scale(0.1 -0.1)">
       <defs>
        <path id="DejaVuSans-31" d="M 794 531 
L 1825 531 
L 1825 4091 
L 703 3866 
L 703 4441 
L 1819 4666 
L 2450 4666 
L 2450 531 
L 3481 531 
L 3481 0 
L 794 0 
L 794 531 
z
" transform="scale(0.015625)"/>
       </defs>
       <use xlink:href="#DejaVuSans-31"/>
       <use xlink:href="#DejaVuSans-30" transform="translate(63.623047 0)"/>
       <use xlink:href="#DejaVuSans-30" transform="translate(127.246094 0)"/>
       <use xlink:href="#DejaVuSans-30" transform="translate(190.869141 0)"/>
      </g>
     </g>
    </g>
    <g id="text_7">
     <!-- Time $(ms)$ -->
     <g transform="translate(202.164688 301.588562) scale(0.1 -0.1)">
      <defs>
       <path id="DejaVuSans-54" d="M -19 4666 
L 3928 4666 
L 3928 4134 
L 2272 4134 
L 2272 0 
L 1638 0 
L 1638 4134 
L -19 4134 
L -19 4666 
z
" transform="scale(0.015625)"/>
       <path id="DejaVuSans-69" d="M 603 3500 
L 1178 3500 
L 1178 0 
L 603 0 
L 603 3500 
z
M 603 4863 
L 1178 4863 
L 1178 4134 
L 603 4134 
L 603 4863 
z
" transform="scale(0.015625)"/>
       <path id="DejaVuSans-6d" d="M 3328 2828 
Q 3544 3216 3844 3400 
Q 4144 3584 4550 3584 
Q 5097 3584 5394 3201 
Q 5691 2819 5691 2113 
L 5691 0 
L 5113 0 
L 5113 2094 
Q 5113 2597 4934 2840 
Q 4756 3084 4391 3084 
Q 3944 3084 3684 2787 
Q 3425 2491 3425 1978 
L 3425 0 
L 2847 0 
L 2847 2094 
Q 2847 2600 2669 2842 
Q 2491 3084 2119 3084 
Q 1678 3084 1418 2786 
Q 1159 2488 1159 1978 
L 1159 0 
L 581 0 
L 581 3500 
L 1159 3500 
L 1159 2956 
Q 1356 3278 1631 3431 
Q 1906 3584 2284 3584 
Q 2666 3584 2933 3390 
Q 3200 3197 3328 2828 
z
" transform="scale(0.015625)"/>
       <path id="DejaVuSans-65" d="M 3597 1894 
L 3597 1613 
L 953 1613 
Q 991 1019 1311 708 
Q 1631 397 2203 397 
Q 2534 397 2845 478 
Q 3156 559 3463 722 
L 3463 178 
Q 3153 47 2828 -22 
Q 2503 -91 2169 -91 
Q 1331 -91 842 396 
Q 353 884 353 1716 
Q 353 2575 817 3079 
Q 1281 3584 2069 3584 
Q 2775 3584 3186 3129 
Q 3597 2675 3597 1894 
z
M 3022 2063 
Q 3016 2534 2758 2815 
Q 2500 3097 2075 3097 
Q 1594 3097 1305 2825 
Q 1016 2553 972 2059 
L 3022 2063 
z
" transform="scale(0.015625)"/>
       <path id="DejaVuSans-20" transform="scale(0.015625)"/>
       <path id="DejaVuSans-28" d="M 1984 4856 
Q 1566 4138 1362 3434 
Q 1159 2731 1159 2009 
Q 1159 1288 1364 580 
Q 1569 -128 1984 -844 
L 1484 -844 
Q 1016 -109 783 600 
Q 550 1309 550 2009 
Q 550 2706 781 3412 
Q 1013 4119 1484 4856 
L 1984 4856 
z
" transform="scale(0.015625)"/>
       <path id="DejaVuSans-Oblique-6d" d="M 5747 2113 
L 5338 0 
L 4763 0 
L 5166 2094 
Q 5191 2228 5203 2325 
Q 5216 2422 5216 2491 
Q 5216 2772 5059 2928 
Q 4903 3084 4622 3084 
Q 4203 3084 3875 2770 
Q 3547 2456 3450 1953 
L 3066 0 
L 2491 0 
L 2900 2094 
Q 2925 2209 2937 2307 
Q 2950 2406 2950 2484 
Q 2950 2769 2794 2926 
Q 2638 3084 2363 3084 
Q 1938 3084 1609 2770 
Q 1281 2456 1184 1953 
L 800 0 
L 225 0 
L 909 3500 
L 1484 3500 
L 1375 2956 
Q 1609 3263 1923 3423 
Q 2238 3584 2597 3584 
Q 2978 3584 3223 3384 
Q 3469 3184 3519 2828 
Q 3781 3197 4126 3390 
Q 4472 3584 4856 3584 
Q 5306 3584 5551 3325 
Q 5797 3066 5797 2591 
Q 5797 2488 5784 2364 
Q 5772 2241 5747 2113 
z
" transform="scale(0.015625)"/>
       <path id="DejaVuSans-Oblique-73" d="M 3200 3397 
L 3091 2853 
Q 2863 2978 2609 3040 
Q 2356 3103 2088 3103 
Q 1634 3103 1373 2948 
Q 1113 2794 1113 2528 
Q 1113 2219 1719 2053 
Q 1766 2041 1788 2034 
L 1972 1978 
Q 2547 1819 2739 1644 
Q 2931 1469 2931 1166 
Q 2931 609 2489 259 
Q 2047 -91 1331 -91 
Q 1053 -91 747 -37 
Q 441 16 72 128 
L 184 722 
Q 500 559 806 475 
Q 1113 391 1394 391 
Q 1816 391 2080 572 
Q 2344 753 2344 1031 
Q 2344 1331 1650 1516 
L 1591 1531 
L 1394 1581 
Q 956 1697 753 1886 
Q 550 2075 550 2369 
Q 550 2928 970 3256 
Q 1391 3584 2113 3584 
Q 2397 3584 2667 3537 
Q 2938 3491 3200 3397 
z
" transform="scale(0.015625)"/>
       <path id="DejaVuSans-29" d="M 513 4856 
L 1013 4856 
Q 1481 4119 1714 3412 
Q 1947 2706 1947 2009 
Q 1947 1309 1714 600 
Q 1481 -109 1013 -844 
L 513 -844 
Q 928 -128 1133 580 
Q 1338 1288 1338 2009 
Q 1338 2731 1133 3434 
Q 928 4138 513 4856 
z
" transform="scale(0.015625)"/>
      </defs>
      <use xlink:href="#DejaVuSans-54" transform="translate(0 0.015625)"/>
      <use xlink:href="#DejaVuSans-69" transform="translate(61.083984 0.015625)"/>
      <use xlink:href="#DejaVuSans-6d" transform="translate(88.867188 0.015625)"/>
      <use xlink:href="#DejaVuSans-65" transform="translate(186.279297 0.015625)"/>
      <use xlink:href="#DejaVuSans-20" transform="translate(247.802734 0.015625)"/>
      <use xlink:href="#DejaVuSans-28" transform="translate(279.589844 0.015625)"/>
      <use xlink:href="#DejaVuSans-Oblique-6d" transform="translate(318.603516 0.015625)"/>
      <use xlink:href="#DejaVuSans-Oblique-73" transform="translate(416.015625 0.015625)"/>
      <use xlink:href="#DejaVuSans-29" transform="translate(468.115234 0.015625)"/>
     </g>
    </g>
   </g>
   <g id="matplotlib.axis_2">
    <g id="ytick_1">
     <g id="line2d_7">
      <defs>
       <path id="m6e4bf6411b" d="M 0 0 
L -3.5 0 
" style="stroke: #000000; stroke-width: 0.8"/>
      </defs>
      <g>
       <use xlink:href="#m6e4bf6411b" x="49.004688" y="262.199416" style="stroke: #000000; stroke-width: 0.8"/>
      </g>
     </g>
     <g id="text_8">
      <!-- −70 -->
      <g transform="translate(20.9 265.998634) scale(0.1 -0.1)">
       <defs>
        <path id="DejaVuSans-2212" d="M 678 2272 
L 4684 2272 
L 4684 1741 
L 678 1741 
L 678 2272 
z
" transform="scale(0.015625)"/>
        <path id="DejaVuSans-37" d="M 525 4666 
L 3525 4666 
L 3525 4397 
L 1831 0 
L 1172 0 
L 2766 4134 
L 525 4134 
L 525 4666 
z
" transform="scale(0.015625)"/>
       </defs>
       <use xlink:href="#DejaVuSans-2212"/>
       <use xlink:href="#DejaVuSans-37" transform="translate(83.789062 0)"/>
       <use xlink:href="#DejaVuSans-30" transform="translate(147.412109 0)"/>
      </g>
     </g>
    </g>
    <g id="ytick_2">
     <g id="line2d_8">
      <g>
       <use xlink:href="#m6e4bf6411b" x="49.004688" y="227.575389" style="stroke: #000000; stroke-width: 0.8"/>
      </g>
     </g>
     <g id="text_9">
      <!-- −60 -->
      <g transform="translate(20.9 231.374608) scale(0.1 -0.1)">
       <use xlink:href="#DejaVuSans-2212"/>
       <use xlink:href="#DejaVuSans-36" transform="translate(83.789062 0)"/>
       <use xlink:href="#DejaVuSans-30" transform="translate(147.412109 0)"/>
      </g>
     </g>
    </g>
    <g id="ytick_3">
     <g id="line2d_9">
      <g>
       <use xlink:href="#m6e4bf6411b" x="49.004688" y="192.951363" style="stroke: #000000; stroke-width: 0.8"/>
      </g>
     </g>
     <g id="text_10">
      <!-- −50 -->
      <g transform="translate(20.9 196.750582) scale(0.1 -0.1)">
       <defs>
        <path id="DejaVuSans-35" d="M 691 4666 
L 3169 4666 
L 3169 4134 
L 1269 4134 
L 1269 2991 
Q 1406 3038 1543 3061 
Q 1681 3084 1819 3084 
Q 2600 3084 3056 2656 
Q 3513 2228 3513 1497 
Q 3513 744 3044 326 
Q 2575 -91 1722 -91 
Q 1428 -91 1123 -41 
Q 819 9 494 109 
L 494 744 
Q 775 591 1075 516 
Q 1375 441 1709 441 
Q 2250 441 2565 725 
Q 2881 1009 2881 1497 
Q 2881 1984 2565 2268 
Q 2250 2553 1709 2553 
Q 1456 2553 1204 2497 
Q 953 2441 691 2322 
L 691 4666 
z
" transform="scale(0.015625)"/>
       </defs>
       <use xlink:href="#DejaVuSans-2212"/>
       <use xlink:href="#DejaVuSans-35" transform="translate(83.789062 0)"/>
       <use xlink:href="#DejaVuSans-30" transform="translate(147.412109 0)"/>
      </g>
     </g>
    </g>
    <g id="ytick_4">
     <g id="line2d_10">
      <g>
       <use xlink:href="#m6e4bf6411b" x="49.004688" y="158.327337" style="stroke: #000000; stroke-width: 0.8"/>
      </g>
     </g>
     <g id="text_11">
      <!-- −40 -->
      <g transform="translate(20.9 162.126555) scale(0.1 -0.1)">
       <use xlink:href="#DejaVuSans-2212"/>
       <use xlink:href="#DejaVuSans-34" transform="translate(83.789062 0)"/>
       <use xlink:href="#DejaVuSans-30" transform="translate(147.412109 0)"/>
      </g>
     </g>
    </g>
    <g id="ytick_5">
     <g id="line2d_11">
      <g>
       <use xlink:href="#m6e4bf6411b" x="49.004688" y="123.70331" style="stroke: #000000; stroke-width: 0.8"/>
      </g>
     </g>
     <g id="text_12">
      <!-- −30 -->
      <g transform="translate(20.9 127.502529) scale(0.1 -0.1)">
       <defs>
        <path id="DejaVuSans-33" d="M 2597 2516 
Q 3050 2419 3304 2112 
Q 3559 1806 3559 1356 
Q 3559 666 3084 287 
Q 2609 -91 1734 -91 
Q 1441 -91 1130 -33 
Q 819 25 488 141 
L 488 750 
Q 750 597 1062 519 
Q 1375 441 1716 441 
Q 2309 441 2620 675 
Q 2931 909 2931 1356 
Q 2931 1769 2642 2001 
Q 2353 2234 1838 2234 
L 1294 2234 
L 1294 2753 
L 1863 2753 
Q 2328 2753 2575 2939 
Q 2822 3125 2822 3475 
Q 2822 3834 2567 4026 
Q 2313 4219 1838 4219 
Q 1578 4219 1281 4162 
Q 984 4106 628 3988 
L 628 4550 
Q 988 4650 1302 4700 
Q 1616 4750 1894 4750 
Q 2613 4750 3031 4423 
Q 3450 4097 3450 3541 
Q 3450 3153 3228 2886 
Q 3006 2619 2597 2516 
z
" transform="scale(0.015625)"/>
       </defs>
       <use xlink:href="#DejaVuSans-2212"/>
       <use xlink:href="#DejaVuSans-33" transform="translate(83.789062 0)"/>
       <use xlink:href="#DejaVuSans-30" transform="translate(147.412109 0)"/>
      </g>
     </g>
    </g>
    <g id="ytick_6">
     <g id="line2d_12">
      <g>
       <use xlink:href="#m6e4bf6411b" x="49.004688" y="89.079284" style="stroke: #000000; stroke-width: 0.8"/>
      </g>
     </g>
     <g id="text_13">
      <!-- −20 -->
      <g transform="translate(20.9 92.878503) scale(0.1 -0.1)">
       <use xlink:href="#DejaVuSans-2212"/>
       <use xlink:href="#DejaVuSans-32" transform="translate(83.789062 0)"/>
       <use xlink:href="#DejaVuSans-30" transform="translate(147.412109 0)"/>
      </g>
     </g>
    </g>
    <g id="ytick_7">
     <g id="line2d_13">
      <g>
       <use xlink:href="#m6e4bf6411b" x="49.004688" y="54.455258" style="stroke: #000000; stroke-width: 0.8"/>
      </g>
     </g>
     <g id="text_14">
      <!-- −10 -->
      <g transform="translate(20.9 58.254476) scale(0.1 -0.1)">
       <use xlink:href="#DejaVuSans-2212"/>
       <use xlink:href="#DejaVuSans-31" transform="translate(83.789062 0)"/>
       <use xlink:href="#DejaVuSans-30" transform="translate(147.412109 0)"/>
      </g>
     </g>
    </g>
    <g id="ytick_8">
     <g id="line2d_14">
      <g>
       <use xlink:href="#m6e4bf6411b" x="49.004688" y="19.831231" style="stroke: #000000; stroke-width: 0.8"/>
      </g>
     </g>
     <g id="text_15">
      <!-- 0 -->
      <g transform="translate(35.642188 23.63045) scale(0.1 -0.1)">
       <use xlink:href="#DejaVuSans-30"/>
      </g>
     </g>
    </g>
    <g id="text_16">
     <!-- Membrane potential $(mV)$ -->
     <g transform="translate(14.8 204.706) rotate(-90) scale(0.1 -0.1)">
      <defs>
       <path id="DejaVuSans-4d" d="M 628 4666 
L 1569 4666 
L 2759 1491 
L 3956 4666 
L 4897 4666 
L 4897 0 
L 4281 0 
L 4281 4097 
L 3078 897 
L 2444 897 
L 1241 4097 
L 1241 0 
L 628 0 
L 628 4666 
z
" transform="scale(0.015625)"/>
       <path id="DejaVuSans-62" d="M 3116 1747 
Q 3116 2381 2855 2742 
Q 2594 3103 2138 3103 
Q 1681 3103 1420 2742 
Q 1159 2381 1159 1747 
Q 1159 1113 1420 752 
Q 1681 391 2138 391 
Q 2594 391 2855 752 
Q 3116 1113 3116 1747 
z
M 1159 2969 
Q 1341 3281 1617 3432 
Q 1894 3584 2278 3584 
Q 2916 3584 3314 3078 
Q 3713 2572 3713 1747 
Q 3713 922 3314 415 
Q 2916 -91 2278 -91 
Q 1894 -91 1617 61 
Q 1341 213 1159 525 
L 1159 0 
L 581 0 
L 581 4863 
L 1159 4863 
L 1159 2969 
z
" transform="scale(0.015625)"/>
       <path id="DejaVuSans-72" d="M 2631 2963 
Q 2534 3019 2420 3045 
Q 2306 3072 2169 3072 
Q 1681 3072 1420 2755 
Q 1159 2438 1159 1844 
L 1159 0 
L 581 0 
L 581 3500 
L 1159 3500 
L 1159 2956 
Q 1341 3275 1631 3429 
Q 1922 3584 2338 3584 
Q 2397 3584 2469 3576 
Q 2541 3569 2628 3553 
L 2631 2963 
z
" transform="scale(0.015625)"/>
       <path id="DejaVuSans-61" d="M 2194 1759 
Q 1497 1759 1228 1600 
Q 959 1441 959 1056 
Q 959 750 1161 570 
Q 1363 391 1709 391 
Q 2188 391 2477 730 
Q 2766 1069 2766 1631 
L 2766 1759 
L 2194 1759 
z
M 3341 1997 
L 3341 0 
L 2766 0 
L 2766 531 
Q 2569 213 2275 61 
Q 1981 -91 1556 -91 
Q 1019 -91 701 211 
Q 384 513 384 1019 
Q 384 1609 779 1909 
Q 1175 2209 1959 2209 
L 2766 2209 
L 2766 2266 
Q 2766 2663 2505 2880 
Q 2244 3097 1772 3097 
Q 1472 3097 1187 3025 
Q 903 2953 641 2809 
L 641 3341 
Q 956 3463 1253 3523 
Q 1550 3584 1831 3584 
Q 2591 3584 2966 3190 
Q 3341 2797 3341 1997 
z
" transform="scale(0.015625)"/>
       <path id="DejaVuSans-6e" d="M 3513 2113 
L 3513 0 
L 2938 0 
L 2938 2094 
Q 2938 2591 2744 2837 
Q 2550 3084 2163 3084 
Q 1697 3084 1428 2787 
Q 1159 2491 1159 1978 
L 1159 0 
L 581 0 
L 581 3500 
L 1159 3500 
L 1159 2956 
Q 1366 3272 1645 3428 
Q 1925 3584 2291 3584 
Q 2894 3584 3203 3211 
Q 3513 2838 3513 2113 
z
" transform="scale(0.015625)"/>
       <path id="DejaVuSans-70" d="M 1159 525 
L 1159 -1331 
L 581 -1331 
L 581 3500 
L 1159 3500 
L 1159 2969 
Q 1341 3281 1617 3432 
Q 1894 3584 2278 3584 
Q 2916 3584 3314 3078 
Q 3713 2572 3713 1747 
Q 3713 922 3314 415 
Q 2916 -91 2278 -91 
Q 1894 -91 1617 61 
Q 1341 213 1159 525 
z
M 3116 1747 
Q 3116 2381 2855 2742 
Q 2594 3103 2138 3103 
Q 1681 3103 1420 2742 
Q 1159 2381 1159 1747 
Q 1159 1113 1420 752 
Q 1681 391 2138 391 
Q 2594 391 2855 752 
Q 3116 1113 3116 1747 
z
" transform="scale(0.015625)"/>
       <path id="DejaVuSans-6f" d="M 1959 3097 
Q 1497 3097 1228 2736 
Q 959 2375 959 1747 
Q 959 1119 1226 758 
Q 1494 397 1959 397 
Q 2419 397 2687 759 
Q 2956 1122 2956 1747 
Q 2956 2369 2687 2733 
Q 2419 3097 1959 3097 
z
M 1959 3584 
Q 2709 3584 3137 3096 
Q 3566 2609 3566 1747 
Q 3566 888 3137 398 
Q 2709 -91 1959 -91 
Q 1206 -91 779 398 
Q 353 888 353 1747 
Q 353 2609 779 3096 
Q 1206 3584 1959 3584 
z
" transform="scale(0.015625)"/>
       <path id="DejaVuSans-74" d="M 1172 4494 
L 1172 3500 
L 2356 3500 
L 2356 3053 
L 1172 3053 
L 1172 1153 
Q 1172 725 1289 603 
Q 1406 481 1766 481 
L 2356 481 
L 2356 0 
L 1766 0 
Q 1100 0 847 248 
Q 594 497 594 1153 
L 594 3053 
L 172 3053 
L 172 3500 
L 594 3500 
L 594 4494 
L 1172 4494 
z
" transform="scale(0.015625)"/>
       <path id="DejaVuSans-6c" d="M 603 4863 
L 1178 4863 
L 1178 0 
L 603 0 
L 603 4863 
z
" transform="scale(0.015625)"/>
       <path id="DejaVuSans-Oblique-56" d="M 1319 0 
L 500 4666 
L 1119 4666 
L 1797 653 
L 4063 4666 
L 4750 4666 
L 2053 0 
L 1319 0 
z
" transform="scale(0.015625)"/>
      </defs>
      <use xlink:href="#DejaVuSans-4d" transform="translate(0 0.015625)"/>
      <use xlink:href="#DejaVuSans-65" transform="translate(86.279297 0.015625)"/>
      <use xlink:href="#DejaVuSans-6d" transform="translate(147.802734 0.015625)"/>
      <use xlink:href="#DejaVuSans-62" transform="translate(245.214844 0.015625)"/>
      <use xlink:href="#DejaVuSans-72" transform="translate(308.691406 0.015625)"/>
      <use xlink:href="#DejaVuSans-61" transform="translate(349.804688 0.015625)"/>
      <use xlink:href="#DejaVuSans-6e" transform="translate(411.083984 0.015625)"/>
      <use xlink:href="#DejaVuSans-65" transform="translate(474.462891 0.015625)"/>
      <use xlink:href="#DejaVuSans-20" transform="translate(535.986328 0.015625)"/>
      <use xlink:href="#DejaVuSans-70" transform="translate(567.773438 0.015625)"/>
      <use xlink:href="#DejaVuSans-6f" transform="translate(631.25 0.015625)"/>
      <use xlink:href="#DejaVuSans-74" transform="translate(692.431641 0.015625)"/>
      <use xlink:href="#DejaVuSans-65" transform="translate(731.640625 0.015625)"/>
      <use xlink:href="#DejaVuSans-6e" transform="translate(793.164062 0.015625)"/>
      <use xlink:href="#DejaVuSans-74" transform="translate(856.542969 0.015625)"/>
      <use xlink:href="#DejaVuSans-69" transform="translate(895.751953 0.015625)"/>
      <use xlink:href="#DejaVuSans-61" transform="translate(923.535156 0.015625)"/>
      <use xlink:href="#DejaVuSans-6c" transform="translate(984.814453 0.015625)"/>
      <use xlink:href="#DejaVuSans-20" transform="translate(1012.597656 0.015625)"/>
      <use xlink:href="#DejaVuSans-28" transform="translate(1044.384766 0.015625)"/>
      <use xlink:href="#DejaVuSans-Oblique-6d" transform="translate(1083.398438 0.015625)"/>
      <use xlink:href="#DejaVuSans-Oblique-56" transform="translate(1180.810547 0.015625)"/>
      <use xlink:href="#DejaVuSans-29" transform="translate(1249.21875 0.015625)"/>
     </g>
    </g>
   </g>
   <g id="line2d_15">
    <path d="M 49.004688 210.263376 
L 49.147536 20.199568 
L 49.21896 20.183869 
L 49.254672 20.228076 
L 49.468944 20.816912 
L 49.826064 22.469449 
L 50.218896 25.436023 
L 50.611728 30.266164 
L 51.00456 37.942655 
L 51.433104 50.954568 
L 51.933072 73.769494 
L 52.647312 118.523192 
L 54.004368 203.854392 
L 54.611472 228.457618 
L 55.182864 243.168852 
L 55.718544 251.628886 
L 56.218512 256.275764 
L 56.682768 258.732069 
L 57.147024 260.071384 
L 57.61128 260.751427 
L 58.111248 261.079979 
L 58.754064 261.20849 
L 60.003984 261.168001 
L 63.86088 261.006604 
L 66.860688 260.982518 
L 67.003535 19.587553 
L 67.110672 19.296 
L 67.146384 19.326911 
L 67.324944 19.845522 
L 67.717776 21.844554 
L 68.110608 25.077281 
L 68.50344 30.243228 
L 68.931984 39.272296 
L 69.360528 53.335696 
L 69.860496 77.468335 
L 70.681871 130.592927 
L 71.860368 203.830855 
L 72.467472 228.448514 
L 73.038864 243.164946 
L 73.574544 251.627051 
L 74.074511 256.274827 
L 74.538768 258.73155 
L 75.003024 260.071085 
L 75.46728 260.751248 
L 75.967248 261.079872 
L 76.610064 261.208431 
L 77.859983 261.167979 
L 81.71688 261.006602 
L 84.716688 260.982518 
L 84.859536 19.587555 
L 84.966672 19.296002 
L 85.002384 19.326913 
L 85.180944 19.845524 
L 85.573776 21.844555 
L 85.966608 25.077282 
L 86.35944 30.243228 
L 86.787984 39.272296 
L 87.216528 53.335696 
L 87.716496 77.468335 
L 88.537872 130.592927 
L 89.716368 203.830855 
L 90.323472 228.448514 
L 90.894864 243.164946 
L 91.430543 251.627051 
L 91.930512 256.274827 
L 92.394768 258.73155 
L 92.859024 260.071085 
L 93.32328 260.751248 
L 93.823248 261.079872 
L 94.466064 261.208431 
L 95.715984 261.167979 
L 99.572879 261.006602 
L 102.572688 260.982518 
L 102.715536 19.587555 
L 102.822672 19.296002 
L 102.858384 19.326913 
L 103.036944 19.845524 
L 103.429776 21.844555 
L 103.822608 25.077282 
L 104.21544 30.243228 
L 104.643984 39.272296 
L 105.072528 53.335696 
L 105.572496 77.468335 
L 106.393872 130.592927 
L 107.572368 203.830855 
L 108.179472 228.448514 
L 108.750864 243.164946 
L 109.286544 251.627051 
L 109.786512 256.274827 
L 110.250768 258.73155 
L 110.715024 260.071085 
L 111.17928 260.751248 
L 111.679248 261.079872 
L 112.322064 261.208431 
L 113.571984 261.167979 
L 117.42888 261.006602 
L 120.428688 260.982518 
L 120.571536 19.587555 
L 120.678672 19.296002 
L 120.714384 19.326913 
L 120.892944 19.845524 
L 121.285776 21.844555 
L 121.678608 25.077282 
L 122.07144 30.243228 
L 122.499984 39.272296 
L 122.928528 53.335696 
L 123.428496 77.468335 
L 124.249872 130.592927 
L 125.428368 203.830855 
L 126.035472 228.448514 
L 126.606864 243.164946 
L 127.142544 251.627051 
L 127.642512 256.274827 
L 128.106768 258.73155 
L 128.571024 260.071085 
L 129.03528 260.751248 
L 129.535248 261.079872 
L 130.178064 261.208431 
L 131.427984 261.167979 
L 135.28488 261.006602 
L 138.284688 260.982518 
L 138.427536 19.587555 
L 138.534672 19.296002 
L 138.570384 19.326913 
L 138.748944 19.845524 
L 139.141776 21.844555 
L 139.534608 25.077282 
L 139.92744 30.243228 
L 140.355984 39.272296 
L 140.784528 53.335696 
L 141.284495 77.468335 
L 142.105872 130.592927 
L 143.284368 203.830855 
L 143.891472 228.448514 
L 144.462864 243.164946 
L 144.998544 251.627051 
L 145.498512 256.274827 
L 145.962768 258.73155 
L 146.427024 260.071085 
L 146.89128 260.751248 
L 147.391248 261.079872 
L 148.034064 261.208431 
L 149.283984 261.167979 
L 153.14088 261.006602 
L 156.140688 260.982518 
L 156.283536 19.587555 
L 156.390671 19.296002 
L 156.426384 19.326913 
L 156.604944 19.845524 
L 156.997776 21.844555 
L 157.390608 25.077282 
L 157.78344 30.243228 
L 158.211984 39.272296 
L 158.640528 53.335696 
L 159.140496 77.468335 
L 159.961872 130.592927 
L 161.140368 203.830855 
L 161.747472 228.448514 
L 162.318864 243.164946 
L 162.854544 251.627051 
L 163.354512 256.274827 
L 163.818768 258.73155 
L 164.283024 260.071085 
L 164.74728 260.751248 
L 165.247248 261.079872 
L 165.890064 261.208431 
L 167.139984 261.167979 
L 170.99688 261.006602 
L 173.996688 260.982518 
L 174.139536 19.587555 
L 174.246672 19.296002 
L 174.282384 19.326913 
L 174.460944 19.845524 
L 174.853776 21.844555 
L 175.246608 25.077282 
L 175.63944 30.243228 
L 176.067984 39.272296 
L 176.496528 53.335696 
L 176.996496 77.468335 
L 177.817872 130.592927 
L 178.996368 203.830855 
L 179.603472 228.448514 
L 180.174864 243.164946 
L 180.710544 251.627051 
L 181.210511 256.274827 
L 181.674768 258.73155 
L 182.139024 260.071085 
L 182.60328 260.751248 
L 183.103248 261.079872 
L 183.746064 261.208431 
L 184.995984 261.167979 
L 188.85288 261.006602 
L 191.852688 260.982518 
L 191.995536 19.587555 
L 192.102672 19.296002 
L 192.138384 19.326913 
L 192.316944 19.845524 
L 192.709776 21.844555 
L 193.102608 25.077282 
L 193.49544 30.243228 
L 193.923984 39.272296 
L 194.352528 53.335696 
L 194.852496 77.468335 
L 195.673872 130.592927 
L 196.852368 203.830855 
L 197.459472 228.448514 
L 198.030864 243.164946 
L 198.566544 251.627051 
L 199.066512 256.274827 
L 199.530768 258.73155 
L 199.995024 260.071085 
L 200.45928 260.751248 
L 200.959248 261.079872 
L 201.602064 261.208431 
L 202.851984 261.167979 
L 206.70888 261.006602 
L 209.708687 260.982518 
L 209.851536 19.587555 
L 209.958672 19.296002 
L 209.994384 19.326913 
L 210.172944 19.845524 
L 210.565776 21.844555 
L 210.958608 25.077282 
L 211.35144 30.243228 
L 211.779984 39.272296 
L 212.208528 53.335696 
L 212.708496 77.468335 
L 213.529872 130.592927 
L 214.708368 203.830855 
L 215.315472 228.448514 
L 215.886864 243.164946 
L 216.422544 251.627051 
L 216.922512 256.274827 
L 217.386768 258.73155 
L 217.851024 260.071085 
L 218.31528 260.751248 
L 218.815247 261.079872 
L 219.458064 261.208431 
L 220.707984 261.167979 
L 224.56488 261.006602 
L 227.564688 260.982518 
L 227.707536 19.587555 
L 227.814672 19.296002 
L 227.850384 19.326913 
L 228.028944 19.845524 
L 228.421776 21.844555 
L 228.814608 25.077282 
L 229.20744 30.243228 
L 229.635984 39.272296 
L 230.064528 53.335696 
L 230.564496 77.468335 
L 231.385872 130.592927 
L 232.564368 203.830855 
L 233.171472 228.448514 
L 233.742863 243.164946 
L 234.278544 251.627051 
L 234.778512 256.274827 
L 235.242768 258.73155 
L 235.707023 260.071085 
L 236.17128 260.751248 
L 236.671248 261.079872 
L 237.314064 261.208431 
L 238.563984 261.167979 
L 242.42088 261.006602 
L 245.420688 260.982518 
L 245.563536 19.587555 
L 245.670672 19.296002 
L 245.706384 19.326913 
L 245.884944 19.845524 
L 246.277776 21.844555 
L 246.670608 25.077282 
L 247.06344 30.243228 
L 247.491984 39.272296 
L 247.920528 53.335696 
L 248.420496 77.468335 
L 249.241872 130.592927 
L 250.420368 203.830855 
L 251.027472 228.448514 
L 251.598864 243.164946 
L 252.134544 251.627051 
L 252.634512 256.274827 
L 253.098768 258.73155 
L 253.563024 260.071085 
L 254.02728 260.751248 
L 254.527248 261.079872 
L 255.170064 261.208431 
L 256.419984 261.167979 
L 260.27688 261.006602 
L 263.276688 260.982518 
L 263.419536 19.587555 
L 263.526672 19.296002 
L 263.562384 19.326913 
L 263.740944 19.845524 
L 264.133776 21.844555 
L 264.526608 25.077282 
L 264.91944 30.243228 
L 265.347984 39.272296 
L 265.776528 53.335696 
L 266.276496 77.468335 
L 267.097872 130.592927 
L 268.276368 203.830855 
L 268.883472 228.448514 
L 269.454864 243.164946 
L 269.990544 251.627051 
L 270.490512 256.274827 
L 270.954768 258.73155 
L 271.419024 260.071085 
L 271.88328 260.751248 
L 272.383248 261.079872 
L 273.026064 261.208431 
L 274.275984 261.167979 
L 278.13288 261.006602 
L 281.132688 260.982518 
L 281.275536 19.587555 
L 281.382672 19.296002 
L 281.418384 19.326913 
L 281.596944 19.845524 
L 281.989776 21.844555 
L 282.382608 25.077282 
L 282.77544 30.243228 
L 283.203984 39.272296 
L 283.632528 53.335696 
L 284.132496 77.468335 
L 284.953872 130.592927 
L 286.132368 203.830855 
L 286.739472 228.448514 
L 287.310864 243.164946 
L 287.846544 251.627051 
L 288.346512 256.274827 
L 288.810768 258.73155 
L 289.275024 260.071085 
L 289.73928 260.751248 
L 290.239248 261.079872 
L 290.882064 261.208431 
L 292.131984 261.167979 
L 295.98888 261.006602 
L 298.988688 260.982518 
L 299.131536 19.587555 
L 299.238672 19.296002 
L 299.274384 19.326913 
L 299.452944 19.845524 
L 299.845776 21.844555 
L 300.238608 25.077282 
L 300.63144 30.243228 
L 301.059984 39.272296 
L 301.488528 53.335696 
L 301.988496 77.468335 
L 302.809872 130.592927 
L 303.988368 203.830855 
L 304.595472 228.448514 
L 305.166864 243.164946 
L 305.702544 251.627051 
L 306.202512 256.274827 
L 306.666768 258.73155 
L 307.131024 260.071085 
L 307.59528 260.751248 
L 308.095248 261.079872 
L 308.738064 261.208431 
L 309.987984 261.167979 
L 313.84488 261.006602 
L 316.844688 260.982518 
L 316.987536 19.587555 
L 317.094672 19.296002 
L 317.130384 19.326913 
L 317.308944 19.845524 
L 317.701775 21.844555 
L 318.094608 25.077282 
L 318.48744 30.243228 
L 318.915984 39.272296 
L 319.344528 53.335696 
L 319.844495 77.468335 
L 320.665872 130.592927 
L 321.844368 203.830855 
L 322.451472 228.448514 
L 323.022864 243.164946 
L 323.558544 251.627051 
L 324.058512 256.274827 
L 324.522768 258.73155 
L 324.987024 260.071085 
L 325.45128 260.751248 
L 325.951248 261.079872 
L 326.594064 261.208431 
L 327.843984 261.167979 
L 331.70088 261.006602 
L 334.700688 260.982518 
L 334.843536 19.587555 
L 334.950672 19.296002 
L 334.986384 19.326913 
L 335.164944 19.845524 
L 335.557775 21.844555 
L 335.950608 25.077282 
L 336.34344 30.243228 
L 336.771984 39.272296 
L 337.200528 53.335696 
L 337.700496 77.468335 
L 338.521872 130.592927 
L 339.700368 203.830855 
L 340.307472 228.448514 
L 340.878864 243.164946 
L 341.414544 251.627051 
L 341.914512 256.274827 
L 342.378768 258.73155 
L 342.843024 260.071085 
L 343.30728 260.751248 
L 343.807248 261.079872 
L 344.450064 261.208431 
L 345.699984 261.167979 
L 349.55688 261.006602 
L 352.556688 260.982518 
L 352.699536 19.587555 
L 352.806672 19.296002 
L 352.842384 19.326913 
L 353.020944 19.845524 
L 353.413776 21.844555 
L 353.806608 25.077282 
L 354.19944 30.243228 
L 354.627984 39.272296 
L 355.056528 53.335696 
L 355.556496 77.468335 
L 356.377872 130.592927 
L 357.556368 203.830855 
L 358.163472 228.448514 
L 358.734864 243.164946 
L 359.270544 251.627051 
L 359.770512 256.274827 
L 360.234768 258.73155 
L 360.699024 260.071085 
L 361.16328 260.751248 
L 361.663248 261.079872 
L 362.306064 261.208431 
L 363.555984 261.167979 
L 367.41288 261.006602 
L 370.412688 260.982518 
L 370.555536 19.587555 
L 370.662672 19.296002 
L 370.698384 19.326913 
L 370.876944 19.845524 
L 371.269776 21.844555 
L 371.662608 25.077282 
L 372.05544 30.243228 
L 372.483984 39.272296 
L 372.912528 53.335696 
L 373.412496 77.468335 
L 374.233872 130.592927 
L 375.412368 203.830855 
L 376.019472 228.448514 
L 376.590864 243.164946 
L 377.126544 251.627051 
L 377.626512 256.274827 
L 378.090768 258.73155 
L 378.555024 260.071085 
L 379.01928 260.751248 
L 379.519248 261.079872 
L 380.162064 261.208431 
L 381.411984 261.167979 
L 385.26888 261.006602 
L 388.268688 260.982518 
L 388.411536 19.587555 
L 388.518672 19.296002 
L 388.554384 19.326913 
L 388.732944 19.845524 
L 389.125776 21.844555 
L 389.518608 25.077282 
L 389.91144 30.243228 
L 390.339984 39.272296 
L 390.768528 53.335696 
L 391.268496 77.468335 
L 392.089872 130.592927 
L 393.268368 203.830855 
L 393.875472 228.448514 
L 394.446864 243.164946 
L 394.982544 251.627051 
L 395.482512 256.274827 
L 395.946768 258.73155 
L 396.411024 260.071085 
L 396.87528 260.751248 
L 397.375248 261.079872 
L 398.018064 261.208431 
L 399.267984 261.167979 
L 403.12488 261.006602 
L 406.088976 260.982644 
L 406.088976 260.982644 
" clip-path="url(#p775c86f04d)" style="fill: none; stroke: #1f77b4; stroke-width: 1.5; stroke-linecap: square"/>
   </g>
   <g id="patch_3">
    <path d="M 49.004688 273.312 
L 49.004688 7.2 
" style="fill: none; stroke: #000000; stroke-width: 0.8; stroke-linejoin: miter; stroke-linecap: square"/>
   </g>
   <g id="patch_4">
    <path d="M 406.124688 273.312 
L 406.124688 7.2 
" style="fill: none; stroke: #000000; stroke-width: 0.8; stroke-linejoin: miter; stroke-linecap: square"/>
   </g>
   <g id="patch_5">
    <path d="M 49.004688 273.312 
L 406.124688 273.312 
" style="fill: none; stroke: #000000; stroke-width: 0.8; stroke-linejoin: miter; stroke-linecap: square"/>
   </g>
   <g id="patch_6">
    <path d="M 49.004688 7.2 
L 406.124688 7.2 
" style="fill: none; stroke: #000000; stroke-width: 0.8; stroke-linejoin: miter; stroke-linecap: square"/>
   </g>
   <g id="legend_1">
    <g id="patch_7">
     <path d="M 291.021563 149.095062 
L 399.124688 149.095062 
Q 401.124688 149.095062 401.124688 147.095062 
L 401.124688 133.416937 
Q 401.124688 131.416937 399.124688 131.416937 
L 291.021563 131.416937 
Q 289.021563 131.416937 289.021563 133.416937 
L 289.021563 147.095062 
Q 289.021563 149.095062 291.021563 149.095062 
z
" style="fill: #ffffff; opacity: 0.8; stroke: #cccccc; stroke-linejoin: miter"/>
    </g>
    <g id="line2d_16">
     <path d="M 293.021563 139.515375 
L 303.021563 139.515375 
L 313.021563 139.515375 
" style="fill: none; stroke: #1f77b4; stroke-width: 1.5; stroke-linecap: square"/>
    </g>
    <g id="text_17">
     <!-- (location 0 0.5) -->
     <g transform="translate(321.021563 143.015375) scale(0.1 -0.1)">
      <defs>
       <path id="DejaVuSans-63" d="M 3122 3366 
L 3122 2828 
Q 2878 2963 2633 3030 
Q 2388 3097 2138 3097 
Q 1578 3097 1268 2742 
Q 959 2388 959 1747 
Q 959 1106 1268 751 
Q 1578 397 2138 397 
Q 2388 397 2633 464 
Q 2878 531 3122 666 
L 3122 134 
Q 2881 22 2623 -34 
Q 2366 -91 2075 -91 
Q 1284 -91 818 406 
Q 353 903 353 1747 
Q 353 2603 823 3093 
Q 1294 3584 2113 3584 
Q 2378 3584 2631 3529 
Q 2884 3475 3122 3366 
z
" transform="scale(0.015625)"/>
       <path id="DejaVuSans-2e" d="M 684 794 
L 1344 794 
L 1344 0 
L 684 0 
L 684 794 
z
" transform="scale(0.015625)"/>
      </defs>
      <use xlink:href="#DejaVuSans-28"/>
      <use xlink:href="#DejaVuSans-6c" transform="translate(39.013672 0)"/>
      <use xlink:href="#DejaVuSans-6f" transform="translate(66.796875 0)"/>
      <use xlink:href="#DejaVuSans-63" transform="translate(127.978516 0)"/>
      <use xlink:href="#DejaVuSans-61" transform="translate(182.958984 0)"/>
      <use xlink:href="#DejaVuSans-74" transform="translate(244.238281 0)"/>
      <use xlink:href="#DejaVuSans-69" transform="translate(283.447266 0)"/>
      <use xlink:href="#DejaVuSans-6f" transform="translate(311.230469 0)"/>
      <use xlink:href="#DejaVuSans-6e" transform="translate(372.412109 0)"/>
      <use xlink:href="#DejaVuSans-20" transform="translate(435.791016 0)"/>
      <use xlink:href="#DejaVuSans-30" transform="translate(467.578125 0)"/>
      <use xlink:href="#DejaVuSans-20" transform="translate(531.201172 0)"/>
      <use xlink:href="#DejaVuSans-30" transform="translate(562.988281 0)"/>
      <use xlink:href="#DejaVuSans-2e" transform="translate(626.611328 0)"/>
      <use xlink:href="#DejaVuSans-35" transform="translate(658.398438 0)"/>
      <use xlink:href="#DejaVuSans-29" transform="translate(722.021484 0)"/>
     </g>
    </g>
   </g>
  </g>
 </g>
 <defs>
  <clipPath id="p775c86f04d">
   <rect x="49.004688" y="7.2" width="357.12" height="266.112"/>
  </clipPath>
 </defs>
</svg>
