<?xml version="1.0" encoding="UTF-8" standalone="no"?>
<!DOCTYPE svg PUBLIC "-//W3C//DTD SVG 1.0//EN" "http://www.w3.org/TR/2001/PR-SVG-20010719/DTD/svg10.dtd">
<svg width="31cm" height="15cm" viewBox="317 116 606 297" xmlns="http://www.w3.org/2000/svg" xmlns:xlink="http://www.w3.org/1999/xlink">
  <g id="Achtergrond">
    <g>
      <rect style="fill: #ffffff; fill-opacity: 1; stroke-opacity: 1; stroke-width: 0.2; stroke: #000000" x="419.401" y="118" width="104.599" height="278" rx="0" ry="0"/>
      <text font-size="12.8" style="fill: #000000; fill-opacity: 1; stroke: none;text-anchor:middle;font-family:sans-serif;font-style:normal;font-weight:normal" x="471.7" y="140.881">
        <tspan x="471.7" y="140.881">probeset</tspan>
        <tspan x="471.7" y="156.881"></tspan>
        <tspan x="471.7" y="172.881"></tspan>
        <tspan x="471.7" y="188.881"></tspan>
        <tspan x="471.7" y="204.881"></tspan>
        <tspan x="471.7" y="220.881"></tspan>
        <tspan x="471.7" y="236.881"></tspan>
        <tspan x="471.7" y="252.881"></tspan>
        <tspan x="471.7" y="268.881"></tspan>
        <tspan x="471.7" y="284.881"></tspan>
        <tspan x="471.7" y="300.881"></tspan>
        <tspan x="471.7" y="316.881"></tspan>
        <tspan x="471.7" y="332.881"></tspan>
        <tspan x="471.7" y="348.881"></tspan>
        <tspan x="471.7" y="364.881"></tspan>
        <tspan x="471.7" y="380.881"></tspan>
      </text>
    </g>
    <text font-size="12.8" style="fill: #000000; fill-opacity: 1; stroke: none;text-anchor:start;font-family:sans-serif;font-style:normal;font-weight:normal" x="395" y="369">
      <tspan x="395" y="369"></tspan>
    </text>
    <g>
      <rect style="fill: #ffffff; fill-opacity: 1; stroke-opacity: 1; stroke-width: 2; stroke: #000000" x="318.4" y="184" width="65.65" height="38" rx="0" ry="0"/>
      <text font-size="12.8" style="fill: #000000; fill-opacity: 1; stroke: none;text-anchor:middle;font-family:sans-serif;font-style:normal;font-weight:normal" x="351.225" y="206.881">
        <tspan x="351.225" y="206.881">handle</tspan>
      </text>
    </g>
    <g>
      <rect style="fill: #ffffff; fill-opacity: 1; stroke-opacity: 1; stroke-width: 2; stroke: #000000" x="435.926" y="184" width="71.25" height="38" rx="0" ry="0"/>
      <text font-size="12.8" style="fill: #000000; fill-opacity: 1; stroke: none;text-anchor:middle;font-family:sans-serif;font-style:normal;font-weight:normal" x="471.551" y="206.881">
        <tspan x="471.551" y="206.881">probe 1</tspan>
      </text>
    </g>
    <g>
      <rect style="fill: #ffffff; fill-opacity: 1; stroke-opacity: 1; stroke-width: 2; stroke: #000000" x="435.926" y="247" width="71.25" height="38" rx="0" ry="0"/>
      <text font-size="12.8" style="fill: #000000; fill-opacity: 1; stroke: none;text-anchor:middle;font-family:sans-serif;font-style:normal;font-weight:normal" x="471.551" y="269.881">
        <tspan x="471.551" y="269.881">probe 2</tspan>
      </text>
    </g>
    <g>
      <rect style="fill: #ffffff; fill-opacity: 1; stroke-opacity: 1; stroke-width: 2; stroke-dasharray: 20; stroke: #000000" x="435.926" y="311" width="75.25" height="38" rx="0" ry="0"/>
      <text font-size="12.8" style="fill: #000000; fill-opacity: 1; stroke: none;text-anchor:middle;font-family:sans-serif;font-style:normal;font-weight:normal" x="473.551" y="333.881">
        <tspan x="473.551" y="333.881">probe ...</tspan>
      </text>
    </g>
    <g>
      <line style="fill: none; stroke-opacity: 1; stroke-width: 2; stroke: #000000" x1="384.05" y1="203" x2="426.19" y2="203"/>
      <polygon style="fill: #000000; fill-opacity: 1; stroke-opacity: 1; stroke-width: 2; stroke: #000000" fill-rule="evenodd" points="433.69,203 423.69,208 426.19,203 423.69,198 "/>
    </g>
    <g>
      <line style="fill: none; stroke-opacity: 1; stroke-width: 2; stroke: #000000" x1="384.05" y1="203" x2="430.329" y2="267.586"/>
      <polygon style="fill: #000000; fill-opacity: 1; stroke-opacity: 1; stroke-width: 2; stroke: #000000" fill-rule="evenodd" points="434.698,273.682 424.809,268.466 430.329,267.586 432.937,262.641 "/>
    </g>
    <g>
      <line style="fill: none; stroke-opacity: 1; stroke-width: 2; stroke: #000000" x1="384.05" y1="203" x2="432.537" y2="330.401"/>
      <polygon style="fill: #000000; fill-opacity: 1; stroke-opacity: 1; stroke-width: 2; stroke: #000000" fill-rule="evenodd" points="435.205,337.41 426.975,329.843 432.537,330.401 436.321,326.286 "/>
    </g>
    <g>
      <rect style="fill: #ffffff; fill-opacity: 1; stroke-opacity: 1; stroke-width: 2; stroke: #000000" x="547.924" y="184" width="86.15" height="38" rx="0" ry="0"/>
      <text font-size="12.8" style="fill: #000000; fill-opacity: 1; stroke: none;text-anchor:middle;font-family:sans-serif;font-style:normal;font-weight:normal" x="590.999" y="206.881">
        <tspan x="590.999" y="206.881">meta (str)</tspan>
      </text>
    </g>
    <g>
      <rect style="fill: #ffffff; fill-opacity: 1; stroke-opacity: 1; stroke-width: 2; stroke: #000000" x="547.924" y="247" width="114.75" height="38" rx="0" ry="0"/>
      <text font-size="12.8" style="fill: #000000; fill-opacity: 1; stroke: none;text-anchor:middle;font-family:sans-serif;font-style:normal;font-weight:normal" x="605.299" y="269.881">
        <tspan x="605.299" y="269.881">data (ndarray)</tspan>
      </text>
    </g>
    <g>
      <line style="fill: none; stroke-opacity: 1; stroke-width: 2; stroke: #000000" x1="507.176" y1="203" x2="538.188" y2="203"/>
      <polygon style="fill: #000000; fill-opacity: 1; stroke-opacity: 1; stroke-width: 2; stroke: #000000" fill-rule="evenodd" points="545.688,203 535.688,208 538.188,203 535.688,198 "/>
    </g>
    <g>
      <line style="fill: none; stroke-opacity: 1; stroke-width: 2; stroke: #000000" x1="507.176" y1="203" x2="542.636" y2="257.825"/>
      <polygon style="fill: #000000; fill-opacity: 1; stroke-opacity: 1; stroke-width: 2; stroke: #000000" fill-rule="evenodd" points="546.71,264.122 537.08,258.441 542.636,257.825 545.477,253.01 "/>
    </g>
    <g>
      <rect style="fill: #ffffff; fill-opacity: 1; stroke-opacity: 1; stroke-width: 2; stroke: #000000" x="700.924" y="247" width="120.5" height="38" rx="0" ry="0"/>
      <text font-size="12.8" style="fill: #000000; fill-opacity: 1; stroke: none;text-anchor:middle;font-family:sans-serif;font-style:normal;font-weight:normal" x="761.174" y="269.881">
        <tspan x="761.174" y="269.881">[0]: time, value</tspan>
      </text>
    </g>
    <g>
      <rect style="fill: #ffffff; fill-opacity: 1; stroke-opacity: 1; stroke-width: 2; stroke: #000000" x="700.924" y="311" width="120.5" height="38" rx="0" ry="0"/>
      <text font-size="12.8" style="fill: #000000; fill-opacity: 1; stroke: none;text-anchor:middle;font-family:sans-serif;font-style:normal;font-weight:normal" x="761.174" y="333.881">
        <tspan x="761.174" y="333.881">[1]: time, value</tspan>
      </text>
    </g>
    <g>
      <rect style="fill: #ffffff; fill-opacity: 1; stroke-opacity: 1; stroke-width: 2; stroke-dasharray: 20; stroke: #000000" x="700.926" y="374.4" width="124.5" height="38" rx="0" ry="0"/>
      <text font-size="12.8" style="fill: #000000; fill-opacity: 1; stroke: none;text-anchor:middle;font-family:sans-serif;font-style:normal;font-weight:normal" x="763.176" y="397.281">
        <tspan x="763.176" y="397.281">[...]: time, value</tspan>
      </text>
    </g>
    <text font-size="12.8" style="fill: #000000; fill-opacity: 1; stroke: none;text-anchor:start;font-family:sans-serif;font-style:normal;font-weight:normal" x="761.174" y="330">
      <tspan x="761.174" y="330"></tspan>
    </text>
    <g>
      <line style="fill: none; stroke-opacity: 1; stroke-width: 2; stroke: #000000" x1="662.674" y1="266" x2="691.264" y2="266"/>
      <polygon style="fill: #000000; fill-opacity: 1; stroke-opacity: 1; stroke-width: 2; stroke: #000000" fill-rule="evenodd" points="698.764,266 688.764,271 691.264,266 688.764,261 "/>
    </g>
    <g>
      <line style="fill: none; stroke-opacity: 1; stroke-width: 2; stroke: #000000" x1="662.674" y1="266" x2="696.498" y2="330.867"/>
      <polygon style="fill: #000000; fill-opacity: 1; stroke-opacity: 1; stroke-width: 2; stroke: #000000" fill-rule="evenodd" points="699.966,337.517 690.909,330.962 696.498,330.867 699.776,326.339 "/>
    </g>
    <g>
      <line style="fill: none; stroke-opacity: 1; stroke-width: 2; stroke: #000000" x1="662.674" y1="266" x2="698.195" y2="384.077"/>
      <polygon style="fill: #000000; fill-opacity: 1; stroke-opacity: 1; stroke-width: 2; stroke: #000000" fill-rule="evenodd" points="700.356,391.259 692.687,383.123 698.195,384.077 702.263,380.242 "/>
    </g>
    <g>
      <rect style="fill: #ffffff; fill-opacity: 1; stroke-opacity: 1; stroke-width: 2; stroke: #000000" x="700.824" y="184" width="220.9" height="38" rx="0" ry="0"/>
      <text font-size="12.8" style="fill: #000000; fill-opacity: 1; stroke: none;text-anchor:middle;font-family:sans-serif;font-style:normal;font-weight:normal" x="811.274" y="206.881">
        <tspan x="811.274" y="206.881">location expression for probe 1</tspan>
      </text>
    </g>
    <text font-size="12.8" style="fill: #000000; fill-opacity: 1; stroke: none;text-anchor:start;font-family:sans-serif;font-style:normal;font-weight:normal" x="811.274" y="203">
      <tspan x="811.274" y="203"></tspan>
    </text>
    <g>
      <line style="fill: none; stroke-opacity: 1; stroke-width: 2; stroke: #000000" x1="634.074" y1="203" x2="691.088" y2="203"/>
      <polygon style="fill: #000000; fill-opacity: 1; stroke-opacity: 1; stroke-width: 2; stroke: #000000" fill-rule="evenodd" points="698.588,203 688.588,208 691.088,203 688.588,198 "/>
    </g>
    <text font-size="12.8" style="fill: #000000; fill-opacity: 1; stroke: none;text-anchor:start;font-family:sans-serif;font-style:normal;font-weight:normal" x="811.274" y="203">
      <tspan x="811.274" y="203"></tspan>
    </text>
    <text font-size="12.8" style="fill: #000000; fill-opacity: 1; stroke: none;text-anchor:start;font-family:sans-serif;font-style:normal;font-weight:normal" x="473.55" y="330">
      <tspan x="473.55" y="330"></tspan>
    </text>
    <text font-size="12.8" style="fill: #000000; fill-opacity: 1; stroke: none;text-anchor:start;font-family:sans-serif;font-style:normal;font-weight:normal" x="763.174" y="393.4">
      <tspan x="763.174" y="393.4"></tspan>
    </text>
    <text font-size="12.8" style="fill: #000000; fill-opacity: 1; stroke: none;text-anchor:start;font-family:sans-serif;font-style:normal;font-weight:normal" x="473.55" y="330">
      <tspan x="473.55" y="330"></tspan>
    </text>
    <text font-size="12.8" style="fill: #000000; fill-opacity: 1; stroke: none;text-anchor:start;font-family:sans-serif;font-style:normal;font-weight:normal" x="763.174" y="393.4">
      <tspan x="763.174" y="393.4"></tspan>
    </text>
    <text font-size="12.8" style="fill: #000000; fill-opacity: 1; stroke: none;text-anchor:start;font-family:sans-serif;font-style:normal;font-weight:normal" x="811.274" y="203">
      <tspan x="811.274" y="203"></tspan>
    </text>
    <text font-size="12.7998" style="fill: #000000; fill-opacity: 1; stroke: none;text-anchor:start;font-family:sans-serif;font-style:normal;font-weight:normal" x="351.225" y="203">
      <tspan x="351.225" y="203"></tspan>
    </text>
    <text font-size="12.7998" style="fill: #000000; fill-opacity: 1; stroke: none;text-anchor:start;font-family:sans-serif;font-style:normal;font-weight:normal" x="471.7" y="257">
      <tspan x="471.7" y="257"></tspan>
    </text>
    <g>
      <line style="fill: none; stroke-opacity: 1; stroke-width: 2; stroke-dasharray: 4; stroke: #000000" x1="419.401" y1="118" x2="388.647" y2="175.418"/>
      <polygon style="fill: #000000; fill-opacity: 1; stroke-opacity: 1; stroke-width: 2; stroke: #000000" fill-rule="evenodd" points="385.106,182.029 385.42,170.853 388.647,175.418 394.235,175.575 "/>
    </g>
  </g>
</svg>
