<?xml version="1.0" encoding="utf-8" standalone="no"?>
<!DOCTYPE svg PUBLIC "-//W3C//DTD SVG 1.1//EN"
  "http://www.w3.org/Graphics/SVG/1.1/DTD/svg11.dtd">
<!-- Created with matplotlib (https://matplotlib.org/) -->
<svg height="765.984375pt" version="1.1" viewBox="0 0 433.874412 765.984375" width="433.874412pt" xmlns="http://www.w3.org/2000/svg" xmlns:xlink="http://www.w3.org/1999/xlink">
 <metadata>
  <rdf:RDF xmlns:cc="http://creativecommons.org/ns#" xmlns:dc="http://purl.org/dc/elements/1.1/" xmlns:rdf="http://www.w3.org/1999/02/22-rdf-syntax-ns#">
   <cc:Work>
    <dc:type rdf:resource="http://purl.org/dc/dcmitype/StillImage"/>
    <dc:date>2021-02-18T11:04:04.847404</dc:date>
    <dc:format>image/svg+xml</dc:format>
    <dc:creator>
     <cc:Agent>
      <dc:title>Matplotlib v3.3.2, https://matplotlib.org/</dc:title>
     </cc:Agent>
    </dc:creator>
   </cc:Work>
  </rdf:RDF>
 </metadata>
 <defs>
  <style type="text/css">*{stroke-linecap:butt;stroke-linejoin:round;}</style>
 </defs>
 <g id="figure_1">
  <g id="patch_1">
   <path d="M 0 765.984375 
L 433.874412 765.984375 
L 433.874412 0 
L 0 0 
z
" style="fill:#ffffff;"/>
  </g>
  <g id="axes_1">
   <g id="patch_2">
    <path d="M 48.982813 535.112188 
L 358.263213 535.112188 
L 358.263213 213.792188 
L 48.982813 213.792188 
z
" style="fill:#ffffff;"/>
   </g>
   <g id="matplotlib.axis_1">
    <g id="xtick_1">
     <g id="line2d_1">
      <defs>
       <path d="M 0 0 
L 0 3.5 
" id="m7fab6e08c4" style="stroke:#000000;stroke-width:0.8;"/>
      </defs>
      <g>
       <use style="stroke:#000000;stroke-width:0.8;" x="63.041013" xlink:href="#m7fab6e08c4" y="535.112188"/>
      </g>
     </g>
     <g id="text_1">
      <!-- 0 -->
      <g transform="translate(59.859763 549.710625)scale(0.1 -0.1)">
       <defs>
        <path d="M 31.78125 66.40625 
Q 24.171875 66.40625 20.328125 58.90625 
Q 16.5 51.421875 16.5 36.375 
Q 16.5 21.390625 20.328125 13.890625 
Q 24.171875 6.390625 31.78125 6.390625 
Q 39.453125 6.390625 43.28125 13.890625 
Q 47.125 21.390625 47.125 36.375 
Q 47.125 51.421875 43.28125 58.90625 
Q 39.453125 66.40625 31.78125 66.40625 
z
M 31.78125 74.21875 
Q 44.046875 74.21875 50.515625 64.515625 
Q 56.984375 54.828125 56.984375 36.375 
Q 56.984375 17.96875 50.515625 8.265625 
Q 44.046875 -1.421875 31.78125 -1.421875 
Q 19.53125 -1.421875 13.0625 8.265625 
Q 6.59375 17.96875 6.59375 36.375 
Q 6.59375 54.828125 13.0625 64.515625 
Q 19.53125 74.21875 31.78125 74.21875 
z
" id="DejaVuSans-48"/>
       </defs>
       <use xlink:href="#DejaVuSans-48"/>
      </g>
     </g>
    </g>
    <g id="xtick_2">
     <g id="line2d_2">
      <g>
       <use style="stroke:#000000;stroke-width:0.8;" x="119.505316" xlink:href="#m7fab6e08c4" y="535.112188"/>
      </g>
     </g>
     <g id="text_2">
      <!-- 50 -->
      <g transform="translate(113.142816 549.710625)scale(0.1 -0.1)">
       <defs>
        <path d="M 10.796875 72.90625 
L 49.515625 72.90625 
L 49.515625 64.59375 
L 19.828125 64.59375 
L 19.828125 46.734375 
Q 21.96875 47.46875 24.109375 47.828125 
Q 26.265625 48.1875 28.421875 48.1875 
Q 40.625 48.1875 47.75 41.5 
Q 54.890625 34.8125 54.890625 23.390625 
Q 54.890625 11.625 47.5625 5.09375 
Q 40.234375 -1.421875 26.90625 -1.421875 
Q 22.3125 -1.421875 17.546875 -0.640625 
Q 12.796875 0.140625 7.71875 1.703125 
L 7.71875 11.625 
Q 12.109375 9.234375 16.796875 8.0625 
Q 21.484375 6.890625 26.703125 6.890625 
Q 35.15625 6.890625 40.078125 11.328125 
Q 45.015625 15.765625 45.015625 23.390625 
Q 45.015625 31 40.078125 35.4375 
Q 35.15625 39.890625 26.703125 39.890625 
Q 22.75 39.890625 18.8125 39.015625 
Q 14.890625 38.140625 10.796875 36.28125 
z
" id="DejaVuSans-53"/>
       </defs>
       <use xlink:href="#DejaVuSans-53"/>
       <use x="63.623047" xlink:href="#DejaVuSans-48"/>
      </g>
     </g>
    </g>
    <g id="xtick_3">
     <g id="line2d_3">
      <g>
       <use style="stroke:#000000;stroke-width:0.8;" x="175.96962" xlink:href="#m7fab6e08c4" y="535.112188"/>
      </g>
     </g>
     <g id="text_3">
      <!-- 100 -->
      <g transform="translate(166.42587 549.710625)scale(0.1 -0.1)">
       <defs>
        <path d="M 12.40625 8.296875 
L 28.515625 8.296875 
L 28.515625 63.921875 
L 10.984375 60.40625 
L 10.984375 69.390625 
L 28.421875 72.90625 
L 38.28125 72.90625 
L 38.28125 8.296875 
L 54.390625 8.296875 
L 54.390625 0 
L 12.40625 0 
z
" id="DejaVuSans-49"/>
       </defs>
       <use xlink:href="#DejaVuSans-49"/>
       <use x="63.623047" xlink:href="#DejaVuSans-48"/>
       <use x="127.246094" xlink:href="#DejaVuSans-48"/>
      </g>
     </g>
    </g>
    <g id="xtick_4">
     <g id="line2d_4">
      <g>
       <use style="stroke:#000000;stroke-width:0.8;" x="232.433923" xlink:href="#m7fab6e08c4" y="535.112188"/>
      </g>
     </g>
     <g id="text_4">
      <!-- 150 -->
      <g transform="translate(222.890173 549.710625)scale(0.1 -0.1)">
       <use xlink:href="#DejaVuSans-49"/>
       <use x="63.623047" xlink:href="#DejaVuSans-53"/>
       <use x="127.246094" xlink:href="#DejaVuSans-48"/>
      </g>
     </g>
    </g>
    <g id="xtick_5">
     <g id="line2d_5">
      <g>
       <use style="stroke:#000000;stroke-width:0.8;" x="288.898227" xlink:href="#m7fab6e08c4" y="535.112188"/>
      </g>
     </g>
     <g id="text_5">
      <!-- 200 -->
      <g transform="translate(279.354477 549.710625)scale(0.1 -0.1)">
       <defs>
        <path d="M 19.1875 8.296875 
L 53.609375 8.296875 
L 53.609375 0 
L 7.328125 0 
L 7.328125 8.296875 
Q 12.9375 14.109375 22.625 23.890625 
Q 32.328125 33.6875 34.8125 36.53125 
Q 39.546875 41.84375 41.421875 45.53125 
Q 43.3125 49.21875 43.3125 52.78125 
Q 43.3125 58.59375 39.234375 62.25 
Q 35.15625 65.921875 28.609375 65.921875 
Q 23.96875 65.921875 18.8125 64.3125 
Q 13.671875 62.703125 7.8125 59.421875 
L 7.8125 69.390625 
Q 13.765625 71.78125 18.9375 73 
Q 24.125 74.21875 28.421875 74.21875 
Q 39.75 74.21875 46.484375 68.546875 
Q 53.21875 62.890625 53.21875 53.421875 
Q 53.21875 48.921875 51.53125 44.890625 
Q 49.859375 40.875 45.40625 35.40625 
Q 44.1875 33.984375 37.640625 27.21875 
Q 31.109375 20.453125 19.1875 8.296875 
z
" id="DejaVuSans-50"/>
       </defs>
       <use xlink:href="#DejaVuSans-50"/>
       <use x="63.623047" xlink:href="#DejaVuSans-48"/>
       <use x="127.246094" xlink:href="#DejaVuSans-48"/>
      </g>
     </g>
    </g>
    <g id="xtick_6">
     <g id="line2d_6">
      <g>
       <use style="stroke:#000000;stroke-width:0.8;" x="345.362531" xlink:href="#m7fab6e08c4" y="535.112188"/>
      </g>
     </g>
     <g id="text_6">
      <!-- 250 -->
      <g transform="translate(335.818781 549.710625)scale(0.1 -0.1)">
       <use xlink:href="#DejaVuSans-50"/>
       <use x="63.623047" xlink:href="#DejaVuSans-53"/>
       <use x="127.246094" xlink:href="#DejaVuSans-48"/>
      </g>
     </g>
    </g>
    <g id="text_7">
     <!-- t/ms -->
     <g transform="translate(192.503481 563.38875)scale(0.1 -0.1)">
      <defs>
       <path d="M 18.3125 70.21875 
L 18.3125 54.6875 
L 36.8125 54.6875 
L 36.8125 47.703125 
L 18.3125 47.703125 
L 18.3125 18.015625 
Q 18.3125 11.328125 20.140625 9.421875 
Q 21.96875 7.515625 27.59375 7.515625 
L 36.8125 7.515625 
L 36.8125 0 
L 27.59375 0 
Q 17.1875 0 13.234375 3.875 
Q 9.28125 7.765625 9.28125 18.015625 
L 9.28125 47.703125 
L 2.6875 47.703125 
L 2.6875 54.6875 
L 9.28125 54.6875 
L 9.28125 70.21875 
z
" id="DejaVuSans-116"/>
       <path d="M 25.390625 72.90625 
L 33.6875 72.90625 
L 8.296875 -9.28125 
L 0 -9.28125 
z
" id="DejaVuSans-47"/>
       <path d="M 52 44.1875 
Q 55.375 50.25 60.0625 53.125 
Q 64.75 56 71.09375 56 
Q 79.640625 56 84.28125 50.015625 
Q 88.921875 44.046875 88.921875 33.015625 
L 88.921875 0 
L 79.890625 0 
L 79.890625 32.71875 
Q 79.890625 40.578125 77.09375 44.375 
Q 74.3125 48.1875 68.609375 48.1875 
Q 61.625 48.1875 57.5625 43.546875 
Q 53.515625 38.921875 53.515625 30.90625 
L 53.515625 0 
L 44.484375 0 
L 44.484375 32.71875 
Q 44.484375 40.625 41.703125 44.40625 
Q 38.921875 48.1875 33.109375 48.1875 
Q 26.21875 48.1875 22.15625 43.53125 
Q 18.109375 38.875 18.109375 30.90625 
L 18.109375 0 
L 9.078125 0 
L 9.078125 54.6875 
L 18.109375 54.6875 
L 18.109375 46.1875 
Q 21.1875 51.21875 25.484375 53.609375 
Q 29.78125 56 35.6875 56 
Q 41.65625 56 45.828125 52.96875 
Q 50 49.953125 52 44.1875 
z
" id="DejaVuSans-109"/>
       <path d="M 44.28125 53.078125 
L 44.28125 44.578125 
Q 40.484375 46.53125 36.375 47.5 
Q 32.28125 48.484375 27.875 48.484375 
Q 21.1875 48.484375 17.84375 46.4375 
Q 14.5 44.390625 14.5 40.28125 
Q 14.5 37.15625 16.890625 35.375 
Q 19.28125 33.59375 26.515625 31.984375 
L 29.59375 31.296875 
Q 39.15625 29.25 43.1875 25.515625 
Q 47.21875 21.78125 47.21875 15.09375 
Q 47.21875 7.46875 41.1875 3.015625 
Q 35.15625 -1.421875 24.609375 -1.421875 
Q 20.21875 -1.421875 15.453125 -0.5625 
Q 10.6875 0.296875 5.421875 2 
L 5.421875 11.28125 
Q 10.40625 8.6875 15.234375 7.390625 
Q 20.0625 6.109375 24.8125 6.109375 
Q 31.15625 6.109375 34.5625 8.28125 
Q 37.984375 10.453125 37.984375 14.40625 
Q 37.984375 18.0625 35.515625 20.015625 
Q 33.0625 21.96875 24.703125 23.78125 
L 21.578125 24.515625 
Q 13.234375 26.265625 9.515625 29.90625 
Q 5.8125 33.546875 5.8125 39.890625 
Q 5.8125 47.609375 11.28125 51.796875 
Q 16.75 56 26.8125 56 
Q 31.78125 56 36.171875 55.265625 
Q 40.578125 54.546875 44.28125 53.078125 
z
" id="DejaVuSans-115"/>
      </defs>
      <use xlink:href="#DejaVuSans-116"/>
      <use x="39.208984" xlink:href="#DejaVuSans-47"/>
      <use x="72.900391" xlink:href="#DejaVuSans-109"/>
      <use x="170.3125" xlink:href="#DejaVuSans-115"/>
     </g>
    </g>
   </g>
   <g id="matplotlib.axis_2">
    <g id="ytick_1">
     <g id="line2d_7">
      <defs>
       <path d="M 0 0 
L -3.5 0 
" id="m81b2cb8ec5" style="stroke:#000000;stroke-width:0.8;"/>
      </defs>
      <g>
       <use style="stroke:#000000;stroke-width:0.8;" x="48.982813" xlink:href="#m81b2cb8ec5" y="482.481401"/>
      </g>
     </g>
     <g id="text_8">
      <!-- −60 -->
      <g transform="translate(20.878125 486.28062)scale(0.1 -0.1)">
       <defs>
        <path d="M 10.59375 35.5 
L 73.1875 35.5 
L 73.1875 27.203125 
L 10.59375 27.203125 
z
" id="DejaVuSans-8722"/>
        <path d="M 33.015625 40.375 
Q 26.375 40.375 22.484375 35.828125 
Q 18.609375 31.296875 18.609375 23.390625 
Q 18.609375 15.53125 22.484375 10.953125 
Q 26.375 6.390625 33.015625 6.390625 
Q 39.65625 6.390625 43.53125 10.953125 
Q 47.40625 15.53125 47.40625 23.390625 
Q 47.40625 31.296875 43.53125 35.828125 
Q 39.65625 40.375 33.015625 40.375 
z
M 52.59375 71.296875 
L 52.59375 62.3125 
Q 48.875 64.0625 45.09375 64.984375 
Q 41.3125 65.921875 37.59375 65.921875 
Q 27.828125 65.921875 22.671875 59.328125 
Q 17.53125 52.734375 16.796875 39.40625 
Q 19.671875 43.65625 24.015625 45.921875 
Q 28.375 48.1875 33.59375 48.1875 
Q 44.578125 48.1875 50.953125 41.515625 
Q 57.328125 34.859375 57.328125 23.390625 
Q 57.328125 12.15625 50.6875 5.359375 
Q 44.046875 -1.421875 33.015625 -1.421875 
Q 20.359375 -1.421875 13.671875 8.265625 
Q 6.984375 17.96875 6.984375 36.375 
Q 6.984375 53.65625 15.1875 63.9375 
Q 23.390625 74.21875 37.203125 74.21875 
Q 40.921875 74.21875 44.703125 73.484375 
Q 48.484375 72.75 52.59375 71.296875 
z
" id="DejaVuSans-54"/>
       </defs>
       <use xlink:href="#DejaVuSans-8722"/>
       <use x="83.789062" xlink:href="#DejaVuSans-54"/>
       <use x="147.412109" xlink:href="#DejaVuSans-48"/>
      </g>
     </g>
    </g>
    <g id="ytick_2">
     <g id="line2d_8">
      <g>
       <use style="stroke:#000000;stroke-width:0.8;" x="48.982813" xlink:href="#m81b2cb8ec5" y="423.906997"/>
      </g>
     </g>
     <g id="text_9">
      <!-- −40 -->
      <g transform="translate(20.878125 427.706215)scale(0.1 -0.1)">
       <defs>
        <path d="M 37.796875 64.3125 
L 12.890625 25.390625 
L 37.796875 25.390625 
z
M 35.203125 72.90625 
L 47.609375 72.90625 
L 47.609375 25.390625 
L 58.015625 25.390625 
L 58.015625 17.1875 
L 47.609375 17.1875 
L 47.609375 0 
L 37.796875 0 
L 37.796875 17.1875 
L 4.890625 17.1875 
L 4.890625 26.703125 
z
" id="DejaVuSans-52"/>
       </defs>
       <use xlink:href="#DejaVuSans-8722"/>
       <use x="83.789062" xlink:href="#DejaVuSans-52"/>
       <use x="147.412109" xlink:href="#DejaVuSans-48"/>
      </g>
     </g>
    </g>
    <g id="ytick_3">
     <g id="line2d_9">
      <g>
       <use style="stroke:#000000;stroke-width:0.8;" x="48.982813" xlink:href="#m81b2cb8ec5" y="365.332592"/>
      </g>
     </g>
     <g id="text_10">
      <!-- −20 -->
      <g transform="translate(20.878125 369.131811)scale(0.1 -0.1)">
       <use xlink:href="#DejaVuSans-8722"/>
       <use x="83.789062" xlink:href="#DejaVuSans-50"/>
       <use x="147.412109" xlink:href="#DejaVuSans-48"/>
      </g>
     </g>
    </g>
    <g id="ytick_4">
     <g id="line2d_10">
      <g>
       <use style="stroke:#000000;stroke-width:0.8;" x="48.982813" xlink:href="#m81b2cb8ec5" y="306.758188"/>
      </g>
     </g>
     <g id="text_11">
      <!-- 0 -->
      <g transform="translate(35.620312 310.557406)scale(0.1 -0.1)">
       <use xlink:href="#DejaVuSans-48"/>
      </g>
     </g>
    </g>
    <g id="ytick_5">
     <g id="line2d_11">
      <g>
       <use style="stroke:#000000;stroke-width:0.8;" x="48.982813" xlink:href="#m81b2cb8ec5" y="248.183783"/>
      </g>
     </g>
     <g id="text_12">
      <!-- 20 -->
      <g transform="translate(29.257812 251.983002)scale(0.1 -0.1)">
       <use xlink:href="#DejaVuSans-50"/>
       <use x="63.623047" xlink:href="#DejaVuSans-48"/>
      </g>
     </g>
    </g>
    <g id="text_13">
     <!-- U/mV -->
     <g transform="translate(14.798438 388.086563)rotate(-90)scale(0.1 -0.1)">
      <defs>
       <path d="M 8.6875 72.90625 
L 18.609375 72.90625 
L 18.609375 28.609375 
Q 18.609375 16.890625 22.84375 11.734375 
Q 27.09375 6.59375 36.625 6.59375 
Q 46.09375 6.59375 50.34375 11.734375 
Q 54.59375 16.890625 54.59375 28.609375 
L 54.59375 72.90625 
L 64.5 72.90625 
L 64.5 27.390625 
Q 64.5 13.140625 57.4375 5.859375 
Q 50.390625 -1.421875 36.625 -1.421875 
Q 22.796875 -1.421875 15.734375 5.859375 
Q 8.6875 13.140625 8.6875 27.390625 
z
" id="DejaVuSans-85"/>
       <path d="M 28.609375 0 
L 0.78125 72.90625 
L 11.078125 72.90625 
L 34.1875 11.53125 
L 57.328125 72.90625 
L 67.578125 72.90625 
L 39.796875 0 
z
" id="DejaVuSans-86"/>
      </defs>
      <use xlink:href="#DejaVuSans-85"/>
      <use x="73.193359" xlink:href="#DejaVuSans-47"/>
      <use x="106.884766" xlink:href="#DejaVuSans-109"/>
      <use x="204.296875" xlink:href="#DejaVuSans-86"/>
     </g>
    </g>
   </g>
   <g id="line2d_12">
    <path clip-path="url(#p5214499835)" d="M 63.041013 497.125002 
L 64.170299 504.339319 
L 65.299585 241.422247 
L 67.558157 422.875501 
L 68.687443 475.800697 
L 69.788497 489.08918 
L 70.917783 494.598688 
L 72.047069 498.912107 
L 73.176355 502.39787 
L 74.333873 505.126266 
L 75.434927 506.991861 
L 76.564213 508.279033 
L 77.693499 509.068323 
L 78.822785 509.492402 
L 79.980304 509.669882 
L 82.238876 509.608672 
L 91.273164 508.715998 
L 96.919595 508.504545 
L 107.083169 508.396768 
L 144.321378 508.372459 
L 344.205013 508.372166 
L 344.205013 508.372166 
" style="fill:none;stroke:#f77189;stroke-linecap:square;stroke-width:1.5;"/>
   </g>
   <g id="line2d_13">
    <path clip-path="url(#p5214499835)" d="M 63.041013 497.125002 
L 64.142066 504.223634 
L 65.299585 507.357365 
L 66.428871 508.518017 
L 67.558157 508.902265 
L 68.687443 508.976947 
L 69.788497 508.937995 
L 70.941001 471.963195 
L 72.047069 442.502906 
L 73.176355 271.09809 
L 74.333873 321.235935 
L 75.434927 438.729835 
L 76.564213 515.020361 
L 77.693499 520.345946 
L 78.822785 519.045887 
L 81.081358 515.591462 
L 82.238876 514.109822 
L 83.368162 512.916076 
L 84.497448 511.95487 
L 85.626734 511.194281 
L 86.75602 510.597994 
L 89.014592 509.769752 
L 91.273164 509.263962 
L 94.661023 508.839883 
L 99.178167 508.578348 
L 107.083169 508.425176 
L 126.281033 508.374802 
L 344.205013 508.372166 
L 344.205013 508.372166 
" style="fill:none;stroke:#f77277;stroke-linecap:square;stroke-width:1.5;"/>
   </g>
   <g id="line2d_14">
    <path clip-path="url(#p5214499835)" d="M 63.041013 497.125002 
L 64.142066 504.223634 
L 65.299585 507.357365 
L 66.428871 508.518017 
L 67.558157 508.902265 
L 68.687443 508.976947 
L 73.176355 508.713069 
L 77.693499 508.526217 
L 78.826964 491.20723 
L 79.980304 450.891053 
L 81.081358 339.59002 
L 82.238876 285.373024 
L 83.368162 411.584699 
L 84.497448 508.330579 
L 85.626734 520.387534 
L 86.75602 519.493689 
L 89.014592 516.010855 
L 90.143878 514.500806 
L 91.273164 513.237649 
L 92.40245 512.213183 
L 93.531736 511.398706 
L 94.661023 510.758488 
L 96.919595 509.868157 
L 99.178167 509.324293 
L 102.566025 508.870049 
L 107.083169 508.590942 
L 113.858886 508.43982 
L 129.668891 508.377438 
L 278.70642 508.372166 
L 344.205013 508.372166 
L 344.205013 508.372166 
" style="fill:none;stroke:#f7745f;stroke-linecap:square;stroke-width:1.5;"/>
   </g>
   <g id="line2d_15">
    <path clip-path="url(#p5214499835)" d="M 63.041013 497.125002 
L 64.142066 504.223634 
L 65.299585 507.357365 
L 66.428871 508.518017 
L 67.558157 508.902265 
L 68.687443 508.976947 
L 73.176355 508.713069 
L 78.822785 508.498394 
L 86.745744 508.404675 
L 87.87503 457.004464 
L 89.014592 383.153562 
L 90.143878 259.733191 
L 91.273164 389.303581 
L 92.40245 497.634599 
L 93.531736 520.139179 
L 94.661023 519.829613 
L 98.048881 514.793971 
L 99.178167 513.479269 
L 100.307453 512.407357 
L 101.436739 511.552171 
L 102.566025 510.878858 
L 104.824597 509.941375 
L 107.083169 509.369396 
L 109.341741 509.016192 
L 112.7296 508.714827 
L 118.37603 508.498101 
L 128.539605 508.39501 
L 168.036385 508.372459 
L 344.205013 508.372166 
L 344.205013 508.372166 
" style="fill:none;stroke:#f87638;stroke-linecap:square;stroke-width:1.5;"/>
   </g>
   <g id="line2d_16">
    <path clip-path="url(#p5214499835)" d="M 63.041013 497.125002 
L 64.142066 504.223634 
L 65.299585 507.357365 
L 66.428871 508.518017 
L 67.558157 508.902265 
L 68.687443 508.976947 
L 73.176355 508.713069 
L 78.822785 508.498394 
L 89.014592 508.394425 
L 94.661023 508.380953 
L 96.919595 411.82544 
L 98.048881 240.295568 
L 99.178167 368.80049 
L 100.307453 482.80561 
L 101.436739 519.54787 
L 102.566025 520.090562 
L 105.953883 515.055213 
L 107.083169 513.695701 
L 108.212455 512.581909 
L 109.341741 511.690699 
L 110.471028 510.987221 
L 112.7296 510.007564 
L 114.988172 509.409812 
L 117.246744 509.041379 
L 120.634602 508.727713 
L 126.281033 508.502494 
L 136.444607 508.395596 
L 174.812102 508.372459 
L 344.205013 508.372166 
L 344.205013 508.372166 
" style="fill:none;stroke:#e98132;stroke-linecap:square;stroke-width:1.5;"/>
   </g>
   <g id="line2d_17">
    <path clip-path="url(#p5214499835)" d="M 63.041013 497.125002 
L 64.142066 504.223634 
L 65.299585 507.357365 
L 66.428871 508.518017 
L 67.558157 508.902265 
L 68.687443 508.976947 
L 73.176355 508.713069 
L 78.822785 508.498394 
L 89.014592 508.394425 
L 102.566025 508.374802 
L 104.8089 429.37316 
L 105.953883 229.199819 
L 108.212455 464.981712 
L 109.341741 518.450771 
L 110.471028 520.296158 
L 111.600314 518.728414 
L 113.858886 515.307083 
L 114.988172 513.905983 
L 116.117458 512.752068 
L 117.246744 511.825713 
L 118.37603 511.093533 
L 119.505316 510.519797 
L 121.763888 509.722599 
L 124.02246 509.234967 
L 127.410319 508.825239 
L 131.927463 508.572198 
L 139.804233 508.423712 
L 160.131383 508.374217 
L 344.205013 508.372166 
L 344.205013 508.372166 
" style="fill:none;stroke:#dc8932;stroke-linecap:square;stroke-width:1.5;"/>
   </g>
   <g id="line2d_18">
    <path clip-path="url(#p5214499835)" d="M 63.041013 497.125002 
L 64.142066 504.223634 
L 65.299585 507.357365 
L 66.428871 508.518017 
L 67.558157 508.902265 
L 68.687443 508.976947 
L 73.176355 508.713069 
L 78.822785 508.498394 
L 89.014592 508.394425 
L 110.471028 508.373045 
L 112.7296 438.621766 
L 113.858886 234.25684 
L 114.988172 327.293495 
L 116.117458 446.322543 
L 117.246744 516.555011 
L 118.37603 520.440837 
L 119.505316 519.017186 
L 121.763888 515.557196 
L 122.893174 514.115973 
L 124.02246 512.922812 
L 125.151747 511.961606 
L 126.281033 511.200432 
L 127.410319 510.603266 
L 129.668891 509.773559 
L 131.927463 509.266305 
L 135.315321 508.841055 
L 139.804233 508.579813 
L 147.737468 508.425176 
L 166.907099 508.374802 
L 344.205013 508.372166 
L 344.205013 508.372166 
" style="fill:none;stroke:#d18e32;stroke-linecap:square;stroke-width:1.5;"/>
   </g>
   <g id="line2d_19">
    <path clip-path="url(#p5214499835)" d="M 63.041013 497.125002 
L 64.142066 504.223634 
L 65.299585 507.357365 
L 66.428871 508.518017 
L 67.558157 508.902265 
L 68.687443 508.976947 
L 73.176355 508.713069 
L 78.822785 508.498394 
L 89.014592 508.394425 
L 118.37603 508.372459 
L 119.505316 481.574084 
L 120.634602 445.877963 
L 121.763888 268.333671 
L 122.893174 305.584406 
L 124.02246 427.892106 
L 125.151747 513.326682 
L 126.281033 520.506733 
L 127.410319 519.297757 
L 129.668891 515.811994 
L 130.798177 514.331233 
L 131.927463 513.098535 
L 133.056749 512.101892 
L 134.186035 511.310844 
L 135.315321 510.689663 
L 137.545661 509.834476 
L 139.804233 509.303792 
L 143.192092 508.859798 
L 147.737468 508.58567 
L 154.484952 508.438356 
L 171.424243 508.37656 
L 319.360719 508.372166 
L 344.205013 508.372166 
L 344.205013 508.372166 
" style="fill:none;stroke:#c79332;stroke-linecap:square;stroke-width:1.5;"/>
   </g>
   <g id="line2d_20">
    <path clip-path="url(#p5214499835)" d="M 63.041013 497.125002 
L 64.142066 504.223634 
L 65.299585 507.357365 
L 66.428871 508.518017 
L 67.558157 508.902265 
L 68.687443 508.976947 
L 73.176355 508.713069 
L 78.822785 508.498394 
L 89.014592 508.394425 
L 126.281033 508.372459 
L 127.403317 493.046174 
L 128.539605 451.478554 
L 129.668891 326.389136 
L 130.798177 283.646953 
L 131.927463 409.826295 
L 133.056749 507.920265 
L 134.186035 520.455773 
L 135.315321 519.567785 
L 137.545661 516.112188 
L 138.674947 514.586911 
L 139.804233 513.308524 
L 140.933519 512.27 
L 142.091038 511.425357 
L 143.192092 510.793632 
L 145.450664 509.889244 
L 147.737468 509.332201 
L 151.097094 508.876492 
L 155.614238 508.593578 
L 162.389955 508.440698 
L 178.19996 508.377438 
L 327.265721 508.372166 
L 344.205013 508.372166 
L 344.205013 508.372166 
" style="fill:none;stroke:#be9732;stroke-linecap:square;stroke-width:1.5;"/>
   </g>
   <g id="line2d_21">
    <path clip-path="url(#p5214499835)" d="M 63.041013 497.125002 
L 64.142066 504.223634 
L 65.299585 507.357365 
L 66.428871 508.518017 
L 67.558157 508.902265 
L 68.687443 508.976947 
L 73.176355 508.713069 
L 78.822785 508.498394 
L 89.014592 508.394425 
L 128.539605 508.372166 
L 135.291267 508.372166 
L 136.444607 456.259983 
L 137.545661 382.200556 
L 138.674947 259.243802 
L 139.804233 388.767333 
L 140.933519 497.409967 
L 142.091038 520.228212 
L 143.192092 519.86095 
L 146.57995 514.814472 
L 147.737468 513.466382 
L 148.838522 512.420829 
L 149.967808 511.562714 
L 151.097094 510.887059 
L 153.383898 509.937275 
L 155.614238 509.372324 
L 157.87281 509.017949 
L 161.260669 508.715705 
L 166.907099 508.498394 
L 177.070674 508.39501 
L 216.595686 508.372459 
L 344.205013 508.372166 
L 344.205013 508.372166 
" style="fill:none;stroke:#b69a32;stroke-linecap:square;stroke-width:1.5;"/>
   </g>
   <g id="line2d_22">
    <path clip-path="url(#p5214499835)" d="M 63.041013 497.125002 
L 64.142066 504.223634 
L 65.299585 507.357365 
L 66.428871 508.518017 
L 67.558157 508.902265 
L 68.687443 508.976947 
L 73.176355 508.713069 
L 78.822785 508.498394 
L 89.014592 508.394425 
L 128.539605 508.372166 
L 304.68 508.372166 
L 306.938572 429.57612 
L 308.067858 228.618175 
L 310.32643 462.991939 
L 311.483949 518.52809 
L 312.585002 520.319588 
L 313.714289 518.763559 
L 315.972861 515.33637 
L 317.130379 513.898662 
L 318.231433 512.771983 
L 319.360719 511.841528 
L 320.490005 511.105834 
L 321.619291 510.529462 
L 323.877863 509.728457 
L 326.136435 509.238482 
L 329.524294 508.82729 
L 334.06967 508.571905 
L 341.94644 508.423712 
L 344.205013 508.407604 
L 344.205013 508.407604 
" style="fill:none;stroke:#ae9d31;stroke-linecap:square;stroke-width:1.5;"/>
   </g>
   <g id="line2d_23">
    <path clip-path="url(#p5214499835)" d="M 63.041013 497.125002 
L 64.142066 504.223634 
L 65.299585 507.357365 
L 66.428871 508.518017 
L 67.558157 508.902265 
L 68.687443 508.976947 
L 73.176355 508.713069 
L 78.822785 508.498394 
L 89.014592 508.394425 
L 128.539605 508.372166 
L 312.585002 508.372166 
L 314.843575 439.435071 
L 315.972861 235.966334 
L 317.130379 328.513776 
L 318.231433 444.480963 
L 319.360719 516.311927 
L 320.490005 520.453723 
L 321.619291 519.047059 
L 323.877863 515.583554 
L 325.007149 514.137938 
L 326.136435 512.94097 
L 327.265721 511.975957 
L 328.42324 511.194867 
L 329.524294 510.612052 
L 331.782866 509.778831 
L 334.06967 509.264547 
L 337.429296 508.842812 
L 341.94644 508.57952 
L 344.205013 508.511574 
L 344.205013 508.511574 
" style="fill:none;stroke:#a5a031;stroke-linecap:square;stroke-width:1.5;"/>
   </g>
   <g id="line2d_24">
    <path clip-path="url(#p5214499835)" d="M 63.041013 497.125002 
L 64.142066 504.223634 
L 65.299585 507.357365 
L 66.428871 508.518017 
L 67.558157 508.902265 
L 68.687443 508.976947 
L 73.176355 508.713069 
L 78.822785 508.498394 
L 89.014592 508.394425 
L 128.539605 508.372166 
L 320.490005 508.372166 
L 321.646394 481.072979 
L 322.776809 445.478192 
L 323.877863 273.069412 
L 325.007149 303.528834 
L 326.136435 426.184955 
L 327.265721 512.930719 
L 328.42324 520.506733 
L 329.524294 519.324409 
L 331.782866 515.836596 
L 332.912152 514.35232 
L 334.06967 513.087992 
L 335.170724 512.115657 
L 336.30001 511.321681 
L 337.429296 510.698156 
L 339.7161 509.823054 
L 341.94644 509.301742 
L 344.205013 508.973726 
L 344.205013 508.973726 
" style="fill:none;stroke:#9ca231;stroke-linecap:square;stroke-width:1.5;"/>
   </g>
   <g id="line2d_25">
    <path clip-path="url(#p5214499835)" d="M 63.041013 497.125002 
L 64.142066 504.223634 
L 65.299585 507.357365 
L 66.428871 508.518017 
L 67.558157 508.902265 
L 68.687443 508.976947 
L 73.176355 508.713069 
L 78.822785 508.498394 
L 89.014592 508.394425 
L 128.539605 508.372166 
L 328.42324 508.372166 
L 329.534457 493.046174 
L 330.663743 451.672729 
L 331.782866 331.643758 
L 332.912152 281.663448 
L 334.06967 411.000419 
L 335.170724 507.280047 
L 336.30001 520.444058 
L 337.429296 519.592094 
L 339.7161 516.054492 
L 340.817154 514.57256 
L 341.94644 513.296517 
L 343.075726 512.260335 
L 344.205013 511.435901 
L 344.205013 511.435901 
" style="fill:none;stroke:#92a531;stroke-linecap:square;stroke-width:1.5;"/>
   </g>
   <g id="line2d_26">
    <path clip-path="url(#p5214499835)" d="M 63.041013 497.125002 
L 64.142066 504.223634 
L 65.299585 507.357365 
L 66.428871 508.518017 
L 67.558157 508.902265 
L 68.687443 508.976947 
L 73.176355 508.713069 
L 78.822785 508.498394 
L 89.014592 508.394425 
L 128.539605 508.372166 
L 336.30001 508.372166 
L 337.449623 506.731205 
L 338.578909 456.159528 
L 339.7161 373.281432 
L 340.817154 260.584863 
L 341.94644 389.999152 
L 343.075726 498.169384 
L 344.205013 520.196581 
L 344.205013 520.196581 
" style="fill:none;stroke:#86a831;stroke-linecap:square;stroke-width:1.5;"/>
   </g>
   <g id="line2d_27">
    <path clip-path="url(#p5214499835)" d="M 63.041013 497.125002 
L 64.142066 504.223634 
L 65.299585 507.357365 
L 66.428871 508.518017 
L 67.558157 508.902265 
L 68.687443 508.976947 
L 73.176355 508.713069 
L 78.822785 508.498394 
L 89.014592 508.394425 
L 128.539605 508.372166 
L 344.205013 508.372166 
L 344.205013 508.372166 
" style="fill:none;stroke:#77ab31;stroke-linecap:square;stroke-width:1.5;"/>
   </g>
   <g id="line2d_28">
    <path clip-path="url(#p5214499835)" d="M 63.041013 497.125002 
L 64.142066 504.223634 
L 65.299585 507.357365 
L 66.428871 508.518017 
L 67.558157 508.902265 
L 68.687443 508.976947 
L 73.176355 508.713069 
L 78.822785 508.498394 
L 89.014592 508.394425 
L 128.539605 508.372166 
L 344.205013 508.372166 
L 344.205013 508.372166 
" style="fill:none;stroke:#63ae31;stroke-linecap:square;stroke-width:1.5;"/>
   </g>
   <g id="line2d_29">
    <path clip-path="url(#p5214499835)" d="M 63.041013 497.125002 
L 64.142066 504.223634 
L 65.299585 507.357365 
L 66.428871 508.518017 
L 67.558157 508.902265 
L 68.687443 508.976947 
L 73.176355 508.713069 
L 78.822785 508.498394 
L 89.014592 508.394425 
L 128.539605 508.372166 
L 344.205013 508.372166 
L 344.205013 508.372166 
" style="fill:none;stroke:#42b231;stroke-linecap:square;stroke-width:1.5;"/>
   </g>
   <g id="line2d_30">
    <path clip-path="url(#p5214499835)" d="M 63.041013 497.125002 
L 64.142066 504.223634 
L 65.299585 507.357365 
L 66.428871 508.518017 
L 67.558157 508.902265 
L 68.687443 508.976947 
L 73.176355 508.713069 
L 78.822785 508.498394 
L 89.014592 508.394425 
L 128.539605 508.372166 
L 344.205013 508.372166 
L 344.205013 508.372166 
" style="fill:none;stroke:#32b252;stroke-linecap:square;stroke-width:1.5;"/>
   </g>
   <g id="line2d_31">
    <path clip-path="url(#p5214499835)" d="M 63.041013 497.125002 
L 64.142066 504.223634 
L 65.299585 507.357365 
L 66.428871 508.518017 
L 67.558157 508.902265 
L 68.687443 508.976947 
L 73.176355 508.713069 
L 78.822785 508.498394 
L 89.014592 508.394425 
L 128.539605 508.372166 
L 344.205013 508.372166 
L 344.205013 508.372166 
" style="fill:none;stroke:#33b16b;stroke-linecap:square;stroke-width:1.5;"/>
   </g>
   <g id="line2d_32">
    <path clip-path="url(#p5214499835)" d="M 63.041013 497.125002 
L 64.142066 504.223634 
L 65.299585 507.357365 
L 66.428871 508.518017 
L 67.558157 508.902265 
L 68.687443 508.976947 
L 73.176355 508.713069 
L 78.822785 508.498394 
L 89.014592 508.394425 
L 128.539605 508.372166 
L 344.205013 508.372166 
L 344.205013 508.372166 
" style="fill:none;stroke:#33b07a;stroke-linecap:square;stroke-width:1.5;"/>
   </g>
   <g id="line2d_33">
    <path clip-path="url(#p5214499835)" d="M 63.041013 497.125002 
L 64.142066 504.223634 
L 65.299585 507.357365 
L 66.428871 508.518017 
L 67.558157 508.902265 
L 68.687443 508.976947 
L 73.176355 508.713069 
L 78.822785 508.498394 
L 89.014592 508.394425 
L 128.539605 508.372166 
L 344.205013 508.372166 
L 344.205013 508.372166 
" style="fill:none;stroke:#34af86;stroke-linecap:square;stroke-width:1.5;"/>
   </g>
   <g id="line2d_34">
    <path clip-path="url(#p5214499835)" d="M 63.041013 497.125002 
L 64.142066 504.223634 
L 65.299585 507.357365 
L 66.428871 508.518017 
L 67.558157 508.902265 
L 68.687443 508.976947 
L 73.176355 508.713069 
L 78.822785 508.498394 
L 89.014592 508.394425 
L 128.539605 508.372166 
L 344.205013 508.372166 
L 344.205013 508.372166 
" style="fill:none;stroke:#34af8f;stroke-linecap:square;stroke-width:1.5;"/>
   </g>
   <g id="line2d_35">
    <path clip-path="url(#p5214499835)" d="M 63.041013 497.125002 
L 64.142066 504.223634 
L 65.299585 507.357365 
L 66.428871 508.518017 
L 67.558157 508.902265 
L 68.687443 508.976947 
L 73.176355 508.713069 
L 78.822785 508.498394 
L 89.014592 508.394425 
L 128.539605 508.372166 
L 344.205013 508.372166 
L 344.205013 508.372166 
" style="fill:none;stroke:#35ae97;stroke-linecap:square;stroke-width:1.5;"/>
   </g>
   <g id="line2d_36">
    <path clip-path="url(#p5214499835)" d="M 63.041013 497.125002 
L 64.142066 504.223634 
L 65.299585 507.357365 
L 66.428871 508.518017 
L 67.558157 508.902265 
L 68.687443 508.976947 
L 73.176355 508.713069 
L 78.822785 508.498394 
L 89.014592 508.394425 
L 128.539605 508.372166 
L 344.205013 508.372166 
L 344.205013 508.372166 
" style="fill:none;stroke:#35ad9e;stroke-linecap:square;stroke-width:1.5;"/>
   </g>
   <g id="line2d_37">
    <path clip-path="url(#p5214499835)" d="M 63.041013 497.125002 
L 64.142066 504.223634 
L 65.299585 507.357365 
L 66.428871 508.518017 
L 67.558157 508.902265 
L 68.687443 508.976947 
L 73.176355 508.713069 
L 78.822785 508.498394 
L 89.014592 508.394425 
L 128.539605 508.372166 
L 344.205013 508.372166 
L 344.205013 508.372166 
" style="fill:none;stroke:#36ada4;stroke-linecap:square;stroke-width:1.5;"/>
   </g>
   <g id="line2d_38">
    <path clip-path="url(#p5214499835)" d="M 63.041013 497.125002 
L 64.142066 504.223634 
L 65.299585 507.357365 
L 66.428871 508.518017 
L 67.558157 508.902265 
L 68.687443 508.976947 
L 73.176355 508.713069 
L 78.822785 508.498394 
L 89.014592 508.394425 
L 128.539605 508.372166 
L 344.205013 508.372166 
L 344.205013 508.372166 
" style="fill:none;stroke:#36acaa;stroke-linecap:square;stroke-width:1.5;"/>
   </g>
   <g id="line2d_39">
    <path clip-path="url(#p5214499835)" d="M 63.041013 497.125002 
L 64.142066 504.223634 
L 65.299585 507.357365 
L 66.428871 508.518017 
L 67.558157 508.902265 
L 68.687443 508.976947 
L 73.176355 508.713069 
L 78.822785 508.498394 
L 89.014592 508.394425 
L 128.539605 508.372166 
L 344.205013 508.372166 
L 344.205013 508.372166 
" style="fill:none;stroke:#37abb0;stroke-linecap:square;stroke-width:1.5;"/>
   </g>
   <g id="line2d_40">
    <path clip-path="url(#p5214499835)" d="M 63.041013 497.125002 
L 64.142066 504.223634 
L 65.299585 507.357365 
L 66.428871 508.518017 
L 67.558157 508.902265 
L 68.687443 508.976947 
L 73.176355 508.713069 
L 78.822785 508.498394 
L 89.014592 508.394425 
L 128.539605 508.372166 
L 344.205013 508.372166 
L 344.205013 508.372166 
" style="fill:none;stroke:#37abb7;stroke-linecap:square;stroke-width:1.5;"/>
   </g>
   <g id="line2d_41">
    <path clip-path="url(#p5214499835)" d="M 63.041013 497.125002 
L 64.142066 504.223634 
L 65.299585 507.357365 
L 66.428871 508.518017 
L 67.558157 508.902265 
L 68.687443 508.976947 
L 73.176355 508.713069 
L 78.822785 508.498394 
L 89.014592 508.394425 
L 128.539605 508.372166 
L 344.205013 508.372166 
L 344.205013 508.372166 
" style="fill:none;stroke:#37aabe;stroke-linecap:square;stroke-width:1.5;"/>
   </g>
   <g id="line2d_42">
    <path clip-path="url(#p5214499835)" d="M 63.041013 497.125002 
L 64.142066 504.223634 
L 65.299585 507.357365 
L 66.428871 508.518017 
L 67.558157 508.902265 
L 68.687443 508.976947 
L 73.176355 508.713069 
L 78.822785 508.498394 
L 89.014592 508.394425 
L 128.539605 508.372166 
L 223.371403 508.372166 
L 224.510852 487.43006 
L 225.640138 449.206746 
L 226.787493 294.023175 
L 227.888547 291.848951 
L 229.017833 416.575531 
L 230.147119 510.272613 
L 231.276405 520.492675 
L 232.433923 519.426621 
L 234.664263 515.973953 
L 235.79355 514.468883 
L 236.922836 513.211291 
L 238.080354 512.169545 
L 239.181408 511.382012 
L 240.310694 510.745601 
L 242.569266 509.859956 
L 244.827838 509.319315 
L 248.215696 508.867413 
L 252.732841 508.590063 
L 259.508557 508.439527 
L 275.318562 508.377438 
L 344.205013 508.372166 
L 344.205013 508.372166 
" style="fill:none;stroke:#38a9c5;stroke-linecap:square;stroke-width:1.5;"/>
   </g>
   <g id="line2d_43">
    <path clip-path="url(#p5214499835)" d="M 63.041013 497.125002 
L 64.142066 504.223634 
L 65.299585 507.357365 
L 66.428871 508.518017 
L 67.558157 508.902265 
L 68.687443 508.976947 
L 73.176355 508.713069 
L 78.822785 508.498394 
L 89.014592 508.394425 
L 128.539605 508.372166 
L 231.276405 508.372166 
L 232.433923 498.917379 
L 233.534977 454.518273 
L 235.79355 270.236168 
L 236.922836 398.543108 
L 238.080354 504.322039 
L 239.181408 520.340089 
L 240.310694 519.729158 
L 242.569266 516.235487 
L 243.726784 514.6572 
L 244.827838 513.395507 
L 245.957124 512.339997 
L 247.08641 511.498575 
L 248.215696 510.836977 
L 250.474268 509.915602 
L 252.732841 509.353581 
L 255.019645 509.00272 
L 258.379271 508.709848 
L 264.025701 508.496344 
L 274.189276 508.394718 
L 313.714289 508.372459 
L 344.205013 508.372166 
L 344.205013 508.372166 
" style="fill:none;stroke:#39a8ce;stroke-linecap:square;stroke-width:1.5;"/>
   </g>
   <g id="line2d_44">
    <path clip-path="url(#p5214499835)" d="M 63.041013 497.125002 
L 64.142066 504.223634 
L 65.299585 507.357365 
L 66.428871 508.518017 
L 67.558157 508.902265 
L 68.687443 508.976947 
L 73.176355 508.713069 
L 78.822785 508.498394 
L 89.014592 508.394425 
L 128.539605 508.372166 
L 240.310694 508.372166 
L 241.43998 459.104942 
L 242.569266 397.241585 
L 243.726784 253.189844 
L 244.827838 380.064933 
L 245.957124 491.556041 
L 247.08641 519.956134 
L 248.215696 519.971363 
L 251.603555 514.922835 
L 252.732841 513.585874 
L 253.862127 512.493169 
L 255.019645 511.600788 
L 256.120699 510.931868 
L 258.379271 509.973591 
L 260.666075 509.383454 
L 262.896415 509.0282 
L 266.312506 508.71922 
L 271.958936 508.499566 
L 282.094278 508.395303 
L 319.360719 508.372459 
L 344.205013 508.372166 
L 344.205013 508.372166 
" style="fill:none;stroke:#3aa6d9;stroke-linecap:square;stroke-width:1.5;"/>
   </g>
   <g id="line2d_45">
    <path clip-path="url(#p5214499835)" d="M 63.041013 497.125002 
L 64.142066 504.223634 
L 65.299585 507.357365 
L 66.428871 508.518017 
L 67.558157 508.902265 
L 68.687443 508.976947 
L 73.176355 508.713069 
L 78.822785 508.498394 
L 89.014592 508.394425 
L 128.539605 508.372166 
L 248.215696 508.372166 
L 250.474268 419.184728 
L 251.603555 234.547955 
L 253.862127 476.064575 
L 255.019645 519.356332 
L 256.120699 520.186331 
L 260.666075 513.751054 
L 261.767129 512.651905 
L 262.896415 511.746052 
L 264.025701 511.030859 
L 265.154987 510.470887 
L 267.41356 509.692726 
L 269.672132 509.216516 
L 273.05999 508.81616 
L 277.605366 508.567512 
L 285.482137 508.42254 
L 305.837518 508.374217 
L 344.205013 508.372166 
L 344.205013 508.372166 
" style="fill:none;stroke:#3ba4e6;stroke-linecap:square;stroke-width:1.5;"/>
   </g>
   <g id="line2d_46">
    <path clip-path="url(#p5214499835)" d="M 63.041013 497.125002 
L 64.142066 504.223634 
L 65.299585 507.357365 
L 66.428871 508.518017 
L 67.558157 508.902265 
L 68.687443 508.976947 
L 73.176355 508.713069 
L 78.822785 508.498394 
L 89.014592 508.394425 
L 128.539605 508.372166 
L 256.120699 508.372166 
L 258.379271 432.598267 
L 259.508557 228.397642 
L 261.767129 458.066418 
L 262.896415 517.870592 
L 264.025701 520.361468 
L 265.154987 518.839705 
L 267.41356 515.401974 
L 268.542846 513.985352 
L 269.672132 512.816499 
L 270.801418 511.876966 
L 271.958936 511.117256 
L 273.05999 510.551134 
L 275.318562 509.741636 
L 277.605366 509.241996 
L 280.964992 508.83139 
L 285.482137 508.574834 
L 293.387139 508.424005 
L 313.714289 508.374217 
L 344.205013 508.372166 
L 344.205013 508.372166 
" style="fill:none;stroke:#4aa0f4;stroke-linecap:square;stroke-width:1.5;"/>
   </g>
   <g id="line2d_47">
    <path clip-path="url(#p5214499835)" d="M 63.041013 497.125002 
L 64.142066 504.223634 
L 65.299585 507.357365 
L 66.428871 508.518017 
L 67.558157 508.902265 
L 68.687443 508.976947 
L 73.176355 508.713069 
L 78.822785 508.498394 
L 89.014592 508.394425 
L 128.539605 508.372166 
L 264.025701 508.372166 
L 266.312506 440.299337 
L 267.41356 242.586413 
L 268.542846 319.456972 
L 269.672132 439.553391 
L 270.801418 515.574475 
L 271.958936 520.464267 
L 273.05999 519.121741 
L 275.318562 515.650622 
L 276.447848 514.194755 
L 277.605366 512.960007 
L 278.70642 512.012859 
L 279.835706 511.240555 
L 280.964992 510.634896 
L 283.251797 509.784688 
L 285.482137 509.27802 
L 288.898227 508.844276 
L 293.387139 508.581277 
L 301.292142 508.425762 
L 320.490005 508.374802 
L 344.205013 508.372459 
L 344.205013 508.372459 
" style="fill:none;stroke:#6e9bf4;stroke-linecap:square;stroke-width:1.5;"/>
   </g>
   <g id="line2d_48">
    <path clip-path="url(#p5214499835)" d="M 63.041013 497.125002 
L 64.142066 504.223634 
L 65.299585 507.357365 
L 66.428871 508.518017 
L 67.558157 508.902265 
L 68.687443 508.976947 
L 73.176355 508.713069 
L 78.822785 508.498394 
L 89.014592 508.394425 
L 128.539605 508.372166 
L 271.958936 508.372166 
L 273.078058 484.103033 
L 274.207345 447.433113 
L 275.318562 287.903145 
L 276.447848 297.693213 
L 277.605366 424.200747 
L 278.70642 511.692457 
L 279.835706 520.505269 
L 280.964992 519.397041 
L 283.251797 515.864711 
L 284.352851 514.410309 
L 285.482137 513.16326 
L 286.611423 512.15373 
L 287.740709 511.351554 
L 288.898227 510.707821 
L 291.128567 509.845606 
L 293.387139 509.310528 
L 296.774997 508.86302 
L 301.292142 508.588013 
L 308.067858 508.438941 
L 323.877863 508.377438 
L 344.205013 508.372459 
L 344.205013 508.372459 
" style="fill:none;stroke:#8795f4;stroke-linecap:square;stroke-width:1.5;"/>
   </g>
   <g id="line2d_49">
    <path clip-path="url(#p5214499835)" d="M 63.041013 497.125002 
L 64.142066 504.223634 
L 65.299585 507.357365 
L 66.428871 508.518017 
L 67.558157 508.902265 
L 68.687443 508.976947 
L 73.176355 508.713069 
L 78.822785 508.498394 
L 89.014592 508.394425 
L 128.539605 508.372166 
L 279.835706 508.372166 
L 280.966122 497.25738 
L 282.095408 453.218507 
L 283.251797 337.852996 
L 284.352851 275.898848 
L 285.482137 403.363196 
L 286.611423 505.2358 
L 287.740709 520.399249 
L 288.898227 519.620795 
L 291.128567 516.165198 
L 292.257853 514.632306 
L 293.387139 513.346012 
L 294.544657 512.276736 
L 295.645711 511.467238 
L 296.774997 510.812083 
L 299.03357 509.900666 
L 301.292142 509.344502 
L 303.550714 509.000377 
L 306.938572 508.706919 
L 312.585002 508.495173 
L 322.776809 508.394425 
L 344.205013 508.373045 
L 344.205013 508.373045 
" style="fill:none;stroke:#9b8ff4;stroke-linecap:square;stroke-width:1.5;"/>
   </g>
   <g id="line2d_50">
    <path clip-path="url(#p5214499835)" d="M 63.041013 497.125002 
L 64.142066 504.223634 
L 65.299585 507.357365 
L 66.428871 508.518017 
L 67.558157 508.902265 
L 68.687443 508.976947 
L 73.176355 508.713069 
L 78.822785 508.498394 
L 89.014592 508.394425 
L 128.539605 508.372166 
L 288.898227 508.372166 
L 290.011703 457.589329 
L 291.140989 386.892073 
L 292.257853 255.309945 
L 293.387139 385.064845 
L 294.544657 496.912084 
L 295.645711 520.087633 
L 296.774997 519.908981 
L 300.191088 514.82443 
L 301.292142 513.534329 
L 302.421428 512.451581 
L 303.550714 511.587316 
L 304.68 510.906095 
L 306.938572 509.958068 
L 309.197144 509.379353 
L 311.483949 509.018828 
L 314.843575 508.718048 
L 320.490005 508.49898 
L 330.65358 508.39501 
L 344.205013 508.374802 
L 344.205013 508.374802 
" style="fill:none;stroke:#ac89f4;stroke-linecap:square;stroke-width:1.5;"/>
   </g>
   <g id="line2d_51">
    <path clip-path="url(#p5214499835)" d="M 63.041013 497.125002 
L 64.142066 504.223634 
L 65.299585 507.357365 
L 66.428871 508.518017 
L 67.558157 508.902265 
L 68.687443 508.976947 
L 73.176355 508.713069 
L 78.822785 508.498394 
L 89.014592 508.394425 
L 128.539605 508.372166 
L 296.774997 508.372166 
L 299.03357 414.393635 
L 300.191088 240.434389 
L 301.292142 366.038414 
L 302.421428 480.538488 
L 303.550714 519.453565 
L 304.68 520.13215 
L 308.067858 515.095337 
L 309.197144 513.729381 
L 310.32643 512.608853 
L 311.483949 511.692164 
L 312.585002 511.003914 
L 314.843575 510.017521 
L 317.130379 509.410105 
L 319.360719 509.045186 
L 322.776809 508.727713 
L 328.42324 508.502494 
L 338.558582 508.395889 
L 344.205013 508.381831 
L 344.205013 508.381831 
" style="fill:none;stroke:#bc82f4;stroke-linecap:square;stroke-width:1.5;"/>
   </g>
   <g id="line2d_52">
    <path clip-path="url(#p5214499835)" d="M 63.041013 497.125002 
L 64.142066 504.223634 
L 65.299585 507.357365 
L 66.428871 508.518017 
L 67.558157 508.902265 
L 68.687443 508.976947 
L 73.176355 508.713069 
L 78.822785 508.498394 
L 89.014592 508.394425 
L 128.539605 508.372166 
L 143.192092 508.372166 
L 144.336397 461.181112 
L 145.450664 410.367523 
L 146.57995 241.100087 
L 147.737468 372.913291 
L 148.838522 483.7346 
L 149.967808 519.613473 
L 151.097094 520.089976 
L 154.484952 515.048184 
L 155.614238 513.689844 
L 156.743524 512.577223 
L 157.87281 511.686599 
L 159.030329 510.96877 
L 161.260669 510.005514 
L 163.519241 509.408641 
L 165.777813 509.0405 
L 169.165671 508.72742 
L 174.812102 508.502202 
L 184.975676 508.395596 
L 224.500689 508.372459 
L 344.205013 508.372166 
L 344.205013 508.372166 
" style="fill:none;stroke:#cc7af4;stroke-linecap:square;stroke-width:1.5;"/>
   </g>
   <g id="line2d_53">
    <path clip-path="url(#p5214499835)" d="M 63.041013 497.125002 
L 64.142066 504.223634 
L 65.299585 507.357365 
L 66.428871 508.518017 
L 67.558157 508.902265 
L 68.687443 508.976947 
L 73.176355 508.713069 
L 78.822785 508.498394 
L 89.014592 508.394425 
L 128.539605 508.372166 
L 151.097094 508.372166 
L 153.383898 424.939956 
L 154.484952 229.550093 
L 156.743524 466.624431 
L 157.87281 518.585785 
L 159.030329 520.257792 
L 160.131383 518.706742 
L 162.389955 515.288046 
L 163.519241 513.889875 
L 164.676759 512.713408 
L 165.777813 511.81517 
L 166.907099 511.085333 
L 168.036385 510.513354 
L 170.323189 509.711177 
L 172.553529 509.232332 
L 175.96962 508.821725 
L 180.458532 508.571612 
L 188.363534 508.423419 
L 208.690684 508.374217 
L 344.205013 508.372166 
L 344.205013 508.372166 
" style="fill:none;stroke:#dc6ff4;stroke-linecap:square;stroke-width:1.5;"/>
   </g>
   <g id="line2d_54">
    <path clip-path="url(#p5214499835)" d="M 63.041013 497.125002 
L 64.142066 504.223634 
L 65.299585 507.357365 
L 66.428871 508.518017 
L 67.558157 508.902265 
L 68.687443 508.976947 
L 73.176355 508.713069 
L 78.822785 508.498394 
L 89.014592 508.394425 
L 128.539605 508.372166 
L 159.030329 508.372166 
L 161.269138 437.341036 
L 162.389955 232.489943 
L 163.519241 329.409232 
L 164.676759 451.071169 
L 165.777813 516.797216 
L 166.907099 520.432343 
L 168.036385 518.99112 
L 170.323189 515.495107 
L 171.424243 514.09635 
L 172.553529 512.906704 
L 173.682815 511.94872 
L 174.812102 511.190181 
L 175.96962 510.582472 
L 178.19996 509.76858 
L 180.458532 509.263376 
L 183.84639 508.83959 
L 188.363534 508.578348 
L 196.268537 508.424883 
L 215.494632 508.374802 
L 344.205013 508.372166 
L 344.205013 508.372166 
" style="fill:none;stroke:#ee61f4;stroke-linecap:square;stroke-width:1.5;"/>
   </g>
   <g id="line2d_55">
    <path clip-path="url(#p5214499835)" d="M 63.041013 497.125002 
L 64.142066 504.223634 
L 65.299585 507.357365 
L 66.428871 508.518017 
L 67.558157 508.902265 
L 68.687443 508.976947 
L 73.176355 508.713069 
L 78.822785 508.498394 
L 89.014592 508.394425 
L 128.539605 508.372166 
L 166.907099 508.372166 
L 168.05547 479.659579 
L 169.184756 444.515229 
L 170.323189 255.775026 
L 171.424243 307.913079 
L 172.553529 429.822719 
L 173.682815 513.757497 
L 174.812102 520.505561 
L 175.96962 519.226296 
L 178.19996 515.785343 
L 179.329246 514.308682 
L 180.458532 513.080084 
L 181.61605 512.06499 
L 182.717104 511.299129 
L 183.84639 510.680584 
L 186.104962 509.820711 
L 188.363534 509.295299 
L 191.751393 508.855405 
L 196.268537 508.584792 
L 204.201772 508.426348 
L 223.371403 508.374802 
L 344.205013 508.372166 
L 344.205013 508.372166 
" style="fill:none;stroke:#f55ee9;stroke-linecap:square;stroke-width:1.5;"/>
   </g>
   <g id="line2d_56">
    <path clip-path="url(#p5214499835)" d="M 63.041013 497.125002 
L 64.142066 504.223634 
L 65.299585 507.357365 
L 66.428871 508.518017 
L 67.558157 508.902265 
L 68.687443 508.976947 
L 73.176355 508.713069 
L 78.822785 508.498394 
L 89.014592 508.394425 
L 128.539605 508.372166 
L 174.812102 508.372166 
L 175.96962 489.322013 
L 177.070674 450.920926 
L 178.19996 319.87162 
L 179.329246 286.027505 
L 180.458532 411.789124 
L 181.61605 509.631223 
L 182.717104 520.469245 
L 183.84639 519.539377 
L 186.104962 516.04307 
L 187.262481 514.493192 
L 188.363534 513.259908 
L 189.492821 512.231048 
L 190.622107 511.412764 
L 191.751393 510.769324 
L 194.009965 509.8746 
L 196.268537 509.328394 
L 199.656395 508.872099 
L 204.201772 508.590649 
L 210.949256 508.440113 
L 226.787493 508.377438 
L 344.205013 508.372166 
L 344.205013 508.372166 
" style="fill:none;stroke:#f562da;stroke-linecap:square;stroke-width:1.5;"/>
   </g>
   <g id="line2d_57">
    <path clip-path="url(#p5214499835)" d="M 63.041013 497.125002 
L 64.142066 504.223634 
L 65.299585 507.357365 
L 66.428871 508.518017 
L 67.558157 508.902265 
L 68.687443 508.976947 
L 73.176355 508.713069 
L 78.822785 508.498394 
L 89.014592 508.394425 
L 128.539605 508.372166 
L 182.717104 508.372166 
L 183.858812 504.325554 
L 184.975676 455.757122 
L 186.104962 371.73331 
L 187.262481 267.926872 
L 188.363534 393.680261 
L 189.492821 500.326972 
L 190.622107 520.264821 
L 191.751393 519.79564 
L 195.139251 514.753262 
L 196.268537 513.445588 
L 197.397823 512.38012 
L 198.555341 511.511755 
L 199.656395 510.861872 
L 201.914967 509.930831 
L 204.201772 509.357388 
L 206.432112 509.012092 
L 209.848202 508.711019 
L 215.494632 508.496637 
L 225.629975 508.394718 
L 265.154987 508.372459 
L 344.205013 508.372166 
L 344.205013 508.372166 
" style="fill:none;stroke:#f565cc;stroke-linecap:square;stroke-width:1.5;"/>
   </g>
   <g id="line2d_58">
    <path clip-path="url(#p5214499835)" d="M 63.041013 497.125002 
L 64.142066 504.223634 
L 65.299585 507.357365 
L 66.428871 508.518017 
L 67.558157 508.902265 
L 68.687443 508.976947 
L 73.176355 508.713069 
L 78.822785 508.498394 
L 89.014592 508.394425 
L 128.539605 508.372166 
L 191.751393 508.372166 
L 192.908911 459.597553 
L 194.009965 404.266999 
L 195.139251 245.502247 
L 196.268537 375.020799 
L 197.397823 487.791757 
L 198.555341 519.894923 
L 199.656395 520.031695 
L 203.044253 514.985217 
L 204.201772 513.606961 
L 205.302826 512.534757 
L 206.432112 511.653212 
L 207.561398 510.957934 
L 208.690684 510.413777 
L 210.949256 509.658167 
L 213.207828 509.195137 
L 216.595686 508.805324 
L 221.141063 508.562826 
L 229.017833 508.421369 
L 249.373215 508.374217 
L 344.205013 508.372166 
L 344.205013 508.372166 
" style="fill:none;stroke:#f668c0;stroke-linecap:square;stroke-width:1.5;"/>
   </g>
   <g id="line2d_59">
    <path clip-path="url(#p5214499835)" d="M 63.041013 497.125002 
L 64.142066 504.223634 
L 65.299585 507.357365 
L 66.428871 508.518017 
L 67.558157 508.902265 
L 68.687443 508.976947 
L 73.176355 508.713069 
L 78.822785 508.498394 
L 89.014592 508.394425 
L 128.539605 508.372166 
L 199.656395 508.372166 
L 201.914967 423.37602 
L 203.044253 231.652036 
L 205.302826 471.420796 
L 206.432112 518.920538 
L 207.561398 520.237584 
L 212.078542 513.835987 
L 213.207828 512.69525 
L 214.337114 511.780318 
L 215.494632 511.041988 
L 217.724972 510.050323 
L 219.983544 509.436171 
L 222.242117 509.057487 
L 225.629975 508.735913 
L 231.276405 508.505423 
L 241.43998 508.396182 
L 277.605366 508.372459 
L 344.205013 508.372166 
L 344.205013 508.372166 
" style="fill:none;stroke:#f66ab3;stroke-linecap:square;stroke-width:1.5;"/>
   </g>
   <g id="line2d_60">
    <path clip-path="url(#p5214499835)" d="M 63.041013 497.125002 
L 64.142066 504.223634 
L 65.299585 507.357365 
L 66.428871 508.518017 
L 67.558157 508.902265 
L 68.687443 508.976947 
L 73.176355 508.713069 
L 78.822785 508.498394 
L 89.014592 508.394425 
L 128.539605 508.372166 
L 207.561398 508.372166 
L 209.848202 433.696537 
L 210.949256 229.584945 
L 212.078542 335.048073 
L 213.207828 453.135917 
L 214.337114 517.374174 
L 215.494632 520.377284 
L 216.595686 518.915266 
L 218.854258 515.467284 
L 219.983544 514.040412 
L 221.141063 512.83495 
L 222.242117 511.912403 
L 223.371403 511.161772 
L 224.500689 510.5731 
L 226.787493 509.747201 
L 229.017833 509.254883 
L 232.433923 508.832854 
L 236.922836 508.576591 
L 244.827838 508.424591 
L 264.025701 508.374802 
L 344.205013 508.372166 
L 344.205013 508.372166 
" style="fill:none;stroke:#f66ca7;stroke-linecap:square;stroke-width:1.5;"/>
   </g>
   <g id="line2d_61">
    <path clip-path="url(#p5214499835)" d="M 63.041013 497.125002 
L 64.142066 504.223634 
L 65.299585 507.357365 
L 66.428871 508.518017 
L 67.558157 508.902265 
L 68.687443 508.976947 
L 73.176355 508.713069 
L 78.822785 508.498394 
L 89.014592 508.394425 
L 128.539605 508.372166 
L 215.494632 508.372166 
L 216.622789 477.018752 
L 217.752075 442.354127 
L 218.854258 251.605993 
L 219.983544 313.69902 
L 221.141063 437.535796 
L 222.242117 514.728075 
L 223.371403 520.495018 
L 224.500689 519.195838 
L 226.787493 515.678152 
L 227.888547 514.251572 
L 229.017833 513.033518 
L 230.147119 512.04976 
L 231.276405 511.269842 
L 232.433923 510.644268 
L 234.664263 509.806654 
L 236.922836 509.286513 
L 240.310694 508.851305 
L 244.827838 508.583034 
L 252.732841 508.426055 
L 271.958936 508.374802 
L 344.205013 508.372166 
L 344.205013 508.372166 
" style="fill:none;stroke:#f76e9a;stroke-linecap:square;stroke-width:1.5;"/>
   </g>
   <g id="line2d_62"/>
   <g id="line2d_63"/>
   <g id="line2d_64"/>
   <g id="line2d_65"/>
   <g id="line2d_66"/>
   <g id="line2d_67"/>
   <g id="line2d_68"/>
   <g id="line2d_69"/>
   <g id="line2d_70"/>
   <g id="line2d_71"/>
   <g id="line2d_72"/>
   <g id="line2d_73"/>
   <g id="line2d_74"/>
   <g id="line2d_75"/>
   <g id="line2d_76"/>
   <g id="line2d_77"/>
   <g id="line2d_78"/>
   <g id="line2d_79"/>
   <g id="line2d_80"/>
   <g id="line2d_81"/>
   <g id="line2d_82"/>
   <g id="line2d_83"/>
   <g id="line2d_84"/>
   <g id="line2d_85"/>
   <g id="line2d_86"/>
   <g id="line2d_87"/>
   <g id="line2d_88"/>
   <g id="line2d_89"/>
   <g id="line2d_90"/>
   <g id="line2d_91"/>
   <g id="line2d_92"/>
   <g id="line2d_93"/>
   <g id="line2d_94"/>
   <g id="line2d_95"/>
   <g id="line2d_96"/>
   <g id="line2d_97"/>
   <g id="line2d_98"/>
   <g id="line2d_99"/>
   <g id="line2d_100"/>
   <g id="line2d_101"/>
   <g id="line2d_102"/>
   <g id="line2d_103"/>
   <g id="line2d_104"/>
   <g id="line2d_105"/>
   <g id="line2d_106"/>
   <g id="line2d_107"/>
   <g id="line2d_108"/>
   <g id="line2d_109"/>
   <g id="line2d_110"/>
   <g id="line2d_111"/>
   <g id="patch_3">
    <path d="M 48.982813 535.112188 
L 48.982813 213.792188 
" style="fill:none;stroke:#000000;stroke-linecap:square;stroke-linejoin:miter;stroke-width:0.8;"/>
   </g>
   <g id="patch_4">
    <path d="M 48.982813 535.112188 
L 358.263213 535.112188 
" style="fill:none;stroke:#000000;stroke-linecap:square;stroke-linejoin:miter;stroke-width:0.8;"/>
   </g>
  </g>
  <g id="legend_1">
   <g id="text_14">
    <!-- Cell -->
    <g transform="translate(384.97285 18.798438)scale(0.1 -0.1)">
     <defs>
      <path d="M 64.40625 67.28125 
L 64.40625 56.890625 
Q 59.421875 61.53125 53.78125 63.8125 
Q 48.140625 66.109375 41.796875 66.109375 
Q 29.296875 66.109375 22.65625 58.46875 
Q 16.015625 50.828125 16.015625 36.375 
Q 16.015625 21.96875 22.65625 14.328125 
Q 29.296875 6.6875 41.796875 6.6875 
Q 48.140625 6.6875 53.78125 8.984375 
Q 59.421875 11.28125 64.40625 15.921875 
L 64.40625 5.609375 
Q 59.234375 2.09375 53.4375 0.328125 
Q 47.65625 -1.421875 41.21875 -1.421875 
Q 24.65625 -1.421875 15.125 8.703125 
Q 5.609375 18.84375 5.609375 36.375 
Q 5.609375 53.953125 15.125 64.078125 
Q 24.65625 74.21875 41.21875 74.21875 
Q 47.75 74.21875 53.53125 72.484375 
Q 59.328125 70.75 64.40625 67.28125 
z
" id="DejaVuSans-67"/>
      <path d="M 56.203125 29.59375 
L 56.203125 25.203125 
L 14.890625 25.203125 
Q 15.484375 15.921875 20.484375 11.0625 
Q 25.484375 6.203125 34.421875 6.203125 
Q 39.59375 6.203125 44.453125 7.46875 
Q 49.3125 8.734375 54.109375 11.28125 
L 54.109375 2.78125 
Q 49.265625 0.734375 44.1875 -0.34375 
Q 39.109375 -1.421875 33.890625 -1.421875 
Q 20.796875 -1.421875 13.15625 6.1875 
Q 5.515625 13.8125 5.515625 26.8125 
Q 5.515625 40.234375 12.765625 48.109375 
Q 20.015625 56 32.328125 56 
Q 43.359375 56 49.78125 48.890625 
Q 56.203125 41.796875 56.203125 29.59375 
z
M 47.21875 32.234375 
Q 47.125 39.59375 43.09375 43.984375 
Q 39.0625 48.390625 32.421875 48.390625 
Q 24.90625 48.390625 20.390625 44.140625 
Q 15.875 39.890625 15.1875 32.171875 
z
" id="DejaVuSans-101"/>
      <path d="M 9.421875 75.984375 
L 18.40625 75.984375 
L 18.40625 0 
L 9.421875 0 
z
" id="DejaVuSans-108"/>
     </defs>
     <use xlink:href="#DejaVuSans-67"/>
     <use x="69.824219" xlink:href="#DejaVuSans-101"/>
     <use x="131.347656" xlink:href="#DejaVuSans-108"/>
     <use x="159.130859" xlink:href="#DejaVuSans-108"/>
    </g>
   </g>
   <g id="line2d_112">
    <path d="M 363.763475 29.976563 
L 383.763475 29.976563 
" style="fill:none;stroke:#f77189;stroke-linecap:square;stroke-width:1.5;"/>
   </g>
   <g id="line2d_113"/>
   <g id="text_15">
    <!-- cell 0 -->
    <g transform="translate(391.763475 33.476563)scale(0.1 -0.1)">
     <defs>
      <path d="M 48.78125 52.59375 
L 48.78125 44.1875 
Q 44.96875 46.296875 41.140625 47.34375 
Q 37.3125 48.390625 33.40625 48.390625 
Q 24.65625 48.390625 19.8125 42.84375 
Q 14.984375 37.3125 14.984375 27.296875 
Q 14.984375 17.28125 19.8125 11.734375 
Q 24.65625 6.203125 33.40625 6.203125 
Q 37.3125 6.203125 41.140625 7.25 
Q 44.96875 8.296875 48.78125 10.40625 
L 48.78125 2.09375 
Q 45.015625 0.34375 40.984375 -0.53125 
Q 36.96875 -1.421875 32.421875 -1.421875 
Q 20.0625 -1.421875 12.78125 6.34375 
Q 5.515625 14.109375 5.515625 27.296875 
Q 5.515625 40.671875 12.859375 48.328125 
Q 20.21875 56 33.015625 56 
Q 37.15625 56 41.109375 55.140625 
Q 45.0625 54.296875 48.78125 52.59375 
z
" id="DejaVuSans-99"/>
      <path id="DejaVuSans-32"/>
     </defs>
     <use xlink:href="#DejaVuSans-99"/>
     <use x="54.980469" xlink:href="#DejaVuSans-101"/>
     <use x="116.503906" xlink:href="#DejaVuSans-108"/>
     <use x="144.287109" xlink:href="#DejaVuSans-108"/>
     <use x="172.070312" xlink:href="#DejaVuSans-32"/>
     <use x="203.857422" xlink:href="#DejaVuSans-48"/>
    </g>
   </g>
   <g id="line2d_114">
    <path d="M 363.763475 44.654688 
L 383.763475 44.654688 
" style="fill:none;stroke:#f77277;stroke-linecap:square;stroke-width:1.5;"/>
   </g>
   <g id="line2d_115"/>
   <g id="text_16">
    <!-- cell 1 -->
    <g transform="translate(391.763475 48.154688)scale(0.1 -0.1)">
     <use xlink:href="#DejaVuSans-99"/>
     <use x="54.980469" xlink:href="#DejaVuSans-101"/>
     <use x="116.503906" xlink:href="#DejaVuSans-108"/>
     <use x="144.287109" xlink:href="#DejaVuSans-108"/>
     <use x="172.070312" xlink:href="#DejaVuSans-32"/>
     <use x="203.857422" xlink:href="#DejaVuSans-49"/>
    </g>
   </g>
   <g id="line2d_116">
    <path d="M 363.763475 59.332813 
L 383.763475 59.332813 
" style="fill:none;stroke:#f7745f;stroke-linecap:square;stroke-width:1.5;"/>
   </g>
   <g id="line2d_117"/>
   <g id="text_17">
    <!-- cell 2 -->
    <g transform="translate(391.763475 62.832813)scale(0.1 -0.1)">
     <use xlink:href="#DejaVuSans-99"/>
     <use x="54.980469" xlink:href="#DejaVuSans-101"/>
     <use x="116.503906" xlink:href="#DejaVuSans-108"/>
     <use x="144.287109" xlink:href="#DejaVuSans-108"/>
     <use x="172.070312" xlink:href="#DejaVuSans-32"/>
     <use x="203.857422" xlink:href="#DejaVuSans-50"/>
    </g>
   </g>
   <g id="line2d_118">
    <path d="M 363.763475 74.010938 
L 383.763475 74.010938 
" style="fill:none;stroke:#f87638;stroke-linecap:square;stroke-width:1.5;"/>
   </g>
   <g id="line2d_119"/>
   <g id="text_18">
    <!-- cell 3 -->
    <g transform="translate(391.763475 77.510938)scale(0.1 -0.1)">
     <defs>
      <path d="M 40.578125 39.3125 
Q 47.65625 37.796875 51.625 33 
Q 55.609375 28.21875 55.609375 21.1875 
Q 55.609375 10.40625 48.1875 4.484375 
Q 40.765625 -1.421875 27.09375 -1.421875 
Q 22.515625 -1.421875 17.65625 -0.515625 
Q 12.796875 0.390625 7.625 2.203125 
L 7.625 11.71875 
Q 11.71875 9.328125 16.59375 8.109375 
Q 21.484375 6.890625 26.8125 6.890625 
Q 36.078125 6.890625 40.9375 10.546875 
Q 45.796875 14.203125 45.796875 21.1875 
Q 45.796875 27.640625 41.28125 31.265625 
Q 36.765625 34.90625 28.71875 34.90625 
L 20.21875 34.90625 
L 20.21875 43.015625 
L 29.109375 43.015625 
Q 36.375 43.015625 40.234375 45.921875 
Q 44.09375 48.828125 44.09375 54.296875 
Q 44.09375 59.90625 40.109375 62.90625 
Q 36.140625 65.921875 28.71875 65.921875 
Q 24.65625 65.921875 20.015625 65.03125 
Q 15.375 64.15625 9.8125 62.3125 
L 9.8125 71.09375 
Q 15.4375 72.65625 20.34375 73.4375 
Q 25.25 74.21875 29.59375 74.21875 
Q 40.828125 74.21875 47.359375 69.109375 
Q 53.90625 64.015625 53.90625 55.328125 
Q 53.90625 49.265625 50.4375 45.09375 
Q 46.96875 40.921875 40.578125 39.3125 
z
" id="DejaVuSans-51"/>
     </defs>
     <use xlink:href="#DejaVuSans-99"/>
     <use x="54.980469" xlink:href="#DejaVuSans-101"/>
     <use x="116.503906" xlink:href="#DejaVuSans-108"/>
     <use x="144.287109" xlink:href="#DejaVuSans-108"/>
     <use x="172.070312" xlink:href="#DejaVuSans-32"/>
     <use x="203.857422" xlink:href="#DejaVuSans-51"/>
    </g>
   </g>
   <g id="line2d_120">
    <path d="M 363.763475 88.689063 
L 383.763475 88.689063 
" style="fill:none;stroke:#e98132;stroke-linecap:square;stroke-width:1.5;"/>
   </g>
   <g id="line2d_121"/>
   <g id="text_19">
    <!-- cell 4 -->
    <g transform="translate(391.763475 92.189063)scale(0.1 -0.1)">
     <use xlink:href="#DejaVuSans-99"/>
     <use x="54.980469" xlink:href="#DejaVuSans-101"/>
     <use x="116.503906" xlink:href="#DejaVuSans-108"/>
     <use x="144.287109" xlink:href="#DejaVuSans-108"/>
     <use x="172.070312" xlink:href="#DejaVuSans-32"/>
     <use x="203.857422" xlink:href="#DejaVuSans-52"/>
    </g>
   </g>
   <g id="line2d_122">
    <path d="M 363.763475 103.367188 
L 383.763475 103.367188 
" style="fill:none;stroke:#dc8932;stroke-linecap:square;stroke-width:1.5;"/>
   </g>
   <g id="line2d_123"/>
   <g id="text_20">
    <!-- cell 5 -->
    <g transform="translate(391.763475 106.867188)scale(0.1 -0.1)">
     <use xlink:href="#DejaVuSans-99"/>
     <use x="54.980469" xlink:href="#DejaVuSans-101"/>
     <use x="116.503906" xlink:href="#DejaVuSans-108"/>
     <use x="144.287109" xlink:href="#DejaVuSans-108"/>
     <use x="172.070312" xlink:href="#DejaVuSans-32"/>
     <use x="203.857422" xlink:href="#DejaVuSans-53"/>
    </g>
   </g>
   <g id="line2d_124">
    <path d="M 363.763475 118.045313 
L 383.763475 118.045313 
" style="fill:none;stroke:#d18e32;stroke-linecap:square;stroke-width:1.5;"/>
   </g>
   <g id="line2d_125"/>
   <g id="text_21">
    <!-- cell 6 -->
    <g transform="translate(391.763475 121.545313)scale(0.1 -0.1)">
     <use xlink:href="#DejaVuSans-99"/>
     <use x="54.980469" xlink:href="#DejaVuSans-101"/>
     <use x="116.503906" xlink:href="#DejaVuSans-108"/>
     <use x="144.287109" xlink:href="#DejaVuSans-108"/>
     <use x="172.070312" xlink:href="#DejaVuSans-32"/>
     <use x="203.857422" xlink:href="#DejaVuSans-54"/>
    </g>
   </g>
   <g id="line2d_126">
    <path d="M 363.763475 132.723438 
L 383.763475 132.723438 
" style="fill:none;stroke:#c79332;stroke-linecap:square;stroke-width:1.5;"/>
   </g>
   <g id="line2d_127"/>
   <g id="text_22">
    <!-- cell 7 -->
    <g transform="translate(391.763475 136.223438)scale(0.1 -0.1)">
     <defs>
      <path d="M 8.203125 72.90625 
L 55.078125 72.90625 
L 55.078125 68.703125 
L 28.609375 0 
L 18.3125 0 
L 43.21875 64.59375 
L 8.203125 64.59375 
z
" id="DejaVuSans-55"/>
     </defs>
     <use xlink:href="#DejaVuSans-99"/>
     <use x="54.980469" xlink:href="#DejaVuSans-101"/>
     <use x="116.503906" xlink:href="#DejaVuSans-108"/>
     <use x="144.287109" xlink:href="#DejaVuSans-108"/>
     <use x="172.070312" xlink:href="#DejaVuSans-32"/>
     <use x="203.857422" xlink:href="#DejaVuSans-55"/>
    </g>
   </g>
   <g id="line2d_128">
    <path d="M 363.763475 147.401563 
L 383.763475 147.401563 
" style="fill:none;stroke:#be9732;stroke-linecap:square;stroke-width:1.5;"/>
   </g>
   <g id="line2d_129"/>
   <g id="text_23">
    <!-- cell 8 -->
    <g transform="translate(391.763475 150.901563)scale(0.1 -0.1)">
     <defs>
      <path d="M 31.78125 34.625 
Q 24.75 34.625 20.71875 30.859375 
Q 16.703125 27.09375 16.703125 20.515625 
Q 16.703125 13.921875 20.71875 10.15625 
Q 24.75 6.390625 31.78125 6.390625 
Q 38.8125 6.390625 42.859375 10.171875 
Q 46.921875 13.96875 46.921875 20.515625 
Q 46.921875 27.09375 42.890625 30.859375 
Q 38.875 34.625 31.78125 34.625 
z
M 21.921875 38.8125 
Q 15.578125 40.375 12.03125 44.71875 
Q 8.5 49.078125 8.5 55.328125 
Q 8.5 64.0625 14.71875 69.140625 
Q 20.953125 74.21875 31.78125 74.21875 
Q 42.671875 74.21875 48.875 69.140625 
Q 55.078125 64.0625 55.078125 55.328125 
Q 55.078125 49.078125 51.53125 44.71875 
Q 48 40.375 41.703125 38.8125 
Q 48.828125 37.15625 52.796875 32.3125 
Q 56.78125 27.484375 56.78125 20.515625 
Q 56.78125 9.90625 50.3125 4.234375 
Q 43.84375 -1.421875 31.78125 -1.421875 
Q 19.734375 -1.421875 13.25 4.234375 
Q 6.78125 9.90625 6.78125 20.515625 
Q 6.78125 27.484375 10.78125 32.3125 
Q 14.796875 37.15625 21.921875 38.8125 
z
M 18.3125 54.390625 
Q 18.3125 48.734375 21.84375 45.5625 
Q 25.390625 42.390625 31.78125 42.390625 
Q 38.140625 42.390625 41.71875 45.5625 
Q 45.3125 48.734375 45.3125 54.390625 
Q 45.3125 60.0625 41.71875 63.234375 
Q 38.140625 66.40625 31.78125 66.40625 
Q 25.390625 66.40625 21.84375 63.234375 
Q 18.3125 60.0625 18.3125 54.390625 
z
" id="DejaVuSans-56"/>
     </defs>
     <use xlink:href="#DejaVuSans-99"/>
     <use x="54.980469" xlink:href="#DejaVuSans-101"/>
     <use x="116.503906" xlink:href="#DejaVuSans-108"/>
     <use x="144.287109" xlink:href="#DejaVuSans-108"/>
     <use x="172.070312" xlink:href="#DejaVuSans-32"/>
     <use x="203.857422" xlink:href="#DejaVuSans-56"/>
    </g>
   </g>
   <g id="line2d_130">
    <path d="M 363.763475 162.079687 
L 383.763475 162.079687 
" style="fill:none;stroke:#b69a32;stroke-linecap:square;stroke-width:1.5;"/>
   </g>
   <g id="line2d_131"/>
   <g id="text_24">
    <!-- cell 9 -->
    <g transform="translate(391.763475 165.579687)scale(0.1 -0.1)">
     <defs>
      <path d="M 10.984375 1.515625 
L 10.984375 10.5 
Q 14.703125 8.734375 18.5 7.8125 
Q 22.3125 6.890625 25.984375 6.890625 
Q 35.75 6.890625 40.890625 13.453125 
Q 46.046875 20.015625 46.78125 33.40625 
Q 43.953125 29.203125 39.59375 26.953125 
Q 35.25 24.703125 29.984375 24.703125 
Q 19.046875 24.703125 12.671875 31.3125 
Q 6.296875 37.9375 6.296875 49.421875 
Q 6.296875 60.640625 12.9375 67.421875 
Q 19.578125 74.21875 30.609375 74.21875 
Q 43.265625 74.21875 49.921875 64.515625 
Q 56.59375 54.828125 56.59375 36.375 
Q 56.59375 19.140625 48.40625 8.859375 
Q 40.234375 -1.421875 26.421875 -1.421875 
Q 22.703125 -1.421875 18.890625 -0.6875 
Q 15.09375 0.046875 10.984375 1.515625 
z
M 30.609375 32.421875 
Q 37.25 32.421875 41.125 36.953125 
Q 45.015625 41.5 45.015625 49.421875 
Q 45.015625 57.28125 41.125 61.84375 
Q 37.25 66.40625 30.609375 66.40625 
Q 23.96875 66.40625 20.09375 61.84375 
Q 16.21875 57.28125 16.21875 49.421875 
Q 16.21875 41.5 20.09375 36.953125 
Q 23.96875 32.421875 30.609375 32.421875 
z
" id="DejaVuSans-57"/>
     </defs>
     <use xlink:href="#DejaVuSans-99"/>
     <use x="54.980469" xlink:href="#DejaVuSans-101"/>
     <use x="116.503906" xlink:href="#DejaVuSans-108"/>
     <use x="144.287109" xlink:href="#DejaVuSans-108"/>
     <use x="172.070312" xlink:href="#DejaVuSans-32"/>
     <use x="203.857422" xlink:href="#DejaVuSans-57"/>
    </g>
   </g>
   <g id="line2d_132">
    <path d="M 363.763475 176.757812 
L 383.763475 176.757812 
" style="fill:none;stroke:#ae9d31;stroke-linecap:square;stroke-width:1.5;"/>
   </g>
   <g id="line2d_133"/>
   <g id="text_25">
    <!-- cell 30 -->
    <g transform="translate(391.763475 180.257812)scale(0.1 -0.1)">
     <use xlink:href="#DejaVuSans-99"/>
     <use x="54.980469" xlink:href="#DejaVuSans-101"/>
     <use x="116.503906" xlink:href="#DejaVuSans-108"/>
     <use x="144.287109" xlink:href="#DejaVuSans-108"/>
     <use x="172.070312" xlink:href="#DejaVuSans-32"/>
     <use x="203.857422" xlink:href="#DejaVuSans-51"/>
     <use x="267.480469" xlink:href="#DejaVuSans-48"/>
    </g>
   </g>
   <g id="line2d_134">
    <path d="M 363.763475 191.435938 
L 383.763475 191.435938 
" style="fill:none;stroke:#a5a031;stroke-linecap:square;stroke-width:1.5;"/>
   </g>
   <g id="line2d_135"/>
   <g id="text_26">
    <!-- cell 31 -->
    <g transform="translate(391.763475 194.935938)scale(0.1 -0.1)">
     <use xlink:href="#DejaVuSans-99"/>
     <use x="54.980469" xlink:href="#DejaVuSans-101"/>
     <use x="116.503906" xlink:href="#DejaVuSans-108"/>
     <use x="144.287109" xlink:href="#DejaVuSans-108"/>
     <use x="172.070312" xlink:href="#DejaVuSans-32"/>
     <use x="203.857422" xlink:href="#DejaVuSans-51"/>
     <use x="267.480469" xlink:href="#DejaVuSans-49"/>
    </g>
   </g>
   <g id="line2d_136">
    <path d="M 363.763475 206.114063 
L 383.763475 206.114063 
" style="fill:none;stroke:#9ca231;stroke-linecap:square;stroke-width:1.5;"/>
   </g>
   <g id="line2d_137"/>
   <g id="text_27">
    <!-- cell 32 -->
    <g transform="translate(391.763475 209.614063)scale(0.1 -0.1)">
     <use xlink:href="#DejaVuSans-99"/>
     <use x="54.980469" xlink:href="#DejaVuSans-101"/>
     <use x="116.503906" xlink:href="#DejaVuSans-108"/>
     <use x="144.287109" xlink:href="#DejaVuSans-108"/>
     <use x="172.070312" xlink:href="#DejaVuSans-32"/>
     <use x="203.857422" xlink:href="#DejaVuSans-51"/>
     <use x="267.480469" xlink:href="#DejaVuSans-50"/>
    </g>
   </g>
   <g id="line2d_138">
    <path d="M 363.763475 220.792188 
L 383.763475 220.792188 
" style="fill:none;stroke:#92a531;stroke-linecap:square;stroke-width:1.5;"/>
   </g>
   <g id="line2d_139"/>
   <g id="text_28">
    <!-- cell 33 -->
    <g transform="translate(391.763475 224.292188)scale(0.1 -0.1)">
     <use xlink:href="#DejaVuSans-99"/>
     <use x="54.980469" xlink:href="#DejaVuSans-101"/>
     <use x="116.503906" xlink:href="#DejaVuSans-108"/>
     <use x="144.287109" xlink:href="#DejaVuSans-108"/>
     <use x="172.070312" xlink:href="#DejaVuSans-32"/>
     <use x="203.857422" xlink:href="#DejaVuSans-51"/>
     <use x="267.480469" xlink:href="#DejaVuSans-51"/>
    </g>
   </g>
   <g id="line2d_140">
    <path d="M 363.763475 235.470312 
L 383.763475 235.470312 
" style="fill:none;stroke:#86a831;stroke-linecap:square;stroke-width:1.5;"/>
   </g>
   <g id="line2d_141"/>
   <g id="text_29">
    <!-- cell 34 -->
    <g transform="translate(391.763475 238.970312)scale(0.1 -0.1)">
     <use xlink:href="#DejaVuSans-99"/>
     <use x="54.980469" xlink:href="#DejaVuSans-101"/>
     <use x="116.503906" xlink:href="#DejaVuSans-108"/>
     <use x="144.287109" xlink:href="#DejaVuSans-108"/>
     <use x="172.070312" xlink:href="#DejaVuSans-32"/>
     <use x="203.857422" xlink:href="#DejaVuSans-51"/>
     <use x="267.480469" xlink:href="#DejaVuSans-52"/>
    </g>
   </g>
   <g id="line2d_142">
    <path d="M 363.763475 250.148438 
L 383.763475 250.148438 
" style="fill:none;stroke:#77ab31;stroke-linecap:square;stroke-width:1.5;"/>
   </g>
   <g id="line2d_143"/>
   <g id="text_30">
    <!-- cell 35 -->
    <g transform="translate(391.763475 253.648438)scale(0.1 -0.1)">
     <use xlink:href="#DejaVuSans-99"/>
     <use x="54.980469" xlink:href="#DejaVuSans-101"/>
     <use x="116.503906" xlink:href="#DejaVuSans-108"/>
     <use x="144.287109" xlink:href="#DejaVuSans-108"/>
     <use x="172.070312" xlink:href="#DejaVuSans-32"/>
     <use x="203.857422" xlink:href="#DejaVuSans-51"/>
     <use x="267.480469" xlink:href="#DejaVuSans-53"/>
    </g>
   </g>
   <g id="line2d_144">
    <path d="M 363.763475 264.826563 
L 383.763475 264.826563 
" style="fill:none;stroke:#63ae31;stroke-linecap:square;stroke-width:1.5;"/>
   </g>
   <g id="line2d_145"/>
   <g id="text_31">
    <!-- cell 36 -->
    <g transform="translate(391.763475 268.326563)scale(0.1 -0.1)">
     <use xlink:href="#DejaVuSans-99"/>
     <use x="54.980469" xlink:href="#DejaVuSans-101"/>
     <use x="116.503906" xlink:href="#DejaVuSans-108"/>
     <use x="144.287109" xlink:href="#DejaVuSans-108"/>
     <use x="172.070312" xlink:href="#DejaVuSans-32"/>
     <use x="203.857422" xlink:href="#DejaVuSans-51"/>
     <use x="267.480469" xlink:href="#DejaVuSans-54"/>
    </g>
   </g>
   <g id="line2d_146">
    <path d="M 363.763475 279.504687 
L 383.763475 279.504687 
" style="fill:none;stroke:#42b231;stroke-linecap:square;stroke-width:1.5;"/>
   </g>
   <g id="line2d_147"/>
   <g id="text_32">
    <!-- cell 37 -->
    <g transform="translate(391.763475 283.004687)scale(0.1 -0.1)">
     <use xlink:href="#DejaVuSans-99"/>
     <use x="54.980469" xlink:href="#DejaVuSans-101"/>
     <use x="116.503906" xlink:href="#DejaVuSans-108"/>
     <use x="144.287109" xlink:href="#DejaVuSans-108"/>
     <use x="172.070312" xlink:href="#DejaVuSans-32"/>
     <use x="203.857422" xlink:href="#DejaVuSans-51"/>
     <use x="267.480469" xlink:href="#DejaVuSans-55"/>
    </g>
   </g>
   <g id="line2d_148">
    <path d="M 363.763475 294.182813 
L 383.763475 294.182813 
" style="fill:none;stroke:#32b252;stroke-linecap:square;stroke-width:1.5;"/>
   </g>
   <g id="line2d_149"/>
   <g id="text_33">
    <!-- cell 38 -->
    <g transform="translate(391.763475 297.682813)scale(0.1 -0.1)">
     <use xlink:href="#DejaVuSans-99"/>
     <use x="54.980469" xlink:href="#DejaVuSans-101"/>
     <use x="116.503906" xlink:href="#DejaVuSans-108"/>
     <use x="144.287109" xlink:href="#DejaVuSans-108"/>
     <use x="172.070312" xlink:href="#DejaVuSans-32"/>
     <use x="203.857422" xlink:href="#DejaVuSans-51"/>
     <use x="267.480469" xlink:href="#DejaVuSans-56"/>
    </g>
   </g>
   <g id="line2d_150">
    <path d="M 363.763475 308.860938 
L 383.763475 308.860938 
" style="fill:none;stroke:#33b16b;stroke-linecap:square;stroke-width:1.5;"/>
   </g>
   <g id="line2d_151"/>
   <g id="text_34">
    <!-- cell 39 -->
    <g transform="translate(391.763475 312.360938)scale(0.1 -0.1)">
     <use xlink:href="#DejaVuSans-99"/>
     <use x="54.980469" xlink:href="#DejaVuSans-101"/>
     <use x="116.503906" xlink:href="#DejaVuSans-108"/>
     <use x="144.287109" xlink:href="#DejaVuSans-108"/>
     <use x="172.070312" xlink:href="#DejaVuSans-32"/>
     <use x="203.857422" xlink:href="#DejaVuSans-51"/>
     <use x="267.480469" xlink:href="#DejaVuSans-57"/>
    </g>
   </g>
   <g id="line2d_152">
    <path d="M 363.763475 323.539063 
L 383.763475 323.539063 
" style="fill:none;stroke:#33b07a;stroke-linecap:square;stroke-width:1.5;"/>
   </g>
   <g id="line2d_153"/>
   <g id="text_35">
    <!-- cell 40 -->
    <g transform="translate(391.763475 327.039063)scale(0.1 -0.1)">
     <use xlink:href="#DejaVuSans-99"/>
     <use x="54.980469" xlink:href="#DejaVuSans-101"/>
     <use x="116.503906" xlink:href="#DejaVuSans-108"/>
     <use x="144.287109" xlink:href="#DejaVuSans-108"/>
     <use x="172.070312" xlink:href="#DejaVuSans-32"/>
     <use x="203.857422" xlink:href="#DejaVuSans-52"/>
     <use x="267.480469" xlink:href="#DejaVuSans-48"/>
    </g>
   </g>
   <g id="line2d_154">
    <path d="M 363.763475 338.217188 
L 383.763475 338.217188 
" style="fill:none;stroke:#34af86;stroke-linecap:square;stroke-width:1.5;"/>
   </g>
   <g id="line2d_155"/>
   <g id="text_36">
    <!-- cell 41 -->
    <g transform="translate(391.763475 341.717188)scale(0.1 -0.1)">
     <use xlink:href="#DejaVuSans-99"/>
     <use x="54.980469" xlink:href="#DejaVuSans-101"/>
     <use x="116.503906" xlink:href="#DejaVuSans-108"/>
     <use x="144.287109" xlink:href="#DejaVuSans-108"/>
     <use x="172.070312" xlink:href="#DejaVuSans-32"/>
     <use x="203.857422" xlink:href="#DejaVuSans-52"/>
     <use x="267.480469" xlink:href="#DejaVuSans-49"/>
    </g>
   </g>
   <g id="line2d_156">
    <path d="M 363.763475 352.895313 
L 383.763475 352.895313 
" style="fill:none;stroke:#34af8f;stroke-linecap:square;stroke-width:1.5;"/>
   </g>
   <g id="line2d_157"/>
   <g id="text_37">
    <!-- cell 42 -->
    <g transform="translate(391.763475 356.395313)scale(0.1 -0.1)">
     <use xlink:href="#DejaVuSans-99"/>
     <use x="54.980469" xlink:href="#DejaVuSans-101"/>
     <use x="116.503906" xlink:href="#DejaVuSans-108"/>
     <use x="144.287109" xlink:href="#DejaVuSans-108"/>
     <use x="172.070312" xlink:href="#DejaVuSans-32"/>
     <use x="203.857422" xlink:href="#DejaVuSans-52"/>
     <use x="267.480469" xlink:href="#DejaVuSans-50"/>
    </g>
   </g>
   <g id="line2d_158">
    <path d="M 363.763475 367.573438 
L 383.763475 367.573438 
" style="fill:none;stroke:#35ae97;stroke-linecap:square;stroke-width:1.5;"/>
   </g>
   <g id="line2d_159"/>
   <g id="text_38">
    <!-- cell 43 -->
    <g transform="translate(391.763475 371.073438)scale(0.1 -0.1)">
     <use xlink:href="#DejaVuSans-99"/>
     <use x="54.980469" xlink:href="#DejaVuSans-101"/>
     <use x="116.503906" xlink:href="#DejaVuSans-108"/>
     <use x="144.287109" xlink:href="#DejaVuSans-108"/>
     <use x="172.070312" xlink:href="#DejaVuSans-32"/>
     <use x="203.857422" xlink:href="#DejaVuSans-52"/>
     <use x="267.480469" xlink:href="#DejaVuSans-51"/>
    </g>
   </g>
   <g id="line2d_160">
    <path d="M 363.763475 382.251563 
L 383.763475 382.251563 
" style="fill:none;stroke:#35ad9e;stroke-linecap:square;stroke-width:1.5;"/>
   </g>
   <g id="line2d_161"/>
   <g id="text_39">
    <!-- cell 44 -->
    <g transform="translate(391.763475 385.751563)scale(0.1 -0.1)">
     <use xlink:href="#DejaVuSans-99"/>
     <use x="54.980469" xlink:href="#DejaVuSans-101"/>
     <use x="116.503906" xlink:href="#DejaVuSans-108"/>
     <use x="144.287109" xlink:href="#DejaVuSans-108"/>
     <use x="172.070312" xlink:href="#DejaVuSans-32"/>
     <use x="203.857422" xlink:href="#DejaVuSans-52"/>
     <use x="267.480469" xlink:href="#DejaVuSans-52"/>
    </g>
   </g>
   <g id="line2d_162">
    <path d="M 363.763475 396.929688 
L 383.763475 396.929688 
" style="fill:none;stroke:#36ada4;stroke-linecap:square;stroke-width:1.5;"/>
   </g>
   <g id="line2d_163"/>
   <g id="text_40">
    <!-- cell 45 -->
    <g transform="translate(391.763475 400.429688)scale(0.1 -0.1)">
     <use xlink:href="#DejaVuSans-99"/>
     <use x="54.980469" xlink:href="#DejaVuSans-101"/>
     <use x="116.503906" xlink:href="#DejaVuSans-108"/>
     <use x="144.287109" xlink:href="#DejaVuSans-108"/>
     <use x="172.070312" xlink:href="#DejaVuSans-32"/>
     <use x="203.857422" xlink:href="#DejaVuSans-52"/>
     <use x="267.480469" xlink:href="#DejaVuSans-53"/>
    </g>
   </g>
   <g id="line2d_164">
    <path d="M 363.763475 411.607813 
L 383.763475 411.607813 
" style="fill:none;stroke:#36acaa;stroke-linecap:square;stroke-width:1.5;"/>
   </g>
   <g id="line2d_165"/>
   <g id="text_41">
    <!-- cell 46 -->
    <g transform="translate(391.763475 415.107813)scale(0.1 -0.1)">
     <use xlink:href="#DejaVuSans-99"/>
     <use x="54.980469" xlink:href="#DejaVuSans-101"/>
     <use x="116.503906" xlink:href="#DejaVuSans-108"/>
     <use x="144.287109" xlink:href="#DejaVuSans-108"/>
     <use x="172.070312" xlink:href="#DejaVuSans-32"/>
     <use x="203.857422" xlink:href="#DejaVuSans-52"/>
     <use x="267.480469" xlink:href="#DejaVuSans-54"/>
    </g>
   </g>
   <g id="line2d_166">
    <path d="M 363.763475 426.285938 
L 383.763475 426.285938 
" style="fill:none;stroke:#37abb0;stroke-linecap:square;stroke-width:1.5;"/>
   </g>
   <g id="line2d_167"/>
   <g id="text_42">
    <!-- cell 47 -->
    <g transform="translate(391.763475 429.785938)scale(0.1 -0.1)">
     <use xlink:href="#DejaVuSans-99"/>
     <use x="54.980469" xlink:href="#DejaVuSans-101"/>
     <use x="116.503906" xlink:href="#DejaVuSans-108"/>
     <use x="144.287109" xlink:href="#DejaVuSans-108"/>
     <use x="172.070312" xlink:href="#DejaVuSans-32"/>
     <use x="203.857422" xlink:href="#DejaVuSans-52"/>
     <use x="267.480469" xlink:href="#DejaVuSans-55"/>
    </g>
   </g>
   <g id="line2d_168">
    <path d="M 363.763475 440.964063 
L 383.763475 440.964063 
" style="fill:none;stroke:#37abb7;stroke-linecap:square;stroke-width:1.5;"/>
   </g>
   <g id="line2d_169"/>
   <g id="text_43">
    <!-- cell 48 -->
    <g transform="translate(391.763475 444.464063)scale(0.1 -0.1)">
     <use xlink:href="#DejaVuSans-99"/>
     <use x="54.980469" xlink:href="#DejaVuSans-101"/>
     <use x="116.503906" xlink:href="#DejaVuSans-108"/>
     <use x="144.287109" xlink:href="#DejaVuSans-108"/>
     <use x="172.070312" xlink:href="#DejaVuSans-32"/>
     <use x="203.857422" xlink:href="#DejaVuSans-52"/>
     <use x="267.480469" xlink:href="#DejaVuSans-56"/>
    </g>
   </g>
   <g id="line2d_170">
    <path d="M 363.763475 455.642188 
L 383.763475 455.642188 
" style="fill:none;stroke:#37aabe;stroke-linecap:square;stroke-width:1.5;"/>
   </g>
   <g id="line2d_171"/>
   <g id="text_44">
    <!-- cell 49 -->
    <g transform="translate(391.763475 459.142188)scale(0.1 -0.1)">
     <use xlink:href="#DejaVuSans-99"/>
     <use x="54.980469" xlink:href="#DejaVuSans-101"/>
     <use x="116.503906" xlink:href="#DejaVuSans-108"/>
     <use x="144.287109" xlink:href="#DejaVuSans-108"/>
     <use x="172.070312" xlink:href="#DejaVuSans-32"/>
     <use x="203.857422" xlink:href="#DejaVuSans-52"/>
     <use x="267.480469" xlink:href="#DejaVuSans-57"/>
    </g>
   </g>
   <g id="line2d_172">
    <path d="M 363.763475 470.320313 
L 383.763475 470.320313 
" style="fill:none;stroke:#38a9c5;stroke-linecap:square;stroke-width:1.5;"/>
   </g>
   <g id="line2d_173"/>
   <g id="text_45">
    <!-- cell 20 -->
    <g transform="translate(391.763475 473.820313)scale(0.1 -0.1)">
     <use xlink:href="#DejaVuSans-99"/>
     <use x="54.980469" xlink:href="#DejaVuSans-101"/>
     <use x="116.503906" xlink:href="#DejaVuSans-108"/>
     <use x="144.287109" xlink:href="#DejaVuSans-108"/>
     <use x="172.070312" xlink:href="#DejaVuSans-32"/>
     <use x="203.857422" xlink:href="#DejaVuSans-50"/>
     <use x="267.480469" xlink:href="#DejaVuSans-48"/>
    </g>
   </g>
   <g id="line2d_174">
    <path d="M 363.763475 484.998438 
L 383.763475 484.998438 
" style="fill:none;stroke:#39a8ce;stroke-linecap:square;stroke-width:1.5;"/>
   </g>
   <g id="line2d_175"/>
   <g id="text_46">
    <!-- cell 21 -->
    <g transform="translate(391.763475 488.498438)scale(0.1 -0.1)">
     <use xlink:href="#DejaVuSans-99"/>
     <use x="54.980469" xlink:href="#DejaVuSans-101"/>
     <use x="116.503906" xlink:href="#DejaVuSans-108"/>
     <use x="144.287109" xlink:href="#DejaVuSans-108"/>
     <use x="172.070312" xlink:href="#DejaVuSans-32"/>
     <use x="203.857422" xlink:href="#DejaVuSans-50"/>
     <use x="267.480469" xlink:href="#DejaVuSans-49"/>
    </g>
   </g>
   <g id="line2d_176">
    <path d="M 363.763475 499.676563 
L 383.763475 499.676563 
" style="fill:none;stroke:#3aa6d9;stroke-linecap:square;stroke-width:1.5;"/>
   </g>
   <g id="line2d_177"/>
   <g id="text_47">
    <!-- cell 22 -->
    <g transform="translate(391.763475 503.176563)scale(0.1 -0.1)">
     <use xlink:href="#DejaVuSans-99"/>
     <use x="54.980469" xlink:href="#DejaVuSans-101"/>
     <use x="116.503906" xlink:href="#DejaVuSans-108"/>
     <use x="144.287109" xlink:href="#DejaVuSans-108"/>
     <use x="172.070312" xlink:href="#DejaVuSans-32"/>
     <use x="203.857422" xlink:href="#DejaVuSans-50"/>
     <use x="267.480469" xlink:href="#DejaVuSans-50"/>
    </g>
   </g>
   <g id="line2d_178">
    <path d="M 363.763475 514.354688 
L 383.763475 514.354688 
" style="fill:none;stroke:#3ba4e6;stroke-linecap:square;stroke-width:1.5;"/>
   </g>
   <g id="line2d_179"/>
   <g id="text_48">
    <!-- cell 23 -->
    <g transform="translate(391.763475 517.854688)scale(0.1 -0.1)">
     <use xlink:href="#DejaVuSans-99"/>
     <use x="54.980469" xlink:href="#DejaVuSans-101"/>
     <use x="116.503906" xlink:href="#DejaVuSans-108"/>
     <use x="144.287109" xlink:href="#DejaVuSans-108"/>
     <use x="172.070312" xlink:href="#DejaVuSans-32"/>
     <use x="203.857422" xlink:href="#DejaVuSans-50"/>
     <use x="267.480469" xlink:href="#DejaVuSans-51"/>
    </g>
   </g>
   <g id="line2d_180">
    <path d="M 363.763475 529.032813 
L 383.763475 529.032813 
" style="fill:none;stroke:#4aa0f4;stroke-linecap:square;stroke-width:1.5;"/>
   </g>
   <g id="line2d_181"/>
   <g id="text_49">
    <!-- cell 24 -->
    <g transform="translate(391.763475 532.532813)scale(0.1 -0.1)">
     <use xlink:href="#DejaVuSans-99"/>
     <use x="54.980469" xlink:href="#DejaVuSans-101"/>
     <use x="116.503906" xlink:href="#DejaVuSans-108"/>
     <use x="144.287109" xlink:href="#DejaVuSans-108"/>
     <use x="172.070312" xlink:href="#DejaVuSans-32"/>
     <use x="203.857422" xlink:href="#DejaVuSans-50"/>
     <use x="267.480469" xlink:href="#DejaVuSans-52"/>
    </g>
   </g>
   <g id="line2d_182">
    <path d="M 363.763475 543.710938 
L 383.763475 543.710938 
" style="fill:none;stroke:#6e9bf4;stroke-linecap:square;stroke-width:1.5;"/>
   </g>
   <g id="line2d_183"/>
   <g id="text_50">
    <!-- cell 25 -->
    <g transform="translate(391.763475 547.210938)scale(0.1 -0.1)">
     <use xlink:href="#DejaVuSans-99"/>
     <use x="54.980469" xlink:href="#DejaVuSans-101"/>
     <use x="116.503906" xlink:href="#DejaVuSans-108"/>
     <use x="144.287109" xlink:href="#DejaVuSans-108"/>
     <use x="172.070312" xlink:href="#DejaVuSans-32"/>
     <use x="203.857422" xlink:href="#DejaVuSans-50"/>
     <use x="267.480469" xlink:href="#DejaVuSans-53"/>
    </g>
   </g>
   <g id="line2d_184">
    <path d="M 363.763475 558.389063 
L 383.763475 558.389063 
" style="fill:none;stroke:#8795f4;stroke-linecap:square;stroke-width:1.5;"/>
   </g>
   <g id="line2d_185"/>
   <g id="text_51">
    <!-- cell 26 -->
    <g transform="translate(391.763475 561.889063)scale(0.1 -0.1)">
     <use xlink:href="#DejaVuSans-99"/>
     <use x="54.980469" xlink:href="#DejaVuSans-101"/>
     <use x="116.503906" xlink:href="#DejaVuSans-108"/>
     <use x="144.287109" xlink:href="#DejaVuSans-108"/>
     <use x="172.070312" xlink:href="#DejaVuSans-32"/>
     <use x="203.857422" xlink:href="#DejaVuSans-50"/>
     <use x="267.480469" xlink:href="#DejaVuSans-54"/>
    </g>
   </g>
   <g id="line2d_186">
    <path d="M 363.763475 573.067188 
L 383.763475 573.067188 
" style="fill:none;stroke:#9b8ff4;stroke-linecap:square;stroke-width:1.5;"/>
   </g>
   <g id="line2d_187"/>
   <g id="text_52">
    <!-- cell 27 -->
    <g transform="translate(391.763475 576.567188)scale(0.1 -0.1)">
     <use xlink:href="#DejaVuSans-99"/>
     <use x="54.980469" xlink:href="#DejaVuSans-101"/>
     <use x="116.503906" xlink:href="#DejaVuSans-108"/>
     <use x="144.287109" xlink:href="#DejaVuSans-108"/>
     <use x="172.070312" xlink:href="#DejaVuSans-32"/>
     <use x="203.857422" xlink:href="#DejaVuSans-50"/>
     <use x="267.480469" xlink:href="#DejaVuSans-55"/>
    </g>
   </g>
   <g id="line2d_188">
    <path d="M 363.763475 587.745313 
L 383.763475 587.745313 
" style="fill:none;stroke:#ac89f4;stroke-linecap:square;stroke-width:1.5;"/>
   </g>
   <g id="line2d_189"/>
   <g id="text_53">
    <!-- cell 28 -->
    <g transform="translate(391.763475 591.245313)scale(0.1 -0.1)">
     <use xlink:href="#DejaVuSans-99"/>
     <use x="54.980469" xlink:href="#DejaVuSans-101"/>
     <use x="116.503906" xlink:href="#DejaVuSans-108"/>
     <use x="144.287109" xlink:href="#DejaVuSans-108"/>
     <use x="172.070312" xlink:href="#DejaVuSans-32"/>
     <use x="203.857422" xlink:href="#DejaVuSans-50"/>
     <use x="267.480469" xlink:href="#DejaVuSans-56"/>
    </g>
   </g>
   <g id="line2d_190">
    <path d="M 363.763475 602.423438 
L 383.763475 602.423438 
" style="fill:none;stroke:#bc82f4;stroke-linecap:square;stroke-width:1.5;"/>
   </g>
   <g id="line2d_191"/>
   <g id="text_54">
    <!-- cell 29 -->
    <g transform="translate(391.763475 605.923438)scale(0.1 -0.1)">
     <use xlink:href="#DejaVuSans-99"/>
     <use x="54.980469" xlink:href="#DejaVuSans-101"/>
     <use x="116.503906" xlink:href="#DejaVuSans-108"/>
     <use x="144.287109" xlink:href="#DejaVuSans-108"/>
     <use x="172.070312" xlink:href="#DejaVuSans-32"/>
     <use x="203.857422" xlink:href="#DejaVuSans-50"/>
     <use x="267.480469" xlink:href="#DejaVuSans-57"/>
    </g>
   </g>
   <g id="line2d_192">
    <path d="M 363.763475 617.101563 
L 383.763475 617.101563 
" style="fill:none;stroke:#cc7af4;stroke-linecap:square;stroke-width:1.5;"/>
   </g>
   <g id="line2d_193"/>
   <g id="text_55">
    <!-- cell 10 -->
    <g transform="translate(391.763475 620.601563)scale(0.1 -0.1)">
     <use xlink:href="#DejaVuSans-99"/>
     <use x="54.980469" xlink:href="#DejaVuSans-101"/>
     <use x="116.503906" xlink:href="#DejaVuSans-108"/>
     <use x="144.287109" xlink:href="#DejaVuSans-108"/>
     <use x="172.070312" xlink:href="#DejaVuSans-32"/>
     <use x="203.857422" xlink:href="#DejaVuSans-49"/>
     <use x="267.480469" xlink:href="#DejaVuSans-48"/>
    </g>
   </g>
   <g id="line2d_194">
    <path d="M 363.763475 631.779688 
L 383.763475 631.779688 
" style="fill:none;stroke:#dc6ff4;stroke-linecap:square;stroke-width:1.5;"/>
   </g>
   <g id="line2d_195"/>
   <g id="text_56">
    <!-- cell 11 -->
    <g transform="translate(391.763475 635.279688)scale(0.1 -0.1)">
     <use xlink:href="#DejaVuSans-99"/>
     <use x="54.980469" xlink:href="#DejaVuSans-101"/>
     <use x="116.503906" xlink:href="#DejaVuSans-108"/>
     <use x="144.287109" xlink:href="#DejaVuSans-108"/>
     <use x="172.070312" xlink:href="#DejaVuSans-32"/>
     <use x="203.857422" xlink:href="#DejaVuSans-49"/>
     <use x="267.480469" xlink:href="#DejaVuSans-49"/>
    </g>
   </g>
   <g id="line2d_196">
    <path d="M 363.763475 646.457813 
L 383.763475 646.457813 
" style="fill:none;stroke:#ee61f4;stroke-linecap:square;stroke-width:1.5;"/>
   </g>
   <g id="line2d_197"/>
   <g id="text_57">
    <!-- cell 12 -->
    <g transform="translate(391.763475 649.957813)scale(0.1 -0.1)">
     <use xlink:href="#DejaVuSans-99"/>
     <use x="54.980469" xlink:href="#DejaVuSans-101"/>
     <use x="116.503906" xlink:href="#DejaVuSans-108"/>
     <use x="144.287109" xlink:href="#DejaVuSans-108"/>
     <use x="172.070312" xlink:href="#DejaVuSans-32"/>
     <use x="203.857422" xlink:href="#DejaVuSans-49"/>
     <use x="267.480469" xlink:href="#DejaVuSans-50"/>
    </g>
   </g>
   <g id="line2d_198">
    <path d="M 363.763475 661.135938 
L 383.763475 661.135938 
" style="fill:none;stroke:#f55ee9;stroke-linecap:square;stroke-width:1.5;"/>
   </g>
   <g id="line2d_199"/>
   <g id="text_58">
    <!-- cell 13 -->
    <g transform="translate(391.763475 664.635938)scale(0.1 -0.1)">
     <use xlink:href="#DejaVuSans-99"/>
     <use x="54.980469" xlink:href="#DejaVuSans-101"/>
     <use x="116.503906" xlink:href="#DejaVuSans-108"/>
     <use x="144.287109" xlink:href="#DejaVuSans-108"/>
     <use x="172.070312" xlink:href="#DejaVuSans-32"/>
     <use x="203.857422" xlink:href="#DejaVuSans-49"/>
     <use x="267.480469" xlink:href="#DejaVuSans-51"/>
    </g>
   </g>
   <g id="line2d_200">
    <path d="M 363.763475 675.814063 
L 383.763475 675.814063 
" style="fill:none;stroke:#f562da;stroke-linecap:square;stroke-width:1.5;"/>
   </g>
   <g id="line2d_201"/>
   <g id="text_59">
    <!-- cell 14 -->
    <g transform="translate(391.763475 679.314063)scale(0.1 -0.1)">
     <use xlink:href="#DejaVuSans-99"/>
     <use x="54.980469" xlink:href="#DejaVuSans-101"/>
     <use x="116.503906" xlink:href="#DejaVuSans-108"/>
     <use x="144.287109" xlink:href="#DejaVuSans-108"/>
     <use x="172.070312" xlink:href="#DejaVuSans-32"/>
     <use x="203.857422" xlink:href="#DejaVuSans-49"/>
     <use x="267.480469" xlink:href="#DejaVuSans-52"/>
    </g>
   </g>
   <g id="line2d_202">
    <path d="M 363.763475 690.492188 
L 383.763475 690.492188 
" style="fill:none;stroke:#f565cc;stroke-linecap:square;stroke-width:1.5;"/>
   </g>
   <g id="line2d_203"/>
   <g id="text_60">
    <!-- cell 15 -->
    <g transform="translate(391.763475 693.992188)scale(0.1 -0.1)">
     <use xlink:href="#DejaVuSans-99"/>
     <use x="54.980469" xlink:href="#DejaVuSans-101"/>
     <use x="116.503906" xlink:href="#DejaVuSans-108"/>
     <use x="144.287109" xlink:href="#DejaVuSans-108"/>
     <use x="172.070312" xlink:href="#DejaVuSans-32"/>
     <use x="203.857422" xlink:href="#DejaVuSans-49"/>
     <use x="267.480469" xlink:href="#DejaVuSans-53"/>
    </g>
   </g>
   <g id="line2d_204">
    <path d="M 363.763475 705.170313 
L 383.763475 705.170313 
" style="fill:none;stroke:#f668c0;stroke-linecap:square;stroke-width:1.5;"/>
   </g>
   <g id="line2d_205"/>
   <g id="text_61">
    <!-- cell 16 -->
    <g transform="translate(391.763475 708.670313)scale(0.1 -0.1)">
     <use xlink:href="#DejaVuSans-99"/>
     <use x="54.980469" xlink:href="#DejaVuSans-101"/>
     <use x="116.503906" xlink:href="#DejaVuSans-108"/>
     <use x="144.287109" xlink:href="#DejaVuSans-108"/>
     <use x="172.070312" xlink:href="#DejaVuSans-32"/>
     <use x="203.857422" xlink:href="#DejaVuSans-49"/>
     <use x="267.480469" xlink:href="#DejaVuSans-54"/>
    </g>
   </g>
   <g id="line2d_206">
    <path d="M 363.763475 719.848438 
L 383.763475 719.848438 
" style="fill:none;stroke:#f66ab3;stroke-linecap:square;stroke-width:1.5;"/>
   </g>
   <g id="line2d_207"/>
   <g id="text_62">
    <!-- cell 17 -->
    <g transform="translate(391.763475 723.348438)scale(0.1 -0.1)">
     <use xlink:href="#DejaVuSans-99"/>
     <use x="54.980469" xlink:href="#DejaVuSans-101"/>
     <use x="116.503906" xlink:href="#DejaVuSans-108"/>
     <use x="144.287109" xlink:href="#DejaVuSans-108"/>
     <use x="172.070312" xlink:href="#DejaVuSans-32"/>
     <use x="203.857422" xlink:href="#DejaVuSans-49"/>
     <use x="267.480469" xlink:href="#DejaVuSans-55"/>
    </g>
   </g>
   <g id="line2d_208">
    <path d="M 363.763475 734.526563 
L 383.763475 734.526563 
" style="fill:none;stroke:#f66ca7;stroke-linecap:square;stroke-width:1.5;"/>
   </g>
   <g id="line2d_209"/>
   <g id="text_63">
    <!-- cell 18 -->
    <g transform="translate(391.763475 738.026563)scale(0.1 -0.1)">
     <use xlink:href="#DejaVuSans-99"/>
     <use x="54.980469" xlink:href="#DejaVuSans-101"/>
     <use x="116.503906" xlink:href="#DejaVuSans-108"/>
     <use x="144.287109" xlink:href="#DejaVuSans-108"/>
     <use x="172.070312" xlink:href="#DejaVuSans-32"/>
     <use x="203.857422" xlink:href="#DejaVuSans-49"/>
     <use x="267.480469" xlink:href="#DejaVuSans-56"/>
    </g>
   </g>
   <g id="line2d_210">
    <path d="M 363.763475 749.204688 
L 383.763475 749.204688 
" style="fill:none;stroke:#f76e9a;stroke-linecap:square;stroke-width:1.5;"/>
   </g>
   <g id="line2d_211"/>
   <g id="text_64">
    <!-- cell 19 -->
    <g transform="translate(391.763475 752.704688)scale(0.1 -0.1)">
     <use xlink:href="#DejaVuSans-99"/>
     <use x="54.980469" xlink:href="#DejaVuSans-101"/>
     <use x="116.503906" xlink:href="#DejaVuSans-108"/>
     <use x="144.287109" xlink:href="#DejaVuSans-108"/>
     <use x="172.070312" xlink:href="#DejaVuSans-32"/>
     <use x="203.857422" xlink:href="#DejaVuSans-49"/>
     <use x="267.480469" xlink:href="#DejaVuSans-57"/>
    </g>
   </g>
  </g>
 </g>
 <defs>
  <clipPath id="p5214499835">
   <rect height="321.32" width="309.2804" x="48.982813" y="213.792188"/>
  </clipPath>
 </defs>
</svg>
