<?xml version="1.0" encoding="utf-8" standalone="no"?>
<!DOCTYPE svg PUBLIC "-//W3C//DTD SVG 1.1//EN"
  "http://www.w3.org/Graphics/SVG/1.1/DTD/svg11.dtd">
<!-- Created with matplotlib (https://matplotlib.org/) -->
<svg height="366.07625pt" version="1.1" viewBox="0 0 428.175775 366.07625" width="428.175775pt" xmlns="http://www.w3.org/2000/svg" xmlns:xlink="http://www.w3.org/1999/xlink">
 <metadata>
  <rdf:RDF xmlns:cc="http://creativecommons.org/ns#" xmlns:dc="http://purl.org/dc/elements/1.1/" xmlns:rdf="http://www.w3.org/1999/02/22-rdf-syntax-ns#">
   <cc:Work>
    <dc:type rdf:resource="http://purl.org/dc/dcmitype/StillImage"/>
    <dc:date>2021-01-15T15:47:38.365740</dc:date>
    <dc:format>image/svg+xml</dc:format>
    <dc:creator>
     <cc:Agent>
      <dc:title>Matplotlib v3.3.2, https://matplotlib.org/</dc:title>
     </cc:Agent>
    </dc:creator>
   </cc:Work>
  </rdf:RDF>
 </metadata>
 <defs>
  <style type="text/css">*{stroke-linecap:butt;stroke-linejoin:round;}</style>
 </defs>
 <g id="figure_1">
  <g id="patch_1">
   <path d="M 0 366.07625 
L 428.175775 366.07625 
L 428.175775 0 
L 0 0 
z
" style="fill:#ffffff;"/>
  </g>
  <g id="axes_1">
   <g id="patch_2">
    <path d="M 48.982813 328.52 
L 359.018475 328.52 
L 359.018475 7.2 
L 48.982813 7.2 
z
" style="fill:#ffffff;"/>
   </g>
   <g id="matplotlib.axis_1">
    <g id="xtick_1">
     <g id="line2d_1">
      <defs>
       <path d="M 0 0 
L 0 3.5 
" id="m2cb6aac0af" style="stroke:#000000;stroke-width:0.8;"/>
      </defs>
      <g>
       <use style="stroke:#000000;stroke-width:0.8;" x="63.075343" xlink:href="#m2cb6aac0af" y="328.52"/>
      </g>
     </g>
     <g id="text_1">
      <!-- 0 -->
      <g transform="translate(59.894093 343.118437)scale(0.1 -0.1)">
       <defs>
        <path d="M 31.78125 66.40625 
Q 24.171875 66.40625 20.328125 58.90625 
Q 16.5 51.421875 16.5 36.375 
Q 16.5 21.390625 20.328125 13.890625 
Q 24.171875 6.390625 31.78125 6.390625 
Q 39.453125 6.390625 43.28125 13.890625 
Q 47.125 21.390625 47.125 36.375 
Q 47.125 51.421875 43.28125 58.90625 
Q 39.453125 66.40625 31.78125 66.40625 
z
M 31.78125 74.21875 
Q 44.046875 74.21875 50.515625 64.515625 
Q 56.984375 54.828125 56.984375 36.375 
Q 56.984375 17.96875 50.515625 8.265625 
Q 44.046875 -1.421875 31.78125 -1.421875 
Q 19.53125 -1.421875 13.0625 8.265625 
Q 6.59375 17.96875 6.59375 36.375 
Q 6.59375 54.828125 13.0625 64.515625 
Q 19.53125 74.21875 31.78125 74.21875 
z
" id="DejaVuSans-48"/>
       </defs>
       <use xlink:href="#DejaVuSans-48"/>
      </g>
     </g>
    </g>
    <g id="xtick_2">
     <g id="line2d_2">
      <g>
       <use style="stroke:#000000;stroke-width:0.8;" x="119.516014" xlink:href="#m2cb6aac0af" y="328.52"/>
      </g>
     </g>
     <g id="text_2">
      <!-- 20 -->
      <g transform="translate(113.153514 343.118437)scale(0.1 -0.1)">
       <defs>
        <path d="M 19.1875 8.296875 
L 53.609375 8.296875 
L 53.609375 0 
L 7.328125 0 
L 7.328125 8.296875 
Q 12.9375 14.109375 22.625 23.890625 
Q 32.328125 33.6875 34.8125 36.53125 
Q 39.546875 41.84375 41.421875 45.53125 
Q 43.3125 49.21875 43.3125 52.78125 
Q 43.3125 58.59375 39.234375 62.25 
Q 35.15625 65.921875 28.609375 65.921875 
Q 23.96875 65.921875 18.8125 64.3125 
Q 13.671875 62.703125 7.8125 59.421875 
L 7.8125 69.390625 
Q 13.765625 71.78125 18.9375 73 
Q 24.125 74.21875 28.421875 74.21875 
Q 39.75 74.21875 46.484375 68.546875 
Q 53.21875 62.890625 53.21875 53.421875 
Q 53.21875 48.921875 51.53125 44.890625 
Q 49.859375 40.875 45.40625 35.40625 
Q 44.1875 33.984375 37.640625 27.21875 
Q 31.109375 20.453125 19.1875 8.296875 
z
" id="DejaVuSans-50"/>
       </defs>
       <use xlink:href="#DejaVuSans-50"/>
       <use x="63.623047" xlink:href="#DejaVuSans-48"/>
      </g>
     </g>
    </g>
    <g id="xtick_3">
     <g id="line2d_3">
      <g>
       <use style="stroke:#000000;stroke-width:0.8;" x="175.956685" xlink:href="#m2cb6aac0af" y="328.52"/>
      </g>
     </g>
     <g id="text_3">
      <!-- 40 -->
      <g transform="translate(169.594185 343.118437)scale(0.1 -0.1)">
       <defs>
        <path d="M 37.796875 64.3125 
L 12.890625 25.390625 
L 37.796875 25.390625 
z
M 35.203125 72.90625 
L 47.609375 72.90625 
L 47.609375 25.390625 
L 58.015625 25.390625 
L 58.015625 17.1875 
L 47.609375 17.1875 
L 47.609375 0 
L 37.796875 0 
L 37.796875 17.1875 
L 4.890625 17.1875 
L 4.890625 26.703125 
z
" id="DejaVuSans-52"/>
       </defs>
       <use xlink:href="#DejaVuSans-52"/>
       <use x="63.623047" xlink:href="#DejaVuSans-48"/>
      </g>
     </g>
    </g>
    <g id="xtick_4">
     <g id="line2d_4">
      <g>
       <use style="stroke:#000000;stroke-width:0.8;" x="232.397356" xlink:href="#m2cb6aac0af" y="328.52"/>
      </g>
     </g>
     <g id="text_4">
      <!-- 60 -->
      <g transform="translate(226.034856 343.118437)scale(0.1 -0.1)">
       <defs>
        <path d="M 33.015625 40.375 
Q 26.375 40.375 22.484375 35.828125 
Q 18.609375 31.296875 18.609375 23.390625 
Q 18.609375 15.53125 22.484375 10.953125 
Q 26.375 6.390625 33.015625 6.390625 
Q 39.65625 6.390625 43.53125 10.953125 
Q 47.40625 15.53125 47.40625 23.390625 
Q 47.40625 31.296875 43.53125 35.828125 
Q 39.65625 40.375 33.015625 40.375 
z
M 52.59375 71.296875 
L 52.59375 62.3125 
Q 48.875 64.0625 45.09375 64.984375 
Q 41.3125 65.921875 37.59375 65.921875 
Q 27.828125 65.921875 22.671875 59.328125 
Q 17.53125 52.734375 16.796875 39.40625 
Q 19.671875 43.65625 24.015625 45.921875 
Q 28.375 48.1875 33.59375 48.1875 
Q 44.578125 48.1875 50.953125 41.515625 
Q 57.328125 34.859375 57.328125 23.390625 
Q 57.328125 12.15625 50.6875 5.359375 
Q 44.046875 -1.421875 33.015625 -1.421875 
Q 20.359375 -1.421875 13.671875 8.265625 
Q 6.984375 17.96875 6.984375 36.375 
Q 6.984375 53.65625 15.1875 63.9375 
Q 23.390625 74.21875 37.203125 74.21875 
Q 40.921875 74.21875 44.703125 73.484375 
Q 48.484375 72.75 52.59375 71.296875 
z
" id="DejaVuSans-54"/>
       </defs>
       <use xlink:href="#DejaVuSans-54"/>
       <use x="63.623047" xlink:href="#DejaVuSans-48"/>
      </g>
     </g>
    </g>
    <g id="xtick_5">
     <g id="line2d_5">
      <g>
       <use style="stroke:#000000;stroke-width:0.8;" x="288.838028" xlink:href="#m2cb6aac0af" y="328.52"/>
      </g>
     </g>
     <g id="text_5">
      <!-- 80 -->
      <g transform="translate(282.475528 343.118437)scale(0.1 -0.1)">
       <defs>
        <path d="M 31.78125 34.625 
Q 24.75 34.625 20.71875 30.859375 
Q 16.703125 27.09375 16.703125 20.515625 
Q 16.703125 13.921875 20.71875 10.15625 
Q 24.75 6.390625 31.78125 6.390625 
Q 38.8125 6.390625 42.859375 10.171875 
Q 46.921875 13.96875 46.921875 20.515625 
Q 46.921875 27.09375 42.890625 30.859375 
Q 38.875 34.625 31.78125 34.625 
z
M 21.921875 38.8125 
Q 15.578125 40.375 12.03125 44.71875 
Q 8.5 49.078125 8.5 55.328125 
Q 8.5 64.0625 14.71875 69.140625 
Q 20.953125 74.21875 31.78125 74.21875 
Q 42.671875 74.21875 48.875 69.140625 
Q 55.078125 64.0625 55.078125 55.328125 
Q 55.078125 49.078125 51.53125 44.71875 
Q 48 40.375 41.703125 38.8125 
Q 48.828125 37.15625 52.796875 32.3125 
Q 56.78125 27.484375 56.78125 20.515625 
Q 56.78125 9.90625 50.3125 4.234375 
Q 43.84375 -1.421875 31.78125 -1.421875 
Q 19.734375 -1.421875 13.25 4.234375 
Q 6.78125 9.90625 6.78125 20.515625 
Q 6.78125 27.484375 10.78125 32.3125 
Q 14.796875 37.15625 21.921875 38.8125 
z
M 18.3125 54.390625 
Q 18.3125 48.734375 21.84375 45.5625 
Q 25.390625 42.390625 31.78125 42.390625 
Q 38.140625 42.390625 41.71875 45.5625 
Q 45.3125 48.734375 45.3125 54.390625 
Q 45.3125 60.0625 41.71875 63.234375 
Q 38.140625 66.40625 31.78125 66.40625 
Q 25.390625 66.40625 21.84375 63.234375 
Q 18.3125 60.0625 18.3125 54.390625 
z
" id="DejaVuSans-56"/>
       </defs>
       <use xlink:href="#DejaVuSans-56"/>
       <use x="63.623047" xlink:href="#DejaVuSans-48"/>
      </g>
     </g>
    </g>
    <g id="xtick_6">
     <g id="line2d_6">
      <g>
       <use style="stroke:#000000;stroke-width:0.8;" x="345.278699" xlink:href="#m2cb6aac0af" y="328.52"/>
      </g>
     </g>
     <g id="text_6">
      <!-- 100 -->
      <g transform="translate(335.734949 343.118437)scale(0.1 -0.1)">
       <defs>
        <path d="M 12.40625 8.296875 
L 28.515625 8.296875 
L 28.515625 63.921875 
L 10.984375 60.40625 
L 10.984375 69.390625 
L 28.421875 72.90625 
L 38.28125 72.90625 
L 38.28125 8.296875 
L 54.390625 8.296875 
L 54.390625 0 
L 12.40625 0 
z
" id="DejaVuSans-49"/>
       </defs>
       <use xlink:href="#DejaVuSans-49"/>
       <use x="63.623047" xlink:href="#DejaVuSans-48"/>
       <use x="127.246094" xlink:href="#DejaVuSans-48"/>
      </g>
     </g>
    </g>
    <g id="text_7">
     <!-- t/ms -->
     <g transform="translate(192.881113 356.796562)scale(0.1 -0.1)">
      <defs>
       <path d="M 18.3125 70.21875 
L 18.3125 54.6875 
L 36.8125 54.6875 
L 36.8125 47.703125 
L 18.3125 47.703125 
L 18.3125 18.015625 
Q 18.3125 11.328125 20.140625 9.421875 
Q 21.96875 7.515625 27.59375 7.515625 
L 36.8125 7.515625 
L 36.8125 0 
L 27.59375 0 
Q 17.1875 0 13.234375 3.875 
Q 9.28125 7.765625 9.28125 18.015625 
L 9.28125 47.703125 
L 2.6875 47.703125 
L 2.6875 54.6875 
L 9.28125 54.6875 
L 9.28125 70.21875 
z
" id="DejaVuSans-116"/>
       <path d="M 25.390625 72.90625 
L 33.6875 72.90625 
L 8.296875 -9.28125 
L 0 -9.28125 
z
" id="DejaVuSans-47"/>
       <path d="M 52 44.1875 
Q 55.375 50.25 60.0625 53.125 
Q 64.75 56 71.09375 56 
Q 79.640625 56 84.28125 50.015625 
Q 88.921875 44.046875 88.921875 33.015625 
L 88.921875 0 
L 79.890625 0 
L 79.890625 32.71875 
Q 79.890625 40.578125 77.09375 44.375 
Q 74.3125 48.1875 68.609375 48.1875 
Q 61.625 48.1875 57.5625 43.546875 
Q 53.515625 38.921875 53.515625 30.90625 
L 53.515625 0 
L 44.484375 0 
L 44.484375 32.71875 
Q 44.484375 40.625 41.703125 44.40625 
Q 38.921875 48.1875 33.109375 48.1875 
Q 26.21875 48.1875 22.15625 43.53125 
Q 18.109375 38.875 18.109375 30.90625 
L 18.109375 0 
L 9.078125 0 
L 9.078125 54.6875 
L 18.109375 54.6875 
L 18.109375 46.1875 
Q 21.1875 51.21875 25.484375 53.609375 
Q 29.78125 56 35.6875 56 
Q 41.65625 56 45.828125 52.96875 
Q 50 49.953125 52 44.1875 
z
" id="DejaVuSans-109"/>
       <path d="M 44.28125 53.078125 
L 44.28125 44.578125 
Q 40.484375 46.53125 36.375 47.5 
Q 32.28125 48.484375 27.875 48.484375 
Q 21.1875 48.484375 17.84375 46.4375 
Q 14.5 44.390625 14.5 40.28125 
Q 14.5 37.15625 16.890625 35.375 
Q 19.28125 33.59375 26.515625 31.984375 
L 29.59375 31.296875 
Q 39.15625 29.25 43.1875 25.515625 
Q 47.21875 21.78125 47.21875 15.09375 
Q 47.21875 7.46875 41.1875 3.015625 
Q 35.15625 -1.421875 24.609375 -1.421875 
Q 20.21875 -1.421875 15.453125 -0.5625 
Q 10.6875 0.296875 5.421875 2 
L 5.421875 11.28125 
Q 10.40625 8.6875 15.234375 7.390625 
Q 20.0625 6.109375 24.8125 6.109375 
Q 31.15625 6.109375 34.5625 8.28125 
Q 37.984375 10.453125 37.984375 14.40625 
Q 37.984375 18.0625 35.515625 20.015625 
Q 33.0625 21.96875 24.703125 23.78125 
L 21.578125 24.515625 
Q 13.234375 26.265625 9.515625 29.90625 
Q 5.8125 33.546875 5.8125 39.890625 
Q 5.8125 47.609375 11.28125 51.796875 
Q 16.75 56 26.8125 56 
Q 31.78125 56 36.171875 55.265625 
Q 40.578125 54.546875 44.28125 53.078125 
z
" id="DejaVuSans-115"/>
      </defs>
      <use xlink:href="#DejaVuSans-116"/>
      <use x="39.208984" xlink:href="#DejaVuSans-47"/>
      <use x="72.900391" xlink:href="#DejaVuSans-109"/>
      <use x="170.3125" xlink:href="#DejaVuSans-115"/>
     </g>
    </g>
   </g>
   <g id="matplotlib.axis_2">
    <g id="ytick_1">
     <g id="line2d_7">
      <defs>
       <path d="M 0 0 
L -3.5 0 
" id="m907a06afe2" style="stroke:#000000;stroke-width:0.8;"/>
      </defs>
      <g>
       <use style="stroke:#000000;stroke-width:0.8;" x="48.982813" xlink:href="#m907a06afe2" y="278.92314"/>
      </g>
     </g>
     <g id="text_8">
      <!-- −60 -->
      <g transform="translate(20.878125 282.722359)scale(0.1 -0.1)">
       <defs>
        <path d="M 10.59375 35.5 
L 73.1875 35.5 
L 73.1875 27.203125 
L 10.59375 27.203125 
z
" id="DejaVuSans-8722"/>
       </defs>
       <use xlink:href="#DejaVuSans-8722"/>
       <use x="83.789062" xlink:href="#DejaVuSans-54"/>
       <use x="147.412109" xlink:href="#DejaVuSans-48"/>
      </g>
     </g>
    </g>
    <g id="ytick_2">
     <g id="line2d_8">
      <g>
       <use style="stroke:#000000;stroke-width:0.8;" x="48.982813" xlink:href="#m907a06afe2" y="216.820208"/>
      </g>
     </g>
     <g id="text_9">
      <!-- −40 -->
      <g transform="translate(20.878125 220.619427)scale(0.1 -0.1)">
       <use xlink:href="#DejaVuSans-8722"/>
       <use x="83.789062" xlink:href="#DejaVuSans-52"/>
       <use x="147.412109" xlink:href="#DejaVuSans-48"/>
      </g>
     </g>
    </g>
    <g id="ytick_3">
     <g id="line2d_9">
      <g>
       <use style="stroke:#000000;stroke-width:0.8;" x="48.982813" xlink:href="#m907a06afe2" y="154.717277"/>
      </g>
     </g>
     <g id="text_10">
      <!-- −20 -->
      <g transform="translate(20.878125 158.516495)scale(0.1 -0.1)">
       <use xlink:href="#DejaVuSans-8722"/>
       <use x="83.789062" xlink:href="#DejaVuSans-50"/>
       <use x="147.412109" xlink:href="#DejaVuSans-48"/>
      </g>
     </g>
    </g>
    <g id="ytick_4">
     <g id="line2d_10">
      <g>
       <use style="stroke:#000000;stroke-width:0.8;" x="48.982813" xlink:href="#m907a06afe2" y="92.614345"/>
      </g>
     </g>
     <g id="text_11">
      <!-- 0 -->
      <g transform="translate(35.620312 96.413563)scale(0.1 -0.1)">
       <use xlink:href="#DejaVuSans-48"/>
      </g>
     </g>
    </g>
    <g id="ytick_5">
     <g id="line2d_11">
      <g>
       <use style="stroke:#000000;stroke-width:0.8;" x="48.982813" xlink:href="#m907a06afe2" y="30.511413"/>
      </g>
     </g>
     <g id="text_12">
      <!-- 20 -->
      <g transform="translate(29.257812 34.310632)scale(0.1 -0.1)">
       <use xlink:href="#DejaVuSans-50"/>
       <use x="63.623047" xlink:href="#DejaVuSans-48"/>
      </g>
     </g>
    </g>
    <g id="text_13">
     <!-- U/mV -->
     <g transform="translate(14.798438 181.494375)rotate(-90)scale(0.1 -0.1)">
      <defs>
       <path d="M 8.6875 72.90625 
L 18.609375 72.90625 
L 18.609375 28.609375 
Q 18.609375 16.890625 22.84375 11.734375 
Q 27.09375 6.59375 36.625 6.59375 
Q 46.09375 6.59375 50.34375 11.734375 
Q 54.59375 16.890625 54.59375 28.609375 
L 54.59375 72.90625 
L 64.5 72.90625 
L 64.5 27.390625 
Q 64.5 13.140625 57.4375 5.859375 
Q 50.390625 -1.421875 36.625 -1.421875 
Q 22.796875 -1.421875 15.734375 5.859375 
Q 8.6875 13.140625 8.6875 27.390625 
z
" id="DejaVuSans-85"/>
       <path d="M 28.609375 0 
L 0.78125 72.90625 
L 11.078125 72.90625 
L 34.1875 11.53125 
L 57.328125 72.90625 
L 67.578125 72.90625 
L 39.796875 0 
z
" id="DejaVuSans-86"/>
      </defs>
      <use xlink:href="#DejaVuSans-85"/>
      <use x="73.193359" xlink:href="#DejaVuSans-47"/>
      <use x="106.884766" xlink:href="#DejaVuSans-109"/>
      <use x="204.296875" xlink:href="#DejaVuSans-86"/>
     </g>
    </g>
   </g>
   <g id="line2d_12">
    <path clip-path="url(#p8033eed20a)" d="M 63.075343 294.448873 
L 65.897376 294.432749 
L 66.461783 186.661355 
L 67.8728 40.858469 
L 68.155003 26.430295 
L 68.437206 21.805455 
L 68.71941 23.695842 
L 69.001613 29.55808 
L 69.56602 47.578232 
L 73.234663 183.716746 
L 74.64568 222.402577 
L 75.703943 246.535187 
L 76.550553 261.397094 
L 77.18551 269.23472 
L 77.679366 273.557845 
L 78.243773 277.077432 
L 78.80818 279.573371 
L 79.65479 282.208294 
L 80.5014 284.149414 
L 81.630213 286.232822 
L 83.323433 288.832879 
L 85.016654 291.036159 
L 86.709874 292.899178 
L 88.403094 294.435493 
L 90.096314 295.659877 
L 91.789534 296.595427 
L 93.482754 297.272473 
L 95.175974 297.725766 
L 97.151398 298.020272 
L 99.409025 298.116273 
L 102.231058 297.984586 
L 106.181905 297.537381 
L 120.362624 295.729504 
L 126.853301 295.223046 
L 134.472792 294.860164 
L 139.552452 294.713122 
L 141.245672 256.38291 
L 143.221096 227.930715 
L 143.785503 213.393472 
L 144.349909 188.939041 
L 144.914316 145.856303 
L 145.760926 57.285062 
L 146.043129 39.663061 
L 146.325333 32.210827 
L 146.607536 32.901276 
L 146.889739 39.24557 
L 147.454146 61.491065 
L 150.558383 206.687262 
L 152.533807 283.721314 
L 153.098213 297.604822 
L 153.66262 305.756472 
L 154.227027 310.113099 
L 154.791433 312.320295 
L 155.35584 313.341597 
L 155.920247 313.697776 
L 156.484654 313.671269 
L 157.04906 313.419033 
L 157.89567 312.803413 
L 159.588891 311.204429 
L 164.668551 306.19836 
L 167.208381 304.062882 
L 169.466008 302.432841 
L 171.723635 301.047359 
L 174.263465 299.75361 
L 176.803295 298.702576 
L 179.625329 297.771069 
L 182.729566 296.976854 
L 186.398209 296.277154 
L 190.63126 295.705088 
L 195.71092 295.247633 
L 202.201597 294.893891 
L 211.232105 294.641403 
L 217.722782 294.550408 
L 217.977737 292.908236 
L 218.569392 274.752758 
L 219.133799 262.765535 
L 219.980409 250.219443 
L 221.109222 234.569653 
L 221.673629 223.194955 
L 222.238036 205.249079 
L 222.802442 173.730338 
L 223.366849 119.840992 
L 223.931256 58.281785 
L 224.213459 38.805857 
L 224.495663 29.969264 
L 224.777866 29.774376 
L 225.060069 35.581202 
L 225.624476 57.322521 
L 229.010916 214.716654 
L 230.704136 281.256698 
L 231.268543 296.126829 
L 231.83295 305.015175 
L 232.397356 309.790372 
L 232.961763 312.217856 
L 233.52617 313.355177 
L 234.090577 313.773686 
L 234.654983 313.781357 
L 235.21939 313.548109 
L 236.066 312.946275 
L 237.477017 311.635721 
L 243.685491 305.56966 
L 246.15477 303.574571 
L 248.6946 301.837405 
L 251.234431 300.399818 
L 253.774261 299.226111 
L 256.596294 298.182598 
L 259.700531 297.291184 
L 263.086972 296.557013 
L 267.037819 295.934711 
L 271.835276 295.418599 
L 277.761546 295.018804 
L 285.66324 294.725583 
L 296.114157 294.549237 
L 296.960767 270.363198 
L 297.525174 259.64275 
L 298.653987 244.20455 
L 299.500597 231.313544 
L 300.065004 218.302129 
L 300.629411 196.913083 
L 301.193817 158.765718 
L 302.322631 44.292486 
L 302.604834 31.9002 
L 302.948196 29.444006 
L 303.159848 32.82806 
L 303.724255 52.534457 
L 305.135272 122.199673 
L 306.546288 186.874774 
L 308.803915 277.725429 
L 309.368322 293.799306 
L 310.00328 304.586321 
L 310.497135 309.108279 
L 311.061542 311.880746 
L 311.625949 313.20806 
L 312.190356 313.733559 
L 312.754762 313.803095 
L 313.319169 313.606498 
L 314.165779 313.034356 
L 315.576796 311.742674 
L 322.067473 305.418755 
L 324.607303 303.393126 
L 326.86493 301.860535 
L 329.40476 300.4188 
L 331.94459 299.241523 
L 334.766624 298.194732 
L 337.870861 297.300462 
L 341.257301 296.563916 
L 344.925945 295.977374 
L 344.925945 295.977374 
" style="fill:none;stroke:#1f77b4;stroke-linecap:square;stroke-width:1.5;"/>
   </g>
   <g id="line2d_13">
    <path clip-path="url(#p8033eed20a)" d="M 63.075343 294.448873 
L 78.525976 294.422778 
L 81.065807 294.423177 
L 81.348731 290.383689 
L 81.913138 273.5644 
L 82.477545 261.881178 
L 83.324155 249.437256 
L 84.240594 236.709078 
L 84.73445 227.56836 
L 85.298857 212.013177 
L 85.863264 185.187113 
L 86.42767 137.188519 
L 87.27428 45.921513 
L 87.556484 31.009651 
L 87.838687 26.339594 
L 88.120891 29.201064 
L 88.403094 37.032634 
L 88.967501 60.781577 
L 91.789534 194.572902 
L 94.047161 283.870658 
L 94.611568 297.891457 
L 95.175974 306.070144 
L 95.740381 310.40401 
L 96.304788 312.577909 
L 96.869195 313.569152 
L 97.433601 313.901512 
L 97.998008 313.856967 
L 98.844618 313.404721 
L 99.973431 312.454684 
L 102.513262 309.894547 
L 105.899702 306.56131 
L 108.439532 304.374465 
L 110.76771 302.650521 
L 113.025337 301.230161 
L 115.565167 299.901942 
L 118.104997 298.821881 
L 120.927031 297.864132 
L 124.031268 297.047342 
L 127.699911 296.327746 
L 131.932962 295.739516 
L 137.012622 295.269284 
L 143.503299 294.905825 
L 152.251603 294.651956 
L 159.253782 294.550788 
L 160.100392 270.364557 
L 160.664798 259.644097 
L 161.511408 247.84835 
L 162.410924 235.310872 
L 162.975331 224.276631 
L 163.539738 207.047137 
L 164.104144 176.959918 
L 164.668551 124.88218 
L 165.232958 62.306407 
L 165.515161 41.13531 
L 165.797364 30.701893 
L 166.079568 29.322595 
L 166.361771 34.340871 
L 166.926178 55.286536 
L 170.877025 236.011524 
L 172.005838 279.802965 
L 172.570245 295.180972 
L 173.134652 304.488449 
L 173.699058 309.516805 
L 174.263465 312.083866 
L 174.827872 313.298061 
L 175.392278 313.759886 
L 175.956685 313.792616 
L 176.521092 313.574214 
L 177.367702 312.984395 
L 178.778719 311.681424 
L 184.987193 305.609429 
L 187.527023 303.556017 
L 189.78465 301.999243 
L 192.32448 300.53276 
L 194.86431 299.33413 
L 197.686344 298.267692 
L 200.790581 297.356286 
L 204.177021 296.605466 
L 208.127868 295.968983 
L 212.925325 295.441091 
L 218.851595 295.032173 
L 226.753289 294.732269 
L 237.459009 294.549257 
L 238.305619 270.363215 
L 238.870025 259.642768 
L 239.734644 247.61293 
L 240.581254 235.876852 
L 241.145661 225.092708 
L 241.710067 208.394836 
L 242.274474 179.383592 
L 242.838881 128.769754 
L 243.685491 43.176627 
L 243.967694 31.457273 
L 244.249897 29.09994 
L 244.532101 33.459607 
L 245.025957 50.668561 
L 246.15477 105.898696 
L 247.565787 172.878056 
L 249.823414 265.926145 
L 250.38782 285.3062 
L 250.952227 298.686113 
L 251.516634 306.423469 
L 252.081041 310.519384 
L 252.645447 312.573173 
L 253.209854 313.503832 
L 253.774261 313.805259 
L 254.338667 313.744824 
L 255.185278 313.282246 
L 256.314091 312.32912 
L 258.853921 309.775576 
L 262.240361 306.459747 
L 264.780192 304.287859 
L 267.037819 302.62524 
L 269.295445 301.209408 
L 271.835276 299.885533 
L 274.375106 298.809037 
L 277.197139 297.854433 
L 280.301376 297.040276 
L 283.97002 296.322928 
L 288.20307 295.73645 
L 293.282731 295.267531 
L 299.773408 294.905001 
L 308.803915 294.646326 
L 315.576796 294.550167 
L 315.877537 288.063894 
L 316.441943 271.982493 
L 317.058363 259.93678 
L 317.834423 248.989086 
L 318.681033 237.552148 
L 319.245439 227.466434 
L 319.809846 212.254247 
L 320.374253 186.28446 
L 320.93866 140.222676 
L 321.78527 50.466543 
L 322.067473 34.673968 
L 322.349676 29.059064 
L 322.63188 31.175032 
L 322.914083 38.497228 
L 323.47849 61.741367 
L 326.300523 195.378739 
L 328.55815 284.216632 
L 329.122557 298.008956 
L 329.686964 306.053838 
L 330.25137 310.329002 
L 330.815777 312.481242 
L 331.380184 313.466426 
L 331.94459 313.798808 
L 332.508997 313.756413 
L 333.355607 313.308256 
L 334.484421 312.363324 
L 337.024251 309.813076 
L 340.410691 306.493273 
L 342.950521 304.3169 
L 344.925945 302.844706 
L 344.925945 302.844706 
" style="fill:none;stroke:#ff7f0e;stroke-linecap:square;stroke-width:1.5;"/>
   </g>
   <g id="line2d_14">
    <path clip-path="url(#p8033eed20a)" d="M 63.075343 294.448873 
L 78.525976 294.422778 
L 100.537838 294.425266 
L 100.8863 287.945462 
L 101.450707 271.870739 
L 102.015113 260.675508 
L 102.861723 248.516577 
L 103.708333 236.704292 
L 104.27274 225.991792 
L 104.837147 209.440917 
L 105.405846 180.187354 
L 105.899702 136.705235 
L 106.746312 45.612349 
L 107.028515 30.877663 
L 107.310719 26.348196 
L 107.592922 29.305356 
L 108.157329 48.179994 
L 109.356693 107.050434 
L 110.76771 173.74712 
L 113.025337 266.841908 
L 113.589743 286.115899 
L 114.15415 299.28068 
L 114.718557 306.824592 
L 115.282964 310.79043 
L 115.84737 312.763062 
L 116.411777 313.643232 
L 116.976184 313.912726 
L 117.54059 313.831638 
L 118.3872 313.350255 
L 119.516014 312.383715 
L 122.338047 309.527491 
L 125.442284 306.491991 
L 127.982115 304.31439 
L 130.239741 302.64721 
L 132.497368 301.227361 
L 135.037199 299.899653 
L 137.577029 298.820027 
L 140.399062 297.862674 
L 143.503299 297.046227 
L 147.171943 296.326938 
L 151.404993 295.738959 
L 156.484654 295.268927 
L 162.975331 294.905623 
L 171.723635 294.651863 
L 178.778719 294.550188 
L 179.863542 265.919221 
L 180.710152 252.44026 
L 182.121169 232.599837 
L 182.685576 220.258816 
L 183.293972 198.171331 
L 183.858379 161.03514 
L 185.269396 32.58589 
L 185.551599 28.938402 
L 185.833803 32.419865 
L 186.398209 51.791414 
L 187.809226 121.361392 
L 189.220243 186.156684 
L 191.47787 277.151354 
L 192.042277 293.412942 
L 192.606683 303.490391 
L 193.17109 308.994129 
L 193.735497 311.824479 
L 194.299903 313.183553 
L 194.86431 313.726849 
L 195.428717 313.806623 
L 195.993124 313.61606 
L 196.839734 313.04878 
L 198.25075 311.760161 
L 204.741428 305.433825 
L 207.281258 303.405971 
L 209.538885 301.871456 
L 212.078715 300.427759 
L 214.618545 299.248796 
L 217.440579 298.200455 
L 220.544816 297.304836 
L 223.931256 296.567167 
L 227.882103 295.941888 
L 232.67956 295.423305 
L 238.60583 295.021598 
L 246.507524 294.726978 
L 256.878498 294.550632 
L 257.222353 288.06391 
L 257.78676 271.982507 
L 258.351167 260.803143 
L 259.197777 248.751939 
L 260.044387 237.268384 
L 260.617692 226.849528 
L 261.111548 213.693178 
L 261.675955 188.84333 
L 262.240361 144.602505 
L 263.086972 53.835814 
L 263.369175 36.378749 
L 263.651378 29.346897 
L 263.933582 30.459285 
L 264.215785 37.127288 
L 264.780192 59.727268 
L 267.884429 205.278564 
L 269.859852 282.901165 
L 270.424259 297.180499 
L 270.988665 305.598897 
L 271.553072 310.093857 
L 272.117479 312.366935 
L 272.681886 313.41895 
L 273.246292 313.789201 
L 273.810699 313.768838 
L 274.375106 313.518911 
L 275.503919 312.659698 
L 277.479343 310.726105 
L 281.782944 306.468052 
L 284.252223 304.351141 
L 286.50985 302.679591 
L 288.838028 301.21463 
L 291.307307 299.92307 
L 293.847137 298.839435 
L 296.669171 297.878328 
L 299.773408 297.058536 
L 303.442051 296.33618 
L 307.675102 295.745593 
L 312.754762 295.273385 
L 319.245439 294.908313 
L 327.993743 294.653237 
L 335.048827 294.551 
L 335.3586 290.506036 
L 335.923007 273.67791 
L 336.487414 262.007102 
L 337.334024 249.660688 
L 338.435268 234.296521 
L 338.999674 222.80028 
L 339.564081 204.588951 
L 340.128488 172.538375 
L 340.692895 118.005471 
L 341.257301 56.876324 
L 341.539505 38.01386 
L 341.821708 29.737763 
L 342.103911 29.95304 
L 342.386115 36.031362 
L 342.950521 58.044661 
L 344.925945 155.033094 
L 344.925945 155.033094 
" style="fill:none;stroke:#2ca02c;stroke-linecap:square;stroke-width:1.5;"/>
   </g>
   <g id="line2d_15">
    <path clip-path="url(#p8033eed20a)" d="M 63.075343 294.448873 
L 78.525976 294.422778 
L 120.080421 294.425706 
L 120.636028 279.153899 
L 121.200435 265.803068 
L 122.047045 252.256923 
L 123.175859 236.705702 
L 123.740265 225.994358 
L 124.304672 209.445951 
L 124.869079 180.557683 
L 125.433485 129.43113 
L 126.280095 41.154695 
L 126.571098 28.818931 
L 126.853301 26.52579 
L 127.135505 31.012156 
L 127.699911 51.447518 
L 131.932962 244.334017 
L 133.061775 286.243065 
L 133.626182 299.358116 
L 134.190588 306.866219 
L 134.754995 310.811519 
L 135.319402 312.772951 
L 135.883809 313.646943 
L 136.448215 313.912942 
L 137.012622 313.829822 
L 137.859232 313.346823 
L 138.988046 312.379374 
L 141.810079 309.522835 
L 144.914316 306.487826 
L 147.454146 304.310786 
L 149.711773 302.644117 
L 151.9694 301.224748 
L 154.50923 299.89752 
L 157.04906 298.8183 
L 159.871094 297.861317 
L 162.975331 297.045192 
L 166.643974 296.326187 
L 170.877025 295.738442 
L 175.956685 295.268596 
L 182.447362 294.905437 
L 191.195666 294.651776 
L 198.25075 294.550142 
L 198.497351 290.505845 
L 199.061758 273.677719 
L 199.626164 262.006782 
L 200.472774 249.659541 
L 201.601588 233.831455 
L 202.165995 222.100976 
L 202.730401 203.403798 
L 203.294808 170.394727 
L 203.859215 114.754883 
L 204.459224 51.534876 
L 204.741428 35.18571 
L 205.023631 29.088927 
L 205.305834 30.861999 
L 205.588038 37.960086 
L 206.152444 60.983477 
L 209.256681 206.387753 
L 211.232105 283.732643 
L 211.796511 297.706885 
L 212.360918 305.889403 
L 212.925325 310.245023 
L 213.489732 312.441338 
L 214.054138 313.450831 
L 214.618545 313.796948 
L 215.182952 313.76252 
L 216.029562 313.320692 
L 217.158375 312.379314 
L 219.698205 309.830404 
L 223.084646 306.508708 
L 225.624476 304.330253 
L 227.882103 302.661632 
L 230.13973 301.240155 
L 232.67956 299.910643 
L 235.21939 298.829363 
L 238.041424 297.870403 
L 241.145661 297.052474 
L 244.814304 296.331775 
L 248.976804 295.750685 
L 254.056464 295.276643 
L 260.617692 294.907207 
L 269.577649 294.648661 
L 276.350529 294.551461 
L 276.633009 292.908978 
L 277.197415 275.453957 
L 277.761822 263.258443 
L 278.608432 250.576243 
L 279.737245 235.023104 
L 280.301652 223.856311 
L 280.866059 206.349487 
L 281.430466 175.70675 
L 281.994596 122.937951 
L 282.559003 60.717666 
L 282.841206 40.199039 
L 283.12341 30.390518 
L 283.405613 29.478259 
L 283.687817 34.808534 
L 284.252223 56.070053 
L 287.920867 225.142716 
L 289.331884 280.369973 
L 289.89629 295.551746 
L 290.460697 304.695435 
L 291.025104 309.624436 
L 291.589511 312.136681 
L 292.153917 313.320698 
L 292.718324 313.765529 
L 293.282731 313.788434 
L 293.847137 313.564215 
L 294.693747 312.96969 
L 296.104764 311.663746 
L 302.313238 305.594024 
L 304.853068 303.542853 
L 307.110695 301.988032 
L 309.650525 300.523551 
L 312.190356 299.326649 
L 315.012389 298.2618 
L 318.116626 297.35178 
L 321.503066 296.602115 
L 325.453913 295.966614 
L 330.25137 295.439537 
L 336.177641 295.03125 
L 344.079335 294.731809 
L 344.925945 294.710365 
L 344.925945 294.710365 
" style="fill:none;stroke:#d62728;stroke-linecap:square;stroke-width:1.5;"/>
   </g>
   <g id="line2d_16"/>
   <g id="line2d_17"/>
   <g id="line2d_18"/>
   <g id="line2d_19"/>
   <g id="patch_3">
    <path d="M 48.982813 328.52 
L 48.982813 7.2 
" style="fill:none;stroke:#000000;stroke-linecap:square;stroke-linejoin:miter;stroke-width:0.8;"/>
   </g>
   <g id="patch_4">
    <path d="M 48.982812 328.52 
L 359.018475 328.52 
" style="fill:none;stroke:#000000;stroke-linecap:square;stroke-linejoin:miter;stroke-width:0.8;"/>
   </g>
  </g>
  <g id="legend_1">
   <g id="text_14">
    <!-- Cell -->
    <g transform="translate(382.455462 156.44125)scale(0.1 -0.1)">
     <defs>
      <path d="M 64.40625 67.28125 
L 64.40625 56.890625 
Q 59.421875 61.53125 53.78125 63.8125 
Q 48.140625 66.109375 41.796875 66.109375 
Q 29.296875 66.109375 22.65625 58.46875 
Q 16.015625 50.828125 16.015625 36.375 
Q 16.015625 21.96875 22.65625 14.328125 
Q 29.296875 6.6875 41.796875 6.6875 
Q 48.140625 6.6875 53.78125 8.984375 
Q 59.421875 11.28125 64.40625 15.921875 
L 64.40625 5.609375 
Q 59.234375 2.09375 53.4375 0.328125 
Q 47.65625 -1.421875 41.21875 -1.421875 
Q 24.65625 -1.421875 15.125 8.703125 
Q 5.609375 18.84375 5.609375 36.375 
Q 5.609375 53.953125 15.125 64.078125 
Q 24.65625 74.21875 41.21875 74.21875 
Q 47.75 74.21875 53.53125 72.484375 
Q 59.328125 70.75 64.40625 67.28125 
z
" id="DejaVuSans-67"/>
      <path d="M 56.203125 29.59375 
L 56.203125 25.203125 
L 14.890625 25.203125 
Q 15.484375 15.921875 20.484375 11.0625 
Q 25.484375 6.203125 34.421875 6.203125 
Q 39.59375 6.203125 44.453125 7.46875 
Q 49.3125 8.734375 54.109375 11.28125 
L 54.109375 2.78125 
Q 49.265625 0.734375 44.1875 -0.34375 
Q 39.109375 -1.421875 33.890625 -1.421875 
Q 20.796875 -1.421875 13.15625 6.1875 
Q 5.515625 13.8125 5.515625 26.8125 
Q 5.515625 40.234375 12.765625 48.109375 
Q 20.015625 56 32.328125 56 
Q 43.359375 56 49.78125 48.890625 
Q 56.203125 41.796875 56.203125 29.59375 
z
M 47.21875 32.234375 
Q 47.125 39.59375 43.09375 43.984375 
Q 39.0625 48.390625 32.421875 48.390625 
Q 24.90625 48.390625 20.390625 44.140625 
Q 15.875 39.890625 15.1875 32.171875 
z
" id="DejaVuSans-101"/>
      <path d="M 9.421875 75.984375 
L 18.40625 75.984375 
L 18.40625 0 
L 9.421875 0 
z
" id="DejaVuSans-108"/>
     </defs>
     <use xlink:href="#DejaVuSans-67"/>
     <use x="69.824219" xlink:href="#DejaVuSans-101"/>
     <use x="131.347656" xlink:href="#DejaVuSans-108"/>
     <use x="159.130859" xlink:href="#DejaVuSans-108"/>
    </g>
   </g>
   <g id="line2d_20">
    <path d="M 364.427337 167.619375 
L 384.427337 167.619375 
" style="fill:none;stroke:#1f77b4;stroke-linecap:square;stroke-width:1.5;"/>
   </g>
   <g id="line2d_21"/>
   <g id="text_15">
    <!-- cell 0 -->
    <g transform="translate(392.427337 171.119375)scale(0.1 -0.1)">
     <defs>
      <path d="M 48.78125 52.59375 
L 48.78125 44.1875 
Q 44.96875 46.296875 41.140625 47.34375 
Q 37.3125 48.390625 33.40625 48.390625 
Q 24.65625 48.390625 19.8125 42.84375 
Q 14.984375 37.3125 14.984375 27.296875 
Q 14.984375 17.28125 19.8125 11.734375 
Q 24.65625 6.203125 33.40625 6.203125 
Q 37.3125 6.203125 41.140625 7.25 
Q 44.96875 8.296875 48.78125 10.40625 
L 48.78125 2.09375 
Q 45.015625 0.34375 40.984375 -0.53125 
Q 36.96875 -1.421875 32.421875 -1.421875 
Q 20.0625 -1.421875 12.78125 6.34375 
Q 5.515625 14.109375 5.515625 27.296875 
Q 5.515625 40.671875 12.859375 48.328125 
Q 20.21875 56 33.015625 56 
Q 37.15625 56 41.109375 55.140625 
Q 45.0625 54.296875 48.78125 52.59375 
z
" id="DejaVuSans-99"/>
      <path id="DejaVuSans-32"/>
     </defs>
     <use xlink:href="#DejaVuSans-99"/>
     <use x="54.980469" xlink:href="#DejaVuSans-101"/>
     <use x="116.503906" xlink:href="#DejaVuSans-108"/>
     <use x="144.287109" xlink:href="#DejaVuSans-108"/>
     <use x="172.070312" xlink:href="#DejaVuSans-32"/>
     <use x="203.857422" xlink:href="#DejaVuSans-48"/>
    </g>
   </g>
   <g id="line2d_22">
    <path d="M 364.427337 182.2975 
L 384.427337 182.2975 
" style="fill:none;stroke:#ff7f0e;stroke-linecap:square;stroke-width:1.5;"/>
   </g>
   <g id="line2d_23"/>
   <g id="text_16">
    <!-- cell 1 -->
    <g transform="translate(392.427337 185.7975)scale(0.1 -0.1)">
     <use xlink:href="#DejaVuSans-99"/>
     <use x="54.980469" xlink:href="#DejaVuSans-101"/>
     <use x="116.503906" xlink:href="#DejaVuSans-108"/>
     <use x="144.287109" xlink:href="#DejaVuSans-108"/>
     <use x="172.070312" xlink:href="#DejaVuSans-32"/>
     <use x="203.857422" xlink:href="#DejaVuSans-49"/>
    </g>
   </g>
   <g id="line2d_24">
    <path d="M 364.427337 196.975625 
L 384.427337 196.975625 
" style="fill:none;stroke:#2ca02c;stroke-linecap:square;stroke-width:1.5;"/>
   </g>
   <g id="line2d_25"/>
   <g id="text_17">
    <!-- cell 2 -->
    <g transform="translate(392.427337 200.475625)scale(0.1 -0.1)">
     <use xlink:href="#DejaVuSans-99"/>
     <use x="54.980469" xlink:href="#DejaVuSans-101"/>
     <use x="116.503906" xlink:href="#DejaVuSans-108"/>
     <use x="144.287109" xlink:href="#DejaVuSans-108"/>
     <use x="172.070312" xlink:href="#DejaVuSans-32"/>
     <use x="203.857422" xlink:href="#DejaVuSans-50"/>
    </g>
   </g>
   <g id="line2d_26">
    <path d="M 364.427337 211.65375 
L 384.427337 211.65375 
" style="fill:none;stroke:#d62728;stroke-linecap:square;stroke-width:1.5;"/>
   </g>
   <g id="line2d_27"/>
   <g id="text_18">
    <!-- cell 3 -->
    <g transform="translate(392.427337 215.15375)scale(0.1 -0.1)">
     <defs>
      <path d="M 40.578125 39.3125 
Q 47.65625 37.796875 51.625 33 
Q 55.609375 28.21875 55.609375 21.1875 
Q 55.609375 10.40625 48.1875 4.484375 
Q 40.765625 -1.421875 27.09375 -1.421875 
Q 22.515625 -1.421875 17.65625 -0.515625 
Q 12.796875 0.390625 7.625 2.203125 
L 7.625 11.71875 
Q 11.71875 9.328125 16.59375 8.109375 
Q 21.484375 6.890625 26.8125 6.890625 
Q 36.078125 6.890625 40.9375 10.546875 
Q 45.796875 14.203125 45.796875 21.1875 
Q 45.796875 27.640625 41.28125 31.265625 
Q 36.765625 34.90625 28.71875 34.90625 
L 20.21875 34.90625 
L 20.21875 43.015625 
L 29.109375 43.015625 
Q 36.375 43.015625 40.234375 45.921875 
Q 44.09375 48.828125 44.09375 54.296875 
Q 44.09375 59.90625 40.109375 62.90625 
Q 36.140625 65.921875 28.71875 65.921875 
Q 24.65625 65.921875 20.015625 65.03125 
Q 15.375 64.15625 9.8125 62.3125 
L 9.8125 71.09375 
Q 15.4375 72.65625 20.34375 73.4375 
Q 25.25 74.21875 29.59375 74.21875 
Q 40.828125 74.21875 47.359375 69.109375 
Q 53.90625 64.015625 53.90625 55.328125 
Q 53.90625 49.265625 50.4375 45.09375 
Q 46.96875 40.921875 40.578125 39.3125 
z
" id="DejaVuSans-51"/>
     </defs>
     <use xlink:href="#DejaVuSans-99"/>
     <use x="54.980469" xlink:href="#DejaVuSans-101"/>
     <use x="116.503906" xlink:href="#DejaVuSans-108"/>
     <use x="144.287109" xlink:href="#DejaVuSans-108"/>
     <use x="172.070312" xlink:href="#DejaVuSans-32"/>
     <use x="203.857422" xlink:href="#DejaVuSans-51"/>
    </g>
   </g>
  </g>
 </g>
 <defs>
  <clipPath id="p8033eed20a">
   <rect height="321.32" width="310.035663" x="48.982813" y="7.2"/>
  </clipPath>
 </defs>
</svg>
