<?xml version="1.0" encoding="utf-8" standalone="no"?>
<!DOCTYPE svg PUBLIC "-//W3C//DTD SVG 1.1//EN"
  "http://www.w3.org/Graphics/SVG/1.1/DTD/svg11.dtd">
<svg height="351.99625pt" version="1.1" viewBox="0 0 398.483017 351.99625" width="398.483017pt" xmlns="http://www.w3.org/2000/svg" xmlns:xlink="http://www.w3.org/1999/xlink">
 <metadata>
  <rdf:RDF xmlns:cc="http://creativecommons.org/ns#" xmlns:dc="http://purl.org/dc/elements/1.1/" xmlns:rdf="http://www.w3.org/1999/02/22-rdf-syntax-ns#">
   <cc:Work>
    <dc:type rdf:resource="http://purl.org/dc/dcmitype/StillImage"/>
    <dc:date>2021-10-08T15:23:32.792908</dc:date>
    <dc:format>image/svg+xml</dc:format>
    <dc:creator>
     <cc:Agent>
      <dc:title>Matplotlib v3.4.2, https://matplotlib.org/</dc:title>
     </cc:Agent>
    </dc:creator>
   </cc:Work>
  </rdf:RDF>
 </metadata>
 <defs>
  <style type="text/css">*{stroke-linecap:butt;stroke-linejoin:round;}</style>
 </defs>
 <g id="figure_1">
  <g id="patch_1">
   <path d="M 0 351.99625 
L 398.483017 351.99625 
L 398.483017 0 
L 0 0 
z
" style="fill:#ffffff;"/>
  </g>
  <g id="axes_1">
   <g id="patch_2">
    <path d="M 58.523438 314.44 
L 343.506118 314.44 
L 343.506118 7.2 
L 58.523438 7.2 
z
" style="fill:#ffffff;"/>
   </g>
   <g id="matplotlib.axis_1">
    <g id="xtick_1">
     <g id="line2d_1">
      <defs>
       <path d="M 0 0 
L 0 3.5 
" id="m50759c799b" style="stroke:#000000;stroke-width:0.8;"/>
      </defs>
      <g>
       <use style="stroke:#000000;stroke-width:0.8;" x="58.523438" xlink:href="#m50759c799b" y="314.44"/>
      </g>
     </g>
     <g id="text_1">
      <!-- 9 -->
      <g transform="translate(55.342188 329.038437)scale(0.1 -0.1)">
       <defs>
        <path d="M 703 97 
L 703 672 
Q 941 559 1184 500 
Q 1428 441 1663 441 
Q 2288 441 2617 861 
Q 2947 1281 2994 2138 
Q 2813 1869 2534 1725 
Q 2256 1581 1919 1581 
Q 1219 1581 811 2004 
Q 403 2428 403 3163 
Q 403 3881 828 4315 
Q 1253 4750 1959 4750 
Q 2769 4750 3195 4129 
Q 3622 3509 3622 2328 
Q 3622 1225 3098 567 
Q 2575 -91 1691 -91 
Q 1453 -91 1209 -44 
Q 966 3 703 97 
z
M 1959 2075 
Q 2384 2075 2632 2365 
Q 2881 2656 2881 3163 
Q 2881 3666 2632 3958 
Q 2384 4250 1959 4250 
Q 1534 4250 1286 3958 
Q 1038 3666 1038 3163 
Q 1038 2656 1286 2365 
Q 1534 2075 1959 2075 
z
" id="DejaVuSans-39" transform="scale(0.015625)"/>
       </defs>
       <use xlink:href="#DejaVuSans-39"/>
      </g>
     </g>
    </g>
    <g id="xtick_2">
     <g id="line2d_2">
      <g>
       <use style="stroke:#000000;stroke-width:0.8;" x="115.519973" xlink:href="#m50759c799b" y="314.44"/>
      </g>
     </g>
     <g id="text_2">
      <!-- 10 -->
      <g transform="translate(109.157473 329.038437)scale(0.1 -0.1)">
       <defs>
        <path d="M 794 531 
L 1825 531 
L 1825 4091 
L 703 3866 
L 703 4441 
L 1819 4666 
L 2450 4666 
L 2450 531 
L 3481 531 
L 3481 0 
L 794 0 
L 794 531 
z
" id="DejaVuSans-31" transform="scale(0.015625)"/>
        <path d="M 2034 4250 
Q 1547 4250 1301 3770 
Q 1056 3291 1056 2328 
Q 1056 1369 1301 889 
Q 1547 409 2034 409 
Q 2525 409 2770 889 
Q 3016 1369 3016 2328 
Q 3016 3291 2770 3770 
Q 2525 4250 2034 4250 
z
M 2034 4750 
Q 2819 4750 3233 4129 
Q 3647 3509 3647 2328 
Q 3647 1150 3233 529 
Q 2819 -91 2034 -91 
Q 1250 -91 836 529 
Q 422 1150 422 2328 
Q 422 3509 836 4129 
Q 1250 4750 2034 4750 
z
" id="DejaVuSans-30" transform="scale(0.015625)"/>
       </defs>
       <use xlink:href="#DejaVuSans-31"/>
       <use x="63.623047" xlink:href="#DejaVuSans-30"/>
      </g>
     </g>
    </g>
    <g id="xtick_3">
     <g id="line2d_3">
      <g>
       <use style="stroke:#000000;stroke-width:0.8;" x="172.516509" xlink:href="#m50759c799b" y="314.44"/>
      </g>
     </g>
     <g id="text_3">
      <!-- 11 -->
      <g transform="translate(166.154009 329.038437)scale(0.1 -0.1)">
       <use xlink:href="#DejaVuSans-31"/>
       <use x="63.623047" xlink:href="#DejaVuSans-31"/>
      </g>
     </g>
    </g>
    <g id="xtick_4">
     <g id="line2d_4">
      <g>
       <use style="stroke:#000000;stroke-width:0.8;" x="229.513046" xlink:href="#m50759c799b" y="314.44"/>
      </g>
     </g>
     <g id="text_4">
      <!-- 12 -->
      <g transform="translate(223.150546 329.038437)scale(0.1 -0.1)">
       <defs>
        <path d="M 1228 531 
L 3431 531 
L 3431 0 
L 469 0 
L 469 531 
Q 828 903 1448 1529 
Q 2069 2156 2228 2338 
Q 2531 2678 2651 2914 
Q 2772 3150 2772 3378 
Q 2772 3750 2511 3984 
Q 2250 4219 1831 4219 
Q 1534 4219 1204 4116 
Q 875 4013 500 3803 
L 500 4441 
Q 881 4594 1212 4672 
Q 1544 4750 1819 4750 
Q 2544 4750 2975 4387 
Q 3406 4025 3406 3419 
Q 3406 3131 3298 2873 
Q 3191 2616 2906 2266 
Q 2828 2175 2409 1742 
Q 1991 1309 1228 531 
z
" id="DejaVuSans-32" transform="scale(0.015625)"/>
       </defs>
       <use xlink:href="#DejaVuSans-31"/>
       <use x="63.623047" xlink:href="#DejaVuSans-32"/>
      </g>
     </g>
    </g>
    <g id="xtick_5">
     <g id="line2d_5">
      <g>
       <use style="stroke:#000000;stroke-width:0.8;" x="286.509582" xlink:href="#m50759c799b" y="314.44"/>
      </g>
     </g>
     <g id="text_5">
      <!-- 13 -->
      <g transform="translate(280.147082 329.038437)scale(0.1 -0.1)">
       <defs>
        <path d="M 2597 2516 
Q 3050 2419 3304 2112 
Q 3559 1806 3559 1356 
Q 3559 666 3084 287 
Q 2609 -91 1734 -91 
Q 1441 -91 1130 -33 
Q 819 25 488 141 
L 488 750 
Q 750 597 1062 519 
Q 1375 441 1716 441 
Q 2309 441 2620 675 
Q 2931 909 2931 1356 
Q 2931 1769 2642 2001 
Q 2353 2234 1838 2234 
L 1294 2234 
L 1294 2753 
L 1863 2753 
Q 2328 2753 2575 2939 
Q 2822 3125 2822 3475 
Q 2822 3834 2567 4026 
Q 2313 4219 1838 4219 
Q 1578 4219 1281 4162 
Q 984 4106 628 3988 
L 628 4550 
Q 988 4650 1302 4700 
Q 1616 4750 1894 4750 
Q 2613 4750 3031 4423 
Q 3450 4097 3450 3541 
Q 3450 3153 3228 2886 
Q 3006 2619 2597 2516 
z
" id="DejaVuSans-33" transform="scale(0.015625)"/>
       </defs>
       <use xlink:href="#DejaVuSans-31"/>
       <use x="63.623047" xlink:href="#DejaVuSans-33"/>
      </g>
     </g>
    </g>
    <g id="xtick_6">
     <g id="line2d_6">
      <g>
       <use style="stroke:#000000;stroke-width:0.8;" x="343.506118" xlink:href="#m50759c799b" y="314.44"/>
      </g>
     </g>
     <g id="text_6">
      <!-- 14 -->
      <g transform="translate(337.143618 329.038437)scale(0.1 -0.1)">
       <defs>
        <path d="M 2419 4116 
L 825 1625 
L 2419 1625 
L 2419 4116 
z
M 2253 4666 
L 3047 4666 
L 3047 1625 
L 3713 1625 
L 3713 1100 
L 3047 1100 
L 3047 0 
L 2419 0 
L 2419 1100 
L 313 1100 
L 313 1709 
L 2253 4666 
z
" id="DejaVuSans-34" transform="scale(0.015625)"/>
       </defs>
       <use xlink:href="#DejaVuSans-31"/>
       <use x="63.623047" xlink:href="#DejaVuSans-34"/>
      </g>
     </g>
    </g>
    <g id="text_7">
     <!-- t/ms -->
     <g transform="translate(189.895246 342.716562)scale(0.1 -0.1)">
      <defs>
       <path d="M 1172 4494 
L 1172 3500 
L 2356 3500 
L 2356 3053 
L 1172 3053 
L 1172 1153 
Q 1172 725 1289 603 
Q 1406 481 1766 481 
L 2356 481 
L 2356 0 
L 1766 0 
Q 1100 0 847 248 
Q 594 497 594 1153 
L 594 3053 
L 172 3053 
L 172 3500 
L 594 3500 
L 594 4494 
L 1172 4494 
z
" id="DejaVuSans-74" transform="scale(0.015625)"/>
       <path d="M 1625 4666 
L 2156 4666 
L 531 -594 
L 0 -594 
L 1625 4666 
z
" id="DejaVuSans-2f" transform="scale(0.015625)"/>
       <path d="M 3328 2828 
Q 3544 3216 3844 3400 
Q 4144 3584 4550 3584 
Q 5097 3584 5394 3201 
Q 5691 2819 5691 2113 
L 5691 0 
L 5113 0 
L 5113 2094 
Q 5113 2597 4934 2840 
Q 4756 3084 4391 3084 
Q 3944 3084 3684 2787 
Q 3425 2491 3425 1978 
L 3425 0 
L 2847 0 
L 2847 2094 
Q 2847 2600 2669 2842 
Q 2491 3084 2119 3084 
Q 1678 3084 1418 2786 
Q 1159 2488 1159 1978 
L 1159 0 
L 581 0 
L 581 3500 
L 1159 3500 
L 1159 2956 
Q 1356 3278 1631 3431 
Q 1906 3584 2284 3584 
Q 2666 3584 2933 3390 
Q 3200 3197 3328 2828 
z
" id="DejaVuSans-6d" transform="scale(0.015625)"/>
       <path d="M 2834 3397 
L 2834 2853 
Q 2591 2978 2328 3040 
Q 2066 3103 1784 3103 
Q 1356 3103 1142 2972 
Q 928 2841 928 2578 
Q 928 2378 1081 2264 
Q 1234 2150 1697 2047 
L 1894 2003 
Q 2506 1872 2764 1633 
Q 3022 1394 3022 966 
Q 3022 478 2636 193 
Q 2250 -91 1575 -91 
Q 1294 -91 989 -36 
Q 684 19 347 128 
L 347 722 
Q 666 556 975 473 
Q 1284 391 1588 391 
Q 1994 391 2212 530 
Q 2431 669 2431 922 
Q 2431 1156 2273 1281 
Q 2116 1406 1581 1522 
L 1381 1569 
Q 847 1681 609 1914 
Q 372 2147 372 2553 
Q 372 3047 722 3315 
Q 1072 3584 1716 3584 
Q 2034 3584 2315 3537 
Q 2597 3491 2834 3397 
z
" id="DejaVuSans-73" transform="scale(0.015625)"/>
      </defs>
      <use xlink:href="#DejaVuSans-74"/>
      <use x="39.208984" xlink:href="#DejaVuSans-2f"/>
      <use x="72.900391" xlink:href="#DejaVuSans-6d"/>
      <use x="170.3125" xlink:href="#DejaVuSans-73"/>
     </g>
    </g>
   </g>
   <g id="matplotlib.axis_2">
    <g id="ytick_1">
     <g id="line2d_7">
      <defs>
       <path d="M 0 0 
L -3.5 0 
" id="m3275628c09" style="stroke:#000000;stroke-width:0.8;"/>
      </defs>
      <g>
       <use style="stroke:#000000;stroke-width:0.8;" x="58.523438" xlink:href="#m3275628c09" y="300.474545"/>
      </g>
     </g>
     <g id="text_8">
      <!-- −65.0 -->
      <g transform="translate(20.878125 304.273764)scale(0.1 -0.1)">
       <defs>
        <path d="M 678 2272 
L 4684 2272 
L 4684 1741 
L 678 1741 
L 678 2272 
z
" id="DejaVuSans-2212" transform="scale(0.015625)"/>
        <path d="M 2113 2584 
Q 1688 2584 1439 2293 
Q 1191 2003 1191 1497 
Q 1191 994 1439 701 
Q 1688 409 2113 409 
Q 2538 409 2786 701 
Q 3034 994 3034 1497 
Q 3034 2003 2786 2293 
Q 2538 2584 2113 2584 
z
M 3366 4563 
L 3366 3988 
Q 3128 4100 2886 4159 
Q 2644 4219 2406 4219 
Q 1781 4219 1451 3797 
Q 1122 3375 1075 2522 
Q 1259 2794 1537 2939 
Q 1816 3084 2150 3084 
Q 2853 3084 3261 2657 
Q 3669 2231 3669 1497 
Q 3669 778 3244 343 
Q 2819 -91 2113 -91 
Q 1303 -91 875 529 
Q 447 1150 447 2328 
Q 447 3434 972 4092 
Q 1497 4750 2381 4750 
Q 2619 4750 2861 4703 
Q 3103 4656 3366 4563 
z
" id="DejaVuSans-36" transform="scale(0.015625)"/>
        <path d="M 691 4666 
L 3169 4666 
L 3169 4134 
L 1269 4134 
L 1269 2991 
Q 1406 3038 1543 3061 
Q 1681 3084 1819 3084 
Q 2600 3084 3056 2656 
Q 3513 2228 3513 1497 
Q 3513 744 3044 326 
Q 2575 -91 1722 -91 
Q 1428 -91 1123 -41 
Q 819 9 494 109 
L 494 744 
Q 775 591 1075 516 
Q 1375 441 1709 441 
Q 2250 441 2565 725 
Q 2881 1009 2881 1497 
Q 2881 1984 2565 2268 
Q 2250 2553 1709 2553 
Q 1456 2553 1204 2497 
Q 953 2441 691 2322 
L 691 4666 
z
" id="DejaVuSans-35" transform="scale(0.015625)"/>
        <path d="M 684 794 
L 1344 794 
L 1344 0 
L 684 0 
L 684 794 
z
" id="DejaVuSans-2e" transform="scale(0.015625)"/>
       </defs>
       <use xlink:href="#DejaVuSans-2212"/>
       <use x="83.789062" xlink:href="#DejaVuSans-36"/>
       <use x="147.412109" xlink:href="#DejaVuSans-35"/>
       <use x="211.035156" xlink:href="#DejaVuSans-2e"/>
       <use x="242.822266" xlink:href="#DejaVuSans-30"/>
      </g>
     </g>
    </g>
    <g id="ytick_2">
     <g id="line2d_8">
      <g>
       <use style="stroke:#000000;stroke-width:0.8;" x="58.523438" xlink:href="#m3275628c09" y="263.573803"/>
      </g>
     </g>
     <g id="text_9">
      <!-- −64.8 -->
      <g transform="translate(20.878125 267.373022)scale(0.1 -0.1)">
       <defs>
        <path d="M 2034 2216 
Q 1584 2216 1326 1975 
Q 1069 1734 1069 1313 
Q 1069 891 1326 650 
Q 1584 409 2034 409 
Q 2484 409 2743 651 
Q 3003 894 3003 1313 
Q 3003 1734 2745 1975 
Q 2488 2216 2034 2216 
z
M 1403 2484 
Q 997 2584 770 2862 
Q 544 3141 544 3541 
Q 544 4100 942 4425 
Q 1341 4750 2034 4750 
Q 2731 4750 3128 4425 
Q 3525 4100 3525 3541 
Q 3525 3141 3298 2862 
Q 3072 2584 2669 2484 
Q 3125 2378 3379 2068 
Q 3634 1759 3634 1313 
Q 3634 634 3220 271 
Q 2806 -91 2034 -91 
Q 1263 -91 848 271 
Q 434 634 434 1313 
Q 434 1759 690 2068 
Q 947 2378 1403 2484 
z
M 1172 3481 
Q 1172 3119 1398 2916 
Q 1625 2713 2034 2713 
Q 2441 2713 2670 2916 
Q 2900 3119 2900 3481 
Q 2900 3844 2670 4047 
Q 2441 4250 2034 4250 
Q 1625 4250 1398 4047 
Q 1172 3844 1172 3481 
z
" id="DejaVuSans-38" transform="scale(0.015625)"/>
       </defs>
       <use xlink:href="#DejaVuSans-2212"/>
       <use x="83.789062" xlink:href="#DejaVuSans-36"/>
       <use x="147.412109" xlink:href="#DejaVuSans-34"/>
       <use x="211.035156" xlink:href="#DejaVuSans-2e"/>
       <use x="242.822266" xlink:href="#DejaVuSans-38"/>
      </g>
     </g>
    </g>
    <g id="ytick_3">
     <g id="line2d_9">
      <g>
       <use style="stroke:#000000;stroke-width:0.8;" x="58.523438" xlink:href="#m3275628c09" y="226.67306"/>
      </g>
     </g>
     <g id="text_10">
      <!-- −64.6 -->
      <g transform="translate(20.878125 230.472279)scale(0.1 -0.1)">
       <use xlink:href="#DejaVuSans-2212"/>
       <use x="83.789062" xlink:href="#DejaVuSans-36"/>
       <use x="147.412109" xlink:href="#DejaVuSans-34"/>
       <use x="211.035156" xlink:href="#DejaVuSans-2e"/>
       <use x="242.822266" xlink:href="#DejaVuSans-36"/>
      </g>
     </g>
    </g>
    <g id="ytick_4">
     <g id="line2d_10">
      <g>
       <use style="stroke:#000000;stroke-width:0.8;" x="58.523438" xlink:href="#m3275628c09" y="189.772318"/>
      </g>
     </g>
     <g id="text_11">
      <!-- −64.4 -->
      <g transform="translate(20.878125 193.571536)scale(0.1 -0.1)">
       <use xlink:href="#DejaVuSans-2212"/>
       <use x="83.789062" xlink:href="#DejaVuSans-36"/>
       <use x="147.412109" xlink:href="#DejaVuSans-34"/>
       <use x="211.035156" xlink:href="#DejaVuSans-2e"/>
       <use x="242.822266" xlink:href="#DejaVuSans-34"/>
      </g>
     </g>
    </g>
    <g id="ytick_5">
     <g id="line2d_11">
      <g>
       <use style="stroke:#000000;stroke-width:0.8;" x="58.523438" xlink:href="#m3275628c09" y="152.871575"/>
      </g>
     </g>
     <g id="text_12">
      <!-- −64.2 -->
      <g transform="translate(20.878125 156.670794)scale(0.1 -0.1)">
       <use xlink:href="#DejaVuSans-2212"/>
       <use x="83.789062" xlink:href="#DejaVuSans-36"/>
       <use x="147.412109" xlink:href="#DejaVuSans-34"/>
       <use x="211.035156" xlink:href="#DejaVuSans-2e"/>
       <use x="242.822266" xlink:href="#DejaVuSans-32"/>
      </g>
     </g>
    </g>
    <g id="ytick_6">
     <g id="line2d_12">
      <g>
       <use style="stroke:#000000;stroke-width:0.8;" x="58.523438" xlink:href="#m3275628c09" y="115.970833"/>
      </g>
     </g>
     <g id="text_13">
      <!-- −64.0 -->
      <g transform="translate(20.878125 119.770051)scale(0.1 -0.1)">
       <use xlink:href="#DejaVuSans-2212"/>
       <use x="83.789062" xlink:href="#DejaVuSans-36"/>
       <use x="147.412109" xlink:href="#DejaVuSans-34"/>
       <use x="211.035156" xlink:href="#DejaVuSans-2e"/>
       <use x="242.822266" xlink:href="#DejaVuSans-30"/>
      </g>
     </g>
    </g>
    <g id="ytick_7">
     <g id="line2d_13">
      <g>
       <use style="stroke:#000000;stroke-width:0.8;" x="58.523438" xlink:href="#m3275628c09" y="79.07009"/>
      </g>
     </g>
     <g id="text_14">
      <!-- −63.8 -->
      <g transform="translate(20.878125 82.869309)scale(0.1 -0.1)">
       <use xlink:href="#DejaVuSans-2212"/>
       <use x="83.789062" xlink:href="#DejaVuSans-36"/>
       <use x="147.412109" xlink:href="#DejaVuSans-33"/>
       <use x="211.035156" xlink:href="#DejaVuSans-2e"/>
       <use x="242.822266" xlink:href="#DejaVuSans-38"/>
      </g>
     </g>
    </g>
    <g id="ytick_8">
     <g id="line2d_14">
      <g>
       <use style="stroke:#000000;stroke-width:0.8;" x="58.523438" xlink:href="#m3275628c09" y="42.169347"/>
      </g>
     </g>
     <g id="text_15">
      <!-- −63.6 -->
      <g transform="translate(20.878125 45.968566)scale(0.1 -0.1)">
       <use xlink:href="#DejaVuSans-2212"/>
       <use x="83.789062" xlink:href="#DejaVuSans-36"/>
       <use x="147.412109" xlink:href="#DejaVuSans-33"/>
       <use x="211.035156" xlink:href="#DejaVuSans-2e"/>
       <use x="242.822266" xlink:href="#DejaVuSans-36"/>
      </g>
     </g>
    </g>
    <g id="text_16">
     <!-- U/mV -->
     <g transform="translate(14.798438 174.454375)rotate(-90)scale(0.1 -0.1)">
      <defs>
       <path d="M 556 4666 
L 1191 4666 
L 1191 1831 
Q 1191 1081 1462 751 
Q 1734 422 2344 422 
Q 2950 422 3222 751 
Q 3494 1081 3494 1831 
L 3494 4666 
L 4128 4666 
L 4128 1753 
Q 4128 841 3676 375 
Q 3225 -91 2344 -91 
Q 1459 -91 1007 375 
Q 556 841 556 1753 
L 556 4666 
z
" id="DejaVuSans-55" transform="scale(0.015625)"/>
       <path d="M 1831 0 
L 50 4666 
L 709 4666 
L 2188 738 
L 3669 4666 
L 4325 4666 
L 2547 0 
L 1831 0 
z
" id="DejaVuSans-56" transform="scale(0.015625)"/>
      </defs>
      <use xlink:href="#DejaVuSans-55"/>
      <use x="73.193359" xlink:href="#DejaVuSans-2f"/>
      <use x="106.884766" xlink:href="#DejaVuSans-6d"/>
      <use x="204.296875" xlink:href="#DejaVuSans-56"/>
     </g>
    </g>
   </g>
   <g id="line2d_15">
    <path clip-path="url(#p8a67720654)" d="M 58.466441 300.474545 
L 115.57697 300.474545 
L 119.167752 121.270817 
L 121.276624 21.165455 
L 121.33362 21.444485 
L 124.981398 38.734583 
L 128.629177 54.953301 
L 132.276955 70.167026 
L 135.924733 84.438032 
L 139.572512 97.824736 
L 143.22029 110.381932 
L 146.925065 122.339157 
L 150.62984 133.544247 
L 154.334615 144.044514 
L 158.039389 153.884292 
L 161.744164 163.105127 
L 165.505936 171.874552 
L 169.267707 180.084152 
L 173.029478 187.769666 
L 176.848246 195.069954 
L 180.667014 201.897377 
L 184.542779 208.374664 
L 188.47554 214.512306 
L 192.408301 220.240927 
L 196.398058 225.662599 
L 200.444812 230.787596 
L 204.548563 235.626353 
L 208.70931 240.189413 
L 212.927054 244.487379 
L 217.25879 248.582762 
L 221.647524 252.426621 
L 226.15025 256.074593 
L 230.766969 259.527532 
L 235.497682 262.787352 
L 240.342387 265.856925 
L 245.358083 268.771689 
L 250.544767 271.52796 
L 255.902442 274.12373 
L 261.488102 276.582437 
L 267.301749 278.898166 
L 273.400378 281.086578 
L 279.78399 283.139875 
L 286.509581 285.068384 
L 293.634148 286.877806 
L 301.214688 288.570284 
L 309.251199 290.135093 
L 317.914673 291.592402 
L 327.262105 292.93528 
L 337.407488 294.164053 
L 343.563114 294.809767 
L 343.563114 294.809767 
" style="fill:none;stroke:#f77189;stroke-linecap:square;stroke-width:1.5;"/>
   </g>
   <g id="line2d_16">
    <path clip-path="url(#p8a67720654)" d="M 58.466441 300.474545 
L 115.57697 300.474545 
L 119.167752 121.270817 
L 121.276624 21.165455 
L 121.33362 21.444485 
L 124.981398 38.734583 
L 128.629177 54.953301 
L 132.276955 70.167026 
L 135.924733 84.438032 
L 139.572512 97.824736 
L 143.22029 110.381932 
L 146.925065 122.339157 
L 150.62984 133.544247 
L 154.334615 144.044514 
L 158.039389 153.884292 
L 161.744164 163.105127 
L 165.505936 171.874552 
L 169.267707 180.084152 
L 173.029478 187.769666 
L 176.848246 195.069954 
L 180.667014 201.897377 
L 184.542779 208.374664 
L 188.47554 214.512306 
L 192.408301 220.240927 
L 196.398058 225.662599 
L 200.444812 230.787596 
L 204.548563 235.626353 
L 208.70931 240.189413 
L 212.927054 244.487379 
L 217.25879 248.582762 
L 221.647524 252.426621 
L 226.15025 256.074593 
L 230.766969 259.527532 
L 235.497682 262.787352 
L 240.342387 265.856925 
L 245.358083 268.771689 
L 250.544767 271.52796 
L 255.902442 274.12373 
L 261.488102 276.582437 
L 267.301749 278.898166 
L 273.400378 281.086578 
L 279.78399 283.139875 
L 286.509581 285.068384 
L 293.634148 286.877806 
L 301.214688 288.570284 
L 309.251199 290.135093 
L 317.914673 291.592402 
L 327.262105 292.93528 
L 337.407488 294.164053 
L 343.563114 294.809767 
L 343.563114 294.809767 
" style="fill:none;stroke:#e18632;stroke-linecap:square;stroke-width:1.5;"/>
   </g>
   <g id="line2d_17">
    <path clip-path="url(#p8a67720654)" d="M 58.466441 300.474545 
L 115.57697 300.474545 
L 119.167752 121.270817 
L 121.276624 21.165455 
L 121.33362 21.444485 
L 124.981398 38.734583 
L 128.629177 54.953301 
L 132.276955 70.167026 
L 135.924733 84.438032 
L 139.572512 97.824736 
L 143.22029 110.381932 
L 146.925065 122.339157 
L 150.62984 133.544247 
L 154.334615 144.044514 
L 158.039389 153.884292 
L 161.744164 163.105127 
L 165.505936 171.874552 
L 169.267707 180.084152 
L 173.029478 187.769666 
L 176.848246 195.069954 
L 180.667014 201.897377 
L 184.542779 208.374664 
L 188.47554 214.512306 
L 192.408301 220.240927 
L 196.398058 225.662599 
L 200.444812 230.787596 
L 204.548563 235.626353 
L 208.70931 240.189413 
L 212.927054 244.487379 
L 217.25879 248.582762 
L 221.647524 252.426621 
L 226.15025 256.074593 
L 230.766969 259.527532 
L 235.497682 262.787352 
L 240.342387 265.856925 
L 245.358083 268.771689 
L 250.544767 271.52796 
L 255.902442 274.12373 
L 261.488102 276.582437 
L 267.301749 278.898166 
L 273.400378 281.086578 
L 279.78399 283.139875 
L 286.509581 285.068384 
L 293.634148 286.877806 
L 301.214688 288.570284 
L 309.251199 290.135093 
L 317.914673 291.592402 
L 327.262105 292.93528 
L 337.407488 294.164053 
L 343.563114 294.809767 
L 343.563114 294.809767 
" style="fill:none;stroke:#b59a32;stroke-linecap:square;stroke-width:1.5;"/>
   </g>
   <g id="line2d_18">
    <path clip-path="url(#p8a67720654)" d="M 58.466441 300.474545 
L 115.57697 300.474545 
L 119.167752 121.270817 
L 121.276624 21.165455 
L 121.33362 21.444485 
L 124.981398 38.734583 
L 128.629177 54.953301 
L 132.276955 70.167026 
L 135.924733 84.438032 
L 139.572512 97.824736 
L 143.22029 110.381932 
L 146.925065 122.339157 
L 150.62984 133.544247 
L 154.334615 144.044514 
L 158.039389 153.884292 
L 161.744164 163.105127 
L 165.505936 171.874552 
L 169.267707 180.084152 
L 173.029478 187.769666 
L 176.848246 195.069954 
L 180.667014 201.897377 
L 184.542779 208.374664 
L 188.47554 214.512306 
L 192.408301 220.240927 
L 196.398058 225.662599 
L 200.444812 230.787596 
L 204.548563 235.626353 
L 208.70931 240.189413 
L 212.927054 244.487379 
L 217.25879 248.582762 
L 221.647524 252.426621 
L 226.15025 256.074593 
L 230.766969 259.527532 
L 235.497682 262.787352 
L 240.342387 265.856925 
L 245.358083 268.771689 
L 250.544767 271.52796 
L 255.902442 274.12373 
L 261.488102 276.582437 
L 267.301749 278.898166 
L 273.400378 281.086578 
L 279.78399 283.139875 
L 286.509581 285.068384 
L 293.634148 286.877806 
L 301.214688 288.570284 
L 309.251199 290.135093 
L 317.914673 291.592402 
L 327.262105 292.93528 
L 337.407488 294.164053 
L 343.563114 294.809767 
L 343.563114 294.809767 
" style="fill:none;stroke:#8ba731;stroke-linecap:square;stroke-width:1.5;"/>
   </g>
   <g id="line2d_19">
    <path clip-path="url(#p8a67720654)" d="M 58.466441 300.474545 
L 115.57697 300.474545 
L 119.167752 121.270817 
L 121.276624 21.165455 
L 121.33362 21.444485 
L 124.981398 38.734583 
L 128.629177 54.953301 
L 132.276955 70.167026 
L 135.924733 84.438032 
L 139.572512 97.824736 
L 143.22029 110.381932 
L 146.925065 122.339157 
L 150.62984 133.544247 
L 154.334615 144.044514 
L 158.039389 153.884292 
L 161.744164 163.105127 
L 165.505936 171.874552 
L 169.267707 180.084152 
L 173.029478 187.769666 
L 176.848246 195.069954 
L 180.667014 201.897377 
L 184.542779 208.374664 
L 188.47554 214.512306 
L 192.408301 220.240927 
L 196.398058 225.662599 
L 200.444812 230.787596 
L 204.548563 235.626353 
L 208.70931 240.189413 
L 212.927054 244.487379 
L 217.25879 248.582762 
L 221.647524 252.426621 
L 226.15025 256.074593 
L 230.766969 259.527532 
L 235.497682 262.787352 
L 240.342387 265.856925 
L 245.358083 268.771689 
L 250.544767 271.52796 
L 255.902442 274.12373 
L 261.488102 276.582437 
L 267.301749 278.898166 
L 273.400378 281.086578 
L 279.78399 283.139875 
L 286.509581 285.068384 
L 293.634148 286.877806 
L 301.214688 288.570284 
L 309.251199 290.135093 
L 317.914673 291.592402 
L 327.262105 292.93528 
L 337.407488 294.164053 
L 343.563114 294.809767 
L 343.563114 294.809767 
" style="fill:none;stroke:#32b258;stroke-linecap:square;stroke-width:1.5;"/>
   </g>
   <g id="line2d_20">
    <path clip-path="url(#p8a67720654)" d="M 58.466441 300.474545 
L 115.57697 300.474545 
L 119.167752 121.270817 
L 121.276624 21.165455 
L 121.33362 21.444485 
L 124.981398 38.734583 
L 128.629177 54.953301 
L 132.276955 70.167026 
L 135.924733 84.438032 
L 139.572512 97.824736 
L 143.22029 110.381932 
L 146.925065 122.339157 
L 150.62984 133.544247 
L 154.334615 144.044514 
L 158.039389 153.884292 
L 161.744164 163.105127 
L 165.505936 171.874552 
L 169.267707 180.084152 
L 173.029478 187.769666 
L 176.848246 195.069954 
L 180.667014 201.897377 
L 184.542779 208.374664 
L 188.47554 214.512306 
L 192.408301 220.240927 
L 196.398058 225.662599 
L 200.444812 230.787596 
L 204.548563 235.626353 
L 208.70931 240.189413 
L 212.927054 244.487379 
L 217.25879 248.582762 
L 221.647524 252.426621 
L 226.15025 256.074593 
L 230.766969 259.527532 
L 235.497682 262.787352 
L 240.342387 265.856925 
L 245.358083 268.771689 
L 250.544767 271.52796 
L 255.902442 274.12373 
L 261.488102 276.582437 
L 267.301749 278.898166 
L 273.400378 281.086578 
L 279.78399 283.139875 
L 286.509581 285.068384 
L 293.634148 286.877806 
L 301.214688 288.570284 
L 309.251199 290.135093 
L 317.914673 291.592402 
L 327.262105 292.93528 
L 337.407488 294.164053 
L 343.563114 294.809767 
L 343.563114 294.809767 
" style="fill:none;stroke:#35ae95;stroke-linecap:square;stroke-width:1.5;"/>
   </g>
   <g id="line2d_21">
    <path clip-path="url(#p8a67720654)" d="M 58.466441 300.474545 
L 115.57697 300.474545 
L 119.167752 121.270817 
L 121.276624 21.165455 
L 121.33362 21.444485 
L 124.981398 38.734583 
L 128.629177 54.953301 
L 132.276955 70.167026 
L 135.924733 84.438032 
L 139.572512 97.824736 
L 143.22029 110.381932 
L 146.925065 122.339157 
L 150.62984 133.544247 
L 154.334615 144.044514 
L 158.039389 153.884292 
L 161.744164 163.105127 
L 165.505936 171.874552 
L 169.267707 180.084152 
L 173.029478 187.769666 
L 176.848246 195.069954 
L 180.667014 201.897377 
L 184.542779 208.374664 
L 188.47554 214.512306 
L 192.408301 220.240927 
L 196.398058 225.662599 
L 200.444812 230.787596 
L 204.548563 235.626353 
L 208.70931 240.189413 
L 212.927054 244.487379 
L 217.25879 248.582762 
L 221.647524 252.426621 
L 226.15025 256.074593 
L 230.766969 259.527532 
L 235.497682 262.787352 
L 240.342387 265.856925 
L 245.358083 268.771689 
L 250.544767 271.52796 
L 255.902442 274.12373 
L 261.488102 276.582437 
L 267.301749 278.898166 
L 273.400378 281.086578 
L 279.78399 283.139875 
L 286.509581 285.068384 
L 293.634148 286.877806 
L 301.214688 288.570284 
L 309.251199 290.135093 
L 317.914673 291.592402 
L 327.262105 292.93528 
L 337.407488 294.164053 
L 343.563114 294.809767 
L 343.563114 294.809767 
" style="fill:none;stroke:#37abb2;stroke-linecap:square;stroke-width:1.5;"/>
   </g>
   <g id="line2d_22">
    <path clip-path="url(#p8a67720654)" d="M 58.466441 300.474545 
L 115.57697 300.474545 
L 119.167752 121.270817 
L 121.276624 21.165455 
L 121.33362 21.444485 
L 124.981398 38.734583 
L 128.629177 54.953301 
L 132.276955 70.167026 
L 135.924733 84.438032 
L 139.572512 97.824736 
L 143.22029 110.381932 
L 146.925065 122.339157 
L 150.62984 133.544247 
L 154.334615 144.044514 
L 158.039389 153.884292 
L 161.744164 163.105127 
L 165.505936 171.874552 
L 169.267707 180.084152 
L 173.029478 187.769666 
L 176.848246 195.069954 
L 180.667014 201.897377 
L 184.542779 208.374664 
L 188.47554 214.512306 
L 192.408301 220.240927 
L 196.398058 225.662599 
L 200.444812 230.787596 
L 204.548563 235.626353 
L 208.70931 240.189413 
L 212.927054 244.487379 
L 217.25879 248.582762 
L 221.647524 252.426621 
L 226.15025 256.074593 
L 230.766969 259.527532 
L 235.497682 262.787352 
L 240.342387 265.856925 
L 245.358083 268.771689 
L 250.544767 271.52796 
L 255.902442 274.12373 
L 261.488102 276.582437 
L 267.301749 278.898166 
L 273.400378 281.086578 
L 279.78399 283.139875 
L 286.509581 285.068384 
L 293.634148 286.877806 
L 301.214688 288.570284 
L 309.251199 290.135093 
L 317.914673 291.592402 
L 327.262105 292.93528 
L 337.407488 294.164053 
L 343.563114 294.809767 
L 343.563114 294.809767 
" style="fill:none;stroke:#39a7d6;stroke-linecap:square;stroke-width:1.5;"/>
   </g>
   <g id="line2d_23">
    <path clip-path="url(#p8a67720654)" d="M 58.466441 300.474545 
L 115.57697 300.474545 
L 119.167752 121.270817 
L 121.276624 21.165455 
L 121.33362 21.444485 
L 124.981398 38.734583 
L 128.629177 54.953301 
L 132.276955 70.167026 
L 135.924733 84.438032 
L 139.572512 97.824736 
L 143.22029 110.381932 
L 146.925065 122.339157 
L 150.62984 133.544247 
L 154.334615 144.044514 
L 158.039389 153.884292 
L 161.744164 163.105127 
L 165.505936 171.874552 
L 169.267707 180.084152 
L 173.029478 187.769666 
L 176.848246 195.069954 
L 180.667014 201.897377 
L 184.542779 208.374664 
L 188.47554 214.512306 
L 192.408301 220.240927 
L 196.398058 225.662599 
L 200.444812 230.787596 
L 204.548563 235.626353 
L 208.70931 240.189413 
L 212.927054 244.487379 
L 217.25879 248.582762 
L 221.647524 252.426621 
L 226.15025 256.074593 
L 230.766969 259.527532 
L 235.497682 262.787352 
L 240.342387 265.856925 
L 245.358083 268.771689 
L 250.544767 271.52796 
L 255.902442 274.12373 
L 261.488102 276.582437 
L 267.301749 278.898166 
L 273.400378 281.086578 
L 279.78399 283.139875 
L 286.509581 285.068384 
L 293.634148 286.877806 
L 301.214688 288.570284 
L 309.251199 290.135093 
L 317.914673 291.592402 
L 327.262105 292.93528 
L 337.407488 294.164053 
L 343.563114 294.809767 
L 343.563114 294.809767 
" style="fill:none;stroke:#8f93f4;stroke-linecap:square;stroke-width:1.5;"/>
   </g>
   <g id="line2d_24">
    <path clip-path="url(#p8a67720654)" d="M 58.466441 300.474545 
L 115.57697 300.474545 
L 119.167752 121.270817 
L 121.276624 21.165455 
L 121.33362 21.444485 
L 124.981398 38.734583 
L 128.629177 54.953301 
L 132.276955 70.167026 
L 135.924733 84.438032 
L 139.572512 97.824736 
L 143.22029 110.381932 
L 146.925065 122.339157 
L 150.62984 133.544247 
L 154.334615 144.044514 
L 158.039389 153.884292 
L 161.744164 163.105127 
L 165.505936 171.874552 
L 169.267707 180.084152 
L 173.029478 187.769666 
L 176.848246 195.069954 
L 180.667014 201.897377 
L 184.542779 208.374664 
L 188.47554 214.512306 
L 192.408301 220.240927 
L 196.398058 225.662599 
L 200.444812 230.787596 
L 204.548563 235.626353 
L 208.70931 240.189413 
L 212.927054 244.487379 
L 217.25879 248.582762 
L 221.647524 252.426621 
L 226.15025 256.074593 
L 230.766969 259.527532 
L 235.497682 262.787352 
L 240.342387 265.856925 
L 245.358083 268.771689 
L 250.544767 271.52796 
L 255.902442 274.12373 
L 261.488102 276.582437 
L 267.301749 278.898166 
L 273.400378 281.086578 
L 279.78399 283.139875 
L 286.509581 285.068384 
L 293.634148 286.877806 
L 301.214688 288.570284 
L 309.251199 290.135093 
L 317.914673 291.592402 
L 327.262105 292.93528 
L 337.407488 294.164053 
L 343.563114 294.809767 
L 343.563114 294.809767 
" style="fill:none;stroke:#db70f4;stroke-linecap:square;stroke-width:1.5;"/>
   </g>
   <g id="line2d_25">
    <path clip-path="url(#p8a67720654)" d="M 58.466441 300.474545 
L 115.57697 300.474545 
L 119.167752 121.270817 
L 121.276624 21.165455 
L 121.33362 21.444485 
L 124.981398 38.734583 
L 128.629177 54.953301 
L 132.276955 70.167026 
L 135.924733 84.438032 
L 139.572512 97.824736 
L 143.22029 110.381932 
L 146.925065 122.339157 
L 150.62984 133.544247 
L 154.334615 144.044514 
L 158.039389 153.884292 
L 161.744164 163.105127 
L 165.505936 171.874552 
L 169.267707 180.084152 
L 173.029478 187.769666 
L 176.848246 195.069954 
L 180.667014 201.897377 
L 184.542779 208.374664 
L 188.47554 214.512306 
L 192.408301 220.240927 
L 196.398058 225.662599 
L 200.444812 230.787596 
L 204.548563 235.626353 
L 208.70931 240.189413 
L 212.927054 244.487379 
L 217.25879 248.582762 
L 221.647524 252.426621 
L 226.15025 256.074593 
L 230.766969 259.527532 
L 235.497682 262.787352 
L 240.342387 265.856925 
L 245.358083 268.771689 
L 250.544767 271.52796 
L 255.902442 274.12373 
L 261.488102 276.582437 
L 267.301749 278.898166 
L 273.400378 281.086578 
L 279.78399 283.139875 
L 286.509581 285.068384 
L 293.634148 286.877806 
L 301.214688 288.570284 
L 309.251199 290.135093 
L 317.914673 291.592402 
L 327.262105 292.93528 
L 337.407488 294.164053 
L 343.563114 294.809767 
L 343.563114 294.809767 
" style="fill:none;stroke:#f667c6;stroke-linecap:square;stroke-width:1.5;"/>
   </g>
   <g id="line2d_26"/>
   <g id="line2d_27"/>
   <g id="line2d_28"/>
   <g id="line2d_29"/>
   <g id="line2d_30"/>
   <g id="line2d_31"/>
   <g id="line2d_32"/>
   <g id="line2d_33"/>
   <g id="line2d_34"/>
   <g id="line2d_35"/>
   <g id="line2d_36"/>
   <g id="patch_3">
    <path d="M 58.523438 314.44 
L 58.523438 7.2 
" style="fill:none;stroke:#000000;stroke-linecap:square;stroke-linejoin:miter;stroke-width:0.8;"/>
   </g>
   <g id="patch_4">
    <path d="M 58.523438 314.44 
L 343.506118 314.44 
" style="fill:none;stroke:#000000;stroke-linecap:square;stroke-linejoin:miter;stroke-width:0.8;"/>
   </g>
  </g>
  <g id="legend_1">
   <g id="text_17">
    <!-- Probe -->
    <g transform="translate(354.940049 98.027812)scale(0.1 -0.1)">
     <defs>
      <path d="M 1259 4147 
L 1259 2394 
L 2053 2394 
Q 2494 2394 2734 2622 
Q 2975 2850 2975 3272 
Q 2975 3691 2734 3919 
Q 2494 4147 2053 4147 
L 1259 4147 
z
M 628 4666 
L 2053 4666 
Q 2838 4666 3239 4311 
Q 3641 3956 3641 3272 
Q 3641 2581 3239 2228 
Q 2838 1875 2053 1875 
L 1259 1875 
L 1259 0 
L 628 0 
L 628 4666 
z
" id="DejaVuSans-50" transform="scale(0.015625)"/>
      <path d="M 2631 2963 
Q 2534 3019 2420 3045 
Q 2306 3072 2169 3072 
Q 1681 3072 1420 2755 
Q 1159 2438 1159 1844 
L 1159 0 
L 581 0 
L 581 3500 
L 1159 3500 
L 1159 2956 
Q 1341 3275 1631 3429 
Q 1922 3584 2338 3584 
Q 2397 3584 2469 3576 
Q 2541 3569 2628 3553 
L 2631 2963 
z
" id="DejaVuSans-72" transform="scale(0.015625)"/>
      <path d="M 1959 3097 
Q 1497 3097 1228 2736 
Q 959 2375 959 1747 
Q 959 1119 1226 758 
Q 1494 397 1959 397 
Q 2419 397 2687 759 
Q 2956 1122 2956 1747 
Q 2956 2369 2687 2733 
Q 2419 3097 1959 3097 
z
M 1959 3584 
Q 2709 3584 3137 3096 
Q 3566 2609 3566 1747 
Q 3566 888 3137 398 
Q 2709 -91 1959 -91 
Q 1206 -91 779 398 
Q 353 888 353 1747 
Q 353 2609 779 3096 
Q 1206 3584 1959 3584 
z
" id="DejaVuSans-6f" transform="scale(0.015625)"/>
      <path d="M 3116 1747 
Q 3116 2381 2855 2742 
Q 2594 3103 2138 3103 
Q 1681 3103 1420 2742 
Q 1159 2381 1159 1747 
Q 1159 1113 1420 752 
Q 1681 391 2138 391 
Q 2594 391 2855 752 
Q 3116 1113 3116 1747 
z
M 1159 2969 
Q 1341 3281 1617 3432 
Q 1894 3584 2278 3584 
Q 2916 3584 3314 3078 
Q 3713 2572 3713 1747 
Q 3713 922 3314 415 
Q 2916 -91 2278 -91 
Q 1894 -91 1617 61 
Q 1341 213 1159 525 
L 1159 0 
L 581 0 
L 581 4863 
L 1159 4863 
L 1159 2969 
z
" id="DejaVuSans-62" transform="scale(0.015625)"/>
      <path d="M 3597 1894 
L 3597 1613 
L 953 1613 
Q 991 1019 1311 708 
Q 1631 397 2203 397 
Q 2534 397 2845 478 
Q 3156 559 3463 722 
L 3463 178 
Q 3153 47 2828 -22 
Q 2503 -91 2169 -91 
Q 1331 -91 842 396 
Q 353 884 353 1716 
Q 353 2575 817 3079 
Q 1281 3584 2069 3584 
Q 2775 3584 3186 3129 
Q 3597 2675 3597 1894 
z
M 3022 2063 
Q 3016 2534 2758 2815 
Q 2500 3097 2075 3097 
Q 1594 3097 1305 2825 
Q 1016 2553 972 2059 
L 3022 2063 
z
" id="DejaVuSans-65" transform="scale(0.015625)"/>
     </defs>
     <use xlink:href="#DejaVuSans-50"/>
     <use x="58.552734" xlink:href="#DejaVuSans-72"/>
     <use x="97.416016" xlink:href="#DejaVuSans-6f"/>
     <use x="158.597656" xlink:href="#DejaVuSans-62"/>
     <use x="222.074219" xlink:href="#DejaVuSans-65"/>
    </g>
   </g>
   <g id="line2d_37">
    <path d="M 348.758017 109.205937 
L 368.758017 109.205937 
" style="fill:none;stroke:#f77189;stroke-linecap:square;stroke-width:1.5;"/>
   </g>
   <g id="line2d_38"/>
   <g id="text_18">
    <!-- 0 -->
    <g transform="translate(376.758017 112.705937)scale(0.1 -0.1)">
     <use xlink:href="#DejaVuSans-30"/>
    </g>
   </g>
   <g id="line2d_39">
    <path d="M 348.758017 123.884062 
L 368.758017 123.884062 
" style="fill:none;stroke:#e18632;stroke-linecap:square;stroke-width:1.5;"/>
   </g>
   <g id="line2d_40"/>
   <g id="text_19">
    <!-- 1 -->
    <g transform="translate(376.758017 127.384062)scale(0.1 -0.1)">
     <use xlink:href="#DejaVuSans-31"/>
    </g>
   </g>
   <g id="line2d_41">
    <path d="M 348.758017 138.562187 
L 368.758017 138.562187 
" style="fill:none;stroke:#b59a32;stroke-linecap:square;stroke-width:1.5;"/>
   </g>
   <g id="line2d_42"/>
   <g id="text_20">
    <!-- 2 -->
    <g transform="translate(376.758017 142.062187)scale(0.1 -0.1)">
     <use xlink:href="#DejaVuSans-32"/>
    </g>
   </g>
   <g id="line2d_43">
    <path d="M 348.758017 153.240312 
L 368.758017 153.240312 
" style="fill:none;stroke:#8ba731;stroke-linecap:square;stroke-width:1.5;"/>
   </g>
   <g id="line2d_44"/>
   <g id="text_21">
    <!-- 3 -->
    <g transform="translate(376.758017 156.740312)scale(0.1 -0.1)">
     <use xlink:href="#DejaVuSans-33"/>
    </g>
   </g>
   <g id="line2d_45">
    <path d="M 348.758017 167.918437 
L 368.758017 167.918437 
" style="fill:none;stroke:#32b258;stroke-linecap:square;stroke-width:1.5;"/>
   </g>
   <g id="line2d_46"/>
   <g id="text_22">
    <!-- 4 -->
    <g transform="translate(376.758017 171.418437)scale(0.1 -0.1)">
     <use xlink:href="#DejaVuSans-34"/>
    </g>
   </g>
   <g id="line2d_47">
    <path d="M 348.758017 182.596563 
L 368.758017 182.596563 
" style="fill:none;stroke:#35ae95;stroke-linecap:square;stroke-width:1.5;"/>
   </g>
   <g id="line2d_48"/>
   <g id="text_23">
    <!-- 5 -->
    <g transform="translate(376.758017 186.096563)scale(0.1 -0.1)">
     <use xlink:href="#DejaVuSans-35"/>
    </g>
   </g>
   <g id="line2d_49">
    <path d="M 348.758017 197.274687 
L 368.758017 197.274687 
" style="fill:none;stroke:#37abb2;stroke-linecap:square;stroke-width:1.5;"/>
   </g>
   <g id="line2d_50"/>
   <g id="text_24">
    <!-- 6 -->
    <g transform="translate(376.758017 200.774687)scale(0.1 -0.1)">
     <use xlink:href="#DejaVuSans-36"/>
    </g>
   </g>
   <g id="line2d_51">
    <path d="M 348.758017 211.952812 
L 368.758017 211.952812 
" style="fill:none;stroke:#39a7d6;stroke-linecap:square;stroke-width:1.5;"/>
   </g>
   <g id="line2d_52"/>
   <g id="text_25">
    <!-- 7 -->
    <g transform="translate(376.758017 215.452812)scale(0.1 -0.1)">
     <defs>
      <path d="M 525 4666 
L 3525 4666 
L 3525 4397 
L 1831 0 
L 1172 0 
L 2766 4134 
L 525 4134 
L 525 4666 
z
" id="DejaVuSans-37" transform="scale(0.015625)"/>
     </defs>
     <use xlink:href="#DejaVuSans-37"/>
    </g>
   </g>
   <g id="line2d_53">
    <path d="M 348.758017 226.630937 
L 368.758017 226.630937 
" style="fill:none;stroke:#8f93f4;stroke-linecap:square;stroke-width:1.5;"/>
   </g>
   <g id="line2d_54"/>
   <g id="text_26">
    <!-- 8 -->
    <g transform="translate(376.758017 230.130937)scale(0.1 -0.1)">
     <use xlink:href="#DejaVuSans-38"/>
    </g>
   </g>
   <g id="line2d_55">
    <path d="M 348.758017 241.309062 
L 368.758017 241.309062 
" style="fill:none;stroke:#db70f4;stroke-linecap:square;stroke-width:1.5;"/>
   </g>
   <g id="line2d_56"/>
   <g id="text_27">
    <!-- 9 -->
    <g transform="translate(376.758017 244.809062)scale(0.1 -0.1)">
     <use xlink:href="#DejaVuSans-39"/>
    </g>
   </g>
   <g id="line2d_57">
    <path d="M 348.758017 255.987187 
L 368.758017 255.987187 
" style="fill:none;stroke:#f667c6;stroke-linecap:square;stroke-width:1.5;"/>
   </g>
   <g id="line2d_58"/>
   <g id="text_28">
    <!-- 10 -->
    <g transform="translate(376.758017 259.487187)scale(0.1 -0.1)">
     <use xlink:href="#DejaVuSans-31"/>
     <use x="63.623047" xlink:href="#DejaVuSans-30"/>
    </g>
   </g>
  </g>
 </g>
 <defs>
  <clipPath id="p8a67720654">
   <rect height="307.24" width="284.98268" x="58.523438" y="7.2"/>
  </clipPath>
 </defs>
</svg>
