<?xml version="1.0" encoding="utf-8" standalone="no"?>
<!DOCTYPE svg PUBLIC "-//W3C//DTD SVG 1.1//EN"
  "http://www.w3.org/Graphics/SVG/1.1/DTD/svg11.dtd">
<!-- Created with matplotlib (https://matplotlib.org/) -->
<svg height="365.754687pt" version="1.1" viewBox="0 0 463.847712 365.754687" width="463.847712pt" xmlns="http://www.w3.org/2000/svg" xmlns:xlink="http://www.w3.org/1999/xlink">
 <metadata>
  <rdf:RDF xmlns:cc="http://creativecommons.org/ns#" xmlns:dc="http://purl.org/dc/elements/1.1/" xmlns:rdf="http://www.w3.org/1999/02/22-rdf-syntax-ns#">
   <cc:Work>
    <dc:type rdf:resource="http://purl.org/dc/dcmitype/StillImage"/>
    <dc:date>2020-12-11T12:43:31.908629</dc:date>
    <dc:format>image/svg+xml</dc:format>
    <dc:creator>
     <cc:Agent>
      <dc:title>Matplotlib v3.3.1, https://matplotlib.org/</dc:title>
     </cc:Agent>
    </dc:creator>
   </cc:Work>
  </rdf:RDF>
 </metadata>
 <defs>
  <style type="text/css">*{stroke-linecap:butt;stroke-linejoin:round;}</style>
 </defs>
 <g id="figure_1">
  <g id="patch_1">
   <path d="M 0 365.754687 
L 463.847713 365.754687 
L 463.847713 0 
L 0 0 
z
" style="fill:#ffffff;"/>
  </g>
  <g id="axes_1">
   <g id="patch_2">
    <path d="M 48.982813 328.198437 
L 354.421712 328.198437 
L 354.421712 20.798437 
L 48.982813 20.798437 
z
" style="fill:#ffffff;"/>
   </g>
   <g id="matplotlib.axis_1">
    <g id="xtick_1">
     <g id="line2d_1">
      <defs>
       <path d="M 0 0 
L 0 3.5 
" id="m211d7749e0" style="stroke:#000000;stroke-width:0.8;"/>
      </defs>
      <g>
       <use style="stroke:#000000;stroke-width:0.8;" x="62.866399" xlink:href="#m211d7749e0" y="328.198437"/>
      </g>
     </g>
     <g id="text_1">
      <!-- 0 -->
      <g transform="translate(59.685149 342.796875)scale(0.1 -0.1)">
       <defs>
        <path d="M 31.78125 66.40625 
Q 24.171875 66.40625 20.328125 58.90625 
Q 16.5 51.421875 16.5 36.375 
Q 16.5 21.390625 20.328125 13.890625 
Q 24.171875 6.390625 31.78125 6.390625 
Q 39.453125 6.390625 43.28125 13.890625 
Q 47.125 21.390625 47.125 36.375 
Q 47.125 51.421875 43.28125 58.90625 
Q 39.453125 66.40625 31.78125 66.40625 
z
M 31.78125 74.21875 
Q 44.046875 74.21875 50.515625 64.515625 
Q 56.984375 54.828125 56.984375 36.375 
Q 56.984375 17.96875 50.515625 8.265625 
Q 44.046875 -1.421875 31.78125 -1.421875 
Q 19.53125 -1.421875 13.0625 8.265625 
Q 6.59375 17.96875 6.59375 36.375 
Q 6.59375 54.828125 13.0625 64.515625 
Q 19.53125 74.21875 31.78125 74.21875 
z
" id="DejaVuSans-48"/>
       </defs>
       <use xlink:href="#DejaVuSans-48"/>
      </g>
     </g>
    </g>
    <g id="xtick_2">
     <g id="line2d_2">
      <g>
       <use style="stroke:#000000;stroke-width:0.8;" x="118.414631" xlink:href="#m211d7749e0" y="328.198437"/>
      </g>
     </g>
     <g id="text_2">
      <!-- 20 -->
      <g transform="translate(112.052131 342.796875)scale(0.1 -0.1)">
       <defs>
        <path d="M 19.1875 8.296875 
L 53.609375 8.296875 
L 53.609375 0 
L 7.328125 0 
L 7.328125 8.296875 
Q 12.9375 14.109375 22.625 23.890625 
Q 32.328125 33.6875 34.8125 36.53125 
Q 39.546875 41.84375 41.421875 45.53125 
Q 43.3125 49.21875 43.3125 52.78125 
Q 43.3125 58.59375 39.234375 62.25 
Q 35.15625 65.921875 28.609375 65.921875 
Q 23.96875 65.921875 18.8125 64.3125 
Q 13.671875 62.703125 7.8125 59.421875 
L 7.8125 69.390625 
Q 13.765625 71.78125 18.9375 73 
Q 24.125 74.21875 28.421875 74.21875 
Q 39.75 74.21875 46.484375 68.546875 
Q 53.21875 62.890625 53.21875 53.421875 
Q 53.21875 48.921875 51.53125 44.890625 
Q 49.859375 40.875 45.40625 35.40625 
Q 44.1875 33.984375 37.640625 27.21875 
Q 31.109375 20.453125 19.1875 8.296875 
z
" id="DejaVuSans-50"/>
       </defs>
       <use xlink:href="#DejaVuSans-50"/>
       <use x="63.623047" xlink:href="#DejaVuSans-48"/>
      </g>
     </g>
    </g>
    <g id="xtick_3">
     <g id="line2d_3">
      <g>
       <use style="stroke:#000000;stroke-width:0.8;" x="173.962864" xlink:href="#m211d7749e0" y="328.198437"/>
      </g>
     </g>
     <g id="text_3">
      <!-- 40 -->
      <g transform="translate(167.600364 342.796875)scale(0.1 -0.1)">
       <defs>
        <path d="M 37.796875 64.3125 
L 12.890625 25.390625 
L 37.796875 25.390625 
z
M 35.203125 72.90625 
L 47.609375 72.90625 
L 47.609375 25.390625 
L 58.015625 25.390625 
L 58.015625 17.1875 
L 47.609375 17.1875 
L 47.609375 0 
L 37.796875 0 
L 37.796875 17.1875 
L 4.890625 17.1875 
L 4.890625 26.703125 
z
" id="DejaVuSans-52"/>
       </defs>
       <use xlink:href="#DejaVuSans-52"/>
       <use x="63.623047" xlink:href="#DejaVuSans-48"/>
      </g>
     </g>
    </g>
    <g id="xtick_4">
     <g id="line2d_4">
      <g>
       <use style="stroke:#000000;stroke-width:0.8;" x="229.511096" xlink:href="#m211d7749e0" y="328.198437"/>
      </g>
     </g>
     <g id="text_4">
      <!-- 60 -->
      <g transform="translate(223.148596 342.796875)scale(0.1 -0.1)">
       <defs>
        <path d="M 33.015625 40.375 
Q 26.375 40.375 22.484375 35.828125 
Q 18.609375 31.296875 18.609375 23.390625 
Q 18.609375 15.53125 22.484375 10.953125 
Q 26.375 6.390625 33.015625 6.390625 
Q 39.65625 6.390625 43.53125 10.953125 
Q 47.40625 15.53125 47.40625 23.390625 
Q 47.40625 31.296875 43.53125 35.828125 
Q 39.65625 40.375 33.015625 40.375 
z
M 52.59375 71.296875 
L 52.59375 62.3125 
Q 48.875 64.0625 45.09375 64.984375 
Q 41.3125 65.921875 37.59375 65.921875 
Q 27.828125 65.921875 22.671875 59.328125 
Q 17.53125 52.734375 16.796875 39.40625 
Q 19.671875 43.65625 24.015625 45.921875 
Q 28.375 48.1875 33.59375 48.1875 
Q 44.578125 48.1875 50.953125 41.515625 
Q 57.328125 34.859375 57.328125 23.390625 
Q 57.328125 12.15625 50.6875 5.359375 
Q 44.046875 -1.421875 33.015625 -1.421875 
Q 20.359375 -1.421875 13.671875 8.265625 
Q 6.984375 17.96875 6.984375 36.375 
Q 6.984375 53.65625 15.1875 63.9375 
Q 23.390625 74.21875 37.203125 74.21875 
Q 40.921875 74.21875 44.703125 73.484375 
Q 48.484375 72.75 52.59375 71.296875 
z
" id="DejaVuSans-54"/>
       </defs>
       <use xlink:href="#DejaVuSans-54"/>
       <use x="63.623047" xlink:href="#DejaVuSans-48"/>
      </g>
     </g>
    </g>
    <g id="xtick_5">
     <g id="line2d_5">
      <g>
       <use style="stroke:#000000;stroke-width:0.8;" x="285.059329" xlink:href="#m211d7749e0" y="328.198437"/>
      </g>
     </g>
     <g id="text_5">
      <!-- 80 -->
      <g transform="translate(278.696829 342.796875)scale(0.1 -0.1)">
       <defs>
        <path d="M 31.78125 34.625 
Q 24.75 34.625 20.71875 30.859375 
Q 16.703125 27.09375 16.703125 20.515625 
Q 16.703125 13.921875 20.71875 10.15625 
Q 24.75 6.390625 31.78125 6.390625 
Q 38.8125 6.390625 42.859375 10.171875 
Q 46.921875 13.96875 46.921875 20.515625 
Q 46.921875 27.09375 42.890625 30.859375 
Q 38.875 34.625 31.78125 34.625 
z
M 21.921875 38.8125 
Q 15.578125 40.375 12.03125 44.71875 
Q 8.5 49.078125 8.5 55.328125 
Q 8.5 64.0625 14.71875 69.140625 
Q 20.953125 74.21875 31.78125 74.21875 
Q 42.671875 74.21875 48.875 69.140625 
Q 55.078125 64.0625 55.078125 55.328125 
Q 55.078125 49.078125 51.53125 44.71875 
Q 48 40.375 41.703125 38.8125 
Q 48.828125 37.15625 52.796875 32.3125 
Q 56.78125 27.484375 56.78125 20.515625 
Q 56.78125 9.90625 50.3125 4.234375 
Q 43.84375 -1.421875 31.78125 -1.421875 
Q 19.734375 -1.421875 13.25 4.234375 
Q 6.78125 9.90625 6.78125 20.515625 
Q 6.78125 27.484375 10.78125 32.3125 
Q 14.796875 37.15625 21.921875 38.8125 
z
M 18.3125 54.390625 
Q 18.3125 48.734375 21.84375 45.5625 
Q 25.390625 42.390625 31.78125 42.390625 
Q 38.140625 42.390625 41.71875 45.5625 
Q 45.3125 48.734375 45.3125 54.390625 
Q 45.3125 60.0625 41.71875 63.234375 
Q 38.140625 66.40625 31.78125 66.40625 
Q 25.390625 66.40625 21.84375 63.234375 
Q 18.3125 60.0625 18.3125 54.390625 
z
" id="DejaVuSans-56"/>
       </defs>
       <use xlink:href="#DejaVuSans-56"/>
       <use x="63.623047" xlink:href="#DejaVuSans-48"/>
      </g>
     </g>
    </g>
    <g id="xtick_6">
     <g id="line2d_6">
      <g>
       <use style="stroke:#000000;stroke-width:0.8;" x="340.607561" xlink:href="#m211d7749e0" y="328.198437"/>
      </g>
     </g>
     <g id="text_6">
      <!-- 100 -->
      <g transform="translate(331.063811 342.796875)scale(0.1 -0.1)">
       <defs>
        <path d="M 12.40625 8.296875 
L 28.515625 8.296875 
L 28.515625 63.921875 
L 10.984375 60.40625 
L 10.984375 69.390625 
L 28.421875 72.90625 
L 38.28125 72.90625 
L 38.28125 8.296875 
L 54.390625 8.296875 
L 54.390625 0 
L 12.40625 0 
z
" id="DejaVuSans-49"/>
       </defs>
       <use xlink:href="#DejaVuSans-49"/>
       <use x="63.623047" xlink:href="#DejaVuSans-48"/>
       <use x="127.246094" xlink:href="#DejaVuSans-48"/>
      </g>
     </g>
    </g>
    <g id="text_7">
     <!-- t/ms -->
     <g transform="translate(190.582731 356.475)scale(0.1 -0.1)">
      <defs>
       <path d="M 18.3125 70.21875 
L 18.3125 54.6875 
L 36.8125 54.6875 
L 36.8125 47.703125 
L 18.3125 47.703125 
L 18.3125 18.015625 
Q 18.3125 11.328125 20.140625 9.421875 
Q 21.96875 7.515625 27.59375 7.515625 
L 36.8125 7.515625 
L 36.8125 0 
L 27.59375 0 
Q 17.1875 0 13.234375 3.875 
Q 9.28125 7.765625 9.28125 18.015625 
L 9.28125 47.703125 
L 2.6875 47.703125 
L 2.6875 54.6875 
L 9.28125 54.6875 
L 9.28125 70.21875 
z
" id="DejaVuSans-116"/>
       <path d="M 25.390625 72.90625 
L 33.6875 72.90625 
L 8.296875 -9.28125 
L 0 -9.28125 
z
" id="DejaVuSans-47"/>
       <path d="M 52 44.1875 
Q 55.375 50.25 60.0625 53.125 
Q 64.75 56 71.09375 56 
Q 79.640625 56 84.28125 50.015625 
Q 88.921875 44.046875 88.921875 33.015625 
L 88.921875 0 
L 79.890625 0 
L 79.890625 32.71875 
Q 79.890625 40.578125 77.09375 44.375 
Q 74.3125 48.1875 68.609375 48.1875 
Q 61.625 48.1875 57.5625 43.546875 
Q 53.515625 38.921875 53.515625 30.90625 
L 53.515625 0 
L 44.484375 0 
L 44.484375 32.71875 
Q 44.484375 40.625 41.703125 44.40625 
Q 38.921875 48.1875 33.109375 48.1875 
Q 26.21875 48.1875 22.15625 43.53125 
Q 18.109375 38.875 18.109375 30.90625 
L 18.109375 0 
L 9.078125 0 
L 9.078125 54.6875 
L 18.109375 54.6875 
L 18.109375 46.1875 
Q 21.1875 51.21875 25.484375 53.609375 
Q 29.78125 56 35.6875 56 
Q 41.65625 56 45.828125 52.96875 
Q 50 49.953125 52 44.1875 
z
" id="DejaVuSans-109"/>
       <path d="M 44.28125 53.078125 
L 44.28125 44.578125 
Q 40.484375 46.53125 36.375 47.5 
Q 32.28125 48.484375 27.875 48.484375 
Q 21.1875 48.484375 17.84375 46.4375 
Q 14.5 44.390625 14.5 40.28125 
Q 14.5 37.15625 16.890625 35.375 
Q 19.28125 33.59375 26.515625 31.984375 
L 29.59375 31.296875 
Q 39.15625 29.25 43.1875 25.515625 
Q 47.21875 21.78125 47.21875 15.09375 
Q 47.21875 7.46875 41.1875 3.015625 
Q 35.15625 -1.421875 24.609375 -1.421875 
Q 20.21875 -1.421875 15.453125 -0.5625 
Q 10.6875 0.296875 5.421875 2 
L 5.421875 11.28125 
Q 10.40625 8.6875 15.234375 7.390625 
Q 20.0625 6.109375 24.8125 6.109375 
Q 31.15625 6.109375 34.5625 8.28125 
Q 37.984375 10.453125 37.984375 14.40625 
Q 37.984375 18.0625 35.515625 20.015625 
Q 33.0625 21.96875 24.703125 23.78125 
L 21.578125 24.515625 
Q 13.234375 26.265625 9.515625 29.90625 
Q 5.8125 33.546875 5.8125 39.890625 
Q 5.8125 47.609375 11.28125 51.796875 
Q 16.75 56 26.8125 56 
Q 31.78125 56 36.171875 55.265625 
Q 40.578125 54.546875 44.28125 53.078125 
z
" id="DejaVuSans-115"/>
      </defs>
      <use xlink:href="#DejaVuSans-116"/>
      <use x="39.208984" xlink:href="#DejaVuSans-47"/>
      <use x="72.900391" xlink:href="#DejaVuSans-109"/>
      <use x="170.3125" xlink:href="#DejaVuSans-115"/>
     </g>
    </g>
   </g>
   <g id="matplotlib.axis_2">
    <g id="ytick_1">
     <g id="line2d_7">
      <defs>
       <path d="M 0 0 
L -3.5 0 
" id="m1f9db64551" style="stroke:#000000;stroke-width:0.8;"/>
      </defs>
      <g>
       <use style="stroke:#000000;stroke-width:0.8;" x="48.982813" xlink:href="#m1f9db64551" y="326.293839"/>
      </g>
     </g>
     <g id="text_8">
      <!-- −80 -->
      <g transform="translate(20.878125 330.093058)scale(0.1 -0.1)">
       <defs>
        <path d="M 10.59375 35.5 
L 73.1875 35.5 
L 73.1875 27.203125 
L 10.59375 27.203125 
z
" id="DejaVuSans-8722"/>
       </defs>
       <use xlink:href="#DejaVuSans-8722"/>
       <use x="83.789062" xlink:href="#DejaVuSans-56"/>
       <use x="147.412109" xlink:href="#DejaVuSans-48"/>
      </g>
     </g>
    </g>
    <g id="ytick_2">
     <g id="line2d_8">
      <g>
       <use style="stroke:#000000;stroke-width:0.8;" x="48.982813" xlink:href="#m1f9db64551" y="278.29663"/>
      </g>
     </g>
     <g id="text_9">
      <!-- −60 -->
      <g transform="translate(20.878125 282.095849)scale(0.1 -0.1)">
       <use xlink:href="#DejaVuSans-8722"/>
       <use x="83.789062" xlink:href="#DejaVuSans-54"/>
       <use x="147.412109" xlink:href="#DejaVuSans-48"/>
      </g>
     </g>
    </g>
    <g id="ytick_3">
     <g id="line2d_9">
      <g>
       <use style="stroke:#000000;stroke-width:0.8;" x="48.982813" xlink:href="#m1f9db64551" y="230.299421"/>
      </g>
     </g>
     <g id="text_10">
      <!-- −40 -->
      <g transform="translate(20.878125 234.09864)scale(0.1 -0.1)">
       <use xlink:href="#DejaVuSans-8722"/>
       <use x="83.789062" xlink:href="#DejaVuSans-52"/>
       <use x="147.412109" xlink:href="#DejaVuSans-48"/>
      </g>
     </g>
    </g>
    <g id="ytick_4">
     <g id="line2d_10">
      <g>
       <use style="stroke:#000000;stroke-width:0.8;" x="48.982813" xlink:href="#m1f9db64551" y="182.302212"/>
      </g>
     </g>
     <g id="text_11">
      <!-- −20 -->
      <g transform="translate(20.878125 186.10143)scale(0.1 -0.1)">
       <use xlink:href="#DejaVuSans-8722"/>
       <use x="83.789062" xlink:href="#DejaVuSans-50"/>
       <use x="147.412109" xlink:href="#DejaVuSans-48"/>
      </g>
     </g>
    </g>
    <g id="ytick_5">
     <g id="line2d_11">
      <g>
       <use style="stroke:#000000;stroke-width:0.8;" x="48.982813" xlink:href="#m1f9db64551" y="134.305003"/>
      </g>
     </g>
     <g id="text_12">
      <!-- 0 -->
      <g transform="translate(35.620312 138.104221)scale(0.1 -0.1)">
       <use xlink:href="#DejaVuSans-48"/>
      </g>
     </g>
    </g>
    <g id="ytick_6">
     <g id="line2d_12">
      <g>
       <use style="stroke:#000000;stroke-width:0.8;" x="48.982813" xlink:href="#m1f9db64551" y="86.307793"/>
      </g>
     </g>
     <g id="text_13">
      <!-- 20 -->
      <g transform="translate(29.257812 90.107012)scale(0.1 -0.1)">
       <use xlink:href="#DejaVuSans-50"/>
       <use x="63.623047" xlink:href="#DejaVuSans-48"/>
      </g>
     </g>
    </g>
    <g id="ytick_7">
     <g id="line2d_13">
      <g>
       <use style="stroke:#000000;stroke-width:0.8;" x="48.982813" xlink:href="#m1f9db64551" y="38.310584"/>
      </g>
     </g>
     <g id="text_14">
      <!-- 40 -->
      <g transform="translate(29.257812 42.109803)scale(0.1 -0.1)">
       <use xlink:href="#DejaVuSans-52"/>
       <use x="63.623047" xlink:href="#DejaVuSans-48"/>
      </g>
     </g>
    </g>
    <g id="text_15">
     <!-- U/mV -->
     <g transform="translate(14.798438 188.132812)rotate(-90)scale(0.1 -0.1)">
      <defs>
       <path d="M 8.6875 72.90625 
L 18.609375 72.90625 
L 18.609375 28.609375 
Q 18.609375 16.890625 22.84375 11.734375 
Q 27.09375 6.59375 36.625 6.59375 
Q 46.09375 6.59375 50.34375 11.734375 
Q 54.59375 16.890625 54.59375 28.609375 
L 54.59375 72.90625 
L 64.5 72.90625 
L 64.5 27.390625 
Q 64.5 13.140625 57.4375 5.859375 
Q 50.390625 -1.421875 36.625 -1.421875 
Q 22.796875 -1.421875 15.734375 5.859375 
Q 8.6875 13.140625 8.6875 27.390625 
z
" id="DejaVuSans-85"/>
       <path d="M 28.609375 0 
L 0.78125 72.90625 
L 11.078125 72.90625 
L 34.1875 11.53125 
L 57.328125 72.90625 
L 67.578125 72.90625 
L 39.796875 0 
z
" id="DejaVuSans-86"/>
      </defs>
      <use xlink:href="#DejaVuSans-85"/>
      <use x="73.193359" xlink:href="#DejaVuSans-47"/>
      <use x="106.884766" xlink:href="#DejaVuSans-109"/>
      <use x="204.296875" xlink:href="#DejaVuSans-86"/>
     </g>
    </g>
   </g>
   <g id="line2d_14">
    <path clip-path="url(#p27c2e72490)" d="M 62.866399 266.297328 
L 63.213575 272.565188 
L 64.046799 282.252843 
L 64.810587 288.79854 
L 65.50494 293.084911 
L 66.199293 296.057164 
L 66.82421 297.845429 
L 67.449128 299.010307 
L 68.074046 299.731108 
L 68.768399 300.178107 
L 69.532187 300.391808 
L 70.504281 300.414252 
L 71.892987 300.199951 
L 74.531528 299.519014 
L 82.724892 297.337801 
L 88.418586 296.084638 
L 90.70995 295.548663 
L 90.848821 294.62402 
L 91.057127 291.055939 
L 91.612609 275.276411 
L 92.584703 248.985439 
L 94.806633 193.803202 
L 95.29268 169.102319 
L 96.056468 116.26417 
L 96.750821 73.64769 
L 97.167432 59.31021 
L 97.514609 53.360893 
L 97.79235 51.469962 
L 97.931221 51.24033 
L 98.070091 51.392852 
L 98.278397 52.213811 
L 98.625574 54.799825 
L 99.181056 61.098813 
L 100.014279 73.453403 
L 101.680726 102.281189 
L 104.735879 154.750099 
L 107.443855 196.824168 
L 109.457479 229.129741 
L 110.568444 250.681216 
L 112.998679 300.990347 
L 113.554161 306.512098 
L 114.040208 309.239551 
L 114.526255 310.694668 
L 114.942867 311.324555 
L 115.428914 311.646179 
L 115.984396 311.723244 
L 116.81762 311.585335 
L 118.484067 311.038004 
L 123.136231 309.21485 
L 141.675454 301.800165 
L 146.327618 300.124085 
L 146.466489 299.21613 
L 146.674795 295.813802 
L 147.299712 279.515222 
L 148.132936 260.490001 
L 149.2439 241.117122 
L 149.521642 239.621793 
L 149.938253 238.796048 
L 150.215994 237.130412 
L 150.563171 233.130994 
L 150.979783 225.39166 
L 151.46583 212.219569 
L 152.090747 188.511912 
L 152.854536 150.013327 
L 153.9655 94.626821 
L 154.451547 80.973416 
L 154.868159 75.101886 
L 155.1459 73.55161 
L 155.354206 73.37036 
L 155.493077 73.641945 
L 155.770818 74.971719 
L 156.187429 78.501516 
L 156.812347 86.09257 
L 157.853876 101.914703 
L 164.103053 201.709279 
L 165.838935 229.711351 
L 166.9499 251.200493 
L 169.310699 299.510636 
L 169.866182 305.284467 
L 170.352229 308.292156 
L 170.838276 310.041218 
L 171.324323 311.003566 
L 171.81037 311.476076 
L 172.296417 311.65122 
L 172.99077 311.629781 
L 174.17117 311.312504 
L 177.087452 310.22743 
L 184.655899 307.142818 
L 194.724016 303.083122 
L 200.695451 300.925772 
L 201.875851 300.440929 
L 202.014721 299.534656 
L 202.223027 296.145854 
L 202.847945 279.97421 
L 203.611733 262.555625 
L 204.722698 243.300722 
L 205.000439 241.405157 
L 205.208745 241.281072 
L 205.417051 241.190203 
L 205.625356 240.641783 
L 205.903098 238.879501 
L 206.250274 234.871245 
L 206.666886 227.386779 
L 207.222368 212.754232 
L 207.847286 189.63848 
L 208.611074 152.446292 
L 209.722039 98.115653 
L 210.208086 84.128064 
L 210.624697 77.838988 
L 210.902439 76.012596 
L 211.110744 75.637781 
L 211.249615 75.788838 
L 211.457921 76.531475 
L 211.805097 78.899927 
L 212.291144 83.959649 
L 213.124368 95.46392 
L 214.790815 122.561759 
L 217.984838 174.136379 
L 221.734344 233.344628 
L 222.845309 255.586734 
L 224.858932 297.427563 
L 225.414414 303.945479 
L 225.900461 307.439142 
L 226.386508 309.512293 
L 226.872555 310.688649 
L 227.358602 311.303395 
L 227.844649 311.567383 
L 228.469567 311.616471 
L 229.441661 311.410973 
L 231.52472 310.678952 
L 237.42672 308.317185 
L 251.383213 302.686057 
L 257.215777 300.619611 
L 262.63173 298.93537 
L 268.047683 297.48472 
L 273.671941 296.211698 
L 279.643376 295.091553 
L 286.170294 294.098495 
L 293.391564 293.22893 
L 301.584928 292.470373 
L 311.097563 291.817992 
L 322.484951 291.267728 
L 336.510879 290.822258 
L 340.538126 290.728038 
L 340.538126 290.728038 
" style="fill:none;stroke:#1f77b4;stroke-linecap:square;stroke-width:1.5;"/>
   </g>
   <g id="line2d_15">
    <path clip-path="url(#p27c2e72490)" d="M 62.866399 266.297328 
L 63.352446 277.258791 
L 63.907928 284.473344 
L 64.602281 290.455262 
L 65.296634 294.670227 
L 65.990987 297.556616 
L 66.615905 299.267395 
L 67.240822 300.359684 
L 67.86574 301.016714 
L 68.560093 301.404903 
L 69.323881 301.567368 
L 70.295975 301.540063 
L 71.754116 301.255628 
L 74.670398 300.408557 
L 81.961104 298.279641 
L 87.515927 296.909933 
L 90.987692 296.010973 
L 91.195997 295.395074 
L 91.473739 293.612905 
L 91.89035 289.134206 
L 93.209621 270.856843 
L 94.876068 245.966783 
L 95.362115 233.637985 
L 95.848162 214.081082 
L 96.334209 183.49183 
L 96.889691 131.193282 
L 97.653479 58.892148 
L 98.000656 43.325294 
L 98.347832 36.629177 
L 98.625574 34.886958 
L 98.764444 34.771165 
L 98.903315 35.029097 
L 99.181056 36.417923 
L 99.597668 40.087479 
L 100.222585 47.930399 
L 101.194679 63.330924 
L 103.347173 102.106558 
L 105.916279 146.762638 
L 108.346514 184.959199 
L 110.776749 223.423611 
L 111.748843 242.537285 
L 112.651502 264.979221 
L 114.109643 302.787834 
L 114.59569 309.393114 
L 115.012302 312.26049 
L 115.359479 313.415149 
L 115.706655 313.953442 
L 116.123267 314.190452 
L 116.678749 314.211135 
L 117.789714 313.963003 
L 120.844867 312.984642 
L 125.497031 311.266209 
L 131.468466 308.804729 
L 145.702701 302.845614 
L 146.535924 302.461431 
L 146.74423 302.031488 
L 147.021971 300.705291 
L 147.438583 297.264395 
L 149.521642 277.702687 
L 150.007689 275.277951 
L 150.771477 272.151959 
L 151.188089 269.25094 
L 151.674136 264.140499 
L 152.229618 255.53056 
L 152.7851 243.195005 
L 153.340583 225.731784 
L 153.896065 200.829965 
L 154.451547 165.480474 
L 155.840253 67.925121 
L 156.187429 58.616015 
L 156.534606 54.536814 
L 156.742912 53.778165 
L 156.881782 53.789432 
L 157.090088 54.424133 
L 157.437265 56.752602 
L 157.923312 61.878327 
L 158.6871 72.591541 
L 160.075806 95.764418 
L 163.825311 159.07199 
L 168.199735 230.16584 
L 169.102394 250.480776 
L 170.143923 279.613278 
L 170.977146 300.999358 
L 171.463193 308.475943 
L 171.879805 311.835614 
L 172.226982 313.216169 
L 172.574158 313.870236 
L 172.99077 314.168666 
L 173.476817 314.221484 
L 174.379476 314.051137 
L 176.879146 313.277053 
L 181.323005 311.674608 
L 186.877828 309.421594 
L 202.153592 302.858033 
L 202.361898 302.286353 
L 202.639639 300.759088 
L 203.125686 296.499692 
L 204.722698 281.610184 
L 205.27818 277.906367 
L 205.764227 276.283613 
L 206.250274 274.700579 
L 206.666886 272.508303 
L 207.152933 268.508113 
L 207.708415 261.638852 
L 208.263897 251.792339 
L 208.81938 238.058344 
L 209.374862 218.86067 
L 209.930344 191.778208 
L 210.555262 148.864771 
L 211.527356 79.039535 
L 211.943968 64.015458 
L 212.291144 58.157917 
L 212.568885 56.375719 
L 212.707756 56.179728 
L 212.846627 56.351277 
L 213.054933 57.17924 
L 213.402109 59.742699 
L 213.957591 65.968658 
L 214.86025 79.271892 
L 216.735003 111.273059 
L 219.58185 158.850842 
L 223.886838 228.776934 
L 224.789497 248.820044 
L 225.831026 277.716707 
L 226.733685 301.0801 
L 227.219732 308.508303 
L 227.636344 311.838944 
L 227.98352 313.205666 
L 228.330696 313.852283 
L 228.747308 314.146312 
L 229.233355 314.196752 
L 230.136014 314.024363 
L 232.635684 313.24679 
L 237.148978 311.612286 
L 242.773237 309.322544 
L 259.576577 302.318754 
L 264.99253 300.402026 
L 270.200177 298.792904 
L 275.546694 297.375807 
L 281.101517 296.134674 
L 287.072952 295.029792 
L 293.59987 294.050268 
L 300.890575 293.18429 
L 309.22281 292.424933 
L 318.874315 291.775983 
L 330.331138 291.235872 
L 340.538126 290.902247 
L 340.538126 290.902247 
" style="fill:none;stroke:#ff7f0e;stroke-linecap:square;stroke-width:1.5;"/>
   </g>
   <g id="line2d_16"/>
   <g id="line2d_17"/>
   <g id="patch_3">
    <path d="M 48.982813 328.198437 
L 48.982813 20.798437 
" style="fill:none;stroke:#000000;stroke-linecap:square;stroke-linejoin:miter;stroke-width:0.8;"/>
   </g>
   <g id="patch_4">
    <path d="M 48.982813 328.198437 
L 354.421712 328.198437 
" style="fill:none;stroke:#000000;stroke-linecap:square;stroke-linejoin:miter;stroke-width:0.8;"/>
   </g>
   <g id="text_16">
    <!-- Variable = voltage -->
    <g transform="translate(155.406169 14.798437)scale(0.1 -0.1)">
     <defs>
      <path d="M 34.28125 27.484375 
Q 23.390625 27.484375 19.1875 25 
Q 14.984375 22.515625 14.984375 16.5 
Q 14.984375 11.71875 18.140625 8.90625 
Q 21.296875 6.109375 26.703125 6.109375 
Q 34.1875 6.109375 38.703125 11.40625 
Q 43.21875 16.703125 43.21875 25.484375 
L 43.21875 27.484375 
z
M 52.203125 31.203125 
L 52.203125 0 
L 43.21875 0 
L 43.21875 8.296875 
Q 40.140625 3.328125 35.546875 0.953125 
Q 30.953125 -1.421875 24.3125 -1.421875 
Q 15.921875 -1.421875 10.953125 3.296875 
Q 6 8.015625 6 15.921875 
Q 6 25.140625 12.171875 29.828125 
Q 18.359375 34.515625 30.609375 34.515625 
L 43.21875 34.515625 
L 43.21875 35.40625 
Q 43.21875 41.609375 39.140625 45 
Q 35.0625 48.390625 27.6875 48.390625 
Q 23 48.390625 18.546875 47.265625 
Q 14.109375 46.140625 10.015625 43.890625 
L 10.015625 52.203125 
Q 14.9375 54.109375 19.578125 55.046875 
Q 24.21875 56 28.609375 56 
Q 40.484375 56 46.34375 49.84375 
Q 52.203125 43.703125 52.203125 31.203125 
z
" id="DejaVuSans-97"/>
      <path d="M 41.109375 46.296875 
Q 39.59375 47.171875 37.8125 47.578125 
Q 36.03125 48 33.890625 48 
Q 26.265625 48 22.1875 43.046875 
Q 18.109375 38.09375 18.109375 28.8125 
L 18.109375 0 
L 9.078125 0 
L 9.078125 54.6875 
L 18.109375 54.6875 
L 18.109375 46.1875 
Q 20.953125 51.171875 25.484375 53.578125 
Q 30.03125 56 36.53125 56 
Q 37.453125 56 38.578125 55.875 
Q 39.703125 55.765625 41.0625 55.515625 
z
" id="DejaVuSans-114"/>
      <path d="M 9.421875 54.6875 
L 18.40625 54.6875 
L 18.40625 0 
L 9.421875 0 
z
M 9.421875 75.984375 
L 18.40625 75.984375 
L 18.40625 64.59375 
L 9.421875 64.59375 
z
" id="DejaVuSans-105"/>
      <path d="M 48.6875 27.296875 
Q 48.6875 37.203125 44.609375 42.84375 
Q 40.53125 48.484375 33.40625 48.484375 
Q 26.265625 48.484375 22.1875 42.84375 
Q 18.109375 37.203125 18.109375 27.296875 
Q 18.109375 17.390625 22.1875 11.75 
Q 26.265625 6.109375 33.40625 6.109375 
Q 40.53125 6.109375 44.609375 11.75 
Q 48.6875 17.390625 48.6875 27.296875 
z
M 18.109375 46.390625 
Q 20.953125 51.265625 25.265625 53.625 
Q 29.59375 56 35.59375 56 
Q 45.5625 56 51.78125 48.09375 
Q 58.015625 40.1875 58.015625 27.296875 
Q 58.015625 14.40625 51.78125 6.484375 
Q 45.5625 -1.421875 35.59375 -1.421875 
Q 29.59375 -1.421875 25.265625 0.953125 
Q 20.953125 3.328125 18.109375 8.203125 
L 18.109375 0 
L 9.078125 0 
L 9.078125 75.984375 
L 18.109375 75.984375 
z
" id="DejaVuSans-98"/>
      <path d="M 9.421875 75.984375 
L 18.40625 75.984375 
L 18.40625 0 
L 9.421875 0 
z
" id="DejaVuSans-108"/>
      <path d="M 56.203125 29.59375 
L 56.203125 25.203125 
L 14.890625 25.203125 
Q 15.484375 15.921875 20.484375 11.0625 
Q 25.484375 6.203125 34.421875 6.203125 
Q 39.59375 6.203125 44.453125 7.46875 
Q 49.3125 8.734375 54.109375 11.28125 
L 54.109375 2.78125 
Q 49.265625 0.734375 44.1875 -0.34375 
Q 39.109375 -1.421875 33.890625 -1.421875 
Q 20.796875 -1.421875 13.15625 6.1875 
Q 5.515625 13.8125 5.515625 26.8125 
Q 5.515625 40.234375 12.765625 48.109375 
Q 20.015625 56 32.328125 56 
Q 43.359375 56 49.78125 48.890625 
Q 56.203125 41.796875 56.203125 29.59375 
z
M 47.21875 32.234375 
Q 47.125 39.59375 43.09375 43.984375 
Q 39.0625 48.390625 32.421875 48.390625 
Q 24.90625 48.390625 20.390625 44.140625 
Q 15.875 39.890625 15.1875 32.171875 
z
" id="DejaVuSans-101"/>
      <path id="DejaVuSans-32"/>
      <path d="M 10.59375 45.40625 
L 73.1875 45.40625 
L 73.1875 37.203125 
L 10.59375 37.203125 
z
M 10.59375 25.484375 
L 73.1875 25.484375 
L 73.1875 17.1875 
L 10.59375 17.1875 
z
" id="DejaVuSans-61"/>
      <path d="M 2.984375 54.6875 
L 12.5 54.6875 
L 29.59375 8.796875 
L 46.6875 54.6875 
L 56.203125 54.6875 
L 35.6875 0 
L 23.484375 0 
z
" id="DejaVuSans-118"/>
      <path d="M 30.609375 48.390625 
Q 23.390625 48.390625 19.1875 42.75 
Q 14.984375 37.109375 14.984375 27.296875 
Q 14.984375 17.484375 19.15625 11.84375 
Q 23.34375 6.203125 30.609375 6.203125 
Q 37.796875 6.203125 41.984375 11.859375 
Q 46.1875 17.53125 46.1875 27.296875 
Q 46.1875 37.015625 41.984375 42.703125 
Q 37.796875 48.390625 30.609375 48.390625 
z
M 30.609375 56 
Q 42.328125 56 49.015625 48.375 
Q 55.71875 40.765625 55.71875 27.296875 
Q 55.71875 13.875 49.015625 6.21875 
Q 42.328125 -1.421875 30.609375 -1.421875 
Q 18.84375 -1.421875 12.171875 6.21875 
Q 5.515625 13.875 5.515625 27.296875 
Q 5.515625 40.765625 12.171875 48.375 
Q 18.84375 56 30.609375 56 
z
" id="DejaVuSans-111"/>
      <path d="M 45.40625 27.984375 
Q 45.40625 37.75 41.375 43.109375 
Q 37.359375 48.484375 30.078125 48.484375 
Q 22.859375 48.484375 18.828125 43.109375 
Q 14.796875 37.75 14.796875 27.984375 
Q 14.796875 18.265625 18.828125 12.890625 
Q 22.859375 7.515625 30.078125 7.515625 
Q 37.359375 7.515625 41.375 12.890625 
Q 45.40625 18.265625 45.40625 27.984375 
z
M 54.390625 6.78125 
Q 54.390625 -7.171875 48.1875 -13.984375 
Q 42 -20.796875 29.203125 -20.796875 
Q 24.46875 -20.796875 20.265625 -20.09375 
Q 16.0625 -19.390625 12.109375 -17.921875 
L 12.109375 -9.1875 
Q 16.0625 -11.328125 19.921875 -12.34375 
Q 23.78125 -13.375 27.78125 -13.375 
Q 36.625 -13.375 41.015625 -8.765625 
Q 45.40625 -4.15625 45.40625 5.171875 
L 45.40625 9.625 
Q 42.625 4.78125 38.28125 2.390625 
Q 33.9375 0 27.875 0 
Q 17.828125 0 11.671875 7.65625 
Q 5.515625 15.328125 5.515625 27.984375 
Q 5.515625 40.671875 11.671875 48.328125 
Q 17.828125 56 27.875 56 
Q 33.9375 56 38.28125 53.609375 
Q 42.625 51.21875 45.40625 46.390625 
L 45.40625 54.6875 
L 54.390625 54.6875 
z
" id="DejaVuSans-103"/>
     </defs>
     <use xlink:href="#DejaVuSans-86"/>
     <use x="60.658203" xlink:href="#DejaVuSans-97"/>
     <use x="121.9375" xlink:href="#DejaVuSans-114"/>
     <use x="163.050781" xlink:href="#DejaVuSans-105"/>
     <use x="190.833984" xlink:href="#DejaVuSans-97"/>
     <use x="252.113281" xlink:href="#DejaVuSans-98"/>
     <use x="315.589844" xlink:href="#DejaVuSans-108"/>
     <use x="343.373047" xlink:href="#DejaVuSans-101"/>
     <use x="404.896484" xlink:href="#DejaVuSans-32"/>
     <use x="436.683594" xlink:href="#DejaVuSans-61"/>
     <use x="520.472656" xlink:href="#DejaVuSans-32"/>
     <use x="552.259766" xlink:href="#DejaVuSans-118"/>
     <use x="611.439453" xlink:href="#DejaVuSans-111"/>
     <use x="672.621094" xlink:href="#DejaVuSans-108"/>
     <use x="700.404297" xlink:href="#DejaVuSans-116"/>
     <use x="739.613281" xlink:href="#DejaVuSans-97"/>
     <use x="800.892578" xlink:href="#DejaVuSans-103"/>
     <use x="864.369141" xlink:href="#DejaVuSans-101"/>
    </g>
   </g>
  </g>
  <g id="legend_1">
   <g id="text_17">
    <!-- Location -->
    <g transform="translate(386.418025 170.958594)scale(0.1 -0.1)">
     <defs>
      <path d="M 9.8125 72.90625 
L 19.671875 72.90625 
L 19.671875 8.296875 
L 55.171875 8.296875 
L 55.171875 0 
L 9.8125 0 
z
" id="DejaVuSans-76"/>
      <path d="M 48.78125 52.59375 
L 48.78125 44.1875 
Q 44.96875 46.296875 41.140625 47.34375 
Q 37.3125 48.390625 33.40625 48.390625 
Q 24.65625 48.390625 19.8125 42.84375 
Q 14.984375 37.3125 14.984375 27.296875 
Q 14.984375 17.28125 19.8125 11.734375 
Q 24.65625 6.203125 33.40625 6.203125 
Q 37.3125 6.203125 41.140625 7.25 
Q 44.96875 8.296875 48.78125 10.40625 
L 48.78125 2.09375 
Q 45.015625 0.34375 40.984375 -0.53125 
Q 36.96875 -1.421875 32.421875 -1.421875 
Q 20.0625 -1.421875 12.78125 6.34375 
Q 5.515625 14.109375 5.515625 27.296875 
Q 5.515625 40.671875 12.859375 48.328125 
Q 20.21875 56 33.015625 56 
Q 37.15625 56 41.109375 55.140625 
Q 45.0625 54.296875 48.78125 52.59375 
z
" id="DejaVuSans-99"/>
      <path d="M 54.890625 33.015625 
L 54.890625 0 
L 45.90625 0 
L 45.90625 32.71875 
Q 45.90625 40.484375 42.875 44.328125 
Q 39.84375 48.1875 33.796875 48.1875 
Q 26.515625 48.1875 22.3125 43.546875 
Q 18.109375 38.921875 18.109375 30.90625 
L 18.109375 0 
L 9.078125 0 
L 9.078125 54.6875 
L 18.109375 54.6875 
L 18.109375 46.1875 
Q 21.34375 51.125 25.703125 53.5625 
Q 30.078125 56 35.796875 56 
Q 45.21875 56 50.046875 50.171875 
Q 54.890625 44.34375 54.890625 33.015625 
z
" id="DejaVuSans-110"/>
     </defs>
     <use xlink:href="#DejaVuSans-76"/>
     <use x="53.962891" xlink:href="#DejaVuSans-111"/>
     <use x="115.144531" xlink:href="#DejaVuSans-99"/>
     <use x="170.125" xlink:href="#DejaVuSans-97"/>
     <use x="231.404297" xlink:href="#DejaVuSans-116"/>
     <use x="270.613281" xlink:href="#DejaVuSans-105"/>
     <use x="298.396484" xlink:href="#DejaVuSans-111"/>
     <use x="359.578125" xlink:href="#DejaVuSans-110"/>
    </g>
   </g>
   <g id="line2d_18">
    <path d="M 360.285212 182.136719 
L 380.285212 182.136719 
" style="fill:none;stroke:#1f77b4;stroke-linecap:square;stroke-width:1.5;"/>
   </g>
   <g id="line2d_19"/>
   <g id="text_18">
    <!-- (location 3 1) -->
    <g transform="translate(388.285212 185.636719)scale(0.1 -0.1)">
     <defs>
      <path d="M 31 75.875 
Q 24.46875 64.65625 21.28125 53.65625 
Q 18.109375 42.671875 18.109375 31.390625 
Q 18.109375 20.125 21.3125 9.0625 
Q 24.515625 -2 31 -13.1875 
L 23.1875 -13.1875 
Q 15.875 -1.703125 12.234375 9.375 
Q 8.59375 20.453125 8.59375 31.390625 
Q 8.59375 42.28125 12.203125 53.3125 
Q 15.828125 64.359375 23.1875 75.875 
z
" id="DejaVuSans-40"/>
      <path d="M 40.578125 39.3125 
Q 47.65625 37.796875 51.625 33 
Q 55.609375 28.21875 55.609375 21.1875 
Q 55.609375 10.40625 48.1875 4.484375 
Q 40.765625 -1.421875 27.09375 -1.421875 
Q 22.515625 -1.421875 17.65625 -0.515625 
Q 12.796875 0.390625 7.625 2.203125 
L 7.625 11.71875 
Q 11.71875 9.328125 16.59375 8.109375 
Q 21.484375 6.890625 26.8125 6.890625 
Q 36.078125 6.890625 40.9375 10.546875 
Q 45.796875 14.203125 45.796875 21.1875 
Q 45.796875 27.640625 41.28125 31.265625 
Q 36.765625 34.90625 28.71875 34.90625 
L 20.21875 34.90625 
L 20.21875 43.015625 
L 29.109375 43.015625 
Q 36.375 43.015625 40.234375 45.921875 
Q 44.09375 48.828125 44.09375 54.296875 
Q 44.09375 59.90625 40.109375 62.90625 
Q 36.140625 65.921875 28.71875 65.921875 
Q 24.65625 65.921875 20.015625 65.03125 
Q 15.375 64.15625 9.8125 62.3125 
L 9.8125 71.09375 
Q 15.4375 72.65625 20.34375 73.4375 
Q 25.25 74.21875 29.59375 74.21875 
Q 40.828125 74.21875 47.359375 69.109375 
Q 53.90625 64.015625 53.90625 55.328125 
Q 53.90625 49.265625 50.4375 45.09375 
Q 46.96875 40.921875 40.578125 39.3125 
z
" id="DejaVuSans-51"/>
      <path d="M 8.015625 75.875 
L 15.828125 75.875 
Q 23.140625 64.359375 26.78125 53.3125 
Q 30.421875 42.28125 30.421875 31.390625 
Q 30.421875 20.453125 26.78125 9.375 
Q 23.140625 -1.703125 15.828125 -13.1875 
L 8.015625 -13.1875 
Q 14.5 -2 17.703125 9.0625 
Q 20.90625 20.125 20.90625 31.390625 
Q 20.90625 42.671875 17.703125 53.65625 
Q 14.5 64.65625 8.015625 75.875 
z
" id="DejaVuSans-41"/>
     </defs>
     <use xlink:href="#DejaVuSans-40"/>
     <use x="39.013672" xlink:href="#DejaVuSans-108"/>
     <use x="66.796875" xlink:href="#DejaVuSans-111"/>
     <use x="127.978516" xlink:href="#DejaVuSans-99"/>
     <use x="182.958984" xlink:href="#DejaVuSans-97"/>
     <use x="244.238281" xlink:href="#DejaVuSans-116"/>
     <use x="283.447266" xlink:href="#DejaVuSans-105"/>
     <use x="311.230469" xlink:href="#DejaVuSans-111"/>
     <use x="372.412109" xlink:href="#DejaVuSans-110"/>
     <use x="435.791016" xlink:href="#DejaVuSans-32"/>
     <use x="467.578125" xlink:href="#DejaVuSans-51"/>
     <use x="531.201172" xlink:href="#DejaVuSans-32"/>
     <use x="562.988281" xlink:href="#DejaVuSans-49"/>
     <use x="626.611328" xlink:href="#DejaVuSans-41"/>
    </g>
   </g>
   <g id="line2d_20">
    <path d="M 360.285212 196.814844 
L 380.285212 196.814844 
" style="fill:none;stroke:#ff7f0e;stroke-linecap:square;stroke-width:1.5;"/>
   </g>
   <g id="line2d_21"/>
   <g id="text_19">
    <!-- (location 4 1) -->
    <g transform="translate(388.285212 200.314844)scale(0.1 -0.1)">
     <use xlink:href="#DejaVuSans-40"/>
     <use x="39.013672" xlink:href="#DejaVuSans-108"/>
     <use x="66.796875" xlink:href="#DejaVuSans-111"/>
     <use x="127.978516" xlink:href="#DejaVuSans-99"/>
     <use x="182.958984" xlink:href="#DejaVuSans-97"/>
     <use x="244.238281" xlink:href="#DejaVuSans-116"/>
     <use x="283.447266" xlink:href="#DejaVuSans-105"/>
     <use x="311.230469" xlink:href="#DejaVuSans-111"/>
     <use x="372.412109" xlink:href="#DejaVuSans-110"/>
     <use x="435.791016" xlink:href="#DejaVuSans-32"/>
     <use x="467.578125" xlink:href="#DejaVuSans-52"/>
     <use x="531.201172" xlink:href="#DejaVuSans-32"/>
     <use x="562.988281" xlink:href="#DejaVuSans-49"/>
     <use x="626.611328" xlink:href="#DejaVuSans-41"/>
    </g>
   </g>
  </g>
 </g>
 <defs>
  <clipPath id="p27c2e72490">
   <rect height="307.4" width="305.4389" x="48.982813" y="20.798437"/>
  </clipPath>
 </defs>
</svg>
