<?xml version="1.0" encoding="utf-8" standalone="no"?>
<!DOCTYPE svg PUBLIC "-//W3C//DTD SVG 1.1//EN"
  "http://www.w3.org/Graphics/SVG/1.1/DTD/svg11.dtd">
<!-- Created with matplotlib (https://matplotlib.org/) -->
<svg height="360pt" version="1.1" viewBox="0 0 432.27 360" width="432.27pt" xmlns="http://www.w3.org/2000/svg" xmlns:xlink="http://www.w3.org/1999/xlink">
 <metadata>
  <rdf:RDF xmlns:cc="http://creativecommons.org/ns#" xmlns:dc="http://purl.org/dc/elements/1.1/" xmlns:rdf="http://www.w3.org/1999/02/22-rdf-syntax-ns#">
   <cc:Work>
    <dc:type rdf:resource="http://purl.org/dc/dcmitype/StillImage"/>
    <dc:date>2021-01-20T17:17:09.826774</dc:date>
    <dc:format>image/svg+xml</dc:format>
    <dc:creator>
     <cc:Agent>
      <dc:title>Matplotlib v3.3.2, https://matplotlib.org/</dc:title>
     </cc:Agent>
    </dc:creator>
   </cc:Work>
  </rdf:RDF>
 </metadata>
 <defs>
  <style type="text/css">*{stroke-linecap:butt;stroke-linejoin:round;}</style>
 </defs>
 <g id="figure_1">
  <g id="patch_1">
   <path d="M 0 360 
L 432.27 360 
L 432.27 0 
L 0 0 
z
" style="fill:#ffffff;"/>
  </g>
  <g id="axes_1">
   <g id="patch_2">
    <path d="M 46.769213 332.12 
L 355.6773 332.12 
L 355.6773 24.72 
L 46.769213 24.72 
z
" style="fill:#ffffff;"/>
   </g>
   <g id="matplotlib.axis_1">
    <g id="xtick_1">
     <g id="line2d_1">
      <defs>
       <path d="M 0 0 
L 0 3.5 
" id="mf983418205" style="stroke:#000000;stroke-width:0.8;"/>
      </defs>
      <g>
       <use style="stroke:#000000;stroke-width:0.8;" x="60.810489" xlink:href="#mf983418205" y="332.12"/>
      </g>
     </g>
     <g id="text_1">
      <!-- 0 -->
      <g transform="translate(57.629239 346.718437)scale(0.1 -0.1)">
       <defs>
        <path d="M 31.78125 66.40625 
Q 24.171875 66.40625 20.328125 58.90625 
Q 16.5 51.421875 16.5 36.375 
Q 16.5 21.390625 20.328125 13.890625 
Q 24.171875 6.390625 31.78125 6.390625 
Q 39.453125 6.390625 43.28125 13.890625 
Q 47.125 21.390625 47.125 36.375 
Q 47.125 51.421875 43.28125 58.90625 
Q 39.453125 66.40625 31.78125 66.40625 
z
M 31.78125 74.21875 
Q 44.046875 74.21875 50.515625 64.515625 
Q 56.984375 54.828125 56.984375 36.375 
Q 56.984375 17.96875 50.515625 8.265625 
Q 44.046875 -1.421875 31.78125 -1.421875 
Q 19.53125 -1.421875 13.0625 8.265625 
Q 6.59375 17.96875 6.59375 36.375 
Q 6.59375 54.828125 13.0625 64.515625 
Q 19.53125 74.21875 31.78125 74.21875 
z
" id="DejaVuSans-48"/>
       </defs>
       <use xlink:href="#DejaVuSans-48"/>
      </g>
     </g>
    </g>
    <g id="xtick_2">
     <g id="line2d_2">
      <g>
       <use style="stroke:#000000;stroke-width:0.8;" x="100.928423" xlink:href="#mf983418205" y="332.12"/>
      </g>
     </g>
     <g id="text_2">
      <!-- 200 -->
      <g transform="translate(91.384673 346.718437)scale(0.1 -0.1)">
       <defs>
        <path d="M 19.1875 8.296875 
L 53.609375 8.296875 
L 53.609375 0 
L 7.328125 0 
L 7.328125 8.296875 
Q 12.9375 14.109375 22.625 23.890625 
Q 32.328125 33.6875 34.8125 36.53125 
Q 39.546875 41.84375 41.421875 45.53125 
Q 43.3125 49.21875 43.3125 52.78125 
Q 43.3125 58.59375 39.234375 62.25 
Q 35.15625 65.921875 28.609375 65.921875 
Q 23.96875 65.921875 18.8125 64.3125 
Q 13.671875 62.703125 7.8125 59.421875 
L 7.8125 69.390625 
Q 13.765625 71.78125 18.9375 73 
Q 24.125 74.21875 28.421875 74.21875 
Q 39.75 74.21875 46.484375 68.546875 
Q 53.21875 62.890625 53.21875 53.421875 
Q 53.21875 48.921875 51.53125 44.890625 
Q 49.859375 40.875 45.40625 35.40625 
Q 44.1875 33.984375 37.640625 27.21875 
Q 31.109375 20.453125 19.1875 8.296875 
z
" id="DejaVuSans-50"/>
       </defs>
       <use xlink:href="#DejaVuSans-50"/>
       <use x="63.623047" xlink:href="#DejaVuSans-48"/>
       <use x="127.246094" xlink:href="#DejaVuSans-48"/>
      </g>
     </g>
    </g>
    <g id="xtick_3">
     <g id="line2d_3">
      <g>
       <use style="stroke:#000000;stroke-width:0.8;" x="141.046356" xlink:href="#mf983418205" y="332.12"/>
      </g>
     </g>
     <g id="text_3">
      <!-- 400 -->
      <g transform="translate(131.502606 346.718437)scale(0.1 -0.1)">
       <defs>
        <path d="M 37.796875 64.3125 
L 12.890625 25.390625 
L 37.796875 25.390625 
z
M 35.203125 72.90625 
L 47.609375 72.90625 
L 47.609375 25.390625 
L 58.015625 25.390625 
L 58.015625 17.1875 
L 47.609375 17.1875 
L 47.609375 0 
L 37.796875 0 
L 37.796875 17.1875 
L 4.890625 17.1875 
L 4.890625 26.703125 
z
" id="DejaVuSans-52"/>
       </defs>
       <use xlink:href="#DejaVuSans-52"/>
       <use x="63.623047" xlink:href="#DejaVuSans-48"/>
       <use x="127.246094" xlink:href="#DejaVuSans-48"/>
      </g>
     </g>
    </g>
    <g id="xtick_4">
     <g id="line2d_4">
      <g>
       <use style="stroke:#000000;stroke-width:0.8;" x="181.16429" xlink:href="#mf983418205" y="332.12"/>
      </g>
     </g>
     <g id="text_4">
      <!-- 600 -->
      <g transform="translate(171.62054 346.718437)scale(0.1 -0.1)">
       <defs>
        <path d="M 33.015625 40.375 
Q 26.375 40.375 22.484375 35.828125 
Q 18.609375 31.296875 18.609375 23.390625 
Q 18.609375 15.53125 22.484375 10.953125 
Q 26.375 6.390625 33.015625 6.390625 
Q 39.65625 6.390625 43.53125 10.953125 
Q 47.40625 15.53125 47.40625 23.390625 
Q 47.40625 31.296875 43.53125 35.828125 
Q 39.65625 40.375 33.015625 40.375 
z
M 52.59375 71.296875 
L 52.59375 62.3125 
Q 48.875 64.0625 45.09375 64.984375 
Q 41.3125 65.921875 37.59375 65.921875 
Q 27.828125 65.921875 22.671875 59.328125 
Q 17.53125 52.734375 16.796875 39.40625 
Q 19.671875 43.65625 24.015625 45.921875 
Q 28.375 48.1875 33.59375 48.1875 
Q 44.578125 48.1875 50.953125 41.515625 
Q 57.328125 34.859375 57.328125 23.390625 
Q 57.328125 12.15625 50.6875 5.359375 
Q 44.046875 -1.421875 33.015625 -1.421875 
Q 20.359375 -1.421875 13.671875 8.265625 
Q 6.984375 17.96875 6.984375 36.375 
Q 6.984375 53.65625 15.1875 63.9375 
Q 23.390625 74.21875 37.203125 74.21875 
Q 40.921875 74.21875 44.703125 73.484375 
Q 48.484375 72.75 52.59375 71.296875 
z
" id="DejaVuSans-54"/>
       </defs>
       <use xlink:href="#DejaVuSans-54"/>
       <use x="63.623047" xlink:href="#DejaVuSans-48"/>
       <use x="127.246094" xlink:href="#DejaVuSans-48"/>
      </g>
     </g>
    </g>
    <g id="xtick_5">
     <g id="line2d_5">
      <g>
       <use style="stroke:#000000;stroke-width:0.8;" x="221.282223" xlink:href="#mf983418205" y="332.12"/>
      </g>
     </g>
     <g id="text_5">
      <!-- 800 -->
      <g transform="translate(211.738473 346.718437)scale(0.1 -0.1)">
       <defs>
        <path d="M 31.78125 34.625 
Q 24.75 34.625 20.71875 30.859375 
Q 16.703125 27.09375 16.703125 20.515625 
Q 16.703125 13.921875 20.71875 10.15625 
Q 24.75 6.390625 31.78125 6.390625 
Q 38.8125 6.390625 42.859375 10.171875 
Q 46.921875 13.96875 46.921875 20.515625 
Q 46.921875 27.09375 42.890625 30.859375 
Q 38.875 34.625 31.78125 34.625 
z
M 21.921875 38.8125 
Q 15.578125 40.375 12.03125 44.71875 
Q 8.5 49.078125 8.5 55.328125 
Q 8.5 64.0625 14.71875 69.140625 
Q 20.953125 74.21875 31.78125 74.21875 
Q 42.671875 74.21875 48.875 69.140625 
Q 55.078125 64.0625 55.078125 55.328125 
Q 55.078125 49.078125 51.53125 44.71875 
Q 48 40.375 41.703125 38.8125 
Q 48.828125 37.15625 52.796875 32.3125 
Q 56.78125 27.484375 56.78125 20.515625 
Q 56.78125 9.90625 50.3125 4.234375 
Q 43.84375 -1.421875 31.78125 -1.421875 
Q 19.734375 -1.421875 13.25 4.234375 
Q 6.78125 9.90625 6.78125 20.515625 
Q 6.78125 27.484375 10.78125 32.3125 
Q 14.796875 37.15625 21.921875 38.8125 
z
M 18.3125 54.390625 
Q 18.3125 48.734375 21.84375 45.5625 
Q 25.390625 42.390625 31.78125 42.390625 
Q 38.140625 42.390625 41.71875 45.5625 
Q 45.3125 48.734375 45.3125 54.390625 
Q 45.3125 60.0625 41.71875 63.234375 
Q 38.140625 66.40625 31.78125 66.40625 
Q 25.390625 66.40625 21.84375 63.234375 
Q 18.3125 60.0625 18.3125 54.390625 
z
" id="DejaVuSans-56"/>
       </defs>
       <use xlink:href="#DejaVuSans-56"/>
       <use x="63.623047" xlink:href="#DejaVuSans-48"/>
       <use x="127.246094" xlink:href="#DejaVuSans-48"/>
      </g>
     </g>
    </g>
    <g id="xtick_6">
     <g id="line2d_6">
      <g>
       <use style="stroke:#000000;stroke-width:0.8;" x="261.400156" xlink:href="#mf983418205" y="332.12"/>
      </g>
     </g>
     <g id="text_6">
      <!-- 1000 -->
      <g transform="translate(248.675156 346.718437)scale(0.1 -0.1)">
       <defs>
        <path d="M 12.40625 8.296875 
L 28.515625 8.296875 
L 28.515625 63.921875 
L 10.984375 60.40625 
L 10.984375 69.390625 
L 28.421875 72.90625 
L 38.28125 72.90625 
L 38.28125 8.296875 
L 54.390625 8.296875 
L 54.390625 0 
L 12.40625 0 
z
" id="DejaVuSans-49"/>
       </defs>
       <use xlink:href="#DejaVuSans-49"/>
       <use x="63.623047" xlink:href="#DejaVuSans-48"/>
       <use x="127.246094" xlink:href="#DejaVuSans-48"/>
       <use x="190.869141" xlink:href="#DejaVuSans-48"/>
      </g>
     </g>
    </g>
    <g id="xtick_7">
     <g id="line2d_7">
      <g>
       <use style="stroke:#000000;stroke-width:0.8;" x="301.51809" xlink:href="#mf983418205" y="332.12"/>
      </g>
     </g>
     <g id="text_7">
      <!-- 1200 -->
      <g transform="translate(288.79309 346.718437)scale(0.1 -0.1)">
       <use xlink:href="#DejaVuSans-49"/>
       <use x="63.623047" xlink:href="#DejaVuSans-50"/>
       <use x="127.246094" xlink:href="#DejaVuSans-48"/>
       <use x="190.869141" xlink:href="#DejaVuSans-48"/>
      </g>
     </g>
    </g>
    <g id="xtick_8">
     <g id="line2d_8">
      <g>
       <use style="stroke:#000000;stroke-width:0.8;" x="341.636023" xlink:href="#mf983418205" y="332.12"/>
      </g>
     </g>
     <g id="text_8">
      <!-- 1400 -->
      <g transform="translate(328.911023 346.718437)scale(0.1 -0.1)">
       <use xlink:href="#DejaVuSans-49"/>
       <use x="63.623047" xlink:href="#DejaVuSans-52"/>
       <use x="127.246094" xlink:href="#DejaVuSans-48"/>
       <use x="190.869141" xlink:href="#DejaVuSans-48"/>
      </g>
     </g>
    </g>
    <g id="text_9">
     <!-- t/ms -->
     <g transform="translate(190.103725 360.396563)scale(0.1 -0.1)">
      <defs>
       <path d="M 18.3125 70.21875 
L 18.3125 54.6875 
L 36.8125 54.6875 
L 36.8125 47.703125 
L 18.3125 47.703125 
L 18.3125 18.015625 
Q 18.3125 11.328125 20.140625 9.421875 
Q 21.96875 7.515625 27.59375 7.515625 
L 36.8125 7.515625 
L 36.8125 0 
L 27.59375 0 
Q 17.1875 0 13.234375 3.875 
Q 9.28125 7.765625 9.28125 18.015625 
L 9.28125 47.703125 
L 2.6875 47.703125 
L 2.6875 54.6875 
L 9.28125 54.6875 
L 9.28125 70.21875 
z
" id="DejaVuSans-116"/>
       <path d="M 25.390625 72.90625 
L 33.6875 72.90625 
L 8.296875 -9.28125 
L 0 -9.28125 
z
" id="DejaVuSans-47"/>
       <path d="M 52 44.1875 
Q 55.375 50.25 60.0625 53.125 
Q 64.75 56 71.09375 56 
Q 79.640625 56 84.28125 50.015625 
Q 88.921875 44.046875 88.921875 33.015625 
L 88.921875 0 
L 79.890625 0 
L 79.890625 32.71875 
Q 79.890625 40.578125 77.09375 44.375 
Q 74.3125 48.1875 68.609375 48.1875 
Q 61.625 48.1875 57.5625 43.546875 
Q 53.515625 38.921875 53.515625 30.90625 
L 53.515625 0 
L 44.484375 0 
L 44.484375 32.71875 
Q 44.484375 40.625 41.703125 44.40625 
Q 38.921875 48.1875 33.109375 48.1875 
Q 26.21875 48.1875 22.15625 43.53125 
Q 18.109375 38.875 18.109375 30.90625 
L 18.109375 0 
L 9.078125 0 
L 9.078125 54.6875 
L 18.109375 54.6875 
L 18.109375 46.1875 
Q 21.1875 51.21875 25.484375 53.609375 
Q 29.78125 56 35.6875 56 
Q 41.65625 56 45.828125 52.96875 
Q 50 49.953125 52 44.1875 
z
" id="DejaVuSans-109"/>
       <path d="M 44.28125 53.078125 
L 44.28125 44.578125 
Q 40.484375 46.53125 36.375 47.5 
Q 32.28125 48.484375 27.875 48.484375 
Q 21.1875 48.484375 17.84375 46.4375 
Q 14.5 44.390625 14.5 40.28125 
Q 14.5 37.15625 16.890625 35.375 
Q 19.28125 33.59375 26.515625 31.984375 
L 29.59375 31.296875 
Q 39.15625 29.25 43.1875 25.515625 
Q 47.21875 21.78125 47.21875 15.09375 
Q 47.21875 7.46875 41.1875 3.015625 
Q 35.15625 -1.421875 24.609375 -1.421875 
Q 20.21875 -1.421875 15.453125 -0.5625 
Q 10.6875 0.296875 5.421875 2 
L 5.421875 11.28125 
Q 10.40625 8.6875 15.234375 7.390625 
Q 20.0625 6.109375 24.8125 6.109375 
Q 31.15625 6.109375 34.5625 8.28125 
Q 37.984375 10.453125 37.984375 14.40625 
Q 37.984375 18.0625 35.515625 20.015625 
Q 33.0625 21.96875 24.703125 23.78125 
L 21.578125 24.515625 
Q 13.234375 26.265625 9.515625 29.90625 
Q 5.8125 33.546875 5.8125 39.890625 
Q 5.8125 47.609375 11.28125 51.796875 
Q 16.75 56 26.8125 56 
Q 31.78125 56 36.171875 55.265625 
Q 40.578125 54.546875 44.28125 53.078125 
z
" id="DejaVuSans-115"/>
      </defs>
      <use xlink:href="#DejaVuSans-116"/>
      <use x="39.208984" xlink:href="#DejaVuSans-47"/>
      <use x="72.900391" xlink:href="#DejaVuSans-109"/>
      <use x="170.3125" xlink:href="#DejaVuSans-115"/>
     </g>
    </g>
   </g>
   <g id="matplotlib.axis_2">
    <g id="ytick_1">
     <g id="line2d_9">
      <defs>
       <path d="M 0 0 
L -3.5 0 
" id="m21648f6388" style="stroke:#000000;stroke-width:0.8;"/>
      </defs>
      <g>
       <use style="stroke:#000000;stroke-width:0.8;" x="46.769213" xlink:href="#m21648f6388" y="329.23021"/>
      </g>
     </g>
     <g id="text_10">
      <!-- −80 -->
      <g transform="translate(18.664525 333.029429)scale(0.1 -0.1)">
       <defs>
        <path d="M 10.59375 35.5 
L 73.1875 35.5 
L 73.1875 27.203125 
L 10.59375 27.203125 
z
" id="DejaVuSans-8722"/>
       </defs>
       <use xlink:href="#DejaVuSans-8722"/>
       <use x="83.789062" xlink:href="#DejaVuSans-56"/>
       <use x="147.412109" xlink:href="#DejaVuSans-48"/>
      </g>
     </g>
    </g>
    <g id="ytick_2">
     <g id="line2d_10">
      <g>
       <use style="stroke:#000000;stroke-width:0.8;" x="46.769213" xlink:href="#m21648f6388" y="273.815524"/>
      </g>
     </g>
     <g id="text_11">
      <!-- −60 -->
      <g transform="translate(18.664525 277.614743)scale(0.1 -0.1)">
       <use xlink:href="#DejaVuSans-8722"/>
       <use x="83.789062" xlink:href="#DejaVuSans-54"/>
       <use x="147.412109" xlink:href="#DejaVuSans-48"/>
      </g>
     </g>
    </g>
    <g id="ytick_3">
     <g id="line2d_11">
      <g>
       <use style="stroke:#000000;stroke-width:0.8;" x="46.769213" xlink:href="#m21648f6388" y="218.400838"/>
      </g>
     </g>
     <g id="text_12">
      <!-- −40 -->
      <g transform="translate(18.664525 222.200057)scale(0.1 -0.1)">
       <use xlink:href="#DejaVuSans-8722"/>
       <use x="83.789062" xlink:href="#DejaVuSans-52"/>
       <use x="147.412109" xlink:href="#DejaVuSans-48"/>
      </g>
     </g>
    </g>
    <g id="ytick_4">
     <g id="line2d_12">
      <g>
       <use style="stroke:#000000;stroke-width:0.8;" x="46.769213" xlink:href="#m21648f6388" y="162.986152"/>
      </g>
     </g>
     <g id="text_13">
      <!-- −20 -->
      <g transform="translate(18.664525 166.785371)scale(0.1 -0.1)">
       <use xlink:href="#DejaVuSans-8722"/>
       <use x="83.789062" xlink:href="#DejaVuSans-50"/>
       <use x="147.412109" xlink:href="#DejaVuSans-48"/>
      </g>
     </g>
    </g>
    <g id="ytick_5">
     <g id="line2d_13">
      <g>
       <use style="stroke:#000000;stroke-width:0.8;" x="46.769213" xlink:href="#m21648f6388" y="107.571466"/>
      </g>
     </g>
     <g id="text_14">
      <!-- 0 -->
      <g transform="translate(33.406712 111.370685)scale(0.1 -0.1)">
       <use xlink:href="#DejaVuSans-48"/>
      </g>
     </g>
    </g>
    <g id="ytick_6">
     <g id="line2d_14">
      <g>
       <use style="stroke:#000000;stroke-width:0.8;" x="46.769213" xlink:href="#m21648f6388" y="52.15678"/>
      </g>
     </g>
     <g id="text_15">
      <!-- 20 -->
      <g transform="translate(27.044213 55.955999)scale(0.1 -0.1)">
       <use xlink:href="#DejaVuSans-50"/>
       <use x="63.623047" xlink:href="#DejaVuSans-48"/>
      </g>
     </g>
    </g>
    <g id="text_16">
     <!-- U/mV -->
     <g transform="translate(12.584838 192.054375)rotate(-90)scale(0.1 -0.1)">
      <defs>
       <path d="M 8.6875 72.90625 
L 18.609375 72.90625 
L 18.609375 28.609375 
Q 18.609375 16.890625 22.84375 11.734375 
Q 27.09375 6.59375 36.625 6.59375 
Q 46.09375 6.59375 50.34375 11.734375 
Q 54.59375 16.890625 54.59375 28.609375 
L 54.59375 72.90625 
L 64.5 72.90625 
L 64.5 27.390625 
Q 64.5 13.140625 57.4375 5.859375 
Q 50.390625 -1.421875 36.625 -1.421875 
Q 22.796875 -1.421875 15.734375 5.859375 
Q 8.6875 13.140625 8.6875 27.390625 
z
" id="DejaVuSans-85"/>
       <path d="M 28.609375 0 
L 0.78125 72.90625 
L 11.078125 72.90625 
L 34.1875 11.53125 
L 57.328125 72.90625 
L 67.578125 72.90625 
L 39.796875 0 
z
" id="DejaVuSans-86"/>
      </defs>
      <use xlink:href="#DejaVuSans-85"/>
      <use x="73.193359" xlink:href="#DejaVuSans-47"/>
      <use x="106.884766" xlink:href="#DejaVuSans-109"/>
      <use x="204.296875" xlink:href="#DejaVuSans-86"/>
     </g>
    </g>
   </g>
   <g id="line2d_15">
    <path clip-path="url(#p4ad08723e6)" d="M 60.810489 318.147273 
L 62.170487 311.531262 
L 63.13432 308.200567 
L 64.102166 305.625479 
L 65.077031 303.641791 
L 66.070953 302.108234 
L 67.101984 300.916938 
L 68.197204 299.987072 
L 69.397733 299.259683 
L 70.766757 298.694062 
L 72.407581 298.263947 
L 74.510763 297.953768 
L 77.497544 297.755497 
L 82.715884 297.664225 
L 100.932434 297.474243 
L 101.129012 292.661077 
L 101.609425 286.370842 
L 102.278391 280.401562 
L 103.044644 275.489892 
L 103.883108 271.509134 
L 104.786765 268.265855 
L 105.757619 265.589161 
L 106.809712 263.328443 
L 107.975138 261.346919 
L 109.330121 259.486525 
L 111.214661 257.309466 
L 113.359967 254.774795 
L 114.276662 253.32892 
L 114.939611 251.864703 
L 115.45312 250.176322 
L 115.858312 248.044686 
L 116.173237 245.12323 
L 116.404918 240.728596 
L 116.549343 233.341972 
L 116.597484 216.47261 
L 116.64362 96.265148 
L 116.672706 38.692727 
L 116.745921 133.911672 
L 116.963561 294.402953 
L 117.161141 311.958605 
L 117.266451 313.12102 
L 117.311584 312.97171 
L 117.437955 311.460301 
L 118.887216 289.778662 
L 119.509044 285.57454 
L 120.284323 281.850846 
L 121.276238 278.180418 
L 122.417594 274.789107 
L 123.594052 271.968022 
L 124.778534 269.68898 
L 125.980066 267.847539 
L 127.218707 266.348458 
L 128.519531 265.119219 
L 129.915635 264.104964 
L 131.455161 263.263108 
L 133.215335 262.558626 
L 135.333562 261.958397 
L 138.122762 261.413071 
L 142.862696 260.748699 
L 152.247283 259.427563 
L 158.080431 258.370956 
L 162.3901 257.377982 
L 165.33275 256.485287 
L 167.359709 255.649772 
L 168.803954 254.823558 
L 169.872094 253.963029 
L 170.691503 253.019917 
L 171.340411 251.931041 
L 171.866958 250.600909 
L 172.29622 248.886522 
L 172.642238 246.53456 
L 172.909022 243.074296 
L 173.094567 237.483758 
L 173.172797 228.004123 
L 173.227959 162.334874 
L 173.271086 38.85864 
L 173.345304 135.260117 
L 173.562944 294.680991 
L 173.760525 312.140837 
L 173.866837 313.308156 
L 173.91197 313.15839 
L 174.038342 311.658312 
L 174.628075 300.394686 
L 175.186717 292.748735 
L 175.76943 287.695339 
L 176.45645 283.641393 
L 177.312968 279.915194 
L 178.342996 276.413436 
L 179.461283 273.376649 
L 180.60665 270.890269 
L 181.77007 268.881743 
L 182.962576 267.256889 
L 184.20222 265.937759 
L 185.514076 264.863677 
L 186.936257 263.986849 
L 188.523924 263.272052 
L 190.371355 262.689905 
L 192.664095 262.210568 
L 195.90763 261.778791 
L 212.870495 259.821348 
L 218.9273 258.779623 
L 223.675258 257.750071 
L 226.975961 256.820469 
L 229.242624 255.963212 
L 230.843329 255.130197 
L 232.014773 254.277338 
L 232.903385 253.359277 
L 233.601437 252.316848 
L 234.164091 251.067334 
L 234.622439 249.486915 
L 234.994533 247.360467 
L 235.286391 244.306063 
L 235.498013 239.533928 
L 235.613352 231.478511 
L 235.665505 196.251616 
L 235.722673 38.839581 
L 235.806921 149.247555 
L 236.019546 295.541711 
L 236.217127 312.220376 
L 236.319427 313.280791 
L 236.365563 313.123196 
L 236.49394 311.580219 
L 237.95323 289.737376 
L 238.586091 285.340169 
L 239.360367 281.510042 
L 240.318182 277.888087 
L 241.406381 274.622309 
L 242.541719 271.897241 
L 243.696112 269.688452 
L 244.873574 267.904001 
L 246.089147 266.457822 
L 247.364897 265.281336 
L 248.731916 264.321893 
L 250.236338 263.539254 
L 251.950377 262.902533 
L 254.005418 262.384041 
L 256.700341 261.947043 
L 261.260747 261.468261 
L 270.296308 260.513873 
L 276.591815 259.605831 
L 282.241423 258.573271 
L 286.554101 257.571899 
L 289.551913 256.660808 
L 291.631025 255.808225 
L 293.114386 254.969231 
L 294.210608 254.100469 
L 295.050076 253.154053 
L 295.713025 252.068957 
L 296.249602 250.753473 
L 296.687891 249.064792 
L 297.040928 246.768468 
L 297.314733 243.412335 
L 297.507299 238.057529 
L 297.596562 228.816156 
L 297.650721 171.631203 
L 297.696857 38.820079 
L 297.772078 136.955894 
L 297.988715 294.647954 
L 298.186295 312.086446 
L 298.292608 313.25826 
L 298.337741 313.110964 
L 298.464112 311.617792 
L 299.036796 300.664061 
L 299.598447 292.870967 
L 300.18116 287.752361 
L 300.866173 283.665668 
L 301.51809 280.719228 
L 301.521099 280.901737 
L 301.706644 284.780079 
L 302.114844 288.764084 
L 302.663457 292.057995 
L 303.279267 294.468239 
L 303.943219 296.210181 
L 304.652303 297.470579 
L 305.414544 298.385022 
L 306.257021 299.052515 
L 307.229881 299.536789 
L 308.423389 299.874344 
L 310.014065 300.07963 
L 312.437188 300.146151 
L 317.501075 300.014587 
L 333.700696 299.321327 
L 341.634017 298.924427 
L 341.634017 298.924427 
" style="fill:none;stroke:#1f77b4;stroke-linecap:square;stroke-width:1.5;"/>
   </g>
   <g id="line2d_16">
    <path clip-path="url(#p4ad08723e6)" d="M 60.810489 318.147273 
L 62.145413 311.627722 
L 63.109247 308.274422 
L 64.077092 305.681608 
L 65.051958 303.68401 
L 66.04588 302.139517 
L 67.075907 300.940596 
L 68.169121 300.005076 
L 69.366641 299.273135 
L 70.730651 298.703879 
L 72.363451 298.27061 
L 74.45159 297.957687 
L 77.407278 297.756777 
L 82.531341 297.662955 
L 100.931431 297.469918 
L 101.127006 292.663431 
L 101.605413 286.385977 
L 102.274379 280.407226 
L 103.040632 275.489096 
L 103.879097 271.503048 
L 104.782753 268.254886 
L 105.753607 265.573232 
L 106.806703 263.304995 
L 107.975138 261.31209 
L 109.339147 259.430631 
L 111.288879 257.158007 
L 113.262681 254.775731 
L 114.173358 253.315863 
L 114.832295 251.835963 
L 115.342796 250.126745 
L 115.744978 247.966961 
L 116.056895 245.002662 
L 116.285568 240.533727 
L 116.426983 232.976797 
L 116.475125 214.590701 
L 116.526275 67.442739 
L 116.547337 39.38851 
L 116.616541 127.130944 
L 116.837189 294.393986 
L 117.033767 312.009277 
L 117.139077 313.167984 
L 117.184209 313.013813 
L 117.311584 311.472276 
L 118.740785 289.923882 
L 119.357598 285.702269 
L 120.125857 281.978966 
L 121.111755 278.305436 
L 122.252107 274.894318 
L 123.429569 272.050501 
L 124.614051 269.753804 
L 125.815583 267.897104 
L 127.053221 266.385998 
L 128.352039 265.146926 
L 129.745134 264.124265 
L 131.279645 263.275396 
L 133.030793 262.565312 
L 135.13197 261.961021 
L 137.885063 261.414182 
L 142.46954 260.764033 
L 152.110882 259.404092 
L 157.824679 258.359634 
L 162.049097 257.374812 
L 164.947618 256.484052 
L 166.950506 255.647591 
L 168.381713 254.818264 
L 169.441829 253.953287 
L 170.25522 253.005197 
L 170.901119 251.90702 
L 171.424658 250.565335 
L 171.851914 248.830706 
L 172.194923 246.454398 
L 172.459701 242.938938 
L 172.642238 237.269483 
L 172.718462 227.551222 
L 172.771618 163.63639 
L 172.815748 39.568959 
L 172.889966 135.776012 
L 173.107606 295.04495 
L 173.304183 312.243374 
L 173.407487 313.361982 
L 173.453623 313.208618 
L 173.580997 311.680699 
L 175.048311 289.70092 
L 175.681171 285.327951 
L 176.457453 281.507692 
L 177.41928 277.885803 
L 178.511491 274.618659 
L 179.648835 271.896099 
L 180.804231 269.690502 
L 181.982695 267.908284 
L 183.199272 266.46381 
L 184.477028 265.287837 
L 185.846052 264.328916 
L 187.353484 263.546147 
L 189.072537 262.908419 
L 191.136605 262.38769 
L 193.84958 261.946342 
L 198.475178 261.455308 
L 207.541831 260.484048 
L 213.946659 259.555797 
L 219.645411 258.512797 
L 223.940036 257.513927 
L 226.906757 256.608912 
L 228.961798 255.761202 
L 230.428109 254.925414 
L 231.512296 254.05832 
L 232.34374 253.11119 
L 233.001674 252.021303 
L 233.53424 250.69698 
L 233.968516 248.995777 
L 234.318545 246.67345 
L 234.589341 243.270362 
L 234.778899 237.81767 
L 234.864149 228.487091 
L 234.917306 171.188658 
L 234.963441 39.539303 
L 235.038662 136.671574 
L 235.256302 295.134295 
L 235.45288 312.226968 
L 235.556184 313.334554 
L 235.602319 313.179086 
L 235.730697 311.633252 
L 237.189987 289.730901 
L 237.821844 285.336857 
L 238.595117 281.510032 
L 239.552933 277.887089 
L 240.641132 274.620087 
L 241.776469 271.893359 
L 242.930863 269.682666 
L 244.109327 267.894829 
L 245.325903 266.445767 
L 246.602657 265.266762 
L 247.970678 264.305061 
L 249.475101 263.520806 
L 251.189139 262.882387 
L 253.242175 262.362672 
L 255.930076 261.925159 
L 260.447355 261.449933 
L 269.55212 260.490172 
L 275.778424 259.590084 
L 281.33576 258.569065 
L 285.582244 257.575522 
L 288.546959 256.666635 
L 290.609021 255.813584 
L 292.083355 254.972606 
L 293.17356 254.10167 
L 294.009016 253.152711 
L 294.669959 252.062982 
L 295.205533 250.739612 
L 295.641816 249.044449 
L 295.99385 246.73326 
L 296.266652 243.350664 
L 296.458215 237.93923 
L 296.546475 228.538485 
L 296.599631 171.30334 
L 296.645767 39.520621 
L 296.720988 136.613242 
L 296.938628 295.097035 
L 297.136209 312.22391 
L 297.238509 313.311894 
L 297.285648 313.151927 
L 297.415028 311.584365 
L 298.860277 289.821688 
L 299.490128 285.402223 
L 300.260393 281.562664 
L 301.213194 277.937473 
L 301.51809 276.940942 
L 301.523105 277.233163 
L 301.71868 281.362895 
L 302.148944 285.830724 
L 302.723634 289.604764 
L 303.369532 292.437922 
L 304.067585 294.54322 
L 304.811772 296.108379 
L 305.605104 297.275384 
L 306.464631 298.151834 
L 307.422447 298.812088 
L 308.536722 299.306118 
L 309.905747 299.661683 
L 311.716069 299.889473 
L 314.391935 299.982599 
L 319.255231 299.89578 
L 330.561468 299.431657 
L 341.636023 298.881723 
L 341.636023 298.881723 
" style="fill:none;stroke:#ff7f0e;stroke-linecap:square;stroke-width:1.5;"/>
   </g>
   <g id="line2d_17"/>
   <g id="line2d_18"/>
   <g id="patch_3">
    <path d="M 46.769213 332.12 
L 46.769213 24.72 
" style="fill:none;stroke:#000000;stroke-linecap:square;stroke-linejoin:miter;stroke-width:0.8;"/>
   </g>
   <g id="patch_4">
    <path d="M 46.769213 332.12 
L 355.6773 332.12 
" style="fill:none;stroke:#000000;stroke-linecap:square;stroke-linejoin:miter;stroke-width:0.8;"/>
   </g>
   <g id="text_17">
    <!-- Variable = voltage -->
    <g transform="translate(154.927163 18.72)scale(0.1 -0.1)">
     <defs>
      <path d="M 34.28125 27.484375 
Q 23.390625 27.484375 19.1875 25 
Q 14.984375 22.515625 14.984375 16.5 
Q 14.984375 11.71875 18.140625 8.90625 
Q 21.296875 6.109375 26.703125 6.109375 
Q 34.1875 6.109375 38.703125 11.40625 
Q 43.21875 16.703125 43.21875 25.484375 
L 43.21875 27.484375 
z
M 52.203125 31.203125 
L 52.203125 0 
L 43.21875 0 
L 43.21875 8.296875 
Q 40.140625 3.328125 35.546875 0.953125 
Q 30.953125 -1.421875 24.3125 -1.421875 
Q 15.921875 -1.421875 10.953125 3.296875 
Q 6 8.015625 6 15.921875 
Q 6 25.140625 12.171875 29.828125 
Q 18.359375 34.515625 30.609375 34.515625 
L 43.21875 34.515625 
L 43.21875 35.40625 
Q 43.21875 41.609375 39.140625 45 
Q 35.0625 48.390625 27.6875 48.390625 
Q 23 48.390625 18.546875 47.265625 
Q 14.109375 46.140625 10.015625 43.890625 
L 10.015625 52.203125 
Q 14.9375 54.109375 19.578125 55.046875 
Q 24.21875 56 28.609375 56 
Q 40.484375 56 46.34375 49.84375 
Q 52.203125 43.703125 52.203125 31.203125 
z
" id="DejaVuSans-97"/>
      <path d="M 41.109375 46.296875 
Q 39.59375 47.171875 37.8125 47.578125 
Q 36.03125 48 33.890625 48 
Q 26.265625 48 22.1875 43.046875 
Q 18.109375 38.09375 18.109375 28.8125 
L 18.109375 0 
L 9.078125 0 
L 9.078125 54.6875 
L 18.109375 54.6875 
L 18.109375 46.1875 
Q 20.953125 51.171875 25.484375 53.578125 
Q 30.03125 56 36.53125 56 
Q 37.453125 56 38.578125 55.875 
Q 39.703125 55.765625 41.0625 55.515625 
z
" id="DejaVuSans-114"/>
      <path d="M 9.421875 54.6875 
L 18.40625 54.6875 
L 18.40625 0 
L 9.421875 0 
z
M 9.421875 75.984375 
L 18.40625 75.984375 
L 18.40625 64.59375 
L 9.421875 64.59375 
z
" id="DejaVuSans-105"/>
      <path d="M 48.6875 27.296875 
Q 48.6875 37.203125 44.609375 42.84375 
Q 40.53125 48.484375 33.40625 48.484375 
Q 26.265625 48.484375 22.1875 42.84375 
Q 18.109375 37.203125 18.109375 27.296875 
Q 18.109375 17.390625 22.1875 11.75 
Q 26.265625 6.109375 33.40625 6.109375 
Q 40.53125 6.109375 44.609375 11.75 
Q 48.6875 17.390625 48.6875 27.296875 
z
M 18.109375 46.390625 
Q 20.953125 51.265625 25.265625 53.625 
Q 29.59375 56 35.59375 56 
Q 45.5625 56 51.78125 48.09375 
Q 58.015625 40.1875 58.015625 27.296875 
Q 58.015625 14.40625 51.78125 6.484375 
Q 45.5625 -1.421875 35.59375 -1.421875 
Q 29.59375 -1.421875 25.265625 0.953125 
Q 20.953125 3.328125 18.109375 8.203125 
L 18.109375 0 
L 9.078125 0 
L 9.078125 75.984375 
L 18.109375 75.984375 
z
" id="DejaVuSans-98"/>
      <path d="M 9.421875 75.984375 
L 18.40625 75.984375 
L 18.40625 0 
L 9.421875 0 
z
" id="DejaVuSans-108"/>
      <path d="M 56.203125 29.59375 
L 56.203125 25.203125 
L 14.890625 25.203125 
Q 15.484375 15.921875 20.484375 11.0625 
Q 25.484375 6.203125 34.421875 6.203125 
Q 39.59375 6.203125 44.453125 7.46875 
Q 49.3125 8.734375 54.109375 11.28125 
L 54.109375 2.78125 
Q 49.265625 0.734375 44.1875 -0.34375 
Q 39.109375 -1.421875 33.890625 -1.421875 
Q 20.796875 -1.421875 13.15625 6.1875 
Q 5.515625 13.8125 5.515625 26.8125 
Q 5.515625 40.234375 12.765625 48.109375 
Q 20.015625 56 32.328125 56 
Q 43.359375 56 49.78125 48.890625 
Q 56.203125 41.796875 56.203125 29.59375 
z
M 47.21875 32.234375 
Q 47.125 39.59375 43.09375 43.984375 
Q 39.0625 48.390625 32.421875 48.390625 
Q 24.90625 48.390625 20.390625 44.140625 
Q 15.875 39.890625 15.1875 32.171875 
z
" id="DejaVuSans-101"/>
      <path id="DejaVuSans-32"/>
      <path d="M 10.59375 45.40625 
L 73.1875 45.40625 
L 73.1875 37.203125 
L 10.59375 37.203125 
z
M 10.59375 25.484375 
L 73.1875 25.484375 
L 73.1875 17.1875 
L 10.59375 17.1875 
z
" id="DejaVuSans-61"/>
      <path d="M 2.984375 54.6875 
L 12.5 54.6875 
L 29.59375 8.796875 
L 46.6875 54.6875 
L 56.203125 54.6875 
L 35.6875 0 
L 23.484375 0 
z
" id="DejaVuSans-118"/>
      <path d="M 30.609375 48.390625 
Q 23.390625 48.390625 19.1875 42.75 
Q 14.984375 37.109375 14.984375 27.296875 
Q 14.984375 17.484375 19.15625 11.84375 
Q 23.34375 6.203125 30.609375 6.203125 
Q 37.796875 6.203125 41.984375 11.859375 
Q 46.1875 17.53125 46.1875 27.296875 
Q 46.1875 37.015625 41.984375 42.703125 
Q 37.796875 48.390625 30.609375 48.390625 
z
M 30.609375 56 
Q 42.328125 56 49.015625 48.375 
Q 55.71875 40.765625 55.71875 27.296875 
Q 55.71875 13.875 49.015625 6.21875 
Q 42.328125 -1.421875 30.609375 -1.421875 
Q 18.84375 -1.421875 12.171875 6.21875 
Q 5.515625 13.875 5.515625 27.296875 
Q 5.515625 40.765625 12.171875 48.375 
Q 18.84375 56 30.609375 56 
z
" id="DejaVuSans-111"/>
      <path d="M 45.40625 27.984375 
Q 45.40625 37.75 41.375 43.109375 
Q 37.359375 48.484375 30.078125 48.484375 
Q 22.859375 48.484375 18.828125 43.109375 
Q 14.796875 37.75 14.796875 27.984375 
Q 14.796875 18.265625 18.828125 12.890625 
Q 22.859375 7.515625 30.078125 7.515625 
Q 37.359375 7.515625 41.375 12.890625 
Q 45.40625 18.265625 45.40625 27.984375 
z
M 54.390625 6.78125 
Q 54.390625 -7.171875 48.1875 -13.984375 
Q 42 -20.796875 29.203125 -20.796875 
Q 24.46875 -20.796875 20.265625 -20.09375 
Q 16.0625 -19.390625 12.109375 -17.921875 
L 12.109375 -9.1875 
Q 16.0625 -11.328125 19.921875 -12.34375 
Q 23.78125 -13.375 27.78125 -13.375 
Q 36.625 -13.375 41.015625 -8.765625 
Q 45.40625 -4.15625 45.40625 5.171875 
L 45.40625 9.625 
Q 42.625 4.78125 38.28125 2.390625 
Q 33.9375 0 27.875 0 
Q 17.828125 0 11.671875 7.65625 
Q 5.515625 15.328125 5.515625 27.984375 
Q 5.515625 40.671875 11.671875 48.328125 
Q 17.828125 56 27.875 56 
Q 33.9375 56 38.28125 53.609375 
Q 42.625 51.21875 45.40625 46.390625 
L 45.40625 54.6875 
L 54.390625 54.6875 
z
" id="DejaVuSans-103"/>
     </defs>
     <use xlink:href="#DejaVuSans-86"/>
     <use x="60.658203" xlink:href="#DejaVuSans-97"/>
     <use x="121.9375" xlink:href="#DejaVuSans-114"/>
     <use x="163.050781" xlink:href="#DejaVuSans-105"/>
     <use x="190.833984" xlink:href="#DejaVuSans-97"/>
     <use x="252.113281" xlink:href="#DejaVuSans-98"/>
     <use x="315.589844" xlink:href="#DejaVuSans-108"/>
     <use x="343.373047" xlink:href="#DejaVuSans-101"/>
     <use x="404.896484" xlink:href="#DejaVuSans-32"/>
     <use x="436.683594" xlink:href="#DejaVuSans-61"/>
     <use x="520.472656" xlink:href="#DejaVuSans-32"/>
     <use x="552.259766" xlink:href="#DejaVuSans-118"/>
     <use x="611.439453" xlink:href="#DejaVuSans-111"/>
     <use x="672.621094" xlink:href="#DejaVuSans-108"/>
     <use x="700.404297" xlink:href="#DejaVuSans-116"/>
     <use x="739.613281" xlink:href="#DejaVuSans-97"/>
     <use x="800.892578" xlink:href="#DejaVuSans-103"/>
     <use x="864.369141" xlink:href="#DejaVuSans-101"/>
    </g>
   </g>
   <g id="PathCollection_1">
    <defs>
     <path d="M 0 3 
C 0.795609 3 1.55874 2.683901 2.12132 2.12132 
C 2.683901 1.55874 3 0.795609 3 0 
C 3 -0.795609 2.683901 -1.55874 2.12132 -2.12132 
C 1.55874 -2.683901 0.795609 -3 0 -3 
C -0.795609 -3 -1.55874 -2.683901 -2.12132 -2.12132 
C -2.683901 -1.55874 -3 -0.795609 -3 0 
C -3 0.795609 -2.683901 1.55874 -2.12132 2.12132 
C -1.55874 2.683901 -0.795609 3 0 3 
z
" id="md4838aa14a" style="stroke:#2ca02c;"/>
    </defs>
    <g clip-path="url(#p4ad08723e6)">
     <use style="fill:#2ca02c;stroke:#2ca02c;" x="116.623737" xlink:href="#md4838aa14a" y="218.400838"/>
     <use style="fill:#2ca02c;stroke:#2ca02c;" x="173.222111" xlink:href="#md4838aa14a" y="218.400838"/>
     <use style="fill:#2ca02c;stroke:#2ca02c;" x="235.674197" xlink:href="#md4838aa14a" y="218.400838"/>
     <use style="fill:#2ca02c;stroke:#2ca02c;" x="297.647766" xlink:href="#md4838aa14a" y="218.400838"/>
    </g>
   </g>
  </g>
  <g id="legend_1">
   <g id="text_18">
    <!-- Simulator -->
    <g transform="translate(366.9825 168.08125)scale(0.1 -0.1)">
     <defs>
      <path d="M 53.515625 70.515625 
L 53.515625 60.890625 
Q 47.90625 63.578125 42.921875 64.890625 
Q 37.9375 66.21875 33.296875 66.21875 
Q 25.25 66.21875 20.875 63.09375 
Q 16.5 59.96875 16.5 54.203125 
Q 16.5 49.359375 19.40625 46.890625 
Q 22.3125 44.4375 30.421875 42.921875 
L 36.375 41.703125 
Q 47.40625 39.59375 52.65625 34.296875 
Q 57.90625 29 57.90625 20.125 
Q 57.90625 9.515625 50.796875 4.046875 
Q 43.703125 -1.421875 29.984375 -1.421875 
Q 24.8125 -1.421875 18.96875 -0.25 
Q 13.140625 0.921875 6.890625 3.21875 
L 6.890625 13.375 
Q 12.890625 10.015625 18.65625 8.296875 
Q 24.421875 6.59375 29.984375 6.59375 
Q 38.421875 6.59375 43.015625 9.90625 
Q 47.609375 13.234375 47.609375 19.390625 
Q 47.609375 24.75 44.3125 27.78125 
Q 41.015625 30.8125 33.5 32.328125 
L 27.484375 33.5 
Q 16.453125 35.6875 11.515625 40.375 
Q 6.59375 45.0625 6.59375 53.421875 
Q 6.59375 63.09375 13.40625 68.65625 
Q 20.21875 74.21875 32.171875 74.21875 
Q 37.3125 74.21875 42.625 73.28125 
Q 47.953125 72.359375 53.515625 70.515625 
z
" id="DejaVuSans-83"/>
      <path d="M 8.5 21.578125 
L 8.5 54.6875 
L 17.484375 54.6875 
L 17.484375 21.921875 
Q 17.484375 14.15625 20.5 10.265625 
Q 23.53125 6.390625 29.59375 6.390625 
Q 36.859375 6.390625 41.078125 11.03125 
Q 45.3125 15.671875 45.3125 23.6875 
L 45.3125 54.6875 
L 54.296875 54.6875 
L 54.296875 0 
L 45.3125 0 
L 45.3125 8.40625 
Q 42.046875 3.421875 37.71875 1 
Q 33.40625 -1.421875 27.6875 -1.421875 
Q 18.265625 -1.421875 13.375 4.4375 
Q 8.5 10.296875 8.5 21.578125 
z
M 31.109375 56 
z
" id="DejaVuSans-117"/>
     </defs>
     <use xlink:href="#DejaVuSans-83"/>
     <use x="63.476562" xlink:href="#DejaVuSans-105"/>
     <use x="91.259766" xlink:href="#DejaVuSans-109"/>
     <use x="188.671875" xlink:href="#DejaVuSans-117"/>
     <use x="252.050781" xlink:href="#DejaVuSans-108"/>
     <use x="279.833984" xlink:href="#DejaVuSans-97"/>
     <use x="341.113281" xlink:href="#DejaVuSans-116"/>
     <use x="380.322266" xlink:href="#DejaVuSans-111"/>
     <use x="441.503906" xlink:href="#DejaVuSans-114"/>
    </g>
   </g>
   <g id="line2d_19">
    <path d="M 358.955938 179.259375 
L 378.955938 179.259375 
" style="fill:none;stroke:#1f77b4;stroke-linecap:square;stroke-width:1.5;"/>
   </g>
   <g id="line2d_20"/>
   <g id="text_19">
    <!-- Arbor -->
    <g transform="translate(386.955938 182.759375)scale(0.1 -0.1)">
     <defs>
      <path d="M 34.1875 63.1875 
L 20.796875 26.90625 
L 47.609375 26.90625 
z
M 28.609375 72.90625 
L 39.796875 72.90625 
L 67.578125 0 
L 57.328125 0 
L 50.6875 18.703125 
L 17.828125 18.703125 
L 11.1875 0 
L 0.78125 0 
z
" id="DejaVuSans-65"/>
     </defs>
     <use xlink:href="#DejaVuSans-65"/>
     <use x="68.408203" xlink:href="#DejaVuSans-114"/>
     <use x="109.521484" xlink:href="#DejaVuSans-98"/>
     <use x="172.998047" xlink:href="#DejaVuSans-111"/>
     <use x="234.179688" xlink:href="#DejaVuSans-114"/>
    </g>
   </g>
   <g id="line2d_21">
    <path d="M 358.955938 193.9375 
L 378.955938 193.9375 
" style="fill:none;stroke:#ff7f0e;stroke-linecap:square;stroke-width:1.5;"/>
   </g>
   <g id="line2d_22"/>
   <g id="text_20">
    <!-- Neuron -->
    <g transform="translate(386.955938 197.4375)scale(0.1 -0.1)">
     <defs>
      <path d="M 9.8125 72.90625 
L 23.09375 72.90625 
L 55.421875 11.921875 
L 55.421875 72.90625 
L 64.984375 72.90625 
L 64.984375 0 
L 51.703125 0 
L 19.390625 60.984375 
L 19.390625 0 
L 9.8125 0 
z
" id="DejaVuSans-78"/>
      <path d="M 54.890625 33.015625 
L 54.890625 0 
L 45.90625 0 
L 45.90625 32.71875 
Q 45.90625 40.484375 42.875 44.328125 
Q 39.84375 48.1875 33.796875 48.1875 
Q 26.515625 48.1875 22.3125 43.546875 
Q 18.109375 38.921875 18.109375 30.90625 
L 18.109375 0 
L 9.078125 0 
L 9.078125 54.6875 
L 18.109375 54.6875 
L 18.109375 46.1875 
Q 21.34375 51.125 25.703125 53.5625 
Q 30.078125 56 35.796875 56 
Q 45.21875 56 50.046875 50.171875 
Q 54.890625 44.34375 54.890625 33.015625 
z
" id="DejaVuSans-110"/>
     </defs>
     <use xlink:href="#DejaVuSans-78"/>
     <use x="74.804688" xlink:href="#DejaVuSans-101"/>
     <use x="136.328125" xlink:href="#DejaVuSans-117"/>
     <use x="199.707031" xlink:href="#DejaVuSans-114"/>
     <use x="238.570312" xlink:href="#DejaVuSans-111"/>
     <use x="299.751953" xlink:href="#DejaVuSans-110"/>
    </g>
   </g>
  </g>
 </g>
 <defs>
  <clipPath id="p4ad08723e6">
   <rect height="307.4" width="308.908088" x="46.769213" y="24.72"/>
  </clipPath>
 </defs>
</svg>
