<?xml version="1.0" encoding="utf-8" standalone="no"?>
<!DOCTYPE svg PUBLIC "-//W3C//DTD SVG 1.1//EN"
  "http://www.w3.org/Graphics/SVG/1.1/DTD/svg11.dtd">
<svg xmlns:xlink="http://www.w3.org/1999/xlink" width="432.27pt" height="360pt" viewBox="0 0 432.27 360" xmlns="http://www.w3.org/2000/svg" version="1.1">
 <metadata>
  <rdf:RDF xmlns:dc="http://purl.org/dc/elements/1.1/" xmlns:cc="http://creativecommons.org/ns#" xmlns:rdf="http://www.w3.org/1999/02/22-rdf-syntax-ns#">
   <cc:Work>
    <dc:type rdf:resource="http://purl.org/dc/dcmitype/StillImage"/>
    <dc:date>2022-03-18T11:00:54.634101</dc:date>
    <dc:format>image/svg+xml</dc:format>
    <dc:creator>
     <cc:Agent>
      <dc:title>Matplotlib v3.5.1, https://matplotlib.org/</dc:title>
     </cc:Agent>
    </dc:creator>
   </cc:Work>
  </rdf:RDF>
 </metadata>
 <defs>
  <style type="text/css">*{stroke-linejoin: round; stroke-linecap: butt}</style>
 </defs>
 <g id="figure_1">
  <g id="patch_1">
   <path d="M 0 360 
L 432.27 360 
L 432.27 0 
L 0 0 
z
" style="fill: #ffffff"/>
  </g>
  <g id="axes_1">
   <g id="patch_2">
    <path d="M 63.567705 318.04 
L 355.6773 318.04 
L 355.6773 10.8 
L 63.567705 10.8 
z
" style="fill: #ffffff"/>
   </g>
   <g id="matplotlib.axis_1">
    <g id="xtick_1">
     <g id="line2d_1">
      <defs>
       <path id="m36ccb558ec" d="M 0 0 
L 0 3.5 
" style="stroke: #000000; stroke-width: 0.8"/>
      </defs>
      <g>
       <use xlink:href="#m36ccb558ec" x="76.845414" y="318.04" style="stroke: #000000; stroke-width: 0.8"/>
      </g>
     </g>
     <g id="text_1">
      <!-- 0 -->
      <g transform="translate(73.664164 332.638438)scale(0.1 -0.1)">
       <defs>
        <path id="DejaVuSans-30" d="M 2034 4250 
Q 1547 4250 1301 3770 
Q 1056 3291 1056 2328 
Q 1056 1369 1301 889 
Q 1547 409 2034 409 
Q 2525 409 2770 889 
Q 3016 1369 3016 2328 
Q 3016 3291 2770 3770 
Q 2525 4250 2034 4250 
z
M 2034 4750 
Q 2819 4750 3233 4129 
Q 3647 3509 3647 2328 
Q 3647 1150 3233 529 
Q 2819 -91 2034 -91 
Q 1250 -91 836 529 
Q 422 1150 422 2328 
Q 422 3509 836 4129 
Q 1250 4750 2034 4750 
z
" transform="scale(0.015625)"/>
       </defs>
       <use xlink:href="#DejaVuSans-30"/>
      </g>
     </g>
    </g>
    <g id="xtick_2">
     <g id="line2d_2">
      <g>
       <use xlink:href="#m36ccb558ec" x="114.781996" y="318.04" style="stroke: #000000; stroke-width: 0.8"/>
      </g>
     </g>
     <g id="text_2">
      <!-- 200 -->
      <g transform="translate(105.238246 332.638438)scale(0.1 -0.1)">
       <defs>
        <path id="DejaVuSans-32" d="M 1228 531 
L 3431 531 
L 3431 0 
L 469 0 
L 469 531 
Q 828 903 1448 1529 
Q 2069 2156 2228 2338 
Q 2531 2678 2651 2914 
Q 2772 3150 2772 3378 
Q 2772 3750 2511 3984 
Q 2250 4219 1831 4219 
Q 1534 4219 1204 4116 
Q 875 4013 500 3803 
L 500 4441 
Q 881 4594 1212 4672 
Q 1544 4750 1819 4750 
Q 2544 4750 2975 4387 
Q 3406 4025 3406 3419 
Q 3406 3131 3298 2873 
Q 3191 2616 2906 2266 
Q 2828 2175 2409 1742 
Q 1991 1309 1228 531 
z
" transform="scale(0.015625)"/>
       </defs>
       <use xlink:href="#DejaVuSans-32"/>
       <use xlink:href="#DejaVuSans-30" x="63.623047"/>
       <use xlink:href="#DejaVuSans-30" x="127.246094"/>
      </g>
     </g>
    </g>
    <g id="xtick_3">
     <g id="line2d_3">
      <g>
       <use xlink:href="#m36ccb558ec" x="152.718578" y="318.04" style="stroke: #000000; stroke-width: 0.8"/>
      </g>
     </g>
     <g id="text_3">
      <!-- 400 -->
      <g transform="translate(143.174828 332.638438)scale(0.1 -0.1)">
       <defs>
        <path id="DejaVuSans-34" d="M 2419 4116 
L 825 1625 
L 2419 1625 
L 2419 4116 
z
M 2253 4666 
L 3047 4666 
L 3047 1625 
L 3713 1625 
L 3713 1100 
L 3047 1100 
L 3047 0 
L 2419 0 
L 2419 1100 
L 313 1100 
L 313 1709 
L 2253 4666 
z
" transform="scale(0.015625)"/>
       </defs>
       <use xlink:href="#DejaVuSans-34"/>
       <use xlink:href="#DejaVuSans-30" x="63.623047"/>
       <use xlink:href="#DejaVuSans-30" x="127.246094"/>
      </g>
     </g>
    </g>
    <g id="xtick_4">
     <g id="line2d_4">
      <g>
       <use xlink:href="#m36ccb558ec" x="190.65516" y="318.04" style="stroke: #000000; stroke-width: 0.8"/>
      </g>
     </g>
     <g id="text_4">
      <!-- 600 -->
      <g transform="translate(181.11141 332.638438)scale(0.1 -0.1)">
       <defs>
        <path id="DejaVuSans-36" d="M 2113 2584 
Q 1688 2584 1439 2293 
Q 1191 2003 1191 1497 
Q 1191 994 1439 701 
Q 1688 409 2113 409 
Q 2538 409 2786 701 
Q 3034 994 3034 1497 
Q 3034 2003 2786 2293 
Q 2538 2584 2113 2584 
z
M 3366 4563 
L 3366 3988 
Q 3128 4100 2886 4159 
Q 2644 4219 2406 4219 
Q 1781 4219 1451 3797 
Q 1122 3375 1075 2522 
Q 1259 2794 1537 2939 
Q 1816 3084 2150 3084 
Q 2853 3084 3261 2657 
Q 3669 2231 3669 1497 
Q 3669 778 3244 343 
Q 2819 -91 2113 -91 
Q 1303 -91 875 529 
Q 447 1150 447 2328 
Q 447 3434 972 4092 
Q 1497 4750 2381 4750 
Q 2619 4750 2861 4703 
Q 3103 4656 3366 4563 
z
" transform="scale(0.015625)"/>
       </defs>
       <use xlink:href="#DejaVuSans-36"/>
       <use xlink:href="#DejaVuSans-30" x="63.623047"/>
       <use xlink:href="#DejaVuSans-30" x="127.246094"/>
      </g>
     </g>
    </g>
    <g id="xtick_5">
     <g id="line2d_5">
      <g>
       <use xlink:href="#m36ccb558ec" x="228.591742" y="318.04" style="stroke: #000000; stroke-width: 0.8"/>
      </g>
     </g>
     <g id="text_5">
      <!-- 800 -->
      <g transform="translate(219.047992 332.638438)scale(0.1 -0.1)">
       <defs>
        <path id="DejaVuSans-38" d="M 2034 2216 
Q 1584 2216 1326 1975 
Q 1069 1734 1069 1313 
Q 1069 891 1326 650 
Q 1584 409 2034 409 
Q 2484 409 2743 651 
Q 3003 894 3003 1313 
Q 3003 1734 2745 1975 
Q 2488 2216 2034 2216 
z
M 1403 2484 
Q 997 2584 770 2862 
Q 544 3141 544 3541 
Q 544 4100 942 4425 
Q 1341 4750 2034 4750 
Q 2731 4750 3128 4425 
Q 3525 4100 3525 3541 
Q 3525 3141 3298 2862 
Q 3072 2584 2669 2484 
Q 3125 2378 3379 2068 
Q 3634 1759 3634 1313 
Q 3634 634 3220 271 
Q 2806 -91 2034 -91 
Q 1263 -91 848 271 
Q 434 634 434 1313 
Q 434 1759 690 2068 
Q 947 2378 1403 2484 
z
M 1172 3481 
Q 1172 3119 1398 2916 
Q 1625 2713 2034 2713 
Q 2441 2713 2670 2916 
Q 2900 3119 2900 3481 
Q 2900 3844 2670 4047 
Q 2441 4250 2034 4250 
Q 1625 4250 1398 4047 
Q 1172 3844 1172 3481 
z
" transform="scale(0.015625)"/>
       </defs>
       <use xlink:href="#DejaVuSans-38"/>
       <use xlink:href="#DejaVuSans-30" x="63.623047"/>
       <use xlink:href="#DejaVuSans-30" x="127.246094"/>
      </g>
     </g>
    </g>
    <g id="xtick_6">
     <g id="line2d_6">
      <g>
       <use xlink:href="#m36ccb558ec" x="266.528324" y="318.04" style="stroke: #000000; stroke-width: 0.8"/>
      </g>
     </g>
     <g id="text_6">
      <!-- 1000 -->
      <g transform="translate(253.803324 332.638438)scale(0.1 -0.1)">
       <defs>
        <path id="DejaVuSans-31" d="M 794 531 
L 1825 531 
L 1825 4091 
L 703 3866 
L 703 4441 
L 1819 4666 
L 2450 4666 
L 2450 531 
L 3481 531 
L 3481 0 
L 794 0 
L 794 531 
z
" transform="scale(0.015625)"/>
       </defs>
       <use xlink:href="#DejaVuSans-31"/>
       <use xlink:href="#DejaVuSans-30" x="63.623047"/>
       <use xlink:href="#DejaVuSans-30" x="127.246094"/>
       <use xlink:href="#DejaVuSans-30" x="190.869141"/>
      </g>
     </g>
    </g>
    <g id="xtick_7">
     <g id="line2d_7">
      <g>
       <use xlink:href="#m36ccb558ec" x="304.464906" y="318.04" style="stroke: #000000; stroke-width: 0.8"/>
      </g>
     </g>
     <g id="text_7">
      <!-- 1200 -->
      <g transform="translate(291.739906 332.638438)scale(0.1 -0.1)">
       <use xlink:href="#DejaVuSans-31"/>
       <use xlink:href="#DejaVuSans-32" x="63.623047"/>
       <use xlink:href="#DejaVuSans-30" x="127.246094"/>
       <use xlink:href="#DejaVuSans-30" x="190.869141"/>
      </g>
     </g>
    </g>
    <g id="xtick_8">
     <g id="line2d_8">
      <g>
       <use xlink:href="#m36ccb558ec" x="342.401488" y="318.04" style="stroke: #000000; stroke-width: 0.8"/>
      </g>
     </g>
     <g id="text_8">
      <!-- 1400 -->
      <g transform="translate(329.676488 332.638438)scale(0.1 -0.1)">
       <use xlink:href="#DejaVuSans-31"/>
       <use xlink:href="#DejaVuSans-34" x="63.623047"/>
       <use xlink:href="#DejaVuSans-30" x="127.246094"/>
       <use xlink:href="#DejaVuSans-30" x="190.869141"/>
      </g>
     </g>
    </g>
    <g id="text_9">
     <!-- t/ms -->
     <g transform="translate(198.502971 346.316563)scale(0.1 -0.1)">
      <defs>
       <path id="DejaVuSans-74" d="M 1172 4494 
L 1172 3500 
L 2356 3500 
L 2356 3053 
L 1172 3053 
L 1172 1153 
Q 1172 725 1289 603 
Q 1406 481 1766 481 
L 2356 481 
L 2356 0 
L 1766 0 
Q 1100 0 847 248 
Q 594 497 594 1153 
L 594 3053 
L 172 3053 
L 172 3500 
L 594 3500 
L 594 4494 
L 1172 4494 
z
" transform="scale(0.015625)"/>
       <path id="DejaVuSans-2f" d="M 1625 4666 
L 2156 4666 
L 531 -594 
L 0 -594 
L 1625 4666 
z
" transform="scale(0.015625)"/>
       <path id="DejaVuSans-6d" d="M 3328 2828 
Q 3544 3216 3844 3400 
Q 4144 3584 4550 3584 
Q 5097 3584 5394 3201 
Q 5691 2819 5691 2113 
L 5691 0 
L 5113 0 
L 5113 2094 
Q 5113 2597 4934 2840 
Q 4756 3084 4391 3084 
Q 3944 3084 3684 2787 
Q 3425 2491 3425 1978 
L 3425 0 
L 2847 0 
L 2847 2094 
Q 2847 2600 2669 2842 
Q 2491 3084 2119 3084 
Q 1678 3084 1418 2786 
Q 1159 2488 1159 1978 
L 1159 0 
L 581 0 
L 581 3500 
L 1159 3500 
L 1159 2956 
Q 1356 3278 1631 3431 
Q 1906 3584 2284 3584 
Q 2666 3584 2933 3390 
Q 3200 3197 3328 2828 
z
" transform="scale(0.015625)"/>
       <path id="DejaVuSans-73" d="M 2834 3397 
L 2834 2853 
Q 2591 2978 2328 3040 
Q 2066 3103 1784 3103 
Q 1356 3103 1142 2972 
Q 928 2841 928 2578 
Q 928 2378 1081 2264 
Q 1234 2150 1697 2047 
L 1894 2003 
Q 2506 1872 2764 1633 
Q 3022 1394 3022 966 
Q 3022 478 2636 193 
Q 2250 -91 1575 -91 
Q 1294 -91 989 -36 
Q 684 19 347 128 
L 347 722 
Q 666 556 975 473 
Q 1284 391 1588 391 
Q 1994 391 2212 530 
Q 2431 669 2431 922 
Q 2431 1156 2273 1281 
Q 2116 1406 1581 1522 
L 1381 1569 
Q 847 1681 609 1914 
Q 372 2147 372 2553 
Q 372 3047 722 3315 
Q 1072 3584 1716 3584 
Q 2034 3584 2315 3537 
Q 2597 3491 2834 3397 
z
" transform="scale(0.015625)"/>
      </defs>
      <use xlink:href="#DejaVuSans-74"/>
      <use xlink:href="#DejaVuSans-2f" x="39.208984"/>
      <use xlink:href="#DejaVuSans-6d" x="72.900391"/>
      <use xlink:href="#DejaVuSans-73" x="170.3125"/>
     </g>
    </g>
   </g>
   <g id="matplotlib.axis_2">
    <g id="ytick_1">
     <g id="line2d_9">
      <defs>
       <path id="mb74c22db93" d="M 0 0 
L -3.5 0 
" style="stroke: #000000; stroke-width: 0.8"/>
      </defs>
      <g>
       <use xlink:href="#mb74c22db93" x="63.567705" y="276.389079" style="stroke: #000000; stroke-width: 0.8"/>
      </g>
     </g>
     <g id="text_10">
      <!-- −80 -->
      <g transform="translate(35.463017 280.188297)scale(0.1 -0.1)">
       <defs>
        <path id="DejaVuSans-2212" d="M 678 2272 
L 4684 2272 
L 4684 1741 
L 678 1741 
L 678 2272 
z
" transform="scale(0.015625)"/>
       </defs>
       <use xlink:href="#DejaVuSans-2212"/>
       <use xlink:href="#DejaVuSans-38" x="83.789062"/>
       <use xlink:href="#DejaVuSans-30" x="147.412109"/>
      </g>
     </g>
    </g>
    <g id="ytick_2">
     <g id="line2d_10">
      <g>
       <use xlink:href="#mb74c22db93" x="63.567705" y="221.018145" style="stroke: #000000; stroke-width: 0.8"/>
      </g>
     </g>
     <g id="text_11">
      <!-- −60 -->
      <g transform="translate(35.463017 224.817364)scale(0.1 -0.1)">
       <use xlink:href="#DejaVuSans-2212"/>
       <use xlink:href="#DejaVuSans-36" x="83.789062"/>
       <use xlink:href="#DejaVuSans-30" x="147.412109"/>
      </g>
     </g>
    </g>
    <g id="ytick_3">
     <g id="line2d_11">
      <g>
       <use xlink:href="#mb74c22db93" x="63.567705" y="165.647212" style="stroke: #000000; stroke-width: 0.8"/>
      </g>
     </g>
     <g id="text_12">
      <!-- −40 -->
      <g transform="translate(35.463017 169.44643)scale(0.1 -0.1)">
       <use xlink:href="#DejaVuSans-2212"/>
       <use xlink:href="#DejaVuSans-34" x="83.789062"/>
       <use xlink:href="#DejaVuSans-30" x="147.412109"/>
      </g>
     </g>
    </g>
    <g id="ytick_4">
     <g id="line2d_12">
      <g>
       <use xlink:href="#mb74c22db93" x="63.567705" y="110.276278" style="stroke: #000000; stroke-width: 0.8"/>
      </g>
     </g>
     <g id="text_13">
      <!-- −20 -->
      <g transform="translate(35.463017 114.075497)scale(0.1 -0.1)">
       <use xlink:href="#DejaVuSans-2212"/>
       <use xlink:href="#DejaVuSans-32" x="83.789062"/>
       <use xlink:href="#DejaVuSans-30" x="147.412109"/>
      </g>
     </g>
    </g>
    <g id="ytick_5">
     <g id="line2d_13">
      <g>
       <use xlink:href="#mb74c22db93" x="63.567705" y="54.905344" style="stroke: #000000; stroke-width: 0.8"/>
      </g>
     </g>
     <g id="text_14">
      <!-- 0 -->
      <g transform="translate(50.205205 58.704563)scale(0.1 -0.1)">
       <use xlink:href="#DejaVuSans-30"/>
      </g>
     </g>
    </g>
    <g id="text_15">
     <!-- U/mV -->
     <g transform="translate(29.38333 178.054375)rotate(-90)scale(0.1 -0.1)">
      <defs>
       <path id="DejaVuSans-55" d="M 556 4666 
L 1191 4666 
L 1191 1831 
Q 1191 1081 1462 751 
Q 1734 422 2344 422 
Q 2950 422 3222 751 
Q 3494 1081 3494 1831 
L 3494 4666 
L 4128 4666 
L 4128 1753 
Q 4128 841 3676 375 
Q 3225 -91 2344 -91 
Q 1459 -91 1007 375 
Q 556 841 556 1753 
L 556 4666 
z
" transform="scale(0.015625)"/>
       <path id="DejaVuSans-56" d="M 1831 0 
L 50 4666 
L 709 4666 
L 2188 738 
L 3669 4666 
L 4325 4666 
L 2547 0 
L 1831 0 
z
" transform="scale(0.015625)"/>
      </defs>
      <use xlink:href="#DejaVuSans-55"/>
      <use xlink:href="#DejaVuSans-2f" x="73.193359"/>
      <use xlink:href="#DejaVuSans-6d" x="106.884766"/>
      <use xlink:href="#DejaVuSans-56" x="204.296875"/>
     </g>
    </g>
   </g>
   <g id="line2d_14">
    <path d="M 76.845414 304.074545 
L 78.159916 297.345759 
L 79.09695 293.963342 
L 80.036829 291.370768 
L 80.983347 289.389244 
L 81.947884 287.870129 
L 82.948461 286.699661 
L 84.011634 285.79384 
L 85.180081 285.090651 
L 86.519242 284.548322 
L 88.139134 284.140079 
L 90.244615 283.850972 
L 93.314633 283.673038 
L 99.052541 283.601216 
L 114.784841 283.470618 
L 114.973576 278.571034 
L 115.445886 272.096504 
L 116.103137 266.006523 
L 116.85523 261.037284 
L 117.677506 257.039165 
L 118.563325 253.80133 
L 119.516481 251.137807 
L 120.553098 248.889019 
L 121.708267 246.910759 
L 123.075881 245.017079 
L 125.383374 242.276909 
L 126.773749 240.442921 
L 127.59318 238.993587 
L 128.19732 237.466606 
L 128.666785 235.654897 
L 129.035718 233.296839 
L 129.317397 229.956351 
L 129.516564 224.697713 
L 129.618993 215.533404 
L 129.667362 167.732368 
L 129.713835 24.765455 
L 129.791605 132.217278 
L 130.000256 282.565992 
L 130.193732 298.334268 
L 130.276244 299.083876 
L 130.329356 298.853876 
L 130.473515 296.781681 
L 131.599283 277.727809 
L 132.168331 272.982512 
L 132.860674 269.059063 
L 133.755029 265.278902 
L 134.833376 261.669724 
L 135.971474 258.61102 
L 137.11621 256.151873 
L 138.272327 254.180649 
L 139.457846 252.589419 
L 140.694578 251.296275 
L 142.011926 250.238331 
L 143.454465 249.365957 
L 145.089531 248.640962 
L 147.035678 248.028537 
L 149.55277 247.482267 
L 153.558873 246.86968 
L 163.901334 245.340669 
L 169.390757 244.278368 
L 173.412983 243.287421 
L 176.150108 242.397559 
L 178.037453 241.561759 
L 179.386098 240.730462 
L 180.386676 239.85847 
L 181.156788 238.89412 
L 181.769464 237.765547 
L 182.266433 236.368839 
L 182.670458 234.538504 
L 182.992919 231.980245 
L 183.236661 228.122008 
L 183.397892 221.657525 
L 183.4529 209.112494 
L 183.503166 113.731737 
L 183.53636 24.922008 
L 183.611285 128.56311 
L 183.821833 282.575599 
L 184.01531 298.487142 
L 184.099719 299.269094 
L 184.15283 299.041871 
L 184.29604 297.007344 
L 185.455003 277.545479 
L 186.039226 272.655435 
L 186.74295 268.61517 
L 187.625924 264.838499 
L 188.662541 261.361956 
L 189.759857 258.435272 
L 190.875192 256.074221 
L 192.008547 254.181379 
L 193.173201 252.659599 
L 194.389068 251.43126 
L 195.684602 250.43648 
L 197.101534 249.629804 
L 198.706251 248.975929 
L 200.617306 248.444598 
L 203.096462 247.998962 
L 207.121533 247.532557 
L 216.67681 246.456621 
L 222.832969 245.509672 
L 228.328083 244.447205 
L 232.434718 243.440294 
L 235.251509 242.534075 
L 237.196707 241.686231 
L 238.584238 240.848162 
L 239.611371 239.974246 
L 240.400451 239.012692 
L 241.026405 237.894544 
L 241.532858 236.520786 
L 241.945419 234.7281 
L 242.275467 232.237367 
L 242.525848 228.520493 
L 242.694666 222.368065 
L 242.757262 210.950372 
L 242.808476 124.4715 
L 242.843567 24.899338 
L 242.918492 128.297274 
L 243.12904 282.511116 
L 243.322517 298.452978 
L 243.406926 299.241845 
L 243.460037 299.018053 
L 243.603247 296.990219 
L 244.7679 277.468062 
L 245.353072 272.580906 
L 246.058693 268.534452 
L 246.941667 264.761183 
L 247.976387 261.295101 
L 249.071806 258.378006 
L 250.186193 256.023138 
L 251.319548 254.133912 
L 252.484201 252.61514 
L 253.701017 251.388375 
L 254.9975 250.395133 
L 256.41538 249.590079 
L 258.020097 248.938466 
L 259.930204 248.410128 
L 262.404617 247.969264 
L 266.411669 247.512245 
L 275.801921 246.470963 
L 281.779778 245.554841 
L 287.139269 244.515707 
L 291.212709 243.512411 
L 294.037088 242.60098 
L 295.995564 241.74688 
L 297.394475 240.903528 
L 298.430144 240.025828 
L 299.224916 239.063011 
L 299.854663 237.94708 
L 300.36491 236.57705 
L 300.780315 234.794426 
L 301.112261 232.33018 
L 301.365487 228.651881 
L 301.53715 222.584393 
L 301.602591 211.530952 
L 301.653805 129.061073 
L 301.689845 24.880546 
L 301.76477 128.315779 
L 301.975318 282.483739 
L 302.168794 298.427359 
L 302.253203 299.219347 
L 302.306314 298.997466 
L 302.448577 296.991625 
L 303.621765 277.379759 
L 304.208834 272.501453 
L 304.464906 270.879805 
L 304.476287 271.4462 
L 304.684938 275.165968 
L 305.095602 278.582872 
L 305.624817 281.236437 
L 306.20904 283.091402 
L 306.830252 284.361605 
L 307.490348 285.225712 
L 308.210195 285.809451 
L 309.039109 286.193398 
L 310.07383 286.418229 
L 311.53344 286.490114 
L 314.262977 286.360768 
L 324.083809 285.821919 
L 342.399591 284.919237 
L 342.399591 284.919237 
" clip-path="url(#p01b94cb4fe)" style="fill: none; stroke: #1f77b4; stroke-width: 1.5; stroke-linecap: square"/>
   </g>
   <g id="line2d_15">
    <path d="M 76.845414 304.074545 
L 78.130516 297.465467 
L 79.070394 294.042764 
L 80.010273 291.430959 
L 80.952997 289.443089 
L 81.916586 287.911365 
L 82.915267 286.731577 
L 83.97844 285.815697 
L 85.143093 285.107241 
L 86.476564 284.560489 
L 88.086023 284.148676 
L 90.172535 283.856306 
L 93.201771 283.675259 
L 98.797417 283.600421 
L 114.783893 283.473987 
L 114.971679 278.576612 
L 115.442092 272.114066 
L 116.098395 266.021349 
L 116.850488 261.042871 
L 117.672763 257.037298 
L 118.559531 253.789684 
L 119.513636 251.117671 
L 120.55215 248.858362 
L 121.712061 246.86385 
L 123.095798 244.935152 
L 127.178722 239.542226 
L 127.845458 238.050789 
L 128.356653 236.347728 
L 128.757833 234.201658 
L 129.067964 231.257321 
L 129.295584 226.787427 
L 129.435949 219.196732 
L 129.482421 201.482775 
L 129.531739 53.567954 
L 129.551656 25.535876 
L 129.62089 119.264769 
L 129.834283 282.110158 
L 130.026811 298.304724 
L 130.11122 299.099188 
L 130.164331 298.867708 
L 130.30849 296.787893 
L 131.431413 277.736308 
L 131.999514 272.990276 
L 132.689959 269.074563 
L 133.583366 265.297153 
L 134.66361 261.680115 
L 135.803604 258.614212 
L 136.950238 256.148676 
L 138.108252 254.171963 
L 139.294718 252.577123 
L 140.532399 251.280399 
L 141.851644 250.218168 
L 143.295131 249.342208 
L 144.931146 248.613378 
L 146.877293 247.997045 
L 149.390591 247.446944 
L 153.375829 246.831271 
L 163.620603 245.301423 
L 168.93457 244.25713 
L 172.82876 243.278776 
L 175.495702 242.392693 
L 177.344162 241.555616 
L 178.669097 240.720569 
L 179.655448 239.841732 
L 180.416076 238.8675 
L 181.022113 237.724261 
L 181.513392 236.307413 
L 181.913623 234.439692 
L 182.231342 231.828175 
L 182.470342 227.877582 
L 182.626831 221.215215 
L 182.679942 207.665516 
L 182.728311 105.989702 
L 182.760557 25.716182 
L 182.834534 127.778445 
L 183.045082 282.717654 
L 183.23761 298.528908 
L 183.320122 299.293033 
L 183.374181 299.06299 
L 183.51834 297.001568 
L 184.668767 277.601721 
L 185.251094 272.696198 
L 185.951972 268.65294 
L 186.832101 264.875135 
L 187.866821 261.394106 
L 188.964137 258.457965 
L 190.080421 256.086924 
L 191.214724 254.185762 
L 192.380326 252.656885 
L 193.596193 251.423173 
L 194.891728 250.423233 
L 196.307711 249.612011 
L 197.910531 248.953785 
L 199.816844 248.418581 
L 202.281774 247.970222 
L 206.239508 247.506461 
L 215.972138 246.406117 
L 222.011642 245.46737 
L 227.339835 244.422204 
L 231.318434 243.428497 
L 234.063145 242.526893 
L 235.967562 241.678639 
L 237.330434 240.837388 
L 238.342392 239.957531 
L 239.12104 238.98769 
L 239.739407 237.857909 
L 240.241118 236.463354 
L 240.648936 234.641568 
L 240.974242 232.107348 
L 241.22083 228.300559 
L 241.385854 221.932489 
L 241.445604 209.731657 
L 241.493973 122.78179 
L 241.529065 25.68655 
L 241.603041 127.189213 
L 241.813589 282.612906 
L 242.006117 298.490392 
L 242.089578 299.265627 
L 242.143637 299.033135 
L 242.288745 296.952855 
L 243.433481 277.624782 
L 244.015808 272.69435 
L 244.715738 268.638264 
L 245.593021 264.859166 
L 246.624896 261.378506 
L 247.720315 258.441336 
L 248.83565 256.067925 
L 249.969006 254.164837 
L 251.133659 252.634091 
L 252.349526 251.39764 
L 253.644112 250.396054 
L 255.059147 249.583364 
L 256.658174 248.925134 
L 258.5569 248.391147 
L 261.003809 247.946472 
L 264.896102 247.494427 
L 274.641062 246.408424 
L 280.503212 245.49754 
L 285.695782 244.473429 
L 289.62696 243.484242 
L 292.365033 242.578877 
L 294.272295 241.725395 
L 295.639909 240.878999 
L 296.655661 239.995101 
L 297.438103 239.021048 
L 298.059314 237.887707 
L 298.562922 236.491098 
L 298.971689 234.67165 
L 299.297943 232.143988 
L 299.54548 228.35347 
L 299.711452 222.040634 
L 299.772151 210.351168 
L 299.82052 127.587237 
L 299.85656 25.667882 
L 299.930536 127.131522 
L 300.141084 282.576047 
L 300.333612 298.463644 
L 300.417073 299.242985 
L 300.471132 299.012832 
L 300.615291 296.955265 
L 301.768563 277.535679 
L 302.351838 272.620869 
L 303.053665 268.567151 
L 303.932845 264.78915 
L 304.463958 262.900749 
L 304.4687 263.19274 
L 304.662176 267.444444 
L 305.088963 272.025505 
L 305.654218 275.832139 
L 306.288707 278.66186 
L 306.972514 280.741315 
L 307.700896 282.273095 
L 308.477648 283.405183 
L 309.31984 284.247053 
L 310.261616 284.874985 
L 311.36557 285.339246 
L 312.738874 285.666431 
L 314.59018 285.864963 
L 317.424991 285.923507 
L 322.948557 285.776579 
L 335.436332 285.193256 
L 342.399591 284.824256 
L 342.399591 284.824256 
" clip-path="url(#p01b94cb4fe)" style="fill: none; stroke: #ff7f0e; stroke-width: 1.5; stroke-linecap: square"/>
   </g>
   <g id="line2d_16"/>
   <g id="line2d_17"/>
   <g id="patch_3">
    <path d="M 63.567705 318.04 
L 63.567705 10.8 
" style="fill: none; stroke: #000000; stroke-width: 0.8; stroke-linejoin: miter; stroke-linecap: square"/>
   </g>
   <g id="patch_4">
    <path d="M 63.567705 318.04 
L 355.6773 318.04 
" style="fill: none; stroke: #000000; stroke-width: 0.8; stroke-linejoin: miter; stroke-linecap: square"/>
   </g>
   <g id="PathCollection_1">
    <defs>
     <path id="m509123efbc" d="M 0 3 
C 0.795609 3 1.55874 2.683901 2.12132 2.12132 
C 2.683901 1.55874 3 0.795609 3 0 
C 3 -0.795609 2.683901 -1.55874 2.12132 -2.12132 
C 1.55874 -2.683901 0.795609 -3 0 -3 
C -0.795609 -3 -1.55874 -2.683901 -2.12132 -2.12132 
C -2.683901 -1.55874 -3 -0.795609 -3 0 
C -3 0.795609 -2.683901 1.55874 -2.12132 2.12132 
C -1.55874 2.683901 -0.795609 3 0 3 
z
" style="stroke: #2ca02c"/>
    </defs>
    <g clip-path="url(#p01b94cb4fe)">
     <use xlink:href="#m509123efbc" x="129.668161" y="165.647212" style="fill: #2ca02c; stroke: #2ca02c"/>
     <use xlink:href="#m509123efbc" x="183.490096" y="165.647212" style="fill: #2ca02c; stroke: #2ca02c"/>
     <use xlink:href="#m509123efbc" x="242.797484" y="165.647212" style="fill: #2ca02c; stroke: #2ca02c"/>
     <use xlink:href="#m509123efbc" x="301.643756" y="165.647212" style="fill: #2ca02c; stroke: #2ca02c"/>
    </g>
   </g>
  </g>
  <g id="legend_1">
   <g id="text_16">
    <!-- Simulator -->
    <g transform="translate(366.9825 168.08125)scale(0.1 -0.1)">
     <defs>
      <path id="DejaVuSans-53" d="M 3425 4513 
L 3425 3897 
Q 3066 4069 2747 4153 
Q 2428 4238 2131 4238 
Q 1616 4238 1336 4038 
Q 1056 3838 1056 3469 
Q 1056 3159 1242 3001 
Q 1428 2844 1947 2747 
L 2328 2669 
Q 3034 2534 3370 2195 
Q 3706 1856 3706 1288 
Q 3706 609 3251 259 
Q 2797 -91 1919 -91 
Q 1588 -91 1214 -16 
Q 841 59 441 206 
L 441 856 
Q 825 641 1194 531 
Q 1563 422 1919 422 
Q 2459 422 2753 634 
Q 3047 847 3047 1241 
Q 3047 1584 2836 1778 
Q 2625 1972 2144 2069 
L 1759 2144 
Q 1053 2284 737 2584 
Q 422 2884 422 3419 
Q 422 4038 858 4394 
Q 1294 4750 2059 4750 
Q 2388 4750 2728 4690 
Q 3069 4631 3425 4513 
z
" transform="scale(0.015625)"/>
      <path id="DejaVuSans-69" d="M 603 3500 
L 1178 3500 
L 1178 0 
L 603 0 
L 603 3500 
z
M 603 4863 
L 1178 4863 
L 1178 4134 
L 603 4134 
L 603 4863 
z
" transform="scale(0.015625)"/>
      <path id="DejaVuSans-75" d="M 544 1381 
L 544 3500 
L 1119 3500 
L 1119 1403 
Q 1119 906 1312 657 
Q 1506 409 1894 409 
Q 2359 409 2629 706 
Q 2900 1003 2900 1516 
L 2900 3500 
L 3475 3500 
L 3475 0 
L 2900 0 
L 2900 538 
Q 2691 219 2414 64 
Q 2138 -91 1772 -91 
Q 1169 -91 856 284 
Q 544 659 544 1381 
z
M 1991 3584 
L 1991 3584 
z
" transform="scale(0.015625)"/>
      <path id="DejaVuSans-6c" d="M 603 4863 
L 1178 4863 
L 1178 0 
L 603 0 
L 603 4863 
z
" transform="scale(0.015625)"/>
      <path id="DejaVuSans-61" d="M 2194 1759 
Q 1497 1759 1228 1600 
Q 959 1441 959 1056 
Q 959 750 1161 570 
Q 1363 391 1709 391 
Q 2188 391 2477 730 
Q 2766 1069 2766 1631 
L 2766 1759 
L 2194 1759 
z
M 3341 1997 
L 3341 0 
L 2766 0 
L 2766 531 
Q 2569 213 2275 61 
Q 1981 -91 1556 -91 
Q 1019 -91 701 211 
Q 384 513 384 1019 
Q 384 1609 779 1909 
Q 1175 2209 1959 2209 
L 2766 2209 
L 2766 2266 
Q 2766 2663 2505 2880 
Q 2244 3097 1772 3097 
Q 1472 3097 1187 3025 
Q 903 2953 641 2809 
L 641 3341 
Q 956 3463 1253 3523 
Q 1550 3584 1831 3584 
Q 2591 3584 2966 3190 
Q 3341 2797 3341 1997 
z
" transform="scale(0.015625)"/>
      <path id="DejaVuSans-6f" d="M 1959 3097 
Q 1497 3097 1228 2736 
Q 959 2375 959 1747 
Q 959 1119 1226 758 
Q 1494 397 1959 397 
Q 2419 397 2687 759 
Q 2956 1122 2956 1747 
Q 2956 2369 2687 2733 
Q 2419 3097 1959 3097 
z
M 1959 3584 
Q 2709 3584 3137 3096 
Q 3566 2609 3566 1747 
Q 3566 888 3137 398 
Q 2709 -91 1959 -91 
Q 1206 -91 779 398 
Q 353 888 353 1747 
Q 353 2609 779 3096 
Q 1206 3584 1959 3584 
z
" transform="scale(0.015625)"/>
      <path id="DejaVuSans-72" d="M 2631 2963 
Q 2534 3019 2420 3045 
Q 2306 3072 2169 3072 
Q 1681 3072 1420 2755 
Q 1159 2438 1159 1844 
L 1159 0 
L 581 0 
L 581 3500 
L 1159 3500 
L 1159 2956 
Q 1341 3275 1631 3429 
Q 1922 3584 2338 3584 
Q 2397 3584 2469 3576 
Q 2541 3569 2628 3553 
L 2631 2963 
z
" transform="scale(0.015625)"/>
     </defs>
     <use xlink:href="#DejaVuSans-53"/>
     <use xlink:href="#DejaVuSans-69" x="63.476562"/>
     <use xlink:href="#DejaVuSans-6d" x="91.259766"/>
     <use xlink:href="#DejaVuSans-75" x="188.671875"/>
     <use xlink:href="#DejaVuSans-6c" x="252.050781"/>
     <use xlink:href="#DejaVuSans-61" x="279.833984"/>
     <use xlink:href="#DejaVuSans-74" x="341.113281"/>
     <use xlink:href="#DejaVuSans-6f" x="380.322266"/>
     <use xlink:href="#DejaVuSans-72" x="441.503906"/>
    </g>
   </g>
   <g id="line2d_18">
    <path d="M 358.955938 179.259375 
L 368.955938 179.259375 
L 378.955938 179.259375 
" style="fill: none; stroke: #1f77b4; stroke-width: 1.5; stroke-linecap: square"/>
   </g>
   <g id="text_17">
    <!-- Arbor -->
    <g transform="translate(386.955938 182.759375)scale(0.1 -0.1)">
     <defs>
      <path id="DejaVuSans-41" d="M 2188 4044 
L 1331 1722 
L 3047 1722 
L 2188 4044 
z
M 1831 4666 
L 2547 4666 
L 4325 0 
L 3669 0 
L 3244 1197 
L 1141 1197 
L 716 0 
L 50 0 
L 1831 4666 
z
" transform="scale(0.015625)"/>
      <path id="DejaVuSans-62" d="M 3116 1747 
Q 3116 2381 2855 2742 
Q 2594 3103 2138 3103 
Q 1681 3103 1420 2742 
Q 1159 2381 1159 1747 
Q 1159 1113 1420 752 
Q 1681 391 2138 391 
Q 2594 391 2855 752 
Q 3116 1113 3116 1747 
z
M 1159 2969 
Q 1341 3281 1617 3432 
Q 1894 3584 2278 3584 
Q 2916 3584 3314 3078 
Q 3713 2572 3713 1747 
Q 3713 922 3314 415 
Q 2916 -91 2278 -91 
Q 1894 -91 1617 61 
Q 1341 213 1159 525 
L 1159 0 
L 581 0 
L 581 4863 
L 1159 4863 
L 1159 2969 
z
" transform="scale(0.015625)"/>
     </defs>
     <use xlink:href="#DejaVuSans-41"/>
     <use xlink:href="#DejaVuSans-72" x="68.408203"/>
     <use xlink:href="#DejaVuSans-62" x="109.521484"/>
     <use xlink:href="#DejaVuSans-6f" x="172.998047"/>
     <use xlink:href="#DejaVuSans-72" x="234.179688"/>
    </g>
   </g>
   <g id="line2d_19">
    <path d="M 358.955938 193.9375 
L 368.955938 193.9375 
L 378.955938 193.9375 
" style="fill: none; stroke: #ff7f0e; stroke-width: 1.5; stroke-linecap: square"/>
   </g>
   <g id="text_18">
    <!-- Neuron -->
    <g transform="translate(386.955938 197.4375)scale(0.1 -0.1)">
     <defs>
      <path id="DejaVuSans-4e" d="M 628 4666 
L 1478 4666 
L 3547 763 
L 3547 4666 
L 4159 4666 
L 4159 0 
L 3309 0 
L 1241 3903 
L 1241 0 
L 628 0 
L 628 4666 
z
" transform="scale(0.015625)"/>
      <path id="DejaVuSans-65" d="M 3597 1894 
L 3597 1613 
L 953 1613 
Q 991 1019 1311 708 
Q 1631 397 2203 397 
Q 2534 397 2845 478 
Q 3156 559 3463 722 
L 3463 178 
Q 3153 47 2828 -22 
Q 2503 -91 2169 -91 
Q 1331 -91 842 396 
Q 353 884 353 1716 
Q 353 2575 817 3079 
Q 1281 3584 2069 3584 
Q 2775 3584 3186 3129 
Q 3597 2675 3597 1894 
z
M 3022 2063 
Q 3016 2534 2758 2815 
Q 2500 3097 2075 3097 
Q 1594 3097 1305 2825 
Q 1016 2553 972 2059 
L 3022 2063 
z
" transform="scale(0.015625)"/>
      <path id="DejaVuSans-6e" d="M 3513 2113 
L 3513 0 
L 2938 0 
L 2938 2094 
Q 2938 2591 2744 2837 
Q 2550 3084 2163 3084 
Q 1697 3084 1428 2787 
Q 1159 2491 1159 1978 
L 1159 0 
L 581 0 
L 581 3500 
L 1159 3500 
L 1159 2956 
Q 1366 3272 1645 3428 
Q 1925 3584 2291 3584 
Q 2894 3584 3203 3211 
Q 3513 2838 3513 2113 
z
" transform="scale(0.015625)"/>
     </defs>
     <use xlink:href="#DejaVuSans-4e"/>
     <use xlink:href="#DejaVuSans-65" x="74.804688"/>
     <use xlink:href="#DejaVuSans-75" x="136.328125"/>
     <use xlink:href="#DejaVuSans-72" x="199.707031"/>
     <use xlink:href="#DejaVuSans-6f" x="238.570312"/>
     <use xlink:href="#DejaVuSans-6e" x="299.751953"/>
    </g>
   </g>
  </g>
 </g>
 <defs>
  <clipPath id="p01b94cb4fe">
   <rect x="63.567705" y="10.8" width="292.109595" height="307.24"/>
  </clipPath>
 </defs>
</svg>
