<?xml version="1.0" encoding="utf-8" standalone="no"?>
<!DOCTYPE svg PUBLIC "-//W3C//DTD SVG 1.1//EN"
  "http://www.w3.org/Graphics/SVG/1.1/DTD/svg11.dtd">
<svg xmlns:xlink="http://www.w3.org/1999/xlink" width="432.27pt" height="360pt" viewBox="0 0 432.27 360" xmlns="http://www.w3.org/2000/svg" version="1.1">
 <metadata>
  <rdf:RDF xmlns:dc="http://purl.org/dc/elements/1.1/" xmlns:cc="http://creativecommons.org/ns#" xmlns:rdf="http://www.w3.org/1999/02/22-rdf-syntax-ns#">
   <cc:Work>
    <dc:type rdf:resource="http://purl.org/dc/dcmitype/StillImage"/>
    <dc:date>2022-05-10T18:07:29.825465</dc:date>
    <dc:format>image/svg+xml</dc:format>
    <dc:creator>
     <cc:Agent>
      <dc:title>Matplotlib v3.5.1, https://matplotlib.org/</dc:title>
     </cc:Agent>
    </dc:creator>
   </cc:Work>
  </rdf:RDF>
 </metadata>
 <defs>
  <style type="text/css">*{stroke-linejoin: round; stroke-linecap: butt}</style>
 </defs>
 <g id="figure_1">
  <g id="patch_1">
   <path d="M 0 360 
L 432.27 360 
L 432.27 0 
L 0 0 
z
" style="fill: #ffffff"/>
  </g>
  <g id="axes_1">
   <g id="patch_2">
    <path d="M 63.567705 318.04 
L 355.6773 318.04 
L 355.6773 10.8 
L 63.567705 10.8 
z
" style="fill: #ffffff"/>
   </g>
   <g id="patch_3">
    <path d="M 114.781996 318.04 
L 304.464906 318.04 
L 304.464906 26.237584 
L 114.781996 26.237584 
z
" clip-path="url(#p16d20abd98)" style="fill: #e6e6e6"/>
   </g>
   <g id="matplotlib.axis_1">
    <g id="xtick_1">
     <g id="line2d_1">
      <defs>
       <path id="m5e23c00056" d="M 0 0 
L 0 3.5 
" style="stroke: #000000; stroke-width: 0.8"/>
      </defs>
      <g>
       <use xlink:href="#m5e23c00056" x="76.845414" y="318.04" style="stroke: #000000; stroke-width: 0.8"/>
      </g>
     </g>
     <g id="text_1">
      <!-- 0 -->
      <g transform="translate(73.664164 332.638438)scale(0.1 -0.1)">
       <defs>
        <path id="DejaVuSans-30" d="M 2034 4250 
Q 1547 4250 1301 3770 
Q 1056 3291 1056 2328 
Q 1056 1369 1301 889 
Q 1547 409 2034 409 
Q 2525 409 2770 889 
Q 3016 1369 3016 2328 
Q 3016 3291 2770 3770 
Q 2525 4250 2034 4250 
z
M 2034 4750 
Q 2819 4750 3233 4129 
Q 3647 3509 3647 2328 
Q 3647 1150 3233 529 
Q 2819 -91 2034 -91 
Q 1250 -91 836 529 
Q 422 1150 422 2328 
Q 422 3509 836 4129 
Q 1250 4750 2034 4750 
z
" transform="scale(0.015625)"/>
       </defs>
       <use xlink:href="#DejaVuSans-30"/>
      </g>
     </g>
    </g>
    <g id="xtick_2">
     <g id="line2d_2">
      <g>
       <use xlink:href="#m5e23c00056" x="114.781996" y="318.04" style="stroke: #000000; stroke-width: 0.8"/>
      </g>
     </g>
     <g id="text_2">
      <!-- 200 -->
      <g transform="translate(105.238246 332.638438)scale(0.1 -0.1)">
       <defs>
        <path id="DejaVuSans-32" d="M 1228 531 
L 3431 531 
L 3431 0 
L 469 0 
L 469 531 
Q 828 903 1448 1529 
Q 2069 2156 2228 2338 
Q 2531 2678 2651 2914 
Q 2772 3150 2772 3378 
Q 2772 3750 2511 3984 
Q 2250 4219 1831 4219 
Q 1534 4219 1204 4116 
Q 875 4013 500 3803 
L 500 4441 
Q 881 4594 1212 4672 
Q 1544 4750 1819 4750 
Q 2544 4750 2975 4387 
Q 3406 4025 3406 3419 
Q 3406 3131 3298 2873 
Q 3191 2616 2906 2266 
Q 2828 2175 2409 1742 
Q 1991 1309 1228 531 
z
" transform="scale(0.015625)"/>
       </defs>
       <use xlink:href="#DejaVuSans-32"/>
       <use xlink:href="#DejaVuSans-30" x="63.623047"/>
       <use xlink:href="#DejaVuSans-30" x="127.246094"/>
      </g>
     </g>
    </g>
    <g id="xtick_3">
     <g id="line2d_3">
      <g>
       <use xlink:href="#m5e23c00056" x="152.718578" y="318.04" style="stroke: #000000; stroke-width: 0.8"/>
      </g>
     </g>
     <g id="text_3">
      <!-- 400 -->
      <g transform="translate(143.174828 332.638438)scale(0.1 -0.1)">
       <defs>
        <path id="DejaVuSans-34" d="M 2419 4116 
L 825 1625 
L 2419 1625 
L 2419 4116 
z
M 2253 4666 
L 3047 4666 
L 3047 1625 
L 3713 1625 
L 3713 1100 
L 3047 1100 
L 3047 0 
L 2419 0 
L 2419 1100 
L 313 1100 
L 313 1709 
L 2253 4666 
z
" transform="scale(0.015625)"/>
       </defs>
       <use xlink:href="#DejaVuSans-34"/>
       <use xlink:href="#DejaVuSans-30" x="63.623047"/>
       <use xlink:href="#DejaVuSans-30" x="127.246094"/>
      </g>
     </g>
    </g>
    <g id="xtick_4">
     <g id="line2d_4">
      <g>
       <use xlink:href="#m5e23c00056" x="190.65516" y="318.04" style="stroke: #000000; stroke-width: 0.8"/>
      </g>
     </g>
     <g id="text_4">
      <!-- 600 -->
      <g transform="translate(181.11141 332.638438)scale(0.1 -0.1)">
       <defs>
        <path id="DejaVuSans-36" d="M 2113 2584 
Q 1688 2584 1439 2293 
Q 1191 2003 1191 1497 
Q 1191 994 1439 701 
Q 1688 409 2113 409 
Q 2538 409 2786 701 
Q 3034 994 3034 1497 
Q 3034 2003 2786 2293 
Q 2538 2584 2113 2584 
z
M 3366 4563 
L 3366 3988 
Q 3128 4100 2886 4159 
Q 2644 4219 2406 4219 
Q 1781 4219 1451 3797 
Q 1122 3375 1075 2522 
Q 1259 2794 1537 2939 
Q 1816 3084 2150 3084 
Q 2853 3084 3261 2657 
Q 3669 2231 3669 1497 
Q 3669 778 3244 343 
Q 2819 -91 2113 -91 
Q 1303 -91 875 529 
Q 447 1150 447 2328 
Q 447 3434 972 4092 
Q 1497 4750 2381 4750 
Q 2619 4750 2861 4703 
Q 3103 4656 3366 4563 
z
" transform="scale(0.015625)"/>
       </defs>
       <use xlink:href="#DejaVuSans-36"/>
       <use xlink:href="#DejaVuSans-30" x="63.623047"/>
       <use xlink:href="#DejaVuSans-30" x="127.246094"/>
      </g>
     </g>
    </g>
    <g id="xtick_5">
     <g id="line2d_5">
      <g>
       <use xlink:href="#m5e23c00056" x="228.591742" y="318.04" style="stroke: #000000; stroke-width: 0.8"/>
      </g>
     </g>
     <g id="text_5">
      <!-- 800 -->
      <g transform="translate(219.047992 332.638438)scale(0.1 -0.1)">
       <defs>
        <path id="DejaVuSans-38" d="M 2034 2216 
Q 1584 2216 1326 1975 
Q 1069 1734 1069 1313 
Q 1069 891 1326 650 
Q 1584 409 2034 409 
Q 2484 409 2743 651 
Q 3003 894 3003 1313 
Q 3003 1734 2745 1975 
Q 2488 2216 2034 2216 
z
M 1403 2484 
Q 997 2584 770 2862 
Q 544 3141 544 3541 
Q 544 4100 942 4425 
Q 1341 4750 2034 4750 
Q 2731 4750 3128 4425 
Q 3525 4100 3525 3541 
Q 3525 3141 3298 2862 
Q 3072 2584 2669 2484 
Q 3125 2378 3379 2068 
Q 3634 1759 3634 1313 
Q 3634 634 3220 271 
Q 2806 -91 2034 -91 
Q 1263 -91 848 271 
Q 434 634 434 1313 
Q 434 1759 690 2068 
Q 947 2378 1403 2484 
z
M 1172 3481 
Q 1172 3119 1398 2916 
Q 1625 2713 2034 2713 
Q 2441 2713 2670 2916 
Q 2900 3119 2900 3481 
Q 2900 3844 2670 4047 
Q 2441 4250 2034 4250 
Q 1625 4250 1398 4047 
Q 1172 3844 1172 3481 
z
" transform="scale(0.015625)"/>
       </defs>
       <use xlink:href="#DejaVuSans-38"/>
       <use xlink:href="#DejaVuSans-30" x="63.623047"/>
       <use xlink:href="#DejaVuSans-30" x="127.246094"/>
      </g>
     </g>
    </g>
    <g id="xtick_6">
     <g id="line2d_6">
      <g>
       <use xlink:href="#m5e23c00056" x="266.528324" y="318.04" style="stroke: #000000; stroke-width: 0.8"/>
      </g>
     </g>
     <g id="text_6">
      <!-- 1000 -->
      <g transform="translate(253.803324 332.638438)scale(0.1 -0.1)">
       <defs>
        <path id="DejaVuSans-31" d="M 794 531 
L 1825 531 
L 1825 4091 
L 703 3866 
L 703 4441 
L 1819 4666 
L 2450 4666 
L 2450 531 
L 3481 531 
L 3481 0 
L 794 0 
L 794 531 
z
" transform="scale(0.015625)"/>
       </defs>
       <use xlink:href="#DejaVuSans-31"/>
       <use xlink:href="#DejaVuSans-30" x="63.623047"/>
       <use xlink:href="#DejaVuSans-30" x="127.246094"/>
       <use xlink:href="#DejaVuSans-30" x="190.869141"/>
      </g>
     </g>
    </g>
    <g id="xtick_7">
     <g id="line2d_7">
      <g>
       <use xlink:href="#m5e23c00056" x="304.464906" y="318.04" style="stroke: #000000; stroke-width: 0.8"/>
      </g>
     </g>
     <g id="text_7">
      <!-- 1200 -->
      <g transform="translate(291.739906 332.638438)scale(0.1 -0.1)">
       <use xlink:href="#DejaVuSans-31"/>
       <use xlink:href="#DejaVuSans-32" x="63.623047"/>
       <use xlink:href="#DejaVuSans-30" x="127.246094"/>
       <use xlink:href="#DejaVuSans-30" x="190.869141"/>
      </g>
     </g>
    </g>
    <g id="xtick_8">
     <g id="line2d_8">
      <g>
       <use xlink:href="#m5e23c00056" x="342.401488" y="318.04" style="stroke: #000000; stroke-width: 0.8"/>
      </g>
     </g>
     <g id="text_8">
      <!-- 1400 -->
      <g transform="translate(329.676488 332.638438)scale(0.1 -0.1)">
       <use xlink:href="#DejaVuSans-31"/>
       <use xlink:href="#DejaVuSans-34" x="63.623047"/>
       <use xlink:href="#DejaVuSans-30" x="127.246094"/>
       <use xlink:href="#DejaVuSans-30" x="190.869141"/>
      </g>
     </g>
    </g>
    <g id="text_9">
     <!-- t/ms -->
     <g transform="translate(198.502971 346.316563)scale(0.1 -0.1)">
      <defs>
       <path id="DejaVuSans-74" d="M 1172 4494 
L 1172 3500 
L 2356 3500 
L 2356 3053 
L 1172 3053 
L 1172 1153 
Q 1172 725 1289 603 
Q 1406 481 1766 481 
L 2356 481 
L 2356 0 
L 1766 0 
Q 1100 0 847 248 
Q 594 497 594 1153 
L 594 3053 
L 172 3053 
L 172 3500 
L 594 3500 
L 594 4494 
L 1172 4494 
z
" transform="scale(0.015625)"/>
       <path id="DejaVuSans-2f" d="M 1625 4666 
L 2156 4666 
L 531 -594 
L 0 -594 
L 1625 4666 
z
" transform="scale(0.015625)"/>
       <path id="DejaVuSans-6d" d="M 3328 2828 
Q 3544 3216 3844 3400 
Q 4144 3584 4550 3584 
Q 5097 3584 5394 3201 
Q 5691 2819 5691 2113 
L 5691 0 
L 5113 0 
L 5113 2094 
Q 5113 2597 4934 2840 
Q 4756 3084 4391 3084 
Q 3944 3084 3684 2787 
Q 3425 2491 3425 1978 
L 3425 0 
L 2847 0 
L 2847 2094 
Q 2847 2600 2669 2842 
Q 2491 3084 2119 3084 
Q 1678 3084 1418 2786 
Q 1159 2488 1159 1978 
L 1159 0 
L 581 0 
L 581 3500 
L 1159 3500 
L 1159 2956 
Q 1356 3278 1631 3431 
Q 1906 3584 2284 3584 
Q 2666 3584 2933 3390 
Q 3200 3197 3328 2828 
z
" transform="scale(0.015625)"/>
       <path id="DejaVuSans-73" d="M 2834 3397 
L 2834 2853 
Q 2591 2978 2328 3040 
Q 2066 3103 1784 3103 
Q 1356 3103 1142 2972 
Q 928 2841 928 2578 
Q 928 2378 1081 2264 
Q 1234 2150 1697 2047 
L 1894 2003 
Q 2506 1872 2764 1633 
Q 3022 1394 3022 966 
Q 3022 478 2636 193 
Q 2250 -91 1575 -91 
Q 1294 -91 989 -36 
Q 684 19 347 128 
L 347 722 
Q 666 556 975 473 
Q 1284 391 1588 391 
Q 1994 391 2212 530 
Q 2431 669 2431 922 
Q 2431 1156 2273 1281 
Q 2116 1406 1581 1522 
L 1381 1569 
Q 847 1681 609 1914 
Q 372 2147 372 2553 
Q 372 3047 722 3315 
Q 1072 3584 1716 3584 
Q 2034 3584 2315 3537 
Q 2597 3491 2834 3397 
z
" transform="scale(0.015625)"/>
      </defs>
      <use xlink:href="#DejaVuSans-74"/>
      <use xlink:href="#DejaVuSans-2f" x="39.208984"/>
      <use xlink:href="#DejaVuSans-6d" x="72.900391"/>
      <use xlink:href="#DejaVuSans-73" x="170.3125"/>
     </g>
    </g>
   </g>
   <g id="matplotlib.axis_2">
    <g id="ytick_1">
     <g id="line2d_9">
      <defs>
       <path id="m58c187cf34" d="M 0 0 
L -3.5 0 
" style="stroke: #000000; stroke-width: 0.8"/>
      </defs>
      <g>
       <use xlink:href="#m58c187cf34" x="63.567705" y="289.036178" style="stroke: #000000; stroke-width: 0.8"/>
      </g>
     </g>
     <g id="text_10">
      <!-- −80 -->
      <g transform="translate(35.463017 292.835396)scale(0.1 -0.1)">
       <defs>
        <path id="DejaVuSans-2212" d="M 678 2272 
L 4684 2272 
L 4684 1741 
L 678 1741 
L 678 2272 
z
" transform="scale(0.015625)"/>
       </defs>
       <use xlink:href="#DejaVuSans-2212"/>
       <use xlink:href="#DejaVuSans-38" x="83.789062"/>
       <use xlink:href="#DejaVuSans-30" x="147.412109"/>
      </g>
     </g>
    </g>
    <g id="ytick_2">
     <g id="line2d_10">
      <g>
       <use xlink:href="#m58c187cf34" x="63.567705" y="231.028533" style="stroke: #000000; stroke-width: 0.8"/>
      </g>
     </g>
     <g id="text_11">
      <!-- −60 -->
      <g transform="translate(35.463017 234.827752)scale(0.1 -0.1)">
       <use xlink:href="#DejaVuSans-2212"/>
       <use xlink:href="#DejaVuSans-36" x="83.789062"/>
       <use xlink:href="#DejaVuSans-30" x="147.412109"/>
      </g>
     </g>
    </g>
    <g id="ytick_3">
     <g id="line2d_11">
      <g>
       <use xlink:href="#m58c187cf34" x="63.567705" y="173.020888" style="stroke: #000000; stroke-width: 0.8"/>
      </g>
     </g>
     <g id="text_12">
      <!-- −40 -->
      <g transform="translate(35.463017 176.820107)scale(0.1 -0.1)">
       <use xlink:href="#DejaVuSans-2212"/>
       <use xlink:href="#DejaVuSans-34" x="83.789062"/>
       <use xlink:href="#DejaVuSans-30" x="147.412109"/>
      </g>
     </g>
    </g>
    <g id="ytick_4">
     <g id="line2d_12">
      <g>
       <use xlink:href="#m58c187cf34" x="63.567705" y="115.013244" style="stroke: #000000; stroke-width: 0.8"/>
      </g>
     </g>
     <g id="text_13">
      <!-- −20 -->
      <g transform="translate(35.463017 118.812462)scale(0.1 -0.1)">
       <use xlink:href="#DejaVuSans-2212"/>
       <use xlink:href="#DejaVuSans-32" x="83.789062"/>
       <use xlink:href="#DejaVuSans-30" x="147.412109"/>
      </g>
     </g>
    </g>
    <g id="ytick_5">
     <g id="line2d_13">
      <g>
       <use xlink:href="#m58c187cf34" x="63.567705" y="57.005599" style="stroke: #000000; stroke-width: 0.8"/>
      </g>
     </g>
     <g id="text_14">
      <!-- 0 -->
      <g transform="translate(50.205205 60.804818)scale(0.1 -0.1)">
       <use xlink:href="#DejaVuSans-30"/>
      </g>
     </g>
    </g>
    <g id="text_15">
     <!-- U/mV -->
     <g transform="translate(29.38333 178.054375)rotate(-90)scale(0.1 -0.1)">
      <defs>
       <path id="DejaVuSans-55" d="M 556 4666 
L 1191 4666 
L 1191 1831 
Q 1191 1081 1462 751 
Q 1734 422 2344 422 
Q 2950 422 3222 751 
Q 3494 1081 3494 1831 
L 3494 4666 
L 4128 4666 
L 4128 1753 
Q 4128 841 3676 375 
Q 3225 -91 2344 -91 
Q 1459 -91 1007 375 
Q 556 841 556 1753 
L 556 4666 
z
" transform="scale(0.015625)"/>
       <path id="DejaVuSans-56" d="M 1831 0 
L 50 4666 
L 709 4666 
L 2188 738 
L 3669 4666 
L 4325 4666 
L 2547 0 
L 1831 0 
z
" transform="scale(0.015625)"/>
      </defs>
      <use xlink:href="#DejaVuSans-55"/>
      <use xlink:href="#DejaVuSans-2f" x="73.193359"/>
      <use xlink:href="#DejaVuSans-6d" x="106.884766"/>
      <use xlink:href="#DejaVuSans-56" x="204.296875"/>
     </g>
    </g>
   </g>
   <g id="line2d_14">
    <path d="M 76.845414 318.04 
L 78.158968 310.994881 
L 79.095053 307.453571 
L 80.032087 304.743206 
L 80.974811 302.671637 
L 81.933658 301.084214 
L 82.924751 299.862664 
L 83.973698 298.917528 
L 85.119382 298.184062 
L 86.422504 297.617327 
L 87.982646 297.188419 
L 89.982852 296.880452 
L 92.829993 296.684713 
L 97.837622 296.596164 
L 114.784841 296.454933 
L 114.973576 291.322035 
L 115.445886 284.539194 
L 116.102189 278.166931 
L 116.853333 272.964547 
L 117.675609 268.77318 
L 118.560479 265.382314 
L 119.511739 262.594661 
L 120.543614 260.245698 
L 121.691196 258.181594 
L 123.044583 256.211826 
L 125.228782 253.492017 
L 126.702618 251.490571 
L 127.53912 249.977242 
L 128.153693 248.399123 
L 128.631694 246.538235 
L 129.007266 244.138512 
L 129.296532 240.750711 
L 129.502338 235.496918 
L 129.615199 226.335275 
L 129.66262 186.198851 
L 129.713835 25.430476 
L 129.79445 142.555012 
L 130.001204 295.696809 
L 130.194681 312.046488 
L 130.276244 312.811679 
L 130.330304 312.562686 
L 130.475411 310.362509 
L 131.590747 290.531759 
L 132.158847 285.534818 
L 132.848345 281.419781 
L 133.738906 277.46034 
L 134.814408 273.675548 
L 135.94966 270.46652 
L 137.090603 267.886729 
L 138.24103 265.819947 
L 139.417064 264.154042 
L 140.63957 262.801654 
L 141.936053 261.696133 
L 143.347294 260.785266 
L 144.93494 260.028486 
L 146.805213 259.389834 
L 149.180992 258.825028 
L 152.760308 258.227013 
L 164.808967 256.341956 
L 169.990155 255.257286 
L 173.752516 254.256128 
L 176.333152 253.352226 
L 178.134191 252.496827 
L 179.435416 251.641336 
L 180.411334 250.738908 
L 181.169118 249.736132 
L 181.776103 248.557683 
L 182.270227 247.096176 
L 182.673303 245.175154 
L 182.994816 242.491 
L 183.23761 238.447051 
L 183.397892 231.69836 
L 183.4529 218.555946 
L 183.503166 118.633249 
L 183.53636 25.594485 
L 183.611285 134.170877 
L 183.821833 295.517294 
L 184.01531 312.18653 
L 184.099719 313.005717 
L 184.15283 312.767675 
L 184.29604 310.636265 
L 185.455003 290.247644 
L 186.039226 285.124741 
L 186.74295 280.892082 
L 187.624975 276.939319 
L 188.659696 273.302381 
L 189.754166 270.241585 
L 190.865708 267.77263 
L 191.993373 265.794483 
L 193.14949 264.205349 
L 194.35208 262.924217 
L 195.627697 261.887541 
L 197.015228 261.046871 
L 198.576318 260.364507 
L 200.417191 259.809308 
L 202.764517 259.345464 
L 206.367544 258.8862 
L 217.324577 257.585073 
L 223.313815 256.598461 
L 228.60502 255.509724 
L 232.550424 254.484212 
L 235.279013 253.558211 
L 237.181533 252.688971 
L 238.551043 251.827676 
L 239.572486 250.92844 
L 240.361566 249.939232 
L 240.990365 248.790014 
L 241.501561 247.378863 
L 241.918863 245.544693 
L 242.253654 243.011166 
L 242.509725 239.247957 
L 242.685182 233.062487 
L 242.754416 222.001738 
L 242.806579 139.457371 
L 242.843567 25.570735 
L 242.918492 133.892382 
L 243.12904 295.44974 
L 243.322517 312.150738 
L 243.406926 312.977171 
L 243.460037 312.742722 
L 243.602299 310.636701 
L 244.772643 290.115375 
L 245.358763 285.006069 
L 246.065332 280.773464 
L 246.949254 276.824647 
L 247.983026 273.202714 
L 249.076548 270.15567 
L 250.187141 267.698567 
L 251.314806 265.728567 
L 252.470923 264.146128 
L 253.674462 262.869527 
L 254.951028 261.836812 
L 256.340455 260.999259 
L 257.902494 260.320583 
L 259.744315 259.769407 
L 262.091641 259.310796 
L 265.694668 258.859481 
L 276.378557 257.61108 
L 282.194235 256.657961 
L 287.369734 255.591992 
L 291.298067 254.568665 
L 294.043727 253.636509 
L 295.965215 252.76063 
L 297.3499 251.894044 
L 298.382723 250.991186 
L 299.18034 250.000066 
L 299.814829 248.852694 
L 300.330767 247.446291 
L 300.751863 245.622687 
L 301.089499 243.113672 
L 301.348416 239.397001 
L 301.526718 233.32175 
L 301.599746 222.540782 
L 301.651908 143.837461 
L 301.689845 25.551048 
L 301.76477 133.911768 
L 301.975318 295.42106 
L 302.168794 312.1239 
L 302.253203 312.953602 
L 302.306314 312.721155 
L 302.448577 310.619798 
L 303.621765 290.074033 
L 304.208834 284.963427 
L 304.464906 283.264558 
L 304.476287 283.857923 
L 304.684938 287.754824 
L 305.095602 291.334437 
L 305.624817 294.114362 
L 306.208092 296.055144 
L 306.827407 297.383482 
L 307.482761 298.285372 
L 308.193124 298.893963 
L 309.004018 299.29505 
L 310.004595 299.533408 
L 311.391177 299.61862 
L 313.849468 299.510989 
L 324.888065 298.880642 
L 342.399591 297.972534 
L 342.399591 297.972534 
" clip-path="url(#p16d20abd98)" style="fill: none; stroke: #1f77b4; stroke-width: 1.5; stroke-linecap: square"/>
   </g>
   <g id="line2d_15">
    <path d="M 76.845414 318.04 
L 78.129567 311.120323 
L 79.068498 307.53682 
L 80.005531 304.806352 
L 80.94541 302.726371 
L 81.903309 301.12624 
L 82.893453 299.894334 
L 83.9424 298.939257 
L 85.084291 298.20079 
L 86.381722 297.629852 
L 87.933328 297.19717 
L 89.917412 296.885968 
L 92.729461 296.687273 
L 97.630867 296.595734 
L 114.784841 296.395112 
L 114.978318 291.203467 
L 115.454422 284.41372 
L 116.11357 278.051521 
L 116.866611 272.864141 
L 117.689835 268.687908 
L 118.576602 265.303718 
L 119.530708 262.517475 
L 120.567325 260.163882 
L 121.723442 258.086626 
L 123.10054 256.078104 
L 127.169238 250.453376 
L 127.835974 248.899045 
L 128.348118 247.12516 
L 128.750245 244.894962 
L 129.062274 241.83325 
L 129.29179 237.192003 
L 129.434052 229.344844 
L 129.481473 211.452296 
L 129.529842 62.40857 
L 129.551656 26.237584 
L 129.622787 127.570411 
L 129.835232 295.225653 
L 130.02776 312.016349 
L 130.11122 312.827721 
L 130.164331 312.585218 
L 130.30849 310.406364 
L 131.431413 290.447561 
L 131.999514 285.475527 
L 132.689959 281.373352 
L 133.582418 277.419789 
L 134.660765 273.635725 
L 135.797914 270.429219 
L 136.940753 267.850985 
L 138.093077 265.785212 
L 139.271008 264.119877 
L 140.495411 262.767619 
L 141.794739 261.661056 
L 143.209774 260.748455 
L 144.802162 259.989507 
L 146.678126 259.34831 
L 149.061491 258.780169 
L 152.657879 258.176006 
L 164.387871 256.325107 
L 169.4249 255.258566 
L 173.096213 254.267281 
L 175.631325 253.365198 
L 177.408654 252.507569 
L 178.695652 251.648214 
L 179.663035 250.739984 
L 180.415128 249.729396 
L 181.017371 248.541657 
L 181.50865 247.063805 
L 181.908881 245.119266 
L 182.227548 242.397999 
L 182.468446 238.263907 
L 182.625882 231.316159 
L 182.678994 217.67099 
L 182.727363 115.815134 
L 182.760557 26.426476 
L 182.834534 133.348847 
L 183.045082 295.666113 
L 183.23761 312.230284 
L 183.320122 313.030796 
L 183.374181 312.789799 
L 183.51834 310.630215 
L 184.668767 290.306565 
L 185.251094 285.167445 
L 185.951972 280.931651 
L 186.831152 276.977711 
L 187.863976 273.336091 
L 188.958446 270.265405 
L 190.070937 267.786003 
L 191.19955 265.799161 
L 192.355667 264.203774 
L 193.558257 262.916796 
L 194.833874 261.87456 
L 196.220456 261.029033 
L 197.77965 260.342066 
L 199.614832 259.783045 
L 201.947932 259.316305 
L 205.497848 258.858161 
L 216.696727 257.519927 
L 222.558877 256.540586 
L 227.670831 255.469714 
L 231.475871 254.458497 
L 234.120999 253.538207 
L 235.975149 252.668682 
L 237.314311 251.803907 
L 238.316785 250.897547 
L 239.093536 249.896755 
L 239.713799 248.729624 
L 240.218356 247.291269 
L 240.629968 245.414101 
L 240.959068 242.811939 
L 241.210398 238.903884 
L 241.379215 232.461561 
L 241.442759 220.779569 
L 241.492077 137.656386 
L 241.529065 26.395433 
L 241.603041 132.731556 
L 241.813589 295.556378 
L 242.006117 312.189935 
L 242.089578 313.002085 
L 242.143637 312.758522 
L 242.288745 310.579181 
L 243.433481 290.330724 
L 244.015808 285.16551 
L 244.715738 280.916277 
L 245.592073 276.960994 
L 246.622051 273.319768 
L 247.714624 270.248012 
L 248.825218 267.768014 
L 249.952883 265.778766 
L 251.109 264.17996 
L 252.31159 262.890128 
L 253.586259 261.846187 
L 254.971893 260.999132 
L 256.527293 260.312158 
L 258.355836 259.754117 
L 260.673761 259.29065 
L 264.172462 258.842468 
L 275.396 257.518233 
L 281.080797 256.566117 
L 286.059025 255.515172 
L 289.810004 254.508709 
L 292.441855 253.584815 
L 294.29316 252.710296 
L 295.634218 251.839517 
L 296.638589 250.927688 
L 297.417237 249.921354 
L 298.038449 248.749834 
L 298.543954 247.306611 
L 298.956514 245.422789 
L 299.286563 242.808525 
L 299.537892 238.8915 
L 299.70671 232.435467 
L 299.771202 220.372578 
L 299.82052 133.148534 
L 299.85656 26.375876 
L 299.930536 132.671118 
L 300.141084 295.517764 
L 300.333612 312.161913 
L 300.417073 312.978365 
L 300.471132 312.737253 
L 300.615291 310.581706 
L 301.768563 290.237378 
L 302.351838 285.08853 
L 303.053665 280.841777 
L 303.931897 276.887635 
L 304.463958 274.905547 
L 304.4687 275.211441 
L 304.662176 279.665608 
L 305.088963 284.464815 
L 305.654218 288.452717 
L 306.287759 291.413553 
L 306.970617 293.590661 
L 307.696154 295.191704 
L 308.468164 296.374368 
L 309.300872 297.251992 
L 310.226524 297.906359 
L 311.302026 298.390701 
L 312.626962 298.735043 
L 314.387219 298.949684 
L 317.017173 299.026221 
L 321.899611 298.910821 
L 333.024513 298.390542 
L 342.399591 297.873031 
L 342.399591 297.873031 
" clip-path="url(#p16d20abd98)" style="fill: none; stroke: #ff7f0e; stroke-width: 1.5; stroke-linecap: square"/>
   </g>
   <g id="line2d_16"/>
   <g id="line2d_17"/>
   <g id="patch_4">
    <path d="M 63.567705 318.04 
L 63.567705 10.8 
" style="fill: none; stroke: #000000; stroke-width: 0.8; stroke-linejoin: miter; stroke-linecap: square"/>
   </g>
   <g id="patch_5">
    <path d="M 63.567705 318.04 
L 355.6773 318.04 
" style="fill: none; stroke: #000000; stroke-width: 0.8; stroke-linejoin: miter; stroke-linecap: square"/>
   </g>
   <g id="PathCollection_1">
    <defs>
     <path id="md0ed759599" d="M 0 3 
C 0.795609 3 1.55874 2.683901 2.12132 2.12132 
C 2.683901 1.55874 3 0.795609 3 0 
C 3 -0.795609 2.683901 -1.55874 2.12132 -2.12132 
C 1.55874 -2.683901 0.795609 -3 0 -3 
C -0.795609 -3 -1.55874 -2.683901 -2.12132 -2.12132 
C -2.683901 -1.55874 -3 -0.795609 -3 0 
C -3 0.795609 -2.683901 1.55874 -2.12132 2.12132 
C -1.55874 2.683901 -0.795609 3 0 3 
z
" style="stroke: #2ca02c"/>
    </defs>
    <g clip-path="url(#p16d20abd98)">
     <use xlink:href="#md0ed759599" x="129.668161" y="173.020888" style="fill: #2ca02c; stroke: #2ca02c"/>
     <use xlink:href="#md0ed759599" x="183.490096" y="173.020888" style="fill: #2ca02c; stroke: #2ca02c"/>
     <use xlink:href="#md0ed759599" x="242.797484" y="173.020888" style="fill: #2ca02c; stroke: #2ca02c"/>
     <use xlink:href="#md0ed759599" x="301.643756" y="173.020888" style="fill: #2ca02c; stroke: #2ca02c"/>
    </g>
   </g>
  </g>
  <g id="legend_1">
   <g id="text_16">
    <!-- Simulator -->
    <g transform="translate(366.9825 168.08125)scale(0.1 -0.1)">
     <defs>
      <path id="DejaVuSans-53" d="M 3425 4513 
L 3425 3897 
Q 3066 4069 2747 4153 
Q 2428 4238 2131 4238 
Q 1616 4238 1336 4038 
Q 1056 3838 1056 3469 
Q 1056 3159 1242 3001 
Q 1428 2844 1947 2747 
L 2328 2669 
Q 3034 2534 3370 2195 
Q 3706 1856 3706 1288 
Q 3706 609 3251 259 
Q 2797 -91 1919 -91 
Q 1588 -91 1214 -16 
Q 841 59 441 206 
L 441 856 
Q 825 641 1194 531 
Q 1563 422 1919 422 
Q 2459 422 2753 634 
Q 3047 847 3047 1241 
Q 3047 1584 2836 1778 
Q 2625 1972 2144 2069 
L 1759 2144 
Q 1053 2284 737 2584 
Q 422 2884 422 3419 
Q 422 4038 858 4394 
Q 1294 4750 2059 4750 
Q 2388 4750 2728 4690 
Q 3069 4631 3425 4513 
z
" transform="scale(0.015625)"/>
      <path id="DejaVuSans-69" d="M 603 3500 
L 1178 3500 
L 1178 0 
L 603 0 
L 603 3500 
z
M 603 4863 
L 1178 4863 
L 1178 4134 
L 603 4134 
L 603 4863 
z
" transform="scale(0.015625)"/>
      <path id="DejaVuSans-75" d="M 544 1381 
L 544 3500 
L 1119 3500 
L 1119 1403 
Q 1119 906 1312 657 
Q 1506 409 1894 409 
Q 2359 409 2629 706 
Q 2900 1003 2900 1516 
L 2900 3500 
L 3475 3500 
L 3475 0 
L 2900 0 
L 2900 538 
Q 2691 219 2414 64 
Q 2138 -91 1772 -91 
Q 1169 -91 856 284 
Q 544 659 544 1381 
z
M 1991 3584 
L 1991 3584 
z
" transform="scale(0.015625)"/>
      <path id="DejaVuSans-6c" d="M 603 4863 
L 1178 4863 
L 1178 0 
L 603 0 
L 603 4863 
z
" transform="scale(0.015625)"/>
      <path id="DejaVuSans-61" d="M 2194 1759 
Q 1497 1759 1228 1600 
Q 959 1441 959 1056 
Q 959 750 1161 570 
Q 1363 391 1709 391 
Q 2188 391 2477 730 
Q 2766 1069 2766 1631 
L 2766 1759 
L 2194 1759 
z
M 3341 1997 
L 3341 0 
L 2766 0 
L 2766 531 
Q 2569 213 2275 61 
Q 1981 -91 1556 -91 
Q 1019 -91 701 211 
Q 384 513 384 1019 
Q 384 1609 779 1909 
Q 1175 2209 1959 2209 
L 2766 2209 
L 2766 2266 
Q 2766 2663 2505 2880 
Q 2244 3097 1772 3097 
Q 1472 3097 1187 3025 
Q 903 2953 641 2809 
L 641 3341 
Q 956 3463 1253 3523 
Q 1550 3584 1831 3584 
Q 2591 3584 2966 3190 
Q 3341 2797 3341 1997 
z
" transform="scale(0.015625)"/>
      <path id="DejaVuSans-6f" d="M 1959 3097 
Q 1497 3097 1228 2736 
Q 959 2375 959 1747 
Q 959 1119 1226 758 
Q 1494 397 1959 397 
Q 2419 397 2687 759 
Q 2956 1122 2956 1747 
Q 2956 2369 2687 2733 
Q 2419 3097 1959 3097 
z
M 1959 3584 
Q 2709 3584 3137 3096 
Q 3566 2609 3566 1747 
Q 3566 888 3137 398 
Q 2709 -91 1959 -91 
Q 1206 -91 779 398 
Q 353 888 353 1747 
Q 353 2609 779 3096 
Q 1206 3584 1959 3584 
z
" transform="scale(0.015625)"/>
      <path id="DejaVuSans-72" d="M 2631 2963 
Q 2534 3019 2420 3045 
Q 2306 3072 2169 3072 
Q 1681 3072 1420 2755 
Q 1159 2438 1159 1844 
L 1159 0 
L 581 0 
L 581 3500 
L 1159 3500 
L 1159 2956 
Q 1341 3275 1631 3429 
Q 1922 3584 2338 3584 
Q 2397 3584 2469 3576 
Q 2541 3569 2628 3553 
L 2631 2963 
z
" transform="scale(0.015625)"/>
     </defs>
     <use xlink:href="#DejaVuSans-53"/>
     <use xlink:href="#DejaVuSans-69" x="63.476562"/>
     <use xlink:href="#DejaVuSans-6d" x="91.259766"/>
     <use xlink:href="#DejaVuSans-75" x="188.671875"/>
     <use xlink:href="#DejaVuSans-6c" x="252.050781"/>
     <use xlink:href="#DejaVuSans-61" x="279.833984"/>
     <use xlink:href="#DejaVuSans-74" x="341.113281"/>
     <use xlink:href="#DejaVuSans-6f" x="380.322266"/>
     <use xlink:href="#DejaVuSans-72" x="441.503906"/>
    </g>
   </g>
   <g id="line2d_18">
    <path d="M 358.955938 179.259375 
L 368.955938 179.259375 
L 378.955938 179.259375 
" style="fill: none; stroke: #1f77b4; stroke-width: 1.5; stroke-linecap: square"/>
   </g>
   <g id="text_17">
    <!-- Arbor -->
    <g transform="translate(386.955938 182.759375)scale(0.1 -0.1)">
     <defs>
      <path id="DejaVuSans-41" d="M 2188 4044 
L 1331 1722 
L 3047 1722 
L 2188 4044 
z
M 1831 4666 
L 2547 4666 
L 4325 0 
L 3669 0 
L 3244 1197 
L 1141 1197 
L 716 0 
L 50 0 
L 1831 4666 
z
" transform="scale(0.015625)"/>
      <path id="DejaVuSans-62" d="M 3116 1747 
Q 3116 2381 2855 2742 
Q 2594 3103 2138 3103 
Q 1681 3103 1420 2742 
Q 1159 2381 1159 1747 
Q 1159 1113 1420 752 
Q 1681 391 2138 391 
Q 2594 391 2855 752 
Q 3116 1113 3116 1747 
z
M 1159 2969 
Q 1341 3281 1617 3432 
Q 1894 3584 2278 3584 
Q 2916 3584 3314 3078 
Q 3713 2572 3713 1747 
Q 3713 922 3314 415 
Q 2916 -91 2278 -91 
Q 1894 -91 1617 61 
Q 1341 213 1159 525 
L 1159 0 
L 581 0 
L 581 4863 
L 1159 4863 
L 1159 2969 
z
" transform="scale(0.015625)"/>
     </defs>
     <use xlink:href="#DejaVuSans-41"/>
     <use xlink:href="#DejaVuSans-72" x="68.408203"/>
     <use xlink:href="#DejaVuSans-62" x="109.521484"/>
     <use xlink:href="#DejaVuSans-6f" x="172.998047"/>
     <use xlink:href="#DejaVuSans-72" x="234.179688"/>
    </g>
   </g>
   <g id="line2d_19">
    <path d="M 358.955938 193.9375 
L 368.955938 193.9375 
L 378.955938 193.9375 
" style="fill: none; stroke: #ff7f0e; stroke-width: 1.5; stroke-linecap: square"/>
   </g>
   <g id="text_18">
    <!-- Neuron -->
    <g transform="translate(386.955938 197.4375)scale(0.1 -0.1)">
     <defs>
      <path id="DejaVuSans-4e" d="M 628 4666 
L 1478 4666 
L 3547 763 
L 3547 4666 
L 4159 4666 
L 4159 0 
L 3309 0 
L 1241 3903 
L 1241 0 
L 628 0 
L 628 4666 
z
" transform="scale(0.015625)"/>
      <path id="DejaVuSans-65" d="M 3597 1894 
L 3597 1613 
L 953 1613 
Q 991 1019 1311 708 
Q 1631 397 2203 397 
Q 2534 397 2845 478 
Q 3156 559 3463 722 
L 3463 178 
Q 3153 47 2828 -22 
Q 2503 -91 2169 -91 
Q 1331 -91 842 396 
Q 353 884 353 1716 
Q 353 2575 817 3079 
Q 1281 3584 2069 3584 
Q 2775 3584 3186 3129 
Q 3597 2675 3597 1894 
z
M 3022 2063 
Q 3016 2534 2758 2815 
Q 2500 3097 2075 3097 
Q 1594 3097 1305 2825 
Q 1016 2553 972 2059 
L 3022 2063 
z
" transform="scale(0.015625)"/>
      <path id="DejaVuSans-6e" d="M 3513 2113 
L 3513 0 
L 2938 0 
L 2938 2094 
Q 2938 2591 2744 2837 
Q 2550 3084 2163 3084 
Q 1697 3084 1428 2787 
Q 1159 2491 1159 1978 
L 1159 0 
L 581 0 
L 581 3500 
L 1159 3500 
L 1159 2956 
Q 1366 3272 1645 3428 
Q 1925 3584 2291 3584 
Q 2894 3584 3203 3211 
Q 3513 2838 3513 2113 
z
" transform="scale(0.015625)"/>
     </defs>
     <use xlink:href="#DejaVuSans-4e"/>
     <use xlink:href="#DejaVuSans-65" x="74.804688"/>
     <use xlink:href="#DejaVuSans-75" x="136.328125"/>
     <use xlink:href="#DejaVuSans-72" x="199.707031"/>
     <use xlink:href="#DejaVuSans-6f" x="238.570312"/>
     <use xlink:href="#DejaVuSans-6e" x="299.751953"/>
    </g>
   </g>
  </g>
 </g>
 <defs>
  <clipPath id="p16d20abd98">
   <rect x="63.567705" y="10.8" width="292.109595" height="307.24"/>
  </clipPath>
 </defs>
</svg>
