<?xml version="1.0" encoding="utf-8" standalone="no"?>
<!DOCTYPE svg PUBLIC "-//W3C//DTD SVG 1.1//EN"
  "http://www.w3.org/Graphics/SVG/1.1/DTD/svg11.dtd">
<svg height="351.99625pt" version="1.1" viewBox="0 0 399.772677 351.99625" width="399.772677pt" xmlns="http://www.w3.org/2000/svg" xmlns:xlink="http://www.w3.org/1999/xlink">
 <metadata>
  <rdf:RDF xmlns:cc="http://creativecommons.org/ns#" xmlns:dc="http://purl.org/dc/elements/1.1/" xmlns:rdf="http://www.w3.org/1999/02/22-rdf-syntax-ns#">
   <cc:Work>
    <dc:type rdf:resource="http://purl.org/dc/dcmitype/StillImage"/>
    <dc:date>2021-10-08T15:24:21.364286</dc:date>
    <dc:format>image/svg+xml</dc:format>
    <dc:creator>
     <cc:Agent>
      <dc:title>Matplotlib v3.4.2, https://matplotlib.org/</dc:title>
     </cc:Agent>
    </dc:creator>
   </cc:Work>
  </rdf:RDF>
 </metadata>
 <defs>
  <style type="text/css">*{stroke-linecap:butt;stroke-linejoin:round;}</style>
 </defs>
 <g id="figure_1">
  <g id="patch_1">
   <path d="M 0 351.99625 
L 399.772677 351.99625 
L 399.772677 0 
L 0 0 
z
" style="fill:#ffffff;"/>
  </g>
  <g id="axes_1">
   <g id="patch_2">
    <path d="M 48.982813 314.44 
L 344.795777 314.44 
L 344.795777 7.2 
L 48.982813 7.2 
z
" style="fill:#ffffff;"/>
   </g>
   <g id="matplotlib.axis_1">
    <g id="xtick_1">
     <g id="line2d_1">
      <defs>
       <path d="M 0 0 
L 0 3.5 
" id="m95296ea6ae" style="stroke:#000000;stroke-width:0.8;"/>
      </defs>
      <g>
       <use style="stroke:#000000;stroke-width:0.8;" x="48.982813" xlink:href="#m95296ea6ae" y="314.44"/>
      </g>
     </g>
     <g id="text_1">
      <!-- 9 -->
      <g transform="translate(45.801563 329.038437)scale(0.1 -0.1)">
       <defs>
        <path d="M 703 97 
L 703 672 
Q 941 559 1184 500 
Q 1428 441 1663 441 
Q 2288 441 2617 861 
Q 2947 1281 2994 2138 
Q 2813 1869 2534 1725 
Q 2256 1581 1919 1581 
Q 1219 1581 811 2004 
Q 403 2428 403 3163 
Q 403 3881 828 4315 
Q 1253 4750 1959 4750 
Q 2769 4750 3195 4129 
Q 3622 3509 3622 2328 
Q 3622 1225 3098 567 
Q 2575 -91 1691 -91 
Q 1453 -91 1209 -44 
Q 966 3 703 97 
z
M 1959 2075 
Q 2384 2075 2632 2365 
Q 2881 2656 2881 3163 
Q 2881 3666 2632 3958 
Q 2384 4250 1959 4250 
Q 1534 4250 1286 3958 
Q 1038 3666 1038 3163 
Q 1038 2656 1286 2365 
Q 1534 2075 1959 2075 
z
" id="DejaVuSans-39" transform="scale(0.015625)"/>
       </defs>
       <use xlink:href="#DejaVuSans-39"/>
      </g>
     </g>
    </g>
    <g id="xtick_2">
     <g id="line2d_2">
      <g>
       <use style="stroke:#000000;stroke-width:0.8;" x="108.145406" xlink:href="#m95296ea6ae" y="314.44"/>
      </g>
     </g>
     <g id="text_2">
      <!-- 10 -->
      <g transform="translate(101.782906 329.038437)scale(0.1 -0.1)">
       <defs>
        <path d="M 794 531 
L 1825 531 
L 1825 4091 
L 703 3866 
L 703 4441 
L 1819 4666 
L 2450 4666 
L 2450 531 
L 3481 531 
L 3481 0 
L 794 0 
L 794 531 
z
" id="DejaVuSans-31" transform="scale(0.015625)"/>
        <path d="M 2034 4250 
Q 1547 4250 1301 3770 
Q 1056 3291 1056 2328 
Q 1056 1369 1301 889 
Q 1547 409 2034 409 
Q 2525 409 2770 889 
Q 3016 1369 3016 2328 
Q 3016 3291 2770 3770 
Q 2525 4250 2034 4250 
z
M 2034 4750 
Q 2819 4750 3233 4129 
Q 3647 3509 3647 2328 
Q 3647 1150 3233 529 
Q 2819 -91 2034 -91 
Q 1250 -91 836 529 
Q 422 1150 422 2328 
Q 422 3509 836 4129 
Q 1250 4750 2034 4750 
z
" id="DejaVuSans-30" transform="scale(0.015625)"/>
       </defs>
       <use xlink:href="#DejaVuSans-31"/>
       <use x="63.623047" xlink:href="#DejaVuSans-30"/>
      </g>
     </g>
    </g>
    <g id="xtick_3">
     <g id="line2d_3">
      <g>
       <use style="stroke:#000000;stroke-width:0.8;" x="167.307999" xlink:href="#m95296ea6ae" y="314.44"/>
      </g>
     </g>
     <g id="text_3">
      <!-- 11 -->
      <g transform="translate(160.945499 329.038437)scale(0.1 -0.1)">
       <use xlink:href="#DejaVuSans-31"/>
       <use x="63.623047" xlink:href="#DejaVuSans-31"/>
      </g>
     </g>
    </g>
    <g id="xtick_4">
     <g id="line2d_4">
      <g>
       <use style="stroke:#000000;stroke-width:0.8;" x="226.470592" xlink:href="#m95296ea6ae" y="314.44"/>
      </g>
     </g>
     <g id="text_4">
      <!-- 12 -->
      <g transform="translate(220.108092 329.038437)scale(0.1 -0.1)">
       <defs>
        <path d="M 1228 531 
L 3431 531 
L 3431 0 
L 469 0 
L 469 531 
Q 828 903 1448 1529 
Q 2069 2156 2228 2338 
Q 2531 2678 2651 2914 
Q 2772 3150 2772 3378 
Q 2772 3750 2511 3984 
Q 2250 4219 1831 4219 
Q 1534 4219 1204 4116 
Q 875 4013 500 3803 
L 500 4441 
Q 881 4594 1212 4672 
Q 1544 4750 1819 4750 
Q 2544 4750 2975 4387 
Q 3406 4025 3406 3419 
Q 3406 3131 3298 2873 
Q 3191 2616 2906 2266 
Q 2828 2175 2409 1742 
Q 1991 1309 1228 531 
z
" id="DejaVuSans-32" transform="scale(0.015625)"/>
       </defs>
       <use xlink:href="#DejaVuSans-31"/>
       <use x="63.623047" xlink:href="#DejaVuSans-32"/>
      </g>
     </g>
    </g>
    <g id="xtick_5">
     <g id="line2d_5">
      <g>
       <use style="stroke:#000000;stroke-width:0.8;" x="285.633185" xlink:href="#m95296ea6ae" y="314.44"/>
      </g>
     </g>
     <g id="text_5">
      <!-- 13 -->
      <g transform="translate(279.270685 329.038437)scale(0.1 -0.1)">
       <defs>
        <path d="M 2597 2516 
Q 3050 2419 3304 2112 
Q 3559 1806 3559 1356 
Q 3559 666 3084 287 
Q 2609 -91 1734 -91 
Q 1441 -91 1130 -33 
Q 819 25 488 141 
L 488 750 
Q 750 597 1062 519 
Q 1375 441 1716 441 
Q 2309 441 2620 675 
Q 2931 909 2931 1356 
Q 2931 1769 2642 2001 
Q 2353 2234 1838 2234 
L 1294 2234 
L 1294 2753 
L 1863 2753 
Q 2328 2753 2575 2939 
Q 2822 3125 2822 3475 
Q 2822 3834 2567 4026 
Q 2313 4219 1838 4219 
Q 1578 4219 1281 4162 
Q 984 4106 628 3988 
L 628 4550 
Q 988 4650 1302 4700 
Q 1616 4750 1894 4750 
Q 2613 4750 3031 4423 
Q 3450 4097 3450 3541 
Q 3450 3153 3228 2886 
Q 3006 2619 2597 2516 
z
" id="DejaVuSans-33" transform="scale(0.015625)"/>
       </defs>
       <use xlink:href="#DejaVuSans-31"/>
       <use x="63.623047" xlink:href="#DejaVuSans-33"/>
      </g>
     </g>
    </g>
    <g id="xtick_6">
     <g id="line2d_6">
      <g>
       <use style="stroke:#000000;stroke-width:0.8;" x="344.795777" xlink:href="#m95296ea6ae" y="314.44"/>
      </g>
     </g>
     <g id="text_6">
      <!-- 14 -->
      <g transform="translate(338.433277 329.038437)scale(0.1 -0.1)">
       <defs>
        <path d="M 2419 4116 
L 825 1625 
L 2419 1625 
L 2419 4116 
z
M 2253 4666 
L 3047 4666 
L 3047 1625 
L 3713 1625 
L 3713 1100 
L 3047 1100 
L 3047 0 
L 2419 0 
L 2419 1100 
L 313 1100 
L 313 1709 
L 2253 4666 
z
" id="DejaVuSans-34" transform="scale(0.015625)"/>
       </defs>
       <use xlink:href="#DejaVuSans-31"/>
       <use x="63.623047" xlink:href="#DejaVuSans-34"/>
      </g>
     </g>
    </g>
    <g id="text_7">
     <!-- t/ms -->
     <g transform="translate(185.769764 342.716562)scale(0.1 -0.1)">
      <defs>
       <path d="M 1172 4494 
L 1172 3500 
L 2356 3500 
L 2356 3053 
L 1172 3053 
L 1172 1153 
Q 1172 725 1289 603 
Q 1406 481 1766 481 
L 2356 481 
L 2356 0 
L 1766 0 
Q 1100 0 847 248 
Q 594 497 594 1153 
L 594 3053 
L 172 3053 
L 172 3500 
L 594 3500 
L 594 4494 
L 1172 4494 
z
" id="DejaVuSans-74" transform="scale(0.015625)"/>
       <path d="M 1625 4666 
L 2156 4666 
L 531 -594 
L 0 -594 
L 1625 4666 
z
" id="DejaVuSans-2f" transform="scale(0.015625)"/>
       <path d="M 3328 2828 
Q 3544 3216 3844 3400 
Q 4144 3584 4550 3584 
Q 5097 3584 5394 3201 
Q 5691 2819 5691 2113 
L 5691 0 
L 5113 0 
L 5113 2094 
Q 5113 2597 4934 2840 
Q 4756 3084 4391 3084 
Q 3944 3084 3684 2787 
Q 3425 2491 3425 1978 
L 3425 0 
L 2847 0 
L 2847 2094 
Q 2847 2600 2669 2842 
Q 2491 3084 2119 3084 
Q 1678 3084 1418 2786 
Q 1159 2488 1159 1978 
L 1159 0 
L 581 0 
L 581 3500 
L 1159 3500 
L 1159 2956 
Q 1356 3278 1631 3431 
Q 1906 3584 2284 3584 
Q 2666 3584 2933 3390 
Q 3200 3197 3328 2828 
z
" id="DejaVuSans-6d" transform="scale(0.015625)"/>
       <path d="M 2834 3397 
L 2834 2853 
Q 2591 2978 2328 3040 
Q 2066 3103 1784 3103 
Q 1356 3103 1142 2972 
Q 928 2841 928 2578 
Q 928 2378 1081 2264 
Q 1234 2150 1697 2047 
L 1894 2003 
Q 2506 1872 2764 1633 
Q 3022 1394 3022 966 
Q 3022 478 2636 193 
Q 2250 -91 1575 -91 
Q 1294 -91 989 -36 
Q 684 19 347 128 
L 347 722 
Q 666 556 975 473 
Q 1284 391 1588 391 
Q 1994 391 2212 530 
Q 2431 669 2431 922 
Q 2431 1156 2273 1281 
Q 2116 1406 1581 1522 
L 1381 1569 
Q 847 1681 609 1914 
Q 372 2147 372 2553 
Q 372 3047 722 3315 
Q 1072 3584 1716 3584 
Q 2034 3584 2315 3537 
Q 2597 3491 2834 3397 
z
" id="DejaVuSans-73" transform="scale(0.015625)"/>
      </defs>
      <use xlink:href="#DejaVuSans-74"/>
      <use x="39.208984" xlink:href="#DejaVuSans-2f"/>
      <use x="72.900391" xlink:href="#DejaVuSans-6d"/>
      <use x="170.3125" xlink:href="#DejaVuSans-73"/>
     </g>
    </g>
   </g>
   <g id="matplotlib.axis_2">
    <g id="ytick_1">
     <g id="line2d_7">
      <defs>
       <path d="M 0 0 
L -3.5 0 
" id="mbfbfd195f2" style="stroke:#000000;stroke-width:0.8;"/>
      </defs>
      <g>
       <use style="stroke:#000000;stroke-width:0.8;" x="48.982813" xlink:href="#mbfbfd195f2" y="300.474545"/>
      </g>
     </g>
     <g id="text_8">
      <!-- −65 -->
      <g transform="translate(20.878125 304.273764)scale(0.1 -0.1)">
       <defs>
        <path d="M 678 2272 
L 4684 2272 
L 4684 1741 
L 678 1741 
L 678 2272 
z
" id="DejaVuSans-2212" transform="scale(0.015625)"/>
        <path d="M 2113 2584 
Q 1688 2584 1439 2293 
Q 1191 2003 1191 1497 
Q 1191 994 1439 701 
Q 1688 409 2113 409 
Q 2538 409 2786 701 
Q 3034 994 3034 1497 
Q 3034 2003 2786 2293 
Q 2538 2584 2113 2584 
z
M 3366 4563 
L 3366 3988 
Q 3128 4100 2886 4159 
Q 2644 4219 2406 4219 
Q 1781 4219 1451 3797 
Q 1122 3375 1075 2522 
Q 1259 2794 1537 2939 
Q 1816 3084 2150 3084 
Q 2853 3084 3261 2657 
Q 3669 2231 3669 1497 
Q 3669 778 3244 343 
Q 2819 -91 2113 -91 
Q 1303 -91 875 529 
Q 447 1150 447 2328 
Q 447 3434 972 4092 
Q 1497 4750 2381 4750 
Q 2619 4750 2861 4703 
Q 3103 4656 3366 4563 
z
" id="DejaVuSans-36" transform="scale(0.015625)"/>
        <path d="M 691 4666 
L 3169 4666 
L 3169 4134 
L 1269 4134 
L 1269 2991 
Q 1406 3038 1543 3061 
Q 1681 3084 1819 3084 
Q 2600 3084 3056 2656 
Q 3513 2228 3513 1497 
Q 3513 744 3044 326 
Q 2575 -91 1722 -91 
Q 1428 -91 1123 -41 
Q 819 9 494 109 
L 494 744 
Q 775 591 1075 516 
Q 1375 441 1709 441 
Q 2250 441 2565 725 
Q 2881 1009 2881 1497 
Q 2881 1984 2565 2268 
Q 2250 2553 1709 2553 
Q 1456 2553 1204 2497 
Q 953 2441 691 2322 
L 691 4666 
z
" id="DejaVuSans-35" transform="scale(0.015625)"/>
       </defs>
       <use xlink:href="#DejaVuSans-2212"/>
       <use x="83.789062" xlink:href="#DejaVuSans-36"/>
       <use x="147.412109" xlink:href="#DejaVuSans-35"/>
      </g>
     </g>
    </g>
    <g id="ytick_2">
     <g id="line2d_8">
      <g>
       <use style="stroke:#000000;stroke-width:0.8;" x="48.982813" xlink:href="#mbfbfd195f2" y="240.262088"/>
      </g>
     </g>
     <g id="text_9">
      <!-- −60 -->
      <g transform="translate(20.878125 244.061307)scale(0.1 -0.1)">
       <use xlink:href="#DejaVuSans-2212"/>
       <use x="83.789062" xlink:href="#DejaVuSans-36"/>
       <use x="147.412109" xlink:href="#DejaVuSans-30"/>
      </g>
     </g>
    </g>
    <g id="ytick_3">
     <g id="line2d_9">
      <g>
       <use style="stroke:#000000;stroke-width:0.8;" x="48.982813" xlink:href="#mbfbfd195f2" y="180.04963"/>
      </g>
     </g>
     <g id="text_10">
      <!-- −55 -->
      <g transform="translate(20.878125 183.848849)scale(0.1 -0.1)">
       <use xlink:href="#DejaVuSans-2212"/>
       <use x="83.789062" xlink:href="#DejaVuSans-35"/>
       <use x="147.412109" xlink:href="#DejaVuSans-35"/>
      </g>
     </g>
    </g>
    <g id="ytick_4">
     <g id="line2d_10">
      <g>
       <use style="stroke:#000000;stroke-width:0.8;" x="48.982813" xlink:href="#mbfbfd195f2" y="119.837173"/>
      </g>
     </g>
     <g id="text_11">
      <!-- −50 -->
      <g transform="translate(20.878125 123.636391)scale(0.1 -0.1)">
       <use xlink:href="#DejaVuSans-2212"/>
       <use x="83.789062" xlink:href="#DejaVuSans-35"/>
       <use x="147.412109" xlink:href="#DejaVuSans-30"/>
      </g>
     </g>
    </g>
    <g id="ytick_5">
     <g id="line2d_11">
      <g>
       <use style="stroke:#000000;stroke-width:0.8;" x="48.982813" xlink:href="#mbfbfd195f2" y="59.624715"/>
      </g>
     </g>
     <g id="text_12">
      <!-- −45 -->
      <g transform="translate(20.878125 63.423934)scale(0.1 -0.1)">
       <use xlink:href="#DejaVuSans-2212"/>
       <use x="83.789062" xlink:href="#DejaVuSans-34"/>
       <use x="147.412109" xlink:href="#DejaVuSans-35"/>
      </g>
     </g>
    </g>
    <g id="text_13">
     <!-- U/mV -->
     <g transform="translate(14.798438 174.454375)rotate(-90)scale(0.1 -0.1)">
      <defs>
       <path d="M 556 4666 
L 1191 4666 
L 1191 1831 
Q 1191 1081 1462 751 
Q 1734 422 2344 422 
Q 2950 422 3222 751 
Q 3494 1081 3494 1831 
L 3494 4666 
L 4128 4666 
L 4128 1753 
Q 4128 841 3676 375 
Q 3225 -91 2344 -91 
Q 1459 -91 1007 375 
Q 556 841 556 1753 
L 556 4666 
z
" id="DejaVuSans-55" transform="scale(0.015625)"/>
       <path d="M 1831 0 
L 50 4666 
L 709 4666 
L 2188 738 
L 3669 4666 
L 4325 4666 
L 2547 0 
L 1831 0 
z
" id="DejaVuSans-56" transform="scale(0.015625)"/>
      </defs>
      <use xlink:href="#DejaVuSans-55"/>
      <use x="73.193359" xlink:href="#DejaVuSans-2f"/>
      <use x="106.884766" xlink:href="#DejaVuSans-6d"/>
      <use x="204.296875" xlink:href="#DejaVuSans-56"/>
     </g>
    </g>
   </g>
   <g id="line2d_12">
    <path clip-path="url(#pdc400207c3)" d="M 48.92365 300.474545 
L 108.204568 300.474545 
L 108.500381 241.812353 
L 108.973682 200.099913 
L 109.62447 162.26189 
L 110.511909 123.825201 
L 111.576836 87.370238 
L 112.81925 52.348254 
L 114.120827 21.165455 
L 114.357478 67.102535 
L 114.712453 95.486303 
L 115.244917 119.964259 
L 115.895705 139.578856 
L 116.664819 156.061965 
L 117.552258 170.222662 
L 118.498859 181.905459 
L 119.563786 192.355556 
L 120.747038 201.727467 
L 121.989452 209.808732 
L 123.350192 217.183503 
L 124.770094 223.670483 
L 126.308322 229.655029 
L 127.905712 234.992164 
L 129.621427 239.952292 
L 131.396305 244.420335 
L 133.289508 248.594054 
L 135.301036 252.489346 
L 137.430889 256.122502 
L 139.679068 259.509582 
L 142.045571 262.666045 
L 144.5304 265.606556 
L 147.133554 268.344902 
L 149.914196 270.946214 
L 152.872326 273.40531 
L 156.007943 275.720013 
L 159.321048 277.890463 
L 162.870804 279.950891 
L 166.716373 281.921791 
L 170.798591 283.763207 
L 175.235786 285.518138 
L 180.027956 287.171082 
L 185.234264 288.728171 
L 190.913873 290.190668 
L 197.125945 291.556652 
L 203.929644 292.822452 
L 211.502455 294.000666 
L 219.903544 295.078585 
L 229.369559 296.063652 
L 240.077988 296.949013 
L 252.383807 297.73704 
L 266.701155 298.424422 
L 283.739982 299.012166 
L 304.565214 299.499102 
L 331.070056 299.885569 
L 344.85494 300.019596 
L 344.85494 300.019596 
" style="fill:none;stroke:#f77189;stroke-linecap:square;stroke-width:1.5;"/>
   </g>
   <g id="line2d_13">
    <path clip-path="url(#pdc400207c3)" d="M 48.92365 300.474545 
L 108.677869 300.367567 
L 108.914519 300.008096 
L 109.210332 298.998072 
L 109.565308 296.892086 
L 110.097771 292.183527 
L 110.926047 282.461638 
L 112.464275 261.192236 
L 115.008266 226.166206 
L 115.54073 221.943634 
L 116.01403 219.877093 
L 116.428169 219.01479 
L 116.723981 218.791971 
L 117.019794 218.816631 
L 117.37477 219.097292 
L 117.848071 219.783598 
L 118.558022 221.250146 
L 119.741274 224.291487 
L 125.065907 238.553536 
L 127.254923 243.536479 
L 129.443939 247.96583 
L 131.692118 252.009566 
L 133.999459 255.70299 
L 136.425125 259.161606 
L 138.909954 262.321899 
L 141.513108 265.280063 
L 144.29375 268.101307 
L 147.192717 270.725997 
L 150.269172 273.21075 
L 153.523114 275.552057 
L 156.954545 277.749019 
L 160.622625 279.834452 
L 164.586519 281.828133 
L 168.787063 283.690617 
L 173.342583 285.464028 
L 178.253078 287.133096 
L 183.577712 288.703877 
L 189.375646 290.177689 
L 195.706043 291.552738 
L 202.628067 292.825523 
L 210.260041 294.000359 
L 218.779454 295.082948 
L 228.304632 296.065428 
L 239.131386 296.953334 
L 251.496368 297.73921 
L 265.932041 298.427484 
L 283.089193 299.015187 
L 304.032751 299.501501 
L 330.71508 299.887757 
L 344.85494 300.023825 
L 344.85494 300.023825 
" style="fill:none;stroke:#e18632;stroke-linecap:square;stroke-width:1.5;"/>
   </g>
   <g id="line2d_14">
    <path clip-path="url(#pdc400207c3)" d="M 48.92365 300.474545 
L 110.216096 300.368556 
L 110.807722 300.094068 
L 111.340186 299.611781 
L 111.931811 298.763522 
L 112.5826 297.431652 
L 113.351714 295.339281 
L 114.298315 292.0789 
L 115.481567 287.147943 
L 117.907233 276.780054 
L 118.97216 273.352591 
L 119.918762 271.00498 
L 120.865363 269.233892 
L 121.752802 268.011992 
L 122.640241 267.138482 
L 123.586842 266.518465 
L 124.533444 266.156935 
L 125.59837 265.994215 
L 126.781622 266.04785 
L 128.142362 266.337356 
L 129.798915 266.923062 
L 131.98793 267.950726 
L 135.182711 269.725369 
L 148.435131 277.333243 
L 153.286464 279.744791 
L 158.137797 281.908617 
L 163.166617 283.905877 
L 168.432088 285.754516 
L 173.993372 287.468581 
L 179.909631 289.057897 
L 186.299191 290.541341 
L 193.221214 291.916593 
L 200.794026 293.189662 
L 209.076789 294.352942 
L 218.246991 295.413159 
L 228.541282 296.374826 
L 240.196313 297.234601 
L 253.567059 297.991834 
L 269.185984 298.646891 
L 287.881363 299.200388 
L 310.954774 299.651781 
L 340.831884 300.002324 
L 344.85494 300.035969 
L 344.85494 300.035969 
" style="fill:none;stroke:#b59a32;stroke-linecap:square;stroke-width:1.5;"/>
   </g>
   <g id="line2d_15">
    <path clip-path="url(#pdc400207c3)" d="M 48.92365 300.474545 
L 112.641763 300.370481 
L 113.825014 300.092342 
L 114.830779 299.630559 
L 115.836543 298.918486 
L 116.901469 297.876886 
L 118.143884 296.332382 
L 120.392062 293.095037 
L 122.640241 290.008694 
L 124.355956 288.031109 
L 125.953346 286.531012 
L 127.491573 285.383212 
L 129.088963 284.466536 
L 130.745516 283.770818 
L 132.520394 283.265953 
L 134.472759 282.944008 
L 136.661775 282.811697 
L 139.205767 282.887026 
L 142.282222 283.211993 
L 146.186953 283.862655 
L 151.807399 285.04766 
L 174.999136 290.155893 
L 183.636874 291.72067 
L 192.511263 293.099781 
L 201.858953 294.325113 
L 211.975756 295.42404 
L 223.098324 296.404773 
L 235.522468 297.272776 
L 249.662328 298.032588 
L 266.109529 298.687056 
L 285.692347 299.236164 
L 309.830685 299.681763 
L 341.127697 300.025725 
L 344.85494 300.054863 
L 344.85494 300.054863 
" style="fill:none;stroke:#8ba731;stroke-linecap:square;stroke-width:1.5;"/>
   </g>
   <g id="line2d_16">
    <path clip-path="url(#pdc400207c3)" d="M 48.92365 300.474545 
L 116.01403 300.364165 
L 117.907233 300.090023 
L 119.622949 299.615615 
L 121.456989 298.865795 
L 123.882655 297.609913 
L 129.976402 294.362695 
L 132.697882 293.215811 
L 135.360198 292.332466 
L 138.14084 291.646718 
L 141.09897 291.148786 
L 144.352912 290.828571 
L 148.080156 290.690922 
L 152.458188 290.758745 
L 157.901146 291.074832 
L 165.414796 291.75065 
L 182.335297 293.57092 
L 197.658409 295.095213 
L 211.206643 296.216249 
L 225.28734 297.155015 
L 240.669614 297.95359 
L 258.122579 298.631537 
L 278.592836 299.197113 
L 303.500288 299.65448 
L 335.448088 300.007691 
L 344.85494 300.078635 
L 344.85494 300.078635 
" style="fill:none;stroke:#32b258;stroke-linecap:square;stroke-width:1.5;"/>
   </g>
   <g id="line2d_17">
    <path clip-path="url(#pdc400207c3)" d="M 48.92365 300.474545 
L 120.214574 300.364737 
L 123.231867 300.079824 
L 126.308322 299.558075 
L 130.568028 298.584485 
L 138.495816 296.762118 
L 143.051335 295.971598 
L 147.606855 295.410829 
L 152.458188 295.040473 
L 157.960309 294.849263 
L 164.468194 294.853731 
L 172.750957 295.093087 
L 185.175102 295.697737 
L 225.28734 297.769401 
L 245.580109 298.523809 
L 267.943569 299.126988 
L 294.330086 299.608381 
L 327.342813 299.977853 
L 344.85494 300.104938 
L 344.85494 300.104938 
" style="fill:none;stroke:#35ae95;stroke-linecap:square;stroke-width:1.5;"/>
   </g>
   <g id="line2d_18">
    <path clip-path="url(#pdc400207c3)" d="M 48.92365 300.474545 
L 125.420883 300.364384 
L 130.272215 300.063135 
L 136.3068 299.444781 
L 149.795871 298.008015 
L 156.895382 297.520172 
L 164.409031 297.231498 
L 173.105933 297.128376 
L 184.110175 297.233277 
L 200.794026 297.639797 
L 255.105287 299.078348 
L 285.692347 299.596004 
L 321.959017 299.978375 
L 344.85494 300.131192 
L 344.85494 300.131192 
" style="fill:none;stroke:#37abb2;stroke-linecap:square;stroke-width:1.5;"/>
   </g>
   <g id="line2d_19">
    <path clip-path="url(#pdc400207c3)" d="M 48.92365 300.474545 
L 131.810443 300.364971 
L 139.679068 300.04466 
L 168.136275 298.663751 
L 179.67298 298.464592 
L 193.81284 298.454904 
L 214.57891 298.686323 
L 303.026987 299.874634 
L 344.85494 300.154832 
L 344.85494 300.154832 
" style="fill:none;stroke:#39a7d6;stroke-linecap:square;stroke-width:1.5;"/>
   </g>
   <g id="line2d_20">
    <path clip-path="url(#pdc400207c3)" d="M 48.92365 300.474545 
L 139.73823 300.36412 
L 153.049814 300.008896 
L 177.188152 299.355788 
L 193.753678 299.162055 
L 213.928122 299.161394 
L 245.935085 299.413831 
L 324.384683 300.069428 
L 344.85494 300.173565 
L 344.85494 300.173565 
" style="fill:none;stroke:#8f93f4;stroke-linecap:square;stroke-width:1.5;"/>
   </g>
   <g id="line2d_21">
    <path clip-path="url(#pdc400207c3)" d="M 48.92365 300.474545 
L 148.967595 300.364137 
L 169.319527 299.980494 
L 194.463629 299.567289 
L 215.821325 299.455725 
L 244.101044 299.549521 
L 344.85494 300.185578 
L 344.85494 300.185578 
" style="fill:none;stroke:#db70f4;stroke-linecap:square;stroke-width:1.5;"/>
   </g>
   <g id="line2d_22">
    <path clip-path="url(#pdc400207c3)" d="M 48.92365 300.474545 
L 154.292228 300.364029 
L 177.306477 299.968309 
L 202.095603 299.625151 
L 225.050689 299.545012 
L 257.590115 299.678603 
L 344.85494 300.189757 
L 344.85494 300.189757 
" style="fill:none;stroke:#f667c6;stroke-linecap:square;stroke-width:1.5;"/>
   </g>
   <g id="line2d_23"/>
   <g id="line2d_24"/>
   <g id="line2d_25"/>
   <g id="line2d_26"/>
   <g id="line2d_27"/>
   <g id="line2d_28"/>
   <g id="line2d_29"/>
   <g id="line2d_30"/>
   <g id="line2d_31"/>
   <g id="line2d_32"/>
   <g id="line2d_33"/>
   <g id="patch_3">
    <path d="M 48.982813 314.44 
L 48.982813 7.2 
" style="fill:none;stroke:#000000;stroke-linecap:square;stroke-linejoin:miter;stroke-width:0.8;"/>
   </g>
   <g id="patch_4">
    <path d="M 48.982813 314.44 
L 344.795777 314.44 
" style="fill:none;stroke:#000000;stroke-linecap:square;stroke-linejoin:miter;stroke-width:0.8;"/>
   </g>
  </g>
  <g id="legend_1">
   <g id="text_14">
    <!-- Probe -->
    <g transform="translate(356.229709 98.027812)scale(0.1 -0.1)">
     <defs>
      <path d="M 1259 4147 
L 1259 2394 
L 2053 2394 
Q 2494 2394 2734 2622 
Q 2975 2850 2975 3272 
Q 2975 3691 2734 3919 
Q 2494 4147 2053 4147 
L 1259 4147 
z
M 628 4666 
L 2053 4666 
Q 2838 4666 3239 4311 
Q 3641 3956 3641 3272 
Q 3641 2581 3239 2228 
Q 2838 1875 2053 1875 
L 1259 1875 
L 1259 0 
L 628 0 
L 628 4666 
z
" id="DejaVuSans-50" transform="scale(0.015625)"/>
      <path d="M 2631 2963 
Q 2534 3019 2420 3045 
Q 2306 3072 2169 3072 
Q 1681 3072 1420 2755 
Q 1159 2438 1159 1844 
L 1159 0 
L 581 0 
L 581 3500 
L 1159 3500 
L 1159 2956 
Q 1341 3275 1631 3429 
Q 1922 3584 2338 3584 
Q 2397 3584 2469 3576 
Q 2541 3569 2628 3553 
L 2631 2963 
z
" id="DejaVuSans-72" transform="scale(0.015625)"/>
      <path d="M 1959 3097 
Q 1497 3097 1228 2736 
Q 959 2375 959 1747 
Q 959 1119 1226 758 
Q 1494 397 1959 397 
Q 2419 397 2687 759 
Q 2956 1122 2956 1747 
Q 2956 2369 2687 2733 
Q 2419 3097 1959 3097 
z
M 1959 3584 
Q 2709 3584 3137 3096 
Q 3566 2609 3566 1747 
Q 3566 888 3137 398 
Q 2709 -91 1959 -91 
Q 1206 -91 779 398 
Q 353 888 353 1747 
Q 353 2609 779 3096 
Q 1206 3584 1959 3584 
z
" id="DejaVuSans-6f" transform="scale(0.015625)"/>
      <path d="M 3116 1747 
Q 3116 2381 2855 2742 
Q 2594 3103 2138 3103 
Q 1681 3103 1420 2742 
Q 1159 2381 1159 1747 
Q 1159 1113 1420 752 
Q 1681 391 2138 391 
Q 2594 391 2855 752 
Q 3116 1113 3116 1747 
z
M 1159 2969 
Q 1341 3281 1617 3432 
Q 1894 3584 2278 3584 
Q 2916 3584 3314 3078 
Q 3713 2572 3713 1747 
Q 3713 922 3314 415 
Q 2916 -91 2278 -91 
Q 1894 -91 1617 61 
Q 1341 213 1159 525 
L 1159 0 
L 581 0 
L 581 4863 
L 1159 4863 
L 1159 2969 
z
" id="DejaVuSans-62" transform="scale(0.015625)"/>
      <path d="M 3597 1894 
L 3597 1613 
L 953 1613 
Q 991 1019 1311 708 
Q 1631 397 2203 397 
Q 2534 397 2845 478 
Q 3156 559 3463 722 
L 3463 178 
Q 3153 47 2828 -22 
Q 2503 -91 2169 -91 
Q 1331 -91 842 396 
Q 353 884 353 1716 
Q 353 2575 817 3079 
Q 1281 3584 2069 3584 
Q 2775 3584 3186 3129 
Q 3597 2675 3597 1894 
z
M 3022 2063 
Q 3016 2534 2758 2815 
Q 2500 3097 2075 3097 
Q 1594 3097 1305 2825 
Q 1016 2553 972 2059 
L 3022 2063 
z
" id="DejaVuSans-65" transform="scale(0.015625)"/>
     </defs>
     <use xlink:href="#DejaVuSans-50"/>
     <use x="58.552734" xlink:href="#DejaVuSans-72"/>
     <use x="97.416016" xlink:href="#DejaVuSans-6f"/>
     <use x="158.597656" xlink:href="#DejaVuSans-62"/>
     <use x="222.074219" xlink:href="#DejaVuSans-65"/>
    </g>
   </g>
   <g id="line2d_34">
    <path d="M 350.047677 109.205937 
L 370.047677 109.205937 
" style="fill:none;stroke:#f77189;stroke-linecap:square;stroke-width:1.5;"/>
   </g>
   <g id="line2d_35"/>
   <g id="text_15">
    <!-- 0 -->
    <g transform="translate(378.047677 112.705937)scale(0.1 -0.1)">
     <use xlink:href="#DejaVuSans-30"/>
    </g>
   </g>
   <g id="line2d_36">
    <path d="M 350.047677 123.884062 
L 370.047677 123.884062 
" style="fill:none;stroke:#e18632;stroke-linecap:square;stroke-width:1.5;"/>
   </g>
   <g id="line2d_37"/>
   <g id="text_16">
    <!-- 1 -->
    <g transform="translate(378.047677 127.384062)scale(0.1 -0.1)">
     <use xlink:href="#DejaVuSans-31"/>
    </g>
   </g>
   <g id="line2d_38">
    <path d="M 350.047677 138.562187 
L 370.047677 138.562187 
" style="fill:none;stroke:#b59a32;stroke-linecap:square;stroke-width:1.5;"/>
   </g>
   <g id="line2d_39"/>
   <g id="text_17">
    <!-- 2 -->
    <g transform="translate(378.047677 142.062187)scale(0.1 -0.1)">
     <use xlink:href="#DejaVuSans-32"/>
    </g>
   </g>
   <g id="line2d_40">
    <path d="M 350.047677 153.240312 
L 370.047677 153.240312 
" style="fill:none;stroke:#8ba731;stroke-linecap:square;stroke-width:1.5;"/>
   </g>
   <g id="line2d_41"/>
   <g id="text_18">
    <!-- 3 -->
    <g transform="translate(378.047677 156.740312)scale(0.1 -0.1)">
     <use xlink:href="#DejaVuSans-33"/>
    </g>
   </g>
   <g id="line2d_42">
    <path d="M 350.047677 167.918437 
L 370.047677 167.918437 
" style="fill:none;stroke:#32b258;stroke-linecap:square;stroke-width:1.5;"/>
   </g>
   <g id="line2d_43"/>
   <g id="text_19">
    <!-- 4 -->
    <g transform="translate(378.047677 171.418437)scale(0.1 -0.1)">
     <use xlink:href="#DejaVuSans-34"/>
    </g>
   </g>
   <g id="line2d_44">
    <path d="M 350.047677 182.596563 
L 370.047677 182.596563 
" style="fill:none;stroke:#35ae95;stroke-linecap:square;stroke-width:1.5;"/>
   </g>
   <g id="line2d_45"/>
   <g id="text_20">
    <!-- 5 -->
    <g transform="translate(378.047677 186.096563)scale(0.1 -0.1)">
     <use xlink:href="#DejaVuSans-35"/>
    </g>
   </g>
   <g id="line2d_46">
    <path d="M 350.047677 197.274687 
L 370.047677 197.274687 
" style="fill:none;stroke:#37abb2;stroke-linecap:square;stroke-width:1.5;"/>
   </g>
   <g id="line2d_47"/>
   <g id="text_21">
    <!-- 6 -->
    <g transform="translate(378.047677 200.774687)scale(0.1 -0.1)">
     <use xlink:href="#DejaVuSans-36"/>
    </g>
   </g>
   <g id="line2d_48">
    <path d="M 350.047677 211.952812 
L 370.047677 211.952812 
" style="fill:none;stroke:#39a7d6;stroke-linecap:square;stroke-width:1.5;"/>
   </g>
   <g id="line2d_49"/>
   <g id="text_22">
    <!-- 7 -->
    <g transform="translate(378.047677 215.452812)scale(0.1 -0.1)">
     <defs>
      <path d="M 525 4666 
L 3525 4666 
L 3525 4397 
L 1831 0 
L 1172 0 
L 2766 4134 
L 525 4134 
L 525 4666 
z
" id="DejaVuSans-37" transform="scale(0.015625)"/>
     </defs>
     <use xlink:href="#DejaVuSans-37"/>
    </g>
   </g>
   <g id="line2d_50">
    <path d="M 350.047677 226.630937 
L 370.047677 226.630937 
" style="fill:none;stroke:#8f93f4;stroke-linecap:square;stroke-width:1.5;"/>
   </g>
   <g id="line2d_51"/>
   <g id="text_23">
    <!-- 8 -->
    <g transform="translate(378.047677 230.130937)scale(0.1 -0.1)">
     <defs>
      <path d="M 2034 2216 
Q 1584 2216 1326 1975 
Q 1069 1734 1069 1313 
Q 1069 891 1326 650 
Q 1584 409 2034 409 
Q 2484 409 2743 651 
Q 3003 894 3003 1313 
Q 3003 1734 2745 1975 
Q 2488 2216 2034 2216 
z
M 1403 2484 
Q 997 2584 770 2862 
Q 544 3141 544 3541 
Q 544 4100 942 4425 
Q 1341 4750 2034 4750 
Q 2731 4750 3128 4425 
Q 3525 4100 3525 3541 
Q 3525 3141 3298 2862 
Q 3072 2584 2669 2484 
Q 3125 2378 3379 2068 
Q 3634 1759 3634 1313 
Q 3634 634 3220 271 
Q 2806 -91 2034 -91 
Q 1263 -91 848 271 
Q 434 634 434 1313 
Q 434 1759 690 2068 
Q 947 2378 1403 2484 
z
M 1172 3481 
Q 1172 3119 1398 2916 
Q 1625 2713 2034 2713 
Q 2441 2713 2670 2916 
Q 2900 3119 2900 3481 
Q 2900 3844 2670 4047 
Q 2441 4250 2034 4250 
Q 1625 4250 1398 4047 
Q 1172 3844 1172 3481 
z
" id="DejaVuSans-38" transform="scale(0.015625)"/>
     </defs>
     <use xlink:href="#DejaVuSans-38"/>
    </g>
   </g>
   <g id="line2d_52">
    <path d="M 350.047677 241.309062 
L 370.047677 241.309062 
" style="fill:none;stroke:#db70f4;stroke-linecap:square;stroke-width:1.5;"/>
   </g>
   <g id="line2d_53"/>
   <g id="text_24">
    <!-- 9 -->
    <g transform="translate(378.047677 244.809062)scale(0.1 -0.1)">
     <use xlink:href="#DejaVuSans-39"/>
    </g>
   </g>
   <g id="line2d_54">
    <path d="M 350.047677 255.987187 
L 370.047677 255.987187 
" style="fill:none;stroke:#f667c6;stroke-linecap:square;stroke-width:1.5;"/>
   </g>
   <g id="line2d_55"/>
   <g id="text_25">
    <!-- 10 -->
    <g transform="translate(378.047677 259.487187)scale(0.1 -0.1)">
     <use xlink:href="#DejaVuSans-31"/>
     <use x="63.623047" xlink:href="#DejaVuSans-30"/>
    </g>
   </g>
  </g>
 </g>
 <defs>
  <clipPath id="pdc400207c3">
   <rect height="307.24" width="295.812965" x="48.982813" y="7.2"/>
  </clipPath>
 </defs>
</svg>
