<?xml version="1.0" encoding="utf-8" standalone="no"?>
<!DOCTYPE svg PUBLIC "-//W3C//DTD SVG 1.1//EN"
  "http://www.w3.org/Graphics/SVG/1.1/DTD/svg11.dtd">
<svg xmlns:xlink="http://www.w3.org/1999/xlink" width="460.8pt" height="345.6pt" viewBox="0 0 460.8 345.6" xmlns="http://www.w3.org/2000/svg" version="1.1">
 <metadata>
  <rdf:RDF xmlns:dc="http://purl.org/dc/elements/1.1/" xmlns:cc="http://creativecommons.org/ns#" xmlns:rdf="http://www.w3.org/1999/02/22-rdf-syntax-ns#">
   <cc:Work>
    <dc:type rdf:resource="http://purl.org/dc/dcmitype/StillImage"/>
    <dc:date>2024-10-08T11:34:50.626245</dc:date>
    <dc:format>image/svg+xml</dc:format>
    <dc:creator>
     <cc:Agent>
      <dc:title>Matplotlib v3.8.3, https://matplotlib.org/</dc:title>
     </cc:Agent>
    </dc:creator>
   </cc:Work>
  </rdf:RDF>
 </metadata>
 <defs>
  <style type="text/css">*{stroke-linejoin: round; stroke-linecap: butt}</style>
 </defs>
 <g id="figure_1">
  <g id="patch_1">
   <path d="M 0 345.6 
L 460.8 345.6 
L 460.8 0 
L 0 0 
z
" style="fill: #ffffff"/>
  </g>
  <g id="axes_1">
   <g id="patch_2">
    <path d="M 57.6 307.584 
L 414.72 307.584 
L 414.72 41.472 
L 57.6 41.472 
z
" style="fill: #ffffff"/>
   </g>
   <g id="matplotlib.axis_1">
    <g id="xtick_1">
     <g id="line2d_1">
      <defs>
       <path id="md43a56d082" d="M 0 0 
L 0 3.5 
" style="stroke: #000000; stroke-width: 0.8"/>
      </defs>
      <g>
       <use xlink:href="#md43a56d082" x="57.6" y="307.584" style="stroke: #000000; stroke-width: 0.8"/>
      </g>
     </g>
     <g id="text_1">
      <!-- 0 -->
      <g transform="translate(54.41875 322.182437) scale(0.1 -0.1)">
       <defs>
        <path id="DejaVuSans-30" d="M 2034 4250 
Q 1547 4250 1301 3770 
Q 1056 3291 1056 2328 
Q 1056 1369 1301 889 
Q 1547 409 2034 409 
Q 2525 409 2770 889 
Q 3016 1369 3016 2328 
Q 3016 3291 2770 3770 
Q 2525 4250 2034 4250 
z
M 2034 4750 
Q 2819 4750 3233 4129 
Q 3647 3509 3647 2328 
Q 3647 1150 3233 529 
Q 2819 -91 2034 -91 
Q 1250 -91 836 529 
Q 422 1150 422 2328 
Q 422 3509 836 4129 
Q 1250 4750 2034 4750 
z
" transform="scale(0.015625)"/>
       </defs>
       <use xlink:href="#DejaVuSans-30"/>
      </g>
     </g>
    </g>
    <g id="xtick_2">
     <g id="line2d_2">
      <g>
       <use xlink:href="#md43a56d082" x="129.024" y="307.584" style="stroke: #000000; stroke-width: 0.8"/>
      </g>
     </g>
     <g id="text_2">
      <!-- 200 -->
      <g transform="translate(119.48025 322.182437) scale(0.1 -0.1)">
       <defs>
        <path id="DejaVuSans-32" d="M 1228 531 
L 3431 531 
L 3431 0 
L 469 0 
L 469 531 
Q 828 903 1448 1529 
Q 2069 2156 2228 2338 
Q 2531 2678 2651 2914 
Q 2772 3150 2772 3378 
Q 2772 3750 2511 3984 
Q 2250 4219 1831 4219 
Q 1534 4219 1204 4116 
Q 875 4013 500 3803 
L 500 4441 
Q 881 4594 1212 4672 
Q 1544 4750 1819 4750 
Q 2544 4750 2975 4387 
Q 3406 4025 3406 3419 
Q 3406 3131 3298 2873 
Q 3191 2616 2906 2266 
Q 2828 2175 2409 1742 
Q 1991 1309 1228 531 
z
" transform="scale(0.015625)"/>
       </defs>
       <use xlink:href="#DejaVuSans-32"/>
       <use xlink:href="#DejaVuSans-30" x="63.623047"/>
       <use xlink:href="#DejaVuSans-30" x="127.246094"/>
      </g>
     </g>
    </g>
    <g id="xtick_3">
     <g id="line2d_3">
      <g>
       <use xlink:href="#md43a56d082" x="200.448" y="307.584" style="stroke: #000000; stroke-width: 0.8"/>
      </g>
     </g>
     <g id="text_3">
      <!-- 400 -->
      <g transform="translate(190.90425 322.182437) scale(0.1 -0.1)">
       <defs>
        <path id="DejaVuSans-34" d="M 2419 4116 
L 825 1625 
L 2419 1625 
L 2419 4116 
z
M 2253 4666 
L 3047 4666 
L 3047 1625 
L 3713 1625 
L 3713 1100 
L 3047 1100 
L 3047 0 
L 2419 0 
L 2419 1100 
L 313 1100 
L 313 1709 
L 2253 4666 
z
" transform="scale(0.015625)"/>
       </defs>
       <use xlink:href="#DejaVuSans-34"/>
       <use xlink:href="#DejaVuSans-30" x="63.623047"/>
       <use xlink:href="#DejaVuSans-30" x="127.246094"/>
      </g>
     </g>
    </g>
    <g id="xtick_4">
     <g id="line2d_4">
      <g>
       <use xlink:href="#md43a56d082" x="271.872" y="307.584" style="stroke: #000000; stroke-width: 0.8"/>
      </g>
     </g>
     <g id="text_4">
      <!-- 600 -->
      <g transform="translate(262.32825 322.182437) scale(0.1 -0.1)">
       <defs>
        <path id="DejaVuSans-36" d="M 2113 2584 
Q 1688 2584 1439 2293 
Q 1191 2003 1191 1497 
Q 1191 994 1439 701 
Q 1688 409 2113 409 
Q 2538 409 2786 701 
Q 3034 994 3034 1497 
Q 3034 2003 2786 2293 
Q 2538 2584 2113 2584 
z
M 3366 4563 
L 3366 3988 
Q 3128 4100 2886 4159 
Q 2644 4219 2406 4219 
Q 1781 4219 1451 3797 
Q 1122 3375 1075 2522 
Q 1259 2794 1537 2939 
Q 1816 3084 2150 3084 
Q 2853 3084 3261 2657 
Q 3669 2231 3669 1497 
Q 3669 778 3244 343 
Q 2819 -91 2113 -91 
Q 1303 -91 875 529 
Q 447 1150 447 2328 
Q 447 3434 972 4092 
Q 1497 4750 2381 4750 
Q 2619 4750 2861 4703 
Q 3103 4656 3366 4563 
z
" transform="scale(0.015625)"/>
       </defs>
       <use xlink:href="#DejaVuSans-36"/>
       <use xlink:href="#DejaVuSans-30" x="63.623047"/>
       <use xlink:href="#DejaVuSans-30" x="127.246094"/>
      </g>
     </g>
    </g>
    <g id="xtick_5">
     <g id="line2d_5">
      <g>
       <use xlink:href="#md43a56d082" x="343.296" y="307.584" style="stroke: #000000; stroke-width: 0.8"/>
      </g>
     </g>
     <g id="text_5">
      <!-- 800 -->
      <g transform="translate(333.75225 322.182437) scale(0.1 -0.1)">
       <defs>
        <path id="DejaVuSans-38" d="M 2034 2216 
Q 1584 2216 1326 1975 
Q 1069 1734 1069 1313 
Q 1069 891 1326 650 
Q 1584 409 2034 409 
Q 2484 409 2743 651 
Q 3003 894 3003 1313 
Q 3003 1734 2745 1975 
Q 2488 2216 2034 2216 
z
M 1403 2484 
Q 997 2584 770 2862 
Q 544 3141 544 3541 
Q 544 4100 942 4425 
Q 1341 4750 2034 4750 
Q 2731 4750 3128 4425 
Q 3525 4100 3525 3541 
Q 3525 3141 3298 2862 
Q 3072 2584 2669 2484 
Q 3125 2378 3379 2068 
Q 3634 1759 3634 1313 
Q 3634 634 3220 271 
Q 2806 -91 2034 -91 
Q 1263 -91 848 271 
Q 434 634 434 1313 
Q 434 1759 690 2068 
Q 947 2378 1403 2484 
z
M 1172 3481 
Q 1172 3119 1398 2916 
Q 1625 2713 2034 2713 
Q 2441 2713 2670 2916 
Q 2900 3119 2900 3481 
Q 2900 3844 2670 4047 
Q 2441 4250 2034 4250 
Q 1625 4250 1398 4047 
Q 1172 3844 1172 3481 
z
" transform="scale(0.015625)"/>
       </defs>
       <use xlink:href="#DejaVuSans-38"/>
       <use xlink:href="#DejaVuSans-30" x="63.623047"/>
       <use xlink:href="#DejaVuSans-30" x="127.246094"/>
      </g>
     </g>
    </g>
    <g id="xtick_6">
     <g id="line2d_6">
      <g>
       <use xlink:href="#md43a56d082" x="414.72" y="307.584" style="stroke: #000000; stroke-width: 0.8"/>
      </g>
     </g>
     <g id="text_6">
      <!-- 1000 -->
      <g transform="translate(401.995 322.182437) scale(0.1 -0.1)">
       <defs>
        <path id="DejaVuSans-31" d="M 794 531 
L 1825 531 
L 1825 4091 
L 703 3866 
L 703 4441 
L 1819 4666 
L 2450 4666 
L 2450 531 
L 3481 531 
L 3481 0 
L 794 0 
L 794 531 
z
" transform="scale(0.015625)"/>
       </defs>
       <use xlink:href="#DejaVuSans-31"/>
       <use xlink:href="#DejaVuSans-30" x="63.623047"/>
       <use xlink:href="#DejaVuSans-30" x="127.246094"/>
       <use xlink:href="#DejaVuSans-30" x="190.869141"/>
      </g>
     </g>
    </g>
    <g id="text_7">
     <!-- Time $(t/ms)$ -->
     <g transform="translate(207.11 335.860562) scale(0.1 -0.1)">
      <defs>
       <path id="DejaVuSans-54" d="M -19 4666 
L 3928 4666 
L 3928 4134 
L 2272 4134 
L 2272 0 
L 1638 0 
L 1638 4134 
L -19 4134 
L -19 4666 
z
" transform="scale(0.015625)"/>
       <path id="DejaVuSans-69" d="M 603 3500 
L 1178 3500 
L 1178 0 
L 603 0 
L 603 3500 
z
M 603 4863 
L 1178 4863 
L 1178 4134 
L 603 4134 
L 603 4863 
z
" transform="scale(0.015625)"/>
       <path id="DejaVuSans-6d" d="M 3328 2828 
Q 3544 3216 3844 3400 
Q 4144 3584 4550 3584 
Q 5097 3584 5394 3201 
Q 5691 2819 5691 2113 
L 5691 0 
L 5113 0 
L 5113 2094 
Q 5113 2597 4934 2840 
Q 4756 3084 4391 3084 
Q 3944 3084 3684 2787 
Q 3425 2491 3425 1978 
L 3425 0 
L 2847 0 
L 2847 2094 
Q 2847 2600 2669 2842 
Q 2491 3084 2119 3084 
Q 1678 3084 1418 2786 
Q 1159 2488 1159 1978 
L 1159 0 
L 581 0 
L 581 3500 
L 1159 3500 
L 1159 2956 
Q 1356 3278 1631 3431 
Q 1906 3584 2284 3584 
Q 2666 3584 2933 3390 
Q 3200 3197 3328 2828 
z
" transform="scale(0.015625)"/>
       <path id="DejaVuSans-65" d="M 3597 1894 
L 3597 1613 
L 953 1613 
Q 991 1019 1311 708 
Q 1631 397 2203 397 
Q 2534 397 2845 478 
Q 3156 559 3463 722 
L 3463 178 
Q 3153 47 2828 -22 
Q 2503 -91 2169 -91 
Q 1331 -91 842 396 
Q 353 884 353 1716 
Q 353 2575 817 3079 
Q 1281 3584 2069 3584 
Q 2775 3584 3186 3129 
Q 3597 2675 3597 1894 
z
M 3022 2063 
Q 3016 2534 2758 2815 
Q 2500 3097 2075 3097 
Q 1594 3097 1305 2825 
Q 1016 2553 972 2059 
L 3022 2063 
z
" transform="scale(0.015625)"/>
       <path id="DejaVuSans-20" transform="scale(0.015625)"/>
       <path id="DejaVuSans-28" d="M 1984 4856 
Q 1566 4138 1362 3434 
Q 1159 2731 1159 2009 
Q 1159 1288 1364 580 
Q 1569 -128 1984 -844 
L 1484 -844 
Q 1016 -109 783 600 
Q 550 1309 550 2009 
Q 550 2706 781 3412 
Q 1013 4119 1484 4856 
L 1984 4856 
z
" transform="scale(0.015625)"/>
       <path id="DejaVuSans-Oblique-74" d="M 2706 3500 
L 2619 3053 
L 1472 3053 
L 1100 1153 
Q 1081 1047 1072 975 
Q 1063 903 1063 863 
Q 1063 663 1183 572 
Q 1303 481 1569 481 
L 2150 481 
L 2053 0 
L 1503 0 
Q 991 0 739 200 
Q 488 400 488 806 
Q 488 878 497 964 
Q 506 1050 525 1153 
L 897 3053 
L 409 3053 
L 500 3500 
L 978 3500 
L 1172 4494 
L 1747 4494 
L 1556 3500 
L 2706 3500 
z
" transform="scale(0.015625)"/>
       <path id="DejaVuSans-2f" d="M 1625 4666 
L 2156 4666 
L 531 -594 
L 0 -594 
L 1625 4666 
z
" transform="scale(0.015625)"/>
       <path id="DejaVuSans-Oblique-6d" d="M 5747 2113 
L 5338 0 
L 4763 0 
L 5166 2094 
Q 5191 2228 5203 2325 
Q 5216 2422 5216 2491 
Q 5216 2772 5059 2928 
Q 4903 3084 4622 3084 
Q 4203 3084 3875 2770 
Q 3547 2456 3450 1953 
L 3066 0 
L 2491 0 
L 2900 2094 
Q 2925 2209 2937 2307 
Q 2950 2406 2950 2484 
Q 2950 2769 2794 2926 
Q 2638 3084 2363 3084 
Q 1938 3084 1609 2770 
Q 1281 2456 1184 1953 
L 800 0 
L 225 0 
L 909 3500 
L 1484 3500 
L 1375 2956 
Q 1609 3263 1923 3423 
Q 2238 3584 2597 3584 
Q 2978 3584 3223 3384 
Q 3469 3184 3519 2828 
Q 3781 3197 4126 3390 
Q 4472 3584 4856 3584 
Q 5306 3584 5551 3325 
Q 5797 3066 5797 2591 
Q 5797 2488 5784 2364 
Q 5772 2241 5747 2113 
z
" transform="scale(0.015625)"/>
       <path id="DejaVuSans-Oblique-73" d="M 3200 3397 
L 3091 2853 
Q 2863 2978 2609 3040 
Q 2356 3103 2088 3103 
Q 1634 3103 1373 2948 
Q 1113 2794 1113 2528 
Q 1113 2219 1719 2053 
Q 1766 2041 1788 2034 
L 1972 1978 
Q 2547 1819 2739 1644 
Q 2931 1469 2931 1166 
Q 2931 609 2489 259 
Q 2047 -91 1331 -91 
Q 1053 -91 747 -37 
Q 441 16 72 128 
L 184 722 
Q 500 559 806 475 
Q 1113 391 1394 391 
Q 1816 391 2080 572 
Q 2344 753 2344 1031 
Q 2344 1331 1650 1516 
L 1591 1531 
L 1394 1581 
Q 956 1697 753 1886 
Q 550 2075 550 2369 
Q 550 2928 970 3256 
Q 1391 3584 2113 3584 
Q 2397 3584 2667 3537 
Q 2938 3491 3200 3397 
z
" transform="scale(0.015625)"/>
       <path id="DejaVuSans-29" d="M 513 4856 
L 1013 4856 
Q 1481 4119 1714 3412 
Q 1947 2706 1947 2009 
Q 1947 1309 1714 600 
Q 1481 -109 1013 -844 
L 513 -844 
Q 928 -128 1133 580 
Q 1338 1288 1338 2009 
Q 1338 2731 1133 3434 
Q 928 4138 513 4856 
z
" transform="scale(0.015625)"/>
      </defs>
      <use xlink:href="#DejaVuSans-54" transform="translate(0 0.015625)"/>
      <use xlink:href="#DejaVuSans-69" transform="translate(61.083984 0.015625)"/>
      <use xlink:href="#DejaVuSans-6d" transform="translate(88.867188 0.015625)"/>
      <use xlink:href="#DejaVuSans-65" transform="translate(186.279297 0.015625)"/>
      <use xlink:href="#DejaVuSans-20" transform="translate(247.802734 0.015625)"/>
      <use xlink:href="#DejaVuSans-28" transform="translate(279.589844 0.015625)"/>
      <use xlink:href="#DejaVuSans-Oblique-74" transform="translate(318.603516 0.015625)"/>
      <use xlink:href="#DejaVuSans-2f" transform="translate(357.8125 0.015625)"/>
      <use xlink:href="#DejaVuSans-Oblique-6d" transform="translate(391.503906 0.015625)"/>
      <use xlink:href="#DejaVuSans-Oblique-73" transform="translate(488.916016 0.015625)"/>
      <use xlink:href="#DejaVuSans-29" transform="translate(541.015625 0.015625)"/>
     </g>
    </g>
   </g>
   <g id="matplotlib.axis_2">
    <g id="ytick_1">
     <g id="line2d_7">
      <defs>
       <path id="m50c34cf710" d="M 0 0 
L -3.5 0 
" style="stroke: #000000; stroke-width: 0.8"/>
      </defs>
      <g>
       <use xlink:href="#m50c34cf710" x="57.6" y="295.488" style="stroke: #000000; stroke-width: 0.8"/>
      </g>
     </g>
     <g id="text_8">
      <!-- 0.00 -->
      <g transform="translate(28.334375 299.287219) scale(0.1 -0.1)">
       <defs>
        <path id="DejaVuSans-2e" d="M 684 794 
L 1344 794 
L 1344 0 
L 684 0 
L 684 794 
z
" transform="scale(0.015625)"/>
       </defs>
       <use xlink:href="#DejaVuSans-30"/>
       <use xlink:href="#DejaVuSans-2e" x="63.623047"/>
       <use xlink:href="#DejaVuSans-30" x="95.410156"/>
       <use xlink:href="#DejaVuSans-30" x="159.033203"/>
      </g>
     </g>
    </g>
    <g id="ytick_2">
     <g id="line2d_8">
      <g>
       <use xlink:href="#m50c34cf710" x="57.6" y="265.248" style="stroke: #000000; stroke-width: 0.8"/>
      </g>
     </g>
     <g id="text_9">
      <!-- 0.25 -->
      <g transform="translate(28.334375 269.047219) scale(0.1 -0.1)">
       <defs>
        <path id="DejaVuSans-35" d="M 691 4666 
L 3169 4666 
L 3169 4134 
L 1269 4134 
L 1269 2991 
Q 1406 3038 1543 3061 
Q 1681 3084 1819 3084 
Q 2600 3084 3056 2656 
Q 3513 2228 3513 1497 
Q 3513 744 3044 326 
Q 2575 -91 1722 -91 
Q 1428 -91 1123 -41 
Q 819 9 494 109 
L 494 744 
Q 775 591 1075 516 
Q 1375 441 1709 441 
Q 2250 441 2565 725 
Q 2881 1009 2881 1497 
Q 2881 1984 2565 2268 
Q 2250 2553 1709 2553 
Q 1456 2553 1204 2497 
Q 953 2441 691 2322 
L 691 4666 
z
" transform="scale(0.015625)"/>
       </defs>
       <use xlink:href="#DejaVuSans-30"/>
       <use xlink:href="#DejaVuSans-2e" x="63.623047"/>
       <use xlink:href="#DejaVuSans-32" x="95.410156"/>
       <use xlink:href="#DejaVuSans-35" x="159.033203"/>
      </g>
     </g>
    </g>
    <g id="ytick_3">
     <g id="line2d_9">
      <g>
       <use xlink:href="#m50c34cf710" x="57.6" y="235.008" style="stroke: #000000; stroke-width: 0.8"/>
      </g>
     </g>
     <g id="text_10">
      <!-- 0.50 -->
      <g transform="translate(28.334375 238.807219) scale(0.1 -0.1)">
       <use xlink:href="#DejaVuSans-30"/>
       <use xlink:href="#DejaVuSans-2e" x="63.623047"/>
       <use xlink:href="#DejaVuSans-35" x="95.410156"/>
       <use xlink:href="#DejaVuSans-30" x="159.033203"/>
      </g>
     </g>
    </g>
    <g id="ytick_4">
     <g id="line2d_10">
      <g>
       <use xlink:href="#m50c34cf710" x="57.6" y="204.768" style="stroke: #000000; stroke-width: 0.8"/>
      </g>
     </g>
     <g id="text_11">
      <!-- 0.75 -->
      <g transform="translate(28.334375 208.567219) scale(0.1 -0.1)">
       <defs>
        <path id="DejaVuSans-37" d="M 525 4666 
L 3525 4666 
L 3525 4397 
L 1831 0 
L 1172 0 
L 2766 4134 
L 525 4134 
L 525 4666 
z
" transform="scale(0.015625)"/>
       </defs>
       <use xlink:href="#DejaVuSans-30"/>
       <use xlink:href="#DejaVuSans-2e" x="63.623047"/>
       <use xlink:href="#DejaVuSans-37" x="95.410156"/>
       <use xlink:href="#DejaVuSans-35" x="159.033203"/>
      </g>
     </g>
    </g>
    <g id="ytick_5">
     <g id="line2d_11">
      <g>
       <use xlink:href="#m50c34cf710" x="57.6" y="174.528" style="stroke: #000000; stroke-width: 0.8"/>
      </g>
     </g>
     <g id="text_12">
      <!-- 1.00 -->
      <g transform="translate(28.334375 178.327219) scale(0.1 -0.1)">
       <use xlink:href="#DejaVuSans-31"/>
       <use xlink:href="#DejaVuSans-2e" x="63.623047"/>
       <use xlink:href="#DejaVuSans-30" x="95.410156"/>
       <use xlink:href="#DejaVuSans-30" x="159.033203"/>
      </g>
     </g>
    </g>
    <g id="ytick_6">
     <g id="line2d_12">
      <g>
       <use xlink:href="#m50c34cf710" x="57.6" y="144.288" style="stroke: #000000; stroke-width: 0.8"/>
      </g>
     </g>
     <g id="text_13">
      <!-- 1.25 -->
      <g transform="translate(28.334375 148.087219) scale(0.1 -0.1)">
       <use xlink:href="#DejaVuSans-31"/>
       <use xlink:href="#DejaVuSans-2e" x="63.623047"/>
       <use xlink:href="#DejaVuSans-32" x="95.410156"/>
       <use xlink:href="#DejaVuSans-35" x="159.033203"/>
      </g>
     </g>
    </g>
    <g id="ytick_7">
     <g id="line2d_13">
      <g>
       <use xlink:href="#m50c34cf710" x="57.6" y="114.048" style="stroke: #000000; stroke-width: 0.8"/>
      </g>
     </g>
     <g id="text_14">
      <!-- 1.50 -->
      <g transform="translate(28.334375 117.847219) scale(0.1 -0.1)">
       <use xlink:href="#DejaVuSans-31"/>
       <use xlink:href="#DejaVuSans-2e" x="63.623047"/>
       <use xlink:href="#DejaVuSans-35" x="95.410156"/>
       <use xlink:href="#DejaVuSans-30" x="159.033203"/>
      </g>
     </g>
    </g>
    <g id="ytick_8">
     <g id="line2d_14">
      <g>
       <use xlink:href="#m50c34cf710" x="57.6" y="83.808" style="stroke: #000000; stroke-width: 0.8"/>
      </g>
     </g>
     <g id="text_15">
      <!-- 1.75 -->
      <g transform="translate(28.334375 87.607219) scale(0.1 -0.1)">
       <use xlink:href="#DejaVuSans-31"/>
       <use xlink:href="#DejaVuSans-2e" x="63.623047"/>
       <use xlink:href="#DejaVuSans-37" x="95.410156"/>
       <use xlink:href="#DejaVuSans-35" x="159.033203"/>
      </g>
     </g>
    </g>
    <g id="ytick_9">
     <g id="line2d_15">
      <g>
       <use xlink:href="#m50c34cf710" x="57.6" y="53.568" style="stroke: #000000; stroke-width: 0.8"/>
      </g>
     </g>
     <g id="text_16">
      <!-- 2.00 -->
      <g transform="translate(28.334375 57.367219) scale(0.1 -0.1)">
       <use xlink:href="#DejaVuSans-32"/>
       <use xlink:href="#DejaVuSans-2e" x="63.623047"/>
       <use xlink:href="#DejaVuSans-30" x="95.410156"/>
       <use xlink:href="#DejaVuSans-30" x="159.033203"/>
      </g>
     </g>
    </g>
    <g id="text_17">
     <!-- Rate $(kHz)$ -->
     <g transform="translate(22.254687 200.878) rotate(-90) scale(0.1 -0.1)">
      <defs>
       <path id="DejaVuSans-52" d="M 2841 2188 
Q 3044 2119 3236 1894 
Q 3428 1669 3622 1275 
L 4263 0 
L 3584 0 
L 2988 1197 
Q 2756 1666 2539 1819 
Q 2322 1972 1947 1972 
L 1259 1972 
L 1259 0 
L 628 0 
L 628 4666 
L 2053 4666 
Q 2853 4666 3247 4331 
Q 3641 3997 3641 3322 
Q 3641 2881 3436 2590 
Q 3231 2300 2841 2188 
z
M 1259 4147 
L 1259 2491 
L 2053 2491 
Q 2509 2491 2742 2702 
Q 2975 2913 2975 3322 
Q 2975 3731 2742 3939 
Q 2509 4147 2053 4147 
L 1259 4147 
z
" transform="scale(0.015625)"/>
       <path id="DejaVuSans-61" d="M 2194 1759 
Q 1497 1759 1228 1600 
Q 959 1441 959 1056 
Q 959 750 1161 570 
Q 1363 391 1709 391 
Q 2188 391 2477 730 
Q 2766 1069 2766 1631 
L 2766 1759 
L 2194 1759 
z
M 3341 1997 
L 3341 0 
L 2766 0 
L 2766 531 
Q 2569 213 2275 61 
Q 1981 -91 1556 -91 
Q 1019 -91 701 211 
Q 384 513 384 1019 
Q 384 1609 779 1909 
Q 1175 2209 1959 2209 
L 2766 2209 
L 2766 2266 
Q 2766 2663 2505 2880 
Q 2244 3097 1772 3097 
Q 1472 3097 1187 3025 
Q 903 2953 641 2809 
L 641 3341 
Q 956 3463 1253 3523 
Q 1550 3584 1831 3584 
Q 2591 3584 2966 3190 
Q 3341 2797 3341 1997 
z
" transform="scale(0.015625)"/>
       <path id="DejaVuSans-74" d="M 1172 4494 
L 1172 3500 
L 2356 3500 
L 2356 3053 
L 1172 3053 
L 1172 1153 
Q 1172 725 1289 603 
Q 1406 481 1766 481 
L 2356 481 
L 2356 0 
L 1766 0 
Q 1100 0 847 248 
Q 594 497 594 1153 
L 594 3053 
L 172 3053 
L 172 3500 
L 594 3500 
L 594 4494 
L 1172 4494 
z
" transform="scale(0.015625)"/>
       <path id="DejaVuSans-Oblique-6b" d="M 1172 4863 
L 1747 4863 
L 1197 2028 
L 3169 3500 
L 3916 3500 
L 1716 1825 
L 3322 0 
L 2625 0 
L 1131 1709 
L 800 0 
L 225 0 
L 1172 4863 
z
" transform="scale(0.015625)"/>
       <path id="DejaVuSans-Oblique-48" d="M 1081 4666 
L 1716 4666 
L 1344 2753 
L 3634 2753 
L 4006 4666 
L 4641 4666 
L 3731 0 
L 3097 0 
L 3531 2222 
L 1241 2222 
L 806 0 
L 172 0 
L 1081 4666 
z
" transform="scale(0.015625)"/>
       <path id="DejaVuSans-Oblique-7a" d="M 744 3500 
L 3475 3500 
L 3372 2975 
L 738 459 
L 2913 459 
L 2822 0 
L -19 0 
L 84 525 
L 2719 3041 
L 653 3041 
L 744 3500 
z
" transform="scale(0.015625)"/>
      </defs>
      <use xlink:href="#DejaVuSans-52" transform="translate(0 0.015625)"/>
      <use xlink:href="#DejaVuSans-61" transform="translate(69.482422 0.015625)"/>
      <use xlink:href="#DejaVuSans-74" transform="translate(130.761719 0.015625)"/>
      <use xlink:href="#DejaVuSans-65" transform="translate(169.970703 0.015625)"/>
      <use xlink:href="#DejaVuSans-20" transform="translate(231.494141 0.015625)"/>
      <use xlink:href="#DejaVuSans-28" transform="translate(263.28125 0.015625)"/>
      <use xlink:href="#DejaVuSans-Oblique-6b" transform="translate(302.294922 0.015625)"/>
      <use xlink:href="#DejaVuSans-Oblique-48" transform="translate(360.205078 0.015625)"/>
      <use xlink:href="#DejaVuSans-Oblique-7a" transform="translate(435.400391 0.015625)"/>
      <use xlink:href="#DejaVuSans-29" transform="translate(487.890625 0.015625)"/>
     </g>
    </g>
   </g>
   <g id="line2d_16">
    <path d="M 57.6 295.488 
L 61.1712 174.528 
L 64.7424 295.488 
L 68.3136 174.528 
L 71.8848 295.488 
L 75.456 174.528 
L 79.0272 295.488 
L 82.5984 295.488 
L 86.1696 174.528 
L 89.7408 174.528 
L 93.312 295.488 
L 96.8832 295.488 
L 100.4544 174.528 
L 104.0256 174.528 
L 107.5968 174.528 
L 111.168 295.488 
L 114.7392 174.528 
L 118.3104 295.488 
L 121.8816 174.528 
L 125.4528 174.528 
L 129.024 295.488 
L 132.5952 295.488 
L 136.1664 174.528 
L 139.7376 295.488 
L 143.3088 295.488 
L 146.88 295.488 
L 150.4512 295.488 
L 154.0224 174.528 
L 157.5936 295.488 
L 161.1648 295.488 
L 164.736 295.488 
L 168.3072 295.488 
L 171.8784 174.528 
L 175.4496 295.488 
L 179.0208 295.488 
L 182.592 174.528 
L 186.1632 295.488 
L 189.7344 174.528 
L 193.3056 174.528 
L 196.8768 295.488 
L 200.448 174.528 
L 204.0192 295.488 
L 207.5904 295.488 
L 211.1616 295.488 
L 214.7328 174.528 
L 218.304 295.488 
L 221.8752 295.488 
L 225.4464 174.528 
L 229.0176 174.528 
L 232.5888 295.488 
L 236.16 174.528 
L 239.7312 295.488 
L 243.3024 174.528 
L 246.8736 295.488 
L 250.4448 295.488 
L 254.016 295.488 
L 257.5872 174.528 
L 261.1584 295.488 
L 264.7296 174.528 
L 268.3008 295.488 
L 271.872 174.528 
L 275.4432 295.488 
L 279.0144 174.528 
L 282.5856 295.488 
L 286.1568 295.488 
L 289.728 174.528 
L 293.2992 174.528 
L 296.8704 295.488 
L 300.4416 295.488 
L 304.0128 295.488 
L 307.584 174.528 
L 311.1552 295.488 
L 314.7264 295.488 
L 318.2976 295.488 
L 321.8688 295.488 
L 325.44 295.488 
L 329.0112 295.488 
L 332.5824 174.528 
L 336.1536 295.488 
L 339.7248 295.488 
L 343.296 174.528 
L 346.8672 295.488 
L 350.4384 174.528 
L 354.0096 295.488 
L 357.5808 295.488 
L 361.152 174.528 
L 364.7232 295.488 
L 368.2944 174.528 
L 371.8656 295.488 
L 375.4368 295.488 
L 379.008 174.528 
L 382.5792 295.488 
L 386.1504 174.528 
L 389.7216 295.488 
L 393.2928 174.528 
L 396.864 295.488 
L 400.4352 174.528 
L 404.0064 174.528 
L 407.5776 295.488 
L 411.1488 295.488 
" clip-path="url(#p6f50955fff)" style="fill: none; stroke: #1f77b4; stroke-width: 1.5; stroke-linecap: square"/>
   </g>
   <g id="line2d_17">
    <path d="M 57.6 295.488 
L 61.1712 295.488 
L 64.7424 295.488 
L 68.3136 295.488 
L 71.8848 174.528 
L 75.456 295.488 
L 79.0272 295.488 
L 82.5984 174.528 
L 86.1696 295.488 
L 89.7408 295.488 
L 93.312 295.488 
L 96.8832 295.488 
L 100.4544 295.488 
L 104.0256 295.488 
L 107.5968 295.488 
L 111.168 174.528 
L 114.7392 295.488 
L 118.3104 295.488 
L 121.8816 295.488 
L 125.4528 174.528 
L 129.024 295.488 
L 132.5952 295.488 
L 136.1664 174.528 
L 139.7376 295.488 
L 143.3088 174.528 
L 146.88 295.488 
L 150.4512 174.528 
L 154.0224 295.488 
L 157.5936 295.488 
L 161.1648 295.488 
L 164.736 174.528 
L 168.3072 295.488 
L 171.8784 295.488 
L 175.4496 174.528 
L 179.0208 295.488 
L 182.592 295.488 
L 186.1632 174.528 
L 189.7344 174.528 
L 193.3056 174.528 
L 196.8768 295.488 
L 200.448 295.488 
L 204.0192 174.528 
L 207.5904 295.488 
L 211.1616 174.528 
L 214.7328 295.488 
L 218.304 295.488 
L 221.8752 174.528 
L 225.4464 295.488 
L 229.0176 295.488 
L 232.5888 295.488 
L 236.16 295.488 
L 239.7312 174.528 
L 243.3024 295.488 
L 246.8736 174.528 
L 250.4448 295.488 
L 254.016 295.488 
L 257.5872 295.488 
L 261.1584 295.488 
L 264.7296 174.528 
L 268.3008 295.488 
L 271.872 295.488 
L 275.4432 295.488 
L 279.0144 295.488 
L 282.5856 295.488 
L 286.1568 174.528 
L 289.728 295.488 
L 293.2992 174.528 
L 296.8704 295.488 
L 300.4416 174.528 
L 304.0128 295.488 
L 307.584 295.488 
L 311.1552 174.528 
L 314.7264 295.488 
L 318.2976 295.488 
L 321.8688 174.528 
L 325.44 174.528 
L 329.0112 295.488 
L 332.5824 174.528 
L 336.1536 295.488 
L 339.7248 174.528 
L 343.296 295.488 
L 346.8672 295.488 
L 350.4384 295.488 
L 354.0096 295.488 
L 357.5808 295.488 
L 361.152 295.488 
L 364.7232 295.488 
L 368.2944 174.528 
L 371.8656 295.488 
L 375.4368 295.488 
L 379.008 174.528 
L 382.5792 295.488 
L 386.1504 174.528 
L 389.7216 295.488 
L 393.2928 295.488 
L 396.864 295.488 
L 400.4352 174.528 
L 404.0064 174.528 
L 407.5776 174.528 
L 411.1488 295.488 
" clip-path="url(#p6f50955fff)" style="fill: none; stroke: #ff7f0e; stroke-width: 1.5; stroke-linecap: square"/>
   </g>
   <g id="line2d_18">
    <path d="M 57.6 295.488 
L 61.1712 295.488 
L 64.7424 174.528 
L 68.3136 295.488 
L 71.8848 174.528 
L 75.456 295.488 
L 79.0272 174.528 
L 82.5984 174.528 
L 86.1696 295.488 
L 89.7408 174.528 
L 93.312 295.488 
L 96.8832 295.488 
L 100.4544 295.488 
L 104.0256 174.528 
L 107.5968 174.528 
L 111.168 295.488 
L 114.7392 174.528 
L 118.3104 174.528 
L 121.8816 295.488 
L 125.4528 295.488 
L 129.024 295.488 
L 132.5952 295.488 
L 136.1664 174.528 
L 139.7376 295.488 
L 143.3088 295.488 
L 146.88 295.488 
L 150.4512 174.528 
L 154.0224 295.488 
L 157.5936 174.528 
L 161.1648 295.488 
L 164.736 295.488 
L 168.3072 174.528 
L 171.8784 295.488 
L 175.4496 174.528 
L 179.0208 174.528 
L 182.592 295.488 
L 186.1632 295.488 
L 189.7344 174.528 
L 193.3056 295.488 
L 196.8768 295.488 
L 200.448 174.528 
L 204.0192 295.488 
L 207.5904 174.528 
L 211.1616 295.488 
L 214.7328 174.528 
L 218.304 295.488 
L 221.8752 174.528 
L 225.4464 295.488 
L 229.0176 295.488 
L 232.5888 53.568 
L 236.16 295.488 
L 239.7312 174.528 
L 243.3024 295.488 
L 246.8736 295.488 
L 250.4448 174.528 
L 254.016 174.528 
L 257.5872 295.488 
L 261.1584 174.528 
L 264.7296 295.488 
L 268.3008 295.488 
L 271.872 295.488 
L 275.4432 174.528 
L 279.0144 295.488 
L 282.5856 174.528 
L 286.1568 174.528 
L 289.728 295.488 
L 293.2992 295.488 
L 296.8704 295.488 
L 300.4416 174.528 
L 304.0128 295.488 
L 307.584 174.528 
L 311.1552 174.528 
L 314.7264 295.488 
L 318.2976 174.528 
L 321.8688 174.528 
L 325.44 295.488 
L 329.0112 174.528 
L 332.5824 295.488 
L 336.1536 174.528 
L 339.7248 295.488 
L 343.296 295.488 
L 346.8672 174.528 
L 350.4384 295.488 
L 354.0096 295.488 
L 357.5808 295.488 
L 361.152 174.528 
L 364.7232 295.488 
L 368.2944 295.488 
L 371.8656 295.488 
L 375.4368 174.528 
L 379.008 295.488 
L 382.5792 174.528 
L 386.1504 295.488 
L 389.7216 174.528 
L 393.2928 295.488 
L 396.864 295.488 
L 400.4352 295.488 
L 404.0064 174.528 
L 407.5776 295.488 
L 411.1488 295.488 
" clip-path="url(#p6f50955fff)" style="fill: none; stroke: #2ca02c; stroke-width: 1.5; stroke-linecap: square"/>
   </g>
   <g id="line2d_19">
    <path d="M 57.6 295.488 
L 61.1712 295.488 
L 64.7424 295.488 
L 68.3136 174.528 
L 71.8848 174.528 
L 75.456 295.488 
L 79.0272 174.528 
L 82.5984 295.488 
L 86.1696 295.488 
L 89.7408 174.528 
L 93.312 295.488 
L 96.8832 174.528 
L 100.4544 295.488 
L 104.0256 174.528 
L 107.5968 295.488 
L 111.168 174.528 
L 114.7392 295.488 
L 118.3104 295.488 
L 121.8816 174.528 
L 125.4528 295.488 
L 129.024 174.528 
L 132.5952 295.488 
L 136.1664 295.488 
L 139.7376 295.488 
L 143.3088 174.528 
L 146.88 295.488 
L 150.4512 174.528 
L 154.0224 295.488 
L 157.5936 295.488 
L 161.1648 295.488 
L 164.736 295.488 
L 168.3072 174.528 
L 171.8784 295.488 
L 175.4496 174.528 
L 179.0208 295.488 
L 182.592 295.488 
L 186.1632 174.528 
L 189.7344 295.488 
L 193.3056 295.488 
L 196.8768 174.528 
L 200.448 174.528 
L 204.0192 295.488 
L 207.5904 295.488 
L 211.1616 174.528 
L 214.7328 295.488 
L 218.304 174.528 
L 221.8752 174.528 
L 225.4464 174.528 
L 229.0176 295.488 
L 232.5888 295.488 
L 236.16 174.528 
L 239.7312 174.528 
L 243.3024 174.528 
L 246.8736 295.488 
L 250.4448 295.488 
L 254.016 295.488 
L 257.5872 295.488 
L 261.1584 174.528 
L 264.7296 295.488 
L 268.3008 295.488 
L 271.872 295.488 
L 275.4432 174.528 
L 279.0144 174.528 
L 282.5856 295.488 
L 286.1568 174.528 
L 289.728 295.488 
L 293.2992 174.528 
L 296.8704 295.488 
L 300.4416 174.528 
L 304.0128 295.488 
L 307.584 295.488 
L 311.1552 174.528 
L 314.7264 295.488 
L 318.2976 295.488 
L 321.8688 174.528 
L 325.44 295.488 
L 329.0112 295.488 
L 332.5824 174.528 
L 336.1536 295.488 
L 339.7248 295.488 
L 343.296 174.528 
L 346.8672 295.488 
L 350.4384 174.528 
L 354.0096 295.488 
L 357.5808 174.528 
L 361.152 295.488 
L 364.7232 174.528 
L 368.2944 295.488 
L 371.8656 295.488 
L 375.4368 295.488 
L 379.008 174.528 
L 382.5792 174.528 
L 386.1504 295.488 
L 389.7216 174.528 
L 393.2928 174.528 
L 396.864 295.488 
L 400.4352 295.488 
L 404.0064 174.528 
L 407.5776 295.488 
L 411.1488 174.528 
" clip-path="url(#p6f50955fff)" style="fill: none; stroke: #d62728; stroke-width: 1.5; stroke-linecap: square"/>
   </g>
   <g id="line2d_20">
    <path d="M 57.6 295.488 
L 61.1712 174.528 
L 64.7424 295.488 
L 68.3136 174.528 
L 71.8848 295.488 
L 75.456 295.488 
L 79.0272 295.488 
L 82.5984 295.488 
L 86.1696 174.528 
L 89.7408 295.488 
L 93.312 295.488 
L 96.8832 174.528 
L 100.4544 295.488 
L 104.0256 174.528 
L 107.5968 295.488 
L 111.168 295.488 
L 114.7392 174.528 
L 118.3104 295.488 
L 121.8816 174.528 
L 125.4528 295.488 
L 129.024 174.528 
L 132.5952 295.488 
L 136.1664 174.528 
L 139.7376 295.488 
L 143.3088 174.528 
L 146.88 174.528 
L 150.4512 295.488 
L 154.0224 295.488 
L 157.5936 174.528 
L 161.1648 295.488 
L 164.736 295.488 
L 168.3072 174.528 
L 171.8784 295.488 
L 175.4496 295.488 
L 179.0208 174.528 
L 182.592 174.528 
L 186.1632 295.488 
L 189.7344 174.528 
L 193.3056 295.488 
L 196.8768 295.488 
L 200.448 174.528 
L 204.0192 295.488 
L 207.5904 295.488 
L 211.1616 174.528 
L 214.7328 295.488 
L 218.304 174.528 
L 221.8752 295.488 
L 225.4464 174.528 
L 229.0176 295.488 
L 232.5888 295.488 
L 236.16 174.528 
L 239.7312 295.488 
L 243.3024 295.488 
L 246.8736 295.488 
L 250.4448 174.528 
L 254.016 174.528 
L 257.5872 295.488 
L 261.1584 174.528 
L 264.7296 295.488 
L 268.3008 295.488 
L 271.872 295.488 
L 275.4432 174.528 
L 279.0144 295.488 
L 282.5856 174.528 
L 286.1568 295.488 
L 289.728 295.488 
L 293.2992 295.488 
L 296.8704 295.488 
L 300.4416 295.488 
L 304.0128 174.528 
L 307.584 295.488 
L 311.1552 295.488 
L 314.7264 295.488 
L 318.2976 295.488 
L 321.8688 295.488 
L 325.44 174.528 
L 329.0112 295.488 
L 332.5824 295.488 
L 336.1536 174.528 
L 339.7248 295.488 
L 343.296 295.488 
L 346.8672 295.488 
L 350.4384 174.528 
L 354.0096 295.488 
L 357.5808 174.528 
L 361.152 295.488 
L 364.7232 174.528 
L 368.2944 295.488 
L 371.8656 295.488 
L 375.4368 295.488 
L 379.008 174.528 
L 382.5792 295.488 
L 386.1504 174.528 
L 389.7216 295.488 
L 393.2928 174.528 
L 396.864 295.488 
L 400.4352 295.488 
L 404.0064 174.528 
L 407.5776 174.528 
L 411.1488 295.488 
" clip-path="url(#p6f50955fff)" style="fill: none; stroke: #9467bd; stroke-width: 1.5; stroke-linecap: square"/>
   </g>
   <g id="line2d_21">
    <path d="M 57.6 174.528 
L 61.1712 295.488 
L 64.7424 174.528 
L 68.3136 295.488 
L 71.8848 174.528 
L 75.456 295.488 
L 79.0272 174.528 
L 82.5984 295.488 
L 86.1696 295.488 
L 89.7408 295.488 
L 93.312 295.488 
L 96.8832 295.488 
L 100.4544 174.528 
L 104.0256 295.488 
L 107.5968 174.528 
L 111.168 295.488 
L 114.7392 174.528 
L 118.3104 295.488 
L 121.8816 174.528 
L 125.4528 174.528 
L 129.024 295.488 
L 132.5952 174.528 
L 136.1664 295.488 
L 139.7376 174.528 
L 143.3088 295.488 
L 146.88 174.528 
L 150.4512 295.488 
L 154.0224 295.488 
L 157.5936 174.528 
L 161.1648 295.488 
L 164.736 295.488 
L 168.3072 174.528 
L 171.8784 295.488 
L 175.4496 295.488 
L 179.0208 295.488 
L 182.592 295.488 
L 186.1632 295.488 
L 189.7344 174.528 
L 193.3056 295.488 
L 196.8768 174.528 
L 200.448 295.488 
L 204.0192 174.528 
L 207.5904 295.488 
L 211.1616 295.488 
L 214.7328 174.528 
L 218.304 295.488 
L 221.8752 174.528 
L 225.4464 174.528 
L 229.0176 174.528 
L 232.5888 295.488 
L 236.16 174.528 
L 239.7312 295.488 
L 243.3024 295.488 
L 246.8736 174.528 
L 250.4448 295.488 
L 254.016 295.488 
L 257.5872 174.528 
L 261.1584 295.488 
L 264.7296 174.528 
L 268.3008 295.488 
L 271.872 295.488 
L 275.4432 295.488 
L 279.0144 295.488 
L 282.5856 295.488 
L 286.1568 295.488 
L 289.728 174.528 
L 293.2992 295.488 
L 296.8704 295.488 
L 300.4416 174.528 
L 304.0128 174.528 
L 307.584 295.488 
L 311.1552 295.488 
L 314.7264 295.488 
L 318.2976 295.488 
L 321.8688 174.528 
L 325.44 295.488 
L 329.0112 295.488 
L 332.5824 174.528 
L 336.1536 295.488 
L 339.7248 295.488 
L 343.296 174.528 
L 346.8672 174.528 
L 350.4384 174.528 
L 354.0096 295.488 
L 357.5808 295.488 
L 361.152 174.528 
L 364.7232 295.488 
L 368.2944 295.488 
L 371.8656 295.488 
L 375.4368 295.488 
L 379.008 295.488 
L 382.5792 295.488 
L 386.1504 295.488 
L 389.7216 174.528 
L 393.2928 174.528 
L 396.864 295.488 
L 400.4352 174.528 
L 404.0064 295.488 
L 407.5776 174.528 
L 411.1488 295.488 
" clip-path="url(#p6f50955fff)" style="fill: none; stroke: #8c564b; stroke-width: 1.5; stroke-linecap: square"/>
   </g>
   <g id="line2d_22">
    <path d="M 57.6 295.488 
L 61.1712 295.488 
L 64.7424 295.488 
L 68.3136 174.528 
L 71.8848 295.488 
L 75.456 174.528 
L 79.0272 295.488 
L 82.5984 295.488 
L 86.1696 174.528 
L 89.7408 295.488 
L 93.312 174.528 
L 96.8832 174.528 
L 100.4544 295.488 
L 104.0256 295.488 
L 107.5968 174.528 
L 111.168 295.488 
L 114.7392 174.528 
L 118.3104 295.488 
L 121.8816 174.528 
L 125.4528 174.528 
L 129.024 295.488 
L 132.5952 295.488 
L 136.1664 174.528 
L 139.7376 295.488 
L 143.3088 295.488 
L 146.88 174.528 
L 150.4512 174.528 
L 154.0224 295.488 
L 157.5936 295.488 
L 161.1648 295.488 
L 164.736 295.488 
L 168.3072 174.528 
L 171.8784 174.528 
L 175.4496 295.488 
L 179.0208 174.528 
L 182.592 174.528 
L 186.1632 295.488 
L 189.7344 295.488 
L 193.3056 174.528 
L 196.8768 295.488 
L 200.448 174.528 
L 204.0192 295.488 
L 207.5904 174.528 
L 211.1616 174.528 
L 214.7328 174.528 
L 218.304 174.528 
L 221.8752 295.488 
L 225.4464 174.528 
L 229.0176 295.488 
L 232.5888 295.488 
L 236.16 174.528 
L 239.7312 295.488 
L 243.3024 295.488 
L 246.8736 174.528 
L 250.4448 174.528 
L 254.016 295.488 
L 257.5872 295.488 
L 261.1584 174.528 
L 264.7296 295.488 
L 268.3008 174.528 
L 271.872 295.488 
L 275.4432 295.488 
L 279.0144 295.488 
L 282.5856 174.528 
L 286.1568 295.488 
L 289.728 295.488 
L 293.2992 295.488 
L 296.8704 174.528 
L 300.4416 295.488 
L 304.0128 174.528 
L 307.584 295.488 
L 311.1552 295.488 
L 314.7264 295.488 
L 318.2976 295.488 
L 321.8688 295.488 
L 325.44 174.528 
L 329.0112 295.488 
L 332.5824 295.488 
L 336.1536 174.528 
L 339.7248 295.488 
L 343.296 174.528 
L 346.8672 295.488 
L 350.4384 295.488 
L 354.0096 174.528 
L 357.5808 295.488 
L 361.152 295.488 
L 364.7232 174.528 
L 368.2944 295.488 
L 371.8656 295.488 
L 375.4368 174.528 
L 379.008 295.488 
L 382.5792 174.528 
L 386.1504 295.488 
L 389.7216 295.488 
L 393.2928 295.488 
L 396.864 295.488 
L 400.4352 295.488 
L 404.0064 295.488 
L 407.5776 174.528 
L 411.1488 174.528 
" clip-path="url(#p6f50955fff)" style="fill: none; stroke: #e377c2; stroke-width: 1.5; stroke-linecap: square"/>
   </g>
   <g id="line2d_23">
    <path d="M 57.6 295.488 
L 61.1712 295.488 
L 64.7424 295.488 
L 68.3136 174.528 
L 71.8848 295.488 
L 75.456 174.528 
L 79.0272 295.488 
L 82.5984 174.528 
L 86.1696 295.488 
L 89.7408 295.488 
L 93.312 174.528 
L 96.8832 295.488 
L 100.4544 295.488 
L 104.0256 295.488 
L 107.5968 174.528 
L 111.168 295.488 
L 114.7392 295.488 
L 118.3104 174.528 
L 121.8816 295.488 
L 125.4528 295.488 
L 129.024 174.528 
L 132.5952 295.488 
L 136.1664 174.528 
L 139.7376 295.488 
L 143.3088 174.528 
L 146.88 295.488 
L 150.4512 295.488 
L 154.0224 174.528 
L 157.5936 295.488 
L 161.1648 295.488 
L 164.736 174.528 
L 168.3072 295.488 
L 171.8784 295.488 
L 175.4496 174.528 
L 179.0208 295.488 
L 182.592 295.488 
L 186.1632 174.528 
L 189.7344 295.488 
L 193.3056 295.488 
L 196.8768 174.528 
L 200.448 295.488 
L 204.0192 295.488 
L 207.5904 174.528 
L 211.1616 295.488 
L 214.7328 174.528 
L 218.304 295.488 
L 221.8752 295.488 
L 225.4464 174.528 
L 229.0176 295.488 
L 232.5888 295.488 
L 236.16 174.528 
L 239.7312 295.488 
L 243.3024 295.488 
L 246.8736 174.528 
L 250.4448 295.488 
L 254.016 174.528 
L 257.5872 295.488 
L 261.1584 174.528 
L 264.7296 295.488 
L 268.3008 174.528 
L 271.872 295.488 
L 275.4432 174.528 
L 279.0144 295.488 
L 282.5856 174.528 
L 286.1568 295.488 
L 289.728 174.528 
L 293.2992 295.488 
L 296.8704 295.488 
L 300.4416 174.528 
L 304.0128 295.488 
L 307.584 295.488 
L 311.1552 295.488 
L 314.7264 174.528 
L 318.2976 295.488 
L 321.8688 295.488 
L 325.44 295.488 
L 329.0112 174.528 
L 332.5824 174.528 
L 336.1536 295.488 
L 339.7248 295.488 
L 343.296 295.488 
L 346.8672 295.488 
L 350.4384 174.528 
L 354.0096 295.488 
L 357.5808 174.528 
L 361.152 295.488 
L 364.7232 295.488 
L 368.2944 295.488 
L 371.8656 174.528 
L 375.4368 295.488 
L 379.008 174.528 
L 382.5792 295.488 
L 386.1504 174.528 
L 389.7216 295.488 
L 393.2928 174.528 
L 396.864 295.488 
L 400.4352 174.528 
L 404.0064 174.528 
L 407.5776 295.488 
L 411.1488 295.488 
" clip-path="url(#p6f50955fff)" style="fill: none; stroke: #7f7f7f; stroke-width: 1.5; stroke-linecap: square"/>
   </g>
   <g id="line2d_24">
    <path d="M 57.6 295.488 
L 61.1712 174.528 
L 64.7424 174.528 
L 68.3136 295.488 
L 71.8848 174.528 
L 75.456 295.488 
L 79.0272 295.488 
L 82.5984 174.528 
L 86.1696 295.488 
L 89.7408 295.488 
L 93.312 295.488 
L 96.8832 295.488 
L 100.4544 174.528 
L 104.0256 174.528 
L 107.5968 295.488 
L 111.168 174.528 
L 114.7392 295.488 
L 118.3104 295.488 
L 121.8816 174.528 
L 125.4528 295.488 
L 129.024 295.488 
L 132.5952 295.488 
L 136.1664 295.488 
L 139.7376 295.488 
L 143.3088 174.528 
L 146.88 295.488 
L 150.4512 174.528 
L 154.0224 295.488 
L 157.5936 174.528 
L 161.1648 295.488 
L 164.736 174.528 
L 168.3072 295.488 
L 171.8784 295.488 
L 175.4496 174.528 
L 179.0208 295.488 
L 182.592 174.528 
L 186.1632 295.488 
L 189.7344 174.528 
L 193.3056 295.488 
L 196.8768 295.488 
L 200.448 174.528 
L 204.0192 295.488 
L 207.5904 295.488 
L 211.1616 295.488 
L 214.7328 174.528 
L 218.304 295.488 
L 221.8752 295.488 
L 225.4464 295.488 
L 229.0176 174.528 
L 232.5888 295.488 
L 236.16 174.528 
L 239.7312 174.528 
L 243.3024 295.488 
L 246.8736 174.528 
L 250.4448 295.488 
L 254.016 295.488 
L 257.5872 295.488 
L 261.1584 174.528 
L 264.7296 174.528 
L 268.3008 295.488 
L 271.872 174.528 
L 275.4432 295.488 
L 279.0144 174.528 
L 282.5856 295.488 
L 286.1568 174.528 
L 289.728 174.528 
L 293.2992 295.488 
L 296.8704 295.488 
L 300.4416 174.528 
L 304.0128 295.488 
L 307.584 295.488 
L 311.1552 174.528 
L 314.7264 174.528 
L 318.2976 174.528 
L 321.8688 174.528 
L 325.44 295.488 
L 329.0112 174.528 
L 332.5824 295.488 
L 336.1536 174.528 
L 339.7248 295.488 
L 343.296 174.528 
L 346.8672 295.488 
L 350.4384 174.528 
L 354.0096 295.488 
L 357.5808 295.488 
L 361.152 174.528 
L 364.7232 174.528 
L 368.2944 295.488 
L 371.8656 295.488 
L 375.4368 174.528 
L 379.008 174.528 
L 382.5792 295.488 
L 386.1504 295.488 
L 389.7216 174.528 
L 393.2928 295.488 
L 396.864 174.528 
L 400.4352 295.488 
L 404.0064 174.528 
L 407.5776 295.488 
L 411.1488 295.488 
" clip-path="url(#p6f50955fff)" style="fill: none; stroke: #bcbd22; stroke-width: 1.5; stroke-linecap: square"/>
   </g>
   <g id="line2d_25">
    <path d="M 57.6 295.488 
L 61.1712 295.488 
L 64.7424 174.528 
L 68.3136 295.488 
L 71.8848 174.528 
L 75.456 295.488 
L 79.0272 174.528 
L 82.5984 295.488 
L 86.1696 174.528 
L 89.7408 295.488 
L 93.312 295.488 
L 96.8832 174.528 
L 100.4544 295.488 
L 104.0256 295.488 
L 107.5968 174.528 
L 111.168 174.528 
L 114.7392 174.528 
L 118.3104 295.488 
L 121.8816 295.488 
L 125.4528 295.488 
L 129.024 174.528 
L 132.5952 174.528 
L 136.1664 295.488 
L 139.7376 174.528 
L 143.3088 295.488 
L 146.88 295.488 
L 150.4512 174.528 
L 154.0224 295.488 
L 157.5936 295.488 
L 161.1648 295.488 
L 164.736 174.528 
L 168.3072 174.528 
L 171.8784 295.488 
L 175.4496 295.488 
L 179.0208 295.488 
L 182.592 295.488 
L 186.1632 174.528 
L 189.7344 295.488 
L 193.3056 174.528 
L 196.8768 295.488 
L 200.448 295.488 
L 204.0192 295.488 
L 207.5904 174.528 
L 211.1616 174.528 
L 214.7328 295.488 
L 218.304 174.528 
L 221.8752 295.488 
L 225.4464 174.528 
L 229.0176 295.488 
L 232.5888 295.488 
L 236.16 295.488 
L 239.7312 174.528 
L 243.3024 295.488 
L 246.8736 174.528 
L 250.4448 295.488 
L 254.016 295.488 
L 257.5872 174.528 
L 261.1584 295.488 
L 264.7296 295.488 
L 268.3008 174.528 
L 271.872 295.488 
L 275.4432 295.488 
L 279.0144 295.488 
L 282.5856 295.488 
L 286.1568 174.528 
L 289.728 295.488 
L 293.2992 174.528 
L 296.8704 295.488 
L 300.4416 295.488 
L 304.0128 295.488 
L 307.584 174.528 
L 311.1552 295.488 
L 314.7264 174.528 
L 318.2976 295.488 
L 321.8688 295.488 
L 325.44 174.528 
L 329.0112 174.528 
L 332.5824 295.488 
L 336.1536 295.488 
L 339.7248 295.488 
L 343.296 295.488 
L 346.8672 174.528 
L 350.4384 295.488 
L 354.0096 174.528 
L 357.5808 174.528 
L 361.152 295.488 
L 364.7232 295.488 
L 368.2944 174.528 
L 371.8656 174.528 
L 375.4368 295.488 
L 379.008 174.528 
L 382.5792 295.488 
L 386.1504 174.528 
L 389.7216 295.488 
L 393.2928 295.488 
L 396.864 295.488 
L 400.4352 174.528 
L 404.0064 174.528 
L 407.5776 295.488 
L 411.1488 295.488 
" clip-path="url(#p6f50955fff)" style="fill: none; stroke: #17becf; stroke-width: 1.5; stroke-linecap: square"/>
   </g>
   <g id="line2d_26">
    <path d="M 57.6 282.0096 
L 61.1712 262.3104 
L 64.7424 246.0672 
L 68.3136 230.8608 
L 71.8848 235.3536 
L 75.456 245.7216 
L 79.0272 253.3248 
L 82.5984 245.0304 
L 86.1696 249.1776 
L 89.7408 261.2736 
L 93.312 261.9648 
L 96.8832 259.5456 
L 100.4544 248.832 
L 104.0256 237.0816 
L 107.5968 232.2432 
L 111.168 229.4784 
L 114.7392 247.7952 
L 118.3104 242.2656 
L 121.8816 245.7216 
L 125.4528 234.6624 
L 129.024 259.5456 
L 132.5952 248.4864 
L 136.1664 252.9792 
L 139.7376 243.3024 
L 143.3088 257.8176 
L 146.88 236.3904 
L 150.4512 248.832 
L 154.0224 245.376 
L 157.5936 274.0608 
L 161.1648 270.6048 
L 164.736 253.3248 
L 168.3072 240.5376 
L 171.8784 245.376 
L 175.4496 255.744 
L 179.0208 246.7584 
L 182.592 254.3616 
L 186.1632 237.7728 
L 189.7344 234.3168 
L 193.3056 245.0304 
L 196.8768 244.6848 
L 200.448 247.7952 
L 204.0192 250.56 
L 207.5904 255.3984 
L 211.1616 230.8608 
L 214.7328 231.2064 
L 218.304 242.9568 
L 221.8752 235.6992 
L 225.4464 231.552 
L 229.0176 251.9424 
L 232.5888 254.7072 
L 236.16 230.5152 
L 239.7312 237.0816 
L 243.3024 248.4864 
L 246.8736 247.7952 
L 250.4448 245.7216 
L 254.016 265.4208 
L 257.5872 247.7952 
L 261.1584 237.4272 
L 264.7296 239.8464 
L 268.3008 263.3472 
L 271.872 261.9648 
L 275.4432 258.5088 
L 279.0144 251.9424 
L 282.5856 247.104 
L 286.1568 240.192 
L 289.728 239.8464 
L 293.2992 262.656 
L 296.8704 255.3984 
L 300.4416 250.9056 
L 304.0128 245.7216 
L 307.584 258.1632 
L 311.1552 252.288 
L 314.7264 261.2736 
L 318.2976 258.8544 
L 321.8688 248.4864 
L 325.44 241.92 
L 329.0112 243.9936 
L 332.5824 238.1184 
L 336.1536 256.4352 
L 339.7248 260.5824 
L 343.296 259.8912 
L 346.8672 235.3536 
L 350.4384 248.832 
L 354.0096 249.5232 
L 357.5808 257.472 
L 361.152 243.9936 
L 364.7232 249.1776 
L 368.2944 260.2368 
L 371.8656 270.2592 
L 375.4368 246.7584 
L 379.008 236.736 
L 382.5792 235.3536 
L 386.1504 249.5232 
L 389.7216 234.6624 
L 393.2928 255.744 
L 396.864 260.5824 
L 400.4352 238.1184 
L 404.0064 214.272 
L 407.5776 229.4784 
L 411.1488 277.5168 
" clip-path="url(#p6f50955fff)" style="fill: none; stroke: #cccccc; stroke-width: 4; stroke-linecap: square"/>
   </g>
   <g id="patch_3">
    <path d="M 57.6 307.584 
L 57.6 41.472 
" style="fill: none; stroke: #000000; stroke-width: 0.8; stroke-linejoin: miter; stroke-linecap: square"/>
   </g>
   <g id="patch_4">
    <path d="M 414.72 307.584 
L 414.72 41.472 
" style="fill: none; stroke: #000000; stroke-width: 0.8; stroke-linejoin: miter; stroke-linecap: square"/>
   </g>
   <g id="patch_5">
    <path d="M 57.6 307.584 
L 414.72 307.584 
" style="fill: none; stroke: #000000; stroke-width: 0.8; stroke-linejoin: miter; stroke-linecap: square"/>
   </g>
   <g id="patch_6">
    <path d="M 57.6 41.472 
L 414.72 41.472 
" style="fill: none; stroke: #000000; stroke-width: 0.8; stroke-linejoin: miter; stroke-linecap: square"/>
   </g>
   <g id="legend_1">
    <g id="patch_7">
     <path d="M 324.9825 64.150125 
L 407.72 64.150125 
Q 409.72 64.150125 409.72 62.150125 
L 409.72 48.472 
Q 409.72 46.472 407.72 46.472 
L 324.9825 46.472 
Q 322.9825 46.472 322.9825 48.472 
L 322.9825 62.150125 
Q 322.9825 64.150125 324.9825 64.150125 
z
" style="fill: #ffffff; opacity: 0.8; stroke: #cccccc; stroke-linejoin: miter"/>
    </g>
    <g id="line2d_27">
     <path d="M 326.9825 54.570438 
L 336.9825 54.570438 
L 346.9825 54.570438 
" style="fill: none; stroke: #cccccc; stroke-width: 4; stroke-linecap: square"/>
    </g>
    <g id="text_18">
     <!-- Mean rate -->
     <g transform="translate(354.9825 58.070438) scale(0.1 -0.1)">
      <defs>
       <path id="DejaVuSans-4d" d="M 628 4666 
L 1569 4666 
L 2759 1491 
L 3956 4666 
L 4897 4666 
L 4897 0 
L 4281 0 
L 4281 4097 
L 3078 897 
L 2444 897 
L 1241 4097 
L 1241 0 
L 628 0 
L 628 4666 
z
" transform="scale(0.015625)"/>
       <path id="DejaVuSans-6e" d="M 3513 2113 
L 3513 0 
L 2938 0 
L 2938 2094 
Q 2938 2591 2744 2837 
Q 2550 3084 2163 3084 
Q 1697 3084 1428 2787 
Q 1159 2491 1159 1978 
L 1159 0 
L 581 0 
L 581 3500 
L 1159 3500 
L 1159 2956 
Q 1366 3272 1645 3428 
Q 1925 3584 2291 3584 
Q 2894 3584 3203 3211 
Q 3513 2838 3513 2113 
z
" transform="scale(0.015625)"/>
       <path id="DejaVuSans-72" d="M 2631 2963 
Q 2534 3019 2420 3045 
Q 2306 3072 2169 3072 
Q 1681 3072 1420 2755 
Q 1159 2438 1159 1844 
L 1159 0 
L 581 0 
L 581 3500 
L 1159 3500 
L 1159 2956 
Q 1341 3275 1631 3429 
Q 1922 3584 2338 3584 
Q 2397 3584 2469 3576 
Q 2541 3569 2628 3553 
L 2631 2963 
z
" transform="scale(0.015625)"/>
      </defs>
      <use xlink:href="#DejaVuSans-4d"/>
      <use xlink:href="#DejaVuSans-65" x="86.279297"/>
      <use xlink:href="#DejaVuSans-61" x="147.802734"/>
      <use xlink:href="#DejaVuSans-6e" x="209.082031"/>
      <use xlink:href="#DejaVuSans-20" x="272.460938"/>
      <use xlink:href="#DejaVuSans-72" x="304.248047"/>
      <use xlink:href="#DejaVuSans-61" x="345.361328"/>
      <use xlink:href="#DejaVuSans-74" x="406.640625"/>
      <use xlink:href="#DejaVuSans-65" x="445.849609"/>
     </g>
    </g>
   </g>
  </g>
 </g>
 <defs>
  <clipPath id="p6f50955fff">
   <rect x="57.6" y="41.472" width="357.12" height="266.112"/>
  </clipPath>
 </defs>
</svg>
