<?xml version="1.0" encoding="utf-8" standalone="no"?>
<!DOCTYPE svg PUBLIC "-//W3C//DTD SVG 1.1//EN"
  "http://www.w3.org/Graphics/SVG/1.1/DTD/svg11.dtd">
<svg xmlns:xlink="http://www.w3.org/1999/xlink" width="460.8pt" height="345.6pt" viewBox="0 0 460.8 345.6" xmlns="http://www.w3.org/2000/svg" version="1.1">
 <metadata>
  <rdf:RDF xmlns:dc="http://purl.org/dc/elements/1.1/" xmlns:cc="http://creativecommons.org/ns#" xmlns:rdf="http://www.w3.org/1999/02/22-rdf-syntax-ns#">
   <cc:Work>
    <dc:type rdf:resource="http://purl.org/dc/dcmitype/StillImage"/>
    <dc:date>2024-10-08T11:34:44.762762</dc:date>
    <dc:format>image/svg+xml</dc:format>
    <dc:creator>
     <cc:Agent>
      <dc:title>Matplotlib v3.8.3, https://matplotlib.org/</dc:title>
     </cc:Agent>
    </dc:creator>
   </cc:Work>
  </rdf:RDF>
 </metadata>
 <defs>
  <style type="text/css">*{stroke-linejoin: round; stroke-linecap: butt}</style>
 </defs>
 <g id="figure_1">
  <g id="patch_1">
   <path d="M 0 345.6 
L 460.8 345.6 
L 460.8 0 
L 0 0 
z
" style="fill: #ffffff"/>
  </g>
  <g id="axes_1">
   <g id="patch_2">
    <path d="M 297.329683 206.42039 
Q 232.658941 154.878372 168.862518 104.033179 
" clip-path="url(#p1a08a9cb33)" style="fill: none; stroke: #000000; stroke-linecap: round"/>
    <path d="M 170.74406 108.090246 
L 168.862518 104.033179 
L 173.237097 104.962185 
z
" clip-path="url(#p1a08a9cb33)" style="stroke: #000000; stroke-linecap: round"/>
   </g>
   <g id="patch_3">
    <path d="M 311.867758 207.976626 
Q 343.919464 192.112506 374.969155 176.744338 
" clip-path="url(#p1a08a9cb33)" style="fill: none; stroke: #000000; stroke-linecap: round"/>
    <path d="M 370.497056 176.726248 
L 374.969155 176.744338 
L 372.271424 180.311164 
z
" clip-path="url(#p1a08a9cb33)" style="stroke: #000000; stroke-linecap: round"/>
   </g>
   <g id="patch_4">
    <path d="M 295.474674 212.542944 
Q 266.522585 214.97059 238.68462 217.304817 
" clip-path="url(#p1a08a9cb33)" style="fill: none; stroke: #000000; stroke-linecap: round"/>
    <path d="M 242.837747 218.963594 
L 238.68462 217.304817 
L 242.503518 214.977582 
z
" clip-path="url(#p1a08a9cb33)" style="stroke: #000000; stroke-linecap: round"/>
   </g>
   <g id="patch_5">
    <path d="M 295.471177 212.512337 
Q 230.935167 217.692705 167.513608 222.783614 
" clip-path="url(#p1a08a9cb33)" style="fill: none; stroke: #000000; stroke-linecap: round"/>
    <path d="M 171.66081 224.457148 
L 167.513608 222.783614 
L 171.340756 220.469972 
z
" clip-path="url(#p1a08a9cb33)" style="stroke: #000000; stroke-linecap: round"/>
   </g>
   <g id="patch_6">
    <path d="M 105.87671 103.127596 
Q 129.234497 100.937299 151.479133 98.851384 
" clip-path="url(#p1a08a9cb33)" style="fill: none; stroke: #000000; stroke-linecap: round"/>
    <path d="M 147.30988 97.233567 
L 151.479133 98.851384 
L 147.683328 101.216096 
z
" clip-path="url(#p1a08a9cb33)" style="stroke: #000000; stroke-linecap: round"/>
   </g>
   <g id="patch_7">
    <path d="M 103.797496 109.611046 
Q 163.097307 161.029315 221.55241 211.715144 
" clip-path="url(#p1a08a9cb33)" style="fill: none; stroke: #000000; stroke-linecap: round"/>
    <path d="M 219.840513 207.58363 
L 221.55241 211.715144 
L 217.22006 210.605754 
z
" clip-path="url(#p1a08a9cb33)" style="stroke: #000000; stroke-linecap: round"/>
   </g>
   <g id="patch_8">
    <path d="M 101.162169 111.665051 
Q 127.508111 163.751657 153.349422 214.840592 
" clip-path="url(#p1a08a9cb33)" style="fill: none; stroke: #000000; stroke-linecap: round"/>
    <path d="M 153.328683 210.368505 
L 153.349422 214.840592 
L 149.759308 212.173931 
z
" clip-path="url(#p1a08a9cb33)" style="stroke: #000000; stroke-linecap: round"/>
   </g>
   <g id="patch_9">
    <path d="M 96.546189 112.564487 
Q 92.921382 156.821574 89.387841 199.964359 
" clip-path="url(#p1a08a9cb33)" style="fill: none; stroke: #000000; stroke-linecap: round"/>
    <path d="M 91.707686 196.140969 
L 89.387841 199.964359 
L 87.721036 195.814448 
z
" clip-path="url(#p1a08a9cb33)" style="stroke: #000000; stroke-linecap: round"/>
   </g>
   <g id="patch_10">
    <path d="M 169.366603 95.010235 
Q 207.668488 81.25115 244.918169 67.870046 
" clip-path="url(#p1a08a9cb33)" style="fill: none; stroke: #000000; stroke-linecap: round"/>
    <path d="M 240.477542 67.340111 
L 244.918169 67.870046 
L 241.829845 71.104586 
z
" clip-path="url(#p1a08a9cb33)" style="stroke: #000000; stroke-linecap: round"/>
   </g>
   <g id="patch_11">
    <path d="M 160.977294 106.599096 
Q 159.489074 160.754615 158.031567 213.792522 
" clip-path="url(#p1a08a9cb33)" style="fill: none; stroke: #000000; stroke-linecap: round"/>
    <path d="M 160.140692 209.848971 
L 158.031567 213.792522 
L 156.142202 209.739091 
z
" clip-path="url(#p1a08a9cb33)" style="stroke: #000000; stroke-linecap: round"/>
   </g>
   <g id="patch_12">
    <path d="M 156.496673 105.200334 
Q 124.902588 153.823415 93.917671 201.508992 
" clip-path="url(#p1a08a9cb33)" style="fill: none; stroke: #000000; stroke-linecap: round"/>
    <path d="M 97.774155 199.244585 
L 93.917671 201.508992 
L 94.420036 197.065161 
z
" clip-path="url(#p1a08a9cb33)" style="stroke: #000000; stroke-linecap: round"/>
   </g>
   <g id="patch_13">
    <path d="M 156.496673 105.200334 
Q 124.902588 153.823415 93.917671 201.508992 
" clip-path="url(#p1a08a9cb33)" style="fill: none; stroke: #000000; stroke-linecap: round"/>
    <path d="M 97.774155 199.244585 
L 93.917671 201.508992 
L 94.420036 197.065161 
z
" clip-path="url(#p1a08a9cb33)" style="stroke: #000000; stroke-linecap: round"/>
   </g>
   <g id="patch_14">
    <path d="M 375.966387 176.250754 
Q 343.914682 192.114873 312.86499 207.483042 
" clip-path="url(#p1a08a9cb33)" style="fill: none; stroke: #000000; stroke-linecap: round"/>
    <path d="M 317.33709 207.501131 
L 312.86499 207.483042 
L 315.562722 203.916216 
z
" clip-path="url(#p1a08a9cb33)" style="stroke: #000000; stroke-linecap: round"/>
   </g>
   <g id="patch_15">
    <path d="M 377.60595 178.527312 
Q 327.643881 228.448707 278.472703 277.579854 
" clip-path="url(#p1a08a9cb33)" style="fill: none; stroke: #000000; stroke-linecap: round"/>
    <path d="M 282.715919 276.167368 
L 278.472703 277.579854 
L 279.888644 273.337789 
z
" clip-path="url(#p1a08a9cb33)" style="stroke: #000000; stroke-linecap: round"/>
   </g>
   <g id="patch_16">
    <path d="M 377.071366 166.867388 
Q 318.925916 118.486687 261.639899 70.821089 
" clip-path="url(#p1a08a9cb33)" style="fill: none; stroke: #000000; stroke-linecap: round"/>
    <path d="M 263.435488 74.916924 
L 261.639899 70.821089 
L 265.99392 71.842119 
z
" clip-path="url(#p1a08a9cb33)" style="stroke: #000000; stroke-linecap: round"/>
   </g>
   <g id="patch_17">
    <path d="M 377.071366 166.867388 
Q 318.925916 118.486687 261.639899 70.821089 
" clip-path="url(#p1a08a9cb33)" style="fill: none; stroke: #000000; stroke-linecap: round"/>
    <path d="M 263.435488 74.916924 
L 261.639899 70.821089 
L 265.99392 71.842119 
z
" clip-path="url(#p1a08a9cb33)" style="stroke: #000000; stroke-linecap: round"/>
   </g>
   <g id="patch_18">
    <path d="M 234.943804 211.879146 
Q 258.149399 187.745836 280.580065 164.418433 
" clip-path="url(#p1a08a9cb33)" style="fill: none; stroke: #000000; stroke-linecap: round"/>
    <path d="M 276.365949 165.915504 
L 280.580065 164.418433 
L 279.249252 168.687969 
z
" clip-path="url(#p1a08a9cb33)" style="stroke: #000000; stroke-linecap: round"/>
   </g>
   <g id="patch_19">
    <path d="M 234.943804 211.879146 
Q 258.149399 187.745836 280.580065 164.418433 
" clip-path="url(#p1a08a9cb33)" style="fill: none; stroke: #000000; stroke-linecap: round"/>
    <path d="M 276.365949 165.915504 
L 280.580065 164.418433 
L 279.249252 168.687969 
z
" clip-path="url(#p1a08a9cb33)" style="stroke: #000000; stroke-linecap: round"/>
   </g>
   <g id="patch_20">
    <path d="M 233.620245 225.40937 
Q 250.248084 251.306544 266.271861 276.262915 
" clip-path="url(#p1a08a9cb33)" style="fill: none; stroke: #000000; stroke-linecap: round"/>
    <path d="M 265.79366 271.81642 
L 266.271861 276.262915 
L 262.427744 273.977579 
z
" clip-path="url(#p1a08a9cb33)" style="stroke: #000000; stroke-linecap: round"/>
   </g>
   <g id="patch_21">
    <path d="M 230.341924 209.578869 
Q 241.530521 141.344428 252.538208 74.213288 
" clip-path="url(#p1a08a9cb33)" style="fill: none; stroke: #000000; stroke-linecap: round"/>
    <path d="M 249.917316 77.83695 
L 252.538208 74.213288 
L 253.864603 78.484198 
z
" clip-path="url(#p1a08a9cb33)" style="stroke: #000000; stroke-linecap: round"/>
   </g>
   <g id="patch_22">
    <path d="M 279.020132 155.023533 
Q 192.303757 130.651144 106.663713 106.581266 
" clip-path="url(#p1a08a9cb33)" style="fill: none; stroke: #000000; stroke-linecap: round"/>
    <path d="M 109.973359 109.588963 
L 106.663713 106.581266 
L 111.055658 105.738168 
z
" clip-path="url(#p1a08a9cb33)" style="stroke: #000000; stroke-linecap: round"/>
   </g>
   <g id="patch_23">
    <path d="M 295.915277 158.702739 
Q 335.544302 164.887631 374.068665 170.900119 
" clip-path="url(#p1a08a9cb33)" style="fill: none; stroke: #000000; stroke-linecap: round"/>
    <path d="M 370.424914 168.307228 
L 374.068665 170.900119 
L 369.808102 172.259385 
z
" clip-path="url(#p1a08a9cb33)" style="stroke: #000000; stroke-linecap: round"/>
   </g>
   <g id="patch_24">
    <path d="M 295.915277 158.702739 
Q 335.544302 164.887631 374.068665 170.900119 
" clip-path="url(#p1a08a9cb33)" style="fill: none; stroke: #000000; stroke-linecap: round"/>
    <path d="M 370.424914 168.307228 
L 374.068665 170.900119 
L 369.808102 172.259385 
z
" clip-path="url(#p1a08a9cb33)" style="stroke: #000000; stroke-linecap: round"/>
   </g>
   <g id="patch_25">
    <path d="M 286.291604 165.960647 
Q 279.457485 220.930623 272.761303 274.791107 
" clip-path="url(#p1a08a9cb33)" style="fill: none; stroke: #000000; stroke-linecap: round"/>
    <path d="M 275.239523 271.068416 
L 272.761303 274.791107 
L 271.270082 270.574917 
z
" clip-path="url(#p1a08a9cb33)" style="stroke: #000000; stroke-linecap: round"/>
   </g>
   <g id="patch_26">
    <path d="M 275.09344 276.591899 
Q 287.828897 248.157064 300.107349 220.742595 
" clip-path="url(#p1a08a9cb33)" style="fill: none; stroke: #000000; stroke-linecap: round"/>
    <path d="M 296.647035 223.575655 
L 300.107349 220.742595 
L 300.297609 225.210681 
z
" clip-path="url(#p1a08a9cb33)" style="stroke: #000000; stroke-linecap: round"/>
   </g>
   <g id="patch_27">
    <path d="M 277.679587 278.372324 
Q 327.641656 228.45093 376.812834 179.319782 
" clip-path="url(#p1a08a9cb33)" style="fill: none; stroke: #000000; stroke-linecap: round"/>
    <path d="M 372.569618 180.732268 
L 376.812834 179.319782 
L 375.396893 183.561847 
z
" clip-path="url(#p1a08a9cb33)" style="stroke: #000000; stroke-linecap: round"/>
   </g>
   <g id="patch_28">
    <path d="M 272.623627 275.898499 
Q 279.457746 220.928523 286.153928 167.068039 
" clip-path="url(#p1a08a9cb33)" style="fill: none; stroke: #000000; stroke-linecap: round"/>
    <path d="M 283.675709 170.79073 
L 286.153928 167.068039 
L 287.645149 171.284229 
z
" clip-path="url(#p1a08a9cb33)" style="stroke: #000000; stroke-linecap: round"/>
   </g>
   <g id="patch_29">
    <path d="M 263.539938 281.215543 
Q 180.073141 247.100384 97.641269 213.408226 
" clip-path="url(#p1a08a9cb33)" style="fill: none; stroke: #000000; stroke-linecap: round"/>
    <path d="M 100.58724 216.772934 
L 97.641269 213.408226 
L 102.100618 213.070274 
z
" clip-path="url(#p1a08a9cb33)" style="stroke: #000000; stroke-linecap: round"/>
   </g>
   <g id="patch_30">
    <path d="M 256.904181 72.76567 
Q 279.111872 138.191102 300.960202 202.557829 
" clip-path="url(#p1a08a9cb33)" style="fill: none; stroke: #000000; stroke-linecap: round"/>
    <path d="M 301.56838 198.12724 
L 300.960202 202.557829 
L 297.780637 199.412933 
z
" clip-path="url(#p1a08a9cb33)" style="stroke: #000000; stroke-linecap: round"/>
   </g>
   <g id="patch_31">
    <path d="M 245.718805 66.673058 
Q 175.683643 84.251062 106.732881 101.556896 
" clip-path="url(#p1a08a9cb33)" style="fill: none; stroke: #000000; stroke-linecap: round"/>
    <path d="M 111.099422 102.522978 
L 106.732881 101.556896 
L 110.125671 98.643312 
z
" clip-path="url(#p1a08a9cb33)" style="stroke: #000000; stroke-linecap: round"/>
   </g>
   <g id="patch_32">
    <path d="M 245.718805 66.673058 
Q 175.683643 84.251062 106.732881 101.556896 
" clip-path="url(#p1a08a9cb33)" style="fill: none; stroke: #000000; stroke-linecap: round"/>
    <path d="M 111.099422 102.522978 
L 106.732881 101.556896 
L 110.125671 98.643312 
z
" clip-path="url(#p1a08a9cb33)" style="stroke: #000000; stroke-linecap: round"/>
   </g>
   <g id="patch_33">
    <path d="M 245.96906 67.492537 
Q 207.667176 81.251621 170.417495 94.632726 
" clip-path="url(#p1a08a9cb33)" style="fill: none; stroke: #000000; stroke-linecap: round"/>
    <path d="M 174.858122 95.162661 
L 170.417495 94.632726 
L 173.505819 91.398186 
z
" clip-path="url(#p1a08a9cb33)" style="stroke: #000000; stroke-linecap: round"/>
   </g>
   <g id="patch_34">
    <path d="M 158.000978 214.905619 
Q 159.489198 160.7501 160.946706 107.712194 
" clip-path="url(#p1a08a9cb33)" style="fill: none; stroke: #000000; stroke-linecap: round"/>
    <path d="M 158.83758 111.655744 
L 160.946706 107.712194 
L 162.836071 111.765624 
z
" clip-path="url(#p1a08a9cb33)" style="stroke: #000000; stroke-linecap: round"/>
   </g>
   <g id="patch_35">
    <path d="M 166.395239 222.906016 
Q 193.352495 220.844026 219.194974 218.867307 
" clip-path="url(#p1a08a9cb33)" style="fill: none; stroke: #000000; stroke-linecap: round"/>
    <path d="M 215.054088 217.178205 
L 219.194974 218.867307 
L 215.359161 221.166555 
z
" clip-path="url(#p1a08a9cb33)" style="stroke: #000000; stroke-linecap: round"/>
   </g>
   <g id="patch_36">
    <path d="M 165.479155 219.624844 
Q 222.56428 190.465468 278.653746 161.81468 
" clip-path="url(#p1a08a9cb33)" style="fill: none; stroke: #000000; stroke-linecap: round"/>
    <path d="M 274.181775 161.85317 
L 278.653746 161.81468 
L 276.001355 165.41535 
z
" clip-path="url(#p1a08a9cb33)" style="stroke: #000000; stroke-linecap: round"/>
   </g>
   <g id="patch_37">
    <path d="M 165.39937 227.654893 
Q 214.659436 254.029133 262.933851 279.875648 
" clip-path="url(#p1a08a9cb33)" style="fill: none; stroke: #000000; stroke-linecap: round"/>
    <path d="M 260.351505 276.224417 
L 262.933851 279.875648 
L 258.463458 279.750786 
z
" clip-path="url(#p1a08a9cb33)" style="stroke: #000000; stroke-linecap: round"/>
   </g>
   <g id="patch_38">
    <path d="M 97.248333 209.793426 
Q 196.34716 210.764005 294.328007 211.723634 
" clip-path="url(#p1a08a9cb33)" style="fill: none; stroke: #000000; stroke-linecap: round"/>
    <path d="M 290.347786 209.684556 
L 294.328007 211.723634 
L 290.308611 213.684364 
z
" clip-path="url(#p1a08a9cb33)" style="stroke: #000000; stroke-linecap: round"/>
   </g>
   <g id="patch_39">
    <path d="M 89.296433 201.080404 
Q 92.92124 156.823316 96.454782 113.680531 
" clip-path="url(#p1a08a9cb33)" style="fill: none; stroke: #000000; stroke-linecap: round"/>
    <path d="M 94.134936 117.503922 
L 96.454782 113.680531 
L 98.121587 117.830442 
z
" clip-path="url(#p1a08a9cb33)" style="stroke: #000000; stroke-linecap: round"/>
   </g>
   <g id="patch_40">
    <path d="M 97.2375 210.227002 
Q 158.766576 213.915287 219.179621 217.536674 
" clip-path="url(#p1a08a9cb33)" style="fill: none; stroke: #000000; stroke-linecap: round"/>
    <path d="M 215.306461 215.300912 
L 219.179621 217.536674 
L 215.067115 219.293744 
z
" clip-path="url(#p1a08a9cb33)" style="stroke: #000000; stroke-linecap: round"/>
   </g>
   <g id="patch_41">
    <path d="M 97.080191 211.409539 
Q 123.175197 216.637231 148.173951 221.645308 
" clip-path="url(#p1a08a9cb33)" style="fill: none; stroke: #000000; stroke-linecap: round"/>
    <path d="M 144.64474 218.898552 
L 148.173951 221.645308 
L 143.859019 222.820623 
z
" clip-path="url(#p1a08a9cb33)" style="stroke: #000000; stroke-linecap: round"/>
   </g>
   <g id="PathCollection_1">
    <defs>
     <path id="ma8bfcd5388" d="M 0 8.660254 
C 2.296726 8.660254 4.499694 7.747755 6.123724 6.123724 
C 7.747755 4.499694 8.660254 2.296726 8.660254 0 
C 8.660254 -2.296726 7.747755 -4.499694 6.123724 -6.123724 
C 4.499694 -7.747755 2.296726 -8.660254 0 -8.660254 
C -2.296726 -8.660254 -4.499694 -7.747755 -6.123724 -6.123724 
C -7.747755 -4.499694 -8.660254 -2.296726 -8.660254 0 
C -8.660254 2.296726 -7.747755 4.499694 -6.123724 6.123724 
C -4.499694 7.747755 -2.296726 8.660254 0 8.660254 
z
" style="stroke: #1f78b4"/>
    </defs>
    <g clip-path="url(#p1a08a9cb33)">
     <use xlink:href="#ma8bfcd5388" x="304.103898" y="211.81938" style="fill: #1f78b4; stroke: #1f78b4"/>
     <use xlink:href="#ma8bfcd5388" x="97.25287" y="103.936267" style="fill: #1f78b4; stroke: #1f78b4"/>
     <use xlink:href="#ma8bfcd5388" x="161.215294" y="97.938408" style="fill: #1f78b4; stroke: #1f78b4"/>
     <use xlink:href="#ma8bfcd5388" x="383.730248" y="172.408" style="fill: #1f78b4; stroke: #1f78b4"/>
     <use xlink:href="#ma8bfcd5388" x="228.941112" y="218.121814" style="fill: #1f78b4; stroke: #1f78b4"/>
     <use xlink:href="#ma8bfcd5388" x="287.359942" y="157.36751" style="fill: #1f78b4; stroke: #1f78b4"/>
     <use xlink:href="#ma8bfcd5388" x="271.555289" y="284.491636" style="fill: #1f78b4; stroke: #1f78b4"/>
     <use xlink:href="#ma8bfcd5388" x="254.120369" y="64.564364" style="fill: #1f78b4; stroke: #1f78b4"/>
     <use xlink:href="#ma8bfcd5388" x="157.762978" y="223.566307" style="fill: #1f78b4; stroke: #1f78b4"/>
     <use xlink:href="#ma8bfcd5388" x="88.589752" y="209.708624" style="fill: #1f78b4; stroke: #1f78b4"/>
    </g>
   </g>
   <g id="text_1">
    <g clip-path="url(#p1a08a9cb33)">
     <!-- 0 -->
     <g transform="translate(299.92921 215.13063) scale(0.12 -0.12)">
      <defs>
       <path id="DejaVuSans-Bold-30" d="M 2944 2338 
Q 2944 3213 2780 3570 
Q 2616 3928 2228 3928 
Q 1841 3928 1675 3570 
Q 1509 3213 1509 2338 
Q 1509 1453 1675 1090 
Q 1841 728 2228 728 
Q 2613 728 2778 1090 
Q 2944 1453 2944 2338 
z
M 4147 2328 
Q 4147 1169 3647 539 
Q 3147 -91 2228 -91 
Q 1306 -91 806 539 
Q 306 1169 306 2328 
Q 306 3491 806 4120 
Q 1306 4750 2228 4750 
Q 3147 4750 3647 4120 
Q 4147 3491 4147 2328 
z
" transform="scale(0.015625)"/>
      </defs>
      <use xlink:href="#DejaVuSans-Bold-30"/>
     </g>
    </g>
   </g>
   <g id="text_2">
    <g clip-path="url(#p1a08a9cb33)">
     <!-- 1 -->
     <g transform="translate(93.078183 107.247517) scale(0.12 -0.12)">
      <defs>
       <path id="DejaVuSans-Bold-31" d="M 750 831 
L 1813 831 
L 1813 3847 
L 722 3622 
L 722 4441 
L 1806 4666 
L 2950 4666 
L 2950 831 
L 4013 831 
L 4013 0 
L 750 0 
L 750 831 
z
" transform="scale(0.015625)"/>
      </defs>
      <use xlink:href="#DejaVuSans-Bold-31"/>
     </g>
    </g>
   </g>
   <g id="text_3">
    <g clip-path="url(#p1a08a9cb33)">
     <!-- 2 -->
     <g transform="translate(157.040607 101.249658) scale(0.12 -0.12)">
      <defs>
       <path id="DejaVuSans-Bold-32" d="M 1844 884 
L 3897 884 
L 3897 0 
L 506 0 
L 506 884 
L 2209 2388 
Q 2438 2594 2547 2791 
Q 2656 2988 2656 3200 
Q 2656 3528 2436 3728 
Q 2216 3928 1850 3928 
Q 1569 3928 1234 3808 
Q 900 3688 519 3450 
L 519 4475 
Q 925 4609 1322 4679 
Q 1719 4750 2100 4750 
Q 2938 4750 3402 4381 
Q 3866 4013 3866 3353 
Q 3866 2972 3669 2642 
Q 3472 2313 2841 1759 
L 1844 884 
z
" transform="scale(0.015625)"/>
      </defs>
      <use xlink:href="#DejaVuSans-Bold-32"/>
     </g>
    </g>
   </g>
   <g id="text_4">
    <g clip-path="url(#p1a08a9cb33)">
     <!-- 3 -->
     <g transform="translate(379.55556 175.71925) scale(0.12 -0.12)">
      <defs>
       <path id="DejaVuSans-Bold-33" d="M 2981 2516 
Q 3453 2394 3698 2092 
Q 3944 1791 3944 1325 
Q 3944 631 3412 270 
Q 2881 -91 1863 -91 
Q 1503 -91 1142 -33 
Q 781 25 428 141 
L 428 1069 
Q 766 900 1098 814 
Q 1431 728 1753 728 
Q 2231 728 2486 893 
Q 2741 1059 2741 1369 
Q 2741 1688 2480 1852 
Q 2219 2016 1709 2016 
L 1228 2016 
L 1228 2791 
L 1734 2791 
Q 2188 2791 2409 2933 
Q 2631 3075 2631 3366 
Q 2631 3634 2415 3781 
Q 2200 3928 1806 3928 
Q 1516 3928 1219 3862 
Q 922 3797 628 3669 
L 628 4550 
Q 984 4650 1334 4700 
Q 1684 4750 2022 4750 
Q 2931 4750 3382 4451 
Q 3834 4153 3834 3553 
Q 3834 3144 3618 2883 
Q 3403 2622 2981 2516 
z
" transform="scale(0.015625)"/>
      </defs>
      <use xlink:href="#DejaVuSans-Bold-33"/>
     </g>
    </g>
   </g>
   <g id="text_5">
    <g clip-path="url(#p1a08a9cb33)">
     <!-- 4 -->
     <g transform="translate(224.766425 221.433064) scale(0.12 -0.12)">
      <defs>
       <path id="DejaVuSans-Bold-34" d="M 2356 3675 
L 1038 1722 
L 2356 1722 
L 2356 3675 
z
M 2156 4666 
L 3494 4666 
L 3494 1722 
L 4159 1722 
L 4159 850 
L 3494 850 
L 3494 0 
L 2356 0 
L 2356 850 
L 288 850 
L 288 1881 
L 2156 4666 
z
" transform="scale(0.015625)"/>
      </defs>
      <use xlink:href="#DejaVuSans-Bold-34"/>
     </g>
    </g>
   </g>
   <g id="text_6">
    <g clip-path="url(#p1a08a9cb33)">
     <!-- 5 -->
     <g transform="translate(283.185255 160.67876) scale(0.12 -0.12)">
      <defs>
       <path id="DejaVuSans-Bold-35" d="M 678 4666 
L 3669 4666 
L 3669 3781 
L 1638 3781 
L 1638 3059 
Q 1775 3097 1914 3117 
Q 2053 3138 2203 3138 
Q 3056 3138 3531 2711 
Q 4006 2284 4006 1522 
Q 4006 766 3489 337 
Q 2972 -91 2053 -91 
Q 1656 -91 1267 -14 
Q 878 63 494 219 
L 494 1166 
Q 875 947 1217 837 
Q 1559 728 1863 728 
Q 2300 728 2551 942 
Q 2803 1156 2803 1522 
Q 2803 1891 2551 2103 
Q 2300 2316 1863 2316 
Q 1603 2316 1309 2248 
Q 1016 2181 678 2041 
L 678 4666 
z
" transform="scale(0.015625)"/>
      </defs>
      <use xlink:href="#DejaVuSans-Bold-35"/>
     </g>
    </g>
   </g>
   <g id="text_7">
    <g clip-path="url(#p1a08a9cb33)">
     <!-- 6 -->
     <g transform="translate(267.380602 287.802886) scale(0.12 -0.12)">
      <defs>
       <path id="DejaVuSans-Bold-36" d="M 2316 2303 
Q 2000 2303 1842 2098 
Q 1684 1894 1684 1484 
Q 1684 1075 1842 870 
Q 2000 666 2316 666 
Q 2634 666 2792 870 
Q 2950 1075 2950 1484 
Q 2950 1894 2792 2098 
Q 2634 2303 2316 2303 
z
M 3803 4544 
L 3803 3681 
Q 3506 3822 3243 3889 
Q 2981 3956 2731 3956 
Q 2194 3956 1894 3657 
Q 1594 3359 1544 2772 
Q 1750 2925 1990 3001 
Q 2231 3078 2516 3078 
Q 3231 3078 3670 2659 
Q 4109 2241 4109 1563 
Q 4109 813 3618 361 
Q 3128 -91 2303 -91 
Q 1394 -91 895 523 
Q 397 1138 397 2266 
Q 397 3422 980 4083 
Q 1563 4744 2578 4744 
Q 2900 4744 3203 4694 
Q 3506 4644 3803 4544 
z
" transform="scale(0.015625)"/>
      </defs>
      <use xlink:href="#DejaVuSans-Bold-36"/>
     </g>
    </g>
   </g>
   <g id="text_8">
    <g clip-path="url(#p1a08a9cb33)">
     <!-- 7 -->
     <g transform="translate(249.945682 67.875614) scale(0.12 -0.12)">
      <defs>
       <path id="DejaVuSans-Bold-37" d="M 428 4666 
L 3944 4666 
L 3944 3988 
L 2125 0 
L 953 0 
L 2675 3781 
L 428 3781 
L 428 4666 
z
" transform="scale(0.015625)"/>
      </defs>
      <use xlink:href="#DejaVuSans-Bold-37"/>
     </g>
    </g>
   </g>
   <g id="text_9">
    <g clip-path="url(#p1a08a9cb33)">
     <!-- 8 -->
     <g transform="translate(153.588291 226.877557) scale(0.12 -0.12)">
      <defs>
       <path id="DejaVuSans-Bold-38" d="M 2228 2088 
Q 1891 2088 1709 1903 
Q 1528 1719 1528 1375 
Q 1528 1031 1709 848 
Q 1891 666 2228 666 
Q 2563 666 2741 848 
Q 2919 1031 2919 1375 
Q 2919 1722 2741 1905 
Q 2563 2088 2228 2088 
z
M 1350 2484 
Q 925 2613 709 2878 
Q 494 3144 494 3541 
Q 494 4131 934 4440 
Q 1375 4750 2228 4750 
Q 3075 4750 3515 4442 
Q 3956 4134 3956 3541 
Q 3956 3144 3739 2878 
Q 3522 2613 3097 2484 
Q 3572 2353 3814 2058 
Q 4056 1763 4056 1313 
Q 4056 619 3595 264 
Q 3134 -91 2228 -91 
Q 1319 -91 855 264 
Q 391 619 391 1313 
Q 391 1763 633 2058 
Q 875 2353 1350 2484 
z
M 1631 3419 
Q 1631 3141 1786 2991 
Q 1941 2841 2228 2841 
Q 2509 2841 2662 2991 
Q 2816 3141 2816 3419 
Q 2816 3697 2662 3845 
Q 2509 3994 2228 3994 
Q 1941 3994 1786 3844 
Q 1631 3694 1631 3419 
z
" transform="scale(0.015625)"/>
      </defs>
      <use xlink:href="#DejaVuSans-Bold-38"/>
     </g>
    </g>
   </g>
   <g id="text_10">
    <g clip-path="url(#p1a08a9cb33)">
     <!-- 9 -->
     <g transform="translate(84.415065 213.019874) scale(0.12 -0.12)">
      <defs>
       <path id="DejaVuSans-Bold-39" d="M 641 103 
L 641 966 
Q 928 831 1190 764 
Q 1453 697 1709 697 
Q 2247 697 2547 995 
Q 2847 1294 2900 1881 
Q 2688 1725 2447 1647 
Q 2206 1569 1925 1569 
Q 1209 1569 770 1986 
Q 331 2403 331 3084 
Q 331 3838 820 4291 
Q 1309 4744 2131 4744 
Q 3044 4744 3544 4128 
Q 4044 3513 4044 2388 
Q 4044 1231 3459 570 
Q 2875 -91 1856 -91 
Q 1528 -91 1228 -42 
Q 928 6 641 103 
z
M 2125 2350 
Q 2441 2350 2600 2554 
Q 2759 2759 2759 3169 
Q 2759 3575 2600 3781 
Q 2441 3988 2125 3988 
Q 1809 3988 1650 3781 
Q 1491 3575 1491 3169 
Q 1491 2759 1650 2554 
Q 1809 2350 2125 2350 
z
" transform="scale(0.015625)"/>
      </defs>
      <use xlink:href="#DejaVuSans-Bold-39"/>
     </g>
    </g>
   </g>
  </g>
 </g>
 <defs>
  <clipPath id="p1a08a9cb33">
   <rect x="57.6" y="41.472" width="357.12" height="266.112"/>
  </clipPath>
 </defs>
</svg>
