<?xml version="1.0" encoding="utf-8" standalone="no"?>
<!DOCTYPE svg PUBLIC "-//W3C//DTD SVG 1.1//EN"
  "http://www.w3.org/Graphics/SVG/1.1/DTD/svg11.dtd">
<svg xmlns:xlink="http://www.w3.org/1999/xlink" width="460.8pt" height="345.6pt" viewBox="0 0 460.8 345.6" xmlns="http://www.w3.org/2000/svg" version="1.1">
 <metadata>
  <rdf:RDF xmlns:dc="http://purl.org/dc/elements/1.1/" xmlns:cc="http://creativecommons.org/ns#" xmlns:rdf="http://www.w3.org/1999/02/22-rdf-syntax-ns#">
   <cc:Work>
    <dc:type rdf:resource="http://purl.org/dc/dcmitype/StillImage"/>
    <dc:date>2024-10-08T11:34:45.180583</dc:date>
    <dc:format>image/svg+xml</dc:format>
    <dc:creator>
     <cc:Agent>
      <dc:title>Matplotlib v3.8.3, https://matplotlib.org/</dc:title>
     </cc:Agent>
    </dc:creator>
   </cc:Work>
  </rdf:RDF>
 </metadata>
 <defs>
  <style type="text/css">*{stroke-linejoin: round; stroke-linecap: butt}</style>
 </defs>
 <g id="figure_1">
  <g id="patch_1">
   <path d="M 0 345.6 
L 460.8 345.6 
L 460.8 0 
L 0 0 
z
" style="fill: #ffffff"/>
  </g>
  <g id="axes_1">
   <g id="patch_2">
    <path d="M 57.6 307.584 
L 414.72 307.584 
L 414.72 41.472 
L 57.6 41.472 
z
" style="fill: #ffffff"/>
   </g>
   <g id="matplotlib.axis_1">
    <g id="xtick_1">
     <g id="line2d_1">
      <defs>
       <path id="m97e4ccd3b1" d="M 0 0 
L 0 3.5 
" style="stroke: #000000; stroke-width: 0.8"/>
      </defs>
      <g>
       <use xlink:href="#m97e4ccd3b1" x="57.6" y="307.584" style="stroke: #000000; stroke-width: 0.8"/>
      </g>
     </g>
     <g id="text_1">
      <!-- 0 -->
      <g transform="translate(54.41875 322.182437) scale(0.1 -0.1)">
       <defs>
        <path id="DejaVuSans-30" d="M 2034 4250 
Q 1547 4250 1301 3770 
Q 1056 3291 1056 2328 
Q 1056 1369 1301 889 
Q 1547 409 2034 409 
Q 2525 409 2770 889 
Q 3016 1369 3016 2328 
Q 3016 3291 2770 3770 
Q 2525 4250 2034 4250 
z
M 2034 4750 
Q 2819 4750 3233 4129 
Q 3647 3509 3647 2328 
Q 3647 1150 3233 529 
Q 2819 -91 2034 -91 
Q 1250 -91 836 529 
Q 422 1150 422 2328 
Q 422 3509 836 4129 
Q 1250 4750 2034 4750 
z
" transform="scale(0.015625)"/>
       </defs>
       <use xlink:href="#DejaVuSans-30"/>
      </g>
     </g>
    </g>
    <g id="xtick_2">
     <g id="line2d_2">
      <g>
       <use xlink:href="#m97e4ccd3b1" x="129.024" y="307.584" style="stroke: #000000; stroke-width: 0.8"/>
      </g>
     </g>
     <g id="text_2">
      <!-- 200 -->
      <g transform="translate(119.48025 322.182437) scale(0.1 -0.1)">
       <defs>
        <path id="DejaVuSans-32" d="M 1228 531 
L 3431 531 
L 3431 0 
L 469 0 
L 469 531 
Q 828 903 1448 1529 
Q 2069 2156 2228 2338 
Q 2531 2678 2651 2914 
Q 2772 3150 2772 3378 
Q 2772 3750 2511 3984 
Q 2250 4219 1831 4219 
Q 1534 4219 1204 4116 
Q 875 4013 500 3803 
L 500 4441 
Q 881 4594 1212 4672 
Q 1544 4750 1819 4750 
Q 2544 4750 2975 4387 
Q 3406 4025 3406 3419 
Q 3406 3131 3298 2873 
Q 3191 2616 2906 2266 
Q 2828 2175 2409 1742 
Q 1991 1309 1228 531 
z
" transform="scale(0.015625)"/>
       </defs>
       <use xlink:href="#DejaVuSans-32"/>
       <use xlink:href="#DejaVuSans-30" x="63.623047"/>
       <use xlink:href="#DejaVuSans-30" x="127.246094"/>
      </g>
     </g>
    </g>
    <g id="xtick_3">
     <g id="line2d_3">
      <g>
       <use xlink:href="#m97e4ccd3b1" x="200.448" y="307.584" style="stroke: #000000; stroke-width: 0.8"/>
      </g>
     </g>
     <g id="text_3">
      <!-- 400 -->
      <g transform="translate(190.90425 322.182437) scale(0.1 -0.1)">
       <defs>
        <path id="DejaVuSans-34" d="M 2419 4116 
L 825 1625 
L 2419 1625 
L 2419 4116 
z
M 2253 4666 
L 3047 4666 
L 3047 1625 
L 3713 1625 
L 3713 1100 
L 3047 1100 
L 3047 0 
L 2419 0 
L 2419 1100 
L 313 1100 
L 313 1709 
L 2253 4666 
z
" transform="scale(0.015625)"/>
       </defs>
       <use xlink:href="#DejaVuSans-34"/>
       <use xlink:href="#DejaVuSans-30" x="63.623047"/>
       <use xlink:href="#DejaVuSans-30" x="127.246094"/>
      </g>
     </g>
    </g>
    <g id="xtick_4">
     <g id="line2d_4">
      <g>
       <use xlink:href="#m97e4ccd3b1" x="271.872" y="307.584" style="stroke: #000000; stroke-width: 0.8"/>
      </g>
     </g>
     <g id="text_4">
      <!-- 600 -->
      <g transform="translate(262.32825 322.182437) scale(0.1 -0.1)">
       <defs>
        <path id="DejaVuSans-36" d="M 2113 2584 
Q 1688 2584 1439 2293 
Q 1191 2003 1191 1497 
Q 1191 994 1439 701 
Q 1688 409 2113 409 
Q 2538 409 2786 701 
Q 3034 994 3034 1497 
Q 3034 2003 2786 2293 
Q 2538 2584 2113 2584 
z
M 3366 4563 
L 3366 3988 
Q 3128 4100 2886 4159 
Q 2644 4219 2406 4219 
Q 1781 4219 1451 3797 
Q 1122 3375 1075 2522 
Q 1259 2794 1537 2939 
Q 1816 3084 2150 3084 
Q 2853 3084 3261 2657 
Q 3669 2231 3669 1497 
Q 3669 778 3244 343 
Q 2819 -91 2113 -91 
Q 1303 -91 875 529 
Q 447 1150 447 2328 
Q 447 3434 972 4092 
Q 1497 4750 2381 4750 
Q 2619 4750 2861 4703 
Q 3103 4656 3366 4563 
z
" transform="scale(0.015625)"/>
       </defs>
       <use xlink:href="#DejaVuSans-36"/>
       <use xlink:href="#DejaVuSans-30" x="63.623047"/>
       <use xlink:href="#DejaVuSans-30" x="127.246094"/>
      </g>
     </g>
    </g>
    <g id="xtick_5">
     <g id="line2d_5">
      <g>
       <use xlink:href="#m97e4ccd3b1" x="343.296" y="307.584" style="stroke: #000000; stroke-width: 0.8"/>
      </g>
     </g>
     <g id="text_5">
      <!-- 800 -->
      <g transform="translate(333.75225 322.182437) scale(0.1 -0.1)">
       <defs>
        <path id="DejaVuSans-38" d="M 2034 2216 
Q 1584 2216 1326 1975 
Q 1069 1734 1069 1313 
Q 1069 891 1326 650 
Q 1584 409 2034 409 
Q 2484 409 2743 651 
Q 3003 894 3003 1313 
Q 3003 1734 2745 1975 
Q 2488 2216 2034 2216 
z
M 1403 2484 
Q 997 2584 770 2862 
Q 544 3141 544 3541 
Q 544 4100 942 4425 
Q 1341 4750 2034 4750 
Q 2731 4750 3128 4425 
Q 3525 4100 3525 3541 
Q 3525 3141 3298 2862 
Q 3072 2584 2669 2484 
Q 3125 2378 3379 2068 
Q 3634 1759 3634 1313 
Q 3634 634 3220 271 
Q 2806 -91 2034 -91 
Q 1263 -91 848 271 
Q 434 634 434 1313 
Q 434 1759 690 2068 
Q 947 2378 1403 2484 
z
M 1172 3481 
Q 1172 3119 1398 2916 
Q 1625 2713 2034 2713 
Q 2441 2713 2670 2916 
Q 2900 3119 2900 3481 
Q 2900 3844 2670 4047 
Q 2441 4250 2034 4250 
Q 1625 4250 1398 4047 
Q 1172 3844 1172 3481 
z
" transform="scale(0.015625)"/>
       </defs>
       <use xlink:href="#DejaVuSans-38"/>
       <use xlink:href="#DejaVuSans-30" x="63.623047"/>
       <use xlink:href="#DejaVuSans-30" x="127.246094"/>
      </g>
     </g>
    </g>
    <g id="xtick_6">
     <g id="line2d_6">
      <g>
       <use xlink:href="#m97e4ccd3b1" x="414.72" y="307.584" style="stroke: #000000; stroke-width: 0.8"/>
      </g>
     </g>
     <g id="text_6">
      <!-- 1000 -->
      <g transform="translate(401.995 322.182437) scale(0.1 -0.1)">
       <defs>
        <path id="DejaVuSans-31" d="M 794 531 
L 1825 531 
L 1825 4091 
L 703 3866 
L 703 4441 
L 1819 4666 
L 2450 4666 
L 2450 531 
L 3481 531 
L 3481 0 
L 794 0 
L 794 531 
z
" transform="scale(0.015625)"/>
       </defs>
       <use xlink:href="#DejaVuSans-31"/>
       <use xlink:href="#DejaVuSans-30" x="63.623047"/>
       <use xlink:href="#DejaVuSans-30" x="127.246094"/>
       <use xlink:href="#DejaVuSans-30" x="190.869141"/>
      </g>
     </g>
    </g>
    <g id="text_7">
     <!-- Time $(t/ms)$ -->
     <g transform="translate(207.11 335.860562) scale(0.1 -0.1)">
      <defs>
       <path id="DejaVuSans-54" d="M -19 4666 
L 3928 4666 
L 3928 4134 
L 2272 4134 
L 2272 0 
L 1638 0 
L 1638 4134 
L -19 4134 
L -19 4666 
z
" transform="scale(0.015625)"/>
       <path id="DejaVuSans-69" d="M 603 3500 
L 1178 3500 
L 1178 0 
L 603 0 
L 603 3500 
z
M 603 4863 
L 1178 4863 
L 1178 4134 
L 603 4134 
L 603 4863 
z
" transform="scale(0.015625)"/>
       <path id="DejaVuSans-6d" d="M 3328 2828 
Q 3544 3216 3844 3400 
Q 4144 3584 4550 3584 
Q 5097 3584 5394 3201 
Q 5691 2819 5691 2113 
L 5691 0 
L 5113 0 
L 5113 2094 
Q 5113 2597 4934 2840 
Q 4756 3084 4391 3084 
Q 3944 3084 3684 2787 
Q 3425 2491 3425 1978 
L 3425 0 
L 2847 0 
L 2847 2094 
Q 2847 2600 2669 2842 
Q 2491 3084 2119 3084 
Q 1678 3084 1418 2786 
Q 1159 2488 1159 1978 
L 1159 0 
L 581 0 
L 581 3500 
L 1159 3500 
L 1159 2956 
Q 1356 3278 1631 3431 
Q 1906 3584 2284 3584 
Q 2666 3584 2933 3390 
Q 3200 3197 3328 2828 
z
" transform="scale(0.015625)"/>
       <path id="DejaVuSans-65" d="M 3597 1894 
L 3597 1613 
L 953 1613 
Q 991 1019 1311 708 
Q 1631 397 2203 397 
Q 2534 397 2845 478 
Q 3156 559 3463 722 
L 3463 178 
Q 3153 47 2828 -22 
Q 2503 -91 2169 -91 
Q 1331 -91 842 396 
Q 353 884 353 1716 
Q 353 2575 817 3079 
Q 1281 3584 2069 3584 
Q 2775 3584 3186 3129 
Q 3597 2675 3597 1894 
z
M 3022 2063 
Q 3016 2534 2758 2815 
Q 2500 3097 2075 3097 
Q 1594 3097 1305 2825 
Q 1016 2553 972 2059 
L 3022 2063 
z
" transform="scale(0.015625)"/>
       <path id="DejaVuSans-20" transform="scale(0.015625)"/>
       <path id="DejaVuSans-28" d="M 1984 4856 
Q 1566 4138 1362 3434 
Q 1159 2731 1159 2009 
Q 1159 1288 1364 580 
Q 1569 -128 1984 -844 
L 1484 -844 
Q 1016 -109 783 600 
Q 550 1309 550 2009 
Q 550 2706 781 3412 
Q 1013 4119 1484 4856 
L 1984 4856 
z
" transform="scale(0.015625)"/>
       <path id="DejaVuSans-Oblique-74" d="M 2706 3500 
L 2619 3053 
L 1472 3053 
L 1100 1153 
Q 1081 1047 1072 975 
Q 1063 903 1063 863 
Q 1063 663 1183 572 
Q 1303 481 1569 481 
L 2150 481 
L 2053 0 
L 1503 0 
Q 991 0 739 200 
Q 488 400 488 806 
Q 488 878 497 964 
Q 506 1050 525 1153 
L 897 3053 
L 409 3053 
L 500 3500 
L 978 3500 
L 1172 4494 
L 1747 4494 
L 1556 3500 
L 2706 3500 
z
" transform="scale(0.015625)"/>
       <path id="DejaVuSans-2f" d="M 1625 4666 
L 2156 4666 
L 531 -594 
L 0 -594 
L 1625 4666 
z
" transform="scale(0.015625)"/>
       <path id="DejaVuSans-Oblique-6d" d="M 5747 2113 
L 5338 0 
L 4763 0 
L 5166 2094 
Q 5191 2228 5203 2325 
Q 5216 2422 5216 2491 
Q 5216 2772 5059 2928 
Q 4903 3084 4622 3084 
Q 4203 3084 3875 2770 
Q 3547 2456 3450 1953 
L 3066 0 
L 2491 0 
L 2900 2094 
Q 2925 2209 2937 2307 
Q 2950 2406 2950 2484 
Q 2950 2769 2794 2926 
Q 2638 3084 2363 3084 
Q 1938 3084 1609 2770 
Q 1281 2456 1184 1953 
L 800 0 
L 225 0 
L 909 3500 
L 1484 3500 
L 1375 2956 
Q 1609 3263 1923 3423 
Q 2238 3584 2597 3584 
Q 2978 3584 3223 3384 
Q 3469 3184 3519 2828 
Q 3781 3197 4126 3390 
Q 4472 3584 4856 3584 
Q 5306 3584 5551 3325 
Q 5797 3066 5797 2591 
Q 5797 2488 5784 2364 
Q 5772 2241 5747 2113 
z
" transform="scale(0.015625)"/>
       <path id="DejaVuSans-Oblique-73" d="M 3200 3397 
L 3091 2853 
Q 2863 2978 2609 3040 
Q 2356 3103 2088 3103 
Q 1634 3103 1373 2948 
Q 1113 2794 1113 2528 
Q 1113 2219 1719 2053 
Q 1766 2041 1788 2034 
L 1972 1978 
Q 2547 1819 2739 1644 
Q 2931 1469 2931 1166 
Q 2931 609 2489 259 
Q 2047 -91 1331 -91 
Q 1053 -91 747 -37 
Q 441 16 72 128 
L 184 722 
Q 500 559 806 475 
Q 1113 391 1394 391 
Q 1816 391 2080 572 
Q 2344 753 2344 1031 
Q 2344 1331 1650 1516 
L 1591 1531 
L 1394 1581 
Q 956 1697 753 1886 
Q 550 2075 550 2369 
Q 550 2928 970 3256 
Q 1391 3584 2113 3584 
Q 2397 3584 2667 3537 
Q 2938 3491 3200 3397 
z
" transform="scale(0.015625)"/>
       <path id="DejaVuSans-29" d="M 513 4856 
L 1013 4856 
Q 1481 4119 1714 3412 
Q 1947 2706 1947 2009 
Q 1947 1309 1714 600 
Q 1481 -109 1013 -844 
L 513 -844 
Q 928 -128 1133 580 
Q 1338 1288 1338 2009 
Q 1338 2731 1133 3434 
Q 928 4138 513 4856 
z
" transform="scale(0.015625)"/>
      </defs>
      <use xlink:href="#DejaVuSans-54" transform="translate(0 0.015625)"/>
      <use xlink:href="#DejaVuSans-69" transform="translate(61.083984 0.015625)"/>
      <use xlink:href="#DejaVuSans-6d" transform="translate(88.867188 0.015625)"/>
      <use xlink:href="#DejaVuSans-65" transform="translate(186.279297 0.015625)"/>
      <use xlink:href="#DejaVuSans-20" transform="translate(247.802734 0.015625)"/>
      <use xlink:href="#DejaVuSans-28" transform="translate(279.589844 0.015625)"/>
      <use xlink:href="#DejaVuSans-Oblique-74" transform="translate(318.603516 0.015625)"/>
      <use xlink:href="#DejaVuSans-2f" transform="translate(357.8125 0.015625)"/>
      <use xlink:href="#DejaVuSans-Oblique-6d" transform="translate(391.503906 0.015625)"/>
      <use xlink:href="#DejaVuSans-Oblique-73" transform="translate(488.916016 0.015625)"/>
      <use xlink:href="#DejaVuSans-29" transform="translate(541.015625 0.015625)"/>
     </g>
    </g>
   </g>
   <g id="matplotlib.axis_2">
    <g id="ytick_1">
     <g id="line2d_7">
      <defs>
       <path id="m3c60f5fc43" d="M 0 0 
L -3.5 0 
" style="stroke: #000000; stroke-width: 0.8"/>
      </defs>
      <g>
       <use xlink:href="#m3c60f5fc43" x="57.6" y="295.488" style="stroke: #000000; stroke-width: 0.8"/>
      </g>
     </g>
     <g id="text_8">
      <!-- 0.0 -->
      <g transform="translate(34.696875 299.287219) scale(0.1 -0.1)">
       <defs>
        <path id="DejaVuSans-2e" d="M 684 794 
L 1344 794 
L 1344 0 
L 684 0 
L 684 794 
z
" transform="scale(0.015625)"/>
       </defs>
       <use xlink:href="#DejaVuSans-30"/>
       <use xlink:href="#DejaVuSans-2e" x="63.623047"/>
       <use xlink:href="#DejaVuSans-30" x="95.410156"/>
      </g>
     </g>
    </g>
    <g id="ytick_2">
     <g id="line2d_8">
      <g>
       <use xlink:href="#m3c60f5fc43" x="57.6" y="255.168" style="stroke: #000000; stroke-width: 0.8"/>
      </g>
     </g>
     <g id="text_9">
      <!-- 0.5 -->
      <g transform="translate(34.696875 258.967219) scale(0.1 -0.1)">
       <defs>
        <path id="DejaVuSans-35" d="M 691 4666 
L 3169 4666 
L 3169 4134 
L 1269 4134 
L 1269 2991 
Q 1406 3038 1543 3061 
Q 1681 3084 1819 3084 
Q 2600 3084 3056 2656 
Q 3513 2228 3513 1497 
Q 3513 744 3044 326 
Q 2575 -91 1722 -91 
Q 1428 -91 1123 -41 
Q 819 9 494 109 
L 494 744 
Q 775 591 1075 516 
Q 1375 441 1709 441 
Q 2250 441 2565 725 
Q 2881 1009 2881 1497 
Q 2881 1984 2565 2268 
Q 2250 2553 1709 2553 
Q 1456 2553 1204 2497 
Q 953 2441 691 2322 
L 691 4666 
z
" transform="scale(0.015625)"/>
       </defs>
       <use xlink:href="#DejaVuSans-30"/>
       <use xlink:href="#DejaVuSans-2e" x="63.623047"/>
       <use xlink:href="#DejaVuSans-35" x="95.410156"/>
      </g>
     </g>
    </g>
    <g id="ytick_3">
     <g id="line2d_9">
      <g>
       <use xlink:href="#m3c60f5fc43" x="57.6" y="214.848" style="stroke: #000000; stroke-width: 0.8"/>
      </g>
     </g>
     <g id="text_10">
      <!-- 1.0 -->
      <g transform="translate(34.696875 218.647219) scale(0.1 -0.1)">
       <use xlink:href="#DejaVuSans-31"/>
       <use xlink:href="#DejaVuSans-2e" x="63.623047"/>
       <use xlink:href="#DejaVuSans-30" x="95.410156"/>
      </g>
     </g>
    </g>
    <g id="ytick_4">
     <g id="line2d_10">
      <g>
       <use xlink:href="#m3c60f5fc43" x="57.6" y="174.528" style="stroke: #000000; stroke-width: 0.8"/>
      </g>
     </g>
     <g id="text_11">
      <!-- 1.5 -->
      <g transform="translate(34.696875 178.327219) scale(0.1 -0.1)">
       <use xlink:href="#DejaVuSans-31"/>
       <use xlink:href="#DejaVuSans-2e" x="63.623047"/>
       <use xlink:href="#DejaVuSans-35" x="95.410156"/>
      </g>
     </g>
    </g>
    <g id="ytick_5">
     <g id="line2d_11">
      <g>
       <use xlink:href="#m3c60f5fc43" x="57.6" y="134.208" style="stroke: #000000; stroke-width: 0.8"/>
      </g>
     </g>
     <g id="text_12">
      <!-- 2.0 -->
      <g transform="translate(34.696875 138.007219) scale(0.1 -0.1)">
       <use xlink:href="#DejaVuSans-32"/>
       <use xlink:href="#DejaVuSans-2e" x="63.623047"/>
       <use xlink:href="#DejaVuSans-30" x="95.410156"/>
      </g>
     </g>
    </g>
    <g id="ytick_6">
     <g id="line2d_12">
      <g>
       <use xlink:href="#m3c60f5fc43" x="57.6" y="93.888" style="stroke: #000000; stroke-width: 0.8"/>
      </g>
     </g>
     <g id="text_13">
      <!-- 2.5 -->
      <g transform="translate(34.696875 97.687219) scale(0.1 -0.1)">
       <use xlink:href="#DejaVuSans-32"/>
       <use xlink:href="#DejaVuSans-2e" x="63.623047"/>
       <use xlink:href="#DejaVuSans-35" x="95.410156"/>
      </g>
     </g>
    </g>
    <g id="ytick_7">
     <g id="line2d_13">
      <g>
       <use xlink:href="#m3c60f5fc43" x="57.6" y="53.568" style="stroke: #000000; stroke-width: 0.8"/>
      </g>
     </g>
     <g id="text_14">
      <!-- 3.0 -->
      <g transform="translate(34.696875 57.367219) scale(0.1 -0.1)">
       <defs>
        <path id="DejaVuSans-33" d="M 2597 2516 
Q 3050 2419 3304 2112 
Q 3559 1806 3559 1356 
Q 3559 666 3084 287 
Q 2609 -91 1734 -91 
Q 1441 -91 1130 -33 
Q 819 25 488 141 
L 488 750 
Q 750 597 1062 519 
Q 1375 441 1716 441 
Q 2309 441 2620 675 
Q 2931 909 2931 1356 
Q 2931 1769 2642 2001 
Q 2353 2234 1838 2234 
L 1294 2234 
L 1294 2753 
L 1863 2753 
Q 2328 2753 2575 2939 
Q 2822 3125 2822 3475 
Q 2822 3834 2567 4026 
Q 2313 4219 1838 4219 
Q 1578 4219 1281 4162 
Q 984 4106 628 3988 
L 628 4550 
Q 988 4650 1302 4700 
Q 1616 4750 1894 4750 
Q 2613 4750 3031 4423 
Q 3450 4097 3450 3541 
Q 3450 3153 3228 2886 
Q 3006 2619 2597 2516 
z
" transform="scale(0.015625)"/>
       </defs>
       <use xlink:href="#DejaVuSans-33"/>
       <use xlink:href="#DejaVuSans-2e" x="63.623047"/>
       <use xlink:href="#DejaVuSans-30" x="95.410156"/>
      </g>
     </g>
    </g>
    <g id="text_15">
     <!-- Rate $(kHz)$ -->
     <g transform="translate(28.617187 200.878) rotate(-90) scale(0.1 -0.1)">
      <defs>
       <path id="DejaVuSans-52" d="M 2841 2188 
Q 3044 2119 3236 1894 
Q 3428 1669 3622 1275 
L 4263 0 
L 3584 0 
L 2988 1197 
Q 2756 1666 2539 1819 
Q 2322 1972 1947 1972 
L 1259 1972 
L 1259 0 
L 628 0 
L 628 4666 
L 2053 4666 
Q 2853 4666 3247 4331 
Q 3641 3997 3641 3322 
Q 3641 2881 3436 2590 
Q 3231 2300 2841 2188 
z
M 1259 4147 
L 1259 2491 
L 2053 2491 
Q 2509 2491 2742 2702 
Q 2975 2913 2975 3322 
Q 2975 3731 2742 3939 
Q 2509 4147 2053 4147 
L 1259 4147 
z
" transform="scale(0.015625)"/>
       <path id="DejaVuSans-61" d="M 2194 1759 
Q 1497 1759 1228 1600 
Q 959 1441 959 1056 
Q 959 750 1161 570 
Q 1363 391 1709 391 
Q 2188 391 2477 730 
Q 2766 1069 2766 1631 
L 2766 1759 
L 2194 1759 
z
M 3341 1997 
L 3341 0 
L 2766 0 
L 2766 531 
Q 2569 213 2275 61 
Q 1981 -91 1556 -91 
Q 1019 -91 701 211 
Q 384 513 384 1019 
Q 384 1609 779 1909 
Q 1175 2209 1959 2209 
L 2766 2209 
L 2766 2266 
Q 2766 2663 2505 2880 
Q 2244 3097 1772 3097 
Q 1472 3097 1187 3025 
Q 903 2953 641 2809 
L 641 3341 
Q 956 3463 1253 3523 
Q 1550 3584 1831 3584 
Q 2591 3584 2966 3190 
Q 3341 2797 3341 1997 
z
" transform="scale(0.015625)"/>
       <path id="DejaVuSans-74" d="M 1172 4494 
L 1172 3500 
L 2356 3500 
L 2356 3053 
L 1172 3053 
L 1172 1153 
Q 1172 725 1289 603 
Q 1406 481 1766 481 
L 2356 481 
L 2356 0 
L 1766 0 
Q 1100 0 847 248 
Q 594 497 594 1153 
L 594 3053 
L 172 3053 
L 172 3500 
L 594 3500 
L 594 4494 
L 1172 4494 
z
" transform="scale(0.015625)"/>
       <path id="DejaVuSans-Oblique-6b" d="M 1172 4863 
L 1747 4863 
L 1197 2028 
L 3169 3500 
L 3916 3500 
L 1716 1825 
L 3322 0 
L 2625 0 
L 1131 1709 
L 800 0 
L 225 0 
L 1172 4863 
z
" transform="scale(0.015625)"/>
       <path id="DejaVuSans-Oblique-48" d="M 1081 4666 
L 1716 4666 
L 1344 2753 
L 3634 2753 
L 4006 4666 
L 4641 4666 
L 3731 0 
L 3097 0 
L 3531 2222 
L 1241 2222 
L 806 0 
L 172 0 
L 1081 4666 
z
" transform="scale(0.015625)"/>
       <path id="DejaVuSans-Oblique-7a" d="M 744 3500 
L 3475 3500 
L 3372 2975 
L 738 459 
L 2913 459 
L 2822 0 
L -19 0 
L 84 525 
L 2719 3041 
L 653 3041 
L 744 3500 
z
" transform="scale(0.015625)"/>
      </defs>
      <use xlink:href="#DejaVuSans-52" transform="translate(0 0.015625)"/>
      <use xlink:href="#DejaVuSans-61" transform="translate(69.482422 0.015625)"/>
      <use xlink:href="#DejaVuSans-74" transform="translate(130.761719 0.015625)"/>
      <use xlink:href="#DejaVuSans-65" transform="translate(169.970703 0.015625)"/>
      <use xlink:href="#DejaVuSans-20" transform="translate(231.494141 0.015625)"/>
      <use xlink:href="#DejaVuSans-28" transform="translate(263.28125 0.015625)"/>
      <use xlink:href="#DejaVuSans-Oblique-6b" transform="translate(302.294922 0.015625)"/>
      <use xlink:href="#DejaVuSans-Oblique-48" transform="translate(360.205078 0.015625)"/>
      <use xlink:href="#DejaVuSans-Oblique-7a" transform="translate(435.400391 0.015625)"/>
      <use xlink:href="#DejaVuSans-29" transform="translate(487.890625 0.015625)"/>
     </g>
    </g>
   </g>
   <g id="line2d_14">
    <path d="M 57.6 214.848 
L 61.1712 214.848 
L 64.7424 214.848 
L 68.3136 295.488 
L 71.8848 214.848 
L 75.456 214.848 
L 79.0272 214.848 
L 82.5984 214.848 
L 86.1696 295.488 
L 89.7408 214.848 
L 93.312 214.848 
L 96.8832 214.848 
L 100.4544 295.488 
L 104.0256 134.208 
L 107.5968 134.208 
L 111.168 134.208 
L 114.7392 53.568 
L 118.3104 214.848 
L 121.8816 214.848 
L 125.4528 53.568 
L 129.024 134.208 
L 132.5952 214.848 
L 136.1664 214.848 
L 139.7376 295.488 
L 143.3088 214.848 
L 146.88 214.848 
L 150.4512 295.488 
L 154.0224 214.848 
L 157.5936 214.848 
L 161.1648 295.488 
L 164.736 214.848 
L 168.3072 214.848 
L 171.8784 134.208 
L 175.4496 53.568 
L 179.0208 53.568 
L 182.592 53.568 
L 186.1632 134.208 
L 189.7344 214.848 
L 193.3056 214.848 
L 196.8768 214.848 
L 200.448 214.848 
L 204.0192 295.488 
L 207.5904 214.848 
L 211.1616 214.848 
L 214.7328 214.848 
L 218.304 214.848 
L 221.8752 295.488 
L 225.4464 214.848 
L 229.0176 134.208 
L 232.5888 214.848 
L 236.16 214.848 
L 239.7312 214.848 
L 243.3024 214.848 
L 246.8736 214.848 
L 250.4448 214.848 
L 254.016 214.848 
L 257.5872 295.488 
L 261.1584 214.848 
L 264.7296 214.848 
L 268.3008 214.848 
L 271.872 53.568 
L 275.4432 295.488 
L 279.0144 134.208 
L 282.5856 295.488 
L 286.1568 214.848 
L 289.728 214.848 
L 293.2992 214.848 
L 296.8704 214.848 
L 300.4416 134.208 
L 304.0128 295.488 
L 307.584 214.848 
L 311.1552 53.568 
L 314.7264 295.488 
L 318.2976 214.848 
L 321.8688 214.848 
L 325.44 214.848 
L 329.0112 214.848 
L 332.5824 214.848 
L 336.1536 214.848 
L 339.7248 295.488 
L 343.296 214.848 
L 346.8672 295.488 
L 350.4384 214.848 
L 354.0096 214.848 
L 357.5808 214.848 
L 361.152 134.208 
L 364.7232 214.848 
L 368.2944 214.848 
L 371.8656 214.848 
L 375.4368 214.848 
L 379.008 214.848 
L 382.5792 214.848 
L 386.1504 214.848 
L 389.7216 295.488 
L 393.2928 214.848 
L 396.864 214.848 
L 400.4352 214.848 
L 404.0064 214.848 
L 407.5776 214.848 
L 411.1488 214.848 
" clip-path="url(#pefe8876ecb)" style="fill: none; stroke: #1f77b4; stroke-width: 1.5; stroke-linecap: square"/>
   </g>
   <g id="line2d_15">
    <path d="M 57.6 214.848 
L 61.1712 214.848 
L 64.7424 214.848 
L 68.3136 295.488 
L 71.8848 214.848 
L 75.456 214.848 
L 79.0272 214.848 
L 82.5984 214.848 
L 86.1696 295.488 
L 89.7408 214.848 
L 93.312 214.848 
L 96.8832 214.848 
L 100.4544 295.488 
L 104.0256 134.208 
L 107.5968 214.848 
L 111.168 134.208 
L 114.7392 134.208 
L 118.3104 134.208 
L 121.8816 214.848 
L 125.4528 134.208 
L 129.024 134.208 
L 132.5952 214.848 
L 136.1664 214.848 
L 139.7376 295.488 
L 143.3088 214.848 
L 146.88 214.848 
L 150.4512 295.488 
L 154.0224 214.848 
L 157.5936 214.848 
L 161.1648 295.488 
L 164.736 214.848 
L 168.3072 214.848 
L 171.8784 53.568 
L 175.4496 53.568 
L 179.0208 53.568 
L 182.592 134.208 
L 186.1632 53.568 
L 189.7344 134.208 
L 193.3056 214.848 
L 196.8768 214.848 
L 200.448 295.488 
L 204.0192 214.848 
L 207.5904 214.848 
L 211.1616 214.848 
L 214.7328 214.848 
L 218.304 295.488 
L 221.8752 214.848 
L 225.4464 214.848 
L 229.0176 214.848 
L 232.5888 214.848 
L 236.16 134.208 
L 239.7312 214.848 
L 243.3024 214.848 
L 246.8736 214.848 
L 250.4448 214.848 
L 254.016 214.848 
L 257.5872 295.488 
L 261.1584 214.848 
L 264.7296 214.848 
L 268.3008 214.848 
L 271.872 134.208 
L 275.4432 295.488 
L 279.0144 214.848 
L 282.5856 214.848 
L 286.1568 214.848 
L 289.728 214.848 
L 293.2992 214.848 
L 296.8704 134.208 
L 300.4416 134.208 
L 304.0128 295.488 
L 307.584 214.848 
L 311.1552 134.208 
L 314.7264 214.848 
L 318.2976 295.488 
L 321.8688 214.848 
L 325.44 134.208 
L 329.0112 214.848 
L 332.5824 214.848 
L 336.1536 214.848 
L 339.7248 295.488 
L 343.296 214.848 
L 346.8672 295.488 
L 350.4384 214.848 
L 354.0096 214.848 
L 357.5808 214.848 
L 361.152 134.208 
L 364.7232 214.848 
L 368.2944 214.848 
L 371.8656 214.848 
L 375.4368 134.208 
L 379.008 214.848 
L 382.5792 214.848 
L 386.1504 214.848 
L 389.7216 295.488 
L 393.2928 214.848 
L 396.864 214.848 
L 400.4352 214.848 
L 404.0064 214.848 
L 407.5776 214.848 
L 411.1488 214.848 
" clip-path="url(#pefe8876ecb)" style="fill: none; stroke: #ff7f0e; stroke-width: 1.5; stroke-linecap: square"/>
   </g>
   <g id="line2d_16">
    <path d="M 57.6 214.848 
L 61.1712 214.848 
L 64.7424 214.848 
L 68.3136 295.488 
L 71.8848 214.848 
L 75.456 214.848 
L 79.0272 214.848 
L 82.5984 214.848 
L 86.1696 295.488 
L 89.7408 214.848 
L 93.312 214.848 
L 96.8832 214.848 
L 100.4544 295.488 
L 104.0256 134.208 
L 107.5968 134.208 
L 111.168 134.208 
L 114.7392 134.208 
L 118.3104 214.848 
L 121.8816 214.848 
L 125.4528 134.208 
L 129.024 134.208 
L 132.5952 214.848 
L 136.1664 214.848 
L 139.7376 295.488 
L 143.3088 214.848 
L 146.88 214.848 
L 150.4512 295.488 
L 154.0224 214.848 
L 157.5936 214.848 
L 161.1648 214.848 
L 164.736 214.848 
L 168.3072 214.848 
L 171.8784 53.568 
L 175.4496 53.568 
L 179.0208 53.568 
L 182.592 134.208 
L 186.1632 53.568 
L 189.7344 134.208 
L 193.3056 214.848 
L 196.8768 214.848 
L 200.448 295.488 
L 204.0192 214.848 
L 207.5904 214.848 
L 211.1616 214.848 
L 214.7328 214.848 
L 218.304 295.488 
L 221.8752 214.848 
L 225.4464 214.848 
L 229.0176 214.848 
L 232.5888 134.208 
L 236.16 214.848 
L 239.7312 214.848 
L 243.3024 214.848 
L 246.8736 214.848 
L 250.4448 214.848 
L 254.016 214.848 
L 257.5872 295.488 
L 261.1584 214.848 
L 264.7296 214.848 
L 268.3008 214.848 
L 271.872 134.208 
L 275.4432 295.488 
L 279.0144 134.208 
L 282.5856 295.488 
L 286.1568 214.848 
L 289.728 214.848 
L 293.2992 214.848 
L 296.8704 134.208 
L 300.4416 134.208 
L 304.0128 295.488 
L 307.584 214.848 
L 311.1552 134.208 
L 314.7264 214.848 
L 318.2976 295.488 
L 321.8688 134.208 
L 325.44 214.848 
L 329.0112 214.848 
L 332.5824 214.848 
L 336.1536 214.848 
L 339.7248 295.488 
L 343.296 214.848 
L 346.8672 295.488 
L 350.4384 214.848 
L 354.0096 214.848 
L 357.5808 214.848 
L 361.152 134.208 
L 364.7232 214.848 
L 368.2944 214.848 
L 371.8656 214.848 
L 375.4368 134.208 
L 379.008 214.848 
L 382.5792 214.848 
L 386.1504 214.848 
L 389.7216 214.848 
L 393.2928 295.488 
L 396.864 214.848 
L 400.4352 214.848 
L 404.0064 214.848 
L 407.5776 214.848 
L 411.1488 214.848 
" clip-path="url(#pefe8876ecb)" style="fill: none; stroke: #2ca02c; stroke-width: 1.5; stroke-linecap: square"/>
   </g>
   <g id="line2d_17">
    <path d="M 57.6 214.848 
L 61.1712 214.848 
L 64.7424 214.848 
L 68.3136 295.488 
L 71.8848 214.848 
L 75.456 214.848 
L 79.0272 214.848 
L 82.5984 214.848 
L 86.1696 295.488 
L 89.7408 214.848 
L 93.312 214.848 
L 96.8832 214.848 
L 100.4544 295.488 
L 104.0256 134.208 
L 107.5968 214.848 
L 111.168 53.568 
L 114.7392 134.208 
L 118.3104 214.848 
L 121.8816 214.848 
L 125.4528 53.568 
L 129.024 134.208 
L 132.5952 214.848 
L 136.1664 214.848 
L 139.7376 295.488 
L 143.3088 214.848 
L 146.88 214.848 
L 150.4512 295.488 
L 154.0224 214.848 
L 157.5936 214.848 
L 161.1648 295.488 
L 164.736 214.848 
L 168.3072 214.848 
L 171.8784 53.568 
L 175.4496 53.568 
L 179.0208 134.208 
L 182.592 53.568 
L 186.1632 53.568 
L 189.7344 214.848 
L 193.3056 214.848 
L 196.8768 214.848 
L 200.448 214.848 
L 204.0192 295.488 
L 207.5904 214.848 
L 211.1616 214.848 
L 214.7328 295.488 
L 218.304 214.848 
L 221.8752 214.848 
L 225.4464 214.848 
L 229.0176 214.848 
L 232.5888 214.848 
L 236.16 214.848 
L 239.7312 134.208 
L 243.3024 214.848 
L 246.8736 214.848 
L 250.4448 214.848 
L 254.016 214.848 
L 257.5872 295.488 
L 261.1584 214.848 
L 264.7296 214.848 
L 268.3008 214.848 
L 271.872 134.208 
L 275.4432 295.488 
L 279.0144 214.848 
L 282.5856 214.848 
L 286.1568 214.848 
L 289.728 214.848 
L 293.2992 214.848 
L 296.8704 214.848 
L 300.4416 53.568 
L 304.0128 295.488 
L 307.584 214.848 
L 311.1552 134.208 
L 314.7264 214.848 
L 318.2976 214.848 
L 321.8688 214.848 
L 325.44 214.848 
L 329.0112 214.848 
L 332.5824 214.848 
L 336.1536 214.848 
L 339.7248 295.488 
L 343.296 214.848 
L 346.8672 295.488 
L 350.4384 214.848 
L 354.0096 214.848 
L 357.5808 214.848 
L 361.152 53.568 
L 364.7232 214.848 
L 368.2944 214.848 
L 371.8656 214.848 
L 375.4368 214.848 
L 379.008 214.848 
L 382.5792 214.848 
L 386.1504 214.848 
L 389.7216 214.848 
L 393.2928 295.488 
L 396.864 214.848 
L 400.4352 214.848 
L 404.0064 214.848 
L 407.5776 134.208 
L 411.1488 214.848 
" clip-path="url(#pefe8876ecb)" style="fill: none; stroke: #d62728; stroke-width: 1.5; stroke-linecap: square"/>
   </g>
   <g id="line2d_18">
    <path d="M 57.6 214.848 
L 61.1712 134.208 
L 64.7424 214.848 
L 68.3136 295.488 
L 71.8848 214.848 
L 75.456 214.848 
L 79.0272 214.848 
L 82.5984 214.848 
L 86.1696 295.488 
L 89.7408 214.848 
L 93.312 214.848 
L 96.8832 214.848 
L 100.4544 295.488 
L 104.0256 134.208 
L 107.5968 214.848 
L 111.168 53.568 
L 114.7392 134.208 
L 118.3104 214.848 
L 121.8816 214.848 
L 125.4528 134.208 
L 129.024 53.568 
L 132.5952 214.848 
L 136.1664 214.848 
L 139.7376 295.488 
L 143.3088 214.848 
L 146.88 214.848 
L 150.4512 295.488 
L 154.0224 214.848 
L 157.5936 214.848 
L 161.1648 295.488 
L 164.736 214.848 
L 168.3072 214.848 
L 171.8784 53.568 
L 175.4496 134.208 
L 179.0208 53.568 
L 182.592 53.568 
L 186.1632 53.568 
L 189.7344 214.848 
L 193.3056 214.848 
L 196.8768 214.848 
L 200.448 295.488 
L 204.0192 214.848 
L 207.5904 214.848 
L 211.1616 214.848 
L 214.7328 214.848 
L 218.304 214.848 
L 221.8752 214.848 
L 225.4464 214.848 
L 229.0176 214.848 
L 232.5888 214.848 
L 236.16 214.848 
L 239.7312 214.848 
L 243.3024 214.848 
L 246.8736 214.848 
L 250.4448 214.848 
L 254.016 214.848 
L 257.5872 295.488 
L 261.1584 214.848 
L 264.7296 214.848 
L 268.3008 134.208 
L 271.872 134.208 
L 275.4432 295.488 
L 279.0144 214.848 
L 282.5856 214.848 
L 286.1568 214.848 
L 289.728 214.848 
L 293.2992 214.848 
L 296.8704 214.848 
L 300.4416 53.568 
L 304.0128 295.488 
L 307.584 214.848 
L 311.1552 134.208 
L 314.7264 295.488 
L 318.2976 214.848 
L 321.8688 214.848 
L 325.44 214.848 
L 329.0112 214.848 
L 332.5824 214.848 
L 336.1536 214.848 
L 339.7248 295.488 
L 343.296 214.848 
L 346.8672 295.488 
L 350.4384 214.848 
L 354.0096 214.848 
L 357.5808 134.208 
L 361.152 53.568 
L 364.7232 214.848 
L 368.2944 214.848 
L 371.8656 214.848 
L 375.4368 214.848 
L 379.008 214.848 
L 382.5792 214.848 
L 386.1504 214.848 
L 389.7216 295.488 
L 393.2928 134.208 
L 396.864 295.488 
L 400.4352 214.848 
L 404.0064 214.848 
L 407.5776 214.848 
L 411.1488 214.848 
" clip-path="url(#pefe8876ecb)" style="fill: none; stroke: #9467bd; stroke-width: 1.5; stroke-linecap: square"/>
   </g>
   <g id="line2d_19">
    <path d="M 57.6 134.208 
L 61.1712 214.848 
L 64.7424 214.848 
L 68.3136 295.488 
L 71.8848 214.848 
L 75.456 214.848 
L 79.0272 214.848 
L 82.5984 214.848 
L 86.1696 295.488 
L 89.7408 214.848 
L 93.312 214.848 
L 96.8832 214.848 
L 100.4544 295.488 
L 104.0256 134.208 
L 107.5968 214.848 
L 111.168 53.568 
L 114.7392 134.208 
L 118.3104 214.848 
L 121.8816 214.848 
L 125.4528 53.568 
L 129.024 134.208 
L 132.5952 214.848 
L 136.1664 214.848 
L 139.7376 295.488 
L 143.3088 214.848 
L 146.88 214.848 
L 150.4512 295.488 
L 154.0224 214.848 
L 157.5936 214.848 
L 161.1648 295.488 
L 164.736 214.848 
L 168.3072 214.848 
L 171.8784 53.568 
L 175.4496 53.568 
L 179.0208 134.208 
L 182.592 53.568 
L 186.1632 53.568 
L 189.7344 214.848 
L 193.3056 214.848 
L 196.8768 214.848 
L 200.448 214.848 
L 204.0192 295.488 
L 207.5904 214.848 
L 211.1616 214.848 
L 214.7328 214.848 
L 218.304 214.848 
L 221.8752 214.848 
L 225.4464 134.208 
L 229.0176 214.848 
L 232.5888 214.848 
L 236.16 214.848 
L 239.7312 214.848 
L 243.3024 134.208 
L 246.8736 214.848 
L 250.4448 214.848 
L 254.016 214.848 
L 257.5872 295.488 
L 261.1584 214.848 
L 264.7296 214.848 
L 268.3008 214.848 
L 271.872 134.208 
L 275.4432 295.488 
L 279.0144 214.848 
L 282.5856 214.848 
L 286.1568 214.848 
L 289.728 214.848 
L 293.2992 214.848 
L 296.8704 214.848 
L 300.4416 53.568 
L 304.0128 295.488 
L 307.584 214.848 
L 311.1552 134.208 
L 314.7264 214.848 
L 318.2976 214.848 
L 321.8688 214.848 
L 325.44 214.848 
L 329.0112 214.848 
L 332.5824 214.848 
L 336.1536 295.488 
L 339.7248 214.848 
L 343.296 214.848 
L 346.8672 295.488 
L 350.4384 214.848 
L 354.0096 134.208 
L 357.5808 214.848 
L 361.152 53.568 
L 364.7232 214.848 
L 368.2944 214.848 
L 371.8656 214.848 
L 375.4368 214.848 
L 379.008 214.848 
L 382.5792 214.848 
L 386.1504 214.848 
L 389.7216 295.488 
L 393.2928 134.208 
L 396.864 295.488 
L 400.4352 214.848 
L 404.0064 214.848 
L 407.5776 214.848 
L 411.1488 214.848 
" clip-path="url(#pefe8876ecb)" style="fill: none; stroke: #8c564b; stroke-width: 1.5; stroke-linecap: square"/>
   </g>
   <g id="line2d_20">
    <path d="M 57.6 214.848 
L 61.1712 214.848 
L 64.7424 214.848 
L 68.3136 295.488 
L 71.8848 214.848 
L 75.456 214.848 
L 79.0272 214.848 
L 82.5984 214.848 
L 86.1696 295.488 
L 89.7408 214.848 
L 93.312 214.848 
L 96.8832 214.848 
L 100.4544 295.488 
L 104.0256 134.208 
L 107.5968 214.848 
L 111.168 134.208 
L 114.7392 53.568 
L 118.3104 214.848 
L 121.8816 214.848 
L 125.4528 53.568 
L 129.024 134.208 
L 132.5952 214.848 
L 136.1664 214.848 
L 139.7376 295.488 
L 143.3088 214.848 
L 146.88 214.848 
L 150.4512 295.488 
L 154.0224 214.848 
L 157.5936 214.848 
L 161.1648 295.488 
L 164.736 214.848 
L 168.3072 214.848 
L 171.8784 53.568 
L 175.4496 134.208 
L 179.0208 53.568 
L 182.592 53.568 
L 186.1632 53.568 
L 189.7344 214.848 
L 193.3056 214.848 
L 196.8768 214.848 
L 200.448 214.848 
L 204.0192 295.488 
L 207.5904 214.848 
L 211.1616 134.208 
L 214.7328 214.848 
L 218.304 214.848 
L 221.8752 214.848 
L 225.4464 214.848 
L 229.0176 214.848 
L 232.5888 214.848 
L 236.16 214.848 
L 239.7312 214.848 
L 243.3024 214.848 
L 246.8736 214.848 
L 250.4448 214.848 
L 254.016 295.488 
L 257.5872 214.848 
L 261.1584 214.848 
L 264.7296 214.848 
L 268.3008 134.208 
L 271.872 134.208 
L 275.4432 295.488 
L 279.0144 214.848 
L 282.5856 134.208 
L 286.1568 295.488 
L 289.728 214.848 
L 293.2992 214.848 
L 296.8704 214.848 
L 300.4416 134.208 
L 304.0128 295.488 
L 307.584 214.848 
L 311.1552 134.208 
L 314.7264 214.848 
L 318.2976 295.488 
L 321.8688 214.848 
L 325.44 214.848 
L 329.0112 214.848 
L 332.5824 214.848 
L 336.1536 214.848 
L 339.7248 295.488 
L 343.296 214.848 
L 346.8672 295.488 
L 350.4384 214.848 
L 354.0096 214.848 
L 357.5808 214.848 
L 361.152 134.208 
L 364.7232 214.848 
L 368.2944 214.848 
L 371.8656 214.848 
L 375.4368 214.848 
L 379.008 214.848 
L 382.5792 214.848 
L 386.1504 214.848 
L 389.7216 295.488 
L 393.2928 214.848 
L 396.864 214.848 
L 400.4352 214.848 
L 404.0064 214.848 
L 407.5776 214.848 
L 411.1488 214.848 
" clip-path="url(#pefe8876ecb)" style="fill: none; stroke: #e377c2; stroke-width: 1.5; stroke-linecap: square"/>
   </g>
   <g id="line2d_21">
    <path d="M 57.6 214.848 
L 61.1712 214.848 
L 64.7424 214.848 
L 68.3136 295.488 
L 71.8848 214.848 
L 75.456 214.848 
L 79.0272 214.848 
L 82.5984 214.848 
L 86.1696 295.488 
L 89.7408 214.848 
L 93.312 214.848 
L 96.8832 214.848 
L 100.4544 295.488 
L 104.0256 134.208 
L 107.5968 134.208 
L 111.168 134.208 
L 114.7392 134.208 
L 118.3104 134.208 
L 121.8816 214.848 
L 125.4528 134.208 
L 129.024 134.208 
L 132.5952 214.848 
L 136.1664 214.848 
L 139.7376 295.488 
L 143.3088 214.848 
L 146.88 214.848 
L 150.4512 295.488 
L 154.0224 214.848 
L 157.5936 214.848 
L 161.1648 295.488 
L 164.736 214.848 
L 168.3072 214.848 
L 171.8784 53.568 
L 175.4496 53.568 
L 179.0208 134.208 
L 182.592 53.568 
L 186.1632 53.568 
L 189.7344 134.208 
L 193.3056 214.848 
L 196.8768 214.848 
L 200.448 295.488 
L 204.0192 214.848 
L 207.5904 214.848 
L 211.1616 214.848 
L 214.7328 295.488 
L 218.304 214.848 
L 221.8752 214.848 
L 225.4464 214.848 
L 229.0176 214.848 
L 232.5888 214.848 
L 236.16 134.208 
L 239.7312 214.848 
L 243.3024 214.848 
L 246.8736 214.848 
L 250.4448 214.848 
L 254.016 214.848 
L 257.5872 295.488 
L 261.1584 214.848 
L 264.7296 214.848 
L 268.3008 214.848 
L 271.872 134.208 
L 275.4432 295.488 
L 279.0144 214.848 
L 282.5856 214.848 
L 286.1568 214.848 
L 289.728 214.848 
L 293.2992 214.848 
L 296.8704 134.208 
L 300.4416 134.208 
L 304.0128 295.488 
L 307.584 214.848 
L 311.1552 134.208 
L 314.7264 214.848 
L 318.2976 295.488 
L 321.8688 214.848 
L 325.44 134.208 
L 329.0112 214.848 
L 332.5824 214.848 
L 336.1536 214.848 
L 339.7248 295.488 
L 343.296 214.848 
L 346.8672 295.488 
L 350.4384 214.848 
L 354.0096 214.848 
L 357.5808 214.848 
L 361.152 134.208 
L 364.7232 214.848 
L 368.2944 214.848 
L 371.8656 214.848 
L 375.4368 134.208 
L 379.008 214.848 
L 382.5792 214.848 
L 386.1504 214.848 
L 389.7216 214.848 
L 393.2928 295.488 
L 396.864 214.848 
L 400.4352 214.848 
L 404.0064 214.848 
L 407.5776 214.848 
L 411.1488 214.848 
" clip-path="url(#pefe8876ecb)" style="fill: none; stroke: #7f7f7f; stroke-width: 1.5; stroke-linecap: square"/>
   </g>
   <g id="line2d_22">
    <path d="M 57.6 214.848 
L 61.1712 214.848 
L 64.7424 134.208 
L 68.3136 295.488 
L 71.8848 214.848 
L 75.456 214.848 
L 79.0272 214.848 
L 82.5984 214.848 
L 86.1696 295.488 
L 89.7408 214.848 
L 93.312 214.848 
L 96.8832 214.848 
L 100.4544 214.848 
L 104.0256 134.208 
L 107.5968 214.848 
L 111.168 134.208 
L 114.7392 134.208 
L 118.3104 134.208 
L 121.8816 214.848 
L 125.4528 134.208 
L 129.024 53.568 
L 132.5952 214.848 
L 136.1664 214.848 
L 139.7376 295.488 
L 143.3088 214.848 
L 146.88 214.848 
L 150.4512 295.488 
L 154.0224 214.848 
L 157.5936 134.208 
L 161.1648 295.488 
L 164.736 214.848 
L 168.3072 214.848 
L 171.8784 134.208 
L 175.4496 53.568 
L 179.0208 53.568 
L 182.592 53.568 
L 186.1632 53.568 
L 189.7344 214.848 
L 193.3056 214.848 
L 196.8768 214.848 
L 200.448 214.848 
L 204.0192 295.488 
L 207.5904 214.848 
L 211.1616 214.848 
L 214.7328 214.848 
L 218.304 214.848 
L 221.8752 214.848 
L 225.4464 214.848 
L 229.0176 214.848 
L 232.5888 134.208 
L 236.16 214.848 
L 239.7312 214.848 
L 243.3024 214.848 
L 246.8736 214.848 
L 250.4448 214.848 
L 254.016 214.848 
L 257.5872 295.488 
L 261.1584 214.848 
L 264.7296 214.848 
L 268.3008 134.208 
L 271.872 134.208 
L 275.4432 295.488 
L 279.0144 134.208 
L 282.5856 214.848 
L 286.1568 214.848 
L 289.728 214.848 
L 293.2992 214.848 
L 296.8704 214.848 
L 300.4416 53.568 
L 304.0128 295.488 
L 307.584 214.848 
L 311.1552 134.208 
L 314.7264 214.848 
L 318.2976 214.848 
L 321.8688 214.848 
L 325.44 134.208 
L 329.0112 214.848 
L 332.5824 214.848 
L 336.1536 214.848 
L 339.7248 214.848 
L 343.296 214.848 
L 346.8672 295.488 
L 350.4384 214.848 
L 354.0096 214.848 
L 357.5808 214.848 
L 361.152 134.208 
L 364.7232 134.208 
L 368.2944 214.848 
L 371.8656 214.848 
L 375.4368 214.848 
L 379.008 214.848 
L 382.5792 214.848 
L 386.1504 214.848 
L 389.7216 295.488 
L 393.2928 134.208 
L 396.864 295.488 
L 400.4352 214.848 
L 404.0064 214.848 
L 407.5776 214.848 
L 411.1488 214.848 
" clip-path="url(#pefe8876ecb)" style="fill: none; stroke: #bcbd22; stroke-width: 1.5; stroke-linecap: square"/>
   </g>
   <g id="line2d_23">
    <path d="M 57.6 214.848 
L 61.1712 214.848 
L 64.7424 214.848 
L 68.3136 295.488 
L 71.8848 214.848 
L 75.456 134.208 
L 79.0272 214.848 
L 82.5984 214.848 
L 86.1696 295.488 
L 89.7408 214.848 
L 93.312 214.848 
L 96.8832 214.848 
L 100.4544 214.848 
L 104.0256 214.848 
L 107.5968 214.848 
L 111.168 134.208 
L 114.7392 53.568 
L 118.3104 214.848 
L 121.8816 214.848 
L 125.4528 134.208 
L 129.024 134.208 
L 132.5952 214.848 
L 136.1664 214.848 
L 139.7376 295.488 
L 143.3088 214.848 
L 146.88 214.848 
L 150.4512 295.488 
L 154.0224 214.848 
L 157.5936 214.848 
L 161.1648 295.488 
L 164.736 214.848 
L 168.3072 214.848 
L 171.8784 53.568 
L 175.4496 53.568 
L 179.0208 53.568 
L 182.592 134.208 
L 186.1632 53.568 
L 189.7344 134.208 
L 193.3056 214.848 
L 196.8768 214.848 
L 200.448 295.488 
L 204.0192 214.848 
L 207.5904 214.848 
L 211.1616 214.848 
L 214.7328 214.848 
L 218.304 295.488 
L 221.8752 214.848 
L 225.4464 214.848 
L 229.0176 214.848 
L 232.5888 214.848 
L 236.16 214.848 
L 239.7312 214.848 
L 243.3024 214.848 
L 246.8736 214.848 
L 250.4448 214.848 
L 254.016 295.488 
L 257.5872 214.848 
L 261.1584 214.848 
L 264.7296 214.848 
L 268.3008 214.848 
L 271.872 134.208 
L 275.4432 295.488 
L 279.0144 214.848 
L 282.5856 214.848 
L 286.1568 214.848 
L 289.728 214.848 
L 293.2992 214.848 
L 296.8704 134.208 
L 300.4416 134.208 
L 304.0128 295.488 
L 307.584 214.848 
L 311.1552 134.208 
L 314.7264 214.848 
L 318.2976 295.488 
L 321.8688 214.848 
L 325.44 214.848 
L 329.0112 214.848 
L 332.5824 214.848 
L 336.1536 214.848 
L 339.7248 295.488 
L 343.296 214.848 
L 346.8672 295.488 
L 350.4384 214.848 
L 354.0096 214.848 
L 357.5808 214.848 
L 361.152 134.208 
L 364.7232 214.848 
L 368.2944 214.848 
L 371.8656 134.208 
L 375.4368 214.848 
L 379.008 214.848 
L 382.5792 214.848 
L 386.1504 214.848 
L 389.7216 295.488 
L 393.2928 214.848 
L 396.864 214.848 
L 400.4352 214.848 
L 404.0064 214.848 
L 407.5776 214.848 
L 411.1488 214.848 
" clip-path="url(#pefe8876ecb)" style="fill: none; stroke: #17becf; stroke-width: 1.5; stroke-linecap: square"/>
   </g>
   <g id="line2d_24">
    <path d="M 57.6 194.8032 
L 61.1712 220.8384 
L 64.7424 236.5056 
L 68.3136 252.6336 
L 71.8848 240.4224 
L 75.456 204.0192 
L 79.0272 205.1712 
L 82.5984 243.1872 
L 86.1696 254.016 
L 89.7408 242.496 
L 93.312 202.4064 
L 96.8832 243.1872 
L 100.4544 223.3728 
L 104.0256 202.4064 
L 107.5968 145.728 
L 111.168 127.9872 
L 114.7392 121.7664 
L 118.3104 185.8176 
L 121.8816 185.1264 
L 125.4528 128.9088 
L 129.024 129.1392 
L 132.5952 184.4352 
L 136.1664 250.7904 
L 139.7376 254.016 
L 143.3088 235.584 
L 146.88 235.584 
L 150.4512 254.7072 
L 154.0224 233.5104 
L 157.5936 228.9024 
L 161.1648 247.3344 
L 164.736 252.864 
L 168.3072 171.3024 
L 171.8784 106.3296 
L 175.4496 59.328 
L 179.0208 77.0688 
L 182.592 63.936 
L 186.1632 94.1184 
L 189.7344 158.4 
L 193.3056 213.4656 
L 196.8768 227.9808 
L 200.448 248.256 
L 204.0192 248.9472 
L 207.5904 221.0688 
L 211.1616 210.9312 
L 214.7328 227.52 
L 218.304 236.2752 
L 221.8752 223.6032 
L 225.4464 210.24 
L 229.0176 203.328 
L 232.5888 200.1024 
L 236.16 200.1024 
L 239.7312 204.0192 
L 243.3024 209.5488 
L 246.8736 211.392 
L 250.4448 215.5392 
L 254.016 244.8 
L 257.5872 251.712 
L 261.1584 237.6576 
L 264.7296 208.6272 
L 268.3008 165.7728 
L 271.872 193.1904 
L 275.4432 216.6912 
L 279.0144 240.4224 
L 282.5856 206.3232 
L 286.1568 223.6032 
L 289.728 219.6864 
L 293.2992 212.7744 
L 296.8704 153.5616 
L 300.4416 176.6016 
L 304.0128 225.6768 
L 307.584 220.3776 
L 311.1552 166.9248 
L 314.7264 206.784 
L 318.2976 246.8736 
L 321.8688 215.0784 
L 325.44 196.8768 
L 329.0112 206.5536 
L 332.5824 214.1568 
L 336.1536 240.8832 
L 339.7248 242.0352 
L 343.296 263.9232 
L 346.8672 249.1776 
L 350.4384 240.4224 
L 354.0096 210.24 
L 357.5808 172.9152 
L 361.152 159.0912 
L 364.7232 176.3712 
L 368.2944 220.3776 
L 371.8656 203.328 
L 375.4368 200.3328 
L 379.008 207.2448 
L 382.5792 212.0832 
L 386.1504 234.2016 
L 389.7216 240.192 
L 393.2928 242.496 
L 396.864 221.76 
L 400.4352 223.8336 
L 404.0064 210.0096 
L 407.5776 208.3968 
L 411.1488 214.848 
" clip-path="url(#pefe8876ecb)" style="fill: none; stroke: #cccccc; stroke-width: 4; stroke-linecap: square"/>
   </g>
   <g id="patch_3">
    <path d="M 57.6 307.584 
L 57.6 41.472 
" style="fill: none; stroke: #000000; stroke-width: 0.8; stroke-linejoin: miter; stroke-linecap: square"/>
   </g>
   <g id="patch_4">
    <path d="M 414.72 307.584 
L 414.72 41.472 
" style="fill: none; stroke: #000000; stroke-width: 0.8; stroke-linejoin: miter; stroke-linecap: square"/>
   </g>
   <g id="patch_5">
    <path d="M 57.6 307.584 
L 414.72 307.584 
" style="fill: none; stroke: #000000; stroke-width: 0.8; stroke-linejoin: miter; stroke-linecap: square"/>
   </g>
   <g id="patch_6">
    <path d="M 57.6 41.472 
L 414.72 41.472 
" style="fill: none; stroke: #000000; stroke-width: 0.8; stroke-linejoin: miter; stroke-linecap: square"/>
   </g>
   <g id="legend_1">
    <g id="patch_7">
     <path d="M 194.79125 64.150125 
L 277.52875 64.150125 
Q 279.52875 64.150125 279.52875 62.150125 
L 279.52875 48.472 
Q 279.52875 46.472 277.52875 46.472 
L 194.79125 46.472 
Q 192.79125 46.472 192.79125 48.472 
L 192.79125 62.150125 
Q 192.79125 64.150125 194.79125 64.150125 
z
" style="fill: #ffffff; opacity: 0.8; stroke: #cccccc; stroke-linejoin: miter"/>
    </g>
    <g id="line2d_25">
     <path d="M 196.79125 54.570438 
L 206.79125 54.570438 
L 216.79125 54.570438 
" style="fill: none; stroke: #cccccc; stroke-width: 4; stroke-linecap: square"/>
    </g>
    <g id="text_16">
     <!-- Mean rate -->
     <g transform="translate(224.79125 58.070438) scale(0.1 -0.1)">
      <defs>
       <path id="DejaVuSans-4d" d="M 628 4666 
L 1569 4666 
L 2759 1491 
L 3956 4666 
L 4897 4666 
L 4897 0 
L 4281 0 
L 4281 4097 
L 3078 897 
L 2444 897 
L 1241 4097 
L 1241 0 
L 628 0 
L 628 4666 
z
" transform="scale(0.015625)"/>
       <path id="DejaVuSans-6e" d="M 3513 2113 
L 3513 0 
L 2938 0 
L 2938 2094 
Q 2938 2591 2744 2837 
Q 2550 3084 2163 3084 
Q 1697 3084 1428 2787 
Q 1159 2491 1159 1978 
L 1159 0 
L 581 0 
L 581 3500 
L 1159 3500 
L 1159 2956 
Q 1366 3272 1645 3428 
Q 1925 3584 2291 3584 
Q 2894 3584 3203 3211 
Q 3513 2838 3513 2113 
z
" transform="scale(0.015625)"/>
       <path id="DejaVuSans-72" d="M 2631 2963 
Q 2534 3019 2420 3045 
Q 2306 3072 2169 3072 
Q 1681 3072 1420 2755 
Q 1159 2438 1159 1844 
L 1159 0 
L 581 0 
L 581 3500 
L 1159 3500 
L 1159 2956 
Q 1341 3275 1631 3429 
Q 1922 3584 2338 3584 
Q 2397 3584 2469 3576 
Q 2541 3569 2628 3553 
L 2631 2963 
z
" transform="scale(0.015625)"/>
      </defs>
      <use xlink:href="#DejaVuSans-4d"/>
      <use xlink:href="#DejaVuSans-65" x="86.279297"/>
      <use xlink:href="#DejaVuSans-61" x="147.802734"/>
      <use xlink:href="#DejaVuSans-6e" x="209.082031"/>
      <use xlink:href="#DejaVuSans-20" x="272.460938"/>
      <use xlink:href="#DejaVuSans-72" x="304.248047"/>
      <use xlink:href="#DejaVuSans-61" x="345.361328"/>
      <use xlink:href="#DejaVuSans-74" x="406.640625"/>
      <use xlink:href="#DejaVuSans-65" x="445.849609"/>
     </g>
    </g>
   </g>
  </g>
 </g>
 <defs>
  <clipPath id="pefe8876ecb">
   <rect x="57.6" y="41.472" width="357.12" height="266.112"/>
  </clipPath>
 </defs>
</svg>
