<?xml version="1.0" encoding="utf-8" standalone="no"?>
<!DOCTYPE svg PUBLIC "-//W3C//DTD SVG 1.1//EN"
  "http://www.w3.org/Graphics/SVG/1.1/DTD/svg11.dtd">
<svg xmlns:xlink="http://www.w3.org/1999/xlink" width="460.8pt" height="345.6pt" viewBox="0 0 460.8 345.6" xmlns="http://www.w3.org/2000/svg" version="1.1">
 <metadata>
  <rdf:RDF xmlns:dc="http://purl.org/dc/elements/1.1/" xmlns:cc="http://creativecommons.org/ns#" xmlns:rdf="http://www.w3.org/1999/02/22-rdf-syntax-ns#">
   <cc:Work>
    <dc:type rdf:resource="http://purl.org/dc/dcmitype/StillImage"/>
    <dc:date>2024-10-02T20:06:06.006052</dc:date>
    <dc:format>image/svg+xml</dc:format>
    <dc:creator>
     <cc:Agent>
      <dc:title>Matplotlib v3.8.3, https://matplotlib.org/</dc:title>
     </cc:Agent>
    </dc:creator>
   </cc:Work>
  </rdf:RDF>
 </metadata>
 <defs>
  <style type="text/css">*{stroke-linejoin: round; stroke-linecap: butt}</style>
 </defs>
 <g id="figure_1">
  <g id="patch_1">
   <path d="M 0 345.6 
L 460.8 345.6 
L 460.8 0 
L 0 0 
z
" style="fill: #ffffff"/>
  </g>
  <g id="axes_1">
   <g id="patch_2">
    <path d="M 57.6 307.584 
L 414.72 307.584 
L 414.72 41.472 
L 57.6 41.472 
z
" style="fill: #ffffff"/>
   </g>
   <g id="matplotlib.axis_1">
    <g id="xtick_1">
     <g id="line2d_1">
      <defs>
       <path id="mad79ba589d" d="M 0 0 
L 0 3.5 
" style="stroke: #000000; stroke-width: 0.8"/>
      </defs>
      <g>
       <use xlink:href="#mad79ba589d" x="57.6" y="307.584" style="stroke: #000000; stroke-width: 0.8"/>
      </g>
     </g>
     <g id="text_1">
      <!-- 0 -->
      <g transform="translate(54.41875 322.182437) scale(0.1 -0.1)">
       <defs>
        <path id="DejaVuSans-30" d="M 2034 4250 
Q 1547 4250 1301 3770 
Q 1056 3291 1056 2328 
Q 1056 1369 1301 889 
Q 1547 409 2034 409 
Q 2525 409 2770 889 
Q 3016 1369 3016 2328 
Q 3016 3291 2770 3770 
Q 2525 4250 2034 4250 
z
M 2034 4750 
Q 2819 4750 3233 4129 
Q 3647 3509 3647 2328 
Q 3647 1150 3233 529 
Q 2819 -91 2034 -91 
Q 1250 -91 836 529 
Q 422 1150 422 2328 
Q 422 3509 836 4129 
Q 1250 4750 2034 4750 
z
" transform="scale(0.015625)"/>
       </defs>
       <use xlink:href="#DejaVuSans-30"/>
      </g>
     </g>
    </g>
    <g id="xtick_2">
     <g id="line2d_2">
      <g>
       <use xlink:href="#mad79ba589d" x="129.024" y="307.584" style="stroke: #000000; stroke-width: 0.8"/>
      </g>
     </g>
     <g id="text_2">
      <!-- 20 -->
      <g transform="translate(122.6615 322.182437) scale(0.1 -0.1)">
       <defs>
        <path id="DejaVuSans-32" d="M 1228 531 
L 3431 531 
L 3431 0 
L 469 0 
L 469 531 
Q 828 903 1448 1529 
Q 2069 2156 2228 2338 
Q 2531 2678 2651 2914 
Q 2772 3150 2772 3378 
Q 2772 3750 2511 3984 
Q 2250 4219 1831 4219 
Q 1534 4219 1204 4116 
Q 875 4013 500 3803 
L 500 4441 
Q 881 4594 1212 4672 
Q 1544 4750 1819 4750 
Q 2544 4750 2975 4387 
Q 3406 4025 3406 3419 
Q 3406 3131 3298 2873 
Q 3191 2616 2906 2266 
Q 2828 2175 2409 1742 
Q 1991 1309 1228 531 
z
" transform="scale(0.015625)"/>
       </defs>
       <use xlink:href="#DejaVuSans-32"/>
       <use xlink:href="#DejaVuSans-30" x="63.623047"/>
      </g>
     </g>
    </g>
    <g id="xtick_3">
     <g id="line2d_3">
      <g>
       <use xlink:href="#mad79ba589d" x="200.448" y="307.584" style="stroke: #000000; stroke-width: 0.8"/>
      </g>
     </g>
     <g id="text_3">
      <!-- 40 -->
      <g transform="translate(194.0855 322.182437) scale(0.1 -0.1)">
       <defs>
        <path id="DejaVuSans-34" d="M 2419 4116 
L 825 1625 
L 2419 1625 
L 2419 4116 
z
M 2253 4666 
L 3047 4666 
L 3047 1625 
L 3713 1625 
L 3713 1100 
L 3047 1100 
L 3047 0 
L 2419 0 
L 2419 1100 
L 313 1100 
L 313 1709 
L 2253 4666 
z
" transform="scale(0.015625)"/>
       </defs>
       <use xlink:href="#DejaVuSans-34"/>
       <use xlink:href="#DejaVuSans-30" x="63.623047"/>
      </g>
     </g>
    </g>
    <g id="xtick_4">
     <g id="line2d_4">
      <g>
       <use xlink:href="#mad79ba589d" x="271.872" y="307.584" style="stroke: #000000; stroke-width: 0.8"/>
      </g>
     </g>
     <g id="text_4">
      <!-- 60 -->
      <g transform="translate(265.5095 322.182437) scale(0.1 -0.1)">
       <defs>
        <path id="DejaVuSans-36" d="M 2113 2584 
Q 1688 2584 1439 2293 
Q 1191 2003 1191 1497 
Q 1191 994 1439 701 
Q 1688 409 2113 409 
Q 2538 409 2786 701 
Q 3034 994 3034 1497 
Q 3034 2003 2786 2293 
Q 2538 2584 2113 2584 
z
M 3366 4563 
L 3366 3988 
Q 3128 4100 2886 4159 
Q 2644 4219 2406 4219 
Q 1781 4219 1451 3797 
Q 1122 3375 1075 2522 
Q 1259 2794 1537 2939 
Q 1816 3084 2150 3084 
Q 2853 3084 3261 2657 
Q 3669 2231 3669 1497 
Q 3669 778 3244 343 
Q 2819 -91 2113 -91 
Q 1303 -91 875 529 
Q 447 1150 447 2328 
Q 447 3434 972 4092 
Q 1497 4750 2381 4750 
Q 2619 4750 2861 4703 
Q 3103 4656 3366 4563 
z
" transform="scale(0.015625)"/>
       </defs>
       <use xlink:href="#DejaVuSans-36"/>
       <use xlink:href="#DejaVuSans-30" x="63.623047"/>
      </g>
     </g>
    </g>
    <g id="xtick_5">
     <g id="line2d_5">
      <g>
       <use xlink:href="#mad79ba589d" x="343.296" y="307.584" style="stroke: #000000; stroke-width: 0.8"/>
      </g>
     </g>
     <g id="text_5">
      <!-- 80 -->
      <g transform="translate(336.9335 322.182437) scale(0.1 -0.1)">
       <defs>
        <path id="DejaVuSans-38" d="M 2034 2216 
Q 1584 2216 1326 1975 
Q 1069 1734 1069 1313 
Q 1069 891 1326 650 
Q 1584 409 2034 409 
Q 2484 409 2743 651 
Q 3003 894 3003 1313 
Q 3003 1734 2745 1975 
Q 2488 2216 2034 2216 
z
M 1403 2484 
Q 997 2584 770 2862 
Q 544 3141 544 3541 
Q 544 4100 942 4425 
Q 1341 4750 2034 4750 
Q 2731 4750 3128 4425 
Q 3525 4100 3525 3541 
Q 3525 3141 3298 2862 
Q 3072 2584 2669 2484 
Q 3125 2378 3379 2068 
Q 3634 1759 3634 1313 
Q 3634 634 3220 271 
Q 2806 -91 2034 -91 
Q 1263 -91 848 271 
Q 434 634 434 1313 
Q 434 1759 690 2068 
Q 947 2378 1403 2484 
z
M 1172 3481 
Q 1172 3119 1398 2916 
Q 1625 2713 2034 2713 
Q 2441 2713 2670 2916 
Q 2900 3119 2900 3481 
Q 2900 3844 2670 4047 
Q 2441 4250 2034 4250 
Q 1625 4250 1398 4047 
Q 1172 3844 1172 3481 
z
" transform="scale(0.015625)"/>
       </defs>
       <use xlink:href="#DejaVuSans-38"/>
       <use xlink:href="#DejaVuSans-30" x="63.623047"/>
      </g>
     </g>
    </g>
    <g id="xtick_6">
     <g id="line2d_6">
      <g>
       <use xlink:href="#mad79ba589d" x="414.72" y="307.584" style="stroke: #000000; stroke-width: 0.8"/>
      </g>
     </g>
     <g id="text_6">
      <!-- 100 -->
      <g transform="translate(405.17625 322.182437) scale(0.1 -0.1)">
       <defs>
        <path id="DejaVuSans-31" d="M 794 531 
L 1825 531 
L 1825 4091 
L 703 3866 
L 703 4441 
L 1819 4666 
L 2450 4666 
L 2450 531 
L 3481 531 
L 3481 0 
L 794 0 
L 794 531 
z
" transform="scale(0.015625)"/>
       </defs>
       <use xlink:href="#DejaVuSans-31"/>
       <use xlink:href="#DejaVuSans-30" x="63.623047"/>
       <use xlink:href="#DejaVuSans-30" x="127.246094"/>
      </g>
     </g>
    </g>
    <g id="text_7">
     <!-- Interval -->
     <g transform="translate(217.011562 335.860562) scale(0.1 -0.1)">
      <defs>
       <path id="DejaVuSans-49" d="M 628 4666 
L 1259 4666 
L 1259 0 
L 628 0 
L 628 4666 
z
" transform="scale(0.015625)"/>
       <path id="DejaVuSans-6e" d="M 3513 2113 
L 3513 0 
L 2938 0 
L 2938 2094 
Q 2938 2591 2744 2837 
Q 2550 3084 2163 3084 
Q 1697 3084 1428 2787 
Q 1159 2491 1159 1978 
L 1159 0 
L 581 0 
L 581 3500 
L 1159 3500 
L 1159 2956 
Q 1366 3272 1645 3428 
Q 1925 3584 2291 3584 
Q 2894 3584 3203 3211 
Q 3513 2838 3513 2113 
z
" transform="scale(0.015625)"/>
       <path id="DejaVuSans-74" d="M 1172 4494 
L 1172 3500 
L 2356 3500 
L 2356 3053 
L 1172 3053 
L 1172 1153 
Q 1172 725 1289 603 
Q 1406 481 1766 481 
L 2356 481 
L 2356 0 
L 1766 0 
Q 1100 0 847 248 
Q 594 497 594 1153 
L 594 3053 
L 172 3053 
L 172 3500 
L 594 3500 
L 594 4494 
L 1172 4494 
z
" transform="scale(0.015625)"/>
       <path id="DejaVuSans-65" d="M 3597 1894 
L 3597 1613 
L 953 1613 
Q 991 1019 1311 708 
Q 1631 397 2203 397 
Q 2534 397 2845 478 
Q 3156 559 3463 722 
L 3463 178 
Q 3153 47 2828 -22 
Q 2503 -91 2169 -91 
Q 1331 -91 842 396 
Q 353 884 353 1716 
Q 353 2575 817 3079 
Q 1281 3584 2069 3584 
Q 2775 3584 3186 3129 
Q 3597 2675 3597 1894 
z
M 3022 2063 
Q 3016 2534 2758 2815 
Q 2500 3097 2075 3097 
Q 1594 3097 1305 2825 
Q 1016 2553 972 2059 
L 3022 2063 
z
" transform="scale(0.015625)"/>
       <path id="DejaVuSans-72" d="M 2631 2963 
Q 2534 3019 2420 3045 
Q 2306 3072 2169 3072 
Q 1681 3072 1420 2755 
Q 1159 2438 1159 1844 
L 1159 0 
L 581 0 
L 581 3500 
L 1159 3500 
L 1159 2956 
Q 1341 3275 1631 3429 
Q 1922 3584 2338 3584 
Q 2397 3584 2469 3576 
Q 2541 3569 2628 3553 
L 2631 2963 
z
" transform="scale(0.015625)"/>
       <path id="DejaVuSans-76" d="M 191 3500 
L 800 3500 
L 1894 563 
L 2988 3500 
L 3597 3500 
L 2284 0 
L 1503 0 
L 191 3500 
z
" transform="scale(0.015625)"/>
       <path id="DejaVuSans-61" d="M 2194 1759 
Q 1497 1759 1228 1600 
Q 959 1441 959 1056 
Q 959 750 1161 570 
Q 1363 391 1709 391 
Q 2188 391 2477 730 
Q 2766 1069 2766 1631 
L 2766 1759 
L 2194 1759 
z
M 3341 1997 
L 3341 0 
L 2766 0 
L 2766 531 
Q 2569 213 2275 61 
Q 1981 -91 1556 -91 
Q 1019 -91 701 211 
Q 384 513 384 1019 
Q 384 1609 779 1909 
Q 1175 2209 1959 2209 
L 2766 2209 
L 2766 2266 
Q 2766 2663 2505 2880 
Q 2244 3097 1772 3097 
Q 1472 3097 1187 3025 
Q 903 2953 641 2809 
L 641 3341 
Q 956 3463 1253 3523 
Q 1550 3584 1831 3584 
Q 2591 3584 2966 3190 
Q 3341 2797 3341 1997 
z
" transform="scale(0.015625)"/>
       <path id="DejaVuSans-6c" d="M 603 4863 
L 1178 4863 
L 1178 0 
L 603 0 
L 603 4863 
z
" transform="scale(0.015625)"/>
      </defs>
      <use xlink:href="#DejaVuSans-49"/>
      <use xlink:href="#DejaVuSans-6e" x="29.492188"/>
      <use xlink:href="#DejaVuSans-74" x="92.871094"/>
      <use xlink:href="#DejaVuSans-65" x="132.080078"/>
      <use xlink:href="#DejaVuSans-72" x="193.603516"/>
      <use xlink:href="#DejaVuSans-76" x="234.716797"/>
      <use xlink:href="#DejaVuSans-61" x="293.896484"/>
      <use xlink:href="#DejaVuSans-6c" x="355.175781"/>
     </g>
    </g>
   </g>
   <g id="matplotlib.axis_2">
    <g id="ytick_1">
     <g id="line2d_7">
      <defs>
       <path id="mdadb4be1ae" d="M 0 0 
L -3.5 0 
" style="stroke: #000000; stroke-width: 0.8"/>
      </defs>
      <g>
       <use xlink:href="#mdadb4be1ae" x="57.6" y="295.488" style="stroke: #000000; stroke-width: 0.8"/>
      </g>
     </g>
     <g id="text_8">
      <!-- 0.00 -->
      <g transform="translate(28.334375 299.287219) scale(0.1 -0.1)">
       <defs>
        <path id="DejaVuSans-2e" d="M 684 794 
L 1344 794 
L 1344 0 
L 684 0 
L 684 794 
z
" transform="scale(0.015625)"/>
       </defs>
       <use xlink:href="#DejaVuSans-30"/>
       <use xlink:href="#DejaVuSans-2e" x="63.623047"/>
       <use xlink:href="#DejaVuSans-30" x="95.410156"/>
       <use xlink:href="#DejaVuSans-30" x="159.033203"/>
      </g>
     </g>
    </g>
    <g id="ytick_2">
     <g id="line2d_8">
      <g>
       <use xlink:href="#mdadb4be1ae" x="57.6" y="240.506182" style="stroke: #000000; stroke-width: 0.8"/>
      </g>
     </g>
     <g id="text_9">
      <!-- 0.05 -->
      <g transform="translate(28.334375 244.305401) scale(0.1 -0.1)">
       <defs>
        <path id="DejaVuSans-35" d="M 691 4666 
L 3169 4666 
L 3169 4134 
L 1269 4134 
L 1269 2991 
Q 1406 3038 1543 3061 
Q 1681 3084 1819 3084 
Q 2600 3084 3056 2656 
Q 3513 2228 3513 1497 
Q 3513 744 3044 326 
Q 2575 -91 1722 -91 
Q 1428 -91 1123 -41 
Q 819 9 494 109 
L 494 744 
Q 775 591 1075 516 
Q 1375 441 1709 441 
Q 2250 441 2565 725 
Q 2881 1009 2881 1497 
Q 2881 1984 2565 2268 
Q 2250 2553 1709 2553 
Q 1456 2553 1204 2497 
Q 953 2441 691 2322 
L 691 4666 
z
" transform="scale(0.015625)"/>
       </defs>
       <use xlink:href="#DejaVuSans-30"/>
       <use xlink:href="#DejaVuSans-2e" x="63.623047"/>
       <use xlink:href="#DejaVuSans-30" x="95.410156"/>
       <use xlink:href="#DejaVuSans-35" x="159.033203"/>
      </g>
     </g>
    </g>
    <g id="ytick_3">
     <g id="line2d_9">
      <g>
       <use xlink:href="#mdadb4be1ae" x="57.6" y="185.524364" style="stroke: #000000; stroke-width: 0.8"/>
      </g>
     </g>
     <g id="text_10">
      <!-- 0.10 -->
      <g transform="translate(28.334375 189.323582) scale(0.1 -0.1)">
       <use xlink:href="#DejaVuSans-30"/>
       <use xlink:href="#DejaVuSans-2e" x="63.623047"/>
       <use xlink:href="#DejaVuSans-31" x="95.410156"/>
       <use xlink:href="#DejaVuSans-30" x="159.033203"/>
      </g>
     </g>
    </g>
    <g id="ytick_4">
     <g id="line2d_10">
      <g>
       <use xlink:href="#mdadb4be1ae" x="57.6" y="130.542545" style="stroke: #000000; stroke-width: 0.8"/>
      </g>
     </g>
     <g id="text_11">
      <!-- 0.15 -->
      <g transform="translate(28.334375 134.341764) scale(0.1 -0.1)">
       <use xlink:href="#DejaVuSans-30"/>
       <use xlink:href="#DejaVuSans-2e" x="63.623047"/>
       <use xlink:href="#DejaVuSans-31" x="95.410156"/>
       <use xlink:href="#DejaVuSans-35" x="159.033203"/>
      </g>
     </g>
    </g>
    <g id="ytick_5">
     <g id="line2d_11">
      <g>
       <use xlink:href="#mdadb4be1ae" x="57.6" y="75.560727" style="stroke: #000000; stroke-width: 0.8"/>
      </g>
     </g>
     <g id="text_12">
      <!-- 0.20 -->
      <g transform="translate(28.334375 79.359946) scale(0.1 -0.1)">
       <use xlink:href="#DejaVuSans-30"/>
       <use xlink:href="#DejaVuSans-2e" x="63.623047"/>
       <use xlink:href="#DejaVuSans-32" x="95.410156"/>
       <use xlink:href="#DejaVuSans-30" x="159.033203"/>
      </g>
     </g>
    </g>
    <g id="text_13">
     <!-- Rate $(kHz)$ -->
     <g transform="translate(22.254687 200.878) rotate(-90) scale(0.1 -0.1)">
      <defs>
       <path id="DejaVuSans-52" d="M 2841 2188 
Q 3044 2119 3236 1894 
Q 3428 1669 3622 1275 
L 4263 0 
L 3584 0 
L 2988 1197 
Q 2756 1666 2539 1819 
Q 2322 1972 1947 1972 
L 1259 1972 
L 1259 0 
L 628 0 
L 628 4666 
L 2053 4666 
Q 2853 4666 3247 4331 
Q 3641 3997 3641 3322 
Q 3641 2881 3436 2590 
Q 3231 2300 2841 2188 
z
M 1259 4147 
L 1259 2491 
L 2053 2491 
Q 2509 2491 2742 2702 
Q 2975 2913 2975 3322 
Q 2975 3731 2742 3939 
Q 2509 4147 2053 4147 
L 1259 4147 
z
" transform="scale(0.015625)"/>
       <path id="DejaVuSans-20" transform="scale(0.015625)"/>
       <path id="DejaVuSans-28" d="M 1984 4856 
Q 1566 4138 1362 3434 
Q 1159 2731 1159 2009 
Q 1159 1288 1364 580 
Q 1569 -128 1984 -844 
L 1484 -844 
Q 1016 -109 783 600 
Q 550 1309 550 2009 
Q 550 2706 781 3412 
Q 1013 4119 1484 4856 
L 1984 4856 
z
" transform="scale(0.015625)"/>
       <path id="DejaVuSans-Oblique-6b" d="M 1172 4863 
L 1747 4863 
L 1197 2028 
L 3169 3500 
L 3916 3500 
L 1716 1825 
L 3322 0 
L 2625 0 
L 1131 1709 
L 800 0 
L 225 0 
L 1172 4863 
z
" transform="scale(0.015625)"/>
       <path id="DejaVuSans-Oblique-48" d="M 1081 4666 
L 1716 4666 
L 1344 2753 
L 3634 2753 
L 4006 4666 
L 4641 4666 
L 3731 0 
L 3097 0 
L 3531 2222 
L 1241 2222 
L 806 0 
L 172 0 
L 1081 4666 
z
" transform="scale(0.015625)"/>
       <path id="DejaVuSans-Oblique-7a" d="M 744 3500 
L 3475 3500 
L 3372 2975 
L 738 459 
L 2913 459 
L 2822 0 
L -19 0 
L 84 525 
L 2719 3041 
L 653 3041 
L 744 3500 
z
" transform="scale(0.015625)"/>
       <path id="DejaVuSans-29" d="M 513 4856 
L 1013 4856 
Q 1481 4119 1714 3412 
Q 1947 2706 1947 2009 
Q 1947 1309 1714 600 
Q 1481 -109 1013 -844 
L 513 -844 
Q 928 -128 1133 580 
Q 1338 1288 1338 2009 
Q 1338 2731 1133 3434 
Q 928 4138 513 4856 
z
" transform="scale(0.015625)"/>
      </defs>
      <use xlink:href="#DejaVuSans-52" transform="translate(0 0.015625)"/>
      <use xlink:href="#DejaVuSans-61" transform="translate(69.482422 0.015625)"/>
      <use xlink:href="#DejaVuSans-74" transform="translate(130.761719 0.015625)"/>
      <use xlink:href="#DejaVuSans-65" transform="translate(169.970703 0.015625)"/>
      <use xlink:href="#DejaVuSans-20" transform="translate(231.494141 0.015625)"/>
      <use xlink:href="#DejaVuSans-28" transform="translate(263.28125 0.015625)"/>
      <use xlink:href="#DejaVuSans-Oblique-6b" transform="translate(302.294922 0.015625)"/>
      <use xlink:href="#DejaVuSans-Oblique-48" transform="translate(360.205078 0.015625)"/>
      <use xlink:href="#DejaVuSans-Oblique-7a" transform="translate(435.400391 0.015625)"/>
      <use xlink:href="#DejaVuSans-29" transform="translate(487.890625 0.015625)"/>
     </g>
    </g>
   </g>
   <g id="line2d_12">
    <path d="M 57.6 240.506182 
L 61.1712 229.509818 
L 64.7424 273.495273 
L 68.3136 251.502545 
L 71.8848 251.502545 
L 75.456 251.502545 
L 79.0272 251.502545 
L 82.5984 273.495273 
L 86.1696 251.502545 
L 89.7408 240.506182 
L 93.312 262.498909 
L 96.8832 240.506182 
L 100.4544 251.502545 
L 104.0256 262.498909 
L 107.5968 240.506182 
L 111.168 240.506182 
L 114.7392 240.506182 
L 118.3104 229.509818 
L 121.8816 251.502545 
L 125.4528 251.502545 
L 129.024 251.502545 
L 132.5952 273.495273 
L 136.1664 273.495273 
L 139.7376 251.502545 
L 143.3088 251.502545 
L 146.88 262.498909 
L 150.4512 262.498909 
L 154.0224 262.498909 
L 157.5936 229.509818 
L 161.1648 262.498909 
L 164.736 240.506182 
L 168.3072 240.506182 
L 171.8784 251.502545 
L 175.4496 262.498909 
L 179.0208 229.509818 
L 182.592 262.498909 
L 186.1632 240.506182 
L 189.7344 251.502545 
L 193.3056 240.506182 
L 196.8768 262.498909 
L 200.448 251.502545 
L 204.0192 251.502545 
L 207.5904 251.502545 
L 211.1616 251.502545 
L 214.7328 240.506182 
L 218.304 251.502545 
L 221.8752 240.506182 
L 225.4464 229.509818 
L 229.0176 240.506182 
L 232.5888 240.506182 
L 236.16 262.498909 
L 239.7312 207.517091 
L 243.3024 218.513455 
L 246.8736 218.513455 
L 250.4448 207.517091 
L 254.016 196.520727 
L 257.5872 53.568 
L 261.1584 218.513455 
L 264.7296 207.517091 
L 268.3008 185.524364 
L 271.872 218.513455 
L 275.4432 207.517091 
L 279.0144 207.517091 
L 282.5856 207.517091 
L 286.1568 218.513455 
L 289.728 207.517091 
L 293.2992 207.517091 
L 296.8704 196.520727 
L 300.4416 196.520727 
L 304.0128 207.517091 
L 307.584 207.517091 
L 311.1552 196.520727 
L 314.7264 196.520727 
L 318.2976 196.520727 
L 321.8688 218.513455 
L 325.44 174.528 
L 329.0112 196.520727 
L 332.5824 218.513455 
L 336.1536 218.513455 
L 339.7248 207.517091 
L 343.296 218.513455 
L 346.8672 207.517091 
L 350.4384 185.524364 
L 354.0096 196.520727 
L 357.5808 207.517091 
L 361.152 207.517091 
L 364.7232 196.520727 
L 368.2944 207.517091 
L 371.8656 196.520727 
L 375.4368 196.520727 
L 379.008 207.517091 
L 382.5792 207.517091 
L 386.1504 196.520727 
L 389.7216 196.520727 
L 393.2928 218.513455 
L 396.864 207.517091 
L 400.4352 196.520727 
L 404.0064 218.513455 
L 407.5776 207.517091 
L 411.1488 185.524364 
" clip-path="url(#p74b5b4d3cf)" style="fill: none; stroke: #1f77b4; stroke-width: 1.5; stroke-linecap: square"/>
   </g>
   <g id="line2d_13">
    <path d="M 57.6 273.495273 
L 61.1712 273.495273 
L 64.7424 262.498909 
L 68.3136 240.506182 
L 71.8848 262.498909 
L 75.456 262.498909 
L 79.0272 262.498909 
L 82.5984 240.506182 
L 86.1696 284.491636 
L 89.7408 240.506182 
L 93.312 251.502545 
L 96.8832 251.502545 
L 100.4544 273.495273 
L 104.0256 251.502545 
L 107.5968 240.506182 
L 111.168 262.498909 
L 114.7392 251.502545 
L 118.3104 240.506182 
L 121.8816 262.498909 
L 125.4528 251.502545 
L 129.024 251.502545 
L 132.5952 229.509818 
L 136.1664 251.502545 
L 139.7376 251.502545 
L 143.3088 240.506182 
L 146.88 262.498909 
L 150.4512 251.502545 
L 154.0224 273.495273 
L 157.5936 240.506182 
L 161.1648 262.498909 
L 164.736 251.502545 
L 168.3072 251.502545 
L 171.8784 251.502545 
L 175.4496 262.498909 
L 179.0208 262.498909 
L 182.592 251.502545 
L 186.1632 251.502545 
L 189.7344 240.506182 
L 193.3056 240.506182 
L 196.8768 251.502545 
L 200.448 240.506182 
L 204.0192 262.498909 
L 207.5904 273.495273 
L 211.1616 240.506182 
L 214.7328 251.502545 
L 218.304 251.502545 
L 221.8752 262.498909 
L 225.4464 273.495273 
L 229.0176 240.506182 
L 232.5888 229.509818 
L 236.16 251.502545 
L 239.7312 218.513455 
L 243.3024 218.513455 
L 246.8736 218.513455 
L 250.4448 196.520727 
L 254.016 207.517091 
L 257.5872 53.568 
L 261.1584 218.513455 
L 264.7296 207.517091 
L 268.3008 196.520727 
L 271.872 218.513455 
L 275.4432 207.517091 
L 279.0144 207.517091 
L 282.5856 207.517091 
L 286.1568 218.513455 
L 289.728 207.517091 
L 293.2992 207.517091 
L 296.8704 196.520727 
L 300.4416 196.520727 
L 304.0128 207.517091 
L 307.584 207.517091 
L 311.1552 196.520727 
L 314.7264 185.524364 
L 318.2976 196.520727 
L 321.8688 218.513455 
L 325.44 174.528 
L 329.0112 196.520727 
L 332.5824 218.513455 
L 336.1536 218.513455 
L 339.7248 207.517091 
L 343.296 218.513455 
L 346.8672 207.517091 
L 350.4384 185.524364 
L 354.0096 196.520727 
L 357.5808 207.517091 
L 361.152 207.517091 
L 364.7232 196.520727 
L 368.2944 207.517091 
L 371.8656 196.520727 
L 375.4368 196.520727 
L 379.008 207.517091 
L 382.5792 196.520727 
L 386.1504 207.517091 
L 389.7216 196.520727 
L 393.2928 218.513455 
L 396.864 207.517091 
L 400.4352 196.520727 
L 404.0064 218.513455 
L 407.5776 207.517091 
L 411.1488 174.528 
" clip-path="url(#p74b5b4d3cf)" style="fill: none; stroke: #ff7f0e; stroke-width: 1.5; stroke-linecap: square"/>
   </g>
   <g id="line2d_14">
    <path d="M 57.6 240.506182 
L 61.1712 251.502545 
L 64.7424 262.498909 
L 68.3136 251.502545 
L 71.8848 229.509818 
L 75.456 251.502545 
L 79.0272 251.502545 
L 82.5984 229.509818 
L 86.1696 262.498909 
L 89.7408 262.498909 
L 93.312 240.506182 
L 96.8832 273.495273 
L 100.4544 262.498909 
L 104.0256 240.506182 
L 107.5968 251.502545 
L 111.168 240.506182 
L 114.7392 251.502545 
L 118.3104 262.498909 
L 121.8816 262.498909 
L 125.4528 240.506182 
L 129.024 251.502545 
L 132.5952 251.502545 
L 136.1664 240.506182 
L 139.7376 240.506182 
L 143.3088 262.498909 
L 146.88 240.506182 
L 150.4512 251.502545 
L 154.0224 251.502545 
L 157.5936 229.509818 
L 161.1648 262.498909 
L 164.736 251.502545 
L 168.3072 229.509818 
L 171.8784 262.498909 
L 175.4496 240.506182 
L 179.0208 229.509818 
L 182.592 251.502545 
L 186.1632 251.502545 
L 189.7344 251.502545 
L 193.3056 251.502545 
L 196.8768 240.506182 
L 200.448 240.506182 
L 204.0192 273.495273 
L 207.5904 262.498909 
L 211.1616 251.502545 
L 214.7328 251.502545 
L 218.304 262.498909 
L 221.8752 240.506182 
L 225.4464 262.498909 
L 229.0176 251.502545 
L 232.5888 251.502545 
L 236.16 240.506182 
L 239.7312 229.509818 
L 243.3024 196.520727 
L 246.8736 218.513455 
L 250.4448 207.517091 
L 254.016 196.520727 
L 257.5872 75.560727 
L 261.1584 218.513455 
L 264.7296 207.517091 
L 268.3008 185.524364 
L 271.872 218.513455 
L 275.4432 207.517091 
L 279.0144 207.517091 
L 282.5856 207.517091 
L 286.1568 218.513455 
L 289.728 207.517091 
L 293.2992 196.520727 
L 296.8704 196.520727 
L 300.4416 207.517091 
L 304.0128 207.517091 
L 307.584 207.517091 
L 311.1552 196.520727 
L 314.7264 185.524364 
L 318.2976 196.520727 
L 321.8688 218.513455 
L 325.44 174.528 
L 329.0112 196.520727 
L 332.5824 218.513455 
L 336.1536 218.513455 
L 339.7248 207.517091 
L 343.296 218.513455 
L 346.8672 207.517091 
L 350.4384 185.524364 
L 354.0096 207.517091 
L 357.5808 196.520727 
L 361.152 196.520727 
L 364.7232 207.517091 
L 368.2944 207.517091 
L 371.8656 196.520727 
L 375.4368 207.517091 
L 379.008 207.517091 
L 382.5792 207.517091 
L 386.1504 196.520727 
L 389.7216 196.520727 
L 393.2928 218.513455 
L 396.864 207.517091 
L 400.4352 196.520727 
L 404.0064 218.513455 
L 407.5776 207.517091 
L 411.1488 185.524364 
" clip-path="url(#p74b5b4d3cf)" style="fill: none; stroke: #2ca02c; stroke-width: 1.5; stroke-linecap: square"/>
   </g>
   <g id="line2d_15">
    <path d="M 57.6 251.502545 
L 61.1712 251.502545 
L 64.7424 262.498909 
L 68.3136 251.502545 
L 71.8848 240.506182 
L 75.456 251.502545 
L 79.0272 240.506182 
L 82.5984 262.498909 
L 86.1696 251.502545 
L 89.7408 229.509818 
L 93.312 251.502545 
L 96.8832 251.502545 
L 100.4544 262.498909 
L 104.0256 240.506182 
L 107.5968 251.502545 
L 111.168 251.502545 
L 114.7392 262.498909 
L 118.3104 273.495273 
L 121.8816 273.495273 
L 125.4528 240.506182 
L 129.024 262.498909 
L 132.5952 251.502545 
L 136.1664 229.509818 
L 139.7376 262.498909 
L 143.3088 262.498909 
L 146.88 262.498909 
L 150.4512 229.509818 
L 154.0224 240.506182 
L 157.5936 251.502545 
L 161.1648 262.498909 
L 164.736 240.506182 
L 168.3072 240.506182 
L 171.8784 262.498909 
L 175.4496 251.502545 
L 179.0208 262.498909 
L 182.592 251.502545 
L 186.1632 251.502545 
L 189.7344 262.498909 
L 193.3056 251.502545 
L 196.8768 273.495273 
L 200.448 240.506182 
L 204.0192 251.502545 
L 207.5904 240.506182 
L 211.1616 251.502545 
L 214.7328 240.506182 
L 218.304 251.502545 
L 221.8752 240.506182 
L 225.4464 251.502545 
L 229.0176 262.498909 
L 232.5888 273.495273 
L 236.16 262.498909 
L 239.7312 229.509818 
L 243.3024 174.528 
L 246.8736 218.513455 
L 250.4448 196.520727 
L 254.016 196.520727 
L 257.5872 108.549818 
L 261.1584 218.513455 
L 264.7296 207.517091 
L 268.3008 196.520727 
L 271.872 218.513455 
L 275.4432 207.517091 
L 279.0144 207.517091 
L 282.5856 207.517091 
L 286.1568 218.513455 
L 289.728 207.517091 
L 293.2992 207.517091 
L 296.8704 196.520727 
L 300.4416 196.520727 
L 304.0128 207.517091 
L 307.584 207.517091 
L 311.1552 196.520727 
L 314.7264 196.520727 
L 318.2976 196.520727 
L 321.8688 218.513455 
L 325.44 163.531636 
L 329.0112 196.520727 
L 332.5824 218.513455 
L 336.1536 218.513455 
L 339.7248 207.517091 
L 343.296 218.513455 
L 346.8672 207.517091 
L 350.4384 185.524364 
L 354.0096 196.520727 
L 357.5808 207.517091 
L 361.152 207.517091 
L 364.7232 196.520727 
L 368.2944 207.517091 
L 371.8656 196.520727 
L 375.4368 207.517091 
L 379.008 207.517091 
L 382.5792 196.520727 
L 386.1504 207.517091 
L 389.7216 196.520727 
L 393.2928 218.513455 
L 396.864 207.517091 
L 400.4352 196.520727 
L 404.0064 218.513455 
L 407.5776 207.517091 
L 411.1488 174.528 
" clip-path="url(#p74b5b4d3cf)" style="fill: none; stroke: #d62728; stroke-width: 1.5; stroke-linecap: square"/>
   </g>
   <g id="line2d_16">
    <path d="M 57.6 262.498909 
L 61.1712 251.502545 
L 64.7424 240.506182 
L 68.3136 251.502545 
L 71.8848 251.502545 
L 75.456 251.502545 
L 79.0272 262.498909 
L 82.5984 273.495273 
L 86.1696 262.498909 
L 89.7408 240.506182 
L 93.312 251.502545 
L 96.8832 240.506182 
L 100.4544 262.498909 
L 104.0256 251.502545 
L 107.5968 251.502545 
L 111.168 240.506182 
L 114.7392 273.495273 
L 118.3104 251.502545 
L 121.8816 240.506182 
L 125.4528 273.495273 
L 129.024 251.502545 
L 132.5952 251.502545 
L 136.1664 251.502545 
L 139.7376 251.502545 
L 143.3088 273.495273 
L 146.88 240.506182 
L 150.4512 273.495273 
L 154.0224 273.495273 
L 157.5936 251.502545 
L 161.1648 251.502545 
L 164.736 262.498909 
L 168.3072 251.502545 
L 171.8784 251.502545 
L 175.4496 262.498909 
L 179.0208 262.498909 
L 182.592 229.509818 
L 186.1632 251.502545 
L 189.7344 229.509818 
L 193.3056 240.506182 
L 196.8768 251.502545 
L 200.448 262.498909 
L 204.0192 251.502545 
L 207.5904 229.509818 
L 211.1616 251.502545 
L 214.7328 240.506182 
L 218.304 240.506182 
L 221.8752 262.498909 
L 225.4464 273.495273 
L 229.0176 229.509818 
L 232.5888 240.506182 
L 236.16 251.502545 
L 239.7312 218.513455 
L 243.3024 174.528 
L 246.8736 229.509818 
L 250.4448 196.520727 
L 254.016 196.520727 
L 257.5872 86.557091 
L 261.1584 207.517091 
L 264.7296 207.517091 
L 268.3008 196.520727 
L 271.872 218.513455 
L 275.4432 207.517091 
L 279.0144 207.517091 
L 282.5856 207.517091 
L 286.1568 218.513455 
L 289.728 207.517091 
L 293.2992 207.517091 
L 296.8704 196.520727 
L 300.4416 196.520727 
L 304.0128 207.517091 
L 307.584 207.517091 
L 311.1552 196.520727 
L 314.7264 185.524364 
L 318.2976 196.520727 
L 321.8688 218.513455 
L 325.44 163.531636 
L 329.0112 196.520727 
L 332.5824 218.513455 
L 336.1536 218.513455 
L 339.7248 207.517091 
L 343.296 218.513455 
L 346.8672 207.517091 
L 350.4384 185.524364 
L 354.0096 196.520727 
L 357.5808 207.517091 
L 361.152 207.517091 
L 364.7232 196.520727 
L 368.2944 207.517091 
L 371.8656 196.520727 
L 375.4368 207.517091 
L 379.008 207.517091 
L 382.5792 207.517091 
L 386.1504 196.520727 
L 389.7216 196.520727 
L 393.2928 218.513455 
L 396.864 207.517091 
L 400.4352 196.520727 
L 404.0064 218.513455 
L 407.5776 207.517091 
L 411.1488 174.528 
" clip-path="url(#p74b5b4d3cf)" style="fill: none; stroke: #9467bd; stroke-width: 1.5; stroke-linecap: square"/>
   </g>
   <g id="line2d_17">
    <path d="M 57.6 251.502545 
L 61.1712 240.506182 
L 64.7424 251.502545 
L 68.3136 262.498909 
L 71.8848 240.506182 
L 75.456 251.502545 
L 79.0272 262.498909 
L 82.5984 273.495273 
L 86.1696 251.502545 
L 89.7408 251.502545 
L 93.312 240.506182 
L 96.8832 251.502545 
L 100.4544 262.498909 
L 104.0256 240.506182 
L 107.5968 251.502545 
L 111.168 229.509818 
L 114.7392 251.502545 
L 118.3104 273.495273 
L 121.8816 251.502545 
L 125.4528 240.506182 
L 129.024 262.498909 
L 132.5952 251.502545 
L 136.1664 251.502545 
L 139.7376 284.491636 
L 143.3088 240.506182 
L 146.88 251.502545 
L 150.4512 262.498909 
L 154.0224 251.502545 
L 157.5936 251.502545 
L 161.1648 251.502545 
L 164.736 240.506182 
L 168.3072 251.502545 
L 171.8784 251.502545 
L 175.4496 273.495273 
L 179.0208 240.506182 
L 182.592 273.495273 
L 186.1632 251.502545 
L 189.7344 240.506182 
L 193.3056 251.502545 
L 196.8768 240.506182 
L 200.448 251.502545 
L 204.0192 229.509818 
L 207.5904 240.506182 
L 211.1616 251.502545 
L 214.7328 240.506182 
L 218.304 240.506182 
L 221.8752 262.498909 
L 225.4464 251.502545 
L 229.0176 240.506182 
L 232.5888 229.509818 
L 236.16 251.502545 
L 239.7312 229.509818 
L 243.3024 185.524364 
L 246.8736 218.513455 
L 250.4448 196.520727 
L 254.016 207.517091 
L 257.5872 53.568 
L 261.1584 218.513455 
L 264.7296 207.517091 
L 268.3008 196.520727 
L 271.872 218.513455 
L 275.4432 207.517091 
L 279.0144 207.517091 
L 282.5856 207.517091 
L 286.1568 218.513455 
L 289.728 207.517091 
L 293.2992 207.517091 
L 296.8704 196.520727 
L 300.4416 196.520727 
L 304.0128 207.517091 
L 307.584 207.517091 
L 311.1552 196.520727 
L 314.7264 185.524364 
L 318.2976 196.520727 
L 321.8688 218.513455 
L 325.44 174.528 
L 329.0112 196.520727 
L 332.5824 218.513455 
L 336.1536 218.513455 
L 339.7248 207.517091 
L 343.296 218.513455 
L 346.8672 207.517091 
L 350.4384 185.524364 
L 354.0096 196.520727 
L 357.5808 207.517091 
L 361.152 207.517091 
L 364.7232 196.520727 
L 368.2944 207.517091 
L 371.8656 196.520727 
L 375.4368 196.520727 
L 379.008 207.517091 
L 382.5792 196.520727 
L 386.1504 207.517091 
L 389.7216 196.520727 
L 393.2928 218.513455 
L 396.864 207.517091 
L 400.4352 196.520727 
L 404.0064 218.513455 
L 407.5776 207.517091 
L 411.1488 163.531636 
" clip-path="url(#p74b5b4d3cf)" style="fill: none; stroke: #8c564b; stroke-width: 1.5; stroke-linecap: square"/>
   </g>
   <g id="line2d_18">
    <path d="M 57.6 262.498909 
L 61.1712 229.509818 
L 64.7424 262.498909 
L 68.3136 240.506182 
L 71.8848 229.509818 
L 75.456 240.506182 
L 79.0272 262.498909 
L 82.5984 273.495273 
L 86.1696 251.502545 
L 89.7408 262.498909 
L 93.312 251.502545 
L 96.8832 251.502545 
L 100.4544 240.506182 
L 104.0256 240.506182 
L 107.5968 273.495273 
L 111.168 251.502545 
L 114.7392 251.502545 
L 118.3104 229.509818 
L 121.8816 273.495273 
L 125.4528 251.502545 
L 129.024 240.506182 
L 132.5952 229.509818 
L 136.1664 240.506182 
L 139.7376 251.502545 
L 143.3088 251.502545 
L 146.88 251.502545 
L 150.4512 262.498909 
L 154.0224 251.502545 
L 157.5936 240.506182 
L 161.1648 262.498909 
L 164.736 240.506182 
L 168.3072 240.506182 
L 171.8784 262.498909 
L 175.4496 251.502545 
L 179.0208 240.506182 
L 182.592 240.506182 
L 186.1632 262.498909 
L 189.7344 251.502545 
L 193.3056 262.498909 
L 196.8768 262.498909 
L 200.448 240.506182 
L 204.0192 240.506182 
L 207.5904 251.502545 
L 211.1616 262.498909 
L 214.7328 262.498909 
L 218.304 251.502545 
L 221.8752 262.498909 
L 225.4464 262.498909 
L 229.0176 251.502545 
L 232.5888 251.502545 
L 236.16 262.498909 
L 239.7312 229.509818 
L 243.3024 207.517091 
L 246.8736 207.517091 
L 250.4448 207.517091 
L 254.016 196.520727 
L 257.5872 64.564364 
L 261.1584 218.513455 
L 264.7296 196.520727 
L 268.3008 196.520727 
L 271.872 218.513455 
L 275.4432 207.517091 
L 279.0144 207.517091 
L 282.5856 207.517091 
L 286.1568 218.513455 
L 289.728 207.517091 
L 293.2992 207.517091 
L 296.8704 196.520727 
L 300.4416 196.520727 
L 304.0128 207.517091 
L 307.584 207.517091 
L 311.1552 196.520727 
L 314.7264 196.520727 
L 318.2976 196.520727 
L 321.8688 218.513455 
L 325.44 174.528 
L 329.0112 196.520727 
L 332.5824 218.513455 
L 336.1536 218.513455 
L 339.7248 207.517091 
L 343.296 218.513455 
L 346.8672 207.517091 
L 350.4384 185.524364 
L 354.0096 207.517091 
L 357.5808 196.520727 
L 361.152 196.520727 
L 364.7232 196.520727 
L 368.2944 207.517091 
L 371.8656 196.520727 
L 375.4368 207.517091 
L 379.008 207.517091 
L 382.5792 207.517091 
L 386.1504 196.520727 
L 389.7216 196.520727 
L 393.2928 218.513455 
L 396.864 207.517091 
L 400.4352 196.520727 
L 404.0064 218.513455 
L 407.5776 207.517091 
L 411.1488 185.524364 
" clip-path="url(#p74b5b4d3cf)" style="fill: none; stroke: #e377c2; stroke-width: 1.5; stroke-linecap: square"/>
   </g>
   <g id="line2d_19">
    <path d="M 57.6 262.498909 
L 61.1712 262.498909 
L 64.7424 251.502545 
L 68.3136 251.502545 
L 71.8848 262.498909 
L 75.456 240.506182 
L 79.0272 251.502545 
L 82.5984 262.498909 
L 86.1696 262.498909 
L 89.7408 240.506182 
L 93.312 240.506182 
L 96.8832 273.495273 
L 100.4544 240.506182 
L 104.0256 273.495273 
L 107.5968 240.506182 
L 111.168 262.498909 
L 114.7392 251.502545 
L 118.3104 251.502545 
L 121.8816 251.502545 
L 125.4528 251.502545 
L 129.024 240.506182 
L 132.5952 240.506182 
L 136.1664 240.506182 
L 139.7376 240.506182 
L 143.3088 273.495273 
L 146.88 251.502545 
L 150.4512 251.502545 
L 154.0224 251.502545 
L 157.5936 251.502545 
L 161.1648 251.502545 
L 164.736 240.506182 
L 168.3072 251.502545 
L 171.8784 229.509818 
L 175.4496 251.502545 
L 179.0208 240.506182 
L 182.592 262.498909 
L 186.1632 251.502545 
L 189.7344 251.502545 
L 193.3056 262.498909 
L 196.8768 251.502545 
L 200.448 229.509818 
L 204.0192 251.502545 
L 207.5904 240.506182 
L 211.1616 229.509818 
L 214.7328 251.502545 
L 218.304 262.498909 
L 221.8752 251.502545 
L 225.4464 262.498909 
L 229.0176 240.506182 
L 232.5888 251.502545 
L 236.16 262.498909 
L 239.7312 218.513455 
L 243.3024 185.524364 
L 246.8736 196.520727 
L 250.4448 207.517091 
L 254.016 207.517091 
L 257.5872 86.557091 
L 261.1584 218.513455 
L 264.7296 207.517091 
L 268.3008 196.520727 
L 271.872 218.513455 
L 275.4432 207.517091 
L 279.0144 207.517091 
L 282.5856 207.517091 
L 286.1568 218.513455 
L 289.728 207.517091 
L 293.2992 207.517091 
L 296.8704 196.520727 
L 300.4416 196.520727 
L 304.0128 207.517091 
L 307.584 207.517091 
L 311.1552 185.524364 
L 314.7264 196.520727 
L 318.2976 196.520727 
L 321.8688 207.517091 
L 325.44 185.524364 
L 329.0112 196.520727 
L 332.5824 218.513455 
L 336.1536 218.513455 
L 339.7248 207.517091 
L 343.296 218.513455 
L 346.8672 207.517091 
L 350.4384 185.524364 
L 354.0096 207.517091 
L 357.5808 196.520727 
L 361.152 207.517091 
L 364.7232 196.520727 
L 368.2944 207.517091 
L 371.8656 196.520727 
L 375.4368 207.517091 
L 379.008 207.517091 
L 382.5792 196.520727 
L 386.1504 207.517091 
L 389.7216 196.520727 
L 393.2928 218.513455 
L 396.864 207.517091 
L 400.4352 196.520727 
L 404.0064 218.513455 
L 407.5776 207.517091 
L 411.1488 185.524364 
" clip-path="url(#p74b5b4d3cf)" style="fill: none; stroke: #7f7f7f; stroke-width: 1.5; stroke-linecap: square"/>
   </g>
   <g id="line2d_20">
    <path d="M 57.6 251.502545 
L 61.1712 251.502545 
L 64.7424 262.498909 
L 68.3136 251.502545 
L 71.8848 262.498909 
L 75.456 240.506182 
L 79.0272 240.506182 
L 82.5984 229.509818 
L 86.1696 240.506182 
L 89.7408 251.502545 
L 93.312 251.502545 
L 96.8832 262.498909 
L 100.4544 251.502545 
L 104.0256 240.506182 
L 107.5968 251.502545 
L 111.168 240.506182 
L 114.7392 240.506182 
L 118.3104 251.502545 
L 121.8816 262.498909 
L 125.4528 251.502545 
L 129.024 251.502545 
L 132.5952 251.502545 
L 136.1664 240.506182 
L 139.7376 251.502545 
L 143.3088 251.502545 
L 146.88 262.498909 
L 150.4512 240.506182 
L 154.0224 240.506182 
L 157.5936 251.502545 
L 161.1648 251.502545 
L 164.736 262.498909 
L 168.3072 251.502545 
L 171.8784 251.502545 
L 175.4496 262.498909 
L 179.0208 262.498909 
L 182.592 262.498909 
L 186.1632 251.502545 
L 189.7344 251.502545 
L 193.3056 240.506182 
L 196.8768 262.498909 
L 200.448 251.502545 
L 204.0192 240.506182 
L 207.5904 240.506182 
L 211.1616 240.506182 
L 214.7328 262.498909 
L 218.304 251.502545 
L 221.8752 251.502545 
L 225.4464 251.502545 
L 229.0176 262.498909 
L 232.5888 273.495273 
L 236.16 262.498909 
L 239.7312 207.517091 
L 243.3024 196.520727 
L 246.8736 196.520727 
L 250.4448 196.520727 
L 254.016 196.520727 
L 257.5872 53.568 
L 261.1584 207.517091 
L 264.7296 207.517091 
L 268.3008 196.520727 
L 271.872 218.513455 
L 275.4432 207.517091 
L 279.0144 207.517091 
L 282.5856 207.517091 
L 286.1568 218.513455 
L 289.728 207.517091 
L 293.2992 207.517091 
L 296.8704 196.520727 
L 300.4416 196.520727 
L 304.0128 207.517091 
L 307.584 207.517091 
L 311.1552 196.520727 
L 314.7264 196.520727 
L 318.2976 196.520727 
L 321.8688 218.513455 
L 325.44 163.531636 
L 329.0112 196.520727 
L 332.5824 218.513455 
L 336.1536 218.513455 
L 339.7248 207.517091 
L 343.296 218.513455 
L 346.8672 207.517091 
L 350.4384 185.524364 
L 354.0096 207.517091 
L 357.5808 196.520727 
L 361.152 207.517091 
L 364.7232 196.520727 
L 368.2944 207.517091 
L 371.8656 196.520727 
L 375.4368 207.517091 
L 379.008 207.517091 
L 382.5792 207.517091 
L 386.1504 196.520727 
L 389.7216 196.520727 
L 393.2928 218.513455 
L 396.864 207.517091 
L 400.4352 196.520727 
L 404.0064 218.513455 
L 407.5776 207.517091 
L 411.1488 174.528 
" clip-path="url(#p74b5b4d3cf)" style="fill: none; stroke: #bcbd22; stroke-width: 1.5; stroke-linecap: square"/>
   </g>
   <g id="line2d_21">
    <path d="M 57.6 251.502545 
L 61.1712 251.502545 
L 64.7424 251.502545 
L 68.3136 251.502545 
L 71.8848 251.502545 
L 75.456 251.502545 
L 79.0272 273.495273 
L 82.5984 251.502545 
L 86.1696 240.506182 
L 89.7408 251.502545 
L 93.312 251.502545 
L 96.8832 262.498909 
L 100.4544 273.495273 
L 104.0256 251.502545 
L 107.5968 240.506182 
L 111.168 273.495273 
L 114.7392 262.498909 
L 118.3104 240.506182 
L 121.8816 273.495273 
L 125.4528 284.491636 
L 129.024 262.498909 
L 132.5952 273.495273 
L 136.1664 251.502545 
L 139.7376 229.509818 
L 143.3088 284.491636 
L 146.88 251.502545 
L 150.4512 262.498909 
L 154.0224 218.513455 
L 157.5936 284.491636 
L 161.1648 273.495273 
L 164.736 251.502545 
L 168.3072 240.506182 
L 171.8784 251.502545 
L 175.4496 240.506182 
L 179.0208 262.498909 
L 182.592 251.502545 
L 186.1632 251.502545 
L 189.7344 251.502545 
L 193.3056 251.502545 
L 196.8768 240.506182 
L 200.448 262.498909 
L 204.0192 262.498909 
L 207.5904 251.502545 
L 211.1616 251.502545 
L 214.7328 251.502545 
L 218.304 229.509818 
L 221.8752 262.498909 
L 225.4464 251.502545 
L 229.0176 295.488 
L 232.5888 251.502545 
L 236.16 251.502545 
L 239.7312 207.517091 
L 243.3024 196.520727 
L 246.8736 218.513455 
L 250.4448 207.517091 
L 254.016 196.520727 
L 257.5872 64.564364 
L 261.1584 218.513455 
L 264.7296 196.520727 
L 268.3008 185.524364 
L 271.872 218.513455 
L 275.4432 207.517091 
L 279.0144 207.517091 
L 282.5856 207.517091 
L 286.1568 218.513455 
L 289.728 207.517091 
L 293.2992 196.520727 
L 296.8704 207.517091 
L 300.4416 196.520727 
L 304.0128 207.517091 
L 307.584 207.517091 
L 311.1552 196.520727 
L 314.7264 196.520727 
L 318.2976 196.520727 
L 321.8688 218.513455 
L 325.44 174.528 
L 329.0112 196.520727 
L 332.5824 218.513455 
L 336.1536 218.513455 
L 339.7248 207.517091 
L 343.296 218.513455 
L 346.8672 207.517091 
L 350.4384 185.524364 
L 354.0096 207.517091 
L 357.5808 196.520727 
L 361.152 207.517091 
L 364.7232 196.520727 
L 368.2944 207.517091 
L 371.8656 196.520727 
L 375.4368 207.517091 
L 379.008 207.517091 
L 382.5792 196.520727 
L 386.1504 196.520727 
L 389.7216 196.520727 
L 393.2928 218.513455 
L 396.864 207.517091 
L 400.4352 196.520727 
L 404.0064 218.513455 
L 407.5776 207.517091 
L 411.1488 185.524364 
" clip-path="url(#p74b5b4d3cf)" style="fill: none; stroke: #17becf; stroke-width: 1.5; stroke-linecap: square"/>
   </g>
   <g id="line2d_22">
    <path d="M 57.6 253.167709 
L 61.1712 254.078836 
L 64.7424 253.576145 
L 68.3136 252.476509 
L 71.8848 247.826618 
L 75.456 250.434327 
L 79.0272 254.675782 
L 82.5984 257.754764 
L 86.1696 253.827491 
L 89.7408 249.271855 
L 93.312 249.491782 
L 96.8832 255.712582 
L 100.4544 255.838255 
L 104.0256 251.753891 
L 107.5968 248.172218 
L 111.168 250.717091 
L 114.7392 250.874182 
L 118.3104 254.738618 
L 121.8816 255.869673 
L 125.4528 256.152436 
L 129.024 252.036655 
L 132.5952 249.648873 
L 136.1664 248.235055 
L 139.7376 252.539345 
L 143.3088 256.0896 
L 146.88 256.340945 
L 150.4512 253.481891 
L 154.0224 250.654255 
L 157.5936 252.539345 
L 161.1648 253.544727 
L 164.736 250.465745 
L 168.3072 246.507055 
L 171.8784 251.753891 
L 175.4496 253.638982 
L 179.0208 252.602182 
L 182.592 251.722473 
L 186.1632 251.502545 
L 189.7344 248.769164 
L 193.3056 250.434327 
L 196.8768 250.591418 
L 200.448 250.591418 
L 204.0192 248.957673 
L 207.5904 249.334691 
L 211.1616 248.203636 
L 214.7328 248.643491 
L 218.304 250.245818 
L 221.8752 253.890327 
L 225.4464 255.304145 
L 229.0176 252.068073 
L 232.5888 254.204509 
L 236.16 246.7584 
L 239.7312 221.686691 
L 243.3024 204.375273 
L 246.8736 204.312436 
L 250.4448 217.288145 
L 254.016 153.4464 
L 257.5872 141.790255 
L 261.1584 165.793745 
L 264.7296 215.403055 
L 268.3008 202.835782 
L 271.872 208.145455 
L 275.4432 212.512582 
L 279.0144 205.632 
L 282.5856 211.287273 
L 286.1568 213.046691 
L 289.728 211.381527 
L 293.2992 202.961455 
L 296.8704 198.562909 
L 300.4416 199.505455 
L 304.0128 206.009018 
L 307.584 205.537745 
L 311.1552 197.306182 
L 314.7264 191.273891 
L 318.2976 204.343855 
L 321.8688 198.751418 
L 325.44 190.048582 
L 329.0112 192.090764 
L 332.5824 215.874327 
L 336.1536 216.628364 
L 339.7248 214.114909 
L 343.296 213.800727 
L 346.8672 204.218182 
L 350.4384 194.478545 
L 354.0096 195.6096 
L 357.5808 204.9408 
L 361.152 201.641891 
L 364.7232 203.369891 
L 368.2944 200.825018 
L 371.8656 201.893236 
L 375.4368 202.615855 
L 379.008 206.009018 
L 382.5792 203.809745 
L 386.1504 197.714618 
L 389.7216 204.155345 
L 393.2928 210.596073 
L 396.864 207.517091 
L 400.4352 205.003636 
L 404.0064 211.538618 
L 407.5776 202.050327 
L 411.1488 182.8224 
" clip-path="url(#p74b5b4d3cf)" style="fill: none; stroke: #cccccc; stroke-width: 4; stroke-linecap: square"/>
   </g>
   <g id="line2d_23">
    <path d="M 57.6 185.524364 
L 414.72 185.524364 
" clip-path="url(#p74b5b4d3cf)" style="fill: none; stroke: #666666; stroke-width: 2; stroke-linecap: square"/>
   </g>
   <g id="patch_3">
    <path d="M 57.6 307.584 
L 57.6 41.472 
" style="fill: none; stroke: #000000; stroke-width: 0.8; stroke-linejoin: miter; stroke-linecap: square"/>
   </g>
   <g id="patch_4">
    <path d="M 414.72 307.584 
L 414.72 41.472 
" style="fill: none; stroke: #000000; stroke-width: 0.8; stroke-linejoin: miter; stroke-linecap: square"/>
   </g>
   <g id="patch_5">
    <path d="M 57.6 307.584 
L 414.72 307.584 
" style="fill: none; stroke: #000000; stroke-width: 0.8; stroke-linejoin: miter; stroke-linecap: square"/>
   </g>
   <g id="patch_6">
    <path d="M 57.6 41.472 
L 414.72 41.472 
" style="fill: none; stroke: #000000; stroke-width: 0.8; stroke-linejoin: miter; stroke-linecap: square"/>
   </g>
   <g id="legend_1">
    <g id="patch_7">
     <path d="M 324.9825 78.82825 
L 407.72 78.82825 
Q 409.72 78.82825 409.72 76.82825 
L 409.72 48.472 
Q 409.72 46.472 407.72 46.472 
L 324.9825 46.472 
Q 322.9825 46.472 322.9825 48.472 
L 322.9825 76.82825 
Q 322.9825 78.82825 324.9825 78.82825 
z
" style="fill: #ffffff; opacity: 0.8; stroke: #cccccc; stroke-linejoin: miter"/>
    </g>
    <g id="line2d_24">
     <path d="M 326.9825 54.570437 
L 336.9825 54.570437 
L 346.9825 54.570437 
" style="fill: none; stroke: #cccccc; stroke-width: 4; stroke-linecap: square"/>
    </g>
    <g id="text_14">
     <!-- Mean rate -->
     <g transform="translate(354.9825 58.070437) scale(0.1 -0.1)">
      <defs>
       <path id="DejaVuSans-4d" d="M 628 4666 
L 1569 4666 
L 2759 1491 
L 3956 4666 
L 4897 4666 
L 4897 0 
L 4281 0 
L 4281 4097 
L 3078 897 
L 2444 897 
L 1241 4097 
L 1241 0 
L 628 0 
L 628 4666 
z
" transform="scale(0.015625)"/>
      </defs>
      <use xlink:href="#DejaVuSans-4d"/>
      <use xlink:href="#DejaVuSans-65" x="86.279297"/>
      <use xlink:href="#DejaVuSans-61" x="147.802734"/>
      <use xlink:href="#DejaVuSans-6e" x="209.082031"/>
      <use xlink:href="#DejaVuSans-20" x="272.460938"/>
      <use xlink:href="#DejaVuSans-72" x="304.248047"/>
      <use xlink:href="#DejaVuSans-61" x="345.361328"/>
      <use xlink:href="#DejaVuSans-74" x="406.640625"/>
      <use xlink:href="#DejaVuSans-65" x="445.849609"/>
     </g>
    </g>
    <g id="line2d_25">
     <path d="M 326.9825 69.248562 
L 336.9825 69.248562 
L 346.9825 69.248562 
" style="fill: none; stroke: #666666; stroke-width: 2; stroke-linecap: square"/>
    </g>
    <g id="text_15">
     <!-- Setpoint -->
     <g transform="translate(354.9825 72.748562) scale(0.1 -0.1)">
      <defs>
       <path id="DejaVuSans-53" d="M 3425 4513 
L 3425 3897 
Q 3066 4069 2747 4153 
Q 2428 4238 2131 4238 
Q 1616 4238 1336 4038 
Q 1056 3838 1056 3469 
Q 1056 3159 1242 3001 
Q 1428 2844 1947 2747 
L 2328 2669 
Q 3034 2534 3370 2195 
Q 3706 1856 3706 1288 
Q 3706 609 3251 259 
Q 2797 -91 1919 -91 
Q 1588 -91 1214 -16 
Q 841 59 441 206 
L 441 856 
Q 825 641 1194 531 
Q 1563 422 1919 422 
Q 2459 422 2753 634 
Q 3047 847 3047 1241 
Q 3047 1584 2836 1778 
Q 2625 1972 2144 2069 
L 1759 2144 
Q 1053 2284 737 2584 
Q 422 2884 422 3419 
Q 422 4038 858 4394 
Q 1294 4750 2059 4750 
Q 2388 4750 2728 4690 
Q 3069 4631 3425 4513 
z
" transform="scale(0.015625)"/>
       <path id="DejaVuSans-70" d="M 1159 525 
L 1159 -1331 
L 581 -1331 
L 581 3500 
L 1159 3500 
L 1159 2969 
Q 1341 3281 1617 3432 
Q 1894 3584 2278 3584 
Q 2916 3584 3314 3078 
Q 3713 2572 3713 1747 
Q 3713 922 3314 415 
Q 2916 -91 2278 -91 
Q 1894 -91 1617 61 
Q 1341 213 1159 525 
z
M 3116 1747 
Q 3116 2381 2855 2742 
Q 2594 3103 2138 3103 
Q 1681 3103 1420 2742 
Q 1159 2381 1159 1747 
Q 1159 1113 1420 752 
Q 1681 391 2138 391 
Q 2594 391 2855 752 
Q 3116 1113 3116 1747 
z
" transform="scale(0.015625)"/>
       <path id="DejaVuSans-6f" d="M 1959 3097 
Q 1497 3097 1228 2736 
Q 959 2375 959 1747 
Q 959 1119 1226 758 
Q 1494 397 1959 397 
Q 2419 397 2687 759 
Q 2956 1122 2956 1747 
Q 2956 2369 2687 2733 
Q 2419 3097 1959 3097 
z
M 1959 3584 
Q 2709 3584 3137 3096 
Q 3566 2609 3566 1747 
Q 3566 888 3137 398 
Q 2709 -91 1959 -91 
Q 1206 -91 779 398 
Q 353 888 353 1747 
Q 353 2609 779 3096 
Q 1206 3584 1959 3584 
z
" transform="scale(0.015625)"/>
       <path id="DejaVuSans-69" d="M 603 3500 
L 1178 3500 
L 1178 0 
L 603 0 
L 603 3500 
z
M 603 4863 
L 1178 4863 
L 1178 4134 
L 603 4134 
L 603 4863 
z
" transform="scale(0.015625)"/>
      </defs>
      <use xlink:href="#DejaVuSans-53"/>
      <use xlink:href="#DejaVuSans-65" x="63.476562"/>
      <use xlink:href="#DejaVuSans-74" x="125"/>
      <use xlink:href="#DejaVuSans-70" x="164.208984"/>
      <use xlink:href="#DejaVuSans-6f" x="227.685547"/>
      <use xlink:href="#DejaVuSans-69" x="288.867188"/>
      <use xlink:href="#DejaVuSans-6e" x="316.650391"/>
      <use xlink:href="#DejaVuSans-74" x="380.029297"/>
     </g>
    </g>
   </g>
  </g>
 </g>
 <defs>
  <clipPath id="p74b5b4d3cf">
   <rect x="57.6" y="41.472" width="357.12" height="266.112"/>
  </clipPath>
 </defs>
</svg>
