<?xml version="1.0" encoding="utf-8" standalone="no"?>
<!DOCTYPE svg PUBLIC "-//W3C//DTD SVG 1.1//EN"
  "http://www.w3.org/Graphics/SVG/1.1/DTD/svg11.dtd">
<svg xmlns:xlink="http://www.w3.org/1999/xlink" width="460.8pt" height="345.6pt" viewBox="0 0 460.8 345.6" xmlns="http://www.w3.org/2000/svg" version="1.1">
 <metadata>
  <rdf:RDF xmlns:dc="http://purl.org/dc/elements/1.1/" xmlns:cc="http://creativecommons.org/ns#" xmlns:rdf="http://www.w3.org/1999/02/22-rdf-syntax-ns#">
   <cc:Work>
    <dc:type rdf:resource="http://purl.org/dc/dcmitype/StillImage"/>
    <dc:date>2024-10-08T11:34:39.088775</dc:date>
    <dc:format>image/svg+xml</dc:format>
    <dc:creator>
     <cc:Agent>
      <dc:title>Matplotlib v3.8.3, https://matplotlib.org/</dc:title>
     </cc:Agent>
    </dc:creator>
   </cc:Work>
  </rdf:RDF>
 </metadata>
 <defs>
  <style type="text/css">*{stroke-linejoin: round; stroke-linecap: butt}</style>
 </defs>
 <g id="figure_1">
  <g id="patch_1">
   <path d="M 0 345.6 
L 460.8 345.6 
L 460.8 0 
L 0 0 
z
" style="fill: #ffffff"/>
  </g>
  <g id="axes_1">
   <g id="patch_2">
    <path d="M 57.6 307.584 
L 414.72 307.584 
L 414.72 41.472 
L 57.6 41.472 
z
" style="fill: #ffffff"/>
   </g>
   <g id="matplotlib.axis_1">
    <g id="xtick_1">
     <g id="line2d_1">
      <defs>
       <path id="m8dea6b52aa" d="M 0 0 
L 0 3.5 
" style="stroke: #000000; stroke-width: 0.8"/>
      </defs>
      <g>
       <use xlink:href="#m8dea6b52aa" x="57.6" y="307.584" style="stroke: #000000; stroke-width: 0.8"/>
      </g>
     </g>
     <g id="text_1">
      <!-- 0 -->
      <g transform="translate(54.41875 322.182437) scale(0.1 -0.1)">
       <defs>
        <path id="DejaVuSans-30" d="M 2034 4250 
Q 1547 4250 1301 3770 
Q 1056 3291 1056 2328 
Q 1056 1369 1301 889 
Q 1547 409 2034 409 
Q 2525 409 2770 889 
Q 3016 1369 3016 2328 
Q 3016 3291 2770 3770 
Q 2525 4250 2034 4250 
z
M 2034 4750 
Q 2819 4750 3233 4129 
Q 3647 3509 3647 2328 
Q 3647 1150 3233 529 
Q 2819 -91 2034 -91 
Q 1250 -91 836 529 
Q 422 1150 422 2328 
Q 422 3509 836 4129 
Q 1250 4750 2034 4750 
z
" transform="scale(0.015625)"/>
       </defs>
       <use xlink:href="#DejaVuSans-30"/>
      </g>
     </g>
    </g>
    <g id="xtick_2">
     <g id="line2d_2">
      <g>
       <use xlink:href="#m8dea6b52aa" x="129.024" y="307.584" style="stroke: #000000; stroke-width: 0.8"/>
      </g>
     </g>
     <g id="text_2">
      <!-- 2000 -->
      <g transform="translate(116.299 322.182437) scale(0.1 -0.1)">
       <defs>
        <path id="DejaVuSans-32" d="M 1228 531 
L 3431 531 
L 3431 0 
L 469 0 
L 469 531 
Q 828 903 1448 1529 
Q 2069 2156 2228 2338 
Q 2531 2678 2651 2914 
Q 2772 3150 2772 3378 
Q 2772 3750 2511 3984 
Q 2250 4219 1831 4219 
Q 1534 4219 1204 4116 
Q 875 4013 500 3803 
L 500 4441 
Q 881 4594 1212 4672 
Q 1544 4750 1819 4750 
Q 2544 4750 2975 4387 
Q 3406 4025 3406 3419 
Q 3406 3131 3298 2873 
Q 3191 2616 2906 2266 
Q 2828 2175 2409 1742 
Q 1991 1309 1228 531 
z
" transform="scale(0.015625)"/>
       </defs>
       <use xlink:href="#DejaVuSans-32"/>
       <use xlink:href="#DejaVuSans-30" x="63.623047"/>
       <use xlink:href="#DejaVuSans-30" x="127.246094"/>
       <use xlink:href="#DejaVuSans-30" x="190.869141"/>
      </g>
     </g>
    </g>
    <g id="xtick_3">
     <g id="line2d_3">
      <g>
       <use xlink:href="#m8dea6b52aa" x="200.448" y="307.584" style="stroke: #000000; stroke-width: 0.8"/>
      </g>
     </g>
     <g id="text_3">
      <!-- 4000 -->
      <g transform="translate(187.723 322.182437) scale(0.1 -0.1)">
       <defs>
        <path id="DejaVuSans-34" d="M 2419 4116 
L 825 1625 
L 2419 1625 
L 2419 4116 
z
M 2253 4666 
L 3047 4666 
L 3047 1625 
L 3713 1625 
L 3713 1100 
L 3047 1100 
L 3047 0 
L 2419 0 
L 2419 1100 
L 313 1100 
L 313 1709 
L 2253 4666 
z
" transform="scale(0.015625)"/>
       </defs>
       <use xlink:href="#DejaVuSans-34"/>
       <use xlink:href="#DejaVuSans-30" x="63.623047"/>
       <use xlink:href="#DejaVuSans-30" x="127.246094"/>
       <use xlink:href="#DejaVuSans-30" x="190.869141"/>
      </g>
     </g>
    </g>
    <g id="xtick_4">
     <g id="line2d_4">
      <g>
       <use xlink:href="#m8dea6b52aa" x="271.872" y="307.584" style="stroke: #000000; stroke-width: 0.8"/>
      </g>
     </g>
     <g id="text_4">
      <!-- 6000 -->
      <g transform="translate(259.147 322.182437) scale(0.1 -0.1)">
       <defs>
        <path id="DejaVuSans-36" d="M 2113 2584 
Q 1688 2584 1439 2293 
Q 1191 2003 1191 1497 
Q 1191 994 1439 701 
Q 1688 409 2113 409 
Q 2538 409 2786 701 
Q 3034 994 3034 1497 
Q 3034 2003 2786 2293 
Q 2538 2584 2113 2584 
z
M 3366 4563 
L 3366 3988 
Q 3128 4100 2886 4159 
Q 2644 4219 2406 4219 
Q 1781 4219 1451 3797 
Q 1122 3375 1075 2522 
Q 1259 2794 1537 2939 
Q 1816 3084 2150 3084 
Q 2853 3084 3261 2657 
Q 3669 2231 3669 1497 
Q 3669 778 3244 343 
Q 2819 -91 2113 -91 
Q 1303 -91 875 529 
Q 447 1150 447 2328 
Q 447 3434 972 4092 
Q 1497 4750 2381 4750 
Q 2619 4750 2861 4703 
Q 3103 4656 3366 4563 
z
" transform="scale(0.015625)"/>
       </defs>
       <use xlink:href="#DejaVuSans-36"/>
       <use xlink:href="#DejaVuSans-30" x="63.623047"/>
       <use xlink:href="#DejaVuSans-30" x="127.246094"/>
       <use xlink:href="#DejaVuSans-30" x="190.869141"/>
      </g>
     </g>
    </g>
    <g id="xtick_5">
     <g id="line2d_5">
      <g>
       <use xlink:href="#m8dea6b52aa" x="343.296" y="307.584" style="stroke: #000000; stroke-width: 0.8"/>
      </g>
     </g>
     <g id="text_5">
      <!-- 8000 -->
      <g transform="translate(330.571 322.182437) scale(0.1 -0.1)">
       <defs>
        <path id="DejaVuSans-38" d="M 2034 2216 
Q 1584 2216 1326 1975 
Q 1069 1734 1069 1313 
Q 1069 891 1326 650 
Q 1584 409 2034 409 
Q 2484 409 2743 651 
Q 3003 894 3003 1313 
Q 3003 1734 2745 1975 
Q 2488 2216 2034 2216 
z
M 1403 2484 
Q 997 2584 770 2862 
Q 544 3141 544 3541 
Q 544 4100 942 4425 
Q 1341 4750 2034 4750 
Q 2731 4750 3128 4425 
Q 3525 4100 3525 3541 
Q 3525 3141 3298 2862 
Q 3072 2584 2669 2484 
Q 3125 2378 3379 2068 
Q 3634 1759 3634 1313 
Q 3634 634 3220 271 
Q 2806 -91 2034 -91 
Q 1263 -91 848 271 
Q 434 634 434 1313 
Q 434 1759 690 2068 
Q 947 2378 1403 2484 
z
M 1172 3481 
Q 1172 3119 1398 2916 
Q 1625 2713 2034 2713 
Q 2441 2713 2670 2916 
Q 2900 3119 2900 3481 
Q 2900 3844 2670 4047 
Q 2441 4250 2034 4250 
Q 1625 4250 1398 4047 
Q 1172 3844 1172 3481 
z
" transform="scale(0.015625)"/>
       </defs>
       <use xlink:href="#DejaVuSans-38"/>
       <use xlink:href="#DejaVuSans-30" x="63.623047"/>
       <use xlink:href="#DejaVuSans-30" x="127.246094"/>
       <use xlink:href="#DejaVuSans-30" x="190.869141"/>
      </g>
     </g>
    </g>
    <g id="xtick_6">
     <g id="line2d_6">
      <g>
       <use xlink:href="#m8dea6b52aa" x="414.72" y="307.584" style="stroke: #000000; stroke-width: 0.8"/>
      </g>
     </g>
     <g id="text_6">
      <!-- 10000 -->
      <g transform="translate(398.81375 322.182437) scale(0.1 -0.1)">
       <defs>
        <path id="DejaVuSans-31" d="M 794 531 
L 1825 531 
L 1825 4091 
L 703 3866 
L 703 4441 
L 1819 4666 
L 2450 4666 
L 2450 531 
L 3481 531 
L 3481 0 
L 794 0 
L 794 531 
z
" transform="scale(0.015625)"/>
       </defs>
       <use xlink:href="#DejaVuSans-31"/>
       <use xlink:href="#DejaVuSans-30" x="63.623047"/>
       <use xlink:href="#DejaVuSans-30" x="127.246094"/>
       <use xlink:href="#DejaVuSans-30" x="190.869141"/>
       <use xlink:href="#DejaVuSans-30" x="254.492188"/>
      </g>
     </g>
    </g>
    <g id="text_7">
     <!-- Time $(t/ms)$ -->
     <g transform="translate(207.11 335.860562) scale(0.1 -0.1)">
      <defs>
       <path id="DejaVuSans-54" d="M -19 4666 
L 3928 4666 
L 3928 4134 
L 2272 4134 
L 2272 0 
L 1638 0 
L 1638 4134 
L -19 4134 
L -19 4666 
z
" transform="scale(0.015625)"/>
       <path id="DejaVuSans-69" d="M 603 3500 
L 1178 3500 
L 1178 0 
L 603 0 
L 603 3500 
z
M 603 4863 
L 1178 4863 
L 1178 4134 
L 603 4134 
L 603 4863 
z
" transform="scale(0.015625)"/>
       <path id="DejaVuSans-6d" d="M 3328 2828 
Q 3544 3216 3844 3400 
Q 4144 3584 4550 3584 
Q 5097 3584 5394 3201 
Q 5691 2819 5691 2113 
L 5691 0 
L 5113 0 
L 5113 2094 
Q 5113 2597 4934 2840 
Q 4756 3084 4391 3084 
Q 3944 3084 3684 2787 
Q 3425 2491 3425 1978 
L 3425 0 
L 2847 0 
L 2847 2094 
Q 2847 2600 2669 2842 
Q 2491 3084 2119 3084 
Q 1678 3084 1418 2786 
Q 1159 2488 1159 1978 
L 1159 0 
L 581 0 
L 581 3500 
L 1159 3500 
L 1159 2956 
Q 1356 3278 1631 3431 
Q 1906 3584 2284 3584 
Q 2666 3584 2933 3390 
Q 3200 3197 3328 2828 
z
" transform="scale(0.015625)"/>
       <path id="DejaVuSans-65" d="M 3597 1894 
L 3597 1613 
L 953 1613 
Q 991 1019 1311 708 
Q 1631 397 2203 397 
Q 2534 397 2845 478 
Q 3156 559 3463 722 
L 3463 178 
Q 3153 47 2828 -22 
Q 2503 -91 2169 -91 
Q 1331 -91 842 396 
Q 353 884 353 1716 
Q 353 2575 817 3079 
Q 1281 3584 2069 3584 
Q 2775 3584 3186 3129 
Q 3597 2675 3597 1894 
z
M 3022 2063 
Q 3016 2534 2758 2815 
Q 2500 3097 2075 3097 
Q 1594 3097 1305 2825 
Q 1016 2553 972 2059 
L 3022 2063 
z
" transform="scale(0.015625)"/>
       <path id="DejaVuSans-20" transform="scale(0.015625)"/>
       <path id="DejaVuSans-28" d="M 1984 4856 
Q 1566 4138 1362 3434 
Q 1159 2731 1159 2009 
Q 1159 1288 1364 580 
Q 1569 -128 1984 -844 
L 1484 -844 
Q 1016 -109 783 600 
Q 550 1309 550 2009 
Q 550 2706 781 3412 
Q 1013 4119 1484 4856 
L 1984 4856 
z
" transform="scale(0.015625)"/>
       <path id="DejaVuSans-Oblique-74" d="M 2706 3500 
L 2619 3053 
L 1472 3053 
L 1100 1153 
Q 1081 1047 1072 975 
Q 1063 903 1063 863 
Q 1063 663 1183 572 
Q 1303 481 1569 481 
L 2150 481 
L 2053 0 
L 1503 0 
Q 991 0 739 200 
Q 488 400 488 806 
Q 488 878 497 964 
Q 506 1050 525 1153 
L 897 3053 
L 409 3053 
L 500 3500 
L 978 3500 
L 1172 4494 
L 1747 4494 
L 1556 3500 
L 2706 3500 
z
" transform="scale(0.015625)"/>
       <path id="DejaVuSans-2f" d="M 1625 4666 
L 2156 4666 
L 531 -594 
L 0 -594 
L 1625 4666 
z
" transform="scale(0.015625)"/>
       <path id="DejaVuSans-Oblique-6d" d="M 5747 2113 
L 5338 0 
L 4763 0 
L 5166 2094 
Q 5191 2228 5203 2325 
Q 5216 2422 5216 2491 
Q 5216 2772 5059 2928 
Q 4903 3084 4622 3084 
Q 4203 3084 3875 2770 
Q 3547 2456 3450 1953 
L 3066 0 
L 2491 0 
L 2900 2094 
Q 2925 2209 2937 2307 
Q 2950 2406 2950 2484 
Q 2950 2769 2794 2926 
Q 2638 3084 2363 3084 
Q 1938 3084 1609 2770 
Q 1281 2456 1184 1953 
L 800 0 
L 225 0 
L 909 3500 
L 1484 3500 
L 1375 2956 
Q 1609 3263 1923 3423 
Q 2238 3584 2597 3584 
Q 2978 3584 3223 3384 
Q 3469 3184 3519 2828 
Q 3781 3197 4126 3390 
Q 4472 3584 4856 3584 
Q 5306 3584 5551 3325 
Q 5797 3066 5797 2591 
Q 5797 2488 5784 2364 
Q 5772 2241 5747 2113 
z
" transform="scale(0.015625)"/>
       <path id="DejaVuSans-Oblique-73" d="M 3200 3397 
L 3091 2853 
Q 2863 2978 2609 3040 
Q 2356 3103 2088 3103 
Q 1634 3103 1373 2948 
Q 1113 2794 1113 2528 
Q 1113 2219 1719 2053 
Q 1766 2041 1788 2034 
L 1972 1978 
Q 2547 1819 2739 1644 
Q 2931 1469 2931 1166 
Q 2931 609 2489 259 
Q 2047 -91 1331 -91 
Q 1053 -91 747 -37 
Q 441 16 72 128 
L 184 722 
Q 500 559 806 475 
Q 1113 391 1394 391 
Q 1816 391 2080 572 
Q 2344 753 2344 1031 
Q 2344 1331 1650 1516 
L 1591 1531 
L 1394 1581 
Q 956 1697 753 1886 
Q 550 2075 550 2369 
Q 550 2928 970 3256 
Q 1391 3584 2113 3584 
Q 2397 3584 2667 3537 
Q 2938 3491 3200 3397 
z
" transform="scale(0.015625)"/>
       <path id="DejaVuSans-29" d="M 513 4856 
L 1013 4856 
Q 1481 4119 1714 3412 
Q 1947 2706 1947 2009 
Q 1947 1309 1714 600 
Q 1481 -109 1013 -844 
L 513 -844 
Q 928 -128 1133 580 
Q 1338 1288 1338 2009 
Q 1338 2731 1133 3434 
Q 928 4138 513 4856 
z
" transform="scale(0.015625)"/>
      </defs>
      <use xlink:href="#DejaVuSans-54" transform="translate(0 0.015625)"/>
      <use xlink:href="#DejaVuSans-69" transform="translate(61.083984 0.015625)"/>
      <use xlink:href="#DejaVuSans-6d" transform="translate(88.867188 0.015625)"/>
      <use xlink:href="#DejaVuSans-65" transform="translate(186.279297 0.015625)"/>
      <use xlink:href="#DejaVuSans-20" transform="translate(247.802734 0.015625)"/>
      <use xlink:href="#DejaVuSans-28" transform="translate(279.589844 0.015625)"/>
      <use xlink:href="#DejaVuSans-Oblique-74" transform="translate(318.603516 0.015625)"/>
      <use xlink:href="#DejaVuSans-2f" transform="translate(357.8125 0.015625)"/>
      <use xlink:href="#DejaVuSans-Oblique-6d" transform="translate(391.503906 0.015625)"/>
      <use xlink:href="#DejaVuSans-Oblique-73" transform="translate(488.916016 0.015625)"/>
      <use xlink:href="#DejaVuSans-29" transform="translate(541.015625 0.015625)"/>
     </g>
    </g>
   </g>
   <g id="matplotlib.axis_2">
    <g id="ytick_1">
     <g id="line2d_7">
      <defs>
       <path id="mccd3a8861c" d="M 0 0 
L -3.5 0 
" style="stroke: #000000; stroke-width: 0.8"/>
      </defs>
      <g>
       <use xlink:href="#mccd3a8861c" x="57.6" y="295.488" style="stroke: #000000; stroke-width: 0.8"/>
      </g>
     </g>
     <g id="text_8">
      <!-- 0 -->
      <g transform="translate(44.2375 299.287219) scale(0.1 -0.1)">
       <use xlink:href="#DejaVuSans-30"/>
      </g>
     </g>
    </g>
    <g id="ytick_2">
     <g id="line2d_8">
      <g>
       <use xlink:href="#mccd3a8861c" x="57.6" y="258.269538" style="stroke: #000000; stroke-width: 0.8"/>
      </g>
     </g>
     <g id="text_9">
      <!-- 2 -->
      <g transform="translate(44.2375 262.068757) scale(0.1 -0.1)">
       <use xlink:href="#DejaVuSans-32"/>
      </g>
     </g>
    </g>
    <g id="ytick_3">
     <g id="line2d_9">
      <g>
       <use xlink:href="#mccd3a8861c" x="57.6" y="221.051077" style="stroke: #000000; stroke-width: 0.8"/>
      </g>
     </g>
     <g id="text_10">
      <!-- 4 -->
      <g transform="translate(44.2375 224.850296) scale(0.1 -0.1)">
       <use xlink:href="#DejaVuSans-34"/>
      </g>
     </g>
    </g>
    <g id="ytick_4">
     <g id="line2d_10">
      <g>
       <use xlink:href="#mccd3a8861c" x="57.6" y="183.832615" style="stroke: #000000; stroke-width: 0.8"/>
      </g>
     </g>
     <g id="text_11">
      <!-- 6 -->
      <g transform="translate(44.2375 187.631834) scale(0.1 -0.1)">
       <use xlink:href="#DejaVuSans-36"/>
      </g>
     </g>
    </g>
    <g id="ytick_5">
     <g id="line2d_11">
      <g>
       <use xlink:href="#mccd3a8861c" x="57.6" y="146.614154" style="stroke: #000000; stroke-width: 0.8"/>
      </g>
     </g>
     <g id="text_12">
      <!-- 8 -->
      <g transform="translate(44.2375 150.413373) scale(0.1 -0.1)">
       <use xlink:href="#DejaVuSans-38"/>
      </g>
     </g>
    </g>
    <g id="ytick_6">
     <g id="line2d_12">
      <g>
       <use xlink:href="#mccd3a8861c" x="57.6" y="109.395692" style="stroke: #000000; stroke-width: 0.8"/>
      </g>
     </g>
     <g id="text_13">
      <!-- 10 -->
      <g transform="translate(37.875 113.194911) scale(0.1 -0.1)">
       <use xlink:href="#DejaVuSans-31"/>
       <use xlink:href="#DejaVuSans-30" x="63.623047"/>
      </g>
     </g>
    </g>
    <g id="ytick_7">
     <g id="line2d_13">
      <g>
       <use xlink:href="#mccd3a8861c" x="57.6" y="72.177231" style="stroke: #000000; stroke-width: 0.8"/>
      </g>
     </g>
     <g id="text_14">
      <!-- 12 -->
      <g transform="translate(37.875 75.97645) scale(0.1 -0.1)">
       <use xlink:href="#DejaVuSans-31"/>
       <use xlink:href="#DejaVuSans-32" x="63.623047"/>
      </g>
     </g>
    </g>
    <g id="text_15">
     <!-- Rate $(kHz)$ -->
     <g transform="translate(31.795312 200.878) rotate(-90) scale(0.1 -0.1)">
      <defs>
       <path id="DejaVuSans-52" d="M 2841 2188 
Q 3044 2119 3236 1894 
Q 3428 1669 3622 1275 
L 4263 0 
L 3584 0 
L 2988 1197 
Q 2756 1666 2539 1819 
Q 2322 1972 1947 1972 
L 1259 1972 
L 1259 0 
L 628 0 
L 628 4666 
L 2053 4666 
Q 2853 4666 3247 4331 
Q 3641 3997 3641 3322 
Q 3641 2881 3436 2590 
Q 3231 2300 2841 2188 
z
M 1259 4147 
L 1259 2491 
L 2053 2491 
Q 2509 2491 2742 2702 
Q 2975 2913 2975 3322 
Q 2975 3731 2742 3939 
Q 2509 4147 2053 4147 
L 1259 4147 
z
" transform="scale(0.015625)"/>
       <path id="DejaVuSans-61" d="M 2194 1759 
Q 1497 1759 1228 1600 
Q 959 1441 959 1056 
Q 959 750 1161 570 
Q 1363 391 1709 391 
Q 2188 391 2477 730 
Q 2766 1069 2766 1631 
L 2766 1759 
L 2194 1759 
z
M 3341 1997 
L 3341 0 
L 2766 0 
L 2766 531 
Q 2569 213 2275 61 
Q 1981 -91 1556 -91 
Q 1019 -91 701 211 
Q 384 513 384 1019 
Q 384 1609 779 1909 
Q 1175 2209 1959 2209 
L 2766 2209 
L 2766 2266 
Q 2766 2663 2505 2880 
Q 2244 3097 1772 3097 
Q 1472 3097 1187 3025 
Q 903 2953 641 2809 
L 641 3341 
Q 956 3463 1253 3523 
Q 1550 3584 1831 3584 
Q 2591 3584 2966 3190 
Q 3341 2797 3341 1997 
z
" transform="scale(0.015625)"/>
       <path id="DejaVuSans-74" d="M 1172 4494 
L 1172 3500 
L 2356 3500 
L 2356 3053 
L 1172 3053 
L 1172 1153 
Q 1172 725 1289 603 
Q 1406 481 1766 481 
L 2356 481 
L 2356 0 
L 1766 0 
Q 1100 0 847 248 
Q 594 497 594 1153 
L 594 3053 
L 172 3053 
L 172 3500 
L 594 3500 
L 594 4494 
L 1172 4494 
z
" transform="scale(0.015625)"/>
       <path id="DejaVuSans-Oblique-6b" d="M 1172 4863 
L 1747 4863 
L 1197 2028 
L 3169 3500 
L 3916 3500 
L 1716 1825 
L 3322 0 
L 2625 0 
L 1131 1709 
L 800 0 
L 225 0 
L 1172 4863 
z
" transform="scale(0.015625)"/>
       <path id="DejaVuSans-Oblique-48" d="M 1081 4666 
L 1716 4666 
L 1344 2753 
L 3634 2753 
L 4006 4666 
L 4641 4666 
L 3731 0 
L 3097 0 
L 3531 2222 
L 1241 2222 
L 806 0 
L 172 0 
L 1081 4666 
z
" transform="scale(0.015625)"/>
       <path id="DejaVuSans-Oblique-7a" d="M 744 3500 
L 3475 3500 
L 3372 2975 
L 738 459 
L 2913 459 
L 2822 0 
L -19 0 
L 84 525 
L 2719 3041 
L 653 3041 
L 744 3500 
z
" transform="scale(0.015625)"/>
      </defs>
      <use xlink:href="#DejaVuSans-52" transform="translate(0 0.015625)"/>
      <use xlink:href="#DejaVuSans-61" transform="translate(69.482422 0.015625)"/>
      <use xlink:href="#DejaVuSans-74" transform="translate(130.761719 0.015625)"/>
      <use xlink:href="#DejaVuSans-65" transform="translate(169.970703 0.015625)"/>
      <use xlink:href="#DejaVuSans-20" transform="translate(231.494141 0.015625)"/>
      <use xlink:href="#DejaVuSans-28" transform="translate(263.28125 0.015625)"/>
      <use xlink:href="#DejaVuSans-Oblique-6b" transform="translate(302.294922 0.015625)"/>
      <use xlink:href="#DejaVuSans-Oblique-48" transform="translate(360.205078 0.015625)"/>
      <use xlink:href="#DejaVuSans-Oblique-7a" transform="translate(435.400391 0.015625)"/>
      <use xlink:href="#DejaVuSans-29" transform="translate(487.890625 0.015625)"/>
     </g>
    </g>
   </g>
   <g id="line2d_14">
    <path d="M 57.6 202.441846 
L 61.1712 183.832615 
L 64.7424 258.269538 
L 68.3136 221.051077 
L 71.8848 221.051077 
L 75.456 221.051077 
L 79.0272 221.051077 
L 82.5984 258.269538 
L 86.1696 221.051077 
L 89.7408 202.441846 
L 93.312 239.660308 
L 96.8832 202.441846 
L 100.4544 221.051077 
L 104.0256 239.660308 
L 107.5968 202.441846 
L 111.168 202.441846 
L 114.7392 202.441846 
L 118.3104 183.832615 
L 121.8816 221.051077 
L 125.4528 221.051077 
L 129.024 221.051077 
L 132.5952 258.269538 
L 136.1664 258.269538 
L 139.7376 221.051077 
L 143.3088 221.051077 
L 146.88 239.660308 
L 150.4512 239.660308 
L 154.0224 239.660308 
L 157.5936 183.832615 
L 161.1648 239.660308 
L 164.736 202.441846 
L 168.3072 202.441846 
L 171.8784 221.051077 
L 175.4496 239.660308 
L 179.0208 183.832615 
L 182.592 239.660308 
L 186.1632 202.441846 
L 189.7344 221.051077 
L 193.3056 202.441846 
L 196.8768 239.660308 
L 200.448 221.051077 
L 204.0192 221.051077 
L 207.5904 221.051077 
L 211.1616 221.051077 
L 214.7328 202.441846 
L 218.304 221.051077 
L 221.8752 202.441846 
L 225.4464 183.832615 
L 229.0176 202.441846 
L 232.5888 202.441846 
L 236.16 239.660308 
L 239.7312 165.223385 
L 243.3024 146.614154 
L 246.8736 146.614154 
L 250.4448 146.614154 
L 254.016 146.614154 
L 257.5872 128.004923 
L 261.1584 128.004923 
L 264.7296 109.395692 
L 268.3008 90.786462 
L 271.872 146.614154 
L 275.4432 146.614154 
L 279.0144 128.004923 
L 282.5856 109.395692 
L 286.1568 165.223385 
L 289.728 146.614154 
L 293.2992 146.614154 
L 296.8704 146.614154 
L 300.4416 109.395692 
L 304.0128 146.614154 
L 307.584 146.614154 
L 311.1552 90.786462 
L 314.7264 146.614154 
L 318.2976 128.004923 
L 321.8688 90.786462 
L 325.44 109.395692 
L 329.0112 146.614154 
L 332.5824 165.223385 
L 336.1536 146.614154 
L 339.7248 146.614154 
L 343.296 165.223385 
L 346.8672 128.004923 
L 350.4384 72.177231 
L 354.0096 128.004923 
L 357.5808 146.614154 
L 361.152 146.614154 
L 364.7232 128.004923 
L 368.2944 146.614154 
L 371.8656 146.614154 
L 375.4368 146.614154 
L 379.008 165.223385 
L 382.5792 146.614154 
L 386.1504 128.004923 
L 389.7216 128.004923 
L 393.2928 109.395692 
L 396.864 128.004923 
L 400.4352 128.004923 
L 404.0064 165.223385 
L 407.5776 146.614154 
L 411.1488 146.614154 
" clip-path="url(#p71169c5d0f)" style="fill: none; stroke: #1f77b4; stroke-width: 1.5; stroke-linecap: square"/>
   </g>
   <g id="line2d_15">
    <path d="M 57.6 258.269538 
L 61.1712 258.269538 
L 64.7424 239.660308 
L 68.3136 202.441846 
L 71.8848 239.660308 
L 75.456 239.660308 
L 79.0272 239.660308 
L 82.5984 202.441846 
L 86.1696 276.878769 
L 89.7408 202.441846 
L 93.312 221.051077 
L 96.8832 221.051077 
L 100.4544 258.269538 
L 104.0256 221.051077 
L 107.5968 202.441846 
L 111.168 239.660308 
L 114.7392 221.051077 
L 118.3104 202.441846 
L 121.8816 239.660308 
L 125.4528 221.051077 
L 129.024 221.051077 
L 132.5952 183.832615 
L 136.1664 221.051077 
L 139.7376 221.051077 
L 143.3088 202.441846 
L 146.88 239.660308 
L 150.4512 221.051077 
L 154.0224 258.269538 
L 157.5936 202.441846 
L 161.1648 239.660308 
L 164.736 221.051077 
L 168.3072 221.051077 
L 171.8784 221.051077 
L 175.4496 239.660308 
L 179.0208 239.660308 
L 182.592 221.051077 
L 186.1632 221.051077 
L 189.7344 202.441846 
L 193.3056 202.441846 
L 196.8768 221.051077 
L 200.448 202.441846 
L 204.0192 239.660308 
L 207.5904 258.269538 
L 211.1616 202.441846 
L 214.7328 221.051077 
L 218.304 221.051077 
L 221.8752 239.660308 
L 225.4464 258.269538 
L 229.0176 202.441846 
L 232.5888 183.832615 
L 236.16 221.051077 
L 239.7312 165.223385 
L 243.3024 128.004923 
L 246.8736 128.004923 
L 250.4448 146.614154 
L 254.016 146.614154 
L 257.5872 109.395692 
L 261.1584 109.395692 
L 264.7296 128.004923 
L 268.3008 90.786462 
L 271.872 146.614154 
L 275.4432 146.614154 
L 279.0144 128.004923 
L 282.5856 109.395692 
L 286.1568 165.223385 
L 289.728 146.614154 
L 293.2992 146.614154 
L 296.8704 146.614154 
L 300.4416 109.395692 
L 304.0128 146.614154 
L 307.584 146.614154 
L 311.1552 90.786462 
L 314.7264 146.614154 
L 318.2976 128.004923 
L 321.8688 53.568 
L 325.44 128.004923 
L 329.0112 146.614154 
L 332.5824 165.223385 
L 336.1536 146.614154 
L 339.7248 146.614154 
L 343.296 165.223385 
L 346.8672 128.004923 
L 350.4384 72.177231 
L 354.0096 146.614154 
L 357.5808 128.004923 
L 361.152 146.614154 
L 364.7232 128.004923 
L 368.2944 146.614154 
L 371.8656 146.614154 
L 375.4368 146.614154 
L 379.008 165.223385 
L 382.5792 128.004923 
L 386.1504 146.614154 
L 389.7216 128.004923 
L 393.2928 109.395692 
L 396.864 128.004923 
L 400.4352 128.004923 
L 404.0064 165.223385 
L 407.5776 146.614154 
L 411.1488 146.614154 
" clip-path="url(#p71169c5d0f)" style="fill: none; stroke: #ff7f0e; stroke-width: 1.5; stroke-linecap: square"/>
   </g>
   <g id="line2d_16">
    <path d="M 57.6 202.441846 
L 61.1712 221.051077 
L 64.7424 239.660308 
L 68.3136 221.051077 
L 71.8848 183.832615 
L 75.456 221.051077 
L 79.0272 221.051077 
L 82.5984 183.832615 
L 86.1696 239.660308 
L 89.7408 239.660308 
L 93.312 202.441846 
L 96.8832 258.269538 
L 100.4544 239.660308 
L 104.0256 202.441846 
L 107.5968 221.051077 
L 111.168 202.441846 
L 114.7392 221.051077 
L 118.3104 239.660308 
L 121.8816 239.660308 
L 125.4528 202.441846 
L 129.024 221.051077 
L 132.5952 221.051077 
L 136.1664 202.441846 
L 139.7376 202.441846 
L 143.3088 239.660308 
L 146.88 202.441846 
L 150.4512 221.051077 
L 154.0224 221.051077 
L 157.5936 183.832615 
L 161.1648 239.660308 
L 164.736 221.051077 
L 168.3072 183.832615 
L 171.8784 239.660308 
L 175.4496 202.441846 
L 179.0208 183.832615 
L 182.592 221.051077 
L 186.1632 221.051077 
L 189.7344 221.051077 
L 193.3056 221.051077 
L 196.8768 202.441846 
L 200.448 202.441846 
L 204.0192 258.269538 
L 207.5904 239.660308 
L 211.1616 221.051077 
L 214.7328 221.051077 
L 218.304 239.660308 
L 221.8752 202.441846 
L 225.4464 239.660308 
L 229.0176 221.051077 
L 232.5888 221.051077 
L 236.16 202.441846 
L 239.7312 165.223385 
L 243.3024 128.004923 
L 246.8736 109.395692 
L 250.4448 165.223385 
L 254.016 128.004923 
L 257.5872 128.004923 
L 261.1584 128.004923 
L 264.7296 128.004923 
L 268.3008 109.395692 
L 271.872 146.614154 
L 275.4432 146.614154 
L 279.0144 128.004923 
L 282.5856 109.395692 
L 286.1568 165.223385 
L 289.728 146.614154 
L 293.2992 128.004923 
L 296.8704 146.614154 
L 300.4416 128.004923 
L 304.0128 146.614154 
L 307.584 146.614154 
L 311.1552 72.177231 
L 314.7264 146.614154 
L 318.2976 128.004923 
L 321.8688 109.395692 
L 325.44 109.395692 
L 329.0112 146.614154 
L 332.5824 165.223385 
L 336.1536 146.614154 
L 339.7248 146.614154 
L 343.296 165.223385 
L 346.8672 128.004923 
L 350.4384 90.786462 
L 354.0096 146.614154 
L 357.5808 128.004923 
L 361.152 146.614154 
L 364.7232 109.395692 
L 368.2944 146.614154 
L 371.8656 146.614154 
L 375.4368 128.004923 
L 379.008 165.223385 
L 382.5792 146.614154 
L 386.1504 128.004923 
L 389.7216 128.004923 
L 393.2928 90.786462 
L 396.864 128.004923 
L 400.4352 128.004923 
L 404.0064 165.223385 
L 407.5776 146.614154 
L 411.1488 146.614154 
" clip-path="url(#p71169c5d0f)" style="fill: none; stroke: #2ca02c; stroke-width: 1.5; stroke-linecap: square"/>
   </g>
   <g id="line2d_17">
    <path d="M 57.6 221.051077 
L 61.1712 221.051077 
L 64.7424 239.660308 
L 68.3136 221.051077 
L 71.8848 202.441846 
L 75.456 221.051077 
L 79.0272 202.441846 
L 82.5984 239.660308 
L 86.1696 221.051077 
L 89.7408 183.832615 
L 93.312 221.051077 
L 96.8832 221.051077 
L 100.4544 239.660308 
L 104.0256 202.441846 
L 107.5968 221.051077 
L 111.168 221.051077 
L 114.7392 239.660308 
L 118.3104 258.269538 
L 121.8816 258.269538 
L 125.4528 202.441846 
L 129.024 239.660308 
L 132.5952 221.051077 
L 136.1664 183.832615 
L 139.7376 239.660308 
L 143.3088 239.660308 
L 146.88 239.660308 
L 150.4512 183.832615 
L 154.0224 202.441846 
L 157.5936 221.051077 
L 161.1648 239.660308 
L 164.736 202.441846 
L 168.3072 202.441846 
L 171.8784 239.660308 
L 175.4496 221.051077 
L 179.0208 239.660308 
L 182.592 221.051077 
L 186.1632 221.051077 
L 189.7344 239.660308 
L 193.3056 221.051077 
L 196.8768 258.269538 
L 200.448 202.441846 
L 204.0192 221.051077 
L 207.5904 202.441846 
L 211.1616 221.051077 
L 214.7328 202.441846 
L 218.304 221.051077 
L 221.8752 202.441846 
L 225.4464 221.051077 
L 229.0176 239.660308 
L 232.5888 258.269538 
L 236.16 239.660308 
L 239.7312 165.223385 
L 243.3024 109.395692 
L 246.8736 146.614154 
L 250.4448 146.614154 
L 254.016 146.614154 
L 257.5872 128.004923 
L 261.1584 128.004923 
L 264.7296 128.004923 
L 268.3008 90.786462 
L 271.872 146.614154 
L 275.4432 146.614154 
L 279.0144 128.004923 
L 282.5856 109.395692 
L 286.1568 165.223385 
L 289.728 146.614154 
L 293.2992 146.614154 
L 296.8704 146.614154 
L 300.4416 109.395692 
L 304.0128 146.614154 
L 307.584 146.614154 
L 311.1552 72.177231 
L 314.7264 146.614154 
L 318.2976 128.004923 
L 321.8688 90.786462 
L 325.44 109.395692 
L 329.0112 146.614154 
L 332.5824 165.223385 
L 336.1536 146.614154 
L 339.7248 146.614154 
L 343.296 165.223385 
L 346.8672 128.004923 
L 350.4384 72.177231 
L 354.0096 128.004923 
L 357.5808 146.614154 
L 361.152 146.614154 
L 364.7232 128.004923 
L 368.2944 146.614154 
L 371.8656 146.614154 
L 375.4368 146.614154 
L 379.008 165.223385 
L 382.5792 128.004923 
L 386.1504 146.614154 
L 389.7216 128.004923 
L 393.2928 109.395692 
L 396.864 128.004923 
L 400.4352 128.004923 
L 404.0064 165.223385 
L 407.5776 146.614154 
L 411.1488 146.614154 
" clip-path="url(#p71169c5d0f)" style="fill: none; stroke: #d62728; stroke-width: 1.5; stroke-linecap: square"/>
   </g>
   <g id="line2d_18">
    <path d="M 57.6 239.660308 
L 61.1712 221.051077 
L 64.7424 202.441846 
L 68.3136 221.051077 
L 71.8848 221.051077 
L 75.456 221.051077 
L 79.0272 239.660308 
L 82.5984 258.269538 
L 86.1696 239.660308 
L 89.7408 202.441846 
L 93.312 221.051077 
L 96.8832 202.441846 
L 100.4544 239.660308 
L 104.0256 221.051077 
L 107.5968 221.051077 
L 111.168 202.441846 
L 114.7392 258.269538 
L 118.3104 221.051077 
L 121.8816 202.441846 
L 125.4528 258.269538 
L 129.024 221.051077 
L 132.5952 221.051077 
L 136.1664 221.051077 
L 139.7376 221.051077 
L 143.3088 258.269538 
L 146.88 202.441846 
L 150.4512 258.269538 
L 154.0224 258.269538 
L 157.5936 221.051077 
L 161.1648 221.051077 
L 164.736 239.660308 
L 168.3072 221.051077 
L 171.8784 221.051077 
L 175.4496 239.660308 
L 179.0208 239.660308 
L 182.592 183.832615 
L 186.1632 221.051077 
L 189.7344 183.832615 
L 193.3056 202.441846 
L 196.8768 221.051077 
L 200.448 239.660308 
L 204.0192 221.051077 
L 207.5904 183.832615 
L 211.1616 221.051077 
L 214.7328 202.441846 
L 218.304 202.441846 
L 221.8752 239.660308 
L 225.4464 258.269538 
L 229.0176 183.832615 
L 232.5888 202.441846 
L 236.16 221.051077 
L 239.7312 183.832615 
L 243.3024 90.786462 
L 246.8736 183.832615 
L 250.4448 165.223385 
L 254.016 146.614154 
L 257.5872 109.395692 
L 261.1584 128.004923 
L 264.7296 109.395692 
L 268.3008 109.395692 
L 271.872 165.223385 
L 275.4432 128.004923 
L 279.0144 128.004923 
L 282.5856 109.395692 
L 286.1568 165.223385 
L 289.728 146.614154 
L 293.2992 146.614154 
L 296.8704 146.614154 
L 300.4416 109.395692 
L 304.0128 146.614154 
L 307.584 146.614154 
L 311.1552 90.786462 
L 314.7264 128.004923 
L 318.2976 128.004923 
L 321.8688 72.177231 
L 325.44 109.395692 
L 329.0112 146.614154 
L 332.5824 165.223385 
L 336.1536 146.614154 
L 339.7248 146.614154 
L 343.296 165.223385 
L 346.8672 128.004923 
L 350.4384 72.177231 
L 354.0096 128.004923 
L 357.5808 146.614154 
L 361.152 146.614154 
L 364.7232 128.004923 
L 368.2944 146.614154 
L 371.8656 146.614154 
L 375.4368 146.614154 
L 379.008 165.223385 
L 382.5792 128.004923 
L 386.1504 146.614154 
L 389.7216 128.004923 
L 393.2928 109.395692 
L 396.864 128.004923 
L 400.4352 128.004923 
L 404.0064 165.223385 
L 407.5776 146.614154 
L 411.1488 146.614154 
" clip-path="url(#p71169c5d0f)" style="fill: none; stroke: #9467bd; stroke-width: 1.5; stroke-linecap: square"/>
   </g>
   <g id="line2d_19">
    <path d="M 57.6 221.051077 
L 61.1712 202.441846 
L 64.7424 221.051077 
L 68.3136 239.660308 
L 71.8848 202.441846 
L 75.456 221.051077 
L 79.0272 239.660308 
L 82.5984 258.269538 
L 86.1696 221.051077 
L 89.7408 221.051077 
L 93.312 202.441846 
L 96.8832 221.051077 
L 100.4544 239.660308 
L 104.0256 202.441846 
L 107.5968 221.051077 
L 111.168 183.832615 
L 114.7392 221.051077 
L 118.3104 258.269538 
L 121.8816 221.051077 
L 125.4528 202.441846 
L 129.024 239.660308 
L 132.5952 221.051077 
L 136.1664 221.051077 
L 139.7376 276.878769 
L 143.3088 202.441846 
L 146.88 221.051077 
L 150.4512 239.660308 
L 154.0224 221.051077 
L 157.5936 221.051077 
L 161.1648 221.051077 
L 164.736 202.441846 
L 168.3072 221.051077 
L 171.8784 221.051077 
L 175.4496 258.269538 
L 179.0208 202.441846 
L 182.592 258.269538 
L 186.1632 221.051077 
L 189.7344 202.441846 
L 193.3056 221.051077 
L 196.8768 202.441846 
L 200.448 221.051077 
L 204.0192 183.832615 
L 207.5904 202.441846 
L 211.1616 221.051077 
L 214.7328 202.441846 
L 218.304 202.441846 
L 221.8752 239.660308 
L 225.4464 221.051077 
L 229.0176 202.441846 
L 232.5888 183.832615 
L 236.16 221.051077 
L 239.7312 183.832615 
L 243.3024 109.395692 
L 246.8736 128.004923 
L 250.4448 146.614154 
L 254.016 146.614154 
L 257.5872 128.004923 
L 261.1584 128.004923 
L 264.7296 128.004923 
L 268.3008 109.395692 
L 271.872 146.614154 
L 275.4432 146.614154 
L 279.0144 128.004923 
L 282.5856 90.786462 
L 286.1568 165.223385 
L 289.728 146.614154 
L 293.2992 146.614154 
L 296.8704 146.614154 
L 300.4416 109.395692 
L 304.0128 146.614154 
L 307.584 146.614154 
L 311.1552 72.177231 
L 314.7264 146.614154 
L 318.2976 128.004923 
L 321.8688 72.177231 
L 325.44 109.395692 
L 329.0112 146.614154 
L 332.5824 165.223385 
L 336.1536 146.614154 
L 339.7248 146.614154 
L 343.296 165.223385 
L 346.8672 109.395692 
L 350.4384 90.786462 
L 354.0096 146.614154 
L 357.5808 128.004923 
L 361.152 146.614154 
L 364.7232 128.004923 
L 368.2944 146.614154 
L 371.8656 146.614154 
L 375.4368 146.614154 
L 379.008 165.223385 
L 382.5792 146.614154 
L 386.1504 128.004923 
L 389.7216 128.004923 
L 393.2928 90.786462 
L 396.864 128.004923 
L 400.4352 128.004923 
L 404.0064 165.223385 
L 407.5776 146.614154 
L 411.1488 146.614154 
" clip-path="url(#p71169c5d0f)" style="fill: none; stroke: #8c564b; stroke-width: 1.5; stroke-linecap: square"/>
   </g>
   <g id="line2d_20">
    <path d="M 57.6 239.660308 
L 61.1712 183.832615 
L 64.7424 239.660308 
L 68.3136 202.441846 
L 71.8848 183.832615 
L 75.456 202.441846 
L 79.0272 239.660308 
L 82.5984 258.269538 
L 86.1696 221.051077 
L 89.7408 239.660308 
L 93.312 221.051077 
L 96.8832 221.051077 
L 100.4544 202.441846 
L 104.0256 202.441846 
L 107.5968 258.269538 
L 111.168 221.051077 
L 114.7392 221.051077 
L 118.3104 183.832615 
L 121.8816 258.269538 
L 125.4528 221.051077 
L 129.024 202.441846 
L 132.5952 183.832615 
L 136.1664 202.441846 
L 139.7376 221.051077 
L 143.3088 221.051077 
L 146.88 221.051077 
L 150.4512 239.660308 
L 154.0224 221.051077 
L 157.5936 202.441846 
L 161.1648 239.660308 
L 164.736 202.441846 
L 168.3072 202.441846 
L 171.8784 239.660308 
L 175.4496 221.051077 
L 179.0208 202.441846 
L 182.592 202.441846 
L 186.1632 239.660308 
L 189.7344 221.051077 
L 193.3056 239.660308 
L 196.8768 239.660308 
L 200.448 202.441846 
L 204.0192 202.441846 
L 207.5904 221.051077 
L 211.1616 239.660308 
L 214.7328 239.660308 
L 218.304 221.051077 
L 221.8752 239.660308 
L 225.4464 239.660308 
L 229.0176 221.051077 
L 232.5888 221.051077 
L 236.16 239.660308 
L 239.7312 165.223385 
L 243.3024 128.004923 
L 246.8736 128.004923 
L 250.4448 128.004923 
L 254.016 146.614154 
L 257.5872 109.395692 
L 261.1584 128.004923 
L 264.7296 109.395692 
L 268.3008 109.395692 
L 271.872 146.614154 
L 275.4432 146.614154 
L 279.0144 128.004923 
L 282.5856 109.395692 
L 286.1568 165.223385 
L 289.728 146.614154 
L 293.2992 146.614154 
L 296.8704 146.614154 
L 300.4416 109.395692 
L 304.0128 146.614154 
L 307.584 146.614154 
L 311.1552 72.177231 
L 314.7264 146.614154 
L 318.2976 128.004923 
L 321.8688 109.395692 
L 325.44 109.395692 
L 329.0112 146.614154 
L 332.5824 165.223385 
L 336.1536 146.614154 
L 339.7248 146.614154 
L 343.296 165.223385 
L 346.8672 128.004923 
L 350.4384 90.786462 
L 354.0096 146.614154 
L 357.5808 128.004923 
L 361.152 146.614154 
L 364.7232 128.004923 
L 368.2944 146.614154 
L 371.8656 146.614154 
L 375.4368 146.614154 
L 379.008 165.223385 
L 382.5792 146.614154 
L 386.1504 128.004923 
L 389.7216 128.004923 
L 393.2928 90.786462 
L 396.864 128.004923 
L 400.4352 128.004923 
L 404.0064 165.223385 
L 407.5776 146.614154 
L 411.1488 146.614154 
" clip-path="url(#p71169c5d0f)" style="fill: none; stroke: #e377c2; stroke-width: 1.5; stroke-linecap: square"/>
   </g>
   <g id="line2d_21">
    <path d="M 57.6 239.660308 
L 61.1712 239.660308 
L 64.7424 221.051077 
L 68.3136 221.051077 
L 71.8848 239.660308 
L 75.456 202.441846 
L 79.0272 221.051077 
L 82.5984 239.660308 
L 86.1696 239.660308 
L 89.7408 202.441846 
L 93.312 202.441846 
L 96.8832 258.269538 
L 100.4544 202.441846 
L 104.0256 258.269538 
L 107.5968 202.441846 
L 111.168 239.660308 
L 114.7392 221.051077 
L 118.3104 221.051077 
L 121.8816 221.051077 
L 125.4528 221.051077 
L 129.024 202.441846 
L 132.5952 202.441846 
L 136.1664 202.441846 
L 139.7376 202.441846 
L 143.3088 258.269538 
L 146.88 221.051077 
L 150.4512 221.051077 
L 154.0224 221.051077 
L 157.5936 221.051077 
L 161.1648 221.051077 
L 164.736 202.441846 
L 168.3072 221.051077 
L 171.8784 183.832615 
L 175.4496 221.051077 
L 179.0208 202.441846 
L 182.592 239.660308 
L 186.1632 221.051077 
L 189.7344 221.051077 
L 193.3056 239.660308 
L 196.8768 221.051077 
L 200.448 183.832615 
L 204.0192 221.051077 
L 207.5904 202.441846 
L 211.1616 183.832615 
L 214.7328 221.051077 
L 218.304 239.660308 
L 221.8752 221.051077 
L 225.4464 239.660308 
L 229.0176 202.441846 
L 232.5888 221.051077 
L 236.16 239.660308 
L 239.7312 183.832615 
L 243.3024 90.786462 
L 246.8736 165.223385 
L 250.4448 165.223385 
L 254.016 146.614154 
L 257.5872 109.395692 
L 261.1584 128.004923 
L 264.7296 146.614154 
L 268.3008 90.786462 
L 271.872 146.614154 
L 275.4432 146.614154 
L 279.0144 128.004923 
L 282.5856 90.786462 
L 286.1568 165.223385 
L 289.728 146.614154 
L 293.2992 146.614154 
L 296.8704 146.614154 
L 300.4416 109.395692 
L 304.0128 146.614154 
L 307.584 146.614154 
L 311.1552 72.177231 
L 314.7264 146.614154 
L 318.2976 128.004923 
L 321.8688 90.786462 
L 325.44 128.004923 
L 329.0112 146.614154 
L 332.5824 165.223385 
L 336.1536 146.614154 
L 339.7248 146.614154 
L 343.296 165.223385 
L 346.8672 128.004923 
L 350.4384 90.786462 
L 354.0096 146.614154 
L 357.5808 128.004923 
L 361.152 146.614154 
L 364.7232 128.004923 
L 368.2944 146.614154 
L 371.8656 146.614154 
L 375.4368 146.614154 
L 379.008 165.223385 
L 382.5792 146.614154 
L 386.1504 128.004923 
L 389.7216 128.004923 
L 393.2928 90.786462 
L 396.864 128.004923 
L 400.4352 128.004923 
L 404.0064 165.223385 
L 407.5776 146.614154 
L 411.1488 146.614154 
" clip-path="url(#p71169c5d0f)" style="fill: none; stroke: #7f7f7f; stroke-width: 1.5; stroke-linecap: square"/>
   </g>
   <g id="line2d_22">
    <path d="M 57.6 221.051077 
L 61.1712 221.051077 
L 64.7424 239.660308 
L 68.3136 221.051077 
L 71.8848 239.660308 
L 75.456 202.441846 
L 79.0272 202.441846 
L 82.5984 183.832615 
L 86.1696 202.441846 
L 89.7408 221.051077 
L 93.312 221.051077 
L 96.8832 239.660308 
L 100.4544 221.051077 
L 104.0256 202.441846 
L 107.5968 221.051077 
L 111.168 202.441846 
L 114.7392 202.441846 
L 118.3104 221.051077 
L 121.8816 239.660308 
L 125.4528 221.051077 
L 129.024 221.051077 
L 132.5952 221.051077 
L 136.1664 202.441846 
L 139.7376 221.051077 
L 143.3088 221.051077 
L 146.88 239.660308 
L 150.4512 202.441846 
L 154.0224 202.441846 
L 157.5936 221.051077 
L 161.1648 221.051077 
L 164.736 239.660308 
L 168.3072 221.051077 
L 171.8784 221.051077 
L 175.4496 239.660308 
L 179.0208 239.660308 
L 182.592 239.660308 
L 186.1632 221.051077 
L 189.7344 221.051077 
L 193.3056 202.441846 
L 196.8768 239.660308 
L 200.448 221.051077 
L 204.0192 202.441846 
L 207.5904 202.441846 
L 211.1616 202.441846 
L 214.7328 239.660308 
L 218.304 221.051077 
L 221.8752 221.051077 
L 225.4464 221.051077 
L 229.0176 239.660308 
L 232.5888 258.269538 
L 236.16 239.660308 
L 239.7312 146.614154 
L 243.3024 146.614154 
L 246.8736 128.004923 
L 250.4448 146.614154 
L 254.016 146.614154 
L 257.5872 128.004923 
L 261.1584 128.004923 
L 264.7296 128.004923 
L 268.3008 109.395692 
L 271.872 146.614154 
L 275.4432 146.614154 
L 279.0144 128.004923 
L 282.5856 109.395692 
L 286.1568 165.223385 
L 289.728 146.614154 
L 293.2992 146.614154 
L 296.8704 146.614154 
L 300.4416 109.395692 
L 304.0128 146.614154 
L 307.584 146.614154 
L 311.1552 90.786462 
L 314.7264 146.614154 
L 318.2976 128.004923 
L 321.8688 90.786462 
L 325.44 109.395692 
L 329.0112 146.614154 
L 332.5824 165.223385 
L 336.1536 146.614154 
L 339.7248 146.614154 
L 343.296 165.223385 
L 346.8672 128.004923 
L 350.4384 72.177231 
L 354.0096 128.004923 
L 357.5808 146.614154 
L 361.152 146.614154 
L 364.7232 128.004923 
L 368.2944 146.614154 
L 371.8656 146.614154 
L 375.4368 146.614154 
L 379.008 165.223385 
L 382.5792 128.004923 
L 386.1504 146.614154 
L 389.7216 128.004923 
L 393.2928 109.395692 
L 396.864 128.004923 
L 400.4352 128.004923 
L 404.0064 165.223385 
L 407.5776 146.614154 
L 411.1488 146.614154 
" clip-path="url(#p71169c5d0f)" style="fill: none; stroke: #bcbd22; stroke-width: 1.5; stroke-linecap: square"/>
   </g>
   <g id="line2d_23">
    <path d="M 57.6 221.051077 
L 61.1712 221.051077 
L 64.7424 221.051077 
L 68.3136 221.051077 
L 71.8848 221.051077 
L 75.456 221.051077 
L 79.0272 258.269538 
L 82.5984 221.051077 
L 86.1696 202.441846 
L 89.7408 221.051077 
L 93.312 221.051077 
L 96.8832 239.660308 
L 100.4544 258.269538 
L 104.0256 221.051077 
L 107.5968 202.441846 
L 111.168 258.269538 
L 114.7392 239.660308 
L 118.3104 202.441846 
L 121.8816 258.269538 
L 125.4528 276.878769 
L 129.024 239.660308 
L 132.5952 258.269538 
L 136.1664 221.051077 
L 139.7376 183.832615 
L 143.3088 276.878769 
L 146.88 221.051077 
L 150.4512 239.660308 
L 154.0224 165.223385 
L 157.5936 276.878769 
L 161.1648 258.269538 
L 164.736 221.051077 
L 168.3072 202.441846 
L 171.8784 221.051077 
L 175.4496 202.441846 
L 179.0208 239.660308 
L 182.592 221.051077 
L 186.1632 221.051077 
L 189.7344 221.051077 
L 193.3056 221.051077 
L 196.8768 202.441846 
L 200.448 239.660308 
L 204.0192 239.660308 
L 207.5904 221.051077 
L 211.1616 221.051077 
L 214.7328 221.051077 
L 218.304 183.832615 
L 221.8752 239.660308 
L 225.4464 221.051077 
L 229.0176 295.488 
L 232.5888 221.051077 
L 236.16 221.051077 
L 239.7312 183.832615 
L 243.3024 146.614154 
L 246.8736 165.223385 
L 250.4448 128.004923 
L 254.016 146.614154 
L 257.5872 109.395692 
L 261.1584 128.004923 
L 264.7296 109.395692 
L 268.3008 72.177231 
L 271.872 146.614154 
L 275.4432 146.614154 
L 279.0144 128.004923 
L 282.5856 109.395692 
L 286.1568 165.223385 
L 289.728 146.614154 
L 293.2992 128.004923 
L 296.8704 165.223385 
L 300.4416 109.395692 
L 304.0128 146.614154 
L 307.584 146.614154 
L 311.1552 90.786462 
L 314.7264 128.004923 
L 318.2976 128.004923 
L 321.8688 72.177231 
L 325.44 109.395692 
L 329.0112 146.614154 
L 332.5824 165.223385 
L 336.1536 146.614154 
L 339.7248 146.614154 
L 343.296 165.223385 
L 346.8672 128.004923 
L 350.4384 72.177231 
L 354.0096 128.004923 
L 357.5808 146.614154 
L 361.152 146.614154 
L 364.7232 128.004923 
L 368.2944 146.614154 
L 371.8656 146.614154 
L 375.4368 146.614154 
L 379.008 165.223385 
L 382.5792 146.614154 
L 386.1504 128.004923 
L 389.7216 128.004923 
L 393.2928 109.395692 
L 396.864 128.004923 
L 400.4352 128.004923 
L 404.0064 165.223385 
L 407.5776 146.614154 
L 411.1488 146.614154 
" clip-path="url(#p71169c5d0f)" style="fill: none; stroke: #17becf; stroke-width: 1.5; stroke-linecap: square"/>
   </g>
   <g id="line2d_24">
    <path d="M 57.6 223.869046 
L 61.1712 225.410954 
L 64.7424 224.560246 
L 68.3136 222.699323 
L 71.8848 214.830277 
L 75.456 219.243323 
L 79.0272 226.421169 
L 82.5984 231.631754 
L 86.1696 224.9856 
L 89.7408 217.276062 
L 93.312 217.648246 
L 96.8832 228.175754 
L 100.4544 228.388431 
L 104.0256 221.476431 
L 107.5968 215.415138 
L 111.168 219.721846 
L 114.7392 219.987692 
L 118.3104 226.527508 
L 121.8816 228.4416 
L 125.4528 228.920123 
L 129.024 221.954954 
L 132.5952 217.914092 
L 136.1664 215.521477 
L 139.7376 222.805662 
L 143.3088 228.813785 
L 146.88 229.239138 
L 150.4512 224.400738 
L 154.0224 219.615508 
L 157.5936 222.805662 
L 161.1648 224.507077 
L 164.736 219.296492 
L 168.3072 212.597169 
L 171.8784 221.476431 
L 175.4496 224.666585 
L 179.0208 222.912 
L 182.592 221.423262 
L 186.1632 221.051077 
L 189.7344 216.425354 
L 193.3056 219.243323 
L 196.8768 219.509169 
L 200.448 219.509169 
L 204.0192 216.744369 
L 207.5904 217.3824 
L 211.1616 215.468308 
L 214.7328 216.212677 
L 218.304 218.924308 
L 221.8752 225.091938 
L 225.4464 227.484554 
L 229.0176 222.008123 
L 232.5888 225.304615 
L 236.16 214.6176 
L 239.7312 172.401231 
L 243.3024 134.704246 
L 246.8736 135.235938 
L 250.4448 150.070154 
L 254.016 138.851446 
L 257.5872 127.313723 
L 261.1584 123.113354 
L 264.7296 113.489723 
L 268.3008 117.371077 
L 271.872 133.959877 
L 275.4432 147.624369 
L 279.0144 121.146092 
L 282.5856 126.888369 
L 286.1568 143.530338 
L 289.728 155.068062 
L 293.2992 146.88 
L 296.8704 134.119385 
L 300.4416 130.397538 
L 304.0128 139.914831 
L 307.584 127.632738 
L 311.1552 115.297477 
L 314.7264 121.358769 
L 318.2976 123.698215 
L 321.8688 99.240369 
L 325.44 109.289354 
L 329.0112 146.773662 
L 332.5824 158.524062 
L 336.1536 151.399385 
L 339.7248 153.153969 
L 343.296 154.376862 
L 346.8672 120.880246 
L 350.4384 103.068554 
L 354.0096 117.690092 
L 357.5808 146.401477 
L 361.152 137.2032 
L 364.7232 137.469046 
L 368.2944 139.755323 
L 371.8656 146.135631 
L 375.4368 152.728615 
L 379.008 153.419815 
L 382.5792 147.305354 
L 386.1504 134.491569 
L 389.7216 120.667569 
L 393.2928 114.712615 
L 396.864 115.882338 
L 400.4352 141.403569 
L 404.0064 150.867692 
L 407.5776 152.462769 
L 411.1488 146.082462 
" clip-path="url(#p71169c5d0f)" style="fill: none; stroke: #cccccc; stroke-width: 4; stroke-linecap: square"/>
   </g>
   <g id="patch_3">
    <path d="M 57.6 307.584 
L 57.6 41.472 
" style="fill: none; stroke: #000000; stroke-width: 0.8; stroke-linejoin: miter; stroke-linecap: square"/>
   </g>
   <g id="patch_4">
    <path d="M 414.72 307.584 
L 414.72 41.472 
" style="fill: none; stroke: #000000; stroke-width: 0.8; stroke-linejoin: miter; stroke-linecap: square"/>
   </g>
   <g id="patch_5">
    <path d="M 57.6 307.584 
L 414.72 307.584 
" style="fill: none; stroke: #000000; stroke-width: 0.8; stroke-linejoin: miter; stroke-linecap: square"/>
   </g>
   <g id="patch_6">
    <path d="M 57.6 41.472 
L 414.72 41.472 
" style="fill: none; stroke: #000000; stroke-width: 0.8; stroke-linejoin: miter; stroke-linecap: square"/>
   </g>
   <g id="legend_1">
    <g id="patch_7">
     <path d="M 324.9825 64.150125 
L 407.72 64.150125 
Q 409.72 64.150125 409.72 62.150125 
L 409.72 48.472 
Q 409.72 46.472 407.72 46.472 
L 324.9825 46.472 
Q 322.9825 46.472 322.9825 48.472 
L 322.9825 62.150125 
Q 322.9825 64.150125 324.9825 64.150125 
z
" style="fill: #ffffff; opacity: 0.8; stroke: #cccccc; stroke-linejoin: miter"/>
    </g>
    <g id="line2d_25">
     <path d="M 326.9825 54.570438 
L 336.9825 54.570438 
L 346.9825 54.570438 
" style="fill: none; stroke: #cccccc; stroke-width: 4; stroke-linecap: square"/>
    </g>
    <g id="text_16">
     <!-- Mean rate -->
     <g transform="translate(354.9825 58.070438) scale(0.1 -0.1)">
      <defs>
       <path id="DejaVuSans-4d" d="M 628 4666 
L 1569 4666 
L 2759 1491 
L 3956 4666 
L 4897 4666 
L 4897 0 
L 4281 0 
L 4281 4097 
L 3078 897 
L 2444 897 
L 1241 4097 
L 1241 0 
L 628 0 
L 628 4666 
z
" transform="scale(0.015625)"/>
       <path id="DejaVuSans-6e" d="M 3513 2113 
L 3513 0 
L 2938 0 
L 2938 2094 
Q 2938 2591 2744 2837 
Q 2550 3084 2163 3084 
Q 1697 3084 1428 2787 
Q 1159 2491 1159 1978 
L 1159 0 
L 581 0 
L 581 3500 
L 1159 3500 
L 1159 2956 
Q 1366 3272 1645 3428 
Q 1925 3584 2291 3584 
Q 2894 3584 3203 3211 
Q 3513 2838 3513 2113 
z
" transform="scale(0.015625)"/>
       <path id="DejaVuSans-72" d="M 2631 2963 
Q 2534 3019 2420 3045 
Q 2306 3072 2169 3072 
Q 1681 3072 1420 2755 
Q 1159 2438 1159 1844 
L 1159 0 
L 581 0 
L 581 3500 
L 1159 3500 
L 1159 2956 
Q 1341 3275 1631 3429 
Q 1922 3584 2338 3584 
Q 2397 3584 2469 3576 
Q 2541 3569 2628 3553 
L 2631 2963 
z
" transform="scale(0.015625)"/>
      </defs>
      <use xlink:href="#DejaVuSans-4d"/>
      <use xlink:href="#DejaVuSans-65" x="86.279297"/>
      <use xlink:href="#DejaVuSans-61" x="147.802734"/>
      <use xlink:href="#DejaVuSans-6e" x="209.082031"/>
      <use xlink:href="#DejaVuSans-20" x="272.460938"/>
      <use xlink:href="#DejaVuSans-72" x="304.248047"/>
      <use xlink:href="#DejaVuSans-61" x="345.361328"/>
      <use xlink:href="#DejaVuSans-74" x="406.640625"/>
      <use xlink:href="#DejaVuSans-65" x="445.849609"/>
     </g>
    </g>
   </g>
  </g>
 </g>
 <defs>
  <clipPath id="p71169c5d0f">
   <rect x="57.6" y="41.472" width="357.12" height="266.112"/>
  </clipPath>
 </defs>
</svg>
