<?xml version="1.0" encoding="utf-8" standalone="no"?>
<!DOCTYPE svg PUBLIC "-//W3C//DTD SVG 1.1//EN"
  "http://www.w3.org/Graphics/SVG/1.1/DTD/svg11.dtd">
<svg xmlns:xlink="http://www.w3.org/1999/xlink" width="460.8pt" height="345.6pt" viewBox="0 0 460.8 345.6" xmlns="http://www.w3.org/2000/svg" version="1.1">
 <metadata>
  <rdf:RDF xmlns:dc="http://purl.org/dc/elements/1.1/" xmlns:cc="http://creativecommons.org/ns#" xmlns:rdf="http://www.w3.org/1999/02/22-rdf-syntax-ns#">
   <cc:Work>
    <dc:type rdf:resource="http://purl.org/dc/dcmitype/StillImage"/>
    <dc:date>2024-10-03T11:36:12.842254</dc:date>
    <dc:format>image/svg+xml</dc:format>
    <dc:creator>
     <cc:Agent>
      <dc:title>Matplotlib v3.8.3, https://matplotlib.org/</dc:title>
     </cc:Agent>
    </dc:creator>
   </cc:Work>
  </rdf:RDF>
 </metadata>
 <defs>
  <style type="text/css">*{stroke-linejoin: round; stroke-linecap: butt}</style>
 </defs>
 <g id="figure_1">
  <g id="patch_1">
   <path d="M 0 345.6 
L 460.8 345.6 
L 460.8 0 
L 0 0 
z
" style="fill: #ffffff"/>
  </g>
  <g id="axes_1">
   <g id="patch_2">
    <path d="M 57.6 307.584 
L 414.72 307.584 
L 414.72 41.472 
L 57.6 41.472 
z
" style="fill: #ffffff"/>
   </g>
   <g id="matplotlib.axis_1">
    <g id="xtick_1">
     <g id="line2d_1">
      <defs>
       <path id="mcad7399726" d="M 0 0 
L 0 3.5 
" style="stroke: #000000; stroke-width: 0.8"/>
      </defs>
      <g>
       <use xlink:href="#mcad7399726" x="57.6" y="307.584" style="stroke: #000000; stroke-width: 0.8"/>
      </g>
     </g>
     <g id="text_1">
      <!-- 0 -->
      <g transform="translate(54.41875 322.182437) scale(0.1 -0.1)">
       <defs>
        <path id="DejaVuSans-30" d="M 2034 4250 
Q 1547 4250 1301 3770 
Q 1056 3291 1056 2328 
Q 1056 1369 1301 889 
Q 1547 409 2034 409 
Q 2525 409 2770 889 
Q 3016 1369 3016 2328 
Q 3016 3291 2770 3770 
Q 2525 4250 2034 4250 
z
M 2034 4750 
Q 2819 4750 3233 4129 
Q 3647 3509 3647 2328 
Q 3647 1150 3233 529 
Q 2819 -91 2034 -91 
Q 1250 -91 836 529 
Q 422 1150 422 2328 
Q 422 3509 836 4129 
Q 1250 4750 2034 4750 
z
" transform="scale(0.015625)"/>
       </defs>
       <use xlink:href="#DejaVuSans-30"/>
      </g>
     </g>
    </g>
    <g id="xtick_2">
     <g id="line2d_2">
      <g>
       <use xlink:href="#mcad7399726" x="129.024" y="307.584" style="stroke: #000000; stroke-width: 0.8"/>
      </g>
     </g>
     <g id="text_2">
      <!-- 20 -->
      <g transform="translate(122.6615 322.182437) scale(0.1 -0.1)">
       <defs>
        <path id="DejaVuSans-32" d="M 1228 531 
L 3431 531 
L 3431 0 
L 469 0 
L 469 531 
Q 828 903 1448 1529 
Q 2069 2156 2228 2338 
Q 2531 2678 2651 2914 
Q 2772 3150 2772 3378 
Q 2772 3750 2511 3984 
Q 2250 4219 1831 4219 
Q 1534 4219 1204 4116 
Q 875 4013 500 3803 
L 500 4441 
Q 881 4594 1212 4672 
Q 1544 4750 1819 4750 
Q 2544 4750 2975 4387 
Q 3406 4025 3406 3419 
Q 3406 3131 3298 2873 
Q 3191 2616 2906 2266 
Q 2828 2175 2409 1742 
Q 1991 1309 1228 531 
z
" transform="scale(0.015625)"/>
       </defs>
       <use xlink:href="#DejaVuSans-32"/>
       <use xlink:href="#DejaVuSans-30" x="63.623047"/>
      </g>
     </g>
    </g>
    <g id="xtick_3">
     <g id="line2d_3">
      <g>
       <use xlink:href="#mcad7399726" x="200.448" y="307.584" style="stroke: #000000; stroke-width: 0.8"/>
      </g>
     </g>
     <g id="text_3">
      <!-- 40 -->
      <g transform="translate(194.0855 322.182437) scale(0.1 -0.1)">
       <defs>
        <path id="DejaVuSans-34" d="M 2419 4116 
L 825 1625 
L 2419 1625 
L 2419 4116 
z
M 2253 4666 
L 3047 4666 
L 3047 1625 
L 3713 1625 
L 3713 1100 
L 3047 1100 
L 3047 0 
L 2419 0 
L 2419 1100 
L 313 1100 
L 313 1709 
L 2253 4666 
z
" transform="scale(0.015625)"/>
       </defs>
       <use xlink:href="#DejaVuSans-34"/>
       <use xlink:href="#DejaVuSans-30" x="63.623047"/>
      </g>
     </g>
    </g>
    <g id="xtick_4">
     <g id="line2d_4">
      <g>
       <use xlink:href="#mcad7399726" x="271.872" y="307.584" style="stroke: #000000; stroke-width: 0.8"/>
      </g>
     </g>
     <g id="text_4">
      <!-- 60 -->
      <g transform="translate(265.5095 322.182437) scale(0.1 -0.1)">
       <defs>
        <path id="DejaVuSans-36" d="M 2113 2584 
Q 1688 2584 1439 2293 
Q 1191 2003 1191 1497 
Q 1191 994 1439 701 
Q 1688 409 2113 409 
Q 2538 409 2786 701 
Q 3034 994 3034 1497 
Q 3034 2003 2786 2293 
Q 2538 2584 2113 2584 
z
M 3366 4563 
L 3366 3988 
Q 3128 4100 2886 4159 
Q 2644 4219 2406 4219 
Q 1781 4219 1451 3797 
Q 1122 3375 1075 2522 
Q 1259 2794 1537 2939 
Q 1816 3084 2150 3084 
Q 2853 3084 3261 2657 
Q 3669 2231 3669 1497 
Q 3669 778 3244 343 
Q 2819 -91 2113 -91 
Q 1303 -91 875 529 
Q 447 1150 447 2328 
Q 447 3434 972 4092 
Q 1497 4750 2381 4750 
Q 2619 4750 2861 4703 
Q 3103 4656 3366 4563 
z
" transform="scale(0.015625)"/>
       </defs>
       <use xlink:href="#DejaVuSans-36"/>
       <use xlink:href="#DejaVuSans-30" x="63.623047"/>
      </g>
     </g>
    </g>
    <g id="xtick_5">
     <g id="line2d_5">
      <g>
       <use xlink:href="#mcad7399726" x="343.296" y="307.584" style="stroke: #000000; stroke-width: 0.8"/>
      </g>
     </g>
     <g id="text_5">
      <!-- 80 -->
      <g transform="translate(336.9335 322.182437) scale(0.1 -0.1)">
       <defs>
        <path id="DejaVuSans-38" d="M 2034 2216 
Q 1584 2216 1326 1975 
Q 1069 1734 1069 1313 
Q 1069 891 1326 650 
Q 1584 409 2034 409 
Q 2484 409 2743 651 
Q 3003 894 3003 1313 
Q 3003 1734 2745 1975 
Q 2488 2216 2034 2216 
z
M 1403 2484 
Q 997 2584 770 2862 
Q 544 3141 544 3541 
Q 544 4100 942 4425 
Q 1341 4750 2034 4750 
Q 2731 4750 3128 4425 
Q 3525 4100 3525 3541 
Q 3525 3141 3298 2862 
Q 3072 2584 2669 2484 
Q 3125 2378 3379 2068 
Q 3634 1759 3634 1313 
Q 3634 634 3220 271 
Q 2806 -91 2034 -91 
Q 1263 -91 848 271 
Q 434 634 434 1313 
Q 434 1759 690 2068 
Q 947 2378 1403 2484 
z
M 1172 3481 
Q 1172 3119 1398 2916 
Q 1625 2713 2034 2713 
Q 2441 2713 2670 2916 
Q 2900 3119 2900 3481 
Q 2900 3844 2670 4047 
Q 2441 4250 2034 4250 
Q 1625 4250 1398 4047 
Q 1172 3844 1172 3481 
z
" transform="scale(0.015625)"/>
       </defs>
       <use xlink:href="#DejaVuSans-38"/>
       <use xlink:href="#DejaVuSans-30" x="63.623047"/>
      </g>
     </g>
    </g>
    <g id="xtick_6">
     <g id="line2d_6">
      <g>
       <use xlink:href="#mcad7399726" x="414.72" y="307.584" style="stroke: #000000; stroke-width: 0.8"/>
      </g>
     </g>
     <g id="text_6">
      <!-- 100 -->
      <g transform="translate(405.17625 322.182437) scale(0.1 -0.1)">
       <defs>
        <path id="DejaVuSans-31" d="M 794 531 
L 1825 531 
L 1825 4091 
L 703 3866 
L 703 4441 
L 1819 4666 
L 2450 4666 
L 2450 531 
L 3481 531 
L 3481 0 
L 794 0 
L 794 531 
z
" transform="scale(0.015625)"/>
       </defs>
       <use xlink:href="#DejaVuSans-31"/>
       <use xlink:href="#DejaVuSans-30" x="63.623047"/>
       <use xlink:href="#DejaVuSans-30" x="127.246094"/>
      </g>
     </g>
    </g>
    <g id="text_7">
     <!-- Interval -->
     <g transform="translate(217.011562 335.860562) scale(0.1 -0.1)">
      <defs>
       <path id="DejaVuSans-49" d="M 628 4666 
L 1259 4666 
L 1259 0 
L 628 0 
L 628 4666 
z
" transform="scale(0.015625)"/>
       <path id="DejaVuSans-6e" d="M 3513 2113 
L 3513 0 
L 2938 0 
L 2938 2094 
Q 2938 2591 2744 2837 
Q 2550 3084 2163 3084 
Q 1697 3084 1428 2787 
Q 1159 2491 1159 1978 
L 1159 0 
L 581 0 
L 581 3500 
L 1159 3500 
L 1159 2956 
Q 1366 3272 1645 3428 
Q 1925 3584 2291 3584 
Q 2894 3584 3203 3211 
Q 3513 2838 3513 2113 
z
" transform="scale(0.015625)"/>
       <path id="DejaVuSans-74" d="M 1172 4494 
L 1172 3500 
L 2356 3500 
L 2356 3053 
L 1172 3053 
L 1172 1153 
Q 1172 725 1289 603 
Q 1406 481 1766 481 
L 2356 481 
L 2356 0 
L 1766 0 
Q 1100 0 847 248 
Q 594 497 594 1153 
L 594 3053 
L 172 3053 
L 172 3500 
L 594 3500 
L 594 4494 
L 1172 4494 
z
" transform="scale(0.015625)"/>
       <path id="DejaVuSans-65" d="M 3597 1894 
L 3597 1613 
L 953 1613 
Q 991 1019 1311 708 
Q 1631 397 2203 397 
Q 2534 397 2845 478 
Q 3156 559 3463 722 
L 3463 178 
Q 3153 47 2828 -22 
Q 2503 -91 2169 -91 
Q 1331 -91 842 396 
Q 353 884 353 1716 
Q 353 2575 817 3079 
Q 1281 3584 2069 3584 
Q 2775 3584 3186 3129 
Q 3597 2675 3597 1894 
z
M 3022 2063 
Q 3016 2534 2758 2815 
Q 2500 3097 2075 3097 
Q 1594 3097 1305 2825 
Q 1016 2553 972 2059 
L 3022 2063 
z
" transform="scale(0.015625)"/>
       <path id="DejaVuSans-72" d="M 2631 2963 
Q 2534 3019 2420 3045 
Q 2306 3072 2169 3072 
Q 1681 3072 1420 2755 
Q 1159 2438 1159 1844 
L 1159 0 
L 581 0 
L 581 3500 
L 1159 3500 
L 1159 2956 
Q 1341 3275 1631 3429 
Q 1922 3584 2338 3584 
Q 2397 3584 2469 3576 
Q 2541 3569 2628 3553 
L 2631 2963 
z
" transform="scale(0.015625)"/>
       <path id="DejaVuSans-76" d="M 191 3500 
L 800 3500 
L 1894 563 
L 2988 3500 
L 3597 3500 
L 2284 0 
L 1503 0 
L 191 3500 
z
" transform="scale(0.015625)"/>
       <path id="DejaVuSans-61" d="M 2194 1759 
Q 1497 1759 1228 1600 
Q 959 1441 959 1056 
Q 959 750 1161 570 
Q 1363 391 1709 391 
Q 2188 391 2477 730 
Q 2766 1069 2766 1631 
L 2766 1759 
L 2194 1759 
z
M 3341 1997 
L 3341 0 
L 2766 0 
L 2766 531 
Q 2569 213 2275 61 
Q 1981 -91 1556 -91 
Q 1019 -91 701 211 
Q 384 513 384 1019 
Q 384 1609 779 1909 
Q 1175 2209 1959 2209 
L 2766 2209 
L 2766 2266 
Q 2766 2663 2505 2880 
Q 2244 3097 1772 3097 
Q 1472 3097 1187 3025 
Q 903 2953 641 2809 
L 641 3341 
Q 956 3463 1253 3523 
Q 1550 3584 1831 3584 
Q 2591 3584 2966 3190 
Q 3341 2797 3341 1997 
z
" transform="scale(0.015625)"/>
       <path id="DejaVuSans-6c" d="M 603 4863 
L 1178 4863 
L 1178 0 
L 603 0 
L 603 4863 
z
" transform="scale(0.015625)"/>
      </defs>
      <use xlink:href="#DejaVuSans-49"/>
      <use xlink:href="#DejaVuSans-6e" x="29.492188"/>
      <use xlink:href="#DejaVuSans-74" x="92.871094"/>
      <use xlink:href="#DejaVuSans-65" x="132.080078"/>
      <use xlink:href="#DejaVuSans-72" x="193.603516"/>
      <use xlink:href="#DejaVuSans-76" x="234.716797"/>
      <use xlink:href="#DejaVuSans-61" x="293.896484"/>
      <use xlink:href="#DejaVuSans-6c" x="355.175781"/>
     </g>
    </g>
   </g>
   <g id="matplotlib.axis_2">
    <g id="ytick_1">
     <g id="line2d_7">
      <defs>
       <path id="m1bf2862c2f" d="M 0 0 
L -3.5 0 
" style="stroke: #000000; stroke-width: 0.8"/>
      </defs>
      <g>
       <use xlink:href="#m1bf2862c2f" x="57.6" y="295.488" style="stroke: #000000; stroke-width: 0.8"/>
      </g>
     </g>
     <g id="text_8">
      <!-- 0.00 -->
      <g transform="translate(28.334375 299.287219) scale(0.1 -0.1)">
       <defs>
        <path id="DejaVuSans-2e" d="M 684 794 
L 1344 794 
L 1344 0 
L 684 0 
L 684 794 
z
" transform="scale(0.015625)"/>
       </defs>
       <use xlink:href="#DejaVuSans-30"/>
       <use xlink:href="#DejaVuSans-2e" x="63.623047"/>
       <use xlink:href="#DejaVuSans-30" x="95.410156"/>
       <use xlink:href="#DejaVuSans-30" x="159.033203"/>
      </g>
     </g>
    </g>
    <g id="ytick_2">
     <g id="line2d_8">
      <g>
       <use xlink:href="#m1bf2862c2f" x="57.6" y="259.911529" style="stroke: #000000; stroke-width: 0.8"/>
      </g>
     </g>
     <g id="text_9">
      <!-- 0.05 -->
      <g transform="translate(28.334375 263.710748) scale(0.1 -0.1)">
       <defs>
        <path id="DejaVuSans-35" d="M 691 4666 
L 3169 4666 
L 3169 4134 
L 1269 4134 
L 1269 2991 
Q 1406 3038 1543 3061 
Q 1681 3084 1819 3084 
Q 2600 3084 3056 2656 
Q 3513 2228 3513 1497 
Q 3513 744 3044 326 
Q 2575 -91 1722 -91 
Q 1428 -91 1123 -41 
Q 819 9 494 109 
L 494 744 
Q 775 591 1075 516 
Q 1375 441 1709 441 
Q 2250 441 2565 725 
Q 2881 1009 2881 1497 
Q 2881 1984 2565 2268 
Q 2250 2553 1709 2553 
Q 1456 2553 1204 2497 
Q 953 2441 691 2322 
L 691 4666 
z
" transform="scale(0.015625)"/>
       </defs>
       <use xlink:href="#DejaVuSans-30"/>
       <use xlink:href="#DejaVuSans-2e" x="63.623047"/>
       <use xlink:href="#DejaVuSans-30" x="95.410156"/>
       <use xlink:href="#DejaVuSans-35" x="159.033203"/>
      </g>
     </g>
    </g>
    <g id="ytick_3">
     <g id="line2d_9">
      <g>
       <use xlink:href="#m1bf2862c2f" x="57.6" y="224.335059" style="stroke: #000000; stroke-width: 0.8"/>
      </g>
     </g>
     <g id="text_10">
      <!-- 0.10 -->
      <g transform="translate(28.334375 228.134278) scale(0.1 -0.1)">
       <use xlink:href="#DejaVuSans-30"/>
       <use xlink:href="#DejaVuSans-2e" x="63.623047"/>
       <use xlink:href="#DejaVuSans-31" x="95.410156"/>
       <use xlink:href="#DejaVuSans-30" x="159.033203"/>
      </g>
     </g>
    </g>
    <g id="ytick_4">
     <g id="line2d_10">
      <g>
       <use xlink:href="#m1bf2862c2f" x="57.6" y="188.758588" style="stroke: #000000; stroke-width: 0.8"/>
      </g>
     </g>
     <g id="text_11">
      <!-- 0.15 -->
      <g transform="translate(28.334375 192.557807) scale(0.1 -0.1)">
       <use xlink:href="#DejaVuSans-30"/>
       <use xlink:href="#DejaVuSans-2e" x="63.623047"/>
       <use xlink:href="#DejaVuSans-31" x="95.410156"/>
       <use xlink:href="#DejaVuSans-35" x="159.033203"/>
      </g>
     </g>
    </g>
    <g id="ytick_5">
     <g id="line2d_11">
      <g>
       <use xlink:href="#m1bf2862c2f" x="57.6" y="153.182118" style="stroke: #000000; stroke-width: 0.8"/>
      </g>
     </g>
     <g id="text_12">
      <!-- 0.20 -->
      <g transform="translate(28.334375 156.981336) scale(0.1 -0.1)">
       <use xlink:href="#DejaVuSans-30"/>
       <use xlink:href="#DejaVuSans-2e" x="63.623047"/>
       <use xlink:href="#DejaVuSans-32" x="95.410156"/>
       <use xlink:href="#DejaVuSans-30" x="159.033203"/>
      </g>
     </g>
    </g>
    <g id="ytick_6">
     <g id="line2d_12">
      <g>
       <use xlink:href="#m1bf2862c2f" x="57.6" y="117.605647" style="stroke: #000000; stroke-width: 0.8"/>
      </g>
     </g>
     <g id="text_13">
      <!-- 0.25 -->
      <g transform="translate(28.334375 121.404866) scale(0.1 -0.1)">
       <use xlink:href="#DejaVuSans-30"/>
       <use xlink:href="#DejaVuSans-2e" x="63.623047"/>
       <use xlink:href="#DejaVuSans-32" x="95.410156"/>
       <use xlink:href="#DejaVuSans-35" x="159.033203"/>
      </g>
     </g>
    </g>
    <g id="ytick_7">
     <g id="line2d_13">
      <g>
       <use xlink:href="#m1bf2862c2f" x="57.6" y="82.029176" style="stroke: #000000; stroke-width: 0.8"/>
      </g>
     </g>
     <g id="text_14">
      <!-- 0.30 -->
      <g transform="translate(28.334375 85.828395) scale(0.1 -0.1)">
       <defs>
        <path id="DejaVuSans-33" d="M 2597 2516 
Q 3050 2419 3304 2112 
Q 3559 1806 3559 1356 
Q 3559 666 3084 287 
Q 2609 -91 1734 -91 
Q 1441 -91 1130 -33 
Q 819 25 488 141 
L 488 750 
Q 750 597 1062 519 
Q 1375 441 1716 441 
Q 2309 441 2620 675 
Q 2931 909 2931 1356 
Q 2931 1769 2642 2001 
Q 2353 2234 1838 2234 
L 1294 2234 
L 1294 2753 
L 1863 2753 
Q 2328 2753 2575 2939 
Q 2822 3125 2822 3475 
Q 2822 3834 2567 4026 
Q 2313 4219 1838 4219 
Q 1578 4219 1281 4162 
Q 984 4106 628 3988 
L 628 4550 
Q 988 4650 1302 4700 
Q 1616 4750 1894 4750 
Q 2613 4750 3031 4423 
Q 3450 4097 3450 3541 
Q 3450 3153 3228 2886 
Q 3006 2619 2597 2516 
z
" transform="scale(0.015625)"/>
       </defs>
       <use xlink:href="#DejaVuSans-30"/>
       <use xlink:href="#DejaVuSans-2e" x="63.623047"/>
       <use xlink:href="#DejaVuSans-33" x="95.410156"/>
       <use xlink:href="#DejaVuSans-30" x="159.033203"/>
      </g>
     </g>
    </g>
    <g id="ytick_8">
     <g id="line2d_14">
      <g>
       <use xlink:href="#m1bf2862c2f" x="57.6" y="46.452706" style="stroke: #000000; stroke-width: 0.8"/>
      </g>
     </g>
     <g id="text_15">
      <!-- 0.35 -->
      <g transform="translate(28.334375 50.251925) scale(0.1 -0.1)">
       <use xlink:href="#DejaVuSans-30"/>
       <use xlink:href="#DejaVuSans-2e" x="63.623047"/>
       <use xlink:href="#DejaVuSans-33" x="95.410156"/>
       <use xlink:href="#DejaVuSans-35" x="159.033203"/>
      </g>
     </g>
    </g>
    <g id="text_16">
     <!-- Rate $(kHz)$ -->
     <g transform="translate(22.254687 200.878) rotate(-90) scale(0.1 -0.1)">
      <defs>
       <path id="DejaVuSans-52" d="M 2841 2188 
Q 3044 2119 3236 1894 
Q 3428 1669 3622 1275 
L 4263 0 
L 3584 0 
L 2988 1197 
Q 2756 1666 2539 1819 
Q 2322 1972 1947 1972 
L 1259 1972 
L 1259 0 
L 628 0 
L 628 4666 
L 2053 4666 
Q 2853 4666 3247 4331 
Q 3641 3997 3641 3322 
Q 3641 2881 3436 2590 
Q 3231 2300 2841 2188 
z
M 1259 4147 
L 1259 2491 
L 2053 2491 
Q 2509 2491 2742 2702 
Q 2975 2913 2975 3322 
Q 2975 3731 2742 3939 
Q 2509 4147 2053 4147 
L 1259 4147 
z
" transform="scale(0.015625)"/>
       <path id="DejaVuSans-20" transform="scale(0.015625)"/>
       <path id="DejaVuSans-28" d="M 1984 4856 
Q 1566 4138 1362 3434 
Q 1159 2731 1159 2009 
Q 1159 1288 1364 580 
Q 1569 -128 1984 -844 
L 1484 -844 
Q 1016 -109 783 600 
Q 550 1309 550 2009 
Q 550 2706 781 3412 
Q 1013 4119 1484 4856 
L 1984 4856 
z
" transform="scale(0.015625)"/>
       <path id="DejaVuSans-Oblique-6b" d="M 1172 4863 
L 1747 4863 
L 1197 2028 
L 3169 3500 
L 3916 3500 
L 1716 1825 
L 3322 0 
L 2625 0 
L 1131 1709 
L 800 0 
L 225 0 
L 1172 4863 
z
" transform="scale(0.015625)"/>
       <path id="DejaVuSans-Oblique-48" d="M 1081 4666 
L 1716 4666 
L 1344 2753 
L 3634 2753 
L 4006 4666 
L 4641 4666 
L 3731 0 
L 3097 0 
L 3531 2222 
L 1241 2222 
L 806 0 
L 172 0 
L 1081 4666 
z
" transform="scale(0.015625)"/>
       <path id="DejaVuSans-Oblique-7a" d="M 744 3500 
L 3475 3500 
L 3372 2975 
L 738 459 
L 2913 459 
L 2822 0 
L -19 0 
L 84 525 
L 2719 3041 
L 653 3041 
L 744 3500 
z
" transform="scale(0.015625)"/>
       <path id="DejaVuSans-29" d="M 513 4856 
L 1013 4856 
Q 1481 4119 1714 3412 
Q 1947 2706 1947 2009 
Q 1947 1309 1714 600 
Q 1481 -109 1013 -844 
L 513 -844 
Q 928 -128 1133 580 
Q 1338 1288 1338 2009 
Q 1338 2731 1133 3434 
Q 928 4138 513 4856 
z
" transform="scale(0.015625)"/>
      </defs>
      <use xlink:href="#DejaVuSans-52" transform="translate(0 0.015625)"/>
      <use xlink:href="#DejaVuSans-61" transform="translate(69.482422 0.015625)"/>
      <use xlink:href="#DejaVuSans-74" transform="translate(130.761719 0.015625)"/>
      <use xlink:href="#DejaVuSans-65" transform="translate(169.970703 0.015625)"/>
      <use xlink:href="#DejaVuSans-20" transform="translate(231.494141 0.015625)"/>
      <use xlink:href="#DejaVuSans-28" transform="translate(263.28125 0.015625)"/>
      <use xlink:href="#DejaVuSans-Oblique-6b" transform="translate(302.294922 0.015625)"/>
      <use xlink:href="#DejaVuSans-Oblique-48" transform="translate(360.205078 0.015625)"/>
      <use xlink:href="#DejaVuSans-Oblique-7a" transform="translate(435.400391 0.015625)"/>
      <use xlink:href="#DejaVuSans-29" transform="translate(487.890625 0.015625)"/>
     </g>
    </g>
   </g>
   <g id="line2d_15">
    <path d="M 57.6 259.911529 
L 61.1712 252.796235 
L 64.7424 281.257412 
L 68.3136 267.026824 
L 71.8848 267.026824 
L 75.456 267.026824 
L 79.0272 267.026824 
L 82.5984 281.257412 
L 86.1696 267.026824 
L 89.7408 259.911529 
L 93.312 274.142118 
L 96.8832 259.911529 
L 100.4544 267.026824 
L 104.0256 274.142118 
L 107.5968 259.911529 
L 111.168 259.911529 
L 114.7392 259.911529 
L 118.3104 252.796235 
L 121.8816 267.026824 
L 125.4528 267.026824 
L 129.024 267.026824 
L 132.5952 281.257412 
L 136.1664 281.257412 
L 139.7376 267.026824 
L 143.3088 267.026824 
L 146.88 274.142118 
L 150.4512 274.142118 
L 154.0224 274.142118 
L 157.5936 252.796235 
L 161.1648 274.142118 
L 164.736 259.911529 
L 168.3072 259.911529 
L 171.8784 267.026824 
L 175.4496 274.142118 
L 179.0208 252.796235 
L 182.592 274.142118 
L 186.1632 259.911529 
L 189.7344 267.026824 
L 193.3056 259.911529 
L 196.8768 274.142118 
L 200.448 267.026824 
L 204.0192 267.026824 
L 207.5904 267.026824 
L 211.1616 267.026824 
L 214.7328 259.911529 
L 218.304 267.026824 
L 221.8752 259.911529 
L 225.4464 252.796235 
L 229.0176 259.911529 
L 232.5888 259.911529 
L 236.16 274.142118 
L 239.7312 245.680941 
L 243.3024 238.565647 
L 246.8736 238.565647 
L 250.4448 238.565647 
L 254.016 82.029176 
L 257.5872 238.565647 
L 261.1584 245.680941 
L 264.7296 231.450353 
L 268.3008 224.335059 
L 271.872 231.450353 
L 275.4432 238.565647 
L 279.0144 238.565647 
L 282.5856 238.565647 
L 286.1568 238.565647 
L 289.728 238.565647 
L 293.2992 238.565647 
L 296.8704 217.219765 
L 300.4416 231.450353 
L 304.0128 238.565647 
L 307.584 231.450353 
L 311.1552 231.450353 
L 314.7264 245.680941 
L 318.2976 231.450353 
L 321.8688 245.680941 
L 325.44 138.951529 
L 329.0112 60.683294 
L 332.5824 245.680941 
L 336.1536 245.680941 
L 339.7248 238.565647 
L 343.296 245.680941 
L 346.8672 224.335059 
L 350.4384 224.335059 
L 354.0096 224.335059 
L 357.5808 231.450353 
L 361.152 238.565647 
L 364.7232 224.335059 
L 368.2944 238.565647 
L 371.8656 238.565647 
L 375.4368 224.335059 
L 379.008 238.565647 
L 382.5792 210.104471 
L 386.1504 181.643294 
L 389.7216 224.335059 
L 393.2928 238.565647 
L 396.864 238.565647 
L 400.4352 231.450353 
L 404.0064 245.680941 
L 407.5776 238.565647 
L 411.1488 224.335059 
" clip-path="url(#p97cd336c4c)" style="fill: none; stroke: #1f77b4; stroke-width: 1.5; stroke-linecap: square"/>
   </g>
   <g id="line2d_16">
    <path d="M 57.6 281.257412 
L 61.1712 281.257412 
L 64.7424 274.142118 
L 68.3136 259.911529 
L 71.8848 274.142118 
L 75.456 274.142118 
L 79.0272 274.142118 
L 82.5984 259.911529 
L 86.1696 288.372706 
L 89.7408 259.911529 
L 93.312 267.026824 
L 96.8832 267.026824 
L 100.4544 281.257412 
L 104.0256 267.026824 
L 107.5968 259.911529 
L 111.168 274.142118 
L 114.7392 267.026824 
L 118.3104 259.911529 
L 121.8816 274.142118 
L 125.4528 267.026824 
L 129.024 267.026824 
L 132.5952 252.796235 
L 136.1664 267.026824 
L 139.7376 267.026824 
L 143.3088 259.911529 
L 146.88 274.142118 
L 150.4512 267.026824 
L 154.0224 281.257412 
L 157.5936 259.911529 
L 161.1648 274.142118 
L 164.736 267.026824 
L 168.3072 267.026824 
L 171.8784 267.026824 
L 175.4496 274.142118 
L 179.0208 274.142118 
L 182.592 267.026824 
L 186.1632 267.026824 
L 189.7344 259.911529 
L 193.3056 259.911529 
L 196.8768 267.026824 
L 200.448 259.911529 
L 204.0192 274.142118 
L 207.5904 281.257412 
L 211.1616 259.911529 
L 214.7328 267.026824 
L 218.304 267.026824 
L 221.8752 274.142118 
L 225.4464 281.257412 
L 229.0176 259.911529 
L 232.5888 252.796235 
L 236.16 267.026824 
L 239.7312 252.796235 
L 243.3024 231.450353 
L 246.8736 231.450353 
L 250.4448 231.450353 
L 254.016 82.029176 
L 257.5872 217.219765 
L 261.1584 245.680941 
L 264.7296 238.565647 
L 268.3008 231.450353 
L 271.872 231.450353 
L 275.4432 238.565647 
L 279.0144 238.565647 
L 282.5856 238.565647 
L 286.1568 238.565647 
L 289.728 238.565647 
L 293.2992 238.565647 
L 296.8704 210.104471 
L 300.4416 231.450353 
L 304.0128 238.565647 
L 307.584 231.450353 
L 311.1552 231.450353 
L 314.7264 245.680941 
L 318.2976 231.450353 
L 321.8688 245.680941 
L 325.44 138.951529 
L 329.0112 53.568 
L 332.5824 245.680941 
L 336.1536 245.680941 
L 339.7248 238.565647 
L 343.296 245.680941 
L 346.8672 231.450353 
L 350.4384 224.335059 
L 354.0096 231.450353 
L 357.5808 224.335059 
L 361.152 238.565647 
L 364.7232 224.335059 
L 368.2944 238.565647 
L 371.8656 238.565647 
L 375.4368 224.335059 
L 379.008 238.565647 
L 382.5792 210.104471 
L 386.1504 174.528 
L 389.7216 231.450353 
L 393.2928 238.565647 
L 396.864 238.565647 
L 400.4352 231.450353 
L 404.0064 245.680941 
L 407.5776 238.565647 
L 411.1488 210.104471 
" clip-path="url(#p97cd336c4c)" style="fill: none; stroke: #ff7f0e; stroke-width: 1.5; stroke-linecap: square"/>
   </g>
   <g id="line2d_17">
    <path d="M 57.6 259.911529 
L 61.1712 267.026824 
L 64.7424 274.142118 
L 68.3136 267.026824 
L 71.8848 252.796235 
L 75.456 267.026824 
L 79.0272 267.026824 
L 82.5984 252.796235 
L 86.1696 274.142118 
L 89.7408 274.142118 
L 93.312 259.911529 
L 96.8832 281.257412 
L 100.4544 274.142118 
L 104.0256 259.911529 
L 107.5968 267.026824 
L 111.168 259.911529 
L 114.7392 267.026824 
L 118.3104 274.142118 
L 121.8816 274.142118 
L 125.4528 259.911529 
L 129.024 267.026824 
L 132.5952 267.026824 
L 136.1664 259.911529 
L 139.7376 259.911529 
L 143.3088 274.142118 
L 146.88 259.911529 
L 150.4512 267.026824 
L 154.0224 267.026824 
L 157.5936 252.796235 
L 161.1648 274.142118 
L 164.736 267.026824 
L 168.3072 252.796235 
L 171.8784 274.142118 
L 175.4496 259.911529 
L 179.0208 252.796235 
L 182.592 267.026824 
L 186.1632 267.026824 
L 189.7344 267.026824 
L 193.3056 267.026824 
L 196.8768 259.911529 
L 200.448 259.911529 
L 204.0192 281.257412 
L 207.5904 274.142118 
L 211.1616 267.026824 
L 214.7328 267.026824 
L 218.304 274.142118 
L 221.8752 259.911529 
L 225.4464 274.142118 
L 229.0176 267.026824 
L 232.5888 267.026824 
L 236.16 259.911529 
L 239.7312 245.680941 
L 243.3024 217.219765 
L 246.8736 245.680941 
L 250.4448 231.450353 
L 254.016 103.375059 
L 257.5872 238.565647 
L 261.1584 245.680941 
L 264.7296 231.450353 
L 268.3008 217.219765 
L 271.872 224.335059 
L 275.4432 238.565647 
L 279.0144 238.565647 
L 282.5856 238.565647 
L 286.1568 238.565647 
L 289.728 238.565647 
L 293.2992 231.450353 
L 296.8704 210.104471 
L 300.4416 238.565647 
L 304.0128 238.565647 
L 307.584 231.450353 
L 311.1552 231.450353 
L 314.7264 245.680941 
L 318.2976 231.450353 
L 321.8688 245.680941 
L 325.44 138.951529 
L 329.0112 53.568 
L 332.5824 245.680941 
L 336.1536 245.680941 
L 339.7248 238.565647 
L 343.296 245.680941 
L 346.8672 231.450353 
L 350.4384 217.219765 
L 354.0096 238.565647 
L 357.5808 224.335059 
L 361.152 231.450353 
L 364.7232 224.335059 
L 368.2944 238.565647 
L 371.8656 238.565647 
L 375.4368 224.335059 
L 379.008 238.565647 
L 382.5792 217.219765 
L 386.1504 174.528 
L 389.7216 231.450353 
L 393.2928 238.565647 
L 396.864 238.565647 
L 400.4352 231.450353 
L 404.0064 245.680941 
L 407.5776 238.565647 
L 411.1488 224.335059 
" clip-path="url(#p97cd336c4c)" style="fill: none; stroke: #2ca02c; stroke-width: 1.5; stroke-linecap: square"/>
   </g>
   <g id="line2d_18">
    <path d="M 57.6 267.026824 
L 61.1712 267.026824 
L 64.7424 274.142118 
L 68.3136 267.026824 
L 71.8848 259.911529 
L 75.456 267.026824 
L 79.0272 259.911529 
L 82.5984 274.142118 
L 86.1696 267.026824 
L 89.7408 252.796235 
L 93.312 267.026824 
L 96.8832 267.026824 
L 100.4544 274.142118 
L 104.0256 259.911529 
L 107.5968 267.026824 
L 111.168 267.026824 
L 114.7392 274.142118 
L 118.3104 281.257412 
L 121.8816 281.257412 
L 125.4528 259.911529 
L 129.024 274.142118 
L 132.5952 267.026824 
L 136.1664 252.796235 
L 139.7376 274.142118 
L 143.3088 274.142118 
L 146.88 274.142118 
L 150.4512 252.796235 
L 154.0224 259.911529 
L 157.5936 267.026824 
L 161.1648 274.142118 
L 164.736 259.911529 
L 168.3072 259.911529 
L 171.8784 274.142118 
L 175.4496 267.026824 
L 179.0208 274.142118 
L 182.592 267.026824 
L 186.1632 267.026824 
L 189.7344 274.142118 
L 193.3056 267.026824 
L 196.8768 281.257412 
L 200.448 259.911529 
L 204.0192 267.026824 
L 207.5904 259.911529 
L 211.1616 267.026824 
L 214.7328 259.911529 
L 218.304 267.026824 
L 221.8752 259.911529 
L 225.4464 267.026824 
L 229.0176 274.142118 
L 232.5888 281.257412 
L 236.16 274.142118 
L 239.7312 245.680941 
L 243.3024 217.219765 
L 246.8736 252.796235 
L 250.4448 238.565647 
L 254.016 82.029176 
L 257.5872 238.565647 
L 261.1584 238.565647 
L 264.7296 238.565647 
L 268.3008 224.335059 
L 271.872 231.450353 
L 275.4432 238.565647 
L 279.0144 238.565647 
L 282.5856 238.565647 
L 286.1568 238.565647 
L 289.728 238.565647 
L 293.2992 238.565647 
L 296.8704 210.104471 
L 300.4416 231.450353 
L 304.0128 238.565647 
L 307.584 231.450353 
L 311.1552 231.450353 
L 314.7264 245.680941 
L 318.2976 231.450353 
L 321.8688 245.680941 
L 325.44 138.951529 
L 329.0112 53.568 
L 332.5824 245.680941 
L 336.1536 245.680941 
L 339.7248 238.565647 
L 343.296 245.680941 
L 346.8672 231.450353 
L 350.4384 224.335059 
L 354.0096 224.335059 
L 357.5808 224.335059 
L 361.152 238.565647 
L 364.7232 217.219765 
L 368.2944 238.565647 
L 371.8656 238.565647 
L 375.4368 224.335059 
L 379.008 238.565647 
L 382.5792 217.219765 
L 386.1504 174.528 
L 389.7216 231.450353 
L 393.2928 238.565647 
L 396.864 238.565647 
L 400.4352 231.450353 
L 404.0064 245.680941 
L 407.5776 238.565647 
L 411.1488 224.335059 
" clip-path="url(#p97cd336c4c)" style="fill: none; stroke: #d62728; stroke-width: 1.5; stroke-linecap: square"/>
   </g>
   <g id="line2d_19">
    <path d="M 57.6 274.142118 
L 61.1712 267.026824 
L 64.7424 259.911529 
L 68.3136 267.026824 
L 71.8848 267.026824 
L 75.456 267.026824 
L 79.0272 274.142118 
L 82.5984 281.257412 
L 86.1696 274.142118 
L 89.7408 259.911529 
L 93.312 267.026824 
L 96.8832 259.911529 
L 100.4544 274.142118 
L 104.0256 267.026824 
L 107.5968 267.026824 
L 111.168 259.911529 
L 114.7392 281.257412 
L 118.3104 267.026824 
L 121.8816 259.911529 
L 125.4528 281.257412 
L 129.024 267.026824 
L 132.5952 267.026824 
L 136.1664 267.026824 
L 139.7376 267.026824 
L 143.3088 281.257412 
L 146.88 259.911529 
L 150.4512 281.257412 
L 154.0224 281.257412 
L 157.5936 267.026824 
L 161.1648 267.026824 
L 164.736 274.142118 
L 168.3072 267.026824 
L 171.8784 267.026824 
L 175.4496 274.142118 
L 179.0208 274.142118 
L 182.592 252.796235 
L 186.1632 267.026824 
L 189.7344 252.796235 
L 193.3056 259.911529 
L 196.8768 267.026824 
L 200.448 274.142118 
L 204.0192 267.026824 
L 207.5904 252.796235 
L 211.1616 267.026824 
L 214.7328 259.911529 
L 218.304 259.911529 
L 221.8752 274.142118 
L 225.4464 281.257412 
L 229.0176 252.796235 
L 232.5888 259.911529 
L 236.16 267.026824 
L 239.7312 245.680941 
L 243.3024 231.450353 
L 246.8736 224.335059 
L 250.4448 231.450353 
L 254.016 89.144471 
L 257.5872 231.450353 
L 261.1584 245.680941 
L 264.7296 231.450353 
L 268.3008 224.335059 
L 271.872 231.450353 
L 275.4432 238.565647 
L 279.0144 238.565647 
L 282.5856 238.565647 
L 286.1568 238.565647 
L 289.728 238.565647 
L 293.2992 238.565647 
L 296.8704 217.219765 
L 300.4416 231.450353 
L 304.0128 238.565647 
L 307.584 231.450353 
L 311.1552 231.450353 
L 314.7264 245.680941 
L 318.2976 231.450353 
L 321.8688 245.680941 
L 325.44 131.836235 
L 329.0112 53.568 
L 332.5824 245.680941 
L 336.1536 245.680941 
L 339.7248 238.565647 
L 343.296 245.680941 
L 346.8672 231.450353 
L 350.4384 224.335059 
L 354.0096 224.335059 
L 357.5808 224.335059 
L 361.152 238.565647 
L 364.7232 224.335059 
L 368.2944 238.565647 
L 371.8656 231.450353 
L 375.4368 224.335059 
L 379.008 238.565647 
L 382.5792 217.219765 
L 386.1504 167.412706 
L 389.7216 224.335059 
L 393.2928 238.565647 
L 396.864 238.565647 
L 400.4352 231.450353 
L 404.0064 245.680941 
L 407.5776 238.565647 
L 411.1488 224.335059 
" clip-path="url(#p97cd336c4c)" style="fill: none; stroke: #9467bd; stroke-width: 1.5; stroke-linecap: square"/>
   </g>
   <g id="line2d_20">
    <path d="M 57.6 267.026824 
L 61.1712 259.911529 
L 64.7424 267.026824 
L 68.3136 274.142118 
L 71.8848 259.911529 
L 75.456 267.026824 
L 79.0272 274.142118 
L 82.5984 281.257412 
L 86.1696 267.026824 
L 89.7408 267.026824 
L 93.312 259.911529 
L 96.8832 267.026824 
L 100.4544 274.142118 
L 104.0256 259.911529 
L 107.5968 267.026824 
L 111.168 252.796235 
L 114.7392 267.026824 
L 118.3104 281.257412 
L 121.8816 267.026824 
L 125.4528 259.911529 
L 129.024 274.142118 
L 132.5952 267.026824 
L 136.1664 267.026824 
L 139.7376 288.372706 
L 143.3088 259.911529 
L 146.88 267.026824 
L 150.4512 274.142118 
L 154.0224 267.026824 
L 157.5936 267.026824 
L 161.1648 267.026824 
L 164.736 259.911529 
L 168.3072 267.026824 
L 171.8784 267.026824 
L 175.4496 281.257412 
L 179.0208 259.911529 
L 182.592 281.257412 
L 186.1632 267.026824 
L 189.7344 259.911529 
L 193.3056 267.026824 
L 196.8768 259.911529 
L 200.448 267.026824 
L 204.0192 252.796235 
L 207.5904 259.911529 
L 211.1616 267.026824 
L 214.7328 259.911529 
L 218.304 259.911529 
L 221.8752 274.142118 
L 225.4464 267.026824 
L 229.0176 259.911529 
L 232.5888 252.796235 
L 236.16 267.026824 
L 239.7312 252.796235 
L 243.3024 224.335059 
L 246.8736 238.565647 
L 250.4448 238.565647 
L 254.016 74.913882 
L 257.5872 238.565647 
L 261.1584 245.680941 
L 264.7296 238.565647 
L 268.3008 231.450353 
L 271.872 231.450353 
L 275.4432 238.565647 
L 279.0144 238.565647 
L 282.5856 238.565647 
L 286.1568 238.565647 
L 289.728 238.565647 
L 293.2992 238.565647 
L 296.8704 210.104471 
L 300.4416 231.450353 
L 304.0128 231.450353 
L 307.584 231.450353 
L 311.1552 231.450353 
L 314.7264 245.680941 
L 318.2976 231.450353 
L 321.8688 245.680941 
L 325.44 138.951529 
L 329.0112 60.683294 
L 332.5824 245.680941 
L 336.1536 245.680941 
L 339.7248 238.565647 
L 343.296 245.680941 
L 346.8672 231.450353 
L 350.4384 224.335059 
L 354.0096 224.335059 
L 357.5808 224.335059 
L 361.152 238.565647 
L 364.7232 217.219765 
L 368.2944 238.565647 
L 371.8656 238.565647 
L 375.4368 224.335059 
L 379.008 245.680941 
L 382.5792 217.219765 
L 386.1504 188.758588 
L 389.7216 231.450353 
L 393.2928 238.565647 
L 396.864 238.565647 
L 400.4352 231.450353 
L 404.0064 245.680941 
L 407.5776 238.565647 
L 411.1488 224.335059 
" clip-path="url(#p97cd336c4c)" style="fill: none; stroke: #8c564b; stroke-width: 1.5; stroke-linecap: square"/>
   </g>
   <g id="line2d_21">
    <path d="M 57.6 274.142118 
L 61.1712 252.796235 
L 64.7424 274.142118 
L 68.3136 259.911529 
L 71.8848 252.796235 
L 75.456 259.911529 
L 79.0272 274.142118 
L 82.5984 281.257412 
L 86.1696 267.026824 
L 89.7408 274.142118 
L 93.312 267.026824 
L 96.8832 267.026824 
L 100.4544 259.911529 
L 104.0256 259.911529 
L 107.5968 281.257412 
L 111.168 267.026824 
L 114.7392 267.026824 
L 118.3104 252.796235 
L 121.8816 281.257412 
L 125.4528 267.026824 
L 129.024 259.911529 
L 132.5952 252.796235 
L 136.1664 259.911529 
L 139.7376 267.026824 
L 143.3088 267.026824 
L 146.88 267.026824 
L 150.4512 274.142118 
L 154.0224 267.026824 
L 157.5936 259.911529 
L 161.1648 274.142118 
L 164.736 259.911529 
L 168.3072 259.911529 
L 171.8784 274.142118 
L 175.4496 267.026824 
L 179.0208 259.911529 
L 182.592 259.911529 
L 186.1632 274.142118 
L 189.7344 267.026824 
L 193.3056 274.142118 
L 196.8768 274.142118 
L 200.448 259.911529 
L 204.0192 259.911529 
L 207.5904 267.026824 
L 211.1616 274.142118 
L 214.7328 274.142118 
L 218.304 267.026824 
L 221.8752 274.142118 
L 225.4464 274.142118 
L 229.0176 267.026824 
L 232.5888 267.026824 
L 236.16 274.142118 
L 239.7312 245.680941 
L 243.3024 231.450353 
L 246.8736 238.565647 
L 250.4448 238.565647 
L 254.016 82.029176 
L 257.5872 231.450353 
L 261.1584 245.680941 
L 264.7296 238.565647 
L 268.3008 231.450353 
L 271.872 224.335059 
L 275.4432 238.565647 
L 279.0144 238.565647 
L 282.5856 238.565647 
L 286.1568 238.565647 
L 289.728 238.565647 
L 293.2992 238.565647 
L 296.8704 210.104471 
L 300.4416 231.450353 
L 304.0128 238.565647 
L 307.584 231.450353 
L 311.1552 231.450353 
L 314.7264 245.680941 
L 318.2976 231.450353 
L 321.8688 245.680941 
L 325.44 138.951529 
L 329.0112 53.568 
L 332.5824 245.680941 
L 336.1536 245.680941 
L 339.7248 238.565647 
L 343.296 245.680941 
L 346.8672 231.450353 
L 350.4384 224.335059 
L 354.0096 231.450353 
L 357.5808 224.335059 
L 361.152 238.565647 
L 364.7232 217.219765 
L 368.2944 238.565647 
L 371.8656 238.565647 
L 375.4368 224.335059 
L 379.008 238.565647 
L 382.5792 217.219765 
L 386.1504 174.528 
L 389.7216 231.450353 
L 393.2928 238.565647 
L 396.864 238.565647 
L 400.4352 231.450353 
L 404.0064 245.680941 
L 407.5776 238.565647 
L 411.1488 224.335059 
" clip-path="url(#p97cd336c4c)" style="fill: none; stroke: #e377c2; stroke-width: 1.5; stroke-linecap: square"/>
   </g>
   <g id="line2d_22">
    <path d="M 57.6 274.142118 
L 61.1712 274.142118 
L 64.7424 267.026824 
L 68.3136 267.026824 
L 71.8848 274.142118 
L 75.456 259.911529 
L 79.0272 267.026824 
L 82.5984 274.142118 
L 86.1696 274.142118 
L 89.7408 259.911529 
L 93.312 259.911529 
L 96.8832 281.257412 
L 100.4544 259.911529 
L 104.0256 281.257412 
L 107.5968 259.911529 
L 111.168 274.142118 
L 114.7392 267.026824 
L 118.3104 267.026824 
L 121.8816 267.026824 
L 125.4528 267.026824 
L 129.024 259.911529 
L 132.5952 259.911529 
L 136.1664 259.911529 
L 139.7376 259.911529 
L 143.3088 281.257412 
L 146.88 267.026824 
L 150.4512 267.026824 
L 154.0224 267.026824 
L 157.5936 267.026824 
L 161.1648 267.026824 
L 164.736 259.911529 
L 168.3072 267.026824 
L 171.8784 252.796235 
L 175.4496 267.026824 
L 179.0208 259.911529 
L 182.592 274.142118 
L 186.1632 267.026824 
L 189.7344 267.026824 
L 193.3056 274.142118 
L 196.8768 267.026824 
L 200.448 252.796235 
L 204.0192 267.026824 
L 207.5904 259.911529 
L 211.1616 252.796235 
L 214.7328 267.026824 
L 218.304 274.142118 
L 221.8752 267.026824 
L 225.4464 274.142118 
L 229.0176 259.911529 
L 232.5888 267.026824 
L 236.16 274.142118 
L 239.7312 252.796235 
L 243.3024 210.104471 
L 246.8736 252.796235 
L 250.4448 238.565647 
L 254.016 82.029176 
L 257.5872 238.565647 
L 261.1584 245.680941 
L 264.7296 245.680941 
L 268.3008 224.335059 
L 271.872 231.450353 
L 275.4432 238.565647 
L 279.0144 238.565647 
L 282.5856 238.565647 
L 286.1568 238.565647 
L 289.728 238.565647 
L 293.2992 238.565647 
L 296.8704 217.219765 
L 300.4416 231.450353 
L 304.0128 238.565647 
L 307.584 231.450353 
L 311.1552 224.335059 
L 314.7264 245.680941 
L 318.2976 231.450353 
L 321.8688 238.565647 
L 325.44 146.066824 
L 329.0112 53.568 
L 332.5824 245.680941 
L 336.1536 245.680941 
L 339.7248 238.565647 
L 343.296 245.680941 
L 346.8672 224.335059 
L 350.4384 224.335059 
L 354.0096 231.450353 
L 357.5808 224.335059 
L 361.152 238.565647 
L 364.7232 224.335059 
L 368.2944 238.565647 
L 371.8656 238.565647 
L 375.4368 231.450353 
L 379.008 238.565647 
L 382.5792 217.219765 
L 386.1504 181.643294 
L 389.7216 224.335059 
L 393.2928 238.565647 
L 396.864 238.565647 
L 400.4352 231.450353 
L 404.0064 245.680941 
L 407.5776 238.565647 
L 411.1488 224.335059 
" clip-path="url(#p97cd336c4c)" style="fill: none; stroke: #7f7f7f; stroke-width: 1.5; stroke-linecap: square"/>
   </g>
   <g id="line2d_23">
    <path d="M 57.6 267.026824 
L 61.1712 267.026824 
L 64.7424 274.142118 
L 68.3136 267.026824 
L 71.8848 274.142118 
L 75.456 259.911529 
L 79.0272 259.911529 
L 82.5984 252.796235 
L 86.1696 259.911529 
L 89.7408 267.026824 
L 93.312 267.026824 
L 96.8832 274.142118 
L 100.4544 267.026824 
L 104.0256 259.911529 
L 107.5968 267.026824 
L 111.168 259.911529 
L 114.7392 259.911529 
L 118.3104 267.026824 
L 121.8816 274.142118 
L 125.4528 267.026824 
L 129.024 267.026824 
L 132.5952 267.026824 
L 136.1664 259.911529 
L 139.7376 267.026824 
L 143.3088 267.026824 
L 146.88 274.142118 
L 150.4512 259.911529 
L 154.0224 259.911529 
L 157.5936 267.026824 
L 161.1648 267.026824 
L 164.736 274.142118 
L 168.3072 267.026824 
L 171.8784 267.026824 
L 175.4496 274.142118 
L 179.0208 274.142118 
L 182.592 274.142118 
L 186.1632 267.026824 
L 189.7344 267.026824 
L 193.3056 259.911529 
L 196.8768 274.142118 
L 200.448 267.026824 
L 204.0192 259.911529 
L 207.5904 259.911529 
L 211.1616 259.911529 
L 214.7328 274.142118 
L 218.304 267.026824 
L 221.8752 267.026824 
L 225.4464 267.026824 
L 229.0176 274.142118 
L 232.5888 281.257412 
L 236.16 274.142118 
L 239.7312 245.680941 
L 243.3024 231.450353 
L 246.8736 231.450353 
L 250.4448 231.450353 
L 254.016 82.029176 
L 257.5872 238.565647 
L 261.1584 245.680941 
L 264.7296 238.565647 
L 268.3008 231.450353 
L 271.872 231.450353 
L 275.4432 238.565647 
L 279.0144 238.565647 
L 282.5856 238.565647 
L 286.1568 238.565647 
L 289.728 238.565647 
L 293.2992 238.565647 
L 296.8704 217.219765 
L 300.4416 231.450353 
L 304.0128 238.565647 
L 307.584 231.450353 
L 311.1552 231.450353 
L 314.7264 245.680941 
L 318.2976 231.450353 
L 321.8688 245.680941 
L 325.44 138.951529 
L 329.0112 67.798588 
L 332.5824 245.680941 
L 336.1536 245.680941 
L 339.7248 238.565647 
L 343.296 245.680941 
L 346.8672 231.450353 
L 350.4384 217.219765 
L 354.0096 238.565647 
L 357.5808 224.335059 
L 361.152 238.565647 
L 364.7232 224.335059 
L 368.2944 238.565647 
L 371.8656 238.565647 
L 375.4368 231.450353 
L 379.008 238.565647 
L 382.5792 224.335059 
L 386.1504 181.643294 
L 389.7216 231.450353 
L 393.2928 238.565647 
L 396.864 238.565647 
L 400.4352 231.450353 
L 404.0064 245.680941 
L 407.5776 238.565647 
L 411.1488 224.335059 
" clip-path="url(#p97cd336c4c)" style="fill: none; stroke: #bcbd22; stroke-width: 1.5; stroke-linecap: square"/>
   </g>
   <g id="line2d_24">
    <path d="M 57.6 267.026824 
L 61.1712 267.026824 
L 64.7424 267.026824 
L 68.3136 267.026824 
L 71.8848 267.026824 
L 75.456 267.026824 
L 79.0272 281.257412 
L 82.5984 267.026824 
L 86.1696 259.911529 
L 89.7408 267.026824 
L 93.312 267.026824 
L 96.8832 274.142118 
L 100.4544 281.257412 
L 104.0256 267.026824 
L 107.5968 259.911529 
L 111.168 281.257412 
L 114.7392 274.142118 
L 118.3104 259.911529 
L 121.8816 281.257412 
L 125.4528 288.372706 
L 129.024 274.142118 
L 132.5952 281.257412 
L 136.1664 267.026824 
L 139.7376 252.796235 
L 143.3088 288.372706 
L 146.88 267.026824 
L 150.4512 274.142118 
L 154.0224 245.680941 
L 157.5936 288.372706 
L 161.1648 281.257412 
L 164.736 267.026824 
L 168.3072 259.911529 
L 171.8784 267.026824 
L 175.4496 259.911529 
L 179.0208 274.142118 
L 182.592 267.026824 
L 186.1632 267.026824 
L 189.7344 267.026824 
L 193.3056 267.026824 
L 196.8768 259.911529 
L 200.448 274.142118 
L 204.0192 274.142118 
L 207.5904 267.026824 
L 211.1616 267.026824 
L 214.7328 267.026824 
L 218.304 252.796235 
L 221.8752 274.142118 
L 225.4464 267.026824 
L 229.0176 295.488 
L 232.5888 267.026824 
L 236.16 267.026824 
L 239.7312 259.911529 
L 243.3024 231.450353 
L 246.8736 231.450353 
L 250.4448 238.565647 
L 254.016 82.029176 
L 257.5872 231.450353 
L 261.1584 245.680941 
L 264.7296 238.565647 
L 268.3008 224.335059 
L 271.872 224.335059 
L 275.4432 238.565647 
L 279.0144 238.565647 
L 282.5856 238.565647 
L 286.1568 238.565647 
L 289.728 238.565647 
L 293.2992 231.450353 
L 296.8704 217.219765 
L 300.4416 231.450353 
L 304.0128 238.565647 
L 307.584 231.450353 
L 311.1552 231.450353 
L 314.7264 245.680941 
L 318.2976 231.450353 
L 321.8688 245.680941 
L 325.44 138.951529 
L 329.0112 53.568 
L 332.5824 245.680941 
L 336.1536 245.680941 
L 339.7248 238.565647 
L 343.296 245.680941 
L 346.8672 231.450353 
L 350.4384 224.335059 
L 354.0096 231.450353 
L 357.5808 224.335059 
L 361.152 238.565647 
L 364.7232 224.335059 
L 368.2944 238.565647 
L 371.8656 238.565647 
L 375.4368 224.335059 
L 379.008 238.565647 
L 382.5792 217.219765 
L 386.1504 174.528 
L 389.7216 231.450353 
L 393.2928 238.565647 
L 396.864 238.565647 
L 400.4352 231.450353 
L 404.0064 245.680941 
L 407.5776 238.565647 
L 411.1488 217.219765 
" clip-path="url(#p97cd336c4c)" style="fill: none; stroke: #17becf; stroke-width: 1.5; stroke-linecap: square"/>
   </g>
   <g id="line2d_25">
    <path d="M 57.6 268.104282 
L 61.1712 268.693835 
L 64.7424 268.368565 
L 68.3136 267.657035 
L 71.8848 264.648282 
L 75.456 266.335624 
L 79.0272 269.080094 
L 82.5984 271.072376 
L 86.1696 268.5312 
L 89.7408 265.583435 
L 93.312 265.725741 
L 96.8832 269.750965 
L 100.4544 269.832282 
L 104.0256 267.189459 
L 107.5968 264.871906 
L 111.168 266.518588 
L 114.7392 266.620235 
L 118.3104 269.120753 
L 121.8816 269.852612 
L 125.4528 270.035576 
L 129.024 267.372424 
L 132.5952 265.827388 
L 136.1664 264.912565 
L 139.7376 267.697694 
L 143.3088 269.994918 
L 146.88 270.157553 
L 150.4512 268.307576 
L 154.0224 266.477929 
L 157.5936 267.697694 
L 161.1648 268.348235 
L 164.736 266.355953 
L 168.3072 263.794447 
L 171.8784 267.189459 
L 175.4496 268.409224 
L 179.0208 267.738353 
L 182.592 267.169129 
L 186.1632 267.026824 
L 189.7344 265.258165 
L 193.3056 266.335624 
L 196.8768 266.437271 
L 200.448 266.437271 
L 204.0192 265.380141 
L 207.5904 265.624094 
L 211.1616 264.892235 
L 214.7328 265.176847 
L 218.304 266.213647 
L 221.8752 268.571859 
L 225.4464 269.486682 
L 229.0176 267.392753 
L 232.5888 268.5312 
L 236.16 265.298824 
L 239.7312 248.018824 
L 243.3024 233.910212 
L 246.8736 245.762259 
L 250.4448 185.648188 
L 254.016 160.582024 
L 257.5872 186.115765 
L 261.1584 253.995671 
L 264.7296 237.0816 
L 268.3008 228.482259 
L 271.872 230.047624 
L 275.4432 236.431059 
L 279.0144 239.358494 
L 282.5856 238.565647 
L 286.1568 238.687624 
L 289.728 240.212329 
L 293.2992 229.884988 
L 296.8704 223.847153 
L 300.4416 227.4048 
L 304.0128 236.3904 
L 307.584 232.121224 
L 311.1552 235.434918 
L 314.7264 236.959624 
L 318.2976 248.953976 
L 321.8688 220.086212 
L 325.44 129.925271 
L 329.0112 117.219388 
L 332.5824 190.547576 
L 336.1536 259.464282 
L 339.7248 243.566682 
L 343.296 239.826071 
L 346.8672 232.222871 
L 350.4384 225.656471 
L 354.0096 225.209224 
L 357.5808 231.572329 
L 361.152 228.705882 
L 364.7232 231.592659 
L 368.2944 233.869553 
L 371.8656 235.170635 
L 375.4368 234.235482 
L 379.008 232.263529 
L 382.5792 209.006682 
L 386.1504 198.049129 
L 389.7216 214.983529 
L 393.2928 241.249129 
L 396.864 236.309082 
L 400.4352 237.549176 
L 404.0064 240.984847 
L 407.5776 235.577224 
L 411.1488 224.477365 
" clip-path="url(#p97cd336c4c)" style="fill: none; stroke: #cccccc; stroke-width: 4; stroke-linecap: square"/>
   </g>
   <g id="line2d_26">
    <path d="M 57.6 224.335059 
L 414.72 224.335059 
" clip-path="url(#p97cd336c4c)" style="fill: none; stroke: #666666; stroke-width: 2; stroke-linecap: square"/>
   </g>
   <g id="patch_3">
    <path d="M 57.6 307.584 
L 57.6 41.472 
" style="fill: none; stroke: #000000; stroke-width: 0.8; stroke-linejoin: miter; stroke-linecap: square"/>
   </g>
   <g id="patch_4">
    <path d="M 414.72 307.584 
L 414.72 41.472 
" style="fill: none; stroke: #000000; stroke-width: 0.8; stroke-linejoin: miter; stroke-linecap: square"/>
   </g>
   <g id="patch_5">
    <path d="M 57.6 307.584 
L 414.72 307.584 
" style="fill: none; stroke: #000000; stroke-width: 0.8; stroke-linejoin: miter; stroke-linecap: square"/>
   </g>
   <g id="patch_6">
    <path d="M 57.6 41.472 
L 414.72 41.472 
" style="fill: none; stroke: #000000; stroke-width: 0.8; stroke-linejoin: miter; stroke-linecap: square"/>
   </g>
   <g id="legend_1">
    <g id="patch_7">
     <path d="M 64.6 78.82825 
L 147.3375 78.82825 
Q 149.3375 78.82825 149.3375 76.82825 
L 149.3375 48.472 
Q 149.3375 46.472 147.3375 46.472 
L 64.6 46.472 
Q 62.6 46.472 62.6 48.472 
L 62.6 76.82825 
Q 62.6 78.82825 64.6 78.82825 
z
" style="fill: #ffffff; opacity: 0.8; stroke: #cccccc; stroke-linejoin: miter"/>
    </g>
    <g id="line2d_27">
     <path d="M 66.6 54.570437 
L 76.6 54.570437 
L 86.6 54.570437 
" style="fill: none; stroke: #cccccc; stroke-width: 4; stroke-linecap: square"/>
    </g>
    <g id="text_17">
     <!-- Mean rate -->
     <g transform="translate(94.6 58.070437) scale(0.1 -0.1)">
      <defs>
       <path id="DejaVuSans-4d" d="M 628 4666 
L 1569 4666 
L 2759 1491 
L 3956 4666 
L 4897 4666 
L 4897 0 
L 4281 0 
L 4281 4097 
L 3078 897 
L 2444 897 
L 1241 4097 
L 1241 0 
L 628 0 
L 628 4666 
z
" transform="scale(0.015625)"/>
      </defs>
      <use xlink:href="#DejaVuSans-4d"/>
      <use xlink:href="#DejaVuSans-65" x="86.279297"/>
      <use xlink:href="#DejaVuSans-61" x="147.802734"/>
      <use xlink:href="#DejaVuSans-6e" x="209.082031"/>
      <use xlink:href="#DejaVuSans-20" x="272.460938"/>
      <use xlink:href="#DejaVuSans-72" x="304.248047"/>
      <use xlink:href="#DejaVuSans-61" x="345.361328"/>
      <use xlink:href="#DejaVuSans-74" x="406.640625"/>
      <use xlink:href="#DejaVuSans-65" x="445.849609"/>
     </g>
    </g>
    <g id="line2d_28">
     <path d="M 66.6 69.248562 
L 76.6 69.248562 
L 86.6 69.248562 
" style="fill: none; stroke: #666666; stroke-width: 2; stroke-linecap: square"/>
    </g>
    <g id="text_18">
     <!-- Setpoint -->
     <g transform="translate(94.6 72.748562) scale(0.1 -0.1)">
      <defs>
       <path id="DejaVuSans-53" d="M 3425 4513 
L 3425 3897 
Q 3066 4069 2747 4153 
Q 2428 4238 2131 4238 
Q 1616 4238 1336 4038 
Q 1056 3838 1056 3469 
Q 1056 3159 1242 3001 
Q 1428 2844 1947 2747 
L 2328 2669 
Q 3034 2534 3370 2195 
Q 3706 1856 3706 1288 
Q 3706 609 3251 259 
Q 2797 -91 1919 -91 
Q 1588 -91 1214 -16 
Q 841 59 441 206 
L 441 856 
Q 825 641 1194 531 
Q 1563 422 1919 422 
Q 2459 422 2753 634 
Q 3047 847 3047 1241 
Q 3047 1584 2836 1778 
Q 2625 1972 2144 2069 
L 1759 2144 
Q 1053 2284 737 2584 
Q 422 2884 422 3419 
Q 422 4038 858 4394 
Q 1294 4750 2059 4750 
Q 2388 4750 2728 4690 
Q 3069 4631 3425 4513 
z
" transform="scale(0.015625)"/>
       <path id="DejaVuSans-70" d="M 1159 525 
L 1159 -1331 
L 581 -1331 
L 581 3500 
L 1159 3500 
L 1159 2969 
Q 1341 3281 1617 3432 
Q 1894 3584 2278 3584 
Q 2916 3584 3314 3078 
Q 3713 2572 3713 1747 
Q 3713 922 3314 415 
Q 2916 -91 2278 -91 
Q 1894 -91 1617 61 
Q 1341 213 1159 525 
z
M 3116 1747 
Q 3116 2381 2855 2742 
Q 2594 3103 2138 3103 
Q 1681 3103 1420 2742 
Q 1159 2381 1159 1747 
Q 1159 1113 1420 752 
Q 1681 391 2138 391 
Q 2594 391 2855 752 
Q 3116 1113 3116 1747 
z
" transform="scale(0.015625)"/>
       <path id="DejaVuSans-6f" d="M 1959 3097 
Q 1497 3097 1228 2736 
Q 959 2375 959 1747 
Q 959 1119 1226 758 
Q 1494 397 1959 397 
Q 2419 397 2687 759 
Q 2956 1122 2956 1747 
Q 2956 2369 2687 2733 
Q 2419 3097 1959 3097 
z
M 1959 3584 
Q 2709 3584 3137 3096 
Q 3566 2609 3566 1747 
Q 3566 888 3137 398 
Q 2709 -91 1959 -91 
Q 1206 -91 779 398 
Q 353 888 353 1747 
Q 353 2609 779 3096 
Q 1206 3584 1959 3584 
z
" transform="scale(0.015625)"/>
       <path id="DejaVuSans-69" d="M 603 3500 
L 1178 3500 
L 1178 0 
L 603 0 
L 603 3500 
z
M 603 4863 
L 1178 4863 
L 1178 4134 
L 603 4134 
L 603 4863 
z
" transform="scale(0.015625)"/>
      </defs>
      <use xlink:href="#DejaVuSans-53"/>
      <use xlink:href="#DejaVuSans-65" x="63.476562"/>
      <use xlink:href="#DejaVuSans-74" x="125"/>
      <use xlink:href="#DejaVuSans-70" x="164.208984"/>
      <use xlink:href="#DejaVuSans-6f" x="227.685547"/>
      <use xlink:href="#DejaVuSans-69" x="288.867188"/>
      <use xlink:href="#DejaVuSans-6e" x="316.650391"/>
      <use xlink:href="#DejaVuSans-74" x="380.029297"/>
     </g>
    </g>
   </g>
  </g>
 </g>
 <defs>
  <clipPath id="p97cd336c4c">
   <rect x="57.6" y="41.472" width="357.12" height="266.112"/>
  </clipPath>
 </defs>
</svg>
